<?xml version="1.0" encoding="UTF-8"?>
<svg id="Layer_1" data-name="Layer 1" xmlns="http://www.w3.org/2000/svg" xmlns:xlink="http://www.w3.org/1999/xlink" version="1.1" viewBox="0 0 951 738">
  <defs>
    <style>
      .cls-1 {
        fill: #c66622;
      }

      .cls-1, .cls-2, .cls-3, .cls-4, .cls-5, .cls-6, .cls-7, .cls-8, .cls-9, .cls-10, .cls-11, .cls-12 {
        stroke-width: 0px;
      }

      .cls-2 {
        fill: #190d04;
      }

      .cls-13, .cls-3, .cls-14, .cls-15, .cls-16, .cls-17 {
        fill: none;
      }

      .cls-13, .cls-14 {
        stroke-width: 2.2px;
      }

      .cls-13, .cls-14, .cls-15, .cls-16, .cls-17 {
        stroke-miterlimit: 10;
      }

      .cls-13, .cls-15, .cls-17 {
        stroke: #65847d;
      }

      .cls-18 {
        clip-path: url(#clippath);
      }

      .cls-4 {
        fill: #fef2ea;
      }

      .cls-5 {
        fill: #633311;
      }

      .cls-14, .cls-16 {
        stroke: #3e655d;
      }

      .cls-6 {
        fill: #f7802b;
      }

      .cls-7 {
        fill: #f9a66b;
      }

      .cls-15, .cls-16 {
        stroke-width: 1.8px;
      }

      .cls-8 {
        fill: #b77b53;
      }

      .cls-9 {
        fill: #ad5a1e;
      }

      .cls-10 {
        fill: #7c4016;
      }

      .cls-11 {
        fill: #fab380;
      }

      .cls-12 {
        fill: #944d1a;
      }

      .cls-17 {
        stroke-linecap: round;
        stroke-width: 1.7px;
      }
    </style>
    <clipPath id="clippath">
      <rect class="cls-3" x="0" width="951" height="738"/>
    </clipPath>
  </defs>
  <g class="cls-18">
    <g>
      <path class="cls-12" d="M607.3,328.2s-100.4,299.1,111.1,326.8c211.5,27.8,196.6-286.2,196.6-286.2-149.6-143.1-307.7-40.6-307.7-40.6Z"/>
      <path class="cls-12" d="M607.3,328.2s-80.6,240.2,54.9,310c-19.4-31-26-68.7-25.6-106.6,0-2.1.3-4,.6-5.8-2.1-5.3-4-10.6-5.6-16.1-7.4,3.7-16.1,4-24-.6-11.4-6.6-16.9-23.4-9.2-34.9,6.7-10,13.7-20.9,15.5-33,1.5-10.1-2.3-18.5-8.2-27.2-7.8-11.4-2.1-28.3,9.2-34.9.6-.4,1.2-.7,1.9-1,0-.2-.1-.3-.1-.5-5.7-17.4,6.6-39,24.5-43.1,12.8-2.9,25,.7,33.5,8.9,38,1.8,76.9,5.5,113.7,14.3,19.3,4.6,38.3,10.4,57.5,15.4,9.9,2.6,19.9,5,29.9,7,4.7.9,9.4,1.8,14.2,2.5-.1-.1,9.5.8,10.7.9,5,.4,10,1.7,14.6,3.8.1-11.7-.2-18.7-.2-18.7-149.6-143.1-307.7-40.6-307.7-40.6h0Z"/>
      <path class="cls-12" d="M605.5,355.2s-89.5-40.9-4.6-101.8c84.9-60.9,281-21.8,331.2,38.5,50.2,60.2-15.4,99.3-15.4,99.3.3,10.7-311.2-36-311.2-36Z"/>
      <path class="cls-12" d="M577.1,274.8c-40.6,48.9,28.4,80.4,28.4,80.4,0,0,311.4,46.6,311.2,36,0,0,30.6-18.2,34-49-2.8,2.4-5.7,4.4-8.9,6.2-.2.6-.4,1.1-.7,1.7-12.4,27-50,31-76.3,33.1-30.8,2.4-62.5-3.1-92.3-10.4-21.9-5.4-43.1-13.5-63.1-23.8-1.9-.6-3.6-1.5-5.2-2.6-22-7.1-42.1-18.1-58.6-34-24.6-9.2-48.7-20.8-68.5-37.6h0Z"/>
      <path class="cls-12" d="M773.9,244.8c-2.1-6.4-4.3-34.2,6.4-70.5,10.7-36.3,36.3-15,21.4,0-15,15-17.1,66.2-17.1,66.2,0,0-8.5,10.7-10.7,4.3Z"/>
      <path class="cls-12" d="M774.7,246.1c2.9,3.2,9.9-5.6,9.9-5.6,0,0,2.1-51.3,17.1-66.2,8.6-8.6,3.8-19.3-3.9-20,.3,2.5.1,5-.8,7.5-3,8-7.5,13.3-11.6,20.5-3.1,5.3-3.5,11.1-4.1,17.1-1.7,15.6-4.5,31.1-6.6,46.7Z"/>
      <path class="cls-7" d="M607.3,328.2s-100.4,299.1,111.1,326.8c211.5,27.8,196.6-286.2,196.6-286.2-149.6-143.1-307.7-40.6-307.7-40.6Z"/>
      <path class="cls-8" d="M607.3,328.2s-80.6,240.2,54.9,310c-19.4-31-26-68.7-25.6-106.6,0-2.1.3-4,.6-5.8-2.1-5.3-4-10.6-5.6-16.1-7.4,3.7-16.1,4-24-.6-11.4-6.6-16.9-23.4-9.2-34.9,6.7-10,13.7-20.9,15.5-33,1.5-10.1-2.3-18.5-8.2-27.2-7.8-11.4-2.1-28.3,9.2-34.9.6-.4,1.2-.7,1.9-1,0-.2-.1-.3-.1-.5-5.7-17.4,6.6-39,24.5-43.1,12.8-2.9,25,.7,33.5,8.9,38,1.8,76.9,5.5,113.7,14.3,19.3,4.6,38.3,10.4,57.5,15.4,9.9,2.6,19.9,5,29.9,7,4.7.9,9.4,1.8,14.2,2.5-.1-.1,9.5.8,10.7.9,5,.4,10,1.7,14.6,3.8.1-11.7-.2-18.7-.2-18.7-149.6-143.1-307.7-40.6-307.7-40.6h0Z"/>
      <path class="cls-9" d="M605.5,355.2s-89.5-40.9-4.6-101.8c84.9-60.9,281-21.8,331.2,38.5,50.2,60.2-15.4,99.3-15.4,99.3.3,10.7-311.2-36-311.2-36Z"/>
      <path class="cls-10" d="M577.1,274.8c-40.6,48.9,28.4,80.4,28.4,80.4,0,0,311.4,46.6,311.2,36,0,0,30.6-18.2,34-49-2.8,2.4-5.7,4.4-8.9,6.2-.2.6-.4,1.1-.7,1.7-12.4,27-50,31-76.3,33.1-30.8,2.4-62.5-3.1-92.3-10.4-21.9-5.4-43.1-13.5-63.1-23.8-1.9-.6-3.6-1.5-5.2-2.6-22-7.1-42.1-18.1-58.6-34-24.6-9.2-48.7-20.8-68.5-37.6h0Z"/>
      <path class="cls-9" d="M773.9,244.8c-2.1-6.4-4.3-34.2,6.4-70.5,10.7-36.3,36.3-15,21.4,0-15,15-17.1,66.2-17.1,66.2,0,0-8.5,10.7-10.7,4.3Z"/>
      <path class="cls-10" d="M774.7,246.1c2.9,3.2,9.9-5.6,9.9-5.6,0,0,2.1-51.3,17.1-66.2,8.6-8.6,3.8-19.3-3.9-20,.3,2.5.1,5-.8,7.5-3,8-7.5,13.3-11.6,20.5-3.1,5.3-3.5,11.1-4.1,17.1-1.7,15.6-4.5,31.1-6.6,46.7Z"/>
      <path class="cls-12" d="M376.5,612.3c-94-61.9-34.2-207.2-34.2-207.2C635.1-250.7-354.2,1.3,141.5,379.4c8.5,6.4,15,4.3,6.4-15-76.9-130.3,132.5-136.7,70.5-32-190.2,247.8-4.3,388.8,203,365.3,59.8-29.9,49.1-23.5-44.9-85.4Z"/>
      <path class="cls-5" d="M196.4,614.9c-23.3-21.9-43.7-49.4-55.7-79.8-.3.7-.6,1.4-.8,2.2,10.7,116.9,141.2,176.3,281.5,160.4,59.5-29.8,49.2-23.6-43.4-84.5,1.6,14.7-3.4,28.5-18.9,36.6-8.2,4.3-17.4,6-26.7,6.4-1.3.7-2.8,1.3-4.4,1.8-48.4,14.4-96.8-10.6-131.6-43.1h0Z"/>
      <path class="cls-11" d="M130.9,33.8c-22,9.6-52.5,24.7-60.9,49.2,25.8-18.4,55.5-31.8,85.1-39.8,56-15.1,119.7-9.8,162.3,32.9,0-1.1.2-2.2.4-3.3-26.4-29.9-61.6-51.4-102.7-54.7-29.1-2.4-57.6,4-84.2,15.6h0Z"/>
      <path class="cls-5" d="M102.6,288.8c-.3,5.5-.7,10.9-.6,16.4,0,2.3.3,4.6.4,6.9,0,.7.1,1.2.2,1.6.1.7.2,1.5.4,2.2.9,5,2.3,9.8,4,14.6,4.2,12.3,10.2,23.9,17.1,35.1,5.6,4.6,11.4,9.2,17.5,13.8,8.5,6.4,15,4.3,6.4-15-76.9-130.3,132.5-136.7,70.5-32-10.1,13.2-19.1,26-27.2,38.6.1,0,.2-.2.3-.3,18.9-21.7,36.5-44.9,47.3-70.2,4.1-14.2,6.7-28.7,7.7-43.5-8.3-16.4-21.2-28.5-37-36.4-8-1.9-15.8-4.5-23.3-8-.1,0-.3,0-.4,0-4.5,1.1-9.4,1.3-14.3.5,5.9,1-4.1-.2-5.2-.3-2.4,0-4.8.1-7.2.2-.2,0-.3,0-.5,0-1.2.2-2.4.5-3.6.7-2.2.5-4.3,1.3-6.5,1.9-.6.2-1,.4-1.4.5-.7.4-1.5.7-2.3,1.1-2,1-3.9,2.2-5.8,3.4-1.2.7-2.3,1.5-3.4,2.3-1.7,1.5-3.4,3-5,4.6-2.2,2.1-4.2,4.4-6.2,6.7-.3.4-.6.6-.8.8-.1.3-.3.6-.6.9-3.1,4.6-6,9.2-8.6,14.1-1.2,2.3-2.3,4.6-3.4,7-.5,1.3-1,2.6-1.5,4-1.9,5.3-3.5,10.7-4.7,16.2-.5,2.3-1,4.7-1.5,7.1-.2.9-.3,1.8-.4,2.7,0,.4-.1,1-.2,1.8h0Z"/>
      <path class="cls-5" d="M343.9,587.4c1.3-.7,2.8-1.2,4.3-1.6-1.8-2.5-3.5-5-5.1-7.5.3,3.1.7,6.1.8,9.1Z"/>
      <path class="cls-16" d="M663.2,318.9c0-16.1-12.6-29.2-28.2-29.2-15.6,0-28.2,13.1-28.2,29.2s12.6,29.2,28.2,29.2c15.6,0,28.2-13.1,28.2-29.2Z"/>
      <path class="cls-15" d="M665.3,316.8c0-16.1-12.6-29.2-28.2-29.2s-28.2,13.1-28.2,29.2,12.6,29.2,28.2,29.2,28.2-13.1,28.2-29.2Z"/>
      <path class="cls-6" d="M468.4,285.4c29.9,74.8-6.4,102.5-6.4,102.5-245.7,153.8-68.4,314-12.8,324.7,49.1,8.5,245.7,47,207.3,8.5-85.5-47-113.2-15-113.2-15,0,0,91.9-49.1,87.6-96.1-21.4-21.4-17.1-91.9-17.1-91.9,0,0,123.9-4.3,109-27.8-15-23.5-181.6-76.9-119.7-87.6,62-10.7,70.5-57.7,59.8-66.2-36.3-121.8-153.8-76.9-153.8-76.9-8.5-36.3-70.5-49.1-40.6,25.6Z"/>
      <path class="cls-1" d="M622.7,737.7c30.3,1.3,47.9-2.4,33.8-16.5-54-29.7-85-27.8-100.5-22.4,25.1-15.5,78.1-52.7,74.8-88.7-21.4-21.4-17.1-91.9-17.1-91.9,0,0,71.2-2.5,99.1-13.9.8-3.5-10.4-6.2-12.8-6.5-6.1-.7-12,1.1-17.8,2.5-10.5,2.5-21,4.6-31.7,5.6-15.7,1.5-31.2-1.3-46.8-2.3-.6,2.8-1.6,5.6-3.1,8.2-7.1,12.6-7.7,26.1-8.8,41-.8,11.6-1.6,23.4-3.8,34.8,12.6-1,19.8,6.5,22.6,16.3.7,1.7,1,3.5,1.1,5.4,1,8.6-.8,18.1-5.1,24.9-2.4,3.9-5.2,7.4-8.4,10.7-4,5.4-9.1,10.1-14.6,13.9-15.3,15.7-34.6,27.1-55.5,35.4-3.9,1.9-7.9,3.7-12,5.4,12.7,8.4,28.3,13.5,43.8,16.8,20.3,4.4,48.5,5,62.6,21.1Z"/>
      <path class="cls-1" d="M397.5,677.4c-14-12.6-26.9-26.3-39.2-40.6,26.3,42.8,68.5,71.5,90.9,75.8.2,0,.5,0,.7.1-2.4-1.5-4.7-3.1-7-4.8-17.2-6.8-33.8-20.1-45.4-30.5h0Z"/>
      <path class="cls-11" d="M489.9,238.9c0,3.5,0,7,0,10.5,2,6.8,5.5,14.5,12.9,15.2.4-.2.7-.3,1.1-.5,1.1-.4,2.2-.8,3.3-1.2-1.6-9.5-8.5-19.6-16.1-23.6-.4-.2-.8-.3-1.2-.5h0Z"/>
      <path class="cls-11" d="M637,382.7c-2,4.2-4.4,8.2-7,12,5-2.3,9.4-4.9,13.3-7.7-2.1-1.5-4.2-2.9-6.3-4.3h0Z"/>
      <path class="cls-11" d="M470.2,394.4c-7.3,1.9-13.9,6.3-20.4,9.9-1.1.6-2.2,1-3.3,1-8.1,5.4-15.8,11.6-23.1,17.9-13.3,11.6-25.4,24.2-36.7,37.5-.3,1-.9,2-1.8,3-15.2,17.2-24.1,38.6-30.6,60.4-4.5,21.3-5.4,43.4-2.6,65.2.3-4.2.7-8.4,1.2-12.6,3.3-27.2,10.2-51.2,24.6-74.7,13.7-22.3,30.7-46.6,51.5-62.7,9.3-7.2,19.5-13.1,28.8-20.3,5-3.8,13.6-9.6,15.2-16.1.6-2.6-.4-7.1-2.9-8.5Z"/>
      <path class="cls-2" d="M626.5,326c0-5.9-4.8-10.7-10.7-10.7s-10.7,4.8-10.7,10.7c0,5.9,4.8,10.7,10.7,10.7s10.7-4.8,10.7-10.7Z"/>
      <path class="cls-4" d="M624.4,320.7c0-1.8-1.4-3.2-3.2-3.2s-3.2,1.4-3.2,3.2,1.4,3.2,3.2,3.2,3.2-1.4,3.2-3.2Z"/>
      <path class="cls-5" d="M662.8,336.7c20.6,4.6,2.1,19.2,2.1,19.2,0,0-10.6-16.1-2.1-19.2Z"/>
      <path class="cls-10" d="M645.7,379.4c-6.4,2.1-32.1-36.3-32.1-6.4,4.3,32,19.2,19.2,19.2,19.2,10.7-4.3,19.2-15,12.8-12.8Z"/>
      <path class="cls-14" d="M645.2,318.5c0-19.5-15.3-35.2-34.1-35.2-18.8,0-34.1,15.8-34.1,35.2s15.3,35.2,34.1,35.2c18.8,0,34.1-15.8,34.1-35.2Z"/>
      <path class="cls-13" d="M647.3,316.4c0-19.5-15.3-35.2-34.1-35.2s-34.1,15.8-34.1,35.2c0,19.5,15.3,35.2,34.1,35.2s34.1-15.8,34.1-35.2Z"/>
      <path class="cls-17" d="M647.9,326c8.5-4.3,15,0,15,0"/>
      <path class="cls-8" d="M897.9,413.6c6.4,12.8-15,138.9-15,138.9,25.6-79,29.9-147.4,29.9-147.4,0,0-15,4.3-15,8.5Z"/>
    </g>
  </g>
</svg>