<?xml version="1.0" encoding="UTF-8"?>
<svg id="Layer_1" data-name="Layer 1" xmlns="http://www.w3.org/2000/svg" xmlns:xlink="http://www.w3.org/1999/xlink" version="1.1" viewBox="0 0 980 738">
  <defs>
    <style>
      .cls-1 {
        fill: #c66622;
      }

      .cls-1, .cls-2, .cls-3, .cls-4, .cls-5, .cls-6, .cls-7, .cls-8, .cls-9, .cls-10, .cls-11, .cls-12 {
        stroke-width: 0px;
      }

      .cls-2 {
        fill: #190d04;
      }

      .cls-13, .cls-3, .cls-14, .cls-15, .cls-16, .cls-17 {
        fill: none;
      }

      .cls-13, .cls-14 {
        stroke-width: 2.2px;
      }

      .cls-13, .cls-14, .cls-15, .cls-16, .cls-17 {
        stroke-miterlimit: 10;
      }

      .cls-13, .cls-15, .cls-17 {
        stroke: #65847d;
      }

      .cls-18 {
        clip-path: url(#clippath);
      }

      .cls-4 {
        fill: #fef2ea;
      }

      .cls-5 {
        fill: #633311;
      }

      .cls-14, .cls-16 {
        stroke: #3e655d;
      }

      .cls-6 {
        fill: #f7802b;
      }

      .cls-7 {
        fill: #f9a66b;
      }

      .cls-15, .cls-16 {
        stroke-width: 1.8px;
      }

      .cls-8 {
        fill: #b77b53;
      }

      .cls-9 {
        fill: #ad5a1e;
      }

      .cls-10 {
        fill: #7c4016;
      }

      .cls-11 {
        fill: #fab380;
      }

      .cls-12 {
        fill: #944d1a;
      }

      .cls-17 {
        stroke-linecap: round;
        stroke-width: 1.7px;
      }
    </style>
    <clipPath id="clippath">
      <rect class="cls-3" x="28.9" y="0" width="951" height="738" transform="translate(-38.8 60) rotate(-6.6)"/>
    </clipPath>
  </defs>
  <g class="cls-18">
    <g>
      <path class="cls-12" d="M630.7,313.4s-65.6,308.6,147.7,312c213.3,3.5,162.6-306.8,162.6-306.8-165-125.1-310.3-5.2-310.3-5.2h0Z"/>
      <path class="cls-12" d="M630.7,313.4s-52.7,247.8,89.9,301.7c-22.8-28.6-33.7-65.3-37.6-103-.2-2.1-.2-4,0-5.8-2.7-5-5.2-10.1-7.4-15.4-6.9,4.5-15.5,5.8-23.9,2.1-12.1-5.3-19.5-21.3-13.1-33.6,5.5-10.7,11.2-22.3,11.6-34.6.3-10.2-4.4-18.1-11.3-26.1-9.1-10.4-5.3-27.9,5.2-35.7.6-.5,1.1-.8,1.8-1.2,0-.2-.1-.3-.2-.5-7.6-16.6,2.1-39.5,19.4-45.6,12.4-4.3,24.9-2.2,34.3,5,38-2.5,77-3.3,114.6,1.2,19.7,2.4,39.2,6,58.9,8.7,10.1,1.5,20.3,2.7,30.5,3.5,4.8.4,9.5.7,14.4.9-.1,0,9.5-.3,10.7-.3,5-.2,10.1.5,14.9,2.1-1.2-11.6-2.3-18.6-2.3-18.6-165-125.1-310.3-5.2-310.3-5.2h0v.2Z"/>
      <path class="cls-12" d="M631.9,340.5s-93.6-30.4-16.2-100.6c77.4-70.2,276.7-53.7,333.4.4,56.7,54.1-4,100.4-4,100.4,1.5,10.6-313.3-.2-313.3-.2Z"/>
      <path class="cls-12" d="M594.6,263.8c-34.8,53.2,37.4,76.6,37.4,76.6,0,0,314.7,10.7,313.3.2,0,0,28.3-21.6,28.2-52.6-2.5,2.7-5.2,5-8.1,7.2-.1.6-.3,1.1-.5,1.8-9.2,28.2-46.1,36.5-72,41.6-30.3,5.9-62.4,4.1-92.9.2-22.4-2.9-44.4-8.5-65.4-16.4-2-.4-3.7-1.1-5.5-2-22.7-4.5-43.9-13.2-62.1-27.1-25.5-6.3-50.8-15.1-72.3-29.5h0Z"/>
      <path class="cls-12" d="M786.6,211.6c-2.8-6.1-8.2-33.5-1.7-70.8s34.4-19,21.3-2.4c-13.2,16.6-9.4,67.7-9.4,67.7,0,0-7.2,11.6-10.1,5.5h0Z"/>
      <path class="cls-12" d="M787.6,212.8c3.2,2.8,9.2-6.7,9.2-6.7,0,0-3.8-51.2,9.4-67.7,7.6-9.5,1.6-19.6-6.2-19.4.6,2.4.7,5,0,7.5-2.1,8.3-5.9,14.1-9.2,21.7-2.5,5.6-2.2,11.4-2.1,17.5,0,15.7-.9,31.4-1.2,47.1h0Z"/>
      <path class="cls-7" d="M630.7,313.4s-65.6,308.6,147.7,312c213.3,3.5,162.6-306.8,162.6-306.8-165-125.1-310.3-5.2-310.3-5.2h0Z"/>
      <path class="cls-8" d="M630.7,313.4s-52.7,247.8,89.9,301.7c-22.8-28.6-33.7-65.3-37.6-103-.2-2.1-.2-4,0-5.8-2.7-5-5.2-10.1-7.4-15.4-6.9,4.5-15.5,5.8-23.9,2.1-12.1-5.3-19.5-21.3-13.1-33.6,5.5-10.7,11.2-22.3,11.6-34.6.3-10.2-4.4-18.1-11.3-26.1-9.1-10.4-5.3-27.9,5.2-35.7.6-.5,1.1-.8,1.8-1.2,0-.2-.1-.3-.2-.5-7.6-16.6,2.1-39.5,19.4-45.6,12.4-4.3,24.9-2.2,34.3,5,38-2.5,77-3.3,114.6,1.2,19.7,2.4,39.2,6,58.9,8.7,10.1,1.5,20.3,2.7,30.5,3.5,4.8.4,9.5.7,14.4.9-.1,0,9.5-.3,10.7-.3,5-.2,10.1.5,14.9,2.1-1.2-11.6-2.3-18.6-2.3-18.6-165-125.1-310.3-5.2-310.3-5.2h0v.2Z"/>
      <path class="cls-9" d="M631.9,340.5s-93.6-30.4-16.2-100.6c77.4-70.2,276.7-53.7,333.4.4,56.7,54.1-4,100.4-4,100.4,1.5,10.6-313.3-.2-313.3-.2Z"/>
      <path class="cls-10" d="M594.6,263.8c-34.8,53.2,37.4,76.6,37.4,76.6,0,0,314.7,10.7,313.3.2,0,0,28.3-21.6,28.2-52.6-2.5,2.7-5.2,5-8.1,7.2-.1.6-.3,1.1-.5,1.8-9.2,28.2-46.1,36.5-72,41.6-30.3,5.9-62.4,4.1-92.9.2-22.4-2.9-44.4-8.5-65.4-16.4-2-.4-3.7-1.1-5.5-2-22.7-4.5-43.9-13.2-62.1-27.1-25.5-6.3-50.8-15.1-72.3-29.5h0Z"/>
      <path class="cls-9" d="M786.6,211.6c-2.8-6.1-8.2-33.5-1.7-70.8s34.4-19,21.3-2.4c-13.2,16.6-9.4,67.7-9.4,67.7,0,0-7.2,11.6-10.1,5.5h0Z"/>
      <path class="cls-10" d="M787.6,212.8c3.2,2.8,9.2-6.7,9.2-6.7,0,0-3.8-51.2,9.4-67.7,7.6-9.5,1.6-19.6-6.2-19.4.6,2.4.7,5,0,7.5-2.1,8.3-5.9,14.1-9.2,21.7-2.5,5.6-2.2,11.4-2.1,17.5,0,15.7-.9,31.4-1.2,47.1h0Z"/>
      <path class="cls-12" d="M433.8,622c-100.5-50.8-57.6-201.9-57.6-201.9,216-684.9-738-321.7-202.4-2.6,9.2,5.4,15.4,2.6,4.6-15.6-91.3-120.7,116-150.9,66.4-39.8-160.7,267.9,40.1,386.7,243.4,339.7,56-36.5,46.1-29-54.4-79.7h0Z"/>
      <path class="cls-5" d="M255.2,645.2c-25.6-19.1-49.1-44.1-64.4-72.9-.2.7-.4,1.5-.5,2.3,24,114.9,160.4,159,298,127.2,55.7-36.4,46.2-29.1-52.8-79,3.3,14.4-.1,28.7-14.6,38.5-7.7,5.2-16.6,7.9-25.8,9.4-1.2.8-2.6,1.6-4.2,2.3-46.4,19.8-97.4.5-135.7-27.8h0Z"/>
      <path class="cls-11" d="M123.8,75.3c-20.8,12-49.3,30.5-54.9,55.8,23.5-21.2,51.5-37.9,80-49.3,53.9-21.4,117.8-23.4,165,14.2-.1-1.1,0-2.2,0-3.3-29.6-26.7-67.1-44-108.3-42.6-29.2.9-56.8,10.5-81.9,25.1h0Z"/>
      <path class="cls-5" d="M124.8,331.9c.3,5.5.5,10.9,1.3,16.4.3,2.3.8,4.5,1.2,6.8,0,.7.2,1.2.4,1.6.2.7.4,1.5.6,2.1,1.5,4.9,3.4,9.5,5.6,14,5.6,11.7,12.9,22.6,21,32.9,6.1,3.9,12.4,7.8,19,11.7,9.2,5.4,15.4,2.6,4.6-15.6-91.3-120.7,116-150.9,66.4-39.8-8.5,14.3-16,28-22.6,41.5,0,0,.2-.2.3-.3,16.3-23.7,31.1-48.8,39-75.1,2.5-14.6,3.4-29.3,2.7-44.1-10.1-15.3-24.3-25.9-40.9-31.9-8.2-1-16.2-2.7-24.1-5.3h-.4c-4.3,1.7-9.2,2.4-14.1,2.2,6,.3-4.1.3-5.2.3-2.4.3-4.8.6-7.1,1h-.5c-1.2.4-2.3.8-3.5,1.2-2.1.7-4.1,1.8-6.2,2.6-.6.3-.9.5-1.3.7-.6.5-1.4.9-2.2,1.4-1.9,1.2-3.6,2.6-5.4,4-1.1.8-2.1,1.8-3.1,2.7-1.5,1.7-3,3.4-4.4,5.1-1.9,2.3-3.7,4.9-5.4,7.4-.3.4-.5.7-.7.9,0,.3-.2.6-.5,1-2.6,4.9-4.9,9.8-6.9,15-.9,2.4-1.8,4.8-2.6,7.3-.3,1.3-.7,2.7-1,4.1-1.3,5.5-2.3,11-2.8,16.6-.2,2.3-.5,4.8-.7,7.2,0,.9,0,1.8,0,2.7,0,.4,0,1,0,1.8h-.2Z"/>
      <path class="cls-5" d="M398.6,601c1.2-.8,2.6-1.5,4.1-2.1-2.1-2.3-4-4.6-5.9-6.9.7,3,1.4,6,1.8,8.9h0Z"/>
      <path class="cls-16" d="M685.1,297.8c-1.8-16-15.9-27.6-31.3-25.8-15.5,1.8-26.5,16.2-24.7,32.2s15.9,27.6,31.3,25.8,26.5-16.2,24.7-32.2Z"/>
      <path class="cls-15" d="M687,295.5c-1.8-16-15.9-27.6-31.3-25.8s-26.5,16.2-24.7,32.2,15.9,27.6,31.3,25.8c15.5-1.8,26.5-16.2,24.7-32.2Z"/>
      <path class="cls-6" d="M487.8,286.8c38.2,70.9,5.3,102.6,5.3,102.6-226.5,180.8-32.1,319.8,24.3,324,49.7,2.8,249.5,18.6,206.9-15.2-90.3-36.9-114.2-2-114.2-2,0,0,85.7-59.3,76.1-105.5-23.7-18.8-27.5-89.3-27.5-89.3,0,0,122.6-18.4,105.1-40.1-17.6-21.6-189.2-55.7-128.9-73.4,60.4-17.7,63.5-65.4,51.9-72.6-50-116.9-161.6-58.8-161.6-58.8-12.6-35.1-75.6-40.7-37.4,30.1v.2Z"/>
      <path class="cls-1" d="M692.7,718.5c30.3-2.2,47.3-7.9,31.7-20.3-57-23.3-87.6-17.9-102.4-10.8,23.2-18.3,71.6-61.3,64.2-96.7-23.7-18.8-27.5-89.3-27.5-89.3,0,0,70.4-10.6,96.9-25.1.4-3.6-11-5-13.5-5-6.1,0-11.8,2.5-17.4,4.5-10.1,3.7-20.3,7-30.9,9.2-15.4,3.3-31.1,2.3-46.8,3.1-.3,2.9-1,5.7-2.1,8.5-5.6,13.3-4.7,26.8-4.1,41.7.5,11.6,1.1,23.4.2,35,12.4-2.4,20.4,4.2,24.3,13.6.9,1.6,1.4,3.4,1.7,5.2,2,8.4,1.3,18.1-2.2,25.3-1.9,4.1-4.3,7.9-7.1,11.6-3.4,5.8-7.9,11.1-12.9,15.5-13.4,17.3-31.3,30.9-51.1,41.5-3.7,2.3-7.4,4.6-11.3,6.7,13.6,6.9,29.7,10.2,45.4,11.7,20.7,2.1,48.8-.6,64.6,13.8l.2.2Z"/>
      <path class="cls-1" d="M462.1,684.3c-15.3-10.9-29.7-23.1-43.6-35.9,31,39.5,76.2,63.2,99,64.9.2,0,.5,0,.7,0-2.6-1.2-5-2.5-7.5-4-17.9-4.8-35.9-16.1-48.6-25.1h0Z"/>
      <path class="cls-11" d="M503.8,238.1l1.2,10.4c2.8,6.5,7.1,13.8,14.6,13.6.4-.2.7-.4,1-.6,1-.5,2.1-1,3.1-1.6-2.7-9.3-10.7-18.5-18.7-21.6-.4-.2-.8-.2-1.2-.4h0Z"/>
      <path class="cls-11" d="M666.4,364.2c-1.5,4.4-3.4,8.6-5.6,12.7,4.7-2.9,8.8-5.9,12.3-9.2-2.3-1.3-4.5-2.4-6.7-3.6h0Z"/>
      <path class="cls-11" d="M502,394.8c-7,2.7-13.1,7.8-19.1,12.2-1,.7-2.1,1.2-3.2,1.4-7.4,6.3-14.4,13.3-20.9,20.4-11.9,13-22.5,26.9-32.2,41.4-.2,1-.7,2.1-1.4,3.2-13.1,18.8-19.5,41.1-23.5,63.5-2,21.7-.4,43.7,4.9,65.1-.2-4.2-.3-8.4-.2-12.7.2-27.4,4.3-52,15.9-77,11.1-23.7,25.2-49.8,44-68.2,8.4-8.2,17.9-15.2,26.3-23.5,4.5-4.3,12.4-11.1,13.3-17.7.3-2.7-1.2-7-3.9-8.1h0Z"/>
      <path class="cls-2" d="M649.5,309c-.7-5.9-6-10.1-11.9-9.4s-10.1,6-9.4,11.9,6,10.1,11.9,9.4,10.1-6,9.4-11.9Z"/>
      <path class="cls-4" d="M646.8,304c-.2-1.8-1.8-3-3.5-2.8s-3,1.8-2.8,3.5,1.8,3,3.5,2.8,3-1.8,2.8-3.5Z"/>
      <path class="cls-5" d="M686.8,315.5c21,2.2,4.3,18.8,4.3,18.8,0,0-12.4-14.8-4.3-18.8Z"/>
      <path class="cls-10" d="M674.6,359.9c-6.1,2.8-36-32.4-32.6-2.7,7.9,31.3,21.3,16.9,21.3,16.9,10.1-5.5,17.4-17.1,11.3-14.2h0Z"/>
      <path class="cls-14" d="M667.2,299.5c-2.2-19.4-19.2-33.2-37.9-31.1s-32.1,19.6-29.9,38.9,19.2,33.2,37.9,31.1,32.1-19.6,29.9-38.9Z"/>
      <path class="cls-13" d="M669,297.1c-2.2-19.4-19.2-33.2-37.9-31.1s-32.1,19.6-29.9,38.9c2.2,19.4,19.2,33.2,37.9,31.1s32.1-19.6,29.9-38.9Z"/>
      <path class="cls-17" d="M670.7,306.6c8-5.2,14.9-1.7,14.9-1.7"/>
      <path class="cls-8" d="M929.1,365.1c7.8,12,1,139.7,1,139.7,16.4-81.4,12.9-149.8,12.9-149.8,0,0-14.4,6-13.9,10.2h0Z"/>
    </g>
  </g>
</svg>