<svg width="208" height="543" viewBox="0 0 208 543" fill="none" xmlns="http://www.w3.org/2000/svg">
<path d="M407.731 252.731C406.454 246.818 400.659 242.204 395.451 244.223C392.541 245.355 389.631 246.47 386.73 247.602C387.403 246.873 388.076 246.153 388.741 245.416C398.276 234.916 384.268 217.88 374.751 228.371C360.942 243.574 346.117 257.315 330.296 269.446C322.479 272.488 314.671 275.547 306.872 278.642C299.196 281.686 291.657 285.031 284.371 289.015C284.763 288.238 285.155 287.461 285.538 286.674C290.947 275.71 295.841 264.412 300.246 252.841C302.54 246.81 304.747 240.743 306.788 234.585C307.029 233.867 307.252 233.183 307.475 232.518C309.719 228.45 311.955 224.392 314.2 220.325C316.926 215.393 315.683 208.432 311.853 204.943C307.702 201.166 302.57 201.76 298.583 205.657C294.166 209.979 291.361 215.975 289.078 222.323C274.729 248.376 260.553 274.574 247.441 301.511C249.434 288.13 251.057 274.699 251.141 261.084C251.27 238.882 247.351 216.754 237.14 198.274C237.531 196.44 237.564 194.494 237.154 192.611C235.795 186.309 230.197 182.561 224.874 184.103C221.109 185.195 217.829 187.932 215.981 192.006C213.712 197.007 214.306 202.178 217.32 206.438C219.888 210.056 222.017 214.01 223.782 218.197C221.786 221.061 220.955 224.985 221.64 228.836C226.418 255.54 224.469 283.323 222.08 310.56C215.081 296.652 205.503 284.647 199.255 270.153C197.565 266.232 193.897 264.137 190.273 264.191C187.255 260.654 183.96 257.367 180.344 254.286C175.719 250.352 170.876 246.793 166.252 242.85C163.609 240.596 162.984 240.048 160.681 237.491C158.69 235.283 156.465 232.304 155.582 230.757C152.541 225.457 146.879 222.915 141.843 226.267C137.387 229.232 134.894 237.135 137.952 242.471C144.019 253.052 152.26 260.569 161.161 267.647C169.331 274.15 176.52 279.21 181.974 288.988C188.37 300.456 192.992 313.576 197.491 326.193C201.459 337.347 204.955 348.749 208.071 360.285C208.134 360.718 208.197 361.142 208.261 361.575C207.314 393.795 204.537 425.861 199.922 457.607C199.854 457.976 199.778 458.344 199.71 458.722C196.054 468.72 191.594 478.299 186.767 487.635C183.483 492.178 179.844 496.398 175.753 500.171C174.455 501.365 173.646 502.831 173.188 504.427C171.378 505.093 169.693 506.254 168.18 508.193C164.154 513.358 163.734 523.339 169.916 526.894C182.045 533.867 195.314 536.975 208.577 535.635C213.911 536.622 218.983 536.943 224.444 535.651C227.709 534.877 229.903 532.288 231.014 529.092C231.049 529.075 231.076 529.067 231.111 529.05C234.96 527.14 237.176 523.169 237.495 518.287C240.978 465.375 246.679 412.694 254.674 360.439C263.446 346.016 274.251 333.335 286.673 323.104C293.248 319.425 300.165 316.395 306.61 312.635C316.472 306.879 326.088 300.555 335.423 293.672C336.574 292.828 337.716 291.975 338.85 291.113C359.371 283.138 379.91 275.18 400.431 267.214C405.612 265.203 409.123 259.21 407.723 252.705L407.731 252.731Z" fill="#8C6239"/>
<path d="M234.72 303.652C233.495 302.558 232.665 301.038 232.652 299.179C232.599 288.521 233.691 277.882 234.607 267.266C233.302 259.318 233.642 250.991 233.13 243.047C233.031 241.54 232.888 240.04 232.728 238.54C230.62 230.605 227.875 222.835 225.288 215.042C223.718 210.304 227.646 207.312 231.559 207.404C231.578 207.307 231.588 207.219 231.616 207.123C232.474 203.253 236.364 202.022 239.574 203C238.807 201.402 238.004 199.83 237.148 198.283C237.54 196.449 237.572 194.503 237.163 192.62C235.803 186.318 230.206 182.57 224.883 184.112C221.118 185.203 217.838 187.941 215.99 192.015C213.721 197.015 214.314 202.186 217.329 206.446C219.896 210.065 222.026 214.019 223.79 218.205C221.795 221.07 220.963 224.993 221.649 228.845C225.958 252.926 224.797 277.867 222.777 302.504C223.026 305.573 223.213 308.632 222.898 311.701C222.531 315.262 220.117 317.855 216.421 317.962C214.04 318.028 211.601 316.297 210.606 314.052C208.704 313.933 206.878 312.978 205.774 310.916C198.677 297.649 191.428 282.354 178.838 273.391C169.367 266.647 154.544 263.742 149.142 252.432C146.373 246.626 152.646 241.515 157.175 243.202C157.591 241.007 158.946 238.986 160.785 237.589C160.759 237.554 160.733 237.536 160.707 237.5C158.716 235.292 156.491 232.313 155.609 230.766C152.567 225.467 146.906 222.924 141.87 226.276C137.413 229.241 134.92 237.145 137.979 242.48C144.045 253.061 152.287 260.578 161.188 267.656C169.358 274.159 176.547 279.219 182 288.997C188.396 300.465 193.019 313.585 197.518 326.202C201.485 337.356 204.982 348.758 208.097 360.294C208.16 360.727 208.224 361.151 208.287 361.584C207.341 393.804 204.563 425.87 199.948 457.616C199.881 457.985 199.804 458.353 199.736 458.731C196.08 468.729 191.62 478.308 186.794 487.644C183.51 492.187 179.87 496.407 175.779 500.18C174.481 501.374 173.672 502.84 173.214 504.436C171.405 505.102 169.72 506.263 168.207 508.202C164.181 513.367 163.76 523.348 169.943 526.903C175.654 530.185 181.617 532.609 187.71 534.11C189.023 530.415 190.318 526.728 191.42 522.959C191.785 521.706 192.391 520.756 193.125 520.046C193.927 515.787 195.782 511.872 198.181 508.054C201.63 502.554 203.785 497.507 204.844 491.051C207.177 476.813 209.351 462.624 212.466 448.522C215.696 433.911 219.635 419.619 221.582 404.749C223.498 390.098 224.773 375.384 227.244 360.805C227.283 360.594 227.33 360.383 227.395 360.182C227.48 357.752 227.696 355.334 228.229 352.929C229.458 347.383 232.265 342.365 234.361 337.124C236.604 331.533 237.308 326.304 236.825 320.289C236.372 314.663 235.361 309.132 234.738 303.635L234.72 303.652Z" fill="#603813" stroke="#603813" stroke-miterlimit="10"/>
<path d="M526.635 186.886C520.566 183.897 513.999 181.763 507.312 181.52C505.989 177.825 503.479 174.507 499.824 172.131C496.405 169.908 492.197 168.508 487.944 167.724C483.409 164.734 478.289 162.527 473.067 161.111C469.32 160.098 465.179 159.413 460.934 159.193C463.426 152.408 463.233 144.892 458.817 137.403C457.513 135.188 455.855 133.144 453.937 131.307C454.653 129.038 455.16 126.641 455.413 124.118C456.298 115.378 453.087 108.05 447.787 102.281C446.195 97.261 443.841 92.4836 440.616 88.1674C430.853 75.103 414.043 69.1709 398.151 71.7092C391.77 72.7311 385.471 75.6921 380.252 79.9568C380.265 63.1874 370.964 46.6957 353.904 41.5256C342.457 38.0513 329.813 40.8987 321.606 49.465C320.459 45.7645 318.968 42.1199 317.061 38.583C310.304 26.0174 298.294 16.1042 284.409 12.4751C279.818 11.2719 275.278 10.7565 270.825 10.8415C264.731 8.31876 257.77 8.15092 251.174 9.35428C241.227 11.1629 231.857 16.9884 225.083 24.6977C222.82 24.5722 220.578 24.6937 218.412 25.1159C207.887 27.188 201.742 35.2423 199.4 44.7246C192.734 40.0257 184.189 38.5899 176.165 40.8706C167.467 43.3428 160.235 49.9787 157.064 58.3816C154.212 58.1231 151.349 57.9966 148.528 57.9764C138.833 57.9131 130.758 59.5236 123.066 65.6764C117.483 70.1465 112.713 76.0656 109.574 82.4962C106.755 88.2714 105.151 94.1548 104.719 99.9959C104.108 100.144 103.498 100.275 102.896 100.45C81.7563 106.346 66.4938 125.761 64.901 147.472C64.7083 150.067 64.7892 152.64 65.1001 155.164C59.9854 158.479 55.4895 162.756 51.9766 167.824C48.843 172.352 46.848 177.85 46.4209 183.427C42.3223 183.932 38.2673 185.001 34.344 186.636C30.8289 188.102 27.6312 190.101 24.8673 192.522C18.5005 196.926 13.1752 202.854 9.94358 209.573C6.52976 216.651 3.85983 225.124 5.58033 233.035C7.33361 241.097 13.7286 246.725 20.9188 250.111C33.8383 256.199 48.2005 256.066 61.1092 250C61.3936 249.864 61.6694 249.71 61.9449 249.573C66.8953 254.605 73.2613 258.251 80.2032 259.59C90.7742 261.631 102.396 259.833 112.064 254.655C119.627 266.406 135.448 269.741 147.981 264.012C154.722 260.935 160.417 255.049 163.934 248.167C164.92 248.236 165.916 248.261 166.904 248.189C178.094 247.476 187.648 240.631 192.171 230.401C193.701 226.948 194.829 223.223 195.394 219.454C208.779 229.381 226.153 233.121 242.536 226.486C251.332 231.916 262.091 233.794 272.342 231.162C273.033 230.98 273.724 230.78 274.406 230.562C264.326 238.851 265.861 254.747 275.103 264.659C283.332 273.488 297.176 277.495 308.431 272.819C311.955 272.957 315.489 272.487 318.822 271.37C320.425 271.414 322.049 271.336 323.674 271.142C330.842 276.915 340.079 280.186 349.195 281.243C361.732 282.701 375.557 278.79 384.8 269.976C391.914 274.771 400.093 277.531 409.022 275.978C413.354 275.222 417.449 273.334 421.01 270.68C421.149 270.824 421.279 270.975 421.418 271.11C433.064 282.779 452.17 284.169 466.256 276.21C472.093 272.907 477.086 267.899 480.984 261.939C481.159 261.994 481.343 262.033 481.528 262.089C486.831 267.637 494.414 271.796 501.425 274.29C511.906 278.021 522.083 275.089 530.54 268.526C543.559 258.428 555.786 243.481 556.14 226.312C556.519 208.174 541.884 194.386 526.635 186.877L526.635 186.886ZM317.187 162.763C317.238 162.852 317.29 162.941 317.332 163.03C317.127 163.15 316.923 163.27 316.718 163.381C316.576 163.458 316.292 163.594 315.954 163.765C316.373 163.437 316.785 163.1 317.187 162.754L317.187 162.763Z" fill="#609F92"/>
<path d="M203.399 36.8814C203.345 36.4225 203.309 35.9551 203.281 35.4967C202.222 37.1438 201.364 38.9352 200.646 40.7993C201.47 39.439 202.382 38.1329 203.399 36.8814Z" fill="#41603C"/>
<path d="M273.069 230.945C273.731 224.438 275.599 218.137 279.252 212.005C280.467 209.973 281.857 208.006 283.395 206.137C282.407 205.135 281.482 204.054 280.663 202.904C275.755 204.417 270.418 204.655 265.685 203.493C259.733 202.038 253.857 196.983 250.902 191.737C247.854 186.323 247.426 180.706 248.272 174.863C248.316 174.317 248.343 173.781 248.352 173.235C248.335 173.173 248.319 173.093 248.294 173.022C248.25 172.977 248.207 172.924 248.164 172.879C248.112 172.825 248.051 172.772 247.999 172.718C247.179 172.194 246.368 171.669 245.521 171.18C243.996 170.652 243.12 170.303 242.691 170.111C241.148 169.637 239.576 169.25 237.995 168.924C234.879 168.643 231.75 168.592 228.627 168.769C227.522 168.971 226.416 169.199 225.318 169.463C224.478 169.669 223.654 169.902 222.821 170.162C221.727 170.734 220.633 171.315 219.548 171.904C219.208 172.225 218.868 172.545 218.545 172.883C208.771 182.903 192.716 181.414 183.108 172.298C179.003 168.399 176.822 163.325 176.309 158.04C173.233 158.025 170.171 157.657 167.205 156.886C165.168 156.35 163.197 155.622 161.317 154.728C161.281 154.762 161.254 154.806 161.218 154.841C152.237 164.292 134.397 164.174 125.781 154.255C124.761 153.085 123.712 151.957 122.593 150.882C121.933 150.255 121.238 149.662 120.578 149.043C118.113 146.739 122.886 150.772 122.954 150.897C121.877 148.844 116.984 146.755 115.011 145.631C113.884 144.996 112.73 144.413 111.576 143.839C111.155 143.673 110.735 143.508 110.314 143.351C108.071 142.548 105.799 141.903 103.48 141.38C102.379 141.3 101.287 141.256 100.185 141.264C99.9725 141.322 99.7601 141.371 99.5565 141.421C99.2198 141.53 98.8037 141.637 98.3081 141.753C97.5246 142.224 96.7669 142.731 96.0263 143.274C90.6908 147.149 82.7864 146.974 76.6757 145.482C74.7618 145.01 72.9585 144.24 71.291 143.261C69.3731 143.027 67.4763 142.591 65.6358 141.944C65.306 143.762 65.0551 145.607 64.9186 147.472C64.7258 150.067 64.8067 152.64 65.1176 155.164C60.0029 158.479 55.507 162.756 51.9942 167.824C51.8769 167.99 51.777 168.164 51.6685 168.33C57.739 166.924 63.6147 168.236 68.5541 171.26C74.876 165.842 83.9371 163.763 92.3657 165.822C96.1322 166.748 99.398 168.625 102.072 171.126C103.657 168.554 105.741 166.228 108.356 164.272C116.772 157.999 127.157 157.959 136.219 162.777C139.05 164.277 141.533 166.071 143.668 168.088C152.186 172.201 157.78 180.978 158.072 191.067C158.237 197.059 155.782 202.69 151.848 207.056C149.748 213.072 146.27 218.695 141.523 223.241C132.557 231.812 118.854 236.36 106.728 232.416C101.23 230.625 96.6675 227.723 92.9026 224.041C88.5131 227.747 83.3889 230.568 77.5376 232.048C66.1092 234.951 54.2562 231.003 45.8355 223.131C38.8904 216.648 35.1 208.104 32.1698 199.248C30.8935 195.396 30.8428 191.528 31.7051 187.887C29.2244 189.176 26.942 190.733 24.9024 192.531C18.5356 196.935 13.2102 202.863 9.97862 209.583C6.56481 216.66 3.89488 225.133 5.61538 233.044C7.36866 241.106 13.7637 246.734 20.9539 250.12C33.8734 256.208 48.2356 256.076 61.1443 250.009C61.4286 249.873 61.7044 249.719 61.98 249.583C66.9303 254.614 73.2964 258.26 80.2383 259.599C90.8093 261.641 102.431 259.842 112.099 254.665C119.662 266.416 135.483 269.751 148.016 264.022C154.758 260.945 160.452 255.058 163.969 248.176C164.955 248.245 165.951 248.27 166.939 248.199C178.129 247.485 187.683 240.641 192.207 230.411C193.736 226.957 194.864 223.232 195.429 219.463C208.814 229.39 226.188 233.13 242.571 226.495C251.367 231.925 262.126 233.803 272.377 231.171C272.625 231.105 272.864 231.03 273.112 230.955L273.069 230.945Z" fill="#3E655D"/>
<path d="M111.374 79.1966C112.311 79.0712 113.256 78.9635 114.201 78.8646C114.152 77.5602 114.147 76.2478 114.204 74.9364C113.185 76.3112 112.245 77.7401 111.374 79.1966Z" fill="#41603C"/>
<path d="M196.361 50.9543C196.99 48.6747 197.784 46.4507 198.78 44.3181C195.153 41.9065 191.008 40.4289 186.705 39.9614C190.525 42.9927 193.777 46.7632 196.361 50.9543Z" fill="#41603C"/>
</svg>
