<svg width="57" height="73" viewBox="0 0 57 73" fill="none" xmlns="http://www.w3.org/2000/svg">
<path d="M46.8701 28.3809C46.8701 28.3809 54.8268 68.7046 28.5371 69.0057C2.24728 69.3068 8.62662 28.7937 8.62662 28.7937C8.62662 28.7937 25.8683 12.6281 46.8701 28.3809Z" fill="#944D1A"/>
<path d="M8.62675 28.7936C8.62675 28.7936 25.8684 12.628 46.8702 28.3807C46.8702 28.3807 47.0449 29.2724 47.2585 30.791C46.6628 30.5986 46.0309 30.5189 45.4127 30.5643C45.2653 30.5753 44.0741 30.6311 44.0948 30.6449C43.5049 30.6493 42.91 30.6206 42.3199 30.5883C41.0587 30.5162 39.7992 30.3845 38.5441 30.2296C36.1102 29.9308 33.685 29.5317 31.2438 29.2905C26.5986 28.8288 21.7952 29.0632 17.1313 29.5337C15.9351 28.624 14.3852 28.3837 12.8793 28.9983C10.7844 29.8517 9.71322 32.8668 10.743 35.0163C10.7516 35.0376 10.7597 35.0561 10.7708 35.077C10.7013 35.1271 10.6291 35.1776 10.5634 35.2355C9.31657 36.2969 8.961 38.5908 10.1302 39.9197C11.0226 40.9318 11.6526 41.9496 11.6658 43.2866C11.6801 44.8946 11.0417 46.4262 10.4209 47.8449C9.70702 49.4754 10.7057 51.542 12.2191 52.1919C13.2603 52.639 14.3238 52.4416 15.1462 51.8285C15.4503 52.5029 15.7835 53.1588 16.1415 53.8025C16.1297 54.0415 16.1387 54.2944 16.1766 54.5627C16.8689 59.478 18.4055 64.2232 21.3704 67.8769C3.5069 61.3422 8.6254 28.8023 8.6254 28.8023L8.62675 28.7936Z" fill="#944D1A"/>
<path d="M47.5135 31.247C47.5135 31.247 54.739 24.9853 47.4506 18.1234C40.1617 11.2588 15.5336 9.81154 6.38803 19.2449C-2.75755 28.6782 8.93667 32.3232 8.93667 32.3232C8.93667 32.3232 47.7564 32.6255 47.5135 31.247Z" fill="#944D1A"/>
<path d="M3.90911 22.4499C6.64641 24.2453 9.81793 25.3055 12.9861 26.0442C15.3066 27.7924 17.9636 28.8456 20.7784 29.3581C20.9951 29.4722 21.2229 29.5536 21.4639 29.5991C24.1067 30.5585 26.8426 31.2184 29.6136 31.5115C33.3822 31.9108 37.3519 32.0397 41.0498 31.1615C44.2086 30.4129 48.7074 29.2019 49.6878 25.4802C49.7081 25.4036 49.7233 25.3279 49.7406 25.249C50.0865 24.9679 50.4088 24.6537 50.6997 24.2905C50.8843 28.3276 47.5161 31.2464 47.5161 31.2464C47.756 32.6226 8.93928 32.3226 8.93928 32.3226C8.93928 32.3226 -0.0667692 29.5143 3.91431 22.4491L3.90911 22.4499Z" fill="#944D1A"/>
<path d="M28.5012 14.2079C28.5012 14.2079 27.7594 7.54024 29.2877 5.3318C30.816 3.12337 27.2777 0.833231 26.687 5.72488C26.0963 10.6165 26.899 14.1676 27.2843 14.9568C27.6696 15.7461 28.5012 14.2079 28.5012 14.2079Z" fill="#944D1A"/>
<path d="M27.2877 8.95893C27.2514 8.17343 27.1903 7.41712 27.4587 6.67597C27.8252 5.66858 28.2622 4.89913 28.4723 3.80802C28.5362 3.4735 28.5121 3.13815 28.422 2.82407C29.3712 2.76818 30.1677 4.06026 29.2878 5.33169C27.7595 7.54012 28.5013 14.2078 28.5013 14.2078C28.5013 14.2078 27.8172 15.4723 27.4009 15.1114C27.3515 13.0595 27.3848 11.0093 27.2877 8.95893Z" fill="#944D1A"/>
<path d="M46.8701 28.3809C46.8701 28.3809 54.8268 68.7046 28.5371 69.0057C2.24728 69.3068 8.62662 28.7937 8.62662 28.7937C8.62662 28.7937 25.8683 12.6281 46.8701 28.3809Z" fill="#F9A66B"/>
<path d="M47.5135 31.247C47.5135 31.247 54.739 24.9853 47.4506 18.1234C40.1617 11.2588 15.5336 9.81154 6.38803 19.2449C-2.75755 28.6782 8.93667 32.3232 8.93667 32.3232C8.93667 32.3232 47.7564 32.6255 47.5135 31.247Z" fill="#AD5A1E"/>
<path d="M3.90911 22.4499C6.64641 24.2453 9.81793 25.3055 12.9861 26.0442C15.3066 27.7924 17.9636 28.8456 20.7784 29.3581C20.9951 29.4722 21.2229 29.5536 21.4639 29.5991C24.1067 30.5585 26.8426 31.2184 29.6136 31.5115C33.3822 31.9108 37.3519 32.0397 41.0498 31.1615C44.2086 30.4129 48.7074 29.2019 49.6878 25.4802C49.7081 25.4036 49.7233 25.3279 49.7406 25.249C50.0865 24.9679 50.4088 24.6537 50.6997 24.2905C50.8843 28.3276 47.5161 31.2464 47.5161 31.2464C47.756 32.6226 8.93928 32.3226 8.93928 32.3226C8.93928 32.3226 -0.0667692 29.5143 3.91431 22.4491L3.90911 22.4499Z" fill="#7C4016"/>
<path d="M28.5012 14.2079C28.5012 14.2079 27.7594 7.54024 29.2877 5.3318C30.816 3.12337 27.2777 0.833231 26.687 5.72488C26.0963 10.6165 26.899 14.1676 27.2843 14.9568C27.6696 15.7461 28.5012 14.2079 28.5012 14.2079Z" fill="#AD5A1E"/>
<path d="M27.2877 8.95893C27.2514 8.17343 27.1903 7.41712 27.4587 6.67597C27.8252 5.66858 28.2622 4.89913 28.4723 3.80802C28.5362 3.4735 28.5121 3.13815 28.422 2.82407C29.3712 2.76818 30.1677 4.06026 29.2878 5.33169C27.7595 7.54012 28.5013 14.2078 28.5013 14.2078C28.5013 14.2078 27.8172 15.4723 27.4009 15.1114C27.3515 13.0595 27.3848 11.0093 27.2877 8.95893Z" fill="#7C4016"/>
<path d="M47.3198 33.1155C47.3198 33.1155 48.1355 42.032 46.5591 52.7224C46.5591 52.7224 46.697 36.0345 45.6663 34.4954C45.5828 33.943 47.3198 33.1155 47.3198 33.1155Z" fill="#B77B53"/>
</svg>
