<svg width="52" height="44" viewBox="0 0 52 44" fill="none" xmlns="http://www.w3.org/2000/svg">
<g clip-path="url(#clip0_1239_1786)">
<path d="M44 25.7559V41.8535C44 42.4348 43.8021 42.9379 43.4062 43.3626C43.0104 43.7874 42.5417 43.9998 42 43.9998H30V31.1218H22V43.9998H9.99999C9.45833 43.9998 8.98958 43.7874 8.59374 43.3626C8.19791 42.9379 7.99999 42.4348 7.99999 41.8535V25.7559C7.99999 25.7336 8.0052 25.7 8.01562 25.6553C8.02604 25.6106 8.03124 25.5771 8.03124 25.5547L26 9.65839L43.9687 25.5547C43.9896 25.5994 44 25.6665 44 25.7559ZM50.9687 23.4419L49.0312 25.9236C48.8646 26.1248 48.6458 26.2478 48.375 26.2925H48.2812C48.0104 26.2925 47.7917 26.2143 47.625 26.0578L26 6.70717L4.37499 26.0578C4.12499 26.2366 3.87499 26.3149 3.62499 26.2925C3.35416 26.2478 3.13541 26.1248 2.96874 25.9236L1.03124 23.4419C0.864577 23.2183 0.79166 22.9556 0.812493 22.6538C0.833327 22.352 0.94791 22.1116 1.15624 21.9328L23.625 1.84436C24.2917 1.26306 25.0833 0.972412 26 0.972412C26.9167 0.972412 27.7083 1.26306 28.375 1.84436L36 8.68583V2.14619C36 1.83318 36.0937 1.57607 36.2812 1.37485C36.4687 1.17363 36.7083 1.07302 37 1.07302H43C43.2917 1.07302 43.5312 1.17363 43.7187 1.37485C43.9062 1.57607 44 1.83318 44 2.14619V15.8291L50.8437 21.9328C51.0521 22.1116 51.1667 22.352 51.1875 22.6538C51.2083 22.9556 51.1354 23.2183 50.9687 23.4419Z" fill="#F7802B"/>
</g>
<defs>
<clipPath id="clip0_1239_1786">
<rect width="52" height="44" fill="white"/>
</clipPath>
</defs>
</svg>
