<svg width="25" height="23" viewBox="0 0 25 23" fill="none" xmlns="http://www.w3.org/2000/svg">
<path d="M3.08864 7C3.08864 4.074 5.08831 2.33333 7.17198 2.33333C9.39564 2.33333 10.9683 4.179 12.422 5.63267C13.8756 4.179 15.4483 2.33333 17.672 2.33333C19.7906 2.33333 21.7553 4.06467 21.7553 7C21.7553 8.309 21.48 9.50833 20.997 10.619L23.139 11.5477C23.7665 10.1137 24.0899 8.56524 24.0886 7C24.0886 2.912 21.2116 0 17.672 0C15.4436 0 13.759 1.14917 12.422 2.366C11.085 1.14917 9.40031 0 7.17198 0C3.67664 0 0.75531 2.912 0.75531 7C0.75531 10.5233 2.34431 13.3817 4.49214 15.6858C6.62714 17.9748 9.37114 19.7808 11.8293 21.231L13.0146 19.222C10.6031 17.7987 8.09714 16.1303 6.19898 14.0945C4.31481 12.075 3.08864 9.75683 3.08864 7ZM20.5886 16.3333V12.8333H18.2553V16.3333H14.7553V18.6667H18.2541L18.2553 22.1667H20.5886L20.5875 18.6667H24.0886V16.3333H20.5886Z" fill="#3E655D"/>
</svg>
