<svg width="74" height="74" viewBox="0 0 74 74" fill="none" xmlns="http://www.w3.org/2000/svg">
<circle cx="37" cy="37" r="37" fill="#F7802B"/>
<g clip-path="url(#clip0_800_5800)">
<path d="M43.9375 38.3875C43.9375 40.2274 43.2066 41.992 41.9056 43.293C40.6045 44.594 38.8399 45.325 37 45.325C35.1601 45.325 33.3955 44.594 32.0944 43.293C30.7934 41.992 30.0625 40.2274 30.0625 38.3875C30.0625 36.5475 30.7934 34.7829 32.0944 33.4819C33.3955 32.1809 35.1601 31.45 37 31.45C38.8399 31.45 40.6045 32.1809 41.9056 33.4819C43.2066 34.7829 43.9375 36.5475 43.9375 38.3875Z" fill="#1A1D1A"/>
<path d="M20.35 25.9C18.878 25.9 17.4664 26.4847 16.4255 27.5255C15.3847 28.5664 14.8 29.978 14.8 31.45L14.8 48.1C14.8 49.5719 15.3847 50.9836 16.4255 52.0244C17.4664 53.0652 18.878 53.65 20.35 53.65H53.65C55.1219 53.65 56.5336 53.0652 57.5744 52.0244C58.6153 50.9836 59.2 49.5719 59.2 48.1V31.45C59.2 29.978 58.6153 28.5664 57.5744 27.5255C56.5336 26.4847 55.1219 25.9 53.65 25.9H50.3977C48.9259 25.8997 47.5144 25.3147 46.4738 24.2738L44.1761 21.9761C43.1356 20.9352 41.7241 20.3503 40.2523 20.35H33.7477C32.2759 20.3503 30.8644 20.9352 29.8238 21.9761L27.5261 24.2738C26.4856 25.3147 25.0741 25.8997 23.6023 25.9H20.35ZM21.7375 31.45C21.3695 31.45 21.0166 31.3038 20.7564 31.0436C20.4962 30.7834 20.35 30.4305 20.35 30.0625C20.35 29.6945 20.4962 29.3416 20.7564 29.0814C21.0166 28.8212 21.3695 28.675 21.7375 28.675C22.1055 28.675 22.4584 28.8212 22.7186 29.0814C22.9788 29.3416 23.125 29.6945 23.125 30.0625C23.125 30.4305 22.9788 30.7834 22.7186 31.0436C22.4584 31.3038 22.1055 31.45 21.7375 31.45ZM46.7125 38.3875C46.7125 40.9634 45.6892 43.4338 43.8678 45.2553C42.0463 47.0767 39.5759 48.1 37 48.1C34.4241 48.1 31.9537 47.0767 30.1322 45.2553C28.3108 43.4338 27.2875 40.9634 27.2875 38.3875C27.2875 35.8116 28.3108 33.3412 30.1322 31.5197C31.9537 29.6983 34.4241 28.675 37 28.675C39.5759 28.675 42.0463 29.6983 43.8678 31.5197C45.6892 33.3412 46.7125 35.8116 46.7125 38.3875Z" fill="#1A1D1A"/>
</g>
<defs>
<clipPath id="clip0_800_5800">
<rect width="44.4" height="44.4" fill="white" transform="translate(14.8 14.8)"/>
</clipPath>
</defs>
</svg>
