<?xml version="1.0" encoding="UTF-8"?>
<svg id="Layer_2" data-name="Layer 2" xmlns="http://www.w3.org/2000/svg" viewBox="0 0 547.98 467.88">
  <defs>
    <style>
      .cls-1 {
        fill: #8e8e8e;
      }

      .cls-1, .cls-2, .cls-3, .cls-4, .cls-5, .cls-6, .cls-7 {
        stroke-width: 0px;
      }

      .cls-2 {
        fill: #fff;
      }

      .cls-2, .cls-3 {
        fill-rule: evenodd;
      }

      .cls-3 {
        fill: #211915;
      }

      .cls-4 {
        fill: silver;
      }

      .cls-5 {
        fill: #aaa7a5;
      }

      .cls-6 {
        fill: #663734;
      }

      .cls-8 {
        fill: none;
        stroke: #663734;
        stroke-miterlimit: 10;
        stroke-width: 11.39px;
      }

      .cls-7 {
        fill: #cecece;
      }
    </style>
  </defs>
  <g id="Layer_1_Outlined_Text" data-name="Layer 1 Outlined Text">
    <g id="CentralPark_Badge_-_Silver" data-name="CentralPark Badge - Silver">
      <polygon class="cls-5" points="103.1 371.03 0 371.03 25.44 326.75 0 284.8 103.1 284.8 103.1 371.03"/>
      <polygon class="cls-1" points="103.02 371.15 103.02 351.73 61.07 351.73 103.02 371.15"/>
      <polygon class="cls-5" points="444.88 371.18 547.98 371.18 522.54 326.89 547.98 284.95 444.88 284.95 444.88 371.18"/>
      <polygon class="cls-1" points="444.91 371.1 444.91 351.67 486.87 351.67 444.91 371.1"/>
      <path class="cls-7" d="m250.09,454.79l-159.1-92c-14.45-8.35-23.34-23.78-23.33-40.47l.12-177.04c.01-16.69,8.92-32.1,23.38-40.44L250.4,13.06c14.46-8.33,32.26-8.32,46.71.03l159.1,92c14.45,8.35,23.34,23.78,23.33,40.47l-.12,177.05c-.01,16.69-8.92,32.1-23.38,40.44l-159.23,91.79c-14.46,8.33-32.26,8.32-46.71-.03Z"/>
      <path class="cls-8" d="m249.98,455.88l-159.89-92.45c-14.52-8.39-23.45-23.9-23.44-40.67l.12-177.92c.01-16.77,8.97-32.26,23.5-40.63L250.28,11.97c14.53-8.37,32.42-8.36,46.94.03l159.89,92.45c14.52,8.39,23.45,23.9,23.44,40.67l-.12,177.92c-.01,16.77-8.97,32.26-23.5,40.63l-160.01,92.24c-14.53,8.37-32.42,8.36-46.94-.03Z"/>
      <g>
        <path class="cls-2" d="m392.93,188.08c0,46.91-46.33,89.94-95.21,89.94s-80.85-43.04-80.85-89.94,42.17-91.09,91.05-91.09,85.01,44.19,85.01,91.09Z"/>
        <path class="cls-3" d="m209.04,319.68c-4.5,7.02-51.99,43.48-44.49,51.72,5.61-3.57,7.61-10.27,12.42-14.62,3.28-2.98,9.37-7.23,11.35-11.07,3.83-7.46,14.28-10.24,18.09-18.41,7.7-2.5,20.02-14.2,24.59-20.09,2.95-3.8,19.3-10.13,18.82-15.69-6.52-2.78-16.96,13.48-23.81,13.94-1.37,4.2-13.28,12.53-16.97,14.22Zm47.14-33.49c-.95,1.2-7.84,3.11-4.42,5.5,1.54-1.56,6.26-2.06,4.42-5.5Zm-77.03,49.51c2.01-1.46,3.1-3.63,1.06-4.49-1.28,1.42-2.7,2.82-1.06,4.49Zm4.6-3.85c1.59-1.28,2.29-2.64,1.34-4.14-1.53.19-3.53,2.59-1.34,4.14Zm4.1-52.02c2.24-3.37,15.58-17.09,13.05-21.52-7.39,6.08-22.9,26.45-24.4,35.49,2.17,2.64,10.36-12.47,11.35-13.97Zm-16.74,8.25c1.75-1.04,2.25-2.2,1.94-3.43-1.62-1.02-4,2.11-1.94,3.43Zm3.28-7.56c-1.15.98-1.13,1.96.07,2.95,1.53-.69,1.51-1.67-.07-2.95Zm35.53-46.62c-5.47-1.22-34.96,43.71-33.17,45.85,7.31-3.71,14.82-20.02,19.71-26.96,3.22-4.58,14.47-12.4,13.46-18.89Zm-59.24,36.95c6.26-9.06,11.9-20.39,19.53-28.34,4.57-4.75,18.14-16.63,19.06-23.2-4.34-4.57-39.83,44.99-44.3,50.83-4.08,5.33-36.63,37.09-31.74,42.46,14.4-17.39,24.44-22.93,37.44-41.76Zm42.88-59.34c-2.17.78-4.41,4.07-2.81,5.97,1.52-.95,4.83-3.85,2.81-5.97Zm107.21,68.19c26.11-1.05,54.85-10.93,72.05-34.57,5.46-7.5,19.62-27.07,16.92-37.19,4.43-4.1,3.67-13.56,4.22-18.94.52-5.13-3.01-17.71.03-21.93-3.42-3.03-4.06-11.38-5.71-15.15-2.62-6.01-5.38-10.6-8.17-16.03-7.22-14.05-17.2-20.15-30.46-30.33-7.13-.13-15.22-6.48-23.19-8.01-15-2.89-26.92.76-41.19-.6-2.72,2.83-8.63,4.51-12.28,6.06-6,2.56-12.66,5.8-18.56,9.55-10.9,6.92-17.89,18.96-25.78,29.48-14.36,19.14-16.39,49.27-11.72,72.94,7.58,38.64,47.76,66.18,83.82,64.72Zm40.97-28.52c3.15,9.76,2.82,13.27-8.61,16.06-12.8,3.12-23.02,5.96-35.19,5.6.18-7.46-5.33-10.6-1.04-17.14,3.05-4.66,12.83-19.4,18.37-16.03,6.5-1.73,12.7,1.72,19.19,1.36,5.12,5.82,4.31.94,7.29,10.14Zm18.74-32.5c-3.51,5.15-10.54,10.65-15.18,15.25-4.88,4.84-7.31,5.47-12.83,3.58-2.72-.93-8.75-1.6-12.11-1.73-9.79-.39-12.12-9-15.42-16.32-12.47-5.05,7.38-23,10.68-28.19,9.05-14.27,10.51-1.41,19.62-7.43,1.82,3,13.97,3.65,17.55,5.15,1.35,7.08,4.99,11.9,7.72,16.39.42,6.95,4.33,6.9-.03,13.31Zm-38.27-83.53c10.08-10.07,6.17-8.27,19.1-6.68,10.28,1.26,12.66,3.03,18.59,9.43,2.81,4.02,5.42,10.24,7.24,14.38-1.88,7.36,5.09,6.27-1.33,13.69-3.68,4.24-7.89,7.86-10.82,12.73-6.37,8.62-25.28,4.42-33.89-1.68.64-5.21-7.32-17.33-9.15-22.41-9.04-2.41,7.8-17.01,10.26-19.47Zm64.74,73.86c-.83,13.78-13.6,10.57-21.41,2.37-5.01-12.92-14.48-21.6-6.74-34.24,6.96-11.33,16.14-15.88,27.02-8.38,10.88,7.51,1.83,28.59,1.13,40.24Zm-60.44-108.1c5.52,4,12.06,2.25,16.47,6.25,6.7,6.08,16.98,8.44,23.09,16.55-1.43,2.15-3.84.9-4.59,3.85-7.6.53-14.13-2.29-20.61-3.78-9.01-2.07-6.66-1.61-10.24-10.07-1.61-3.8-3.57-7.76-4.11-12.8Zm-63.97,9.09c.78,2.89-2.48,3.57-4.65,4.5.01-3.02,3.61-1.91,4.65-4.5Zm4.42-1.9c2.42-.37,20.23-5.18,20.66-6.69.9-3.16,11.81-1.07,14.45-1.73,4.99-1.24,20.18-2.24,23.02,2.41-.75.59-1.36,1.3-1.82,2.13.15,6.31,3.76,14.14,5.43,20.12-4.09,4.85-8.7,9.16-13.33,14.07-4.68,4.98-10.08,12.83-16.67,6.85-2.76,3.56-9.53-2.33-13.4-.2-2.64-3.87-8.76,1.3-10.87-2.92-3.68,2.36-4.26-5.07-5.24-7.23-4.81-10.64-3.49-16.57-2.24-26.82Zm-11.02,6.23c.67,1.43-1.81,5.12-3,4.32.17-1.51,2.16-2.86,3-4.32Zm-21.75,24.14c3.94-7.43,13.36-11.69,16.4-19.05.28,3.63,4.62,4.77,7.27,2.93,3.3,1.85,2.87,5.44,5.13,8.07,2.43,2.83,3.12,7.08,5.37,10.2-.62,4.54-6.12,9.78-5.4,12.94-3.03,4.41-6.58,8.44-9.53,12.91-4.01,6.06-3.94,6-8.47,9.4-10.47-3.08-16.19-.3-21.7-10.09-.54,1.03-1.21,1.19-2,.48,4.98-8.87,8.07-18.61,12.93-27.79Zm-13.28,31.69c7.99,4.49,3.41,7.38-1.62,10.99-.04-3.75.5-7.41,1.62-10.99Zm-2.14,20.43c-1.62-15.79,21.07-11.99,28.71-11.7,3.14.12,10.55,18.01,11.96,21.49,3.82,9.42,3.31,10.75-4.21,18.63-7.61,10.32-16.63,7.18-26.02,5.56-11.53-1.97-9.5-24.84-10.44-33.98Zm46.89,67.78c1.86.57,10.24,1.01,11.94.25.59-1.16.36-2.16-.71-3.01-2.96,2.31-8.78-.92-13.11.15-1-2.27-3.9-9.32-5.29-10.61-3.8-2.96-15.61-16.83-5.54-18.82,2.71-7.59,12.94-17.93,21.16-13.52,2.04-3.02,11.36.64,14.21.31,11.06-1.29,13.16,7.66,18.05,16.65,3.87,7.13-3.17,15.51-9.15,21.31-6.34,6.12-10.51,2.87-18.19,6.36-.75,6.1,13.5-1.88,13.29,5.1-.11,3.7,5.86,8.92,2.57,11.68-.54-.58-1.15-1.07-1.83-1.47-6.07,1.73-24.65-2.63-28.42-8.07-6.6,2.23-3.43-7.67,1.03-6.3Z"/>
      </g>
      <rect class="cls-4" x="61.07" y="255.36" width="425.8" height="96.31"/>
      <g>
        <path class="cls-6" d="m119.62,294.33c-.08.08-.16.22-.22.4s-.12.32-.16.4c-.08.12-.15.85-.22,2.18-.06,1.33-.12,2.9-.16,4.73-.04,1.83-.06,3.72-.06,5.69s.06,3.68.19,5.13c.12,1.2.45,2.38.96,3.52.52,1.14,1.38,1.88,2.58,2.21.91.08,1.77-.05,2.58-.4s1.42-.94,1.84-1.77c.46-.95.65-1.96.59-3.02-.06-1.06,0-2.1.22-3.14.58.08,1.23.1,1.96.06.72-.04,1.46-.06,2.21-.06s1.48.02,2.21.06c.73.04,1.38.15,1.96.31.71,2.16.89,4.3.56,6.44-.33,2.14-1.06,4.06-2.18,5.76-1.12,1.7-2.58,3.1-4.39,4.2-1.8,1.1-3.85,1.67-6.13,1.71-1.49.21-3.03.22-4.61.03s-3.05-.6-4.42-1.25-2.52-1.54-3.45-2.71c-.93-1.16-1.48-2.61-1.65-4.36-.08-1.49-.14-3.05-.19-4.67-.04-1.62-.07-3.43-.09-5.45-.02-2.01-.02-4.29,0-6.85.02-2.55.05-5.51.09-8.87-.08-.71-.05-1.42.09-2.15.15-.73.34-1.4.59-2.02.37-1.08.84-2.07,1.4-2.99s1.23-1.72,2.02-2.43c.46-.33.95-.61,1.49-.84.54-.23,1.1-.42,1.68-.59,1.91-.62,3.8-.87,5.66-.75s3.62.55,5.26,1.28c1.64.73,3.12,1.69,4.45,2.89,1.33,1.2,2.38,2.58,3.17,4.14.79,1.56,1.27,3.25,1.43,5.07.17,1.83-.08,3.69-.75,5.6-1.54.33-3.04.45-4.51.34-1.47-.1-3-.3-4.57-.59-.12-.79-.2-1.68-.22-2.68-.02-1-.13-1.92-.34-2.77-.21-.85-.59-1.54-1.15-2.08-.56-.54-1.44-.79-2.64-.75-.54.08-1.11.19-1.71.31-.6.12-1.07.35-1.4.68Z"/>
        <path class="cls-6" d="m166.79,319.6v.12c.08,1.33.1,2.71.06,4.14-.04,1.43-.23,2.77-.56,4.01-4.23-.04-8.54.01-12.91.16s-8.58.05-12.6-.28c0-3.61-.04-7.19-.12-10.73s-.14-7.08-.19-10.61c-.04-3.53-.04-7.05,0-10.58.04-3.53.16-7.07.37-10.64,1.62-.08,3.37-.16,5.26-.22,1.89-.06,3.79-.11,5.7-.16,1.91-.04,3.75-.08,5.54-.12,1.78-.04,3.36-.06,4.73-.06s2.47.02,3.3.06c.83.04,1.25.08,1.25.12.21,1.45.26,2.92.15,4.42-.1,1.49-.15,2.97-.15,4.42v.06c-1.33.29-2.67.47-4.02.53-1.35.06-2.71.08-4.07.06-1.37-.02-2.74-.03-4.11-.03s-2.74.06-4.11.19h-.19l-.06.06c.04,1.2,0,2.44-.15,3.7-.15,1.27-.07,2.46.22,3.58l.06.06c1.24.08,2.51.12,3.8.12s2.57.02,3.86.06v.06c.21,1.41.27,2.82.19,4.23-.08,1.41-.11,2.88-.06,4.42-.62.17-1.33.26-2.12.28-.79.02-1.55.03-2.27.03s-1.38.02-1.96.06c-.58.04-.97.15-1.18.31-.21,1.2-.28,2.55-.22,4.04s.13,2.74.22,3.73l.06.06c2.74,0,5.44.07,8.09.22,2.66.15,5.39.18,8.21.09Z"/>
        <path class="cls-6" d="m194.3,328.37c-.83,0-1.79-.05-2.86-.16-1.08-.1-2.03-.16-2.86-.16-1.37-3.07-2.73-6.05-4.08-8.93-1.35-2.88-2.5-5.65-3.45-8.31l-.62-1.87c-.17-.46-.32-.88-.47-1.28-.14-.39-.26-.59-.34-.59-.04,0-.09.5-.15,1.49-.06,1-.12,2.26-.16,3.8-.04,1.54-.07,3.24-.09,5.1s-.03,3.67-.03,5.41v2.77c0,.89.02,1.69.06,2.4-.46.12-.91.21-1.37.25-.46.04-.91.06-1.37.06-1,0-2-.06-3.02-.19-1.02-.12-2-.19-2.96-.19v-4.36c0-3.94-.03-7.7-.09-11.26-.06-3.57-.09-7.3-.09-11.2,0-2.86.04-5.69.12-8.5.08-2.8.23-5.53.44-8.18.41-.08.86-.15,1.34-.19.48-.04.96-.06,1.46-.06.25,0,.66.01,1.25.03.58.02,1.16.06,1.74.12.58.06,1.09.14,1.52.22.44.08.65.17.65.25.29.75.56,1.37.81,1.87.25.5.49.98.71,1.43.23.46.48.96.75,1.53.27.56.59,1.28.96,2.15.08.21.27.6.56,1.18.29.58.62,1.25,1,2.02s.77,1.58,1.18,2.43c.41.85.8,1.62,1.15,2.3.35.68.65,1.27.9,1.74.25.48.39.72.44.72.12-.08.23-.5.31-1.25.08-.75.12-1.47.12-2.18,0-1.66-.03-3.21-.09-4.64-.06-1.43-.09-2.89-.09-4.39,0-.87,0-1.75.03-2.64.02-.89.05-1.86.09-2.89,1.41-.25,2.9-.37,4.48-.37s2.9.12,4.11.37v20.04c.04,1.74.06,3.51.06,5.29v5.35c0,1.2,0,2.37-.03,3.49s-.03,2.26-.03,3.42c0,.83,0,1.66.03,2.49s.03,1.66.03,2.49v1.24c-.08.04-.27.1-.56.19s-.79.12-1.49.12Z"/>
        <path class="cls-6" d="m225.78,284.81c.08,1.37.12,2.95.09,4.73-.02,1.78-.13,3.42-.34,4.92-.79-.17-1.76-.23-2.92-.19-1.16.04-2.72.1-4.67.19h-.19s0,.07-.03.09c-.02.02-.03.05-.03.09-.04.21-.07.53-.09.96-.02.44-.03,1.12-.03,2.05s0,2.16.03,3.67c.02,1.51.05,3.46.09,5.85.04,2.39.08,5.25.12,8.59.04,3.34.1,7.27.19,11.79v.12c-.75.12-1.57.2-2.46.22-.89.02-1.78.03-2.68.03h-2.64c-.87,0-1.68.06-2.43.19-.04-.17-.04-.91,0-2.24.04-1.33.07-3.31.09-5.94.02-2.63,0-6-.06-10.11-.06-4.11-.22-9.06-.47-14.87l-.06-.06c-.5-.25-1.12-.41-1.87-.47-.75-.06-1.49-.1-2.24-.12-.75-.02-1.43-.03-2.05-.03s-1.06-.04-1.31-.12c-.08-.17-.15-.58-.22-1.25-.06-.66-.11-1.46-.12-2.4-.02-.93-.03-1.94-.03-3.02s.04-2.12.12-3.11c0-.04-.01-.06-.03-.06-.02,0-.03-.02-.03-.06,4.23-.04,8.6-.07,13.1-.09,4.5-.02,8.89.2,13.16.65Z"/>
        <path class="cls-6" d="m258.58,327.88h.06c-1.45,0-3.07.05-4.86.16-1.78.1-3.61.09-5.47-.03h-.06c-.42-.95-.93-2.09-1.56-3.42-.62-1.33-1.31-2.72-2.05-4.17-.75-1.45-1.56-2.88-2.43-4.29-.87-1.41-1.74-2.65-2.61-3.73l-.12-.19c-.12.95-.19,2.13-.19,3.52s.03,2.82.09,4.29c.06,1.47.13,2.87.22,4.2.08,1.33.14,2.39.19,3.17-.71.29-1.63.48-2.77.56-1.14.08-2.27.13-3.39.16-1.12.02-2.12,0-3.02-.03s-1.44-.04-1.65,0c.08,0,.14-.57.19-1.71.04-1.14.06-2.65.06-4.51v-6.44c0-2.43,0-4.94-.03-7.53s-.06-5.17-.12-7.72c-.06-2.55-.12-4.89-.16-7.03-.04-2.14-.09-3.96-.16-5.48-.06-1.51-.13-2.54-.22-3.08,2.32-.33,4.87-.64,7.65-.93,2.78-.29,5.68-.27,8.71.06,2.45.12,4.65.83,6.6,2.12,1.95,1.29,3.46,2.88,4.54,4.79,1.08,1.91,1.65,4.01,1.71,6.32.06,2.3-.55,4.53-1.84,6.69-.79,1.49-1.84,2.74-3.14,3.73-1.31,1-2.96,1.56-4.95,1.68h-.31v.06c.87,1.54,1.83,3.06,2.86,4.57,1.04,1.51,2.05,3.04,3.05,4.57,1,1.54,1.95,3.1,2.86,4.7.91,1.6,1.68,3.25,2.3,4.95Zm-20.97-34.6c.04.54.07,1.15.09,1.84s.03,1.38.03,2.08,0,1.39.03,2.05c.02.66.07,1.22.16,1.68h.06c.95.08,1.99.15,3.11.19,1.12.04,2.18-.02,3.17-.19.79-.17,1.4-.57,1.84-1.21.44-.64.69-1.35.78-2.12.08-.77,0-1.54-.25-2.3-.25-.77-.66-1.38-1.24-1.84-.91-.83-2.07-1.21-3.48-1.15s-2.84.38-4.29.96Z"/>
        <path class="cls-6" d="m281.23,306.22l4.67,21.78v.06c-1.24.25-2.61.34-4.11.28-1.49-.06-2.9-.24-4.23-.53h-.06c-.25-.66-.49-1.45-.71-2.36-.23-.91-.46-1.85-.68-2.8-.23-.95-.47-1.87-.72-2.74-.25-.87-.52-1.62-.81-2.24-.54-.08-.96-.12-1.24-.12h-.78c-.23,0-.48.01-.75.03-.27.02-.63.03-1.09.03-.29.66-.53,1.44-.72,2.33-.19.89-.37,1.83-.56,2.8-.19.97-.38,1.92-.59,2.83-.21.91-.5,1.72-.87,2.43-.04,0-.07.01-.09.03-.02.02-.05.03-.09.03-.33.08-1.16.08-2.49,0-1.33-.08-3.4-.1-6.22-.06-.04,0-.08-.02-.12-.06.08-.29.23-1.1.44-2.43.21-1.33.5-3.05.87-5.17.37-2.12.82-4.55,1.34-7.31.52-2.76,1.13-5.69,1.84-8.81.71-3.11,1.47-6.35,2.3-9.71.83-3.36,1.74-6.7,2.74-10.02.29-.04.6-.06.93-.06h1.31c.54,0,1.23,0,2.08-.03.85-.02,1.96-.09,3.33-.22.12.54.32,1.36.59,2.46.27,1.1.56,2.34.87,3.73.31,1.39.64,2.87,1,4.45.35,1.58.69,3.09,1.03,4.54.33,1.45.64,2.78.93,3.98.29,1.2.52,2.16.68,2.86Zm-6.35,4.04c-.41-3.57-.78-6.35-1.09-8.34-.31-1.99-.58-3.34-.81-4.04-.23-.71-.46-.86-.68-.47-.23.4-.44,1.19-.62,2.4-.19,1.2-.39,2.72-.62,4.54-.23,1.83-.49,3.8-.78,5.91.71.04,1.45.05,2.24.03.79-.02,1.58-.03,2.36-.03Z"/>
        <path class="cls-6" d="m314.15,322.4c.08,1.49.12,2.62.12,3.39s-.05,1.33-.16,1.68-.28.54-.53.56c-.25.02-.6.03-1.06.03-.46-.04-1.05-.04-1.77,0-.73.04-1.95.08-3.67.12-1.72.04-4.09.06-7.1.06s-7.02-.04-12.04-.12v-1.12c.12-3.11.23-5.92.31-8.43.08-2.51.13-4.85.15-7.03.02-2.18.03-4.28.03-6.32s-.02-4.11-.06-6.22c-.04-2.12-.08-4.37-.12-6.75-.04-2.38-.08-5.03-.12-7.93.41-.17,1.06-.3,1.93-.41.87-.1,1.8-.16,2.8-.16s1.97.06,2.93.19c.95.12,1.72.31,2.3.56-.08,2.7-.12,5.47-.09,8.31.02,2.84.05,5.69.09,8.56.04,2.86.07,5.71.09,8.56.02,2.84,0,5.59-.03,8.25v.06c.29-.08.84-.11,1.65-.09.81.02,1.75.05,2.83.09,1.08.04,2.23.09,3.45.16,1.22.06,2.38.12,3.48.16,1.1.04,2.07.07,2.93.09.85.02,1.44.01,1.77-.03,0,.46-.02.91-.06,1.37-.04.42-.07.84-.09,1.28s0,.82.03,1.15Z"/>
        <path class="cls-6" d="m355.9,297.51v.9c0,.27-.02.53-.06.78-.25,1.99-.9,3.82-1.96,5.48-1.06,1.66-2.38,3.07-3.95,4.23-1.58,1.16-3.32,2-5.23,2.52-1.91.52-3.86.61-5.85.28.04.58.06,1.15.06,1.71v2.43c0,1.06,0,2.48.03,4.26.02,1.79.07,4.19.16,7.22v.06s-.07.01-.09.03c-.02.02-.05.03-.09.03-.58.17-1.32.28-2.21.34-.89.06-1.82.1-2.8.12-.98.02-1.94.01-2.89-.03-.96-.04-1.78-.1-2.49-.19-.12-3.03-.19-6.32-.19-9.86v-10.92c0-3.73,0-7.49-.03-11.26-.02-3.77-.09-7.38-.22-10.83,1.7-.46,3.56-.79,5.57-1,2.01-.21,4.02-.23,6.04-.06,2.01.17,3.97.53,5.88,1.09,1.91.56,3.6,1.39,5.07,2.49,1.47,1.1,2.69,2.48,3.64,4.14s1.49,3.67,1.62,6.04Zm-10.89-2.61c-1.04-.83-2.24-1.36-3.61-1.59-1.37-.23-2.72-.18-4.04.16-.08,0-.15.02-.19.06.04.75.05,1.54.03,2.36-.02.83-.02,1.66,0,2.49.02.83.06,1.63.12,2.4.06.77.2,1.46.4,2.08h.19c.66-.04,1.37-.07,2.12-.09s1.48-.07,2.21-.16c.73-.08,1.43-.24,2.12-.47.69-.23,1.28-.59,1.77-1.09.33-.46.57-.97.72-1.56.14-.58.17-1.16.06-1.74-.11-.58-.31-1.12-.62-1.62s-.74-.91-1.28-1.24Z"/>
        <path class="cls-6" d="m376.31,306.22l4.67,21.78v.06c-1.24.25-2.61.34-4.11.28-1.49-.06-2.9-.24-4.23-.53h-.06c-.25-.66-.49-1.45-.71-2.36-.23-.91-.46-1.85-.68-2.8-.23-.95-.47-1.87-.72-2.74-.25-.87-.52-1.62-.81-2.24-.54-.08-.96-.12-1.24-.12h-.78c-.23,0-.48.01-.75.03-.27.02-.63.03-1.09.03-.29.66-.53,1.44-.72,2.33-.19.89-.37,1.83-.56,2.8-.19.97-.38,1.92-.59,2.83-.21.91-.5,1.72-.87,2.43-.04,0-.07.01-.09.03-.02.02-.05.03-.09.03-.33.08-1.16.08-2.49,0-1.33-.08-3.4-.1-6.22-.06-.04,0-.08-.02-.12-.06.08-.29.23-1.1.44-2.43.21-1.33.5-3.05.87-5.17.37-2.12.82-4.55,1.34-7.31.52-2.76,1.13-5.69,1.84-8.81.71-3.11,1.47-6.35,2.3-9.71.83-3.36,1.74-6.7,2.74-10.02.29-.04.6-.06.93-.06h1.31c.54,0,1.23,0,2.08-.03.85-.02,1.96-.09,3.33-.22.12.54.32,1.36.59,2.46.27,1.1.56,2.34.87,3.73.31,1.39.64,2.87,1,4.45.35,1.58.69,3.09,1.03,4.54.33,1.45.64,2.78.93,3.98.29,1.2.52,2.16.68,2.86Zm-6.35,4.04c-.41-3.57-.78-6.35-1.09-8.34-.31-1.99-.58-3.34-.81-4.04-.23-.71-.46-.86-.68-.47-.23.4-.44,1.19-.62,2.4-.19,1.2-.39,2.72-.62,4.54-.23,1.83-.49,3.8-.78,5.91.71.04,1.45.05,2.24.03.79-.02,1.58-.03,2.36-.03Z"/>
        <path class="cls-6" d="m412.9,327.88h.06c-1.45,0-3.07.05-4.85.16-1.79.1-3.61.09-5.48-.03h-.06c-.41-.95-.93-2.09-1.55-3.42-.62-1.33-1.31-2.72-2.05-4.17-.75-1.45-1.55-2.88-2.43-4.29-.87-1.41-1.74-2.65-2.61-3.73l-.12-.19c-.12.95-.19,2.13-.19,3.52s.03,2.82.09,4.29.13,2.87.22,4.2c.08,1.33.14,2.39.19,3.17-.71.29-1.63.48-2.77.56s-2.27.13-3.39.16c-1.12.02-2.13,0-3.02-.03-.89-.04-1.44-.04-1.65,0,.08,0,.14-.57.19-1.71.04-1.14.06-2.65.06-4.51v-6.44c0-2.43-.01-4.94-.03-7.53-.02-2.59-.06-5.17-.12-7.72-.06-2.55-.12-4.89-.16-7.03-.04-2.14-.09-3.96-.15-5.48-.06-1.51-.14-2.54-.22-3.08,2.32-.33,4.88-.64,7.65-.93s5.68-.27,8.71.06c2.45.12,4.64.83,6.6,2.12,1.95,1.29,3.46,2.88,4.54,4.79,1.08,1.91,1.65,4.01,1.71,6.32.06,2.3-.55,4.53-1.84,6.69-.79,1.49-1.84,2.74-3.14,3.73-1.31,1-2.96,1.56-4.95,1.68h-.31v.06c.87,1.54,1.82,3.06,2.86,4.57,1.04,1.51,2.05,3.04,3.05,4.57,1,1.54,1.95,3.1,2.86,4.7.91,1.6,1.68,3.25,2.3,4.95Zm-20.97-34.6c.04.54.07,1.15.09,1.84.02.68.03,1.38.03,2.08s0,1.39.03,2.05c.02.66.07,1.22.15,1.68h.06c.96.08,1.99.15,3.11.19,1.12.04,2.18-.02,3.17-.19.79-.17,1.4-.57,1.84-1.21.44-.64.7-1.35.78-2.12.08-.77,0-1.54-.25-2.3-.25-.77-.66-1.38-1.24-1.84-.91-.83-2.08-1.21-3.49-1.15s-2.84.38-4.29.96Z"/>
        <path class="cls-6" d="m431.2,305.72l10.64,22.09c-1.33.29-2.77.39-4.33.31-1.55-.08-3-.15-4.32-.19-.87-1-1.68-2.19-2.43-3.58-.75-1.39-1.46-2.83-2.15-4.32-.68-1.49-1.36-2.97-2.02-4.42-.66-1.45-1.33-2.76-1.99-3.92-.04,1.2-.05,2.5-.03,3.89s.05,2.79.09,4.2c.04,1.41.07,2.8.09,4.17.02,1.37.03,2.64.03,3.8-.58.17-1.27.28-2.05.34-.79.06-1.62.09-2.49.09s-1.71-.04-2.52-.12-1.48-.19-2.02-.31c-.33-7.13-.38-14.3-.16-21.5.23-7.2.32-14.43.28-21.69,1.37-.04,2.77-.03,4.2.03,1.43.06,2.81.09,4.14.09.08,2.36.1,4.85.06,7.47-.04,2.61-.02,5.1.06,7.47,0,.04.03,0,.09-.09.06-.1.13-.2.22-.28.87-1.12,1.66-2.28,2.37-3.48.71-1.2,1.38-2.43,2.02-3.67.64-1.24,1.31-2.49,1.99-3.73.68-1.25,1.46-2.49,2.33-3.73,1.33.08,2.74.08,4.23,0,1.49-.08,2.9-.02,4.23.19-.5,1.74-1.19,3.49-2.09,5.23s-1.85,3.49-2.86,5.23c-1.02,1.74-2.02,3.48-3.02,5.23-1,1.74-1.87,3.48-2.62,5.23Z"/>
      </g>
    </g>
  </g>
</svg>