<?xml version="1.0" encoding="UTF-8"?>
<svg id="Layer_2" data-name="Layer 2" xmlns="http://www.w3.org/2000/svg" viewBox="0 0 426.3 468.99">
  <defs>
    <style>
      .cls-1 {
        letter-spacing: -.05em;
      }

      .cls-2 {
        fill: #733430;
      }

      .cls-2, .cls-3, .cls-4, .cls-5, .cls-6 {
        stroke-width: 0px;
      }

      .cls-3 {
        fill: #ffc000;
      }

      .cls-7 {
        fill: #663734;
        font-family: LondrinaSolid-Regular, 'Londrina Solid';
        font-size: 64.69px;
      }

      .cls-8 {
        stroke-width: 11.42px;
      }

      .cls-8, .cls-9, .cls-10 {
        fill: none;
        stroke-miterlimit: 10;
      }

      .cls-8, .cls-10 {
        stroke: #663734;
      }

      .cls-4 {
        fill: #fff;
      }

      .cls-4, .cls-5 {
        fill-rule: evenodd;
      }

      .cls-11 {
        letter-spacing: 0em;
      }

      .cls-5 {
        fill: #211915;
      }

      .cls-9 {
        stroke: #f2f3c9;
        stroke-dasharray: 0 0 7.23 28.93;
        stroke-width: 54.33px;
      }

      .cls-6 {
        fill: #f2f3c9;
      }

      .cls-10 {
        stroke-width: 7.19px;
      }

      .cls-12 {
        letter-spacing: -.03em;
      }
    </style>
  </defs>
  <g id="Layer_1-2" data-name="Layer 1">
    <g id="CentralPark_Badge_-_Champion" data-name="CentralPark Badge - Champion">
      <path class="cls-3" d="m189.47,456.96L29.21,364.29c-14.55-8.41-23.51-23.95-23.5-40.76l.12-178.34c.01-16.81,8.99-32.34,23.55-40.73L189.78,12c14.56-8.39,32.5-8.38,47.05.03l160.27,92.67c14.55,8.41,23.51,23.95,23.5,40.76l-.12,178.34c-.01,16.81-8.99,32.34-23.55,40.73l-160.39,92.46c-14.56,8.39-32.5,8.38-47.05-.03Z"/>
      <g>
        <path class="cls-9" d="m135.47,309.64c-23.09-21.08-37.58-51.42-37.58-85.15,0-37.65,18.05-71.08,45.96-92.11"/>
        <path class="cls-9" d="m291.09,139.57c22.94,21.07,37.32,51.31,37.32,84.91,0,36.88-17.32,69.71-44.26,90.8"/>
      </g>
      <circle class="cls-3" cx="213.15" cy="224.49" r="109.44"/>
      <path class="cls-6" d="m397.09,104.7L236.83,12.03c-14.55-8.41-32.49-8.43-47.05-.03L29.38,104.45c-14.56,8.39-23.54,23.92-23.55,40.73l-.12,178.34c-.01,16.81,8.95,32.35,23.5,40.76l160.27,92.67c14.55,8.41,32.49,8.43,47.05.03l160.39-92.46c14.56-8.39,23.54-23.92,23.55-40.73l.12-178.34c.01-16.81-8.95-32.35-23.5-40.76Zm2.5,209.77c-.01,15.12-8.08,29.08-21.18,36.63l-144.24,83.15c-13.1,7.55-29.23,7.54-42.31-.03l-144.13-83.34c-13.09-7.57-21.14-21.54-21.13-36.66l.11-159.7c.01-15.12,8.08-29.08,21.18-36.63L192.13,34.74c13.1-7.55,29.23-7.54,42.31.03l144.13,83.34c13.09,7.57,21.14,21.54,21.13,36.66l-.11,159.7Z"/>
      <path class="cls-8" d="m189.47,456.96L29.21,364.29c-14.55-8.41-23.51-23.95-23.5-40.76l.12-178.34c.01-16.81,8.99-32.34,23.55-40.73L189.78,12c14.56-8.39,32.5-8.38,47.05.03l160.27,92.67c14.55,8.41,23.51,23.95,23.5,40.76l-.12,178.34c-.01,16.81-8.99,32.34-23.55,40.73l-160.39,92.46c-14.56,8.39-32.5,8.38-47.05-.03Z"/>
      <path class="cls-10" d="m191.88,433.97l-143.95-83.24c-13.07-7.56-21.12-21.51-21.11-36.61l.11-159.49c.01-15.1,8.07-29.04,21.15-36.58L192.15,34.99c13.08-7.54,29.19-7.53,42.26.03l143.95,83.24c13.07,7.56,21.12,21.51,21.11,36.61l-.11,159.49c0,15.1-8.07,29.04-21.15,36.58l-144.06,83.05c-13.08,7.54-29.19,7.53-42.26-.03Z"/>
      <g>
        <path class="cls-4" d="m279.74,179.69c0,35.39-34.95,67.85-71.82,67.85s-60.99-32.47-60.99-67.85,31.81-68.72,68.69-68.72,64.13,33.33,64.13,68.72Z"/>
        <path class="cls-5" d="m136.81,259.81c-3.4,5.29-39.22,32.8-33.56,39.02,4.23-2.69,5.74-7.74,9.37-11.03,2.48-2.25,7.07-5.45,8.56-8.35,2.89-5.63,10.77-7.72,13.64-13.89,5.81-1.89,15.1-10.71,18.55-15.16,2.22-2.86,14.56-7.64,14.2-11.84-4.92-2.1-12.79,10.17-17.96,10.52-1.03,3.17-10.02,9.45-12.8,10.72Zm39.77-6.1c-.72.9-5.92,2.34-3.33,4.15,1.16-1.18,4.73-1.55,3.33-4.15Zm-58.11,37.35c1.51-1.1,2.34-2.73.8-3.39-.96,1.07-2.04,2.13-.8,3.39Zm3.47-2.9c1.2-.96,1.73-1.99,1.01-3.12-1.15.14-2.66,1.95-1.01,3.12Zm3.1-39.24c1.69-2.55,11.76-12.89,9.84-16.24-5.57,4.58-17.27,19.95-18.41,26.77,1.63,1.99,7.81-9.41,8.56-10.54Zm-12.63,6.23c1.32-.79,1.7-1.66,1.46-2.59-1.22-.77-3.02,1.59-1.46,2.59Zm2.48-5.71c-.87.74-.85,1.48.05,2.23,1.15-.52,1.14-1.26-.05-2.23Zm26.8-35.17c-4.13-.92-26.37,32.98-25.02,34.59,5.51-2.8,11.18-15.1,14.87-20.34,2.43-3.45,10.92-9.36,10.15-14.25Zm-44.69,27.87c4.72-6.84,8.98-15.38,14.73-21.38,3.45-3.58,13.69-12.55,14.38-17.5-3.27-3.44-30.05,33.94-33.42,38.34-3.08,4.02-27.63,27.98-23.94,32.03,10.87-13.12,18.44-17.3,28.25-31.5Zm32.35-44.76c-1.64.59-3.33,3.07-2.12,4.5,1.15-.72,3.65-2.9,2.12-4.5Zm80.88,51.44c19.7-.79,41.38-8.25,54.35-26.08,4.12-5.66,14.8-20.42,12.76-28.05,3.34-3.09,2.77-10.23,3.19-14.29.4-3.87-2.27-13.36.03-16.54-2.58-2.29-3.06-8.58-4.3-11.43-1.98-4.53-4.06-8-6.16-12.09-5.45-10.6-12.98-15.2-22.98-22.88-5.38-.1-11.48-4.89-17.49-6.05-11.31-2.18-20.31.57-31.07-.46-2.05,2.14-6.51,3.4-9.26,4.57-4.52,1.93-9.55,4.38-14,7.2-8.22,5.22-13.49,14.31-19.45,22.24-10.83,14.44-12.36,37.17-8.84,55.02,5.72,29.15,36.03,49.92,63.24,48.82Zm30.91-21.52c2.38,7.36,2.13,10.01-6.5,12.12-9.66,2.36-17.36,4.49-26.55,4.23.14-5.63-4.02-8-.79-12.93,2.3-3.52,9.68-14.64,13.86-12.09,4.9-1.3,9.58,1.3,14.48,1.03,3.86,4.39,3.25.71,5.5,7.65Zm14.14-24.52c-2.65,3.89-7.95,8.03-11.45,11.5-3.68,3.65-5.51,4.12-9.68,2.7-2.05-.7-6.6-1.21-9.14-1.31-7.39-.29-9.15-6.79-11.63-12.31-9.41-3.81,5.57-17.35,8.06-21.27,6.83-10.76,7.93-1.06,14.8-5.61,1.37,2.27,10.54,2.76,13.24,3.88,1.02,5.34,3.77,8.98,5.82,12.37.32,5.25,3.27,5.21-.02,10.04Zm-28.87-63.02c7.61-7.6,4.66-6.24,14.41-5.04,7.76.95,9.55,2.29,14.03,7.11,2.12,3.03,4.09,7.72,5.46,10.85-1.42,5.55,3.84,4.73-1,10.33-2.77,3.2-5.95,5.93-8.16,9.61-4.8,6.5-19.07,3.33-25.57-1.26.48-3.93-5.52-13.07-6.91-16.91-6.82-1.82,5.88-12.83,7.74-14.69Zm48.84,55.72c-.63,10.4-10.26,7.98-16.15,1.79-3.78-9.75-10.93-16.29-5.08-25.83,5.25-8.55,12.18-11.98,20.38-6.32,8.21,5.66,1.38,21.57.85,30.36Zm-45.6-81.55c4.16,3.02,9.1,1.69,12.42,4.71,5.06,4.59,12.81,6.37,17.42,12.48-1.08,1.62-2.9.68-3.47,2.9-5.73.4-10.66-1.73-15.55-2.85-6.8-1.56-5.02-1.22-7.73-7.6-1.21-2.86-2.69-5.85-3.1-9.65Zm-48.26,6.86c.59,2.18-1.87,2.69-3.51,3.39.01-2.28,2.73-1.44,3.51-3.39Zm3.33-1.44c1.82-.28,15.26-3.91,15.59-5.05.68-2.38,8.91-.81,10.9-1.3,3.77-.93,15.23-1.69,17.37,1.82-.56.44-1.02.98-1.38,1.61.12,4.76,2.84,10.67,4.1,15.18-3.08,3.66-6.57,6.91-10.05,10.62-3.53,3.76-7.61,9.68-12.57,5.17-2.08,2.69-7.19-1.76-10.11-.15-1.99-2.92-6.61.98-8.2-2.2-2.78,1.78-3.21-3.83-3.95-5.45-3.63-8.02-2.63-12.5-1.69-20.23Zm-8.32,4.7c.5,1.08-1.37,3.86-2.26,3.26.13-1.14,1.63-2.16,2.26-3.26Zm-16.41,18.21c2.97-5.6,10.08-8.82,12.37-14.37.21,2.74,3.48,3.6,5.48,2.21,2.49,1.4,2.16,4.11,3.87,6.09,1.84,2.13,2.35,5.34,4.05,7.7-.47,3.43-4.62,7.38-4.07,9.76-2.29,3.32-4.96,6.37-7.19,9.74-3.02,4.57-2.97,4.53-6.39,7.09-7.9-2.32-12.22-.23-16.37-7.61-.41.78-.91.9-1.51.36,3.76-6.69,6.08-14.04,9.76-20.97Zm-10.02,23.91c6.03,3.39,2.58,5.56-1.22,8.29-.03-2.83.38-5.59,1.22-8.29Zm-1.62,15.41c-1.22-11.91,15.89-9.04,21.66-8.83,2.37.09,7.96,13.59,9.02,16.21,2.88,7.11,2.5,8.11-3.17,14.05-5.74,7.78-12.54,5.42-19.63,4.2-8.7-1.49-7.17-18.74-7.88-25.63Zm35.37,51.13c1.41.43,7.73.76,9.01.19.45-.88.27-1.63-.54-2.27-2.23,1.74-6.63-.69-9.89.11-.75-1.72-2.94-7.03-3.99-8.01-2.87-2.23-11.78-12.7-4.18-14.19,2.04-5.72,9.76-13.53,15.96-10.2,1.54-2.28,8.57.48,10.72.23,8.34-.97,9.93,5.78,13.61,12.56,2.92,5.38-2.39,11.7-6.91,16.07-4.78,4.62-7.93,2.16-13.72,4.8-.57,4.6,10.19-1.42,10.03,3.85-.08,2.79,4.42,6.73,1.94,8.81-.41-.44-.86-.81-1.38-1.11-4.58,1.31-18.59-1.98-21.44-6.09-4.98,1.69-2.59-5.79.78-4.76Z"/>
      </g>
      <text class="cls-7" transform="translate(72.78 316.59)"><tspan x="0" y="0">-CENTRA</tspan><tspan class="cls-12" x="218.83" y="0">L</tspan><tspan class="cls-11" x="247.04" y="0">-</tspan><tspan class="cls-1" x="80.18" y="57.56">P</tspan><tspan x="109.29" y="57.56">ARK</tspan></text>
      <path class="cls-2" d="m226.03,398.21l-10.74,10.74c-1.18,1.18-3.09,1.18-4.28,0l-10.74-10.74c-1.9-1.9-.56-5.16,2.14-5.16h21.48c2.69,0,4.04,3.26,2.14,5.16Z"/>
    </g>
  </g>
</svg>