<?xml version="1.0" encoding="UTF-8"?>
<svg id="Layer_2" data-name="Layer 2" xmlns="http://www.w3.org/2000/svg" viewBox="0 0 426.3 468.99">
  <defs>
    <style>
      .cls-1 {
        fill: #733430;
      }

      .cls-1, .cls-2, .cls-3, .cls-4, .cls-5, .cls-6 {
        stroke-width: 0px;
      }

      .cls-2 {
        fill: #ffc000;
      }

      .cls-7 {
        stroke-width: 11.42px;
      }

      .cls-7, .cls-8, .cls-9 {
        fill: none;
        stroke-miterlimit: 10;
      }

      .cls-7, .cls-9 {
        stroke: #663734;
      }

      .cls-3 {
        fill: #fff;
      }

      .cls-3, .cls-4 {
        fill-rule: evenodd;
      }

      .cls-4 {
        fill: #211915;
      }

      .cls-8 {
        stroke: #f2f3c9;
        stroke-dasharray: 0 0 7.23 28.93;
        stroke-width: 54.33px;
      }

      .cls-5 {
        fill: #f2f3c9;
      }

      .cls-9 {
        stroke-width: 7.19px;
      }

      .cls-6 {
        fill: #663734;
      }
    </style>
  </defs>
  <g id="Layer_1_Outlined_Text" data-name="Layer 1 Outlined Text">
    <g id="CentralPark_Badge_-_Champion" data-name="CentralPark Badge - Champion">
      <path class="cls-2" d="m189.47,456.96L29.21,364.29c-14.55-8.41-23.51-23.95-23.5-40.76l.12-178.34c.01-16.81,8.99-32.34,23.55-40.73L189.78,12c14.56-8.39,32.5-8.38,47.05.03l160.27,92.67c14.55,8.41,23.51,23.95,23.5,40.76l-.12,178.34c-.01,16.81-8.99,32.34-23.55,40.73l-160.39,92.46c-14.56,8.39-32.5,8.38-47.05-.03Z"/>
      <g>
        <path class="cls-8" d="m135.47,309.64c-23.09-21.08-37.58-51.42-37.58-85.15,0-37.65,18.05-71.08,45.96-92.11"/>
        <path class="cls-8" d="m291.09,139.57c22.94,21.07,37.32,51.31,37.32,84.91,0,36.88-17.32,69.71-44.26,90.8"/>
      </g>
      <circle class="cls-2" cx="213.15" cy="224.49" r="109.44"/>
      <path class="cls-5" d="m397.09,104.7L236.83,12.03c-14.55-8.41-32.49-8.43-47.05-.03L29.38,104.45c-14.56,8.39-23.54,23.92-23.55,40.73l-.12,178.34c-.01,16.81,8.95,32.35,23.5,40.76l160.27,92.67c14.55,8.41,32.49,8.43,47.05.03l160.39-92.46c14.56-8.39,23.54-23.92,23.55-40.73l.12-178.34c.01-16.81-8.95-32.35-23.5-40.76Zm2.5,209.77c-.01,15.12-8.08,29.08-21.18,36.63l-144.24,83.15c-13.1,7.55-29.23,7.54-42.31-.03l-144.13-83.34c-13.09-7.57-21.14-21.54-21.13-36.66l.11-159.7c.01-15.12,8.08-29.08,21.18-36.63L192.13,34.74c13.1-7.55,29.23-7.54,42.31.03l144.13,83.34c13.09,7.57,21.14,21.54,21.13,36.66l-.11,159.7Z"/>
      <path class="cls-7" d="m189.47,456.96L29.21,364.29c-14.55-8.41-23.51-23.95-23.5-40.76l.12-178.34c.01-16.81,8.99-32.34,23.55-40.73L189.78,12c14.56-8.39,32.5-8.38,47.05.03l160.27,92.67c14.55,8.41,23.51,23.95,23.5,40.76l-.12,178.34c-.01,16.81-8.99,32.34-23.55,40.73l-160.39,92.46c-14.56,8.39-32.5,8.38-47.05-.03Z"/>
      <path class="cls-9" d="m191.88,433.97l-143.95-83.24c-13.07-7.56-21.12-21.51-21.11-36.61l.11-159.49c.01-15.1,8.07-29.04,21.15-36.58L192.15,34.99c13.08-7.54,29.19-7.53,42.26.03l143.95,83.24c13.07,7.56,21.12,21.51,21.11,36.61l-.11,159.49c0,15.1-8.07,29.04-21.15,36.58l-144.06,83.05c-13.08,7.54-29.19,7.53-42.26-.03Z"/>
      <g>
        <path class="cls-3" d="m279.74,179.69c0,35.39-34.95,67.85-71.82,67.85s-60.99-32.47-60.99-67.85,31.81-68.72,68.69-68.72,64.13,33.33,64.13,68.72Z"/>
        <path class="cls-4" d="m136.81,259.81c-3.4,5.29-39.22,32.8-33.56,39.02,4.23-2.69,5.74-7.74,9.37-11.03,2.48-2.25,7.07-5.45,8.56-8.35,2.89-5.63,10.77-7.72,13.64-13.89,5.81-1.89,15.1-10.71,18.55-15.16,2.22-2.86,14.56-7.64,14.2-11.84-4.92-2.1-12.79,10.17-17.96,10.52-1.03,3.17-10.02,9.45-12.8,10.72Zm39.77-6.1c-.72.9-5.92,2.34-3.33,4.15,1.16-1.18,4.73-1.55,3.33-4.15Zm-58.11,37.35c1.51-1.1,2.34-2.73.8-3.39-.96,1.07-2.04,2.13-.8,3.39Zm3.47-2.9c1.2-.96,1.73-1.99,1.01-3.12-1.15.14-2.66,1.95-1.01,3.12Zm3.1-39.24c1.69-2.55,11.76-12.89,9.84-16.24-5.57,4.58-17.27,19.95-18.41,26.77,1.63,1.99,7.81-9.41,8.56-10.54Zm-12.63,6.23c1.32-.79,1.7-1.66,1.46-2.59-1.22-.77-3.02,1.59-1.46,2.59Zm2.48-5.71c-.87.74-.85,1.48.05,2.23,1.15-.52,1.14-1.26-.05-2.23Zm26.8-35.17c-4.13-.92-26.37,32.98-25.02,34.59,5.51-2.8,11.18-15.1,14.87-20.34,2.43-3.45,10.92-9.36,10.15-14.25Zm-44.69,27.87c4.72-6.84,8.98-15.38,14.73-21.38,3.45-3.58,13.69-12.55,14.38-17.5-3.27-3.44-30.05,33.94-33.42,38.34-3.08,4.02-27.63,27.98-23.94,32.03,10.87-13.12,18.44-17.3,28.25-31.5Zm32.35-44.76c-1.64.59-3.33,3.07-2.12,4.5,1.15-.72,3.65-2.9,2.12-4.5Zm80.88,51.44c19.7-.79,41.38-8.25,54.35-26.08,4.12-5.66,14.8-20.42,12.76-28.05,3.34-3.09,2.77-10.23,3.19-14.29.4-3.87-2.27-13.36.03-16.54-2.58-2.29-3.06-8.58-4.3-11.43-1.98-4.53-4.06-8-6.16-12.09-5.45-10.6-12.98-15.2-22.98-22.88-5.38-.1-11.48-4.89-17.49-6.05-11.31-2.18-20.31.57-31.07-.46-2.05,2.14-6.51,3.4-9.26,4.57-4.52,1.93-9.55,4.38-14,7.2-8.22,5.22-13.49,14.31-19.45,22.24-10.83,14.44-12.36,37.17-8.84,55.02,5.72,29.15,36.03,49.92,63.24,48.82Zm30.91-21.52c2.38,7.36,2.13,10.01-6.5,12.12-9.66,2.36-17.36,4.49-26.55,4.23.14-5.63-4.02-8-.79-12.93,2.3-3.52,9.68-14.64,13.86-12.09,4.9-1.3,9.58,1.3,14.48,1.03,3.86,4.39,3.25.71,5.5,7.65Zm14.14-24.52c-2.65,3.89-7.95,8.03-11.45,11.5-3.68,3.65-5.51,4.12-9.68,2.7-2.05-.7-6.6-1.21-9.14-1.31-7.39-.29-9.15-6.79-11.63-12.31-9.41-3.81,5.57-17.35,8.06-21.27,6.83-10.76,7.93-1.06,14.8-5.61,1.37,2.27,10.54,2.76,13.24,3.88,1.02,5.34,3.77,8.98,5.82,12.37.32,5.25,3.27,5.21-.02,10.04Zm-28.87-63.02c7.61-7.6,4.66-6.24,14.41-5.04,7.76.95,9.55,2.29,14.03,7.11,2.12,3.03,4.09,7.72,5.46,10.85-1.42,5.55,3.84,4.73-1,10.33-2.77,3.2-5.95,5.93-8.16,9.61-4.8,6.5-19.07,3.33-25.57-1.26.48-3.93-5.52-13.07-6.91-16.91-6.82-1.82,5.88-12.83,7.74-14.69Zm48.84,55.72c-.63,10.4-10.26,7.98-16.15,1.79-3.78-9.75-10.93-16.29-5.08-25.83,5.25-8.55,12.18-11.98,20.38-6.32,8.21,5.66,1.38,21.57.85,30.36Zm-45.6-81.55c4.16,3.02,9.1,1.69,12.42,4.71,5.06,4.59,12.81,6.37,17.42,12.48-1.08,1.62-2.9.68-3.47,2.9-5.73.4-10.66-1.73-15.55-2.85-6.8-1.56-5.02-1.22-7.73-7.6-1.21-2.86-2.69-5.85-3.1-9.65Zm-48.26,6.86c.59,2.18-1.87,2.69-3.51,3.39.01-2.28,2.73-1.44,3.51-3.39Zm3.33-1.44c1.82-.28,15.26-3.91,15.59-5.05.68-2.38,8.91-.81,10.9-1.3,3.77-.93,15.23-1.69,17.37,1.82-.56.44-1.02.98-1.38,1.61.12,4.76,2.84,10.67,4.1,15.18-3.08,3.66-6.57,6.91-10.05,10.62-3.53,3.76-7.61,9.68-12.57,5.17-2.08,2.69-7.19-1.76-10.11-.15-1.99-2.92-6.61.98-8.2-2.2-2.78,1.78-3.21-3.83-3.95-5.45-3.63-8.02-2.63-12.5-1.69-20.23Zm-8.32,4.7c.5,1.08-1.37,3.86-2.26,3.26.13-1.14,1.63-2.16,2.26-3.26Zm-16.41,18.21c2.97-5.6,10.08-8.82,12.37-14.37.21,2.74,3.48,3.6,5.48,2.21,2.49,1.4,2.16,4.11,3.87,6.09,1.84,2.13,2.35,5.34,4.05,7.7-.47,3.43-4.62,7.38-4.07,9.76-2.29,3.32-4.96,6.37-7.19,9.74-3.02,4.57-2.97,4.53-6.39,7.09-7.9-2.32-12.22-.23-16.37-7.61-.41.78-.91.9-1.51.36,3.76-6.69,6.08-14.04,9.76-20.97Zm-10.02,23.91c6.03,3.39,2.58,5.56-1.22,8.29-.03-2.83.38-5.59,1.22-8.29Zm-1.62,15.41c-1.22-11.91,15.89-9.04,21.66-8.83,2.37.09,7.96,13.59,9.02,16.21,2.88,7.11,2.5,8.11-3.17,14.05-5.74,7.78-12.54,5.42-19.63,4.2-8.7-1.49-7.17-18.74-7.88-25.63Zm35.37,51.13c1.41.43,7.73.76,9.01.19.45-.88.27-1.63-.54-2.27-2.23,1.74-6.63-.69-9.89.11-.75-1.72-2.94-7.03-3.99-8.01-2.87-2.23-11.78-12.7-4.18-14.19,2.04-5.72,9.76-13.53,15.96-10.2,1.54-2.28,8.57.48,10.72.23,8.34-.97,9.93,5.78,13.61,12.56,2.92,5.38-2.39,11.7-6.91,16.07-4.78,4.62-7.93,2.16-13.72,4.8-.57,4.6,10.19-1.42,10.03,3.85-.08,2.79,4.42,6.73,1.94,8.81-.41-.44-.86-.81-1.38-1.11-4.58,1.31-18.59-1.98-21.44-6.09-4.98,1.69-2.59-5.79.78-4.76Z"/>
      </g>
      <g>
        <path class="cls-6" d="m75.11,303.52c0-.52,0-1.32.03-2.39.02-1.08.04-2.19.06-3.33.02-1.14.04-2.17.06-3.07.02-.91.03-1.42.03-1.55h28.66c.04,1.81.01,3.62-.1,5.43-.11,1.81-.01,3.6.29,5.37h-2.59c-1.47,0-3.23-.02-5.3-.06-2.07-.04-4.29-.09-6.66-.13-2.37-.04-4.59-.08-6.66-.1-2.07-.02-3.84-.05-5.3-.1-1.47-.04-2.31-.06-2.52-.06Z"/>
        <path class="cls-6" d="m118.97,281.53c-.09.09-.16.23-.23.42-.06.19-.12.33-.16.42-.09.13-.16.88-.23,2.26-.06,1.38-.12,3.02-.16,4.92-.04,1.9-.06,3.87-.06,5.92s.06,3.83.19,5.34c.13,1.25.46,2.47,1,3.65.54,1.19,1.43,1.95,2.68,2.3.95.09,1.84-.05,2.68-.42.84-.37,1.48-.98,1.91-1.84.47-.99.68-2.04.62-3.14-.07-1.1,0-2.19.23-3.27.6.09,1.28.11,2.04.06.75-.04,1.52-.06,2.3-.06s1.54.02,2.3.06c.75.04,1.43.15,2.04.32.73,2.24.93,4.47.58,6.7-.35,2.22-1.1,4.22-2.26,5.98-1.16,1.77-2.68,3.22-4.56,4.37-1.88,1.14-4,1.74-6.37,1.78-1.55.21-3.15.23-4.79.03-1.64-.19-3.17-.63-4.59-1.29-1.42-.67-2.62-1.61-3.59-2.81s-1.54-2.72-1.71-4.53c-.09-1.55-.15-3.17-.19-4.85-.04-1.68-.08-3.57-.1-5.66-.02-2.09-.02-4.46,0-7.12.02-2.65.05-5.73.1-9.22-.09-.73-.05-1.48.1-2.23.15-.75.36-1.46.62-2.1.39-1.12.87-2.16,1.46-3.1.58-.95,1.28-1.79,2.1-2.52.47-.34.99-.64,1.55-.87.56-.24,1.14-.44,1.75-.61,1.98-.65,3.95-.91,5.89-.78,1.94.13,3.76.57,5.47,1.33,1.7.75,3.24,1.76,4.62,3.01,1.38,1.25,2.48,2.68,3.3,4.3s1.32,3.38,1.49,5.27c.17,1.9-.09,3.84-.78,5.82-1.6.35-3.16.46-4.69.36-1.53-.11-3.12-.31-4.75-.62-.13-.82-.21-1.75-.23-2.78-.02-1.04-.14-1.99-.36-2.88-.22-.88-.61-1.61-1.2-2.17-.58-.56-1.5-.82-2.75-.78-.56.09-1.15.19-1.78.32-.63.13-1.11.37-1.46.71Z"/>
        <path class="cls-6" d="m168,307.79v.13c.09,1.38.11,2.81.06,4.3-.04,1.49-.24,2.88-.58,4.17-4.4-.04-8.87.01-13.42.16s-8.92.05-13.1-.29c0-3.75-.04-7.47-.13-11.16-.09-3.69-.15-7.36-.19-11.03-.04-3.67-.04-7.33,0-11,.04-3.67.17-7.35.39-11.06,1.68-.09,3.5-.16,5.47-.23,1.96-.06,3.93-.12,5.92-.16,1.98-.04,3.9-.09,5.76-.13,1.85-.04,3.49-.06,4.92-.06s2.56.02,3.43.06c.86.04,1.29.09,1.29.13.22,1.51.27,3.04.16,4.59-.11,1.55-.16,3.08-.16,4.59v.06c-1.38.3-2.77.49-4.17.55-1.4.06-2.81.09-4.24.06-1.42-.02-2.85-.03-4.27-.03s-2.85.06-4.27.19h-.19l-.07.06c.04,1.25-.01,2.53-.16,3.85-.15,1.32-.08,2.56.23,3.72l.06.06c1.29.09,2.61.13,3.95.13s2.67.02,4.01.06v.06c.22,1.47.28,2.93.19,4.4-.09,1.47-.11,3-.06,4.59-.65.17-1.38.27-2.2.29-.82.02-1.61.03-2.36.03s-1.43.02-2.04.06-1.01.15-1.23.32c-.22,1.25-.29,2.65-.23,4.21.06,1.55.14,2.85.23,3.88l.06.06c2.85,0,5.65.08,8.41.23,2.76.15,5.61.18,8.54.1Z"/>
        <path class="cls-6" d="m196.59,316.91c-.86,0-1.86-.05-2.98-.16-1.12-.11-2.11-.16-2.98-.16-1.42-3.19-2.84-6.29-4.24-9.28-1.4-3-2.6-5.88-3.59-8.64l-.65-1.94c-.17-.47-.33-.92-.49-1.33s-.27-.62-.36-.62c-.04,0-.1.52-.16,1.55-.06,1.04-.12,2.35-.16,3.95-.04,1.6-.08,3.36-.1,5.3s-.03,3.82-.03,5.63v2.88c0,.93.02,1.76.07,2.49-.48.13-.95.21-1.42.26-.47.04-.95.06-1.42.06-1.04,0-2.08-.06-3.14-.19-1.06-.13-2.08-.19-3.07-.19v-4.53c0-4.1-.03-8-.1-11.71-.07-3.71-.1-7.59-.1-11.64,0-2.98.04-5.92.13-8.83.09-2.91.24-5.75.45-8.51.43-.09.89-.15,1.39-.19.5-.04,1-.07,1.52-.07.26,0,.69.01,1.29.03.6.02,1.21.06,1.81.13.6.06,1.13.14,1.58.23.45.09.68.17.68.26.3.78.58,1.42.84,1.94l.74,1.49c.24.47.5,1,.78,1.58.28.58.61,1.33,1,2.23.09.22.28.62.58,1.23.3.6.65,1.3,1.04,2.1.39.8.8,1.64,1.23,2.52.43.88.83,1.68,1.2,2.39.37.71.68,1.32.94,1.81.26.5.41.74.45.74.13-.09.24-.52.32-1.29.09-.78.13-1.53.13-2.26,0-1.72-.03-3.33-.1-4.82-.06-1.49-.1-3.01-.1-4.56,0-.91,0-1.82.03-2.75.02-.93.05-1.93.1-3.01,1.47-.26,3.02-.39,4.66-.39s3.02.13,4.27.39v20.83c.04,1.81.06,3.64.06,5.5v5.56c0,1.25-.01,2.46-.03,3.62s-.03,2.35-.03,3.56c0,.86.01,1.73.03,2.59.02.86.03,1.72.03,2.59v1.29c-.09.04-.28.11-.58.19-.3.09-.82.13-1.55.13Z"/>
        <path class="cls-6" d="m229.32,271.63c.09,1.42.12,3.06.1,4.92-.02,1.85-.14,3.56-.36,5.11-.82-.17-1.83-.24-3.04-.19-1.21.04-2.83.11-4.85.19h-.19s-.01.08-.03.1c-.02.02-.03.05-.03.1-.04.22-.08.55-.1,1-.02.45-.03,1.16-.03,2.13s0,2.24.03,3.82c.02,1.58.05,3.6.1,6.08.04,2.48.09,5.46.13,8.93.04,3.47.11,7.56.19,12.26v.13c-.78.13-1.63.21-2.55.23-.93.02-1.85.03-2.78.03h-2.75c-.91,0-1.75.06-2.52.19-.04-.17-.04-.95,0-2.33s.08-3.44.1-6.18c.02-2.74,0-6.24-.07-10.51-.06-4.27-.23-9.42-.48-15.46l-.07-.07c-.52-.26-1.16-.42-1.94-.48-.78-.07-1.55-.11-2.33-.13-.78-.02-1.49-.03-2.13-.03s-1.1-.04-1.36-.13c-.09-.17-.16-.6-.23-1.29-.06-.69-.11-1.52-.13-2.49-.02-.97-.03-2.02-.03-3.14s.04-2.2.13-3.23c0-.04-.01-.06-.03-.06-.02,0-.03-.02-.03-.07,4.4-.04,8.94-.07,13.62-.1,4.68-.02,9.24.21,13.68.68Z"/>
        <path class="cls-6" d="m263.41,316.4h.06c-1.51,0-3.19.05-5.05.16-1.85.11-3.75.1-5.69-.03h-.06c-.43-.99-.97-2.18-1.62-3.56-.65-1.38-1.36-2.82-2.13-4.33s-1.62-3-2.52-4.46c-.91-1.47-1.81-2.76-2.72-3.88l-.13-.19c-.13.99-.19,2.21-.19,3.65s.03,2.93.1,4.46c.06,1.53.14,2.99.23,4.37.08,1.38.15,2.48.19,3.3-.73.3-1.69.5-2.88.58-1.19.09-2.36.14-3.53.16-1.17.02-2.21,0-3.14-.03-.93-.04-1.5-.04-1.71,0,.09,0,.15-.59.19-1.78.04-1.19.07-2.75.07-4.69v-6.7c0-2.52-.01-5.13-.03-7.83-.02-2.69-.06-5.37-.13-8.02-.06-2.65-.12-5.09-.16-7.31s-.1-4.12-.16-5.69c-.07-1.57-.14-2.64-.23-3.2,2.41-.34,5.07-.67,7.96-.97,2.89-.3,5.91-.28,9.06.06,2.54.13,4.83.86,6.86,2.2,2.03,1.34,3.6,3,4.72,4.98,1.12,1.98,1.71,4.17,1.78,6.57.07,2.39-.57,4.71-1.91,6.95-.82,1.55-1.91,2.85-3.27,3.88s-3.07,1.62-5.14,1.75h-.32v.06c.91,1.6,1.9,3.18,2.98,4.75,1.08,1.57,2.13,3.16,3.17,4.75,1.03,1.6,2.03,3.22,2.98,4.88.95,1.66,1.75,3.38,2.39,5.14Zm-21.8-35.97c.04.56.07,1.2.1,1.91.02.71.03,1.43.03,2.17s.01,1.45.03,2.13c.02.69.08,1.27.16,1.75h.06c.99.09,2.07.15,3.23.19,1.17.04,2.26-.02,3.3-.19.82-.17,1.46-.59,1.91-1.26.45-.67.72-1.4.81-2.2.08-.8,0-1.59-.26-2.39-.26-.8-.69-1.43-1.29-1.91-.95-.86-2.16-1.26-3.62-1.2-1.47.07-2.95.4-4.46,1Z"/>
        <path class="cls-6" d="m286.96,293.88l4.85,22.64v.06c-1.29.26-2.72.36-4.27.29s-3.02-.25-4.4-.55h-.07c-.26-.69-.51-1.51-.74-2.46-.24-.95-.48-1.92-.71-2.91-.24-.99-.49-1.94-.74-2.85-.26-.91-.54-1.68-.84-2.33-.56-.09-.99-.13-1.29-.13h-.81c-.24,0-.5.01-.78.03s-.66.03-1.13.03c-.3.69-.55,1.5-.74,2.43-.19.93-.39,1.9-.58,2.91-.19,1.01-.4,2-.61,2.94-.22.95-.52,1.79-.91,2.52-.04,0-.08.01-.1.03-.02.02-.05.03-.1.03-.35.09-1.21.09-2.59,0s-3.54-.11-6.47-.06c-.04,0-.09-.02-.13-.06.09-.3.24-1.14.45-2.52.21-1.38.52-3.17.91-5.37s.85-4.73,1.39-7.6c.54-2.87,1.17-5.92,1.91-9.15s1.53-6.6,2.39-10.09c.86-3.49,1.81-6.96,2.85-10.42.3-.04.62-.06.97-.06h1.36c.56,0,1.28,0,2.17-.03.88-.02,2.04-.1,3.46-.23.13.56.33,1.41.61,2.56s.58,2.44.91,3.88c.32,1.45.67,2.99,1.03,4.62.37,1.64.72,3.21,1.07,4.72.34,1.51.67,2.89.97,4.14.3,1.25.54,2.24.71,2.98Zm-6.6,4.21c-.43-3.71-.81-6.6-1.13-8.67-.32-2.07-.6-3.47-.84-4.2-.24-.73-.48-.89-.71-.49-.24.41-.45,1.24-.65,2.49-.19,1.25-.41,2.83-.65,4.72-.24,1.9-.51,3.95-.81,6.15.73.04,1.51.05,2.33.03.82-.02,1.64-.03,2.46-.03Z"/>
        <path class="cls-6" d="m321.18,310.7c.09,1.55.13,2.73.13,3.53s-.05,1.38-.16,1.75-.29.56-.55.58c-.26.02-.62.03-1.1.03-.47-.04-1.09-.04-1.84,0-.75.04-2.03.09-3.82.13-1.79.04-4.25.07-7.37.07s-7.3-.04-12.52-.13v-1.16c.13-3.23.24-6.16.32-8.77.09-2.61.14-5.04.16-7.31.02-2.26.03-4.45.03-6.57s-.02-4.27-.07-6.47-.09-4.54-.13-7.02c-.04-2.48-.09-5.23-.13-8.25.43-.17,1.1-.31,2.01-.42.91-.11,1.88-.16,2.91-.16s2.05.06,3.04.19c.99.13,1.79.32,2.39.58-.09,2.8-.12,5.68-.1,8.64.02,2.96.05,5.92.1,8.89.04,2.98.07,5.94.1,8.89.02,2.95,0,5.81-.03,8.57v.06c.3-.09.87-.12,1.71-.1.84.02,1.82.05,2.94.1,1.12.04,2.32.1,3.59.16,1.27.06,2.48.12,3.62.16,1.14.04,2.16.08,3.04.1.88.02,1.5.01,1.84-.03,0,.47-.02.95-.06,1.42-.04.43-.08.87-.1,1.33-.02.45-.01.85.03,1.2Z"/>
        <path class="cls-6" d="m322.15,303.52c0-.52,0-1.32.03-2.39.02-1.08.04-2.19.06-3.33.02-1.14.04-2.17.06-3.07.02-.91.03-1.42.03-1.55h28.66c.04,1.81.01,3.62-.1,5.43-.11,1.81-.01,3.6.29,5.37h-2.59c-1.47,0-3.23-.02-5.3-.06-2.07-.04-4.29-.09-6.66-.13-2.37-.04-4.59-.08-6.66-.1-2.07-.02-3.84-.05-5.3-.1-1.47-.04-2.31-.06-2.52-.06Z"/>
        <path class="cls-6" d="m184.27,342.38v.94c0,.28-.02.55-.06.81-.26,2.07-.94,3.97-2.04,5.69-1.1,1.73-2.47,3.19-4.11,4.4-1.64,1.21-3.45,2.08-5.43,2.62-1.98.54-4.01.64-6.08.29.04.6.07,1.2.07,1.78v2.52c0,1.1,0,2.58.03,4.43.02,1.86.07,4.36.16,7.5v.06s-.08.01-.1.03c-.02.02-.05.03-.1.03-.6.17-1.37.29-2.3.36-.93.06-1.9.11-2.91.13-1.01.02-2.02.01-3.01-.03-.99-.04-1.85-.11-2.59-.19-.13-3.15-.19-6.57-.19-10.25v-11.35c0-3.88-.01-7.78-.03-11.71-.02-3.92-.1-7.67-.23-11.25,1.77-.47,3.7-.82,5.79-1.04s4.18-.24,6.28-.06c2.09.17,4.13.55,6.11,1.13,1.98.58,3.74,1.45,5.27,2.59,1.53,1.14,2.79,2.58,3.78,4.3.99,1.73,1.55,3.82,1.68,6.27Zm-11.32-2.72c-1.08-.86-2.33-1.41-3.75-1.65-1.42-.24-2.83-.18-4.2.16-.09,0-.15.02-.19.06.04.78.05,1.6.03,2.46-.02.86-.02,1.73,0,2.59.02.86.06,1.69.13,2.49.07.8.2,1.52.42,2.17h.19c.69-.04,1.42-.08,2.2-.1s1.54-.08,2.3-.16c.75-.09,1.49-.25,2.2-.49.71-.24,1.33-.61,1.84-1.13.34-.47.59-1.01.74-1.62.15-.6.17-1.21.06-1.81-.11-.6-.32-1.16-.65-1.68s-.77-.95-1.33-1.29Z"/>
        <path class="cls-6" d="m205.49,351.44l4.85,22.64v.06c-1.29.26-2.72.36-4.27.29s-3.02-.25-4.4-.55h-.07c-.26-.69-.51-1.51-.74-2.46-.24-.95-.48-1.92-.71-2.91-.24-.99-.49-1.94-.74-2.85-.26-.91-.54-1.68-.84-2.33-.56-.09-.99-.13-1.29-.13h-.81c-.24,0-.5.01-.78.03s-.66.03-1.13.03c-.3.69-.55,1.5-.74,2.43-.19.93-.39,1.9-.58,2.91-.19,1.01-.4,2-.61,2.94-.22.95-.52,1.79-.91,2.52-.04,0-.08.01-.1.03-.02.02-.05.03-.1.03-.35.09-1.21.09-2.59,0s-3.54-.11-6.47-.06c-.04,0-.09-.02-.13-.06.09-.3.24-1.14.45-2.52.21-1.38.52-3.17.91-5.37s.85-4.73,1.39-7.6c.54-2.87,1.17-5.92,1.91-9.15s1.53-6.6,2.39-10.09c.86-3.49,1.81-6.96,2.85-10.42.3-.04.62-.06.97-.06h1.36c.56,0,1.28,0,2.17-.03.88-.02,2.04-.1,3.46-.23.13.56.33,1.41.61,2.56s.58,2.44.91,3.88c.32,1.45.67,2.99,1.03,4.62.37,1.64.72,3.21,1.07,4.72.34,1.51.67,2.89.97,4.14.3,1.25.54,2.24.71,2.98Zm-6.6,4.21c-.43-3.71-.81-6.6-1.13-8.67-.32-2.07-.6-3.47-.84-4.2-.24-.73-.48-.89-.71-.49-.24.41-.45,1.24-.65,2.49-.19,1.25-.41,2.83-.65,4.72-.24,1.9-.51,3.95-.81,6.15.73.04,1.51.05,2.33.03.82-.02,1.64-.03,2.46-.03Z"/>
        <path class="cls-6" d="m243.52,373.95h.06c-1.51,0-3.19.05-5.05.16-1.85.11-3.75.1-5.69-.03h-.06c-.43-.99-.97-2.18-1.62-3.56-.65-1.38-1.36-2.82-2.13-4.33s-1.62-3-2.52-4.46c-.91-1.47-1.81-2.76-2.72-3.88l-.13-.19c-.13.99-.19,2.21-.19,3.65s.03,2.93.1,4.46c.06,1.53.14,2.99.23,4.37.08,1.38.15,2.48.19,3.3-.73.3-1.69.5-2.88.58-1.19.09-2.36.14-3.53.16-1.17.02-2.21,0-3.14-.03-.93-.04-1.5-.04-1.71,0,.09,0,.15-.59.19-1.78.04-1.19.07-2.75.07-4.69v-6.7c0-2.52-.01-5.13-.03-7.83-.02-2.69-.06-5.37-.13-8.02-.06-2.65-.12-5.09-.16-7.31s-.1-4.12-.16-5.69c-.07-1.57-.14-2.64-.23-3.2,2.41-.34,5.07-.67,7.96-.97,2.89-.3,5.91-.28,9.06.06,2.54.13,4.83.86,6.86,2.2,2.03,1.34,3.6,3,4.72,4.98,1.12,1.98,1.71,4.17,1.78,6.57.07,2.39-.57,4.71-1.91,6.95-.82,1.55-1.91,2.85-3.27,3.88s-3.07,1.62-5.14,1.75h-.32v.06c.91,1.6,1.9,3.18,2.98,4.75,1.08,1.57,2.13,3.16,3.17,4.75,1.03,1.6,2.03,3.22,2.98,4.88.95,1.66,1.75,3.38,2.39,5.14Zm-21.8-35.97c.04.56.07,1.2.1,1.91.02.71.03,1.43.03,2.17s.01,1.45.03,2.13c.02.69.08,1.27.16,1.75h.06c.99.09,2.07.15,3.23.19,1.17.04,2.26-.02,3.3-.19.82-.17,1.46-.59,1.91-1.26.45-.67.72-1.4.81-2.2.08-.8,0-1.59-.26-2.39-.26-.8-.69-1.43-1.29-1.91-.95-.86-2.16-1.26-3.62-1.2-1.47.07-2.95.4-4.46,1Z"/>
        <path class="cls-6" d="m262.54,350.92l11.06,22.96c-1.38.3-2.88.41-4.5.32s-3.12-.15-4.5-.19c-.91-1.04-1.75-2.27-2.52-3.72-.78-1.44-1.52-2.94-2.23-4.5s-1.41-3.08-2.1-4.59c-.69-1.51-1.38-2.87-2.07-4.08-.04,1.25-.05,2.6-.03,4.04.02,1.45.05,2.9.1,4.37.04,1.47.07,2.91.1,4.33.02,1.42.03,2.74.03,3.95-.6.17-1.32.29-2.13.36s-1.68.1-2.59.1-1.78-.04-2.62-.13-1.54-.19-2.1-.32c-.35-7.42-.4-14.87-.16-22.35.24-7.48.33-15,.29-22.54,1.42-.04,2.88-.03,4.37.03,1.49.06,2.92.1,4.3.1.09,2.46.11,5.05.06,7.76s-.02,5.3.06,7.76c0,.04.03.01.1-.1.06-.11.14-.2.23-.29.91-1.16,1.72-2.37,2.46-3.62.73-1.25,1.43-2.52,2.1-3.82.67-1.29,1.36-2.59,2.07-3.88s1.52-2.59,2.43-3.88c1.38.09,2.85.09,4.4,0,1.55-.09,3.02-.02,4.4.19-.52,1.81-1.24,3.62-2.17,5.43-.93,1.81-1.92,3.62-2.98,5.43-1.06,1.81-2.1,3.62-3.14,5.43s-1.94,3.62-2.72,5.43Z"/>
      </g>
      <path class="cls-1" d="m226.03,398.21l-10.74,10.74c-1.18,1.18-3.09,1.18-4.28,0l-10.74-10.74c-1.9-1.9-.56-5.16,2.14-5.16h21.48c2.69,0,4.04,3.26,2.14,5.16Z"/>
    </g>
  </g>
</svg>