<?xml version="1.0" encoding="UTF-8"?>
<svg id="Layer_2" data-name="Layer 2" xmlns="http://www.w3.org/2000/svg" viewBox="0 0 547.98 467.88">
  <defs>
    <style>
      .cls-1 {
        fill: #663734;
        font-family: LondrinaSolid-Regular, 'Londrina Solid';
        font-size: 62.23px;
      }

      .cls-2 {
        fill: #8e8e8e;
      }

      .cls-2, .cls-3, .cls-4, .cls-5, .cls-6, .cls-7 {
        stroke-width: 0px;
      }

      .cls-3 {
        fill: #fff;
      }

      .cls-3, .cls-4 {
        fill-rule: evenodd;
      }

      .cls-4 {
        fill: #211915;
      }

      .cls-5 {
        fill: silver;
      }

      .cls-6 {
        fill: #aaa7a5;
      }

      .cls-8 {
        letter-spacing: -.02em;
      }

      .cls-9 {
        fill: none;
        stroke: #663734;
        stroke-miterlimit: 10;
        stroke-width: 11.39px;
      }

      .cls-10 {
        letter-spacing: -.05em;
      }

      .cls-7 {
        fill: #cecece;
      }
    </style>
  </defs>
  <g id="Layer_1-2" data-name="Layer 1">
    <g id="CentralPark_Badge_-_Silver" data-name="CentralPark Badge - Silver">
      <polygon class="cls-6" points="103.1 371.03 0 371.03 25.44 326.75 0 284.8 103.1 284.8 103.1 371.03"/>
      <polygon class="cls-2" points="103.02 371.15 103.02 351.73 61.07 351.73 103.02 371.15"/>
      <polygon class="cls-6" points="444.88 371.18 547.98 371.18 522.54 326.89 547.98 284.95 444.88 284.95 444.88 371.18"/>
      <polygon class="cls-2" points="444.91 371.1 444.91 351.67 486.87 351.67 444.91 371.1"/>
      <path class="cls-7" d="m250.09,454.79l-159.1-92c-14.45-8.35-23.34-23.78-23.33-40.47l.12-177.04c.01-16.69,8.92-32.1,23.38-40.44L250.4,13.06c14.46-8.33,32.26-8.32,46.71.03l159.1,92c14.45,8.35,23.34,23.78,23.33,40.47l-.12,177.05c-.01,16.69-8.92,32.1-23.38,40.44l-159.23,91.79c-14.46,8.33-32.26,8.32-46.71-.03Z"/>
      <path class="cls-9" d="m249.98,455.88l-159.89-92.45c-14.52-8.39-23.45-23.9-23.44-40.67l.12-177.92c.01-16.77,8.97-32.26,23.5-40.63L250.28,11.97c14.53-8.37,32.42-8.36,46.94.03l159.89,92.45c14.52,8.39,23.45,23.9,23.44,40.67l-.12,177.92c-.01,16.77-8.97,32.26-23.5,40.63l-160.01,92.24c-14.53,8.37-32.42,8.36-46.94-.03Z"/>
      <g>
        <path class="cls-3" d="m392.93,188.08c0,46.91-46.33,89.94-95.21,89.94s-80.85-43.04-80.85-89.94,42.17-91.09,91.05-91.09,85.01,44.19,85.01,91.09Z"/>
        <path class="cls-4" d="m209.04,319.68c-4.5,7.02-51.99,43.48-44.49,51.72,5.61-3.57,7.61-10.27,12.42-14.62,3.28-2.98,9.37-7.23,11.35-11.07,3.83-7.46,14.28-10.24,18.09-18.41,7.7-2.5,20.02-14.2,24.59-20.09,2.95-3.8,19.3-10.13,18.82-15.69-6.52-2.78-16.96,13.48-23.81,13.94-1.37,4.2-13.28,12.53-16.97,14.22Zm47.14-33.49c-.95,1.2-7.84,3.11-4.42,5.5,1.54-1.56,6.26-2.06,4.42-5.5Zm-77.03,49.51c2.01-1.46,3.1-3.63,1.06-4.49-1.28,1.42-2.7,2.82-1.06,4.49Zm4.6-3.85c1.59-1.28,2.29-2.64,1.34-4.14-1.53.19-3.53,2.59-1.34,4.14Zm4.1-52.02c2.24-3.37,15.58-17.09,13.05-21.52-7.39,6.08-22.9,26.45-24.4,35.49,2.17,2.64,10.36-12.47,11.35-13.97Zm-16.74,8.25c1.75-1.04,2.25-2.2,1.94-3.43-1.62-1.02-4,2.11-1.94,3.43Zm3.28-7.56c-1.15.98-1.13,1.96.07,2.95,1.53-.69,1.51-1.67-.07-2.95Zm35.53-46.62c-5.47-1.22-34.96,43.71-33.17,45.85,7.31-3.71,14.82-20.02,19.71-26.96,3.22-4.58,14.47-12.4,13.46-18.89Zm-59.24,36.95c6.26-9.06,11.9-20.39,19.53-28.34,4.57-4.75,18.14-16.63,19.06-23.2-4.34-4.57-39.83,44.99-44.3,50.83-4.08,5.33-36.63,37.09-31.74,42.46,14.4-17.39,24.44-22.93,37.44-41.76Zm42.88-59.34c-2.17.78-4.41,4.07-2.81,5.97,1.52-.95,4.83-3.85,2.81-5.97Zm107.21,68.19c26.11-1.05,54.85-10.93,72.05-34.57,5.46-7.5,19.62-27.07,16.92-37.19,4.43-4.1,3.67-13.56,4.22-18.94.52-5.13-3.01-17.71.03-21.93-3.42-3.03-4.06-11.38-5.71-15.15-2.62-6.01-5.38-10.6-8.17-16.03-7.22-14.05-17.2-20.15-30.46-30.33-7.13-.13-15.22-6.48-23.19-8.01-15-2.89-26.92.76-41.19-.6-2.72,2.83-8.63,4.51-12.28,6.06-6,2.56-12.66,5.8-18.56,9.55-10.9,6.92-17.89,18.96-25.78,29.48-14.36,19.14-16.39,49.27-11.72,72.94,7.58,38.64,47.76,66.18,83.82,64.72Zm40.97-28.52c3.15,9.76,2.82,13.27-8.61,16.06-12.8,3.12-23.02,5.96-35.19,5.6.18-7.46-5.33-10.6-1.04-17.14,3.05-4.66,12.83-19.4,18.37-16.03,6.5-1.73,12.7,1.72,19.19,1.36,5.12,5.82,4.31.94,7.29,10.14Zm18.74-32.5c-3.51,5.15-10.54,10.65-15.18,15.25-4.88,4.84-7.31,5.47-12.83,3.58-2.72-.93-8.75-1.6-12.11-1.73-9.79-.39-12.12-9-15.42-16.32-12.47-5.05,7.38-23,10.68-28.19,9.05-14.27,10.51-1.41,19.62-7.43,1.82,3,13.97,3.65,17.55,5.15,1.35,7.08,4.99,11.9,7.72,16.39.42,6.95,4.33,6.9-.03,13.31Zm-38.27-83.53c10.08-10.07,6.17-8.27,19.1-6.68,10.28,1.26,12.66,3.03,18.59,9.43,2.81,4.02,5.42,10.24,7.24,14.38-1.88,7.36,5.09,6.27-1.33,13.69-3.68,4.24-7.89,7.86-10.82,12.73-6.37,8.62-25.28,4.42-33.89-1.68.64-5.21-7.32-17.33-9.15-22.41-9.04-2.41,7.8-17.01,10.26-19.47Zm64.74,73.86c-.83,13.78-13.6,10.57-21.41,2.37-5.01-12.92-14.48-21.6-6.74-34.24,6.96-11.33,16.14-15.88,27.02-8.38,10.88,7.51,1.83,28.59,1.13,40.24Zm-60.44-108.1c5.52,4,12.06,2.25,16.47,6.25,6.7,6.08,16.98,8.44,23.09,16.55-1.43,2.15-3.84.9-4.59,3.85-7.6.53-14.13-2.29-20.61-3.78-9.01-2.07-6.66-1.61-10.24-10.07-1.61-3.8-3.57-7.76-4.11-12.8Zm-63.97,9.09c.78,2.89-2.48,3.57-4.65,4.5.01-3.02,3.61-1.91,4.65-4.5Zm4.42-1.9c2.42-.37,20.23-5.18,20.66-6.69.9-3.16,11.81-1.07,14.45-1.73,4.99-1.24,20.18-2.24,23.02,2.41-.75.59-1.36,1.3-1.82,2.13.15,6.31,3.76,14.14,5.43,20.12-4.09,4.85-8.7,9.16-13.33,14.07-4.68,4.98-10.08,12.83-16.67,6.85-2.76,3.56-9.53-2.33-13.4-.2-2.64-3.87-8.76,1.3-10.87-2.92-3.68,2.36-4.26-5.07-5.24-7.23-4.81-10.64-3.49-16.57-2.24-26.82Zm-11.02,6.23c.67,1.43-1.81,5.12-3,4.32.17-1.51,2.16-2.86,3-4.32Zm-21.75,24.14c3.94-7.43,13.36-11.69,16.4-19.05.28,3.63,4.62,4.77,7.27,2.93,3.3,1.85,2.87,5.44,5.13,8.07,2.43,2.83,3.12,7.08,5.37,10.2-.62,4.54-6.12,9.78-5.4,12.94-3.03,4.41-6.58,8.44-9.53,12.91-4.01,6.06-3.94,6-8.47,9.4-10.47-3.08-16.19-.3-21.7-10.09-.54,1.03-1.21,1.19-2,.48,4.98-8.87,8.07-18.61,12.93-27.79Zm-13.28,31.69c7.99,4.49,3.41,7.38-1.62,10.99-.04-3.75.5-7.41,1.62-10.99Zm-2.14,20.43c-1.62-15.79,21.07-11.99,28.71-11.7,3.14.12,10.55,18.01,11.96,21.49,3.82,9.42,3.31,10.75-4.21,18.63-7.61,10.32-16.63,7.18-26.02,5.56-11.53-1.97-9.5-24.84-10.44-33.98Zm46.89,67.78c1.86.57,10.24,1.01,11.94.25.59-1.16.36-2.16-.71-3.01-2.96,2.31-8.78-.92-13.11.15-1-2.27-3.9-9.32-5.29-10.61-3.8-2.96-15.61-16.83-5.54-18.82,2.71-7.59,12.94-17.93,21.16-13.52,2.04-3.02,11.36.64,14.21.31,11.06-1.29,13.16,7.66,18.05,16.65,3.87,7.13-3.17,15.51-9.15,21.31-6.34,6.12-10.51,2.87-18.19,6.36-.75,6.1,13.5-1.88,13.29,5.1-.11,3.7,5.86,8.92,2.57,11.68-.54-.58-1.15-1.07-1.83-1.47-6.07,1.73-24.65-2.63-28.42-8.07-6.6,2.23-3.43-7.67,1.03-6.3Z"/>
      </g>
      <rect class="cls-5" x="61.07" y="255.36" width="425.8" height="96.31"/>
      <text class="cls-1" transform="translate(107.61 328.06)"><tspan x="0" y="0">CENTRA</tspan><tspan class="cls-8" x="178.1" y="0">L</tspan><tspan x="205.73" y="0"> </tspan><tspan class="cls-10" x="218.17" y="0">P</tspan><tspan x="246.18" y="0">ARK</tspan></text>
    </g>
  </g>
</svg>