<svg width="24" height="24" viewBox="0 0 24 24" fill="none" xmlns="http://www.w3.org/2000/svg">
<g clip-path="url(#clip0_1348_3298)">
<path fill-rule="evenodd" clip-rule="evenodd" d="M19.495 3.13284C19.7166 2.99955 19.9812 2.95727 20.2332 3.01489C20.4853 3.0725 20.7053 3.22552 20.847 3.44184L21.837 4.95184C21.966 5.1491 22.0213 5.38561 21.9929 5.61963C21.9645 5.85364 21.8544 6.07011 21.682 6.23084L21.679 6.23484L21.665 6.24784L21.608 6.30084L21.383 6.51584C20.138 7.72344 18.9307 8.96937 17.763 10.2518C15.566 12.6678 12.957 15.8298 11.201 18.8978C10.711 19.7538 9.51397 19.9378 8.80397 19.1988L2.31897 12.4608C2.22604 12.3642 2.15347 12.2499 2.10559 12.1247C2.05771 11.9995 2.03548 11.866 2.04024 11.732C2.045 11.5981 2.07664 11.4664 2.13329 11.3449C2.18993 11.2235 2.27042 11.1146 2.36997 11.0248L4.32997 9.25684C4.50222 9.10155 4.72308 9.01095 4.95475 9.00055C5.18643 8.99015 5.41451 9.0606 5.59997 9.19984L8.90897 11.6808C14.078 6.58384 17.009 4.62784 19.495 3.13284Z" fill="#098F5E"/>
</g>
<defs>
<clipPath id="clip0_1348_3298">
<rect width="24" height="24" fill="white"/>
</clipPath>
</defs>
</svg>
