<svg width="44" height="44" viewBox="0 0 44 44" fill="none" xmlns="http://www.w3.org/2000/svg">
<path d="M12.1 13.2C13.8504 13.2 15.5292 12.5046 16.7669 11.2669C18.0046 10.0292 18.7 8.35043 18.7 6.6C18.7 4.84957 18.0046 3.17084 16.7669 1.9331C15.5292 0.695355 13.8504 0 12.1 0C10.3496 0 8.67084 0.695355 7.43309 1.9331C6.19535 3.17084 5.5 4.84957 5.5 6.6C5.5 8.35043 6.19535 10.0292 7.43309 11.2669C8.67084 12.5046 10.3496 13.2 12.1 13.2ZM0 19.2896C0 17.138 1.7402 15.4 3.8896 15.4H14.377C13.6035 16.7372 13.1974 18.2552 13.2 19.8C13.1985 21.0487 13.4635 22.2833 13.9771 23.4215C14.4908 24.5596 15.2414 25.5751 16.1788 26.4H13.7896C12.5497 26.4 11.3393 26.7783 10.32 27.4843C9.30068 28.1903 8.52099 29.1905 8.085 30.3512C4.7894 29.546 2.7456 27.7486 1.5422 25.7466C0 23.1792 0 20.5392 0 20.0794V19.2896ZM30.8 19.8C30.8027 18.2552 30.3966 16.7372 29.623 15.4H40.1104C42.262 15.4 44 17.1402 44 19.2896V20.0816C44 20.537 44 23.1792 42.46 25.7466C41.2544 27.7486 39.2106 29.546 35.915 30.3512C35.4793 29.1903 34.6997 28.19 33.6803 27.4839C32.6609 26.7779 31.4504 26.3997 30.2104 26.4H27.8212C28.7586 25.5751 29.5092 24.5596 30.0229 23.4215C30.5365 22.2833 30.8015 21.0487 30.8 19.8ZM38.5 6.6C38.5 8.35043 37.8046 10.0292 36.5669 11.2669C35.3292 12.5046 33.6504 13.2 31.9 13.2C30.1496 13.2 28.4708 12.5046 27.2331 11.2669C25.9954 10.0292 25.3 8.35043 25.3 6.6C25.3 4.84957 25.9954 3.17084 27.2331 1.9331C28.4708 0.695355 30.1496 0 31.9 0C33.6504 0 35.3292 0.695355 36.5669 1.9331C37.8046 3.17084 38.5 4.84957 38.5 6.6ZM9.9 32.4896C9.9 30.338 11.6402 28.6 13.7896 28.6H30.2104C32.3598 28.6 34.1 30.3402 34.1 32.4896V33.2816C34.1 33.737 34.1 36.3792 32.56 38.9466C30.9254 41.6614 27.7486 44 22 44C16.2514 44 13.0724 41.6614 11.44 38.9466C9.9 36.3792 9.9 33.7392 9.9 33.2794V32.4896ZM22 26.4C22.8667 26.4 23.725 26.2293 24.5257 25.8976C25.3265 25.5659 26.054 25.0798 26.6669 24.4669C27.2798 23.854 27.7659 23.1265 28.0976 22.3257C28.4293 21.525 28.6 20.6667 28.6 19.8C28.6 18.9333 28.4293 18.075 28.0976 17.2743C27.7659 16.4735 27.2798 15.746 26.6669 15.1331C26.054 14.5202 25.3265 14.0341 24.5257 13.7024C23.725 13.3707 22.8667 13.2 22 13.2C20.2496 13.2 18.5708 13.8954 17.3331 15.1331C16.0954 16.3708 15.4 18.0496 15.4 19.8C15.4 21.5504 16.0954 23.2292 17.3331 24.4669C18.5708 25.7046 20.2496 26.4 22 26.4Z" fill="white"/>
</svg>
