<svg width="16" height="16" viewBox="0 0 16 16" fill="none" xmlns="http://www.w3.org/2000/svg">
<g clip-path="url(#clip0_1348_3302)">
<path d="M15.854 12.8538L11 7.99983L15.854 3.14583C15.947 3.05168 15.9992 2.92467 15.9992 2.79233C15.9992 2.65999 15.947 2.53298 15.854 2.43883L13.561 0.145832C13.5147 0.0992995 13.4596 0.0623778 13.3989 0.0371848C13.3382 0.0119919 13.2732 -0.000976563 13.2075 -0.000976562C13.1418 -0.000976562 13.0768 0.0119919 13.0161 0.0371848C12.9555 0.0623778 12.9004 0.0992995 12.854 0.145832L8.00002 4.99983L3.14602 0.145832C3.05225 0.0520965 2.9251 -0.000561144 2.79252 -0.000561144C2.65993 -0.000561144 2.53278 0.0520965 2.43902 0.145832L0.146015 2.43883C0.0994826 2.48519 0.0625609 2.54028 0.0373679 2.60095C0.012175 2.66161 -0.000793457 2.72665 -0.000793457 2.79233C-0.000793457 2.85802 0.012175 2.92306 0.0373679 2.98372C0.0625609 3.04438 0.0994826 3.09947 0.146015 3.14583L5.00002 7.99983L0.146015 12.8538C0.0522797 12.9476 -0.000378038 13.0748 -0.000378038 13.2073C-0.000378038 13.3399 0.0522797 13.4671 0.146015 13.5608L2.43902 15.8538C2.48538 15.9004 2.54047 15.9373 2.60113 15.9625C2.66179 15.9877 2.72683 16.0006 2.79252 16.0006C2.8582 16.0006 2.92324 15.9877 2.9839 15.9625C3.04456 15.9373 3.09965 15.9004 3.14602 15.8538L8.00002 10.9998L12.854 15.8538C12.9478 15.9476 13.0749 16.0002 13.2075 16.0002C13.3401 16.0002 13.4673 15.9476 13.561 15.8538L15.854 13.5608C15.9005 13.5145 15.9375 13.4594 15.9627 13.3987C15.9879 13.3381 16.0008 13.273 16.0008 13.2073C16.0008 13.1416 15.9879 13.0766 15.9627 13.0159C15.9375 12.9553 15.9005 12.9002 15.854 12.8538Z" fill="#D10431"/>
</g>
<defs>
<clipPath id="clip0_1348_3302">
<rect width="16" height="16" fill="white"/>
</clipPath>
</defs>
</svg>
