<?xml version="1.0" encoding="UTF-8"?>
<svg id="Layer_2" data-name="Layer 2" xmlns="http://www.w3.org/2000/svg" viewBox="0 0 464.22 459.34">
  <defs>
    <style>
      .cls-1 {
        stroke-width: 11.61px;
      }

      .cls-1, .cls-2 {
        stroke: #663734;
      }

      .cls-1, .cls-2, .cls-3, .cls-4 {
        fill: none;
        stroke-miterlimit: 10;
      }

      .cls-5 {
        fill: #3aa;
      }

      .cls-5, .cls-6, .cls-7, .cls-8, .cls-9 {
        stroke-width: 0px;
      }

      .cls-2 {
        stroke-width: 7.31px;
      }

      .cls-6 {
        fill: #008f66;
      }

      .cls-3 {
        stroke-dasharray: 0 0 5.09 30.57;
        stroke-width: 20.38px;
      }

      .cls-3, .cls-4 {
        stroke: #f2f3c9;
      }

      .cls-7 {
        fill: #e54b59;
      }

      .cls-4 {
        stroke-width: 20.92px;
      }

      .cls-8 {
        fill: #f5ced1;
      }

      .cls-9 {
        fill: #1d1d1b;
      }
    </style>
  </defs>
  <g id="Layer_1_Outlined_Text" data-name="Layer 1 Outlined Text">
    <g id="DavidLam_Badge_-_Champion" data-name="DavidLam Badge - Champion">
      <rect class="cls-6" x="5.81" y="1.73" width="452.6" height="447.73" rx="113.15" ry="113.15"/>
      <rect class="cls-4" x="18.83" y="18.72" width="426.56" height="421.91" rx="100.23" ry="100.23"/>
      <rect class="cls-1" x="5.81" y="5.81" width="452.6" height="447.73" rx="106.09" ry="106.09"/>
      <rect class="cls-2" x="31.06" y="30.85" width="402.09" height="397.65" rx="86.09" ry="86.09"/>
      <g>
        <path class="cls-5" d="m243.56,101.45c-2.55-11.37,5.96-19.88,7.97-30.28,7.09,19.88,8.1,39.14,7.23,59.98-5.35-2.98-12.49-2.24-18.65-.78,10.11-8.06,17.18-17.82,8.33-26.16-1.35-1.27-3.05-2.13-4.89-2.76Z"/>
        <path class="cls-5" d="m259.78,131.77c4.45-19.73,1-41.63-6.13-60.36,15.68,15.44,31.02,30.75,27.2,55.02-.04.32.04.59.18.8-6.27,2.47-11.85,6.04-16.08,11.18-.19-.55-.44-1.12-.76-1.71-1.17-2.18-2.68-3.77-4.41-4.93Z"/>
        <path class="cls-5" d="m265.46,140.75c.22-.02.43-.11.63-.34,14.25-16.75,41.81-15.14,62.4-16.31-22.08,9.86-45.06,20.73-64.5,35.09-.27-2.95-.71-5.92-.16-8.98.65-3.56,1.9-6.36,1.63-9.45Zm28.47-10.83c-.62.26-.35,1.25.3,1.02,2.39-.86,4.6-1.2,7.12-1.07.44.02.52-.69.08-.77-2.46-.46-5.2-.18-7.5.83Zm4.13-2.5c-.64.17-.33,1.08.29.95,1.69-.36,3.37-.49,5.09-.31.53.06.76-.74.2-.83-1.86-.32-3.73-.29-5.57.19Z"/>
        <path class="cls-5" d="m264.1,160.71c-.01-.16-.03-.32-.04-.49,21.6-11.44,42.21-23.99,64.5-34.14-14.48,14.74-28.95,35.63-50.52,38.35-.05,0-.08.03-.13.04-.35-.24-.7-.48-1.04-.74-4.04-2.91-8.13-5.71-12.76-3.03Z"/>
        <path class="cls-5" d="m283.77,165.18c7.05-1.97,13.61-5.82,19.72-10.6.02.3.16.58.54.76,12.26,5.65,20.67,13.97,28.76,24.31-14.84-8.8-31.81-13.6-49.03-14.48Z"/>
        <path class="cls-5" d="m288.05,168.9c-2.3-.23-4.11-.85-5.79-1.71,17.9,1.18,34.26,5.82,50.48,13.54-.24.07-.48.15-.69.24-10.31-1.51-20.42,3.23-30.82.77-.35-.08-.62.03-.81.23-1.59-.27-3.19-.12-4.63.66,1.55-3.36,2.42-7.26.72-10.18-1.11-1.92-2.97-2.69-5-3.19-1.17-.28-2.29-.23-3.47-.37Z"/>
        <path class="cls-7" d="m200.04,145.6c.63-3.16,3.71-5.26,6.83-5,3.79.34,7.42,3.89,5.44,7.84-1.59,3.2-5,4.76-8.34,3.99-2.54-1.38-4.58-3.69-3.94-6.83Z"/>
        <path class="cls-7" d="m260.15,208.53c.16-2.6,2.69-4.52,5.23-4.46,2.19.04,4.43,1.49,5.07,3.61.99,3.23-1.44,5.41-4.16,6.33-.08-.19-.22-.35-.45-.42-2.21-.63-4.92-1.27-5.58-3.7.36-.39.25-1-.12-1.36Z"/>
        <path class="cls-8" d="m142.85,161.07c-4.49-9.69,4.03-17.52,12.81-19.72,13.51-3.39,29.42-.19,42.57,3.29-.3,1.13-.32,2.32-.12,3.46-3.11-.53-6.25-1.01-9.38-1.56-.14-.17-.29-.33-.47-.45-1.38-.93-3.59-.83-3.99,1.09-.38,1.76,1.59,3.69,3.36,3.14.82-.25,1.28-.93,1.4-1.67.05-.13.1-.26.12-.38,3.07.64,6.24,1.13,9.38,1.26.21.54.47,1.06.8,1.54-.05-.01-.12-.01-.18.03-2.17.77-4.17,2-5.89,3.53-1.25-.65-3.02-.1-3.74,1.17-.39.67-.18,1.44.31,1.97,1.12,1.23,3.32,1.79,4.3.05.22-.39.3-.81.29-1.23.02-.22,0-.44-.07-.65,1.6-1.47,3.35-2.71,5.3-3.74.16-.1.25-.24.27-.38.6.67,1.32,1.25,2.16,1.66-5.62,10.7-12.25,21.01-21.37,29.11-7.59,6.75-20.09,12.89-28.05,2.6-2.7-3.51-.93-9.37-2.56-13.4-1.64-4.07-5.38-6.78-7.22-10.72Z"/>
        <path class="cls-8" d="m161.12,137.86c-13.06-5.79-16.6-22.52-3.17-30.19,2.48-1.42,5.29-2.34,7.56-4.12,3.44-2.72,3.71-7.46,6.84-10.05,12.54-10.35,23.69,6.74,26.23,17.18,2.26,9.32,2.52,19.04,4.6,28.4.02.07.06.12.11.15-.62.24-1.22.55-1.77.94-.01-.02,0-.05-.02-.07-.74-1.05-1.36-2.15-1.91-3.29.24-.14.46-.3.66-.49.62-.66.64-1.82-.05-2.44-.32-.27-.64-.42-.97-.51-.71-.78-2.03-.85-2.88-.16-1.12.93-.93,2.59.14,3.5.56.47,1.24.63,1.91.54.62,1.26,1.41,2.43,2.37,3.43.03.02.05.03.06.03-.32.29-.63.59-.92.91-2.65-2.25-5.91-3.87-9.17-5.1,0-.05,0-.12-.01-.18-.12-.7-.55-1.17-1.11-1.46-.54-.75-1.51-1.27-2.37-1.21-1.61.09-2.55,1.79-2.02,3.25.67,1.87,2.63,1.98,4.32,1.68.43-.09.72-.36.91-.72,3.11,1.3,5.91,2.91,8.83,4.63-.14.21-.29.41-.42.64-.06-.03-.1-.08-.17-.09-10.28-2.9-24.79-6.34-37.3-4.99-.07-.09-.14-.16-.25-.2Z"/>
        <path class="cls-8" d="m198.43,102.47s.05-.06.07-.09c5.97-10.55,17.29-11.67,26.91-5.71,3.13,1.94,5.77,4.25,9.28,5.54,2.25.83,4.71.84,6.95,1.63,17.16,6.13,1.59,21.49-6.15,26.8-6.96,4.77-14.53,8.59-21.24,13.71-.46-1.54-1.49-2.92-2.85-3.93,2.82-2.53,5.84-4.58,9.27-6.06.09.16.16.3.27.43,1.51,1.78,4.11.69,4.69-1.32.15-.56-.07-1.27-.5-1.67-.29-.26-.63-.45-.99-.57-.52-.4-1.19-.63-1.88-.52-1.18.21-1.86,1.23-1.9,2.29-3.63,1.66-7.02,3.91-9.69,6.89-.59-.35-1.2-.64-1.86-.85-.43-.14-.86-.22-1.29-.29,1.17-2.12,1.96-4.55,2.69-6.89.78.26,1.83.14,2.18-.75.21-.5.42-.97.5-1.52.18-1.28-.85-2.12-1.86-2.01-.8-.12-1.72.19-2.33.77-.58.53-.52,1.37-.21,2.01.09.2.25.36.39.51-.81,2.61-1.84,5.18-2.48,7.81-.88-.01-1.73.12-2.55.36,0-.03.03-.06.04-.1-.23-11.21-.47-25.56-5.45-36.51Zm44.85,8.4c-.33-.38-.96.12-.67.53,1.23,1.73,1.52,3.83.78,5.82-.29.79,1.06,1.15,1.32.31.72-2.36.19-4.81-1.43-6.66Zm1.34-2.6c-.29-.12-.73.18-.47.5.58.81,1.24,1.46,1.53,2.44.31,1.01.26,2.03-.06,3.01-.26.8,1.01,1.1,1.27.3.68-2.06,0-5.38-2.26-6.26Z"/>
        <path class="cls-8" d="m212.9,150.6c-.04-.06-.09-.07-.13-.12.33-.42.63-.85.89-1.3.06-.13.11-.24.17-.36,2.36.21,4.39.69,6.47,1.89,0,.33.07.67.26.99.16.3.38.53.66.7.21.17.45.32.73.4,1.14.32,2.25-.38,2.64-1.4.03-.06.04-.11.06-.18.02-.07.05-.13.05-.22.11-.54-.01-1.13-.37-1.62-.45-.76-1.33-1.21-2.46-.83-.46.17-.85.47-1.13.84-1.9-1.12-4.23-1.85-6.45-1.74.16-.58.23-1.18.21-1.76.04,0,.07,0,.11-.03,4.19-2,15.04-7.48,24.06-14.35,11.19-.74,25.86-.11,23.39,15.4-.48,2.98-1.48,5.37-1.42,8.44.08,3.54,1.37,6.08.55,9.7-6.13,27.12-40.29-4.36-48.29-14.46Z"/>
        <path class="cls-8" d="m201.86,208.03c-14.47,3.73-22.49-11.19-18.76-23.24.12-.34.02-.61-.14-.81,9.11-8.12,16.15-20.24,20.08-30.13.11.04.25.08.38.11.42.1.73-.13.9-.44.53.21,1.07.32,1.62.37.95,5.35-1.34,9.57-4.31,13.65-.5-.1-1.06-.13-1.62,0-.53.1-.9.61-1.05,1.11-.43,1.46.57,2.93,2.05,3.16,1.19.18,2.16-.51,2.59-1.5.07-.07.12-.13.17-.21.21-.28.2-.78.04-1.12-.06-.42-.25-.73-.54-.92,2.96-4.19,5.63-9.1,3.79-14.18.63-.06,1.28-.21,1.89-.47.85,1.98,1.89,3.91,2.97,5.79-1.64,1.12-1.03,3.8.87,4.25,1.04.23,2.03-.38,2.51-1.25.29-.35.46-.81.45-1.28,0-1.3-1.1-2.06-2.24-2.12-1.12-2.01-2.23-4.03-3.42-5.99.45-.28.89-.58,1.31-.94,3.56,4.49,10.95,12.07,19.17,17.94,5.52,7.89,17.69,27,.84,30.5-4.93,1.03-9.95-1.15-15.01.45-5.19,1.64-9.21,5.89-14.53,7.25Zm-14.43-8.33c-.47-.62-1.51-.24-1.28.59.72,2.67,4.48,5.69,7.34,5.12.39-.07.37-.58.09-.75-1.17-.72-2.44-.98-3.55-1.86-1.09-.88-1.76-1.98-2.59-3.1Zm1.56-2.13c-.27-.5-1.13-.13-.9.4.68,1.59,1.85,2.9,3.32,3.8.38.23.84-.36.47-.66-1.2-1.01-2.13-2.16-2.89-3.54Z"/>
        <path class="cls-8" d="m265.85,215.01c.15-.02.26-.06.35-.15.31.02.61,0,.92-.01,0,.02-.01.05,0,.07.71,2.67,1.13,5.25,1.18,7.99-.43.46-.69,1.07-.69,1.72-.01,1.53,1.47,2.65,2.95,2.25,1.39-.37,2.02-1.7,1.64-2.9-.18-.87-.95-1.62-1.86-1.8-.2-.03-.4-.04-.58-.01-.04-2.6-.55-5.18-1.68-7.53.74-.23,1.41-.6,1.97-1.12-.05.15-.05.29.04.43,1.69,2.16,3.77,3.97,6.07,5.49-.53.88-.53,2.07.2,2.88,1.07,1.2,2.96,1.02,3.71-.44.03-.06.05-.13.08-.19.05-.04.09-.07.11-.1.37-.37.58-1.04.36-1.53-.55-1.33-1.93-2.11-3.34-1.58-.27.09-.48.26-.68.42-2.09-1.66-3.93-3.54-5.71-5.6-.16-.16-.36-.17-.54-.09.82-.84,1.4-1.96,1.63-3.17.05.24.19.47.45.62,7.67,4.77,18.32,10.47,28.21,11.21,5.55,5.93,4.55,15.39-5.01,16.97-2.93.48-5.88-1.17-8.9-.37-1.85.48-3.21,1.67-4.65,2.84-6.36,5.16-12.48,6.54-18.76.02-.18-.18-.4-.24-.62-.22,3.61-7.8,3.53-18.87,3.15-26.11Z"/>
        <path class="cls-8" d="m271.59,206.55c-.41-.87-.98-1.66-1.73-2.28,8.03-4.78,17.39-9.29,23.1-16.89.64-.85,1.31-1.89,1.95-3.02,4.51-1.11,8.95.1,11.76,4.07,2.29,3.27,1.71,6.16,1.94,9.77.3,4.52,4.2,8.05,6.28,12.01-.6,4.98-7.21,9.47-11.76,9.46-3.94,0-7.93-1.23-11.62-2.49-6.32-2.13-12.23-5.13-18.11-8.22-.6-.3-1.11,0-1.3.45.03-.33.05-.66.02-.98-.04-.36-.1-.68-.2-1.02,2.96.21,6.38-.7,9.29-1.69.03.02.04.06.06.1,1.03,1.58,3.7,1.69,4.57-.11.42-.87.11-1.95-.63-2.46-.33-.75-1.07-1.35-1.98-1.31-1.43.03-2.38,1.28-2.35,2.57-1.32.39-2.66.74-4,1.04-1.73.38-3.57.51-5.28.98Zm26.23-18.14c-.82-.33-1.53.87-.68,1.23.67.28,1.32.61,1.92,1.02.66.42,1.18.97,1.79,1.44.53.43,1.45-.17,1-.82-.94-1.31-2.55-2.29-4.03-2.88Zm1.83-1.71c-.69-.04-.78,1.05-.12,1.19,1.13.27,2.14.7,2.99,1.48.84.75,1.26,1.67,1.83,2.62.2.33.69.15.7-.22.07-2.75-2.9-4.89-5.4-5.06Z"/>
        <path class="cls-8" d="m251.38,178.08c5.17-.36,9.52-3.48,12.05-11.03.47-1.37.64-2.72.7-4.07.08-.03.15-.05.22-.11,7.03-5.09,11.78,4.19,16.89,6.72,4.64,2.32,13.59.07,13.65,8.94.05,11.87-18.2,18.35-25.8,25.17-.73-.47-1.57-.81-2.44-1,.07-2.9.29-5.76.64-8.63.62.04,1.24-.13,1.75-.54.96-.26,1.68-1.31,1.42-2.43-.37-1.55-2.37-2.6-3.88-2.1-1.7.58-2.39,2.88-1.14,4.22.18.18.38.34.58.45-.43,2.94-.6,5.93-.49,8.89-.85-.04-1.69.07-2.48.35-2.38-8.73-5.32-18.16-11.66-24.83Z"/>
        <path class="cls-8" d="m222.67,202.6c7.25-.06,15.42,1.11,18.67-6.08,3.39-7.48-2.04-17.52-7.3-24.36,4.62,2.93,9.37,5.09,13.75,5.74,7.54,6.96,9.98,16.46,14.51,25.33-.74.35-1.39.83-1.97,1.4-2.33-2.58-4.77-5.05-7.11-7.63.25-.66.07-1.41-.43-1.97-.05-.07-.13-.12-.2-.19-.43-1.14-1.88-1.63-2.99-1.03-1.39.74-1.87,2.64-.73,3.84.9.94,2.31,1.02,3.37.41,2.23,2.68,4.68,5.28,7.42,7.39-.13.2-.29.39-.41.61-1.98-.47-3.97-.99-5.96-1.5-.31-.41-.74-.72-1.23-.84-1.19-.99-3.41-.09-3.52,1.63-.15,2.18,2.99,3.79,4.59,2.16.39-.4.59-.86.62-1.35,1.64.51,3.39.82,5.07.97-.13.41-.23.84-.25,1.28-4.92,1.1-9.84,2.31-14.7,3.73-8.91.63-20.65.72-21.19-9.55Z"/>
        <path class="cls-8" d="m255.57,224.5c.74-.69.81-1.78.34-2.54,2.83-1.86,5.41-4.58,6.64-7.75.72.29,1.48.53,2.25.67-1.1,9.47-.03,26.41-9.38,31.83-6.47,3.76-12.16-.21-16.29-5.15-1.11-1.32-1.97-2.39-3.14-3.14-.03-.02-.04-.05-.09-.06-.01-.02-.05-.03-.08-.04-.65-.38-1.38-.7-2.32-.9-.1-.02-.19-.03-.28-.01-1.27-.51-2.48-1.1-3.6-1.89-3.31-2.35-3.43-3.12-3.21-7.48.24-4.73,1.67-6.82,5.79-9.22,1.94-1.14,4.23-1.87,6.35-2.58,6.66-2.2,13.45-4.04,20.24-5.79.19.61.52,1.16.91,1.66-.91.59-1.89,1.05-2.94,1.33-.27-.26-.61-.46-1.02-.61-.05-.01-.09,0-.14-.01-.89-.39-1.92.07-2.52.92-.35.5-.21,1.18.04,1.68.53,1.04,1.61,1.45,2.72,1.51.95.07,1.72-.95,1.7-1.83-.02-.23-.08-.42-.12-.63,1.04-.39,2.02-.95,2.85-1.72.33.31.7.61,1.12.86-1.78,2.89-3.58,5.29-6.37,7.27-.1-.09-.2-.19-.31-.25-1.12-.71-2.53-.32-3.26.74-.78,1.12-.54,2.64.56,3.44,1.12.83,2.56.63,3.54-.3Zm-9.31,17.24c-.59-.18-.98.79-.41,1.05,1.63.7,3.63,1.04,5.36.76.64-.09.64-.98-.02-1.01-1.74-.1-3.27-.32-4.93-.8Zm.72,2.55c-.63-.29-1.1.55-.52.93,2.23,1.51,5.35,1.13,7.4-.48.45-.35.02-1.12-.48-.78-2.04,1.33-4.23,1.27-6.4.33Z"/>
        <path class="cls-9" d="m158.59,138.44c-8.58-3.88-14.11-13.09-10.82-22.65,1.59-4.62,4.77-7.79,8.93-10.13,4.73-2.66,8.34-4.39,11.2-9.38,1.32-2.29,1.94-4.17,4.22-5.79,7.68-5.5,17.67-.81,22.74,5.87.87,1.16,1.65,2.4,2.36,3.69,4.24-6.74,11.73-10.89,19.93-9.7,5.6.8,9.22,4.46,13.96,7.18,2.94,1.7,6.79,2.3,10.38,3.27-2.2-10.59,5.06-22.14,9.47-31.19.11-.22.31-.26.5-.18.13-.11.29-.18.47-.22.12-.15.34-.24.56-.11,19.77,11.02,34.07,34.58,30.5,57.41,15.27-5.33,34.22-4.66,48.49-4.09.56.03.8.49.72.91.18.45.08,1.06-.49,1.31-.02,0-.02.01-.04,0-7.44,9.18-16.4,20.31-26.77,28.79.05.01.1,0,.15.04,12.38,5.37,24.32,14.78,30.09,27.25.14.3.06.58-.12.74-.06.32-.3.61-.78.68-1.04.16-2.14.25-3.13-.09-.08-.02-.14-.09-.18-.15-8.3.65-16.94,3.32-25.24,2.53,1.09.84,2.03,1.84,2.75,2.89,2.32,3.35,1.98,6.19,2.28,9.99.4,5.13,5.02,8.58,5.98,13.74.03.17,0,.3-.07.42.88,5.33-4.75,9.36-10.13,10.22-1.24.2-2.53.26-3.81.26,6.66,5.22,4.25,16.9-4.9,18.9-1.69.37-2.7.19-4.41.1-5.02-.28-6.56-.17-11.29,3.16-2.11,1.49-3.9,3.1-6.54,3.68-5.27,1.16-10.61-.95-13.47-5.45-1.25,2.29-2.82,4.24-4.89,5.62-3.31,2.22-7.61,2.77-11.43,1.6-5.85-1.81-7.24-8.86-12.61-10.7-.39-.13-.54-.46-.52-.77-7.23-2.1-12.4-8.27-7.27-16.08,2.65-4.05,7.12-6.07,11.54-7.64.23-.07.47-.13.7-.22-8.75.46-17.65-1.55-17.11-11.47-1.98.11-3.84.37-5.44,1.05-9.58,4.03-17.08,10.79-27.4,3.69-7.12-4.91-9.11-13.6-6.95-21.52-3.44,2.69-7.12,4.8-11.03,6.01-5.18,1.6-11.11,1.41-15.61-1.93-6.87-5.08-3.51-12.2-6.94-18.88-2.88-5.65-8.52-8.96-7.99-16.03.38-5.1,4.03-9.85,8.2-12.52,3.3-2.1,7.14-3.39,11.25-4.11Zm-2.93,2.91c-8.77,2.2-17.3,10.03-12.81,19.72,1.85,3.94,5.58,6.66,7.22,10.72,1.63,4.03-.15,9.89,2.56,13.4,7.96,10.28,20.47,4.15,28.05-2.6,9.12-8.1,15.75-18.4,21.37-29.11-.84-.41-1.56-.99-2.16-1.66-.01.14-.1.28-.27.38-1.95,1.03-3.71,2.27-5.3,3.74.07.21.09.43.07.65,0,.42-.08.84-.29,1.23-.98,1.74-3.18,1.18-4.3-.05-.49-.54-.69-1.31-.31-1.97.72-1.27,2.49-1.82,3.74-1.17,1.72-1.53,3.72-2.76,5.89-3.53.06-.04.13-.04.18-.03-.33-.48-.59-1-.8-1.54-3.14-.13-6.31-.62-9.38-1.26-.03.12-.08.25-.12.38-.12.74-.58,1.43-1.4,1.67-1.77.55-3.74-1.38-3.36-3.14.4-1.93,2.61-2.02,3.99-1.09.18.11.34.27.47.45,3.13.55,6.27,1.03,9.38,1.56-.2-1.14-.19-2.33.12-3.46-13.15-3.47-29.05-6.68-42.57-3.29Zm2.29-33.69c-13.43,7.67-9.89,24.4,3.17,30.19.11.04.18.11.25.2,12.51-1.34,27.03,2.1,37.3,4.99.07.02.11.06.17.09.13-.23.28-.43.42-.64-2.92-1.71-5.72-3.33-8.83-4.63-.19.36-.48.62-.91.72-1.69.3-3.65.19-4.32-1.68-.53-1.46.41-3.16,2.02-3.25.86-.06,1.82.47,2.37,1.21.56.29,1,.76,1.11,1.46,0,.05,0,.12.01.18,3.26,1.23,6.52,2.85,9.17,5.1.29-.32.6-.61.92-.91-.02,0-.03,0-.06-.03-.96-1-1.75-2.18-2.37-3.43-.67.09-1.35-.07-1.91-.54-1.07-.9-1.26-2.57-.14-3.5.85-.7,2.17-.63,2.88.16.33.1.65.24.97.51.7.62.67,1.78.05,2.44-.21.2-.42.36-.66.49.56,1.14,1.18,2.23,1.91,3.29.01.02,0,.05.02.07.55-.38,1.15-.7,1.77-.94-.05-.03-.09-.07-.11-.15-2.07-9.36-2.34-19.09-4.6-28.4-2.54-10.44-13.69-27.53-26.23-17.18-3.13,2.58-3.39,7.33-6.84,10.05-2.27,1.78-5.08,2.7-7.56,4.12Zm40.55-5.29s-.05.04-.07.09c4.99,10.95,5.23,25.3,5.45,36.51,0,.03-.03.06-.04.1.82-.25,1.67-.38,2.55-.36.64-2.63,1.67-5.2,2.48-7.81-.14-.16-.29-.32-.39-.51-.31-.64-.37-1.48.21-2.01.61-.58,1.53-.89,2.33-.77,1.01-.11,2.04.73,1.86,2.01-.08.54-.29,1.02-.5,1.52-.35.88-1.4,1.01-2.18.75-.73,2.34-1.52,4.78-2.69,6.89.42.07.86.15,1.29.29.65.21,1.27.5,1.86.85,2.68-2.97,6.06-5.23,9.69-6.89.04-1.06.72-2.08,1.9-2.29.7-.12,1.36.11,1.88.52.36.12.7.31.99.57.43.4.65,1.11.5,1.67-.58,2.01-3.18,3.1-4.69,1.32-.11-.13-.18-.27-.27-.43-3.43,1.47-6.45,3.52-9.27,6.06,1.36,1.01,2.39,2.4,2.85,3.93,6.7-5.11,14.28-8.93,21.24-13.71,7.74-5.31,23.31-20.67,6.15-26.8-2.24-.8-4.7-.8-6.95-1.63-3.51-1.29-6.15-3.61-9.28-5.54-9.62-5.96-20.94-4.84-26.91,5.71Zm-15.39,82.4c-3.74,12.05,4.28,26.97,18.76,23.24,5.32-1.36,9.34-5.62,14.53-7.25,5.06-1.6,10.09.58,15.01-.45,16.84-3.5,4.68-22.61-.84-30.5-8.22-5.87-15.6-13.45-19.17-17.94-.42.36-.86.66-1.31.94,1.19,1.95,2.3,3.98,3.42,5.99,1.15.06,2.25.82,2.24,2.12,0,.48-.15.93-.45,1.28-.49.87-1.48,1.48-2.51,1.25-1.9-.45-2.51-3.13-.87-4.25-1.09-1.88-2.12-3.81-2.97-5.79-.61.26-1.26.41-1.89.47,1.84,5.08-.82,9.99-3.79,14.18.29.19.48.5.54.92.17.34.17.83-.04,1.12-.05.08-.1.13-.17.21-.43.99-1.4,1.67-2.59,1.5-1.48-.23-2.48-1.7-2.05-3.16.15-.49.52-1,1.05-1.11.56-.13,1.12-.1,1.62,0,2.97-4.08,5.26-8.31,4.31-13.65-.55-.04-1.09-.15-1.62-.37-.16.31-.48.54-.9.44-.13-.03-.27-.06-.38-.11-3.93,9.89-10.98,22.02-20.08,30.13.16.2.26.47.14.81Zm23.77-44.18c-3.12-.27-6.21,1.84-6.83,5-.64,3.14,1.4,5.45,3.94,6.83,3.34.77,6.75-.79,8.34-3.99,1.97-3.95-1.65-7.5-5.44-7.84Zm5.89,9.88s.09.06.13.12c8.01,10.1,42.16,41.59,48.29,14.46.82-3.62-.47-6.17-.55-9.7-.06-3.08.94-5.46,1.42-8.44,2.47-15.52-12.2-16.15-23.39-15.4-9.02,6.87-19.88,12.36-24.06,14.35-.04.03-.07.02-.11.03.02.59-.05,1.18-.21,1.76,2.22-.11,4.55.62,6.45,1.74.28-.37.67-.67,1.13-.84,1.13-.38,2.01.07,2.46.83.36.49.48,1.08.37,1.62,0,.09-.04.15-.05.22-.02.07-.03.12-.06.18-.38,1.02-1.5,1.72-2.64,1.4-.28-.08-.53-.23-.73-.4-.28-.17-.5-.4-.66-.7-.19-.33-.27-.66-.26-.99-2.07-1.2-4.11-1.68-6.47-1.89-.06.13-.11.24-.17.36-.26.45-.56.89-.89,1.3Zm38.77-79.31c-2.01,10.4-10.52,18.9-7.97,30.28,1.84.63,3.54,1.49,4.89,2.76,8.84,8.34,1.78,18.11-8.33,26.16,6.15-1.46,13.3-2.2,18.65.78.88-20.84-.13-40.1-7.23-59.98Zm-10.2,125.34c-3.25,7.18-11.42,6.02-18.67,6.08.54,10.26,12.28,10.18,21.19,9.55,4.86-1.42,9.77-2.63,14.7-3.73.02-.44.12-.87.25-1.28-1.67-.15-3.43-.46-5.07-.97-.03.49-.23.95-.62,1.35-1.6,1.63-4.74.02-4.59-2.16.11-1.72,2.33-2.62,3.52-1.63.48.11.92.43,1.23.84,1.99.51,3.98,1.03,5.96,1.5.12-.22.27-.41.41-.61-2.74-2.11-5.18-4.71-7.42-7.39-1.06.61-2.46.52-3.37-.41-1.14-1.2-.66-3.09.73-3.84,1.11-.6,2.56-.11,2.99,1.03.07.07.15.12.2.19.5.56.68,1.3.43,1.97,2.34,2.58,4.78,5.06,7.11,7.63.57-.57,1.23-1.04,1.97-1.4-4.53-8.87-6.98-18.37-14.51-25.33-4.39-.65-9.13-2.82-13.75-5.74,5.26,6.84,10.69,16.88,7.3,24.36Zm-9.12,22.3c-4.12,2.4-5.55,4.49-5.79,9.22-.23,4.36-.11,5.13,3.21,7.48,1.11.79,2.33,1.38,3.6,1.89.09-.01.18-.01.28.01.94.2,1.67.52,2.32.9.03,0,.07.02.08.04.05.01.06.03.09.06,1.18.75,2.03,1.82,3.14,3.14,4.13,4.94,9.82,8.91,16.29,5.15,9.35-5.42,8.28-22.36,9.38-31.83-.77-.15-1.53-.38-2.25-.67-1.23,3.18-3.81,5.89-6.64,7.75.47.76.4,1.86-.34,2.54-.98.93-2.42,1.13-3.54.3-1.09-.8-1.33-2.32-.56-3.44.73-1.06,2.14-1.45,3.26-.74.11.06.21.16.31.25,2.79-1.98,4.59-4.38,6.37-7.27-.41-.26-.78-.56-1.12-.86-.83.77-1.81,1.33-2.85,1.72.04.2.1.39.12.63.02.88-.75,1.9-1.7,1.83-1.11-.05-2.19-.47-2.72-1.51-.25-.5-.39-1.18-.04-1.68.6-.84,1.63-1.3,2.52-.92.05.01.09,0,.14.01.4.15.74.35,1.02.61,1.05-.28,2.02-.73,2.94-1.33-.39-.5-.72-1.05-.91-1.66-6.79,1.75-13.58,3.59-20.24,5.79-2.12.71-4.41,1.44-6.35,2.58Zm21.43-147.41c7.14,18.73,10.58,40.63,6.13,60.36,1.73,1.17,3.24,2.76,4.41,4.93.32.59.57,1.16.76,1.71,4.23-5.14,9.81-8.71,16.08-11.18-.14-.21-.22-.47-.18-.8,3.82-24.28-11.52-39.58-27.2-55.02Zm12.44,69c-.2.23-.41.32-.63.34.27,3.09-.98,5.89-1.63,9.45-.55,3.06-.11,6.03.16,8.98,19.44-14.36,42.41-25.23,64.5-35.09-20.59,1.17-48.15-.44-62.4,16.31Zm-2.66,26.65c-2.53,7.55-6.88,10.67-12.05,11.03,6.34,6.68,9.27,16.1,11.66,24.83.79-.27,1.62-.39,2.48-.35-.11-2.96.06-5.95.49-8.89-.2-.12-.39-.27-.58-.45-1.25-1.33-.56-3.64,1.14-4.22,1.51-.5,3.51.55,3.88,2.1.26,1.12-.46,2.16-1.42,2.43-.5.41-1.12.58-1.75.54-.35,2.87-.57,5.73-.64,8.63.87.19,1.71.53,2.44,1,7.6-6.82,25.86-13.3,25.8-25.17-.06-8.87-9.01-6.62-13.65-8.94-5.1-2.53-9.85-11.8-16.89-6.72-.07.05-.14.07-.22.11-.06,1.36-.24,2.71-.7,4.07Zm.64-6.84c.01.16.03.32.04.49,4.63-2.69,8.72.11,12.76,3.03.34.26.69.5,1.04.74.05,0,.08-.03.13-.04,21.57-2.72,36.04-23.6,50.52-38.35-22.29,10.15-42.9,22.7-64.5,34.14Zm1.32,43.85c-2.54-.06-5.07,1.86-5.23,4.46.37.37.47.97.12,1.36.66,2.43,3.37,3.07,5.58,3.7.23.07.37.23.45.42,2.72-.92,5.15-3.11,4.16-6.33-.64-2.12-2.88-3.57-5.07-3.61Zm.82,10.79c-.09.08-.21.13-.35.15.38,7.23.46,18.31-3.15,26.11.22-.02.43.03.62.22,6.28,6.52,12.4,5.14,18.76-.02,1.44-1.17,2.8-2.36,4.65-2.84,3.02-.8,5.97.85,8.9.37,9.56-1.59,10.56-11.05,5.01-16.97-9.89-.74-20.54-6.44-28.21-11.21-.26-.15-.4-.38-.45-.62-.23,1.21-.82,2.32-1.63,3.17.18-.08.39-.07.54.09,1.78,2.06,3.62,3.94,5.71,5.6.2-.16.41-.32.68-.42,1.41-.53,2.79.26,3.34,1.58.22.49,0,1.16-.36,1.53-.02.03-.07.05-.11.1-.03.06-.05.13-.08.19-.75,1.46-2.64,1.64-3.71.44-.72-.81-.72-2-.2-2.88-2.3-1.51-4.38-3.33-6.07-5.49-.09-.14-.09-.29-.04-.43-.56.52-1.23.89-1.97,1.12,1.13,2.35,1.65,4.93,1.68,7.53.18-.03.37-.02.58.01.91.18,1.68.93,1.86,1.8.38,1.2-.25,2.53-1.64,2.9-1.49.4-2.96-.72-2.95-2.25,0-.65.26-1.26.69-1.72-.05-2.74-.48-5.32-1.18-7.99-.01-.02,0-.05,0-.07-.3.02-.61.03-.92.01Zm3.66-10.59c.75.62,1.32,1.4,1.73,2.28,1.71-.47,3.56-.6,5.28-.98,1.34-.3,2.67-.65,4-1.04-.03-1.29.92-2.54,2.35-2.57.91-.03,1.64.57,1.98,1.31.74.51,1.05,1.59.63,2.46-.87,1.8-3.53,1.7-4.57.11-.03-.04-.03-.08-.06-.1-2.91.98-6.33,1.9-9.29,1.69.1.34.16.65.2,1.02.03.32,0,.65-.02.98.19-.45.71-.75,1.3-.45,5.89,3.09,11.79,6.09,18.11,8.22,3.7,1.26,7.68,2.49,11.62,2.49,4.56,0,11.16-4.48,11.76-9.46-2.09-3.96-5.98-7.49-6.28-12.01-.23-3.61.34-6.5-1.94-9.77-2.81-3.97-7.25-5.19-11.76-4.07-.64,1.13-1.31,2.17-1.95,3.02-5.71,7.6-15.07,12.11-23.1,16.89Zm12.4-37.08c1.68.86,3.49,1.48,5.79,1.71,1.18.14,2.3.09,3.47.37,2.03.5,3.89,1.27,5,3.19,1.7,2.92.83,6.81-.72,10.18,1.44-.79,3.04-.93,4.63-.66.19-.2.46-.31.81-.23,10.4,2.47,20.51-2.28,30.82-.77.21-.09.45-.18.69-.24-16.22-7.72-32.58-12.36-50.48-13.54Zm21.24-12.61c-6.11,4.78-12.68,8.63-19.72,10.6,17.21.88,34.18,5.68,49.03,14.48-8.09-10.35-16.5-18.66-28.76-24.31-.38-.18-.52-.46-.54-.76Z"/>
        <path class="cls-9" d="m186.15,200.29c-.23-.83.82-1.21,1.28-.59.83,1.11,1.5,2.22,2.59,3.1,1.11.88,2.39,1.15,3.55,1.86.28.17.29.69-.09.75-2.86.57-6.62-2.45-7.34-5.12Z"/>
        <path class="cls-9" d="m188.09,197.97c-.23-.53.64-.9.9-.4.76,1.38,1.69,2.53,2.89,3.54.37.3-.09.89-.47.66-1.48-.9-2.64-2.21-3.32-3.8Z"/>
        <path class="cls-9" d="m242.61,111.4c-.29-.4.34-.91.67-.53,1.62,1.85,2.15,4.29,1.43,6.66-.25.84-1.61.48-1.32-.31.74-1.99.44-4.08-.78-5.82Z"/>
        <path class="cls-9" d="m244.15,108.77c-.26-.32.18-.63.47-.5,2.27.87,2.95,4.2,2.26,6.26-.26.8-1.53.5-1.27-.3.32-.98.37-2.01.06-3.01-.29-.98-.95-1.63-1.53-2.44Z"/>
        <path class="cls-9" d="m245.85,242.78c-.57-.26-.19-1.22.41-1.05,1.66.48,3.19.7,4.93.8.66.03.66.91.02,1.01-1.74.27-3.73-.06-5.36-.76Z"/>
        <path class="cls-9" d="m246.45,245.21c-.58-.38-.11-1.22.52-.93,2.17.94,4.36,1,6.4-.33.5-.34.94.43.48.78-2.05,1.61-5.17,1.99-7.4.48Z"/>
        <path class="cls-9" d="m294.23,130.95c-.65.23-.93-.77-.3-1.02,2.3-1,5.04-1.29,7.5-.83.44.09.36.79-.08.77-2.52-.12-4.73.22-7.12,1.07Z"/>
        <path class="cls-9" d="m298.35,128.37c-.61.14-.92-.78-.29-.95,1.84-.48,3.71-.51,5.57-.19.56.1.33.89-.2.83-1.72-.18-3.4-.05-5.09.31Z"/>
        <path class="cls-9" d="m297.14,189.64c-.85-.36-.14-1.56.68-1.23,1.48.58,3.1,1.56,4.03,2.88.44.65-.47,1.24-1,.82-.61-.48-1.13-1.02-1.79-1.44-.61-.41-1.25-.74-1.92-1.02Z"/>
        <path class="cls-9" d="m299.52,187.88c-.65-.14-.57-1.23.12-1.19,2.49.17,5.47,2.32,5.4,5.06-.02.37-.5.55-.7.22-.57-.94-.98-1.87-1.83-2.62-.85-.78-1.86-1.22-2.99-1.48Z"/>
      </g>
      <g>
        <line class="cls-3" x1="116.4" y1="112.44" x2="62.52" y2="198.1"/>
        <line class="cls-3" x1="347.81" y1="112.44" x2="401.7" y2="198.1"/>
      </g>
      <g>
        <path class="cls-8" d="m55.3,295.37c0-.58.01-1.48.04-2.69.02-1.21.05-2.46.07-3.74.02-1.28.05-2.43.07-3.45.02-1.02.04-1.6.04-1.74h32.16c.05,2.03.01,4.06-.11,6.1-.12,2.03-.01,4.04.33,6.03h-2.9c-1.65,0-3.63-.02-5.95-.07-2.32-.05-4.82-.1-7.48-.14-2.66-.05-5.15-.08-7.48-.11-2.32-.02-4.31-.06-5.95-.11-1.65-.05-2.59-.07-2.83-.07Z"/>
        <path class="cls-8" d="m120.48,265.25c1.06,1.65,1.95,3.35,2.65,5.12.7,1.77,1.27,3.62,1.71,5.55.24.78.4,1.54.47,2.29.07.75.13,1.51.18,2.29-.1,2.28-.18,4.56-.25,6.86-.07,2.3-.33,4.56-.76,6.79,0,.05-.01.07-.04.07-.03,0-.04.03-.04.07-.97,2.86-2.29,5.57-3.96,8.13-1.67,2.57-3.42,4.99-5.26,7.26-3.19.1-6.41.16-9.65.18-3.24.03-6.39.04-9.44.04l-.07.07c-.53-3.82-.87-7.78-1.02-11.87-.15-4.09-.22-8.24-.22-12.45s.04-8.46.11-12.74c.07-4.28.06-8.53-.04-12.74.05-.05.08-.1.11-.15.02-.05.06-.1.11-.14,1.35-.34,2.77-.57,4.25-.69,1.48-.12,2.96-.17,4.46-.14,1.5.02,2.99.06,4.46.11,1.48.05,2.92.05,4.32,0,1.55.39,3.04,1.15,4.46,2.29,1.43,1.14,2.58,2.41,3.45,3.81Zm-6.68,26.35c.82-1.26,1.42-2.64,1.78-4.14.36-1.5.35-3.15-.04-4.94-.14-.73-.32-1.49-.51-2.29-.19-.8-.47-1.56-.83-2.29-.36-.73-.81-1.37-1.34-1.92-.53-.56-1.21-.98-2.03-1.27-.82-.1-1.72-.16-2.69-.18-.97-.02-1.89.06-2.76.25h-.22v.29c.1,1.31.15,2.71.15,4.21s-.03,3.06-.07,4.68c-.05,1.62-.07,3.27-.07,4.94s.05,3.33.15,4.97c.53.48,1.27.7,2.21.65.94-.05,1.85-.12,2.72-.22.24.05.46.01.65-.11.19-.12.41-.23.65-.33.48-.29.91-.64,1.27-1.05.36-.41.69-.83.98-1.27Z"/>
        <path class="cls-8" d="m153.58,284.56l5.44,25.41v.07c-1.45.29-3.05.4-4.79.33-1.74-.07-3.39-.28-4.94-.62h-.07c-.29-.77-.57-1.69-.83-2.76-.27-1.06-.53-2.15-.8-3.27-.27-1.11-.54-2.18-.83-3.19-.29-1.02-.61-1.89-.94-2.61-.63-.1-1.11-.15-1.45-.15h-.91c-.27,0-.56.01-.87.04-.32.02-.74.04-1.27.04-.34.77-.62,1.68-.83,2.72-.22,1.04-.43,2.13-.65,3.27-.22,1.14-.45,2.24-.69,3.3s-.58,2.01-1.02,2.83c-.05,0-.08.01-.11.04s-.06.04-.11.04c-.39.1-1.36.1-2.9,0-1.55-.1-3.97-.12-7.26-.07-.05,0-.1-.02-.15-.07.1-.34.27-1.28.51-2.83s.58-3.56,1.02-6.03.96-5.31,1.56-8.53c.6-3.22,1.32-6.64,2.14-10.27.82-3.63,1.72-7.4,2.69-11.32.97-3.92,2.03-7.81,3.19-11.69.34-.05.7-.07,1.09-.07h1.52c.63,0,1.44-.01,2.43-.04.99-.02,2.29-.11,3.88-.25.15.63.37,1.59.69,2.87.31,1.28.65,2.73,1.02,4.36.36,1.62.75,3.35,1.16,5.19.41,1.84.81,3.61,1.2,5.3.39,1.69.75,3.24,1.09,4.65.34,1.4.6,2.52.8,3.34Zm-7.4,4.72c-.48-4.16-.91-7.4-1.27-9.73-.36-2.32-.68-3.89-.94-4.72-.27-.82-.53-1-.8-.54-.27.46-.51,1.39-.73,2.79s-.46,3.17-.73,5.3c-.27,2.13-.57,4.43-.91,6.9.82.05,1.69.06,2.61.04.92-.02,1.84-.04,2.76-.04Z"/>
        <path class="cls-8" d="m190.74,260.38c-.82,4.31-1.71,8.52-2.65,12.63-.94,4.11-1.92,8.2-2.94,12.27-1.02,4.06-2.06,8.14-3.12,12.23-1.07,4.09-2.18,8.24-3.34,12.45-.39,0-.99.05-1.82.14-.82.1-1.74.15-2.76.15-1.07,0-2.14-.04-3.23-.11-1.09-.07-2.02-.23-2.79-.47-2.18-7.84-3.97-15.88-5.37-24.13-1.4-8.25-2.44-16.56-3.12-24.93v-.07c.29-.34.92-.58,1.89-.73.97-.14,2.01-.23,3.12-.25,1.11-.02,2.18-.01,3.19.04,1.02.05,1.72.12,2.11.22.19.97.31,2.54.36,4.72.05,2.18.17,4.79.36,7.84.19,3.05.52,6.41.98,10.09.46,3.68,1.17,7.48,2.14,11.4.92-3.92,1.67-7.51,2.25-10.78.58-3.27,1.09-6.28,1.52-9.04.44-2.76.85-5.3,1.23-7.62.39-2.32.85-4.5,1.38-6.53,0-.1.05-.15.15-.15.82.19,1.67.3,2.54.33.87.03,1.75.04,2.65.04s1.79.01,2.69.04c.89.02,1.75.11,2.58.25Z"/>
        <path class="cls-8" d="m206.2,259.01h1.74v.29c0,4.16-.06,8.35-.18,12.56s-.22,8.43-.29,12.67c-.07,4.24-.08,8.46-.04,12.67.05,4.21.19,8.37.44,12.48-.39.39-1.2.62-2.43.69-1.23.07-2.57.08-3.99.04-1.43-.05-2.79-.11-4.1-.18-1.31-.07-2.2-.04-2.69.11.34-4.35.48-8.73.44-13.14-.05-4.4-.13-8.77-.25-13.1-.12-4.33-.19-8.61-.22-12.85-.03-4.23.18-8.38.62-12.45v-.15c.24-.05.71-.04,1.42.04.7.07,1.22.11,1.56.11.87.05,1.88.11,3.01.18,1.14.07,2.79.09,4.97.04Z"/>
        <path class="cls-8" d="m240.68,265.25c1.06,1.65,1.95,3.35,2.65,5.12.7,1.77,1.27,3.62,1.71,5.55.24.78.4,1.54.47,2.29.07.75.13,1.51.18,2.29-.1,2.28-.18,4.56-.25,6.86-.07,2.3-.33,4.56-.76,6.79,0,.05-.01.07-.04.07-.03,0-.04.03-.04.07-.97,2.86-2.29,5.57-3.96,8.13-1.67,2.57-3.42,4.99-5.26,7.26-3.19.1-6.41.16-9.65.18-3.24.03-6.39.04-9.44.04l-.07.07c-.53-3.82-.87-7.78-1.02-11.87-.15-4.09-.22-8.24-.22-12.45s.04-8.46.11-12.74c.07-4.28.06-8.53-.04-12.74.05-.05.08-.1.11-.15.02-.05.06-.1.11-.14,1.35-.34,2.77-.57,4.25-.69,1.48-.12,2.96-.17,4.46-.14,1.5.02,2.99.06,4.46.11,1.48.05,2.92.05,4.32,0,1.55.39,3.04,1.15,4.46,2.29,1.43,1.14,2.58,2.41,3.45,3.81Zm-6.68,26.35c.82-1.26,1.42-2.64,1.78-4.14s.35-3.15-.04-4.94c-.14-.73-.31-1.49-.51-2.29s-.47-1.56-.83-2.29c-.36-.73-.81-1.37-1.34-1.92-.53-.56-1.21-.98-2.03-1.27-.82-.1-1.72-.16-2.69-.18-.97-.02-1.89.06-2.76.25h-.22v.29c.1,1.31.15,2.71.15,4.21s-.03,3.06-.07,4.68c-.05,1.62-.07,3.27-.07,4.94s.05,3.33.15,4.97c.53.48,1.27.7,2.21.65.94-.05,1.85-.12,2.72-.22.24.05.46.01.65-.11.19-.12.41-.23.65-.33.48-.29.91-.64,1.27-1.05.36-.41.69-.83.98-1.27Z"/>
        <path class="cls-8" d="m297.73,303.43c.1,1.74.15,3.06.15,3.96s-.06,1.55-.18,1.96c-.12.41-.33.63-.62.65-.29.02-.7.04-1.23.04-.53-.05-1.22-.05-2.07,0s-2.27.1-4.28.15c-2.01.05-4.77.07-8.27.07s-8.19-.05-14.05-.15v-1.31c.15-3.63.27-6.91.36-9.83.1-2.93.16-5.66.18-8.2.02-2.54.04-5,.04-7.37s-.02-4.79-.07-7.26c-.05-2.47-.1-5.09-.15-7.88-.05-2.78-.1-5.87-.14-9.25.48-.19,1.23-.35,2.25-.47,1.02-.12,2.11-.18,3.27-.18s2.3.07,3.41.22c1.11.14,2.01.36,2.69.65-.1,3.15-.13,6.38-.11,9.69.02,3.31.06,6.64.11,9.98.05,3.34.08,6.67.11,9.98.02,3.32.01,6.52-.04,9.62v.07c.34-.1.98-.13,1.92-.11.94.02,2.04.06,3.3.11,1.26.05,2.6.11,4.03.18,1.43.07,2.78.13,4.06.18,1.28.05,2.42.08,3.41.11.99.03,1.68.01,2.07-.04,0,.53-.02,1.07-.07,1.6-.05.48-.08.98-.11,1.49s-.01.96.04,1.34Z"/>
        <path class="cls-8" d="m325.75,284.56l5.44,25.41v.07c-1.45.29-3.05.4-4.79.33-1.74-.07-3.39-.28-4.94-.62h-.07c-.29-.77-.57-1.69-.83-2.76-.27-1.06-.53-2.15-.8-3.27-.27-1.11-.54-2.18-.83-3.19-.29-1.02-.61-1.89-.94-2.61-.63-.1-1.11-.15-1.45-.15h-.91c-.27,0-.56.01-.87.04-.32.02-.74.04-1.27.04-.34.77-.62,1.68-.83,2.72-.22,1.04-.44,2.13-.65,3.27-.22,1.14-.45,2.24-.69,3.3-.24,1.06-.58,2.01-1.02,2.83-.05,0-.08.01-.11.04-.03.02-.06.04-.11.04-.39.1-1.36.1-2.9,0-1.55-.1-3.97-.12-7.26-.07-.05,0-.1-.02-.15-.07.1-.34.27-1.28.51-2.83.24-1.55.58-3.56,1.02-6.03s.96-5.31,1.56-8.53c.6-3.22,1.32-6.64,2.14-10.27.82-3.63,1.72-7.4,2.69-11.32.97-3.92,2.03-7.81,3.19-11.69.34-.05.7-.07,1.09-.07h1.52c.63,0,1.44-.01,2.43-.04.99-.02,2.29-.11,3.88-.25.15.63.37,1.59.69,2.87.31,1.28.65,2.73,1.02,4.36s.75,3.35,1.16,5.19c.41,1.84.81,3.61,1.2,5.3.39,1.69.75,3.24,1.09,4.65.34,1.4.6,2.52.8,3.34Zm-7.4,4.72c-.48-4.16-.91-7.4-1.27-9.73-.36-2.32-.68-3.89-.94-4.72-.27-.82-.53-1-.8-.54-.27.46-.51,1.39-.73,2.79s-.46,3.17-.73,5.3c-.27,2.13-.57,4.43-.91,6.9.82.05,1.69.06,2.61.04.92-.02,1.84-.04,2.76-.04Z"/>
        <path class="cls-8" d="m365.75,286.95l-.22,23.16c-.73-.1-1.52-.14-2.4-.14h-2.61c-.87,0-1.71.01-2.5.04s-1.49.04-2.07.04c-.1-2.08-.16-4.33-.18-6.75-.03-2.42-.05-4.89-.07-7.4-.02-2.52-.1-4.98-.22-7.4-.12-2.42-.3-4.65-.54-6.68-.34.53-.73,1.37-1.16,2.5-.44,1.14-.87,2.31-1.31,3.52-.44,1.21-.85,2.28-1.23,3.19-.39.92-.68,1.38-.87,1.38-.24,0-.52-.25-.83-.76-.32-.51-.63-1.15-.94-1.92-.32-.77-.64-1.6-.98-2.47-.34-.87-.63-1.67-.87-2.4-.24-.73-.53-1.57-.87-2.54-.39,4.55-.52,9.15-.4,13.79.12,4.65.33,9.22.62,13.72-1.55.24-3.24.34-5.08.29-1.84-.05-3.53-.07-5.08-.07-.1,0-.17-.07-.22-.22-.05-.19-.1-.65-.15-1.38-.05-.73-.08-1.83-.11-3.3-.03-1.48-.04-3.42-.04-5.84s.01-5.42.04-9c.02-3.58.05-7.84.07-12.77.02-4.94.06-10.69.11-17.28.63-.19,1.35-.31,2.18-.36.82-.05,1.67-.06,2.54-.04.87.03,1.74.05,2.61.07s1.72.01,2.54-.04h.07c.44.48.87,1.22,1.31,2.21.43.99.85,2.04,1.23,3.16.39,1.11.76,2.18,1.12,3.19.36,1.02.74,1.82,1.12,2.4.15.15.29.22.44.22.15.05.38-.41.69-1.38.31-.97.65-2.09,1.02-3.38s.77-2.55,1.23-3.81c.46-1.26.91-2.18,1.34-2.76.34.05.96.05,1.85,0,.89-.05,1.86-.1,2.9-.15,1.04-.05,2.11-.08,3.19-.11s2.02-.04,2.79-.04c-.19,4.65-.19,9.23,0,13.75.19,4.53.17,9.11-.07,13.75Z"/>
        <path class="cls-8" d="m372.86,295.37c0-.58.01-1.48.04-2.69.02-1.21.05-2.46.07-3.74.02-1.28.05-2.43.07-3.45.02-1.02.04-1.6.04-1.74h32.16c.05,2.03.01,4.06-.11,6.1-.12,2.03-.01,4.04.33,6.03h-2.9c-1.65,0-3.63-.02-5.95-.07-2.32-.05-4.82-.1-7.48-.14-2.66-.05-5.15-.08-7.48-.11-2.32-.02-4.31-.06-5.95-.11-1.65-.05-2.59-.07-2.83-.07Z"/>
      </g>
      <g>
        <path class="cls-8" d="m195.79,350.99v1.05c0,.32-.03.62-.07.91-.29,2.32-1.05,4.45-2.29,6.39-1.23,1.94-2.77,3.58-4.61,4.94-1.84,1.35-3.87,2.33-6.1,2.94-2.23.61-4.5.71-6.82.33.05.68.07,1.34.07,2v2.83c0,1.23.01,2.89.04,4.97.02,2.08.08,4.89.18,8.42v.07s-.08.01-.11.04-.06.04-.11.04c-.68.19-1.54.33-2.58.4-1.04.07-2.13.12-3.27.14-1.14.03-2.26.01-3.38-.04-1.11-.05-2.08-.12-2.9-.22-.15-3.53-.22-7.37-.22-11.5v-12.74c0-4.36-.01-8.73-.04-13.14-.03-4.4-.11-8.61-.25-12.63,1.98-.53,4.15-.92,6.5-1.16,2.35-.24,4.69-.27,7.04-.07,2.35.19,4.63.62,6.86,1.27,2.23.65,4.2,1.62,5.92,2.9,1.72,1.28,3.13,2.89,4.25,4.83,1.11,1.94,1.74,4.28,1.89,7.04Zm-12.7-3.05c-1.21-.97-2.61-1.58-4.21-1.85-1.6-.27-3.17-.21-4.72.18-.1,0-.17.03-.22.07.05.87.06,1.79.04,2.76-.03.97-.03,1.94,0,2.9.02.97.07,1.9.14,2.79.07.9.23,1.71.47,2.43h.22c.77-.05,1.6-.08,2.47-.11.87-.02,1.73-.08,2.58-.18.85-.1,1.67-.28,2.47-.54.8-.27,1.49-.69,2.07-1.27.39-.53.66-1.14.83-1.81.17-.68.19-1.35.07-2.03-.12-.68-.36-1.31-.73-1.89-.36-.58-.86-1.06-1.49-1.45Z"/>
        <path class="cls-8" d="m221.05,361.16l5.44,25.41v.07c-1.45.29-3.05.4-4.79.33-1.74-.07-3.39-.28-4.94-.62h-.07c-.29-.77-.57-1.69-.83-2.76-.27-1.06-.53-2.15-.8-3.27-.27-1.11-.54-2.18-.83-3.19-.29-1.02-.61-1.89-.94-2.61-.63-.1-1.11-.15-1.45-.15h-.91c-.27,0-.56.01-.87.04-.32.02-.74.04-1.27.04-.34.77-.62,1.68-.83,2.72-.22,1.04-.43,2.13-.65,3.27-.22,1.14-.45,2.24-.69,3.3s-.58,2.01-1.02,2.83c-.05,0-.08.01-.11.04s-.06.04-.11.04c-.39.1-1.36.1-2.9,0-1.55-.1-3.97-.12-7.26-.07-.05,0-.1-.02-.15-.07.1-.34.27-1.28.51-2.83s.58-3.56,1.02-6.03.96-5.31,1.56-8.53c.6-3.22,1.32-6.64,2.14-10.27.82-3.63,1.72-7.4,2.69-11.32.97-3.92,2.03-7.81,3.19-11.69.34-.05.7-.07,1.09-.07h1.52c.63,0,1.44-.01,2.43-.04.99-.02,2.29-.11,3.88-.25.15.63.37,1.59.69,2.87.31,1.28.65,2.73,1.02,4.36.36,1.62.75,3.35,1.16,5.19.41,1.84.81,3.61,1.2,5.3.39,1.69.75,3.24,1.09,4.65.34,1.4.6,2.52.8,3.34Zm-7.4,4.72c-.48-4.16-.91-7.4-1.27-9.73-.36-2.32-.68-3.89-.94-4.72-.27-.82-.53-1-.8-.54-.27.46-.51,1.39-.73,2.79s-.46,3.17-.73,5.3c-.27,2.13-.57,4.43-.91,6.9.82.05,1.69.06,2.61.04.92-.02,1.84-.04,2.76-.04Z"/>
        <path class="cls-8" d="m265.18,386.42h.07c-1.69,0-3.58.06-5.66.18s-4.21.11-6.39-.04h-.07c-.48-1.11-1.09-2.44-1.81-3.99-.73-1.55-1.53-3.17-2.4-4.86-.87-1.69-1.81-3.36-2.83-5.01-1.02-1.64-2.03-3.1-3.05-4.36l-.14-.22c-.15,1.11-.22,2.48-.22,4.1s.04,3.29.11,5.01c.07,1.72.16,3.35.25,4.9.1,1.55.17,2.78.22,3.7-.82.34-1.9.56-3.23.65-1.33.1-2.65.16-3.96.18s-2.48.01-3.52-.04c-1.04-.05-1.68-.05-1.92,0,.1,0,.17-.67.22-2,.05-1.33.07-3.08.07-5.26v-7.51c0-2.83-.01-5.76-.04-8.78-.03-3.02-.07-6.02-.15-9-.07-2.98-.13-5.71-.18-8.2-.05-2.49-.11-4.62-.18-6.39-.07-1.77-.16-2.96-.25-3.59,2.71-.39,5.69-.75,8.93-1.09,3.24-.34,6.63-.31,10.16.07,2.86.15,5.42.97,7.69,2.47,2.28,1.5,4.04,3.36,5.3,5.59,1.26,2.23,1.92,4.68,2,7.37.07,2.69-.64,5.29-2.14,7.8-.92,1.74-2.14,3.19-3.67,4.35-1.52,1.16-3.45,1.82-5.77,1.96h-.36v.07c1.02,1.79,2.13,3.57,3.34,5.33,1.21,1.77,2.4,3.54,3.56,5.33,1.16,1.79,2.27,3.62,3.34,5.48,1.06,1.86,1.96,3.79,2.69,5.77Zm-24.46-40.36c.05.63.08,1.34.11,2.14.03.8.04,1.61.04,2.43s.01,1.62.04,2.4c.02.77.08,1.43.18,1.96h.07c1.11.1,2.32.17,3.63.22,1.31.05,2.54-.02,3.7-.22.92-.19,1.63-.66,2.14-1.42.51-.75.81-1.57.91-2.47.1-.89,0-1.79-.29-2.69-.29-.9-.78-1.61-1.45-2.14-1.06-.97-2.42-1.42-4.06-1.34-1.65.07-3.31.45-5.01,1.12Z"/>
        <path class="cls-8" d="m287.97,360.58l12.41,25.77c-1.55.34-3.23.46-5.04.36-1.82-.1-3.5-.17-5.04-.22-1.02-1.16-1.96-2.55-2.83-4.17-.87-1.62-1.71-3.3-2.5-5.04-.8-1.74-1.58-3.46-2.36-5.15-.77-1.69-1.55-3.22-2.32-4.57-.05,1.4-.06,2.92-.04,4.54.02,1.62.06,3.25.11,4.9.05,1.65.08,3.27.11,4.86.02,1.6.04,3.07.04,4.43-.68.19-1.48.33-2.4.4-.92.07-1.89.11-2.9.11s-2-.05-2.94-.15-1.73-.22-2.36-.36c-.39-8.32-.45-16.68-.18-25.08.27-8.4.38-16.83.33-25.3,1.6-.05,3.23-.04,4.9.04s3.28.11,4.83.11c.1,2.76.12,5.66.07,8.71-.05,3.05-.02,5.95.07,8.71,0,.05.04.01.11-.11.07-.12.16-.23.25-.33,1.02-1.31,1.94-2.66,2.76-4.07.82-1.4,1.61-2.83,2.36-4.28.75-1.45,1.52-2.9,2.32-4.36s1.71-2.9,2.72-4.36c1.55.1,3.19.1,4.94,0,1.74-.1,3.39-.02,4.94.22-.58,2.03-1.39,4.07-2.43,6.1-1.04,2.03-2.15,4.06-3.34,6.1-1.19,2.03-2.36,4.06-3.52,6.1s-2.18,4.07-3.05,6.1Z"/>
      </g>
    </g>
  </g>
</svg>