<?xml version="1.0" encoding="UTF-8"?>
<svg id="Layer_2" data-name="Layer 2" xmlns="http://www.w3.org/2000/svg" viewBox="0 0 547.98 416.13">
  <defs>
    <style>
      .cls-1 {
        fill: #baab9e;
      }

      .cls-1, .cls-2, .cls-3, .cls-4, .cls-5, .cls-6, .cls-7, .cls-8 {
        stroke-width: 0px;
      }

      .cls-9 {
        letter-spacing: -.02em;
      }

      .cls-10 {
        fill: none;
        stroke: #663734;
        stroke-miterlimit: 10;
        stroke-width: 10.52px;
      }

      .cls-2 {
        fill: #cd7f32;
      }

      .cls-11 {
        letter-spacing: 0em;
      }

      .cls-12 {
        fill: #663734;
        font-family: LondrinaSolid-Regular, 'Londrina Solid';
        font-size: 62.23px;
      }

      .cls-3 {
        fill: #8e8e8e;
      }

      .cls-4 {
        fill: #3aa;
      }

      .cls-5 {
        fill: #e54b59;
      }

      .cls-6 {
        fill: #a86a33;
      }

      .cls-13 {
        letter-spacing: -.02em;
      }

      .cls-7 {
        fill: #f5ced1;
      }

      .cls-14 {
        letter-spacing: -.05em;
      }

      .cls-8 {
        fill: #1d1d1b;
      }
    </style>
  </defs>
  <g id="Layer_1-2" data-name="Layer 1">
    <g id="DavidLam_Badge_-_Bronze" data-name="DavidLam Badge - Bronze">
      <polygon class="cls-6" points="103.1 386.8 0 386.8 25.44 342.52 0 300.58 103.1 300.58 103.1 386.8"/>
      <polygon class="cls-3" points="103.02 386.92 103.02 367.5 61.07 367.5 103.02 386.92"/>
      <polygon class="cls-6" points="444.88 386.95 547.98 386.95 522.54 342.66 547.98 300.72 444.88 300.72 444.88 386.95"/>
      <polygon class="cls-3" points="444.91 386.87 444.91 367.45 486.87 367.45 444.91 386.87"/>
      <path class="cls-1" d="m169.78.59h209.42c57.79,0,104.71,46.92,104.71,104.71v204.91c0,57.79-46.92,104.71-104.71,104.71h-209.42c-57.79,0-104.71-46.92-104.71-104.71V105.3C65.07,47.51,111.99.59,169.78.59Z"/>
      <rect class="cls-10" x="68.83" y="5.26" width="410.03" height="405.61" rx="96.11" ry="96.11"/>
      <g>
        <path class="cls-4" d="m279.51,92.06c-3.4-15.19,7.97-26.55,10.65-40.44,9.48,26.55,10.82,52.28,9.65,80.12-7.14-3.97-16.69-2.99-24.91-1.04,13.51-10.76,22.95-23.8,11.13-34.95-1.81-1.7-4.07-2.85-6.53-3.69Z"/>
        <path class="cls-4" d="m301.17,132.55c5.94-26.35,1.34-55.6-8.19-80.62,20.94,20.62,41.43,41.07,36.33,73.5-.06.43.05.79.24,1.07-8.38,3.3-15.83,8.07-21.48,14.93-.25-.74-.58-1.5-1.01-2.28-1.57-2.91-3.58-5.03-5.89-6.59Z"/>
        <path class="cls-4" d="m308.76,144.55c.29-.03.58-.15.84-.46,19.04-22.38,55.85-20.23,83.35-21.79-29.5,13.17-60.19,27.69-86.15,46.87-.36-3.94-.94-7.91-.21-11.99.87-4.75,2.53-8.5,2.17-12.63Zm38.03-14.46c-.83.34-.47,1.68.4,1.37,3.19-1.15,6.14-1.6,9.51-1.44.58.02.69-.92.1-1.03-3.29-.61-6.95-.24-10.02,1.1Zm5.52-3.35c-.85.22-.44,1.45.38,1.27,2.25-.48,4.5-.65,6.8-.41.71.07,1.01-.98.26-1.11-2.49-.42-4.99-.38-7.44.26Z"/>
        <path class="cls-4" d="m306.96,171.2c-.02-.22-.04-.43-.06-.65,28.85-15.28,56.38-32.04,86.15-45.6-19.34,19.7-38.67,47.6-67.48,51.22-.07,0-.1.05-.18.05-.46-.32-.93-.64-1.39-.99-5.4-3.89-10.86-7.63-17.05-4.04Z"/>
        <path class="cls-4" d="m333.23,177.17c9.42-2.63,18.18-7.77,26.35-14.15.02.4.21.78.72,1.02,16.38,7.55,27.62,18.66,38.42,32.48-19.83-11.75-42.49-18.17-65.49-19.34Z"/>
        <path class="cls-4" d="m338.94,182.15c-3.08-.31-5.49-1.14-7.73-2.28,23.91,1.58,45.76,7.77,67.43,18.09-.33.09-.64.2-.92.32-13.77-2.02-27.28,4.32-41.17,1.03-.47-.11-.83.04-1.08.31-2.12-.36-4.26-.16-6.18.88,2.08-4.49,3.24-9.69.97-13.59-1.48-2.56-3.97-3.6-6.68-4.26-1.56-.37-3.05-.3-4.63-.49Z"/>
        <path class="cls-5" d="m221.38,151.02c.84-4.22,4.96-7.03,9.13-6.67,5.06.45,9.91,5.19,7.27,10.47-2.12,4.27-6.68,6.36-11.14,5.33-3.4-1.84-6.12-4.93-5.26-9.12Z"/>
        <path class="cls-5" d="m301.68,235.09c.21-3.48,3.59-6.04,6.98-5.96,2.92.06,5.92,1.99,6.78,4.83,1.33,4.31-1.93,7.23-5.56,8.46-.1-.26-.29-.47-.59-.56-2.95-.84-6.58-1.7-7.46-4.94.48-.52.34-1.33-.16-1.82Z"/>
        <path class="cls-7" d="m145,171.69c-6-12.94,5.39-23.4,17.11-26.34,18.05-4.53,39.29-.25,56.86,4.39-.4,1.5-.43,3.1-.15,4.62-4.16-.7-8.35-1.35-12.53-2.08-.18-.23-.39-.44-.63-.6-1.85-1.24-4.79-1.11-5.33,1.46-.51,2.35,2.12,4.92,4.48,4.19,1.09-.33,1.7-1.24,1.87-2.24.06-.17.13-.35.17-.5,4.1.85,8.34,1.51,12.53,1.68.28.72.63,1.42,1.06,2.06-.07-.02-.16-.01-.24.04-2.9,1.03-5.57,2.67-7.87,4.72-1.67-.87-4.03-.13-5,1.56-.52.89-.24,1.92.41,2.64,1.49,1.65,4.44,2.39,5.74.07.29-.52.4-1.08.39-1.65.02-.3,0-.59-.1-.87,2.13-1.96,4.48-3.62,7.09-5,.22-.14.33-.32.35-.5.8.89,1.77,1.67,2.88,2.21-7.51,14.3-16.36,28.06-28.54,38.88-10.13,9.02-26.84,17.21-37.47,3.48-3.61-4.69-1.24-12.52-3.42-17.9-2.19-5.43-7.18-9.06-9.65-14.32Z"/>
        <path class="cls-7" d="m169.39,140.69c-17.44-7.73-22.18-30.08-4.23-40.33,3.32-1.89,7.06-3.12,10.1-5.5,4.6-3.63,4.95-9.97,9.13-13.42,16.75-13.82,31.64,9.01,35.03,22.95,3.02,12.45,3.37,25.43,6.14,37.94.02.1.08.16.14.2-.83.32-1.63.74-2.36,1.25-.02-.03,0-.07-.02-.1-.98-1.41-1.81-2.87-2.56-4.39.33-.18.61-.4.89-.66.82-.89.86-2.43-.07-3.26-.43-.36-.86-.56-1.3-.68-.95-1.05-2.72-1.14-3.85-.21-1.49,1.24-1.25,3.47.18,4.67.75.62,1.66.84,2.56.72.82,1.68,1.89,3.24,3.17,4.58.04.03.06.04.08.04-.42.39-.84.79-1.23,1.21-3.54-3-7.9-5.16-12.25-6.81,0-.07,0-.17-.01-.24-.16-.93-.73-1.56-1.49-1.95-.73-1-2.02-1.7-3.17-1.62-2.15.13-3.41,2.39-2.7,4.34.89,2.49,3.51,2.64,5.77,2.24.57-.12.96-.48,1.21-.96,4.15,1.74,7.89,3.89,11.79,6.18-.19.29-.39.54-.56.86-.08-.04-.14-.1-.23-.12-13.73-3.87-33.11-8.46-49.83-6.67-.09-.12-.19-.21-.34-.27Z"/>
        <path class="cls-7" d="m219.23,93.41c.04-.06.07-.08.1-.12,7.97-14.09,23.09-15.59,35.94-7.62,4.18,2.59,7.7,5.68,12.39,7.41,3,1.11,6.29,1.12,9.29,2.18,22.93,8.19,2.12,28.71-8.21,35.8-9.29,6.38-19.41,11.47-28.37,18.31-.62-2.05-1.99-3.9-3.81-5.25,3.76-3.39,7.8-6.12,12.38-8.09.11.21.21.4.36.58,2.02,2.38,5.49.93,6.27-1.76.2-.75-.09-1.69-.67-2.23-.39-.35-.84-.6-1.32-.76-.69-.54-1.59-.85-2.52-.69-1.57.29-2.48,1.64-2.54,3.07-4.85,2.21-9.37,5.23-12.95,9.2-.78-.47-1.61-.85-2.48-1.13-.57-.18-1.15-.3-1.72-.38,1.56-2.83,2.62-6.08,3.59-9.21,1.05.34,2.45.18,2.92-1,.27-.66.57-1.3.67-2.03.24-1.71-1.14-2.83-2.49-2.68-1.07-.16-2.29.26-3.11,1.03-.78.71-.69,1.83-.28,2.68.13.26.33.48.52.69-1.08,3.48-2.46,6.91-3.32,10.43-1.17-.02-2.32.16-3.41.48.01-.04.04-.08.05-.13-.3-14.98-.62-34.14-7.29-48.77Zm59.91,11.22c-.44-.5-1.29.17-.9.7,1.64,2.32,2.03,5.11,1.05,7.77-.39,1.06,1.42,1.54,1.76.42.96-3.16.25-6.43-1.91-8.89Zm1.79-3.48c-.38-.16-.97.24-.63.67.78,1.08,1.65,1.94,2.05,3.26.41,1.34.34,2.71-.08,4.02-.35,1.07,1.34,1.47,1.69.4.91-2.75.01-7.19-3.02-8.36Z"/>
        <path class="cls-7" d="m238.56,157.7c-.05-.08-.12-.1-.17-.16.44-.55.84-1.14,1.19-1.74.09-.17.15-.32.23-.49,3.15.28,5.87.92,8.64,2.52-.01.44.09.89.34,1.33.21.4.51.71.88.94.27.23.6.43.98.54,1.52.43,3.01-.51,3.52-1.87.04-.08.06-.15.08-.24.02-.09.06-.17.07-.29.15-.72-.02-1.51-.5-2.16-.61-1.01-1.78-1.62-3.29-1.11-.62.23-1.14.62-1.51,1.12-2.54-1.49-5.64-2.47-8.62-2.33.21-.77.3-1.57.28-2.36.05-.01.09,0,.15-.04,5.59-2.67,20.1-10,32.14-19.17,14.95-.99,34.54-.15,31.25,20.58-.64,3.99-1.98,7.17-1.9,11.28.1,4.73,1.83,8.12.73,12.96-8.19,36.23-53.81-5.83-64.5-19.32Z"/>
        <path class="cls-7" d="m223.82,234.41c-19.33,4.98-30.04-14.95-25.05-31.05.16-.46.03-.82-.19-1.08,12.16-10.84,21.58-27.04,26.82-40.25.15.06.33.1.51.14.56.13.98-.17,1.2-.59.71.29,1.43.43,2.16.49,1.27,7.14-1.79,12.79-5.76,18.24-.67-.14-1.42-.17-2.16,0-.71.14-1.21.82-1.41,1.48-.58,1.95.76,3.92,2.74,4.22,1.59.24,2.89-.68,3.46-2,.09-.1.16-.17.23-.27.28-.38.27-1.04.05-1.49-.08-.56-.33-.97-.72-1.23,3.96-5.6,7.51-12.16,5.06-18.95.84-.08,1.71-.28,2.52-.62,1.14,2.64,2.52,5.23,3.97,7.74-2.19,1.5-1.37,5.08,1.17,5.68,1.39.3,2.71-.51,3.36-1.67.39-.47.61-1.08.59-1.72.01-1.74-1.46-2.75-3-2.83-1.5-2.68-2.98-5.38-4.57-7.99.61-.37,1.19-.77,1.75-1.25,4.76,6,14.63,16.12,25.6,23.96,7.37,10.54,23.63,36.07,1.13,40.75-6.58,1.38-13.29-1.53-20.05.6-6.94,2.19-12.3,7.87-19.41,9.69Zm-19.27-11.13c-.63-.83-2.02-.31-1.72.79.96,3.57,5.98,7.6,9.8,6.84.51-.09.49-.78.12-1.01-1.56-.96-3.26-1.31-4.75-2.49-1.46-1.17-2.36-2.65-3.46-4.14Zm2.08-2.84c-.36-.67-1.51-.17-1.21.54.91,2.12,2.47,3.88,4.44,5.07.51.31,1.13-.49.63-.88-1.61-1.35-2.84-2.88-3.86-4.72Z"/>
        <path class="cls-7" d="m309.29,243.73c.19-.02.35-.08.47-.19.42.03.82,0,1.23-.01,0,.02-.02.07,0,.09.94,3.56,1.51,7.01,1.58,10.67-.57.62-.93,1.43-.92,2.3-.01,2.04,1.96,3.54,3.94,3,1.86-.5,2.7-2.27,2.19-3.88-.24-1.16-1.27-2.16-2.49-2.4-.27-.04-.53-.05-.77-.02-.05-3.47-.73-6.92-2.25-10.05.99-.31,1.88-.8,2.63-1.49-.07.19-.07.38.05.58,2.25,2.89,5.04,5.31,8.11,7.33-.7,1.17-.7,2.77.26,3.85,1.43,1.61,3.96,1.36,4.96-.59.04-.08.06-.17.11-.26.06-.06.12-.09.15-.13.49-.49.78-1.39.49-2.05-.73-1.77-2.57-2.82-4.46-2.12-.36.13-.64.34-.91.56-2.79-2.21-5.25-4.72-7.63-7.47-.21-.21-.49-.23-.72-.12,1.09-1.13,1.87-2.61,2.18-4.23.06.32.25.62.6.82,10.24,6.38,24.47,13.98,37.68,14.98,7.41,7.92,6.08,20.55-6.69,22.67-3.91.65-7.86-1.56-11.89-.49-2.48.63-4.29,2.23-6.21,3.79-8.5,6.89-16.67,8.74-25.06.03-.25-.25-.54-.32-.82-.29,4.82-10.42,4.71-25.21,4.2-34.87Z"/>
        <path class="cls-7" d="m316.95,232.43c-.55-1.16-1.31-2.21-2.31-3.04,10.73-6.39,23.23-12.4,30.86-22.56.86-1.14,1.75-2.52,2.6-4.04,6.02-1.49,11.96.13,15.71,5.44,3.05,4.37,2.28,8.23,2.59,13.05.4,6.04,5.61,10.76,8.39,16.05-.8,6.65-9.63,12.64-15.71,12.63-5.26,0-10.59-1.64-15.52-3.33-8.44-2.85-16.33-6.86-24.19-10.98-.8-.4-1.48,0-1.74.6.03-.44.07-.88.03-1.31-.05-.48-.14-.9-.27-1.36,3.95.28,8.52-.94,12.41-2.25.04.03.05.08.08.14,1.38,2.11,4.94,2.25,6.1-.15.56-1.16.15-2.6-.84-3.28-.44-1-1.43-1.8-2.64-1.75-1.91.04-3.18,1.71-3.14,3.44-1.77.52-3.55.99-5.34,1.39-2.31.51-4.77.68-7.06,1.31Zm35.03-24.22c-1.09-.45-2.04,1.16-.91,1.64.9.38,1.76.82,2.57,1.36.88.56,1.57,1.29,2.39,1.93.71.57,1.93-.22,1.34-1.09-1.25-1.75-3.41-3.07-5.39-3.84Zm2.45-2.29c-.93-.06-1.04,1.4-.16,1.58,1.51.36,2.86.94,4,1.98,1.13,1,1.68,2.23,2.44,3.49.27.44.92.19.94-.29.09-3.67-3.88-6.54-7.21-6.76Z"/>
        <path class="cls-7" d="m289.96,194.41c6.91-.48,12.71-4.65,16.09-14.73.62-1.83.86-3.63.94-5.44.1-.05.2-.07.29-.14,9.39-6.8,15.74,5.59,22.55,8.97,6.2,3.09,18.15.1,18.23,11.94.07,15.86-24.31,24.51-34.47,33.62-.98-.63-2.09-1.08-3.26-1.34.1-3.88.39-7.69.85-11.53.83.06,1.66-.17,2.33-.72,1.28-.35,2.25-1.75,1.9-3.24-.5-2.07-3.17-3.48-5.19-2.81-2.28.78-3.19,3.85-1.52,5.63.25.25.5.45.77.61-.58,3.93-.8,7.92-.66,11.88-1.14-.06-2.26.1-3.31.46-3.18-11.66-7.11-24.25-15.57-33.17Z"/>
        <path class="cls-7" d="m251.61,227.16c9.68-.08,20.59,1.48,24.94-8.12,4.53-10-2.72-23.4-9.75-32.54,6.17,3.91,12.51,6.8,18.37,7.67,10.07,9.3,13.33,21.99,19.38,33.84-.98.47-1.86,1.11-2.63,1.87-3.11-3.44-6.37-6.75-9.5-10.2.33-.89.09-1.88-.58-2.63-.07-.09-.17-.16-.27-.25-.58-1.52-2.52-2.17-4-1.37-1.86.99-2.5,3.52-.98,5.13,1.21,1.25,3.08,1.37,4.5.55,2.98,3.58,6.25,7.05,9.91,9.87-.18.26-.38.52-.54.81-2.65-.63-5.3-1.33-7.96-2.01-.41-.54-.99-.96-1.64-1.12-1.59-1.32-4.56-.12-4.7,2.18-.2,2.91,3.99,5.06,6.13,2.89.53-.53.79-1.15.83-1.8,2.19.68,4.53,1.1,6.77,1.3-.18.55-.31,1.12-.33,1.71-6.58,1.47-13.14,3.09-19.63,4.98-11.91.84-27.59.96-28.31-12.76Z"/>
        <path class="cls-7" d="m295.56,256.41c.99-.92,1.08-2.38.45-3.4,3.79-2.49,7.23-6.11,8.87-10.35.96.39,1.97.7,3.01.9-1.47,12.65-.04,35.27-12.53,42.51-8.64,5.03-16.25-.28-21.76-6.88-1.49-1.76-2.63-3.19-4.2-4.19-.04-.03-.06-.06-.12-.08-.02-.03-.06-.04-.11-.05-.87-.51-1.85-.93-3.1-1.21-.13-.03-.25-.04-.37-.02-1.69-.68-3.32-1.47-4.81-2.53-4.43-3.14-4.58-4.17-4.28-10,.32-6.32,2.23-9.11,7.74-12.32,2.59-1.52,5.65-2.49,8.48-3.44,8.9-2.94,17.97-5.4,27.03-7.74.25.81.69,1.55,1.21,2.22-1.22.79-2.52,1.4-3.92,1.77-.36-.35-.82-.62-1.36-.82-.07-.02-.12,0-.18-.02-1.19-.52-2.56.1-3.37,1.22-.46.67-.28,1.58.05,2.25.7,1.39,2.15,1.94,3.64,2.01,1.27.09,2.3-1.27,2.27-2.45-.02-.31-.1-.56-.15-.84,1.39-.52,2.7-1.26,3.81-2.29.44.41.94.81,1.49,1.15-2.37,3.86-4.78,7.07-8.51,9.71-.13-.13-.27-.25-.41-.33-1.49-.94-3.38-.43-4.35.99-1.04,1.49-.72,3.52.74,4.6,1.5,1.11,3.42.84,4.73-.41Zm-12.44,23.02c-.79-.23-1.31,1.05-.54,1.4,2.17.94,4.84,1.38,7.16,1.02.85-.13.85-1.3-.03-1.35-2.32-.13-4.37-.42-6.59-1.07Zm.96,3.4c-.85-.39-1.47.73-.69,1.25,2.98,2.02,7.14,1.51,9.88-.64.6-.47.03-1.5-.65-1.05-2.72,1.78-5.64,1.69-8.54.44Z"/>
        <path class="cls-8" d="m166.01,141.46c-11.46-5.19-18.84-17.49-14.45-30.25,2.12-6.17,6.37-10.41,11.93-13.53,6.32-3.55,11.15-5.87,14.96-12.53,1.76-3.06,2.59-5.57,5.64-7.74,10.25-7.35,23.6-1.08,30.37,7.84,1.16,1.54,2.2,3.2,3.16,4.93,5.66-9,15.67-14.55,26.63-12.96,7.48,1.07,12.32,5.95,18.65,9.59,3.93,2.27,9.07,3.07,13.87,4.37-2.95-14.14,6.75-29.57,12.66-41.66.14-.3.41-.35.67-.24.18-.15.39-.24.63-.3.16-.2.45-.32.74-.15,26.41,14.73,45.51,46.19,40.74,76.68,20.4-7.13,45.72-6.22,64.77-5.47.74.04,1.07.65.96,1.21.23.6.11,1.41-.65,1.75-.02,0-.03.02-.05.01-9.94,12.26-21.9,27.13-35.76,38.46.07.02.14,0,.2.05,16.54,7.17,32.48,19.74,40.19,36.4.19.4.08.77-.17.99-.08.43-.41.82-1.04.91-1.39.21-2.85.33-4.18-.12-.11-.03-.18-.11-.24-.2-11.09.87-22.63,4.43-33.71,3.38,1.45,1.12,2.71,2.45,3.67,3.86,3.1,4.47,2.65,8.27,3.04,13.34.54,6.85,6.71,11.46,7.99,18.35.04.22,0,.4-.09.57,1.18,7.12-6.35,12.5-13.53,13.64-1.66.26-3.37.35-5.09.34,8.9,6.98,5.67,22.57-6.55,25.24-2.26.5-3.61.25-5.88.13-6.71-.37-8.76-.22-15.08,4.23-2.82,1.99-5.21,4.15-8.73,4.91-7.04,1.55-14.18-1.27-18-7.28-1.67,3.06-3.76,5.67-6.53,7.5-4.42,2.97-10.16,3.7-15.27,2.14-7.82-2.42-9.67-11.84-16.85-14.29-.52-.17-.72-.62-.69-1.03-9.65-2.81-16.56-11.05-9.71-21.49,3.54-5.41,9.52-8.11,15.42-10.21.3-.09.63-.18.94-.29-11.69.61-23.58-2.07-22.86-15.32-2.64.15-5.13.5-7.27,1.4-12.79,5.38-22.81,14.41-36.59,4.93-9.52-6.56-12.17-18.17-9.29-28.74-4.59,3.59-9.51,6.42-14.74,8.02-6.93,2.14-14.83,1.89-20.85-2.57-9.18-6.78-4.69-16.3-9.28-25.21-3.85-7.54-11.38-11.96-10.67-21.41.51-6.81,5.38-13.16,10.95-16.73,4.4-2.81,9.54-4.53,15.03-5.49Zm-3.91,3.89c-11.72,2.93-23.11,13.39-17.11,26.34,2.47,5.26,7.46,8.89,9.65,14.32,2.18,5.38-.2,13.21,3.42,17.9,10.63,13.74,27.34,5.54,37.47-3.48,12.18-10.82,21.04-24.58,28.54-38.88-1.12-.55-2.09-1.32-2.88-2.21-.02.18-.13.37-.35.5-2.61,1.38-4.95,3.03-7.09,5,.1.28.12.57.1.87,0,.57-.1,1.13-.39,1.65-1.3,2.32-4.25,1.58-5.74-.07-.65-.72-.93-1.75-.41-2.64.97-1.7,3.33-2.43,5-1.56,2.29-2.04,4.97-3.69,7.87-4.72.08-.05.18-.05.24-.04-.43-.64-.79-1.34-1.06-2.06-4.19-.17-8.43-.82-12.53-1.68-.04.16-.1.33-.17.5-.17,1-.78,1.91-1.87,2.24-2.36.73-4.99-1.84-4.48-4.19.54-2.58,3.48-2.7,5.33-1.46.25.15.45.37.63.6,4.18.73,8.37,1.37,12.53,2.08-.27-1.52-.25-3.11.15-4.62-17.56-4.64-38.81-8.92-56.86-4.39Zm3.06-45c-17.95,10.25-13.21,32.6,4.23,40.33.15.06.25.15.34.27,16.72-1.79,36.1,2.8,49.83,6.67.09.02.15.08.23.12.17-.31.37-.57.56-.86-3.9-2.29-7.64-4.45-11.79-6.18-.25.48-.64.83-1.21.96-2.26.4-4.88.25-5.77-2.24-.71-1.96.55-4.22,2.7-4.34,1.15-.08,2.44.63,3.17,1.62.75.39,1.33,1.02,1.49,1.95,0,.07,0,.17.01.24,4.36,1.64,8.71,3.81,12.25,6.81.38-.43.81-.82,1.23-1.21-.02,0-.04-.01-.08-.04-1.28-1.34-2.34-2.91-3.17-4.58-.9.12-1.81-.1-2.56-.72-1.43-1.21-1.68-3.43-.18-4.67,1.14-.93,2.9-.84,3.85.21.44.13.86.32,1.3.68.93.83.89,2.37.07,3.26-.27.26-.56.48-.89.66.74,1.52,1.57,2.98,2.56,4.39.02.03,0,.07.02.1.73-.51,1.54-.93,2.36-1.25-.06-.04-.12-.1-.14-.2-2.77-12.5-3.12-25.49-6.14-37.94-3.39-13.94-18.29-36.78-35.03-22.95-4.18,3.45-4.53,9.79-9.13,13.42-3.03,2.38-6.78,3.61-10.1,5.5Zm54.17-7.06s-.06.06-.1.12c6.66,14.63,6.98,33.79,7.29,48.77-.01.04-.04.08-.05.13,1.09-.33,2.24-.5,3.41-.48.86-3.51,2.23-6.95,3.32-10.43-.19-.21-.39-.42-.52-.69-.41-.85-.5-1.97.28-2.68.82-.77,2.04-1.18,3.11-1.03,1.35-.15,2.73.98,2.49,2.68-.1.73-.39,1.36-.67,2.03-.47,1.18-1.87,1.34-2.92,1-.98,3.13-2.03,6.38-3.59,9.21.57.09,1.15.2,1.72.38.87.28,1.7.66,2.48,1.13,3.57-3.97,8.1-6.99,12.95-9.2.05-1.42.96-2.78,2.54-3.07.93-.16,1.82.15,2.52.69.48.16.94.41,1.32.76.58.54.87,1.48.67,2.23-.78,2.68-4.25,4.14-6.27,1.76-.15-.18-.24-.36-.36-.58-4.58,1.97-8.61,4.7-12.38,8.09,1.82,1.35,3.19,3.2,3.81,5.25,8.95-6.83,19.07-11.93,28.37-18.31,10.33-7.09,31.14-27.62,8.21-35.8-2.99-1.06-6.28-1.07-9.29-2.18-4.69-1.72-8.21-4.82-12.39-7.41-12.85-7.96-27.97-6.47-35.94,7.62Zm-20.56,110.07c-4.99,16.09,5.72,36.03,25.05,31.05,7.11-1.82,12.47-7.5,19.41-9.69,6.76-2.13,13.47.77,20.05-.6,22.5-4.68,6.25-30.21-1.13-40.75-10.97-7.84-20.84-17.97-25.6-23.96-.56.48-1.15.88-1.75,1.25,1.59,2.61,3.07,5.31,4.57,7.99,1.53.08,3.01,1.09,3,2.83.01.64-.2,1.25-.59,1.72-.65,1.16-1.97,1.98-3.36,1.67-2.54-.6-3.36-4.18-1.17-5.68-1.45-2.51-2.84-5.09-3.97-7.74-.81.35-1.68.54-2.52.62,2.46,6.79-1.1,13.35-5.06,18.95.39.26.64.67.72,1.23.22.45.23,1.11-.05,1.49-.07.1-.14.18-.23.27-.57,1.32-1.87,2.24-3.46,2-1.97-.3-3.32-2.27-2.74-4.22.2-.66.69-1.34,1.41-1.48.75-.18,1.49-.14,2.16,0,3.97-5.45,7.03-11.1,5.76-18.24-.74-.06-1.46-.2-2.16-.49-.22.42-.64.72-1.2.59-.18-.04-.36-.08-.51-.14-5.25,13.21-14.66,29.41-26.82,40.25.22.26.35.62.19,1.08Zm31.75-59.02c-4.17-.35-8.29,2.45-9.13,6.67-.85,4.19,1.87,7.28,5.26,9.12,4.46,1.03,9.02-1.06,11.14-5.33,2.64-5.27-2.21-10.02-7.27-10.47Zm7.87,13.2c.06.06.12.08.17.16,10.69,13.49,56.31,55.55,64.5,19.32,1.1-4.84-.63-8.24-.73-12.96-.08-4.11,1.26-7.29,1.9-11.28,3.29-20.73-16.3-21.57-31.25-20.58-12.05,9.18-26.55,16.5-32.14,19.17-.06.03-.1.02-.15.04.03.78-.07,1.58-.28,2.36,2.97-.14,6.08.83,8.62,2.33.38-.5.89-.89,1.51-1.12,1.51-.51,2.68.1,3.29,1.11.48.65.64,1.45.5,2.16,0,.12-.05.2-.07.29-.02.09-.04.16-.08.24-.51,1.36-2,2.3-3.52,1.87-.37-.11-.7-.31-.98-.54-.37-.23-.67-.54-.88-.94-.25-.44-.35-.88-.34-1.33-2.77-1.6-5.49-2.24-8.64-2.52-.09.17-.15.32-.23.49-.35.6-.75,1.19-1.19,1.74Zm51.78-105.93c-2.68,13.89-14.05,25.25-10.65,40.44,2.46.84,4.72,1.99,6.53,3.69,11.81,11.15,2.37,24.19-11.13,34.95,8.22-1.95,17.76-2.93,24.91,1.04,1.17-27.84-.18-53.57-9.65-80.12Zm-13.62,167.43c-4.34,9.59-15.26,8.04-24.94,8.12.72,13.71,16.4,13.6,28.31,12.76,6.49-1.89,13.06-3.51,19.63-4.98.02-.58.16-1.16.33-1.71-2.23-.2-4.58-.62-6.77-1.3-.04.65-.3,1.27-.83,1.8-2.14,2.17-6.33.03-6.13-2.89.14-2.29,3.11-3.49,4.7-2.18.65.15,1.23.57,1.64,1.12,2.66.68,5.31,1.38,7.96,2.01.16-.29.37-.55.54-.81-3.66-2.82-6.92-6.3-9.91-9.87-1.42.82-3.29.7-4.5-.55-1.52-1.61-.88-4.13.98-5.13,1.48-.8,3.42-.15,4,1.37.1.09.2.16.27.25.67.75.9,1.74.58,2.63,3.13,3.45,6.39,6.76,9.5,10.2.77-.76,1.65-1.4,2.63-1.87-6.05-11.85-9.32-24.54-19.38-33.84-5.86-.87-12.2-3.76-18.37-7.67,7.02,9.14,14.28,22.55,9.75,32.54Zm-12.19,29.78c-5.51,3.21-7.42,6-7.74,12.32-.3,5.83-.14,6.85,4.28,10,1.49,1.06,3.11,1.84,4.81,2.53.12-.02.24-.01.37.02,1.25.27,2.23.69,3.1,1.21.04.01.09.02.11.05.07.02.08.04.12.08,1.57,1.01,2.71,2.43,4.2,4.19,5.51,6.6,13.11,11.9,21.76,6.88,12.48-7.24,11.06-29.86,12.53-42.51-1.03-.2-2.04-.51-3.01-.9-1.64,4.24-5.09,7.87-8.87,10.35.63,1.02.54,2.48-.45,3.4-1.31,1.24-3.23,1.51-4.73.41-1.46-1.08-1.78-3.1-.74-4.6.97-1.42,2.86-1.93,4.35-.99.15.08.28.21.41.33,3.73-2.64,6.14-5.85,8.51-9.71-.55-.34-1.05-.74-1.49-1.15-1.11,1.03-2.42,1.78-3.81,2.29.05.27.13.53.15.84.03,1.18-1,2.54-2.27,2.45-1.49-.07-2.93-.62-3.64-2.01-.34-.67-.52-1.58-.05-2.25.81-1.12,2.18-1.74,3.37-1.22.07.02.12,0,.18.02.54.2.99.47,1.36.82,1.4-.37,2.7-.98,3.92-1.77-.52-.66-.96-1.4-1.21-2.22-9.06,2.34-18.13,4.8-27.03,7.74-2.83.95-5.89,1.92-8.48,3.44Zm28.62-196.9c9.53,25.02,14.14,54.27,8.19,80.62,2.31,1.56,4.32,3.68,5.89,6.59.43.78.76,1.54,1.01,2.28,5.65-6.86,13.1-11.63,21.48-14.93-.19-.28-.3-.63-.24-1.07,5.11-32.43-15.39-52.87-36.33-73.5Zm16.62,92.16c-.26.31-.55.43-.84.46.36,4.13-1.3,7.87-2.17,12.63-.73,4.08-.15,8.05.21,11.99,25.96-19.18,56.65-33.69,86.15-46.87-27.5,1.56-64.32-.59-83.35,21.79Zm-3.55,35.59c-3.38,10.08-9.19,14.25-16.09,14.73,8.46,8.92,12.39,21.51,15.57,33.17,1.05-.36,2.17-.52,3.31-.46-.14-3.96.08-7.95.66-11.88-.27-.16-.53-.36-.77-.61-1.67-1.78-.75-4.86,1.52-5.63,2.02-.67,4.69.74,5.19,2.81.35,1.49-.61,2.89-1.9,3.24-.67.55-1.5.77-2.33.72-.46,3.84-.76,7.65-.85,11.53,1.16.25,2.28.7,3.26,1.34,10.15-9.11,34.54-17.76,34.47-33.62-.08-11.84-12.03-8.85-18.23-11.94-6.81-3.38-13.16-15.77-22.55-8.97-.09.07-.19.1-.29.14-.08,1.82-.32,3.62-.94,5.44Zm.85-9.13c.02.22.04.43.06.65,6.19-3.59,11.65.15,17.05,4.04.46.34.92.67,1.39.99.07,0,.1-.05.18-.05,28.81-3.63,48.14-31.53,67.48-51.22-29.78,13.55-57.31,30.32-86.15,45.6Zm1.76,58.57c-3.39-.08-6.77,2.48-6.98,5.96.49.49.63,1.3.16,1.82.88,3.24,4.5,4.1,7.46,4.94.31.1.49.3.59.56,3.63-1.23,6.88-4.15,5.56-8.46-.86-2.84-3.85-4.77-6.78-4.83Zm1.1,14.41c-.12.11-.28.17-.47.19.51,9.66.62,24.45-4.2,34.87.29-.03.58.04.82.29,8.39,8.71,16.57,6.87,25.06-.03,1.92-1.57,3.73-3.16,6.21-3.79,4.04-1.06,7.98,1.14,11.89.49,12.77-2.12,14.1-14.76,6.69-22.67-13.21-.99-27.44-8.6-37.68-14.98-.35-.2-.54-.5-.6-.82-.31,1.62-1.09,3.1-2.18,4.23.24-.11.51-.09.72.12,2.38,2.75,4.84,5.26,7.63,7.47.26-.22.55-.43.91-.56,1.88-.71,3.73.34,4.46,2.12.29.66,0,1.55-.49,2.05-.03.04-.09.07-.15.13-.04.08-.06.17-.11.26-1,1.95-3.53,2.2-4.96.59-.97-1.08-.96-2.67-.26-3.85-3.07-2.02-5.86-4.45-8.11-7.33-.12-.19-.12-.38-.05-.58-.75.69-1.64,1.18-2.63,1.49,1.51,3.13,2.2,6.59,2.25,10.05.24-.04.5-.02.77.02,1.21.24,2.25,1.24,2.49,2.4.51,1.6-.33,3.38-2.19,3.88-1.99.54-3.96-.96-3.94-3,0-.87.35-1.68.92-2.3-.07-3.66-.64-7.11-1.58-10.67-.02-.03,0-.07,0-.09-.4.02-.81.04-1.23.01Zm4.88-14.14c1,.83,1.76,1.88,2.31,3.04,2.29-.63,4.75-.8,7.06-1.31,1.79-.4,3.57-.87,5.34-1.39-.04-1.72,1.23-3.4,3.14-3.44,1.21-.04,2.19.76,2.64,1.75.99.68,1.4,2.12.84,3.28-1.16,2.41-4.72,2.27-6.1.15-.03-.06-.05-.1-.08-.14-3.88,1.31-8.45,2.53-12.41,2.25.13.45.22.87.27,1.36.04.43,0,.87-.03,1.31.26-.6.94-1,1.74-.6,7.86,4.12,15.75,8.13,24.19,10.98,4.94,1.69,10.26,3.33,15.52,3.33,6.09,0,14.91-5.98,15.71-12.63-2.79-5.29-7.99-10.01-8.39-16.05-.31-4.82.46-8.68-2.59-13.05-3.75-5.31-9.69-6.93-15.71-5.44-.85,1.51-1.75,2.9-2.6,4.04-7.63,10.16-20.13,16.17-30.86,22.56Zm16.57-49.53c2.24,1.14,4.66,1.97,7.73,2.28,1.58.19,3.07.12,4.63.49,2.71.67,5.19,1.7,6.68,4.26,2.27,3.9,1.11,9.1-.97,13.59,1.92-1.05,4.06-1.25,6.18-.88.25-.27.62-.42,1.08-.31,13.89,3.29,27.4-3.04,41.17-1.03.29-.12.6-.23.92-.32-21.67-10.31-43.52-16.5-67.43-18.09Zm28.37-16.85c-8.17,6.38-16.93,11.52-26.35,14.15,22.99,1.18,45.66,7.59,65.49,19.34-10.8-13.82-22.04-24.93-38.42-32.48-.51-.24-.7-.61-.72-1.02Z"/>
        <path class="cls-8" d="m202.83,224.08c-.3-1.11,1.09-1.62,1.72-.79,1.11,1.48,2,2.97,3.46,4.14,1.48,1.17,3.19,1.53,4.75,2.49.37.23.39.92-.12,1.01-3.82.76-8.84-3.27-9.8-6.84Z"/>
        <path class="cls-8" d="m205.42,220.98c-.3-.71.85-1.21,1.21-.54,1.02,1.84,2.25,3.38,3.86,4.72.49.4-.12,1.19-.63.88-1.97-1.2-3.53-2.95-4.44-5.07Z"/>
        <path class="cls-8" d="m278.24,105.34c-.39-.54.45-1.21.9-.7,2.17,2.46,2.87,5.73,1.91,8.89-.34,1.12-2.15.64-1.76-.42.98-2.66.59-5.46-1.05-7.77Z"/>
        <path class="cls-8" d="m280.3,101.83c-.34-.43.25-.84.63-.67,3.04,1.17,3.93,5.61,3.02,8.36-.35,1.07-2.04.67-1.69-.4.43-1.31.49-2.68.08-4.02-.39-1.32-1.27-2.18-2.05-3.26Z"/>
        <path class="cls-8" d="m282.57,280.84c-.76-.35-.25-1.63.54-1.4,2.22.64,4.27.94,6.59,1.07.88.04.89,1.22.03,1.35-2.32.37-4.99-.08-7.16-1.02Z"/>
        <path class="cls-8" d="m283.38,284.08c-.77-.51-.15-1.63.69-1.25,2.9,1.25,5.82,1.33,8.54-.44.67-.45,1.25.58.65,1.05-2.74,2.15-6.91,2.66-9.88.64Z"/>
        <path class="cls-8" d="m347.2,131.45c-.87.31-1.24-1.02-.4-1.37,3.07-1.34,6.73-1.72,10.02-1.1.58.12.48,1.05-.1,1.03-3.37-.16-6.32.29-9.51,1.44Z"/>
        <path class="cls-8" d="m352.7,128.01c-.82.18-1.23-1.04-.38-1.27,2.46-.64,4.96-.68,7.44-.26.74.13.45,1.19-.26,1.11-2.29-.24-4.54-.07-6.8.41Z"/>
        <path class="cls-8" d="m351.08,209.85c-1.13-.48-.19-2.09.91-1.64,1.98.77,4.14,2.09,5.39,3.84.59.87-.63,1.66-1.34,1.09-.81-.64-1.51-1.37-2.39-1.93-.81-.54-1.67-.98-2.57-1.36Z"/>
        <path class="cls-8" d="m354.27,207.5c-.87-.18-.76-1.64.16-1.58,3.33.23,7.31,3.1,7.21,6.76-.02.49-.67.73-.94.29-.76-1.26-1.31-2.5-2.44-3.49-1.14-1.05-2.48-1.62-4-1.98Z"/>
      </g>
      <rect class="cls-2" x="61.07" y="271.13" width="425.8" height="96.31"/>
      <text class="cls-12" transform="translate(96.78 343.84)"><tspan class="cls-9" x="0" y="0">D</tspan><tspan class="cls-13" x="29.06" y="0">A</tspan><tspan x="54.51" y="0">VID LAM </tspan><tspan class="cls-14" x="239.83" y="0">P</tspan><tspan class="cls-11" x="267.83" y="0">ARK</tspan></text>
    </g>
  </g>
</svg>