<svg width="31" height="36" viewBox="0 0 31 36" fill="none" xmlns="http://www.w3.org/2000/svg">
<path fill-rule="evenodd" clip-rule="evenodd" d="M0 2.59441C0 1.90633 0.272172 1.24643 0.756641 0.759885C1.24111 0.273339 1.89819 0 2.58333 0H28.4167C29.1018 0 29.7589 0.273339 30.2434 0.759885C30.7278 1.24643 31 1.90633 31 2.59441V6.20236C30.9998 7.11973 30.6368 7.99945 29.9908 8.64803L20.6667 18.0121V30.8527C20.6667 31.177 20.5842 31.496 20.427 31.7793C20.2697 32.0626 20.043 32.3008 19.7683 32.4714C19.4935 32.6419 19.18 32.7391 18.8574 32.7536C18.5347 32.7682 18.2137 32.6997 17.9249 32.5546L11.5234 29.341C11.1658 29.1615 10.8651 28.8855 10.6549 28.5439C10.4447 28.2024 10.3333 27.8088 10.3333 27.4073V18.0121L1.00922 8.64803C0.363219 7.99945 0.000195084 7.11973 0 6.20236V2.59441ZM3.44444 3.45921V6.20236L13.02 15.819C13.2602 16.0599 13.4507 16.3459 13.5807 16.6608C13.7107 16.9757 13.7777 17.3132 13.7778 17.6541V26.6048L17.2222 28.3344V17.6541C17.2222 16.9657 17.4943 16.305 17.98 15.8207L27.5556 6.20063V3.45921H3.44444Z" fill="black"/>
</svg>
