<svg width="132" height="113" viewBox="0 0 132 113" fill="none" xmlns="http://www.w3.org/2000/svg">
<g clip-path="url(#clip0_1092_4079)" filter="url(#filter0_d_1092_4079)">
<path d="M10.9507 48.7111C10.9507 48.7111 3.56406 89.4332 30.0379 89.3293C56.5118 89.2254 49.4616 48.5346 49.4616 48.5346C49.4616 48.5346 31.852 32.5256 10.9507 48.7111Z" fill="#944D1A"/>
<path d="M49.4616 48.5346C49.4616 48.5346 31.852 32.5256 10.9507 48.7111C10.9507 48.7111 10.7887 49.6115 10.5972 51.1438C11.1939 50.9408 11.8289 50.8509 12.4521 50.887C12.6005 50.8958 13.8008 50.9335 13.7802 50.9477C14.3742 50.943 14.9727 50.9049 15.5663 50.8632C16.835 50.7711 18.101 50.619 19.3623 50.4436C21.8082 50.1051 24.2438 49.6658 26.6979 49.3851C31.3677 48.8483 36.2074 49.0099 40.9105 49.4114C42.1008 48.477 43.6576 48.2111 45.1832 48.8066C47.3056 49.6333 48.4308 52.6524 47.4273 54.8325C47.419 54.8541 47.4111 54.8729 47.4002 54.8941C47.471 54.9434 47.5445 54.9931 47.6116 55.0505C48.8833 56.0997 49.2768 58.4038 48.1202 59.7599C47.2373 60.7927 46.6188 61.8272 46.6262 63.1736C46.6367 64.7928 47.3032 66.3249 47.9502 67.7437C48.6942 69.3743 47.7207 71.4705 46.2071 72.1482C45.1657 72.6145 44.0919 72.4322 43.2544 71.8277C42.9586 72.5114 42.6333 73.1769 42.2829 73.8305C42.2984 74.071 42.2933 74.3258 42.2593 74.5965C41.6383 79.556 40.1648 84.3575 37.2361 88.082C55.1204 81.226 49.4631 48.5433 49.4631 48.5433L49.4616 48.5346Z" fill="#944D1A"/>
<path d="M10.3474 51.6067C10.3474 51.6067 2.9756 45.4142 10.2075 38.3926C17.4398 31.3683 42.2136 29.5298 51.5677 38.8859C60.9218 48.242 49.2042 52.093 49.2042 52.093C49.2042 52.093 10.1241 52.9985 10.3474 51.6067Z" fill="#944D1A"/>
<path d="M54.1132 42.0747C51.385 43.9247 48.2082 45.0413 45.0299 45.8341C42.7206 47.6301 40.0618 48.7317 37.2357 49.2912C37.0193 49.4095 36.7912 49.495 36.5493 49.5445C33.9033 50.5513 31.1589 51.2581 28.3736 51.5961C24.5854 52.0566 20.5906 52.2477 16.8539 51.4209C13.6619 50.7161 9.11365 49.5664 8.06897 45.8345C8.04729 45.7577 8.03086 45.6817 8.01218 45.6026C7.65957 45.3249 7.33025 45.0135 7.03171 44.6523C6.9084 48.7199 10.3447 51.6064 10.3447 51.6064C10.1245 52.9957 49.2015 52.0927 49.2015 52.0927C49.2015 52.0927 58.2256 49.1257 54.1079 42.074L54.1132 42.0747Z" fill="#944D1A"/>
<path d="M29.2257 34.1568C29.2257 34.1568 29.8692 27.4321 28.2963 25.2322C26.7234 23.0324 30.2504 20.6718 30.9209 25.5877C31.5914 30.5036 30.8381 34.0914 30.4624 34.892C30.0867 35.6925 29.2257 34.1568 29.2257 34.1568Z" fill="#944D1A"/>
<path d="M30.3663 28.8532C30.3906 28.0618 30.4404 27.2994 30.1587 26.5573C29.7742 25.5487 29.3223 24.7808 29.0938 23.6855C29.0243 23.3497 29.0434 23.0117 29.1292 22.694C28.1726 22.6525 27.3907 23.9657 28.2963 25.2322C29.8692 27.432 29.2256 34.1567 29.2256 34.1567C29.2256 34.1567 29.934 35.4192 30.3475 35.0495C30.3655 32.9828 30.3003 30.919 30.3663 28.8532Z" fill="#944D1A"/>
<path d="M10.9507 48.7111C10.9507 48.7111 3.56406 89.4332 30.0379 89.3293C56.5118 89.2254 49.4616 48.5346 49.4616 48.5346C49.4616 48.5346 31.852 32.5256 10.9507 48.7111Z" fill="#F9A66B"/>
<path d="M49.4616 48.5346C49.4616 48.5346 31.852 32.5256 10.9507 48.7111C10.9507 48.7111 10.7887 49.6115 10.5972 51.1438C11.1939 50.9408 11.8289 50.8509 12.4521 50.887C12.6005 50.8958 13.8008 50.9335 13.7802 50.9477C14.3742 50.943 14.9727 50.9049 15.5663 50.8632C16.835 50.7711 18.101 50.619 19.3623 50.4436C21.8082 50.1051 24.2438 49.6658 26.6979 49.3851C31.3677 48.8483 36.2074 49.0099 40.9105 49.4114C42.1008 48.477 43.6576 48.2111 45.1832 48.8066C47.3056 49.6333 48.4308 52.6524 47.4273 54.8325C47.419 54.8541 47.4111 54.8729 47.4002 54.8941C47.471 54.9434 47.5445 54.9931 47.6116 55.0505C48.8833 56.0997 49.2768 58.4038 48.1202 59.7599C47.2373 60.7927 46.6188 61.8272 46.6262 63.1736C46.6367 64.7928 47.3032 66.3249 47.9502 67.7437C48.6942 69.3743 47.7207 71.4705 46.2071 72.1482C45.1657 72.6145 44.0919 72.4322 43.2544 71.8277C42.9586 72.5114 42.6333 73.1769 42.2829 73.8305C42.2984 74.071 42.2933 74.3258 42.2593 74.5965C41.6383 79.556 40.1648 84.3575 37.2361 88.082C55.1204 81.226 49.4631 48.5433 49.4631 48.5433L49.4616 48.5346Z" fill="#B77B53"/>
<path d="M10.3474 51.6067C10.3474 51.6067 2.9756 45.4142 10.2075 38.3926C17.4398 31.3683 42.2136 29.5298 51.5677 38.8859C60.9218 48.242 49.2042 52.093 49.2042 52.093C49.2042 52.093 10.1241 52.9985 10.3474 51.6067Z" fill="#AD5A1E"/>
<path d="M54.1132 42.0747C51.385 43.9247 48.2082 45.0413 45.0299 45.8341C42.7206 47.6301 40.0618 48.7317 37.2357 49.2912C37.0193 49.4095 36.7912 49.495 36.5493 49.5445C33.9033 50.5513 31.1589 51.2581 28.3736 51.5961C24.5854 52.0566 20.5906 52.2477 16.8539 51.4209C13.6619 50.7161 9.11365 49.5664 8.06897 45.8345C8.04729 45.7577 8.03086 45.6817 8.01218 45.6026C7.65957 45.3249 7.33025 45.0135 7.03171 44.6523C6.9084 48.7199 10.3447 51.6064 10.3447 51.6064C10.1245 52.9957 49.2015 52.0927 49.2015 52.0927C49.2015 52.0927 58.2256 49.1257 54.1079 42.074L54.1132 42.0747Z" fill="#7C4016"/>
<path d="M29.2257 34.1568C29.2257 34.1568 29.8692 27.4321 28.2963 25.2322C26.7234 23.0324 30.2504 20.6718 30.9209 25.5877C31.5914 30.5036 30.8381 34.0914 30.4624 34.892C30.0867 35.6925 29.2257 34.1568 29.2257 34.1568Z" fill="#AD5A1E"/>
<path d="M30.3663 28.8532C30.3906 28.0618 30.4404 27.2994 30.1587 26.5573C29.7742 25.5487 29.3223 24.7808 29.0938 23.6855C29.0243 23.3497 29.0434 23.0117 29.1292 22.694C28.1726 22.6525 27.3907 23.9657 28.2963 25.2322C29.8692 27.432 29.2256 34.1567 29.2256 34.1567C29.2256 34.1567 29.934 35.4192 30.3475 35.0495C30.3655 32.9828 30.3003 30.919 30.3663 28.8532Z" fill="#7C4016"/>
<path d="M65.7643 99.8451C90.8072 106.359 116.132 91.0568 97.1531 55.5621C91.3917 40.8741 116.999 45.1941 105.248 60.9159C103.858 63.2821 104.608 63.6675 105.771 62.9736C173.343 21.8885 56.2804 -27.4591 80.6471 62.9765C80.6471 62.9765 85.4287 82.9245 72.7859 89.443C60.143 95.9616 58.944 94.9477 65.7643 99.8451Z" fill="#944D1A"/>
<path d="M94.8596 92.7792C90.019 96.4519 83.6259 98.8982 77.9376 96.2204C77.7491 96.1325 77.5789 96.0271 77.4257 95.9155C76.2851 95.7128 75.1898 95.3345 74.2578 94.6378C72.4962 93.3178 72.1237 91.431 72.5848 89.5464C60.131 95.9514 58.9777 94.975 65.7612 99.8475C82.7106 104.255 99.7864 98.6718 103.173 83.5965C103.154 83.4975 103.13 83.4006 103.108 83.3012C101.102 87.0626 98.1092 90.3158 94.8592 92.782L94.8596 92.7792Z" fill="#633311"/>
<path d="M113.173 18.0529C110.108 16.0937 106.725 14.7896 103.108 14.6148C97.9971 14.3653 93.2973 16.584 89.5226 20.0435C89.5315 20.1951 89.5306 20.3397 89.517 20.4798C95.4997 15.6164 103.415 15.979 110.033 18.882C113.532 20.4175 116.94 22.6644 119.785 25.4935C119.185 22.151 115.709 19.6764 113.175 18.056L113.173 18.0529Z" fill="#FAB380"/>
<path d="M112.146 51.7999C112.15 51.6898 112.153 51.6107 112.155 51.5598C112.152 51.4402 112.152 51.3238 112.149 51.2043C112.139 50.8878 112.12 50.573 112.096 50.2576C112.038 49.5203 111.94 48.7861 111.8 48.0632C111.765 47.8826 111.726 47.7012 111.686 47.5227C111.596 47.1956 111.499 46.8701 111.39 46.5516C111.159 45.8704 110.875 45.2245 110.578 44.5713C110.553 44.5196 110.535 44.4774 110.521 44.4415C110.501 44.4132 110.474 44.3755 110.441 44.3228C110.226 43.9956 110.025 43.6619 109.793 43.3466C109.621 43.1133 109.437 42.8926 109.256 42.6694C109.131 42.5446 109.006 42.4255 108.875 42.3084C108.665 42.121 108.446 41.9437 108.223 41.7744C108.138 41.7118 108.047 41.6513 107.962 41.5915C107.922 41.5691 107.869 41.5421 107.803 41.5018C107.543 41.39 107.297 41.2516 107.035 41.1481C106.893 41.092 106.748 41.0411 106.602 40.9901C106.584 40.9877 106.566 40.9824 106.545 40.9768C106.25 40.931 105.959 40.8661 105.662 40.8315C105.517 40.8147 104.27 40.8048 105.014 40.7779C104.399 40.7996 103.801 40.6987 103.264 40.4784C103.248 40.479 103.231 40.4825 103.215 40.4831C102.239 40.8221 101.233 41.0264 100.216 41.1412C98.1379 41.8985 96.3386 43.2641 95.0273 45.2692C94.8924 47.2121 94.9555 49.1536 95.2039 51.069C96.0778 54.5422 97.8354 57.8655 99.7723 61.0087C99.7839 61.0216 99.7951 61.0373 99.8094 61.0506C99.0445 59.2781 98.1616 57.4499 97.1531 55.562C91.3917 40.8741 116.999 45.1941 105.248 60.9159C103.858 63.2821 104.608 63.6675 105.771 62.9735C106.595 62.4721 107.39 61.9696 108.161 61.4666C109.199 60.1171 110.142 58.7036 110.877 57.1655C111.164 56.5657 111.42 55.9589 111.624 55.3224C111.652 55.2297 111.678 55.1368 111.707 55.0441C111.719 54.9947 111.733 54.9285 111.756 54.8379C111.807 54.5411 111.876 54.2468 111.927 53.9472C112.046 53.231 112.089 52.5187 112.149 51.7975L112.146 51.7999Z" fill="#633311"/>
<path d="M77.4921 85.5591C77.2499 85.8669 76.998 86.1677 76.7289 86.4576C76.9115 86.5306 77.0801 86.6272 77.2338 86.736C77.3027 86.3452 77.3987 85.9523 77.4921 85.5591Z" fill="#633311"/>
<path d="M45.7095 50.683C47.6257 50.9425 49.4104 49.4459 49.6956 47.3401C49.9808 45.2344 48.6586 43.3169 46.7424 43.0574C44.8261 42.7978 43.0415 44.2945 42.7563 46.4002C42.471 48.506 43.7932 50.4234 45.7095 50.683Z" stroke="#3E655D" stroke-width="1.82" stroke-miterlimit="10"/>
<path d="M45.4848 50.3688C47.401 50.6283 49.1856 49.1317 49.4709 47.0259C49.7561 44.9202 48.4339 43.0027 46.5176 42.7432C44.6014 42.4836 42.8168 43.9803 42.5315 46.086C42.2463 48.1918 43.5685 50.1092 45.4848 50.3688Z" stroke="#65847D" stroke-width="1.82" stroke-miterlimit="10"/>
<path d="M62.7427 41.251C62.7427 41.251 49.1004 33.4428 42.4868 48.7252C41.0235 49.6623 41.2428 55.9362 48.6652 58.3607C56.0877 60.7852 34.6724 64.9802 32.4199 67.7972C30.1674 70.6143 45.3144 73.2335 45.3144 73.2335C45.3144 73.2335 44.5935 82.5022 41.5914 84.9339C40.236 90.9945 50.6533 98.9336 50.6533 98.9336C50.6533 98.9336 47.8076 94.2907 36.4789 99.0004C31.0751 103.377 55.9006 101.631 62.0881 101.334C69.1007 100.865 93.7159 82.9116 66.2516 58.756C66.2516 58.756 62.2806 54.5283 67.2763 45.271C72.272 36.0137 64.4343 36.6551 62.7427 41.251Z" fill="#F7802B"/>
<path d="M48.4002 99.9993C50.3592 99.8219 52.3699 99.4215 54.075 98.5342C53.6005 98.2485 53.1362 97.9472 52.6951 97.6321C50.283 96.2012 48.1124 94.3888 46.5081 92.0853C45.8977 91.5003 45.3535 90.8021 44.9613 90.0281C44.631 89.5462 44.3472 89.0367 44.1242 88.4927C43.7235 87.5245 43.6624 86.2589 43.9405 85.1527C43.982 84.9057 44.056 84.6745 44.1676 84.4626C44.6828 83.2239 45.7047 82.3689 47.2324 82.7121C47.1674 81.1791 47.2791 79.6247 47.3836 78.1033C47.5181 76.1433 47.6784 74.3683 47.0327 72.6035C46.9003 72.2393 46.8257 71.863 46.8016 71.4879C44.871 71.357 42.9191 71.4616 41.0108 71.0073C39.7137 70.6982 38.456 70.2554 37.2142 69.7551C36.5173 69.4734 35.8261 69.1498 35.0664 69.1349C34.768 69.1286 33.35 69.297 33.3822 69.7696C36.6131 71.7257 45.3121 73.2304 45.3121 73.2304C45.3121 73.2304 44.5912 82.4991 41.5892 84.9307C40.5523 89.5671 46.4061 95.3043 49.2137 97.7423C47.409 96.7798 43.6392 96.0194 36.4766 98.9973C34.4922 100.605 36.5862 101.385 40.3338 101.717C42.3589 99.848 45.8351 100.231 48.4002 99.9993Z" fill="#C66622"/>
<path d="M69.059 97.6006C67.459 98.7576 65.1872 100.218 62.9484 100.823C62.6373 101.008 62.3203 101.178 62.0022 101.336C62.0292 101.334 62.0614 101.333 62.0884 101.331C64.9179 101.141 70.6132 98.1035 74.595 92.9577C72.8314 94.612 71.0061 96.1897 69.0594 97.5978L69.059 97.6006Z" fill="#C66622"/>
<path d="M65.4563 38.8371C65.4061 38.853 65.3566 38.8633 65.3055 38.8847C64.307 39.2717 63.2822 40.484 62.9129 41.6913C63.0425 41.7599 63.1745 41.8317 63.3015 41.9C63.3461 41.9259 63.3877 41.9543 63.4319 41.983C64.3484 42.0049 64.9196 41.0634 65.2837 40.2101C65.3351 39.7516 65.3896 39.2906 65.459 38.8374L65.4563 38.8371Z" fill="#FAB380"/>
<path d="M44.8501 55.1533C44.5597 55.3042 44.2746 55.4557 43.997 55.6111C44.4226 56.0406 44.9224 56.4545 45.4954 56.8415C45.2432 56.2965 45.0281 55.7337 44.8527 55.1537L44.8501 55.1533Z" fill="#FAB380"/>
<path d="M64.6199 60.5218C64.6998 61.3926 65.663 62.2923 66.2047 62.8709C67.2222 63.9623 68.3725 64.9015 69.384 65.9979C71.6523 68.4508 73.3088 71.908 74.6004 75.0404C75.9623 78.3442 76.3775 81.5935 76.306 85.1998C76.295 85.7546 76.2708 86.3076 76.2283 86.8582C76.955 84.0587 77.2373 81.165 77.0626 78.3116C76.6614 75.3537 75.9449 72.4155 74.3771 69.9212C74.2891 69.7815 74.2386 69.6413 74.2147 69.5018C73.0533 67.5791 71.7909 65.7307 70.366 63.9965C69.588 63.051 68.7542 62.1235 67.8505 61.2773C67.7207 61.2484 67.5903 61.1853 67.4648 61.086C66.7255 60.5062 65.9945 59.8253 65.1279 59.4553C64.7974 59.6064 64.5876 60.1683 64.6199 60.5218Z" fill="#FAB380"/>
<path d="M48.2608 49.5072C48.9856 49.6054 49.6576 49.0611 49.7618 48.2914C49.8661 47.5218 49.3631 46.8183 48.6383 46.7201C47.9136 46.6219 47.2415 47.1663 47.1373 47.9359C47.033 48.7056 47.5361 49.4091 48.2608 49.5072Z" fill="#190D04"/>
<path d="M47.8312 47.7462C48.0486 47.7756 48.2502 47.6123 48.2815 47.3814C48.3128 47.1505 48.1619 46.9395 47.9445 46.91C47.727 46.8806 47.5254 47.0439 47.4942 47.2748C47.4629 47.5057 47.6138 47.7167 47.8312 47.7462Z" fill="#FEF2EA"/>
<path d="M41.8846 51.1982C41.8846 51.1982 39.88 48.9881 42.4868 48.7253C43.477 49.2681 41.8846 51.1982 41.8846 51.1982Z" fill="#633311"/>
<path d="M45.1796 56.4695C45.1796 56.4695 46.7903 58.3907 47.8815 54.281C48.41 50.379 44.581 54.9693 43.8314 54.5839C43.0818 54.1986 43.9429 55.7344 45.1796 56.4695Z" fill="#7C4016"/>
<path d="M48.5388 51.8156C50.8508 52.1288 53.0039 50.3237 53.3479 47.7838C53.6919 45.244 52.0966 42.9312 49.7846 42.618C47.4727 42.3049 45.3196 44.11 44.9755 46.6498C44.6315 49.1897 46.2269 51.5025 48.5388 51.8156Z" stroke="#3E655D" stroke-width="2.2" stroke-miterlimit="10"/>
<path d="M48.3141 51.5013C50.6261 51.8144 52.7792 50.0094 53.1232 47.4695C53.4672 44.9297 51.8719 42.6169 49.56 42.3037C47.248 41.9906 45.0949 43.7956 44.7509 46.3355C44.4069 48.8753 46.0022 51.1881 48.3141 51.5013Z" stroke="#65847D" stroke-width="2.2" stroke-miterlimit="10"/>
<path d="M42.6755 47.3316C42.6755 47.3316 43.5384 46.8808 44.5127 47.5805" stroke="#65847D" stroke-width="1.66" stroke-miterlimit="10" stroke-linecap="round"/>
<path d="M10.5714 53.4849C10.5714 53.4849 9.88827 62.4748 11.6409 73.2139C11.6409 73.2139 11.2437 56.4142 12.2576 54.8486C12.3331 54.2911 10.5714 53.4849 10.5714 53.4849Z" fill="#B77B53"/>
</g>
<defs>
<filter id="filter0_d_1092_4079" x="-4" y="0" width="137.854" height="120.112" filterUnits="userSpaceOnUse" color-interpolation-filters="sRGB">
<feFlood flood-opacity="0" result="BackgroundImageFix"/>
<feColorMatrix in="SourceAlpha" type="matrix" values="0 0 0 0 0 0 0 0 0 0 0 0 0 0 0 0 0 0 127 0" result="hardAlpha"/>
<feOffset dy="4"/>
<feGaussianBlur stdDeviation="2"/>
<feColorMatrix type="matrix" values="0 0 0 0 0 0 0 0 0 0 0 0 0 0 0 0 0 0 0.25 0"/>
<feBlend mode="normal" in2="BackgroundImageFix" result="effect1_dropShadow_1092_4079"/>
<feBlend mode="normal" in="SourceGraphic" in2="effect1_dropShadow_1092_4079" result="shape"/>
</filter>
<clipPath id="clip0_1092_4079">
<rect width="117.878" height="97.1696" fill="white" transform="translate(13.0424) rotate(7.71371)"/>
</clipPath>
</defs>
</svg>
