<svg width="74" height="74" viewBox="0 0 74 74" fill="none" xmlns="http://www.w3.org/2000/svg">
<circle cx="37" cy="37" r="37" fill="#74B4C6"/>
<path d="M48.1 29.6C48.1 30.5813 47.7101 31.5224 47.0162 32.2163C46.3224 32.9101 45.3813 33.3 44.4 33.3C43.4187 33.3 42.4775 32.9101 41.7837 32.2163C41.0898 31.5224 40.7 30.5813 40.7 29.6C40.7 28.6187 41.0898 27.6776 41.7837 26.9837C42.4775 26.2898 43.4187 25.9 44.4 25.9C45.3813 25.9 46.3224 26.2898 47.0162 26.9837C47.7101 27.6776 48.1 28.6187 48.1 29.6Z" fill="#1A1D1A"/>
<path fill-rule="evenodd" clip-rule="evenodd" d="M36.8946 17.1125H37.1055C41.3771 17.1125 44.7238 17.1125 47.336 17.464C50.0074 17.8229 52.1164 18.574 53.7721 20.2279C55.4279 21.8836 56.1771 23.9926 56.536 26.6659C56.8875 29.2762 56.8875 32.6229 56.8875 36.8945V37.0573C56.8875 40.589 56.8875 43.4787 56.6951 45.8319C56.5027 48.1999 56.1087 50.1738 55.2244 51.8166C54.8359 52.54 54.3549 53.1893 53.7721 53.7721C52.1164 55.4278 50.0074 56.1771 47.3341 56.536C44.7238 56.8875 41.3771 56.8875 37.1055 56.8875H36.8946C32.6229 56.8875 29.2763 56.8875 26.6641 56.536C23.9927 56.1771 21.8837 55.426 20.2279 53.7721C18.7609 52.305 18.0024 50.4791 17.6009 48.211C17.2032 45.9854 17.131 43.216 17.1162 39.7787C17.1125 38.9036 17.1125 37.9786 17.1125 37.0018V36.8945C17.1125 32.6229 17.1125 29.2762 17.464 26.664C17.8229 23.9926 18.574 21.8836 20.2279 20.2279C21.8837 18.5721 23.9927 17.8229 26.6659 17.464C29.2763 17.1125 32.6229 17.1125 36.8946 17.1125ZM27.0341 20.2131C24.6698 20.5313 23.2434 21.1381 22.1908 22.1907C21.1363 23.2452 20.5313 24.6697 20.2131 27.0359C19.8912 29.4409 19.8875 32.6007 19.8875 37V38.5614L21.7394 36.9408C22.5517 36.2297 23.6039 35.854 24.6828 35.8897C25.7618 35.9255 26.7868 36.37 27.5502 37.1332L35.4867 45.0697C36.1026 45.6854 36.916 46.0642 37.7836 46.1393C38.6513 46.2145 39.5176 45.9811 40.2301 45.4804L40.7814 45.0919C41.8095 44.3695 43.0522 44.0173 44.3063 44.093C45.5605 44.1686 46.7519 44.6675 47.6856 45.5081L52.9212 50.2201C53.4502 49.1138 53.7629 47.6597 53.9294 45.608C54.1107 43.3788 54.1125 40.6001 54.1125 37C54.1125 32.6007 54.1088 29.4409 53.7869 27.0359C53.4687 24.6697 52.8619 23.2434 51.8093 22.1889C50.7548 21.1362 49.3303 20.5313 46.9641 20.2131C44.5591 19.8912 41.3993 19.8875 37 19.8875C32.6007 19.8875 29.4391 19.8912 27.0341 20.2131Z" fill="#1A1D1A"/>
</svg>
