<svg width="40" height="40" viewBox="0 0 40 40" fill="none" xmlns="http://www.w3.org/2000/svg">
<path d="M20 0C16.0444 0 12.1776 1.17298 8.8886 3.37061C5.59962 5.56823 3.03617 8.69181 1.52242 12.3463C0.00866562 16.0009 -0.387401 20.0222 0.384303 23.9018C1.15601 27.7814 3.06082 31.3451 5.85787 34.1421C8.65492 36.9392 12.2186 38.844 16.0982 39.6157C19.9778 40.3874 23.9992 39.9913 27.6537 38.4776C31.3082 36.9638 34.4318 34.4004 36.6294 31.1114C38.827 27.8224 40 23.9556 40 20C40 14.6957 37.8929 9.60859 34.1421 5.85786C30.3914 2.10714 25.3043 0 20 0ZM19.725 32.3125C19.3171 32.3125 18.9183 32.1915 18.5791 31.9649C18.24 31.7383 17.9756 31.4162 17.8195 31.0393C17.6634 30.6624 17.6226 30.2477 17.7021 29.8476C17.7817 29.4475 17.9782 29.08 18.2666 28.7916C18.555 28.5031 18.9225 28.3067 19.3226 28.2271C19.7227 28.1475 20.1374 28.1884 20.5143 28.3445C20.8912 28.5006 21.2133 28.765 21.4399 29.1041C21.6665 29.4433 21.7875 29.8421 21.7875 30.25C21.7875 30.797 21.5702 31.3216 21.1834 31.7084C20.7966 32.0952 20.272 32.3125 19.725 32.3125ZM21.4375 22.2375V24.3875C21.4349 24.8248 21.2651 25.2444 20.963 25.5605C20.6608 25.8766 20.2492 26.0652 19.8125 26.0875H19.675C19.454 26.0958 19.2335 26.0603 19.0263 25.983C18.8191 25.9057 18.6292 25.7881 18.4677 25.637C18.3061 25.486 18.1761 25.3044 18.0851 25.1028C17.9941 24.9012 17.944 24.6836 17.9375 24.4625V21.0125C17.9169 20.8121 17.9372 20.6096 17.9972 20.4173C18.0572 20.225 18.1557 20.0469 18.2866 19.8937C18.4175 19.7406 18.5782 19.6157 18.7588 19.5265C18.9395 19.4373 19.1363 19.3858 19.3375 19.375C21.3 19.225 24.5625 18.5 24.5625 15.3125C24.5625 13.025 22.8 11.475 20.275 11.475C19.3178 11.4908 18.3754 11.7135 17.5123 12.1277C16.6493 12.542 15.886 13.138 15.275 13.875C15.0439 14.1206 14.745 14.2918 14.4163 14.3671C14.0876 14.4423 13.7439 14.4181 13.429 14.2975C13.1141 14.1769 12.8422 13.9653 12.6478 13.6898C12.4535 13.4142 12.3455 13.0871 12.3375 12.75C12.3449 12.2788 12.5381 11.8295 12.875 11.5C13.8033 10.4253 14.956 9.56725 16.2518 8.98629C17.5476 8.40532 18.9551 8.11559 20.375 8.1375C25 8.1375 28.225 11.0125 28.225 15.1375C28.225 18.95 25.7625 21.5 21.4375 22.2375Z" fill="white"/>
</svg>
