<svg width="52" height="44" viewBox="0 0 52 44" fill="none" xmlns="http://www.w3.org/2000/svg">
<path d="M44 25.7561V41.8536C44 42.4349 43.802 42.938 43.4062 43.3628C43.0104 43.7876 42.5416 44 42 44H30V31.1219H22V44H9.99996C9.4583 44 8.98955 43.7876 8.59371 43.3628C8.19788 42.938 7.99996 42.4349 7.99996 41.8536V25.7561C7.99996 25.7337 8.00517 25.7002 8.01559 25.6555C8.026 25.6107 8.03121 25.5772 8.03121 25.5548L26 9.65851L43.9687 25.5548C43.9895 25.5996 44 25.6666 44 25.7561ZM50.9687 23.442L49.0312 25.9237C48.8646 26.125 48.6458 26.2479 48.375 26.2927H48.2812C48.0104 26.2927 47.7916 26.2144 47.625 26.0579L26 6.70729L4.37496 26.0579C4.12496 26.2368 3.87496 26.315 3.62496 26.2927C3.35413 26.2479 3.13538 26.125 2.96871 25.9237L1.03121 23.442C0.864546 23.2185 0.791629 22.9558 0.812463 22.6539C0.833296 22.3521 0.947879 22.1118 1.15621 21.9329L23.625 1.84449C24.2916 1.26318 25.0833 0.972534 26 0.972534C26.9166 0.972534 27.7083 1.26318 28.375 1.84449L36 8.68595V2.14631C36 1.83331 36.0937 1.57619 36.2812 1.37497C36.4687 1.17375 36.7083 1.07314 37 1.07314H43C43.2916 1.07314 43.5312 1.17375 43.7187 1.37497C43.9062 1.57619 44 1.83331 44 2.14631V15.8292L50.8437 21.9329C51.0521 22.1118 51.1666 22.3521 51.1875 22.6539C51.2083 22.9558 51.1354 23.2185 50.9687 23.442Z" fill="white"/>
</svg>
