<svg width="185" height="166" viewBox="0 0 185 166" fill="none" xmlns="http://www.w3.org/2000/svg">
<path d="M57.146 74.4185C57.146 74.4185 53.7645 149.731 101.588 143.071C149.412 136.411 126.708 64.6842 126.708 64.6842C126.708 64.6842 90.9609 40.0924 57.146 74.4185Z" fill="#F9A66B"/>
<path d="M56.7644 79.7928C56.7644 79.7928 41.9245 70.4172 53.2767 55.9746C64.6288 41.5269 108.955 32.1512 128.153 46.7526C147.35 61.3541 127.114 71.1703 127.114 71.1703C127.114 71.1703 56.7016 82.3596 56.7644 79.7928Z" fill="#AD5A1E"/>
<path d="M133.534 51.8862C129.056 55.8927 123.587 58.6849 118.037 60.893C114.303 64.6996 109.767 67.3381 104.796 69.0391C104.434 69.3055 104.042 69.5155 103.617 69.6641C99.0813 72.1284 94.2941 74.0753 89.3426 75.3663C82.6087 77.1236 75.4351 78.4455 68.4788 77.8665C62.5371 77.3747 54.0351 76.4115 51.2332 69.9305C51.1753 69.7973 51.127 69.6641 51.0738 69.5258C50.3686 69.1108 49.6971 68.6292 49.0691 68.0503C49.842 75.4227 56.7596 79.7929 56.7596 79.7929C56.7016 82.3545 127.109 71.1704 127.109 71.1704C127.109 71.1704 142.693 63.6084 133.524 51.8862H133.534Z" fill="#7C4016"/>
<path d="M86.6133 43.6787C86.6133 43.6787 86.1302 31.3828 82.7487 27.7964C79.3673 24.2101 85.1641 19.0868 87.5794 27.7964C89.9948 36.5061 89.5117 43.1664 89.0287 44.7034C88.5456 46.2403 86.6133 43.6787 86.6133 43.6787Z" fill="#AD5A1E"/>
<path d="M87.3766 33.8265C87.2268 32.392 87.1302 31.0036 86.4394 29.733C85.4974 28.0065 84.4926 26.7308 83.8115 24.8095C83.6038 24.2203 83.5555 23.6055 83.6328 23.0112C81.8937 23.1701 80.802 25.7317 82.7488 27.7964C86.1303 31.3827 86.6133 43.6786 86.6133 43.6786C86.6133 43.6786 88.2026 45.7843 88.8596 45.0158C88.3862 41.2809 87.763 37.5717 87.3766 33.8265Z" fill="#7C4016"/>
<path d="M57.6292 83.1282C57.6292 83.1282 58.5953 99.5228 64.3921 118.479C64.3921 118.479 59.5614 88.2515 61.0106 85.1775C61.0106 84.1528 57.6292 83.1282 57.6292 83.1282Z" fill="#B77B53"/>
<path d="M0 10C0 4.47716 4.47715 0 10 0H175C180.523 0 185 4.47715 185 10V166H0V10Z" fill="#1A1D1A" fill-opacity="0.5" style="mix-blend-mode:hard-light"/>
<path fill-rule="evenodd" clip-rule="evenodd" d="M76.3333 74.6667V62.1667C76.3333 57.7464 78.0893 53.5072 81.2149 50.3816C84.3405 47.2559 88.5797 45.5 93 45.5C97.4203 45.5 101.659 47.2559 104.785 50.3816C107.911 53.5072 109.667 57.7464 109.667 62.1667V74.6667H113.833C116.043 74.6667 118.163 75.5446 119.726 77.1074C121.289 78.6702 122.167 80.7899 122.167 83V112.167C122.167 114.377 121.289 116.496 119.726 118.059C118.163 119.622 116.043 120.5 113.833 120.5H72.1666C69.9565 120.5 67.8369 119.622 66.2741 118.059C64.7113 116.496 63.8333 114.377 63.8333 112.167V83C63.8333 80.7899 64.7113 78.6702 66.2741 77.1074C67.8369 75.5446 69.9565 74.6667 72.1666 74.6667H76.3333ZM84.6666 62.1667C84.6666 59.9565 85.5446 57.8369 87.1074 56.2741C88.6702 54.7113 90.7898 53.8333 93 53.8333C95.2101 53.8333 97.3297 54.7113 98.8925 56.2741C100.455 57.8369 101.333 59.9565 101.333 62.1667V74.6667H84.6666V62.1667ZM93 87.1667C94.105 87.1667 95.1649 87.6057 95.9463 88.3871C96.7277 89.1685 97.1666 90.2283 97.1666 91.3333V103.833C97.1666 104.938 96.7277 105.998 95.9463 106.78C95.1649 107.561 94.105 108 93 108C91.8949 108 90.8351 107.561 90.0537 106.78C89.2723 105.998 88.8333 104.938 88.8333 103.833V91.3333C88.8333 90.2283 89.2723 89.1685 90.0537 88.3871C90.8351 87.6057 91.8949 87.1667 93 87.1667Z" fill="white" fill-opacity="0.5"/>
</svg>
