<svg width="26" height="25" viewBox="0 0 26 25" fill="none" xmlns="http://www.w3.org/2000/svg">
<path d="M23.8594 9.96094C23.8594 16.7969 13.7236 22.3301 13.292 22.5586C13.1782 22.6198 13.0511 22.6518 12.9219 22.6518C12.7927 22.6518 12.6655 22.6198 12.5518 22.5586C12.1201 22.3301 1.98438 16.7969 1.98438 9.96094C1.98618 8.35569 2.62467 6.81671 3.75975 5.68163C4.89483 4.54654 6.43382 3.90806 8.03906 3.90625C10.0557 3.90625 11.8213 4.77344 12.9219 6.23926C14.0225 4.77344 15.7881 3.90625 17.8047 3.90625C19.4099 3.90806 20.9489 4.54654 22.084 5.68163C23.2191 6.81671 23.8576 8.35569 23.8594 9.96094Z" fill="#F7802B"/>
</svg>
