<svg width="47" height="55" viewBox="0 0 47 55" fill="none" xmlns="http://www.w3.org/2000/svg">
<mask id="path-1-inside-1_1537_4758" fill="white">
<path fill-rule="evenodd" clip-rule="evenodd" d="M20.8435 12.4491C14.8416 12.9039 8.99295 14.4825 5.5641 17.4426C-1.11836 23.2116 4.88723 25.7384 6.84992 26.3691C5.92534 33.1231 4.867 52.4035 23.0604 51.7634C41.4017 51.1181 40.4644 31.6061 39.6322 25.0706C39.7354 25.0316 39.7858 24.9919 39.7784 24.9517C39.7784 24.9517 45.9696 20.4177 40.0077 15.7759C37.1219 13.5283 30.8036 12.2554 24.1595 12.3106C24.2961 9.85207 24.8409 6.59623 26.6588 5.00265C29.7982 2.25071 23.3588 -0.0295092 21.6933 5.75316C20.9341 8.38914 20.754 10.6672 20.8435 12.4491Z"/>
</mask>
<path d="M5.5641 17.4426L2.94661 14.4107L2.94661 14.4107L5.5641 17.4426ZM20.8435 12.4491L24.844 12.2482L25.0399 16.1482L21.1461 16.4432L20.8435 12.4491ZM6.84992 26.3691L8.07545 22.5557L11.2741 23.5837L10.8184 26.9124L6.84992 26.3691ZM23.0604 51.7634L22.9196 47.7604L23.0604 51.7634ZM39.6322 25.0706L35.6588 25.5765L35.2598 22.4428L38.2144 21.3245L39.6322 25.0706ZM39.7784 24.9517L35.8373 25.667L35.3898 23.2009L37.4119 21.7201L39.7784 24.9517ZM40.0077 15.7759L37.547 18.9364L37.5465 18.936L40.0077 15.7759ZM24.1595 12.3106L24.1928 16.316L19.9235 16.3515L20.1602 12.0885L24.1595 12.3106ZM26.6588 5.00265L24.0185 1.99059L24.0185 1.99059L26.6588 5.00265ZM21.6933 5.75316L25.5423 6.86173L21.6933 5.75316ZM2.94661 14.4107C7.36167 10.5991 14.2738 8.92995 20.5409 8.4551L21.1461 16.4432C15.4095 16.8778 10.6242 18.3658 8.18158 20.4745L2.94661 14.4107ZM5.6244 30.1825C4.98325 29.9765 3.96281 29.6021 2.90852 29.0055C1.89969 28.4346 0.540511 27.4828 -0.413804 25.9838C-1.4808 24.3077 -1.8741 22.1905 -1.1372 19.9373C-0.471196 17.901 1.00771 16.0845 2.94661 14.4107L8.18158 20.4745C6.77926 21.6852 6.50294 22.3479 6.47688 22.4276C6.47631 22.4293 6.51387 22.3023 6.48558 22.0948C6.45802 21.8927 6.3863 21.7481 6.34396 21.6816C6.30107 21.6143 6.39364 21.773 6.85404 22.0335C7.26898 22.2684 7.73525 22.4464 8.07545 22.5557L5.6244 30.1825ZM23.2013 55.7665C17.9172 55.9524 13.6318 54.6903 10.3277 52.2264C7.0597 49.7895 5.12119 46.4529 3.99268 43.1256C1.78762 36.6242 2.4 29.3428 2.88145 25.8259L10.8184 26.9124C10.3753 30.1494 9.99618 35.8852 11.5792 40.5525C12.3447 42.8096 13.4951 44.5952 15.1166 45.8044C16.7021 46.9867 19.1069 47.8946 22.9196 47.7604L23.2013 55.7665ZM43.6056 24.5647C44.0424 27.9954 44.5839 35.2501 42.3305 41.9097C41.1816 45.3052 39.2463 48.7243 36.0367 51.343C32.7902 53.9919 28.536 55.5788 23.2013 55.7665L22.9196 47.7604C26.7555 47.6255 29.2621 46.5314 30.9723 45.136C32.7195 43.7104 33.9368 41.7222 34.7422 39.342C36.3974 34.4504 36.0541 28.6814 35.6588 25.5765L43.6056 24.5647ZM43.7195 24.2364C44.1147 26.4134 42.7203 27.7591 42.2623 28.1286C41.7446 28.5464 41.2387 28.7454 41.0501 28.8168L38.2144 21.3245C38.129 21.3568 37.6998 21.5164 37.2312 21.8946C36.8224 22.2245 35.4495 23.5302 35.8373 25.667L43.7195 24.2364ZM42.4684 12.6154C44.4734 14.1764 45.8601 16.0526 46.3825 18.2355C46.9048 20.4175 46.4326 22.3588 45.7562 23.8032C45.0962 25.2125 44.1825 26.2911 43.5145 26.9732C43.1678 27.3272 42.8536 27.6085 42.6162 27.8089C42.4967 27.9097 42.3945 27.9918 42.3148 28.0542C42.2749 28.0855 42.2404 28.1119 42.2119 28.1334C42.1977 28.1442 42.1849 28.1537 42.1738 28.162C42.1682 28.1662 42.163 28.17 42.1582 28.1736C42.1558 28.1753 42.1535 28.177 42.1513 28.1786C42.1502 28.1795 42.1487 28.1806 42.1481 28.181C42.1466 28.1821 42.145 28.1833 39.7784 24.9517C37.4119 21.7201 37.4104 21.7212 37.4089 21.7222C37.4085 21.7226 37.407 21.7236 37.4061 21.7243C37.4043 21.7256 37.4026 21.7269 37.4009 21.7281C37.3976 21.7306 37.3947 21.7328 37.392 21.7347C37.3868 21.7386 37.3828 21.7416 37.3801 21.7436C37.3748 21.7477 37.3743 21.7481 37.3782 21.745C37.3863 21.7387 37.4113 21.7189 37.4495 21.6867C37.5274 21.621 37.6503 21.5118 37.7908 21.3682C38.0974 21.0552 38.3588 20.7101 38.5014 20.4057C38.566 20.2678 38.5858 20.1809 38.5914 20.1421C38.5956 20.1135 38.5934 20.1078 38.5916 20.1002C38.5898 20.0928 38.568 19.9979 38.4378 19.8135C38.3016 19.6207 38.0382 19.3188 37.547 18.9364L42.4684 12.6154ZM24.1263 8.3053C27.6958 8.27562 31.2325 8.60054 34.3303 9.2627C37.3256 9.90296 40.3218 10.9435 42.469 12.6158L37.5465 18.936C36.8078 18.3607 35.2019 17.641 32.6557 17.0967C30.2119 16.5743 27.2674 16.2904 24.1928 16.316L24.1263 8.3053ZM20.1602 12.0885C20.2376 10.6951 20.4352 8.93956 20.9298 7.22317C21.4066 5.56857 22.2828 3.51212 24.0185 1.99059L29.2992 8.0147C29.217 8.08675 28.9118 8.45501 28.6275 9.44137C28.3611 10.3659 28.218 11.4676 28.1589 12.5328L20.1602 12.0885ZM24.0185 1.99059C24.1838 1.84565 23.0551 2.82776 23.6836 4.53178C24.1961 5.92156 25.3152 6.12989 25.4454 6.14736C25.7526 6.18857 25.9013 6.09711 25.922 6.08251C25.979 6.04228 25.743 6.16496 25.5423 6.86173L17.8443 4.64458C19.1552 0.0929172 22.872 -2.28051 26.5103 -1.79251C28.0662 -1.58383 30.3106 -0.650875 31.1996 1.75972C32.2046 4.48456 30.7035 6.78367 29.2992 8.0147L24.0185 1.99059ZM25.5423 6.86173C24.9068 9.06811 24.7764 10.9034 24.844 12.2482L16.8431 12.6501C16.7316 10.4309 16.9613 7.71018 17.8443 4.64458L25.5423 6.86173Z" fill="#3E655D" mask="url(#path-1-inside-1_1537_4758)"/>
<path d="M20.2524 39.3219C20.259 39.0073 20.3413 38.6973 20.4945 38.4096C20.6477 38.1219 20.8689 37.8621 21.1455 37.6451C21.422 37.4281 21.7484 37.2581 22.1061 37.1448C22.4638 37.0315 22.8458 36.9771 23.2302 36.9848C23.6147 36.9925 23.994 37.0621 24.3467 37.1896C24.6993 37.3171 25.0183 37.5 25.2854 37.7279C25.5526 37.9558 25.7627 38.2242 25.9037 38.5178C26.0446 38.8114 26.1138 39.1244 26.1072 39.439C26.0938 40.0744 25.7726 40.6776 25.2141 41.1158C24.6556 41.5541 23.9057 41.7916 23.1293 41.7761C22.3529 41.7606 21.6137 41.4933 21.0741 41.033C20.5346 40.5728 20.239 39.9573 20.2524 39.3219ZM20.8422 24.9418C20.8095 24.6388 20.8551 24.334 20.9758 24.0472C21.0965 23.7604 21.2898 23.4981 21.5429 23.2772C21.7961 23.0562 22.1036 22.8817 22.4455 22.7648C22.7873 22.648 23.1559 22.5914 23.5273 22.5988C23.8986 22.6063 24.2645 22.6775 24.6012 22.8079C24.9378 22.9384 25.2377 23.1251 25.4814 23.3559C25.725 23.5868 25.9071 23.8567 26.0156 24.148C26.1242 24.4394 26.1568 24.7457 26.1115 25.0472L24.91 33.4282C24.8615 33.7531 24.6676 34.0509 24.3656 34.2642C24.0637 34.4774 23.6751 34.591 23.2749 34.583C22.8747 34.575 22.4913 34.446 22.1986 34.2208C21.9059 33.9957 21.7246 33.6904 21.6899 33.3638L20.8422 24.9418Z" fill="#F7802B"/>
</svg>
