<svg width="216" height="100" viewBox="0 0 216 100" fill="none" xmlns="http://www.w3.org/2000/svg">
<g clip-path="url(#clip0_1341_3291)">
<path d="M57.3847 88.3446C35.4927 94.4001 13.0585 81.3112 29.2374 49.9016C34.0958 36.9324 11.6788 41.0697 22.2049 54.7099C23.4565 56.768 22.8038 57.1163 21.7736 56.5229C-38.088 21.3752 63.9902 -23.5169 43.8246 56.1864C43.8246 56.1864 39.897 73.7591 51.0815 79.3097C62.266 84.8603 63.3047 83.9542 57.3847 88.3446Z" fill="#944D1A"/>
<path d="M31.7527 82.5355C36.0508 85.6937 41.6949 87.7545 46.6514 85.3274C46.8156 85.2477 46.9636 85.1529 47.0966 85.0529C48.0948 84.8596 49.0511 84.5128 49.8597 83.8887C51.388 82.7064 51.6895 81.0453 51.2594 79.3974C62.2763 84.851 63.2754 83.9784 57.3874 88.3465C42.5706 92.4437 27.508 87.7739 24.3324 74.5882C24.3474 74.501 24.3675 74.4156 24.3848 74.3281C26.1964 77.6024 28.8673 80.4173 31.753 82.5379L31.7527 82.5355Z" fill="#633311"/>
<path d="M14.6705 17.1965C17.334 15.4356 20.286 14.2453 23.4578 14.0431C27.9405 13.7551 32.0954 15.639 35.4551 18.6244C35.4494 18.7576 35.4521 18.8845 35.466 19.0073C30.1493 14.8195 23.2068 15.2446 17.438 17.8818C14.3877 19.2767 11.4268 21.2948 8.96758 23.8163C9.44935 20.8745 12.4669 18.6556 14.6686 17.1993L14.6705 17.1965Z" fill="#FAB380"/>
<path d="M16.0274 46.8018C16.0222 46.7053 16.0188 46.6359 16.0167 46.5912C16.0173 46.4863 16.016 46.3841 16.0166 46.2791C16.0216 46.0012 16.0339 45.7247 16.0508 45.4475C16.0916 44.7996 16.168 44.1538 16.2811 43.5175C16.3088 43.3585 16.3411 43.1988 16.3737 43.0416C16.4477 42.7532 16.5289 42.4663 16.6205 42.1853C16.8142 41.5842 17.0547 41.0135 17.306 40.4362C17.3274 40.3905 17.3429 40.3532 17.3545 40.3215C17.3719 40.2964 17.3951 40.263 17.4233 40.2162C17.6075 39.9262 17.7792 39.6306 17.979 39.3507C18.1264 39.1437 18.2849 38.9474 18.4406 38.7491C18.5485 38.6379 18.657 38.5316 18.7705 38.4271C18.9521 38.2598 19.1421 38.1012 19.3356 37.9497C19.4094 37.8936 19.4881 37.8392 19.5623 37.7855C19.5969 37.7653 19.6426 37.7409 19.7006 37.7047C19.9274 37.603 20.1413 37.4783 20.3692 37.3839C20.4932 37.3327 20.6202 37.2861 20.7471 37.2394C20.7632 37.237 20.7789 37.2321 20.797 37.2269C21.056 37.1827 21.3101 37.1219 21.5706 37.0875C21.6974 37.0708 22.7916 37.0453 22.1382 37.0317C22.6783 37.0424 23.2021 36.9458 23.6703 36.7452C23.6844 36.7455 23.699 36.7483 23.7131 36.7487C24.5743 37.033 25.46 37.1988 26.3548 37.2858C28.1886 37.9225 29.7863 39.0967 30.9642 40.8388C31.1088 42.5423 31.0797 44.2471 30.8875 45.9316C30.1674 48.9918 28.6697 51.9324 27.0121 54.7173C27.002 54.7288 26.9924 54.7427 26.9801 54.7546C27.6275 53.1885 28.3777 51.572 29.2374 49.9015C34.0958 36.9322 11.6788 41.0695 22.205 54.7097C23.4565 56.7678 22.8038 57.1161 21.7736 56.5228C21.0434 56.0938 20.3388 55.6635 19.6552 55.2324C18.7259 54.062 17.8797 52.8341 17.2139 51.494C16.9539 50.9715 16.7211 50.4424 16.5336 49.8864C16.5073 49.8055 16.4832 49.7243 16.4569 49.6433C16.4456 49.6001 16.4322 49.5422 16.4108 49.463C16.3621 49.2032 16.2974 48.9458 16.2483 48.6836C16.1348 48.0566 16.0874 47.432 16.0247 46.7997L16.0274 46.8018Z" fill="#633311"/>
<path d="M46.8985 75.9642C47.1152 76.2311 47.3403 76.4917 47.5804 76.7426C47.4212 76.8091 47.2745 76.8962 47.1411 76.9938C47.0753 76.6516 46.9857 76.3081 46.8985 75.9642Z" fill="#633311"/>
<path d="M74.323 44.9249C72.6446 45.1786 71.058 43.8891 70.7793 42.0447C70.5005 40.2004 71.6351 38.4996 73.3135 38.2459C74.9918 37.9923 76.5784 39.2818 76.8572 41.1261C77.1359 42.9705 76.0013 44.6713 74.323 44.9249Z" stroke="#3E655D" stroke-width="1.82" stroke-miterlimit="10"/>
<path d="M74.5159 44.6461C72.8376 44.8998 71.251 43.6103 70.9723 41.7659C70.6935 39.9216 71.8281 38.2208 73.5065 37.9671C75.1848 37.7135 76.7714 39.003 77.0502 40.8473C77.3289 42.6917 76.1943 44.3924 74.5159 44.6461Z" stroke="#65847D" stroke-width="1.82" stroke-miterlimit="10"/>
<path d="M59.2458 36.8762C59.2458 36.8762 71.1141 29.8388 77.1251 43.1627C78.4221 43.9655 78.3143 49.475 71.8324 51.7031C65.3505 53.9313 84.2031 57.3241 86.2181 59.7662C88.2331 62.2083 74.9742 64.7116 74.9742 64.7116C74.9742 64.7116 75.732 72.8369 78.3997 74.9306C79.6712 80.2317 70.6352 87.3403 70.6352 87.3403C70.6352 87.3403 73.0701 83.2269 83.0768 87.2077C87.8787 90.9764 66.0661 89.7787 60.6314 89.6014C54.4701 89.2842 32.6233 73.8593 56.4024 52.2874C56.4024 52.2874 59.8306 48.5233 55.321 40.4657C50.8114 32.4081 57.6991 32.8652 59.2458 36.8762Z" fill="#F7802B"/>
<path d="M72.6271 88.2453C70.9052 88.116 69.1351 87.7918 67.6266 87.036C68.0392 86.7789 68.4426 86.5082 68.8255 86.2256C70.9232 84.9372 72.8039 83.3171 74.1809 81.2737C74.7087 80.752 75.1769 80.1319 75.5108 79.4473C75.7942 79.0199 76.0364 78.5688 76.2247 78.0884C76.5634 77.2332 76.5999 76.1215 76.3409 75.1544C76.3012 74.9382 76.233 74.7363 76.1322 74.5518C75.6633 73.4716 74.7549 72.7349 73.4187 73.0567C73.455 71.7104 73.336 70.3476 73.2238 69.0137C73.0792 67.2952 72.9146 65.7396 73.4575 64.1818C73.5688 63.8604 73.6292 63.5291 73.6452 63.1996C75.338 63.0586 77.0526 63.1241 78.7213 62.6996C79.8556 62.4108 80.9535 62.0052 82.0367 61.5493C82.6445 61.2926 83.2468 60.9994 83.9133 60.976C84.1752 60.9664 85.422 61.0951 85.4001 61.5103C82.5908 63.2708 74.9761 64.7089 74.9761 64.7089C74.9761 64.7089 75.7339 72.8341 78.4016 74.9279C79.3743 78.9832 74.3138 84.0976 71.8826 86.2754C73.4536 85.4062 76.752 84.688 83.0787 87.2049C84.8421 88.5889 83.0148 89.302 79.73 89.6437C77.9274 88.031 74.8816 88.4139 72.6271 88.2453Z" fill="#C66622"/>
<path d="M54.4627 86.419C55.8826 87.4129 57.8963 88.6641 59.8694 89.1649C60.1449 89.323 60.4254 89.4679 60.7068 89.6026C60.6831 89.6012 60.6547 89.6005 60.631 89.5991C58.1451 89.4704 53.1053 86.8813 49.5411 82.4187C51.1113 83.8468 52.7347 85.2069 54.4623 86.4165L54.4627 86.419Z" fill="#C66622"/>
<path d="M56.8314 34.7945C56.8758 34.8078 56.9194 34.8162 56.9644 34.8344C57.8461 35.1605 58.7619 36.2107 59.1023 37.2653C58.9895 37.3273 58.8746 37.3921 58.764 37.4538C58.7252 37.4771 58.6891 37.5026 58.6507 37.5284C57.8466 37.56 57.3326 36.7413 57.0015 35.9973C56.9502 35.5956 56.8962 35.1918 56.8291 34.7949L56.8314 34.7945Z" fill="#FAB380"/>
<path d="M75.1376 48.8367C75.3945 48.9652 75.6468 49.0944 75.8925 49.227C75.5248 49.6097 75.0917 49.9798 74.594 50.3271C74.808 49.8454 74.9892 49.3485 75.1353 48.8371L75.1376 48.8367Z" fill="#FAB380"/>
<path d="M57.8583 53.8154C57.7999 54.5807 56.9666 55.3834 56.499 55.8985C55.6207 56.8702 54.6238 57.71 53.7508 58.6859C51.7931 60.8695 50.3858 63.9262 49.2945 66.6929C48.1437 69.611 47.8232 72.4684 47.9347 75.6327C47.9518 76.1195 47.9804 76.6045 48.0252 77.0872C47.3496 74.6399 47.0627 72.104 47.1776 69.5972C47.4898 66.9956 48.079 64.4072 49.4214 62.1968C49.4967 62.073 49.5392 61.9492 49.5582 61.8265C50.5517 60.1233 51.6347 58.4839 52.8619 56.9426C53.5319 56.1022 54.2513 55.2769 55.033 54.522C55.1465 54.4949 55.2601 54.4378 55.369 54.3489C56.01 53.83 56.6424 53.2226 57.398 52.8862C57.6902 53.0143 57.8818 53.5047 57.8583 53.8154Z" fill="#FAB380"/>
<path d="M72.0679 43.9274C71.4331 44.0233 70.8359 43.5546 70.734 42.8805C70.6321 42.2064 71.0641 41.5822 71.6989 41.4862C72.3337 41.3903 72.9309 41.859 73.0327 42.5331C73.1346 43.2072 72.7026 43.8314 72.0679 43.9274Z" fill="#190D04"/>
<path d="M72.4212 42.3758C72.2307 42.4046 72.0516 42.2639 72.021 42.0617C71.9904 41.8595 72.12 41.6722 72.3105 41.6434C72.5009 41.6146 72.6801 41.7552 72.7106 41.9575C72.7412 42.1597 72.6116 42.347 72.4212 42.3758Z" fill="#FEF2EA"/>
<path d="M77.687 45.3253C77.687 45.3253 79.4165 43.3585 77.1251 43.163C76.2633 43.6528 77.687 45.3253 77.687 45.3253Z" fill="#633311"/>
<path d="M74.8662 49.9963C74.8662 49.9963 73.4784 51.7042 72.4652 48.112C71.9487 44.6943 75.3713 48.6715 76.024 48.3231C76.6768 47.9748 75.9417 49.3343 74.8662 49.9963Z" fill="#7C4016"/>
<path d="M71.855 45.9571C69.8301 46.2632 67.916 44.7079 67.5797 42.4834C67.2435 40.2589 68.6125 38.2074 70.6375 37.9013C72.6624 37.5953 74.5765 39.1505 74.9127 41.3751C75.249 43.5996 73.88 45.6511 71.855 45.9571Z" stroke="#3E655D" stroke-width="2.2" stroke-miterlimit="10"/>
<path d="M72.0479 45.6783C70.0229 45.9844 68.1088 44.4291 67.7726 42.2046C67.4364 39.98 68.8054 37.9286 70.8303 37.6225C72.8553 37.3165 74.7694 38.8717 75.1056 41.0963C75.4418 43.3208 74.0729 45.3723 72.0479 45.6783Z" stroke="#65847D" stroke-width="2.2" stroke-miterlimit="10"/>
<path d="M76.9406 41.9426C76.9406 41.9426 76.1772 41.5586 75.3315 42.1858" stroke="#65847D" stroke-width="1.66" stroke-miterlimit="10" stroke-linecap="round"/>
</g>
<path d="M128.908 56.2492C128.908 56.2492 132.623 75.0736 120.35 75.2142C108.077 75.3548 111.055 56.442 111.055 56.442C111.055 56.442 119.104 48.8954 128.908 56.2492Z" fill="#944D1A"/>
<path d="M111.055 56.4419C111.055 56.4419 119.104 48.8953 128.909 56.2492C128.909 56.2492 128.99 56.6654 129.09 57.3744C128.812 57.2845 128.517 57.2473 128.228 57.2685C128.159 57.2737 127.603 57.2997 127.613 57.3061C127.337 57.3082 127.06 57.2948 126.784 57.2797C126.196 57.2461 125.608 57.1846 125.022 57.1123C123.885 56.9728 122.753 56.7865 121.614 56.6739C119.445 56.4583 117.203 56.5678 115.025 56.7874C114.467 56.3627 113.743 56.2506 113.04 56.5375C112.062 56.9359 111.562 58.3434 112.043 59.3468C112.047 59.3568 112.051 59.3654 112.056 59.3752C112.024 59.3986 111.99 59.4221 111.959 59.4492C111.377 59.9447 111.211 61.0155 111.757 61.6359C112.174 62.1084 112.468 62.5835 112.474 63.2077C112.481 63.9584 112.183 64.6733 111.893 65.3357C111.56 66.0968 112.026 67.0616 112.732 67.365C113.218 67.5737 113.715 67.4815 114.099 67.1953C114.241 67.5102 114.396 67.8164 114.563 68.1168C114.558 68.2284 114.562 68.3465 114.58 68.4717C114.903 70.7663 115.62 72.9816 117.004 74.6872C108.665 71.6366 111.055 56.446 111.055 56.446L111.055 56.4419Z" fill="#944D1A"/>
<path d="M129.209 57.5875C129.209 57.5875 132.582 54.6643 129.179 51.461C125.777 48.2564 114.28 47.5807 110.01 51.9845C105.741 56.3883 111.2 58.0899 111.2 58.0899C111.2 58.0899 129.322 58.231 129.209 57.5875Z" fill="#944D1A"/>
<path d="M108.853 53.4805C110.131 54.3186 111.611 54.8136 113.09 55.1584C114.174 55.9746 115.414 56.4662 116.728 56.7055C116.829 56.7588 116.936 56.7967 117.048 56.818C118.282 57.2658 119.559 57.5739 120.853 57.7107C122.612 57.8972 124.465 57.9573 126.191 57.5474C127.666 57.1979 129.766 56.6325 130.224 54.8951C130.233 54.8594 130.24 54.8241 130.249 54.7872C130.41 54.656 130.56 54.5093 130.696 54.3397C130.782 56.2244 129.21 57.587 129.21 57.587C129.322 58.2294 111.201 58.0894 111.201 58.0894C111.201 58.0894 106.997 56.7784 108.855 53.4801L108.853 53.4805Z" fill="#944D1A"/>
<path d="M120.333 49.6326C120.333 49.6326 119.987 46.5199 120.7 45.489C121.414 44.458 119.762 43.3889 119.486 45.6725C119.211 47.9561 119.585 49.6138 119.765 49.9823C119.945 50.3507 120.333 49.6326 120.333 49.6326Z" fill="#944D1A"/>
<path d="M119.767 47.1824C119.75 46.8157 119.721 46.4627 119.846 46.1167C120.018 45.6464 120.222 45.2872 120.32 44.7778C120.349 44.6217 120.338 44.4651 120.296 44.3185C120.739 44.2924 121.111 44.8956 120.7 45.4891C119.987 46.5201 120.333 49.6328 120.333 49.6328C120.333 49.6328 120.014 50.2231 119.819 50.0546C119.796 49.0967 119.812 48.1396 119.767 47.1824Z" fill="#944D1A"/>
<path d="M128.908 56.2492C128.908 56.2492 132.623 75.0736 120.35 75.2142C108.077 75.3548 111.055 56.442 111.055 56.442C111.055 56.442 119.104 48.8954 128.908 56.2492Z" fill="#F9A66B"/>
<path d="M129.209 57.5875C129.209 57.5875 132.582 54.6643 129.179 51.461C125.777 48.2564 114.28 47.5807 110.01 51.9845C105.741 56.3883 111.2 58.0899 111.2 58.0899C111.2 58.0899 129.322 58.231 129.209 57.5875Z" fill="#AD5A1E"/>
<path d="M108.853 53.4805C110.131 54.3186 111.611 54.8136 113.09 55.1584C114.174 55.9746 115.414 56.4662 116.728 56.7055C116.829 56.7588 116.936 56.7967 117.048 56.818C118.282 57.2658 119.559 57.5739 120.853 57.7107C122.612 57.8972 124.465 57.9573 126.191 57.5474C127.666 57.1979 129.766 56.6325 130.224 54.8951C130.233 54.8594 130.24 54.8241 130.249 54.7872C130.41 54.656 130.56 54.5093 130.696 54.3397C130.782 56.2244 129.21 57.587 129.21 57.587C129.322 58.2294 111.201 58.0894 111.201 58.0894C111.201 58.0894 106.997 56.7784 108.855 53.4801L108.853 53.4805Z" fill="#7C4016"/>
<path d="M120.333 49.6326C120.333 49.6326 119.987 46.5199 120.7 45.489C121.414 44.458 119.762 43.3889 119.486 45.6725C119.211 47.9561 119.585 49.6138 119.765 49.9823C119.945 50.3507 120.333 49.6326 120.333 49.6326Z" fill="#AD5A1E"/>
<path d="M119.767 47.1824C119.75 46.8157 119.721 46.4627 119.846 46.1167C120.018 45.6464 120.222 45.2872 120.32 44.7778C120.349 44.6217 120.338 44.4651 120.296 44.3185C120.739 44.2924 121.111 44.8956 120.7 45.4891C119.987 46.5201 120.333 49.6328 120.333 49.6328C120.333 49.6328 120.014 50.2231 119.819 50.0546C119.796 49.0967 119.812 48.1396 119.767 47.1824Z" fill="#7C4016"/>
<path d="M129.118 58.4595C129.118 58.4595 129.499 62.622 128.763 67.6126C128.763 67.6126 128.828 59.8222 128.346 59.1036C128.307 58.8458 129.118 58.4595 129.118 58.4595Z" fill="#B77B53"/>
<path d="M210.908 56.2492C210.908 56.2492 214.623 75.0736 202.35 75.2142C190.077 75.3548 193.055 56.442 193.055 56.442C193.055 56.442 201.104 48.8954 210.908 56.2492Z" fill="#944D1A"/>
<path d="M193.055 56.4419C193.055 56.4419 201.104 48.8953 210.909 56.2492C210.909 56.2492 210.99 56.6654 211.09 57.3744C210.812 57.2845 210.517 57.2473 210.228 57.2685C210.159 57.2737 209.603 57.2997 209.613 57.3061C209.337 57.3082 209.06 57.2948 208.784 57.2797C208.196 57.2461 207.608 57.1846 207.022 57.1123C205.885 56.9728 204.753 56.7865 203.614 56.6739C201.445 56.4583 199.203 56.5678 197.025 56.7874C196.467 56.3627 195.743 56.2506 195.04 56.5375C194.062 56.9359 193.562 58.3434 194.043 59.3468C194.047 59.3568 194.051 59.3654 194.056 59.3752C194.024 59.3986 193.99 59.4221 193.959 59.4492C193.377 59.9447 193.211 61.0155 193.757 61.6359C194.174 62.1084 194.468 62.5835 194.474 63.2077C194.481 63.9584 194.183 64.6733 193.893 65.3357C193.56 66.0968 194.026 67.0616 194.732 67.365C195.218 67.5737 195.715 67.4815 196.099 67.1953C196.241 67.5102 196.396 67.8164 196.563 68.1168C196.558 68.2284 196.562 68.3465 196.58 68.4717C196.903 70.7663 197.62 72.9816 199.004 74.6872C190.665 71.6366 193.055 56.446 193.055 56.446L193.055 56.4419Z" fill="#944D1A"/>
<path d="M211.209 57.5875C211.209 57.5875 214.582 54.6643 211.179 51.461C207.777 48.2564 196.28 47.5807 192.01 51.9845C187.741 56.3883 193.2 58.0899 193.2 58.0899C193.2 58.0899 211.322 58.231 211.209 57.5875Z" fill="#944D1A"/>
<path d="M190.853 53.4805C192.131 54.3186 193.611 54.8136 195.09 55.1584C196.174 55.9746 197.414 56.4662 198.728 56.7055C198.829 56.7588 198.936 56.7967 199.048 56.818C200.282 57.2658 201.559 57.5739 202.853 57.7107C204.612 57.8972 206.465 57.9573 208.191 57.5474C209.666 57.1979 211.766 56.6325 212.224 54.8951C212.233 54.8594 212.24 54.8241 212.249 54.7872C212.41 54.656 212.56 54.5093 212.696 54.3397C212.782 56.2244 211.21 57.587 211.21 57.587C211.322 58.2294 193.201 58.0894 193.201 58.0894C193.201 58.0894 188.997 56.7784 190.855 53.4801L190.853 53.4805Z" fill="#944D1A"/>
<path d="M202.333 49.6326C202.333 49.6326 201.987 46.5199 202.7 45.489C203.414 44.458 201.762 43.3889 201.486 45.6725C201.211 47.9561 201.585 49.6138 201.765 49.9823C201.945 50.3507 202.333 49.6326 202.333 49.6326Z" fill="#944D1A"/>
<path d="M201.767 47.1824C201.75 46.8157 201.721 46.4627 201.846 46.1167C202.018 45.6464 202.222 45.2872 202.32 44.7778C202.349 44.6217 202.338 44.4651 202.296 44.3185C202.739 44.2924 203.111 44.8956 202.7 45.4891C201.987 46.5201 202.333 49.6328 202.333 49.6328C202.333 49.6328 202.014 50.2231 201.819 50.0546C201.796 49.0967 201.812 48.1396 201.767 47.1824Z" fill="#944D1A"/>
<path d="M210.908 56.2492C210.908 56.2492 214.623 75.0736 202.35 75.2142C190.077 75.3548 193.055 56.442 193.055 56.442C193.055 56.442 201.104 48.8954 210.908 56.2492Z" fill="#F9A66B"/>
<path d="M211.209 57.5875C211.209 57.5875 214.582 54.6643 211.179 51.461C207.777 48.2564 196.28 47.5807 192.01 51.9845C187.741 56.3883 193.2 58.0899 193.2 58.0899C193.2 58.0899 211.322 58.231 211.209 57.5875Z" fill="#AD5A1E"/>
<path d="M190.853 53.4805C192.131 54.3186 193.611 54.8136 195.09 55.1584C196.174 55.9746 197.414 56.4662 198.728 56.7055C198.829 56.7588 198.936 56.7967 199.048 56.818C200.282 57.2658 201.559 57.5739 202.853 57.7107C204.612 57.8972 206.465 57.9573 208.191 57.5474C209.666 57.1979 211.766 56.6325 212.224 54.8951C212.233 54.8594 212.24 54.8241 212.249 54.7872C212.41 54.656 212.56 54.5093 212.696 54.3397C212.782 56.2244 211.21 57.587 211.21 57.587C211.322 58.2294 193.201 58.0894 193.201 58.0894C193.201 58.0894 188.997 56.7784 190.855 53.4801L190.853 53.4805Z" fill="#7C4016"/>
<path d="M202.333 49.6326C202.333 49.6326 201.987 46.5199 202.7 45.489C203.414 44.458 201.762 43.3889 201.486 45.6725C201.211 47.9561 201.585 49.6138 201.765 49.9823C201.945 50.3507 202.333 49.6326 202.333 49.6326Z" fill="#AD5A1E"/>
<path d="M201.767 47.1824C201.75 46.8157 201.721 46.4627 201.846 46.1167C202.018 45.6464 202.222 45.2872 202.32 44.7778C202.349 44.6217 202.338 44.4651 202.296 44.3185C202.739 44.2924 203.111 44.8956 202.7 45.4891C201.987 46.5201 202.333 49.6328 202.333 49.6328C202.333 49.6328 202.014 50.2231 201.819 50.0546C201.796 49.0967 201.812 48.1396 201.767 47.1824Z" fill="#7C4016"/>
<path d="M211.118 58.4595C211.118 58.4595 211.499 62.622 210.763 67.6126C210.763 67.6126 210.828 59.8222 210.346 59.1036C210.307 58.8458 211.118 58.4595 211.118 58.4595Z" fill="#B77B53"/>
<circle cx="161" cy="60" r="4" fill="#3E655D"/>
<defs>
<clipPath id="clip0_1341_3291">
<rect width="103.472" height="85.2947" fill="white" transform="matrix(-0.98877 0.149446 0.149446 0.98877 102.31 0)"/>
</clipPath>
</defs>
</svg>
