<svg width="394" height="110" viewBox="0 0 394 110" fill="none" xmlns="http://www.w3.org/2000/svg">
<g clip-path="url(#clip0_1459_4179)">
<path d="M298.385 98.3446C276.493 104.4 254.058 91.3112 270.237 59.9016C275.096 46.9324 252.679 51.0697 263.205 64.7099C264.456 66.768 263.804 67.1163 262.774 66.5229C202.912 31.3752 304.99 -13.5169 284.825 66.1864C284.825 66.1864 280.897 83.7591 292.081 89.3097C303.266 94.8603 304.305 93.9542 298.385 98.3446Z" fill="#944D1A"/>
<path d="M272.753 92.5355C277.051 95.6937 282.695 97.7545 287.651 95.3274C287.816 95.2477 287.963 95.1529 288.097 95.0529C289.095 94.8596 290.051 94.5128 290.86 93.8887C292.388 92.7064 292.689 91.0453 292.259 89.3974C303.276 94.851 304.275 93.9784 298.387 98.3465C283.571 102.444 268.508 97.7739 265.332 84.5882C265.347 84.501 265.367 84.4156 265.385 84.3281C267.196 87.6024 269.867 90.4173 272.753 92.5379L272.753 92.5355Z" fill="#633311"/>
<path d="M255.67 27.1965C258.334 25.4356 261.286 24.2453 264.458 24.0431C268.94 23.7551 273.095 25.639 276.455 28.6244C276.449 28.7576 276.452 28.8845 276.466 29.0073C271.149 24.8195 264.207 25.2446 258.438 27.8818C255.388 29.2767 252.427 31.2948 249.968 33.8163C250.449 30.8745 253.467 28.6556 255.668 27.1993L255.67 27.1965Z" fill="#FAB380"/>
<path d="M257.027 56.8018C257.022 56.7053 257.019 56.6359 257.017 56.5912C257.017 56.4863 257.016 56.3841 257.016 56.2791C257.022 56.0012 257.034 55.7247 257.051 55.4475C257.091 54.7996 257.168 54.1538 257.281 53.5175C257.309 53.3585 257.341 53.1988 257.374 53.0416C257.448 52.7532 257.529 52.4663 257.62 52.1853C257.814 51.5842 258.055 51.0135 258.306 50.4362C258.327 50.3905 258.343 50.3532 258.354 50.3215C258.372 50.2964 258.395 50.263 258.423 50.2162C258.607 49.9262 258.779 49.6306 258.979 49.3507C259.126 49.1437 259.285 48.9474 259.441 48.7491C259.548 48.6379 259.657 48.5316 259.77 48.4271C259.952 48.2598 260.142 48.1012 260.335 47.9497C260.409 47.8936 260.488 47.8392 260.562 47.7855C260.597 47.7653 260.643 47.7409 260.701 47.7047C260.927 47.603 261.141 47.4783 261.369 47.3839C261.493 47.3327 261.62 47.2861 261.747 47.2394C261.763 47.237 261.779 47.2321 261.797 47.2269C262.056 47.1827 262.31 47.1219 262.571 47.0875C262.697 47.0708 263.791 47.0453 263.138 47.0317C263.678 47.0424 264.202 46.9458 264.67 46.7452C264.684 46.7455 264.699 46.7483 264.713 46.7487C265.574 47.033 266.46 47.1988 267.355 47.2858C269.189 47.9225 270.786 49.0967 271.964 50.8388C272.109 52.5423 272.08 54.2471 271.887 55.9316C271.167 58.9918 269.67 61.9324 268.012 64.7173C268.002 64.7288 267.992 64.7427 267.98 64.7546C268.627 63.1885 269.378 61.572 270.237 59.9015C275.096 46.9322 252.679 51.0695 263.205 64.7097C264.456 66.7678 263.804 67.1161 262.774 66.5228C262.043 66.0938 261.339 65.6635 260.655 65.2324C259.726 64.062 258.88 62.8341 258.214 61.494C257.954 60.9715 257.721 60.4424 257.534 59.8864C257.507 59.8055 257.483 59.7243 257.457 59.6433C257.446 59.6001 257.432 59.5422 257.411 59.463C257.362 59.2032 257.297 58.9458 257.248 58.6836C257.135 58.0566 257.087 57.432 257.025 56.7997L257.027 56.8018Z" fill="#633311"/>
<path d="M287.898 85.9642C288.115 86.2311 288.34 86.4917 288.58 86.7426C288.421 86.8091 288.274 86.8962 288.141 86.9938C288.075 86.6516 287.986 86.3081 287.898 85.9642Z" fill="#633311"/>
<path d="M315.323 54.9249C313.645 55.1786 312.058 53.8891 311.779 52.0447C311.5 50.2004 312.635 48.4996 314.313 48.2459C315.992 47.9923 317.578 49.2818 317.857 51.1261C318.136 52.9705 317.001 54.6713 315.323 54.9249Z" stroke="#3E655D" stroke-width="1.82" stroke-miterlimit="10"/>
<path d="M315.516 54.6461C313.838 54.8998 312.251 53.6103 311.972 51.7659C311.693 49.9216 312.828 48.2208 314.506 47.9671C316.185 47.7135 317.771 49.003 318.05 50.8473C318.329 52.6917 317.194 54.3924 315.516 54.6461Z" stroke="#65847D" stroke-width="1.82" stroke-miterlimit="10"/>
<path d="M300.246 46.8762C300.246 46.8762 312.114 39.8388 318.125 53.1627C319.422 53.9655 319.314 59.475 312.832 61.7031C306.35 63.9313 325.203 67.3241 327.218 69.7662C329.233 72.2083 315.974 74.7116 315.974 74.7116C315.974 74.7116 316.732 82.8369 319.4 84.9306C320.671 90.2317 311.635 97.3403 311.635 97.3403C311.635 97.3403 314.07 93.2269 324.077 97.2077C328.879 100.976 307.066 99.7787 301.631 99.6014C295.47 99.2842 273.623 83.8593 297.402 62.2874C297.402 62.2874 300.831 58.5233 296.321 50.4657C291.811 42.4081 298.699 42.8652 300.246 46.8762Z" fill="#F7802B"/>
<path d="M313.627 98.2453C311.905 98.116 310.135 97.7918 308.626 97.036C309.039 96.7789 309.443 96.5082 309.825 96.2256C311.923 94.9372 313.804 93.3171 315.181 91.2737C315.709 90.752 316.177 90.1319 316.511 89.4473C316.794 89.0199 317.036 88.5688 317.225 88.0884C317.563 87.2332 317.6 86.1215 317.341 85.1544C317.301 84.9382 317.233 84.7363 317.132 84.5518C316.663 83.4716 315.755 82.7349 314.419 83.0567C314.455 81.7104 314.336 80.3476 314.224 79.0137C314.079 77.2952 313.915 75.7396 314.457 74.1818C314.569 73.8604 314.629 73.5291 314.645 73.1996C316.338 73.0586 318.052 73.1241 319.721 72.6996C320.856 72.4108 321.953 72.0052 323.037 71.5493C323.644 71.2926 324.247 70.9994 324.913 70.976C325.175 70.9664 326.422 71.0951 326.4 71.5103C323.591 73.2708 315.976 74.7089 315.976 74.7089C315.976 74.7089 316.734 82.8341 319.402 84.9279C320.374 88.9832 315.314 94.0976 312.883 96.2754C314.453 95.4062 317.752 94.6879 324.079 97.2049C325.842 98.5889 324.015 99.302 320.73 99.6437C318.927 98.031 315.881 98.4139 313.627 98.2453Z" fill="#C66622"/>
<path d="M295.463 96.419C296.882 97.4129 298.896 98.6641 300.869 99.1649C301.145 99.323 301.425 99.4679 301.707 99.6026C301.683 99.6012 301.655 99.6005 301.631 99.5991C299.145 99.4704 294.105 96.8813 290.541 92.4187C292.111 93.8468 293.735 95.2069 295.462 96.4165L295.463 96.419Z" fill="#C66622"/>
<path d="M297.831 44.7945C297.876 44.8078 297.919 44.8162 297.964 44.8344C298.846 45.1605 299.762 46.2107 300.102 47.2653C299.989 47.3273 299.875 47.3921 299.764 47.4538C299.725 47.4771 299.689 47.5026 299.651 47.5284C298.847 47.56 298.333 46.7413 298.001 45.9973C297.95 45.5956 297.896 45.1918 297.829 44.7949L297.831 44.7945Z" fill="#FAB380"/>
<path d="M316.138 58.8367C316.394 58.9652 316.647 59.0944 316.892 59.227C316.525 59.6097 316.092 59.9798 315.594 60.3271C315.808 59.8454 315.989 59.3485 316.135 58.8371L316.138 58.8367Z" fill="#FAB380"/>
<path d="M298.858 63.8154C298.8 64.5807 297.967 65.3834 297.499 65.8985C296.621 66.8702 295.624 67.71 294.751 68.6859C292.793 70.8695 291.386 73.9262 290.294 76.6929C289.144 79.611 288.823 82.4684 288.935 85.6327C288.952 86.1195 288.98 86.6045 289.025 87.0872C288.35 84.6399 288.063 82.104 288.178 79.5972C288.49 76.9956 289.079 74.4072 290.421 72.1968C290.497 72.073 290.539 71.9492 290.558 71.8265C291.552 70.1233 292.635 68.4839 293.862 66.9426C294.532 66.1022 295.251 65.2769 296.033 64.522C296.146 64.4949 296.26 64.4378 296.369 64.3489C297.01 63.83 297.642 63.2226 298.398 62.8862C298.69 63.0143 298.882 63.5047 298.858 63.8154Z" fill="#FAB380"/>
<path d="M313.068 53.9274C312.433 54.0233 311.836 53.5546 311.734 52.8805C311.632 52.2064 312.064 51.5822 312.699 51.4862C313.334 51.3903 313.931 51.859 314.033 52.5331C314.135 53.2072 313.703 53.8314 313.068 53.9274Z" fill="#190D04"/>
<path d="M313.421 52.3758C313.231 52.4046 313.051 52.2639 313.021 52.0617C312.99 51.8595 313.12 51.6722 313.31 51.6434C313.501 51.6146 313.68 51.7552 313.711 51.9575C313.741 52.1597 313.611 52.347 313.421 52.3758Z" fill="#FEF2EA"/>
<path d="M318.687 55.3253C318.687 55.3253 320.416 53.3585 318.125 53.163C317.263 53.6528 318.687 55.3253 318.687 55.3253Z" fill="#633311"/>
<path d="M315.866 59.9963C315.866 59.9963 314.478 61.7042 313.465 58.112C312.949 54.6943 316.371 58.6715 317.024 58.3231C317.677 57.9748 316.942 59.3343 315.866 59.9963Z" fill="#7C4016"/>
<path d="M312.855 55.9571C310.83 56.2632 308.916 54.7079 308.58 52.4834C308.243 50.2589 309.612 48.2074 311.637 47.9013C313.662 47.5953 315.576 49.1505 315.913 51.3751C316.249 53.5996 314.88 55.6511 312.855 55.9571Z" stroke="#3E655D" stroke-width="2.2" stroke-miterlimit="10"/>
<path d="M313.048 55.6783C311.023 55.9844 309.109 54.4291 308.773 52.2046C308.436 49.98 309.805 47.9286 311.83 47.6225C313.855 47.3165 315.769 48.8717 316.106 51.0963C316.442 53.3208 315.073 55.3723 313.048 55.6783Z" stroke="#65847D" stroke-width="2.2" stroke-miterlimit="10"/>
<path d="M317.941 51.9426C317.941 51.9426 317.177 51.5586 316.331 52.1858" stroke="#65847D" stroke-width="1.66" stroke-miterlimit="10" stroke-linecap="round"/>
</g>
<path d="M388.908 56.2492C388.908 56.2492 392.623 75.0736 380.35 75.2142C368.077 75.3548 371.055 56.442 371.055 56.442C371.055 56.442 379.104 48.8954 388.908 56.2492Z" fill="#944D1A"/>
<path d="M371.055 56.4419C371.055 56.4419 379.104 48.8953 388.908 56.2492C388.908 56.2492 388.99 56.6654 389.09 57.3744C388.812 57.2845 388.517 57.2473 388.228 57.2685C388.159 57.2737 387.603 57.2997 387.613 57.3061C387.337 57.3082 387.06 57.2948 386.784 57.2797C386.195 57.2461 385.607 57.1846 385.022 57.1123C383.885 56.9728 382.753 56.7865 381.614 56.6739C379.445 56.4583 377.203 56.5678 375.025 56.7874C374.467 56.3627 373.743 56.2506 373.04 56.5375C372.062 56.9359 371.562 58.3434 372.043 59.3468C372.047 59.3568 372.051 59.3654 372.056 59.3752C372.024 59.3986 371.99 59.4221 371.959 59.4492C371.377 59.9447 371.211 61.0155 371.757 61.6359C372.174 62.1084 372.468 62.5835 372.474 63.2077C372.481 63.9584 372.183 64.6733 371.893 65.3357C371.559 66.0968 372.026 67.0616 372.732 67.365C373.218 67.5737 373.715 67.4815 374.099 67.1953C374.241 67.5102 374.396 67.8164 374.563 68.1168C374.558 68.2284 374.562 68.3465 374.58 68.4717C374.903 70.7663 375.62 72.9816 377.004 74.6872C368.665 71.6366 371.055 56.446 371.055 56.446L371.055 56.4419Z" fill="#944D1A"/>
<path d="M389.209 57.5875C389.209 57.5875 392.582 54.6643 389.179 51.461C385.777 48.2564 374.28 47.5807 370.01 51.9845C365.741 56.3883 371.2 58.0899 371.2 58.0899C371.2 58.0899 389.322 58.231 389.209 57.5875Z" fill="#944D1A"/>
<path d="M368.853 53.4805C370.131 54.3186 371.611 54.8136 373.09 55.1584C374.174 55.9746 375.414 56.4662 376.728 56.7055C376.829 56.7587 376.935 56.7967 377.048 56.818C378.282 57.2658 379.559 57.5739 380.853 57.7107C382.612 57.8972 384.465 57.9573 386.191 57.5474C387.666 57.1979 389.766 56.6325 390.224 54.8951C390.233 54.8594 390.24 54.8241 390.248 54.7872C390.41 54.656 390.56 54.5093 390.696 54.3397C390.782 56.2244 389.21 57.587 389.21 57.587C389.322 58.2294 371.201 58.0894 371.201 58.0894C371.201 58.0894 366.997 56.7784 368.855 53.4801L368.853 53.4805Z" fill="#944D1A"/>
<path d="M380.333 49.6326C380.333 49.6326 379.987 46.5199 380.7 45.489C381.414 44.458 379.762 43.3889 379.486 45.6725C379.211 47.9561 379.585 49.6138 379.765 49.9823C379.945 50.3507 380.333 49.6326 380.333 49.6326Z" fill="#944D1A"/>
<path d="M379.767 47.1824C379.75 46.8157 379.721 46.4627 379.847 46.1167C380.018 45.6464 380.222 45.2872 380.32 44.7778C380.35 44.6217 380.338 44.4651 380.296 44.3185C380.739 44.2924 381.111 44.8956 380.7 45.4891C379.987 46.5201 380.333 49.6328 380.333 49.6328C380.333 49.6328 380.014 50.2231 379.82 50.0546C379.796 49.0967 379.812 48.1396 379.767 47.1824Z" fill="#944D1A"/>
<path d="M388.908 56.2492C388.908 56.2492 392.623 75.0736 380.35 75.2142C368.077 75.3548 371.055 56.442 371.055 56.442C371.055 56.442 379.104 48.8954 388.908 56.2492Z" fill="#F9A66B"/>
<path d="M389.209 57.5875C389.209 57.5875 392.582 54.6643 389.179 51.461C385.777 48.2564 374.28 47.5807 370.01 51.9845C365.741 56.3883 371.2 58.0899 371.2 58.0899C371.2 58.0899 389.322 58.231 389.209 57.5875Z" fill="#AD5A1E"/>
<path d="M368.853 53.4805C370.131 54.3186 371.611 54.8136 373.09 55.1584C374.174 55.9746 375.414 56.4662 376.728 56.7055C376.829 56.7587 376.935 56.7967 377.048 56.818C378.282 57.2658 379.559 57.5739 380.853 57.7107C382.612 57.8972 384.465 57.9573 386.191 57.5474C387.666 57.1979 389.766 56.6325 390.224 54.8951C390.233 54.8594 390.24 54.8241 390.248 54.7872C390.41 54.656 390.56 54.5093 390.696 54.3397C390.782 56.2244 389.21 57.587 389.21 57.587C389.322 58.2294 371.201 58.0894 371.201 58.0894C371.201 58.0894 366.997 56.7784 368.855 53.4801L368.853 53.4805Z" fill="#7C4016"/>
<path d="M380.333 49.6326C380.333 49.6326 379.987 46.5199 380.7 45.489C381.414 44.458 379.762 43.3889 379.486 45.6725C379.211 47.9561 379.585 49.6138 379.765 49.9823C379.945 50.3507 380.333 49.6326 380.333 49.6326Z" fill="#AD5A1E"/>
<path d="M379.767 47.1824C379.75 46.8157 379.721 46.4627 379.847 46.1167C380.018 45.6464 380.222 45.2872 380.32 44.7778C380.35 44.6217 380.338 44.4651 380.296 44.3185C380.739 44.2924 381.111 44.8956 380.7 45.4891C379.987 46.5201 380.333 49.6328 380.333 49.6328C380.333 49.6328 380.014 50.2231 379.82 50.0546C379.796 49.0967 379.812 48.1396 379.767 47.1824Z" fill="#7C4016"/>
<path d="M389.118 58.4595C389.118 58.4595 389.499 62.622 388.763 67.6126C388.763 67.6126 388.828 59.8222 388.346 59.1036C388.307 58.8458 389.118 58.4595 389.118 58.4595Z" fill="#B77B53"/>
<defs>
<clipPath id="clip0_1459_4179">
<rect width="103.472" height="85.2947" fill="white" transform="matrix(-0.98877 0.149446 0.149446 0.98877 343.31 10)"/>
</clipPath>
</defs>
</svg>
