<svg width="300" height="100" viewBox="0 0 300 100" fill="none" xmlns="http://www.w3.org/2000/svg">
<g clip-path="url(#clip0_1341_3290)">
<path d="M57.3847 88.3444C35.4927 94.3998 13.0584 81.3109 29.2373 49.9014C34.0957 36.9322 11.6787 41.0694 22.2049 54.7097C23.4564 56.7677 22.8037 57.1161 21.7735 56.5227C-38.088 21.3749 63.9902 -23.5171 43.8245 56.1862C43.8245 56.1862 39.897 73.7588 51.0814 79.3094C62.2659 84.86 63.3046 83.954 57.3847 88.3444Z" fill="#944D1A"/>
<path d="M31.7526 82.5355C36.0507 85.6937 41.6949 87.7545 46.6513 85.3274C46.8156 85.2477 46.9635 85.1529 47.0965 85.0529C48.0948 84.8596 49.0511 84.5128 49.8596 83.8887C51.3879 82.7064 51.6894 81.0453 51.2593 79.3974C62.2763 84.851 63.2754 83.9784 57.3873 88.3465C42.5705 92.4437 27.508 87.7739 24.3323 74.5882C24.3474 74.501 24.3674 74.4156 24.3847 74.3281C26.1963 77.6024 28.8672 80.4173 31.753 82.5379L31.7526 82.5355Z" fill="#633311"/>
<path d="M14.6704 17.1962C17.3339 15.4353 20.2859 14.2451 23.4578 14.0428C27.9404 13.7548 32.0953 15.6388 35.4551 18.6241C35.4493 18.7573 35.452 18.8843 35.4659 19.007C30.1492 14.8193 23.2067 15.2443 17.438 17.8816C14.3876 19.2765 11.4267 21.2945 8.96752 23.8161C9.44929 20.8743 12.4668 18.6554 14.6685 17.199L14.6704 17.1962Z" fill="#FAB380"/>
<path d="M16.0274 46.8018C16.0222 46.7053 16.0187 46.6359 16.0167 46.5912C16.0173 46.4863 16.0159 46.3841 16.0165 46.2791C16.0216 46.0012 16.0338 45.7247 16.0507 45.4475C16.0915 44.7996 16.1679 44.1538 16.281 43.5175C16.3087 43.3585 16.341 43.1988 16.3737 43.0416C16.4476 42.7532 16.5289 42.4663 16.6204 42.1853C16.8141 41.5842 17.0547 41.0135 17.306 40.4362C17.3273 40.3905 17.3428 40.3532 17.3545 40.3215C17.3718 40.2964 17.395 40.263 17.4232 40.2162C17.6074 39.9262 17.7791 39.6306 17.979 39.3507C18.1264 39.1437 18.2848 38.9474 18.4406 38.7491C18.5484 38.6379 18.6569 38.5316 18.7705 38.4271C18.9521 38.2598 19.1421 38.1012 19.3355 37.9497C19.4093 37.8936 19.4881 37.8392 19.5623 37.7855C19.5968 37.7653 19.6425 37.7409 19.7005 37.7047C19.9273 37.603 20.1413 37.4783 20.3692 37.3839C20.4931 37.3327 20.6201 37.2861 20.7471 37.2394C20.7632 37.237 20.7789 37.2321 20.7969 37.2269C21.0559 37.1827 21.31 37.1219 21.5705 37.0875C21.6973 37.0708 22.7915 37.0453 22.1382 37.0317C22.6782 37.0424 23.2021 36.9458 23.6702 36.7452C23.6844 36.7455 23.6989 36.7483 23.7131 36.7487C24.5743 37.033 25.4599 37.1988 26.3548 37.2858C28.1886 37.9225 29.7862 39.0967 30.9642 40.8388C31.1088 42.5423 31.0796 44.2471 30.8875 45.9316C30.1673 48.9918 28.6696 51.9324 27.012 54.7173C27.002 54.7288 26.9923 54.7427 26.98 54.7546C27.6274 53.1885 28.3777 51.572 29.2373 49.9015C34.0958 36.9322 11.6787 41.0695 22.2049 54.7097C23.4565 56.7678 22.8037 57.1161 21.7735 56.5228C21.0433 56.0938 20.3387 55.6635 19.6552 55.2324C18.7259 54.062 17.8796 52.8341 17.2138 51.494C16.9538 50.9715 16.721 50.4424 16.5335 49.8864C16.5072 49.8055 16.4832 49.7243 16.4568 49.6433C16.4456 49.6001 16.4321 49.5422 16.4108 49.463C16.3621 49.2032 16.2973 48.9458 16.2483 48.6836C16.1347 48.0566 16.0873 47.432 16.0247 46.7997L16.0274 46.8018Z" fill="#633311"/>
<path d="M46.8984 75.9642C47.1151 76.2311 47.3403 76.4917 47.5804 76.7426C47.4211 76.8091 47.2744 76.8962 47.141 76.9938C47.0752 76.6516 46.9857 76.3081 46.8984 75.9642Z" fill="#633311"/>
<path d="M74.3229 44.9249C72.6445 45.1786 71.058 43.8891 70.7792 42.0447C70.5004 40.2004 71.6351 38.4996 73.3134 38.2459C74.9918 37.9923 76.5783 39.2818 76.8571 41.1261C77.1359 42.9705 76.0013 44.6713 74.3229 44.9249Z" stroke="#3E655D" stroke-width="1.82" stroke-miterlimit="10"/>
<path d="M74.5159 44.6459C72.8375 44.8995 71.251 43.61 70.9722 41.7657C70.6934 39.9213 71.828 38.2206 73.5064 37.9669C75.1848 37.7132 76.7713 39.0027 77.0501 40.8471C77.3289 42.6914 76.1943 44.3922 74.5159 44.6459Z" stroke="#65847D" stroke-width="1.82" stroke-miterlimit="10"/>
<path d="M59.2458 36.8764C59.2458 36.8764 71.1141 29.8391 77.125 43.163C78.422 43.9657 78.3142 49.4752 71.8323 51.7034C65.3504 53.9315 84.2031 57.3244 86.2181 59.7664C88.233 62.2085 74.9741 64.7119 74.9741 64.7119C74.9741 64.7119 75.7319 72.8372 78.3996 74.9309C79.6711 80.2319 70.6351 87.3406 70.6351 87.3406C70.6351 87.3406 73.07 83.2272 83.0767 87.2079C87.8786 90.9766 66.066 89.779 60.6313 89.6016C54.4701 89.2844 32.6233 73.8595 56.4023 52.2877C56.4023 52.2877 59.8305 48.5235 55.3209 40.4659C50.8113 32.4083 57.6991 32.8654 59.2458 36.8764Z" fill="#F7802B"/>
<path d="M72.627 88.2455C70.9052 88.1163 69.135 87.792 67.6265 87.0362C68.0391 86.7791 68.4426 86.5084 68.8254 86.2258C70.9232 84.9374 72.8039 83.3173 74.1809 81.274C74.7086 80.7523 75.1769 80.1322 75.5107 79.4475C75.7941 79.0201 76.0363 78.569 76.2247 78.0886C76.5633 77.2334 76.5999 76.1218 76.3408 75.1547C76.3011 74.9385 76.233 74.7365 76.1322 74.552C75.6633 73.4718 74.7548 72.7352 73.4186 73.057C73.4549 71.7107 73.3359 70.3478 73.2237 69.014C73.0792 67.2955 72.9146 65.7398 73.4574 64.1821C73.5687 63.8606 73.6291 63.5294 73.6452 63.1999C75.3379 63.0589 77.0525 63.1243 78.7212 62.6998C79.8555 62.411 80.9534 62.0054 82.0366 61.5495C82.6444 61.2929 83.2467 60.9996 83.9133 60.9763C84.1752 60.9666 85.422 61.0953 85.4001 61.5106C82.5907 63.2711 74.976 64.7091 74.976 64.7091C74.976 64.7091 75.7339 72.8344 78.4016 74.9281C79.3742 78.9834 74.3138 84.0979 71.8825 86.2756C73.4535 85.4065 76.7519 84.6882 83.0787 87.2052C84.842 88.5891 83.0147 89.3023 79.7299 89.6439C77.9273 88.0312 74.8815 88.4141 72.627 88.2455Z" fill="#C66622"/>
<path d="M54.4626 86.419C55.8825 87.4129 57.8961 88.6641 59.8693 89.1649C60.1448 89.323 60.4253 89.4679 60.7067 89.6026C60.683 89.6012 60.6546 89.6005 60.6309 89.5991C58.145 89.4704 53.1052 86.8813 49.541 82.4187C51.1112 83.8468 52.7346 85.2069 54.4622 86.4165L54.4626 86.419Z" fill="#C66622"/>
<path d="M56.8314 34.7943C56.8757 34.8076 56.9193 34.816 56.9644 34.8341C57.846 35.1603 58.7618 36.2104 59.1023 37.2651C58.9894 37.3271 58.8746 37.3919 58.764 37.4536C58.7252 37.4769 58.6891 37.5023 58.6506 37.5281C57.8466 37.5598 57.3325 36.7411 57.0014 35.9971C56.9501 35.5953 56.8961 35.1915 56.8291 34.7946L56.8314 34.7943Z" fill="#FAB380"/>
<path d="M75.1375 48.8367C75.3944 48.9652 75.6467 49.0944 75.8925 49.227C75.5247 49.6097 75.0916 49.9798 74.5939 50.3271C74.8079 49.8454 74.9891 49.3485 75.1352 48.8371L75.1375 48.8367Z" fill="#FAB380"/>
<path d="M57.8582 53.8154C57.7999 54.5807 56.9666 55.3834 56.4989 55.8985C55.6207 56.8702 54.6237 57.71 53.7508 58.6859C51.793 60.8695 50.3858 63.9262 49.2944 66.6929C48.1437 69.611 47.8231 72.4684 47.9346 75.6327C47.9517 76.1195 47.9804 76.6045 48.0251 77.0872C47.3496 74.6399 47.0627 72.104 47.1776 69.5972C47.4897 66.9956 48.079 64.4072 49.4213 62.1968C49.4967 62.073 49.5391 61.9492 49.5582 61.8265C50.5516 60.1233 51.6346 58.4839 52.8618 56.9426C53.5319 56.1022 54.2512 55.2769 55.033 54.522C55.1464 54.4949 55.2601 54.4378 55.3689 54.3489C56.01 53.83 56.6423 53.2226 57.398 52.8862C57.6901 53.0143 57.8818 53.5047 57.8582 53.8154Z" fill="#FAB380"/>
<path d="M72.0678 43.9274C71.433 44.0233 70.8358 43.5546 70.7339 42.8805C70.6321 42.2064 71.0641 41.5822 71.6988 41.4862C72.3336 41.3903 72.9308 41.859 73.0327 42.5331C73.1346 43.2072 72.7026 43.8314 72.0678 43.9274Z" fill="#190D04"/>
<path d="M72.4211 42.3758C72.2307 42.4046 72.0515 42.2639 72.0209 42.0617C71.9904 41.8595 72.12 41.6722 72.3104 41.6434C72.5008 41.6146 72.68 41.7552 72.7106 41.9575C72.7411 42.1597 72.6115 42.347 72.4211 42.3758Z" fill="#FEF2EA"/>
<path d="M77.6869 45.3253C77.6869 45.3253 79.4165 43.3585 77.125 43.163C76.2632 43.6528 77.6869 45.3253 77.6869 45.3253Z" fill="#633311"/>
<path d="M74.866 49.9963C74.866 49.9963 73.4783 51.7042 72.4651 48.112C71.9486 44.6943 75.3712 48.6715 76.0239 48.3231C76.6766 47.9748 75.9416 49.3343 74.866 49.9963Z" fill="#7C4016"/>
<path d="M71.8549 45.9571C69.83 46.2632 67.9158 44.7079 67.5796 42.4834C67.2434 40.2589 68.6124 38.2074 70.6373 37.9013C72.6623 37.5953 74.5764 39.1505 74.9126 41.3751C75.2488 43.5996 73.8799 45.6511 71.8549 45.9571Z" stroke="#3E655D" stroke-width="2.2" stroke-miterlimit="10"/>
<path d="M72.0479 45.6781C70.0229 45.9841 68.1088 44.4289 67.7726 42.2043C67.4364 39.9798 68.8054 37.9283 70.8303 37.6223C72.8553 37.3162 74.7694 38.8715 75.1056 41.096C75.4418 43.3206 74.0729 45.372 72.0479 45.6781Z" stroke="#65847D" stroke-width="2.2" stroke-miterlimit="10"/>
<path d="M76.9405 41.9423C76.9405 41.9423 76.1771 41.5583 75.3314 42.1855" stroke="#65847D" stroke-width="1.66" stroke-miterlimit="10" stroke-linecap="round"/>
</g>
<path d="M130.908 56.2492C130.908 56.2492 134.623 75.0736 122.35 75.2142C110.077 75.3548 113.055 56.442 113.055 56.442C113.055 56.442 121.104 48.8954 130.908 56.2492Z" fill="#944D1A"/>
<path d="M113.055 56.4419C113.055 56.4419 121.104 48.8953 130.908 56.2492C130.908 56.2492 130.99 56.6654 131.09 57.3744C130.812 57.2845 130.517 57.2473 130.228 57.2685C130.159 57.2737 129.603 57.2997 129.613 57.3061C129.337 57.3082 129.06 57.2948 128.784 57.2797C128.195 57.2461 127.607 57.1846 127.022 57.1123C125.885 56.9728 124.753 56.7865 123.614 56.6739C121.445 56.4583 119.203 56.5678 117.025 56.7874C116.467 56.3627 115.743 56.2506 115.04 56.5375C114.062 56.9359 113.562 58.3434 114.043 59.3468C114.047 59.3568 114.051 59.3654 114.056 59.3752C114.024 59.3986 113.99 59.4221 113.959 59.4492C113.377 59.9447 113.211 61.0155 113.757 61.6359C114.174 62.1084 114.468 62.5835 114.474 63.2077C114.481 63.9584 114.183 64.6733 113.893 65.3357C113.559 66.0968 114.026 67.0616 114.732 67.365C115.218 67.5737 115.715 67.4815 116.099 67.1953C116.241 67.5102 116.396 67.8164 116.563 68.1168C116.558 68.2284 116.562 68.3465 116.58 68.4717C116.903 70.7663 117.62 72.9816 119.004 74.6872C110.665 71.6366 113.055 56.446 113.055 56.446L113.055 56.4419Z" fill="#944D1A"/>
<path d="M131.209 57.5872C131.209 57.5872 134.582 54.6641 131.179 51.4607C127.777 48.2561 116.28 47.5805 112.01 51.9843C107.741 56.388 113.2 58.0897 113.2 58.0897C113.2 58.0897 131.322 58.2308 131.209 57.5872Z" fill="#944D1A"/>
<path d="M110.853 53.4805C112.131 54.3186 113.611 54.8136 115.09 55.1584C116.174 55.9746 117.414 56.4662 118.728 56.7055C118.829 56.7588 118.935 56.7967 119.048 56.818C120.282 57.2658 121.559 57.5739 122.853 57.7107C124.612 57.8972 126.465 57.9573 128.191 57.5474C129.666 57.1979 131.766 56.6325 132.224 54.8951C132.233 54.8594 132.24 54.8241 132.248 54.7872C132.41 54.656 132.56 54.5093 132.696 54.3397C132.782 56.2244 131.21 57.587 131.21 57.587C131.322 58.2294 113.201 58.0894 113.201 58.0894C113.201 58.0894 108.997 56.7784 110.855 53.4801L110.853 53.4805Z" fill="#944D1A"/>
<path d="M122.333 49.6329C122.333 49.6329 121.987 46.5202 122.7 45.4892C123.414 44.4582 121.762 43.3891 121.486 45.6727C121.211 47.9563 121.585 49.6141 121.765 49.9825C121.945 50.3509 122.333 49.6329 122.333 49.6329Z" fill="#944D1A"/>
<path d="M121.767 47.1824C121.75 46.8157 121.721 46.4627 121.847 46.1167C122.018 45.6464 122.222 45.2872 122.32 44.7778C122.35 44.6217 122.338 44.4651 122.296 44.3185C122.739 44.2924 123.111 44.8956 122.7 45.4891C121.987 46.5201 122.333 49.6328 122.333 49.6328C122.333 49.6328 122.014 50.2231 121.82 50.0546C121.796 49.0967 121.812 48.1396 121.767 47.1824Z" fill="#944D1A"/>
<path d="M130.908 56.2492C130.908 56.2492 134.623 75.0736 122.35 75.2142C110.077 75.3548 113.055 56.442 113.055 56.442C113.055 56.442 121.104 48.8954 130.908 56.2492Z" fill="#F9A66B"/>
<path d="M131.209 57.5872C131.209 57.5872 134.582 54.6641 131.179 51.4607C127.777 48.2561 116.28 47.5805 112.01 51.9843C107.741 56.388 113.2 58.0897 113.2 58.0897C113.2 58.0897 131.322 58.2308 131.209 57.5872Z" fill="#AD5A1E"/>
<path d="M110.853 53.4805C112.131 54.3186 113.611 54.8136 115.09 55.1584C116.174 55.9746 117.414 56.4662 118.728 56.7055C118.829 56.7588 118.935 56.7967 119.048 56.818C120.282 57.2658 121.559 57.5739 122.853 57.7107C124.612 57.8972 126.465 57.9573 128.191 57.5474C129.666 57.1979 131.766 56.6325 132.224 54.8951C132.233 54.8594 132.24 54.8241 132.248 54.7872C132.41 54.656 132.56 54.5093 132.696 54.3397C132.782 56.2244 131.21 57.587 131.21 57.587C131.322 58.2294 113.201 58.0894 113.201 58.0894C113.201 58.0894 108.997 56.7784 110.855 53.4801L110.853 53.4805Z" fill="#7C4016"/>
<path d="M122.333 49.6329C122.333 49.6329 121.987 46.5202 122.7 45.4892C123.414 44.4582 121.762 43.3891 121.486 45.6727C121.211 47.9563 121.585 49.6141 121.765 49.9825C121.945 50.3509 122.333 49.6329 122.333 49.6329Z" fill="#AD5A1E"/>
<path d="M121.767 47.1824C121.75 46.8157 121.721 46.4627 121.847 46.1167C122.018 45.6464 122.222 45.2872 122.32 44.7778C122.35 44.6217 122.338 44.4651 122.296 44.3185C122.739 44.2924 123.111 44.8956 122.7 45.4891C121.987 46.5201 122.333 49.6328 122.333 49.6328C122.333 49.6328 122.014 50.2231 121.82 50.0546C121.796 49.0967 121.812 48.1396 121.767 47.1824Z" fill="#7C4016"/>
<path d="M131.118 58.4595C131.118 58.4595 131.499 62.622 130.763 67.6126C130.763 67.6126 130.828 59.8222 130.346 59.1036C130.307 58.8458 131.118 58.4595 131.118 58.4595Z" fill="#B77B53"/>
<path d="M212.908 56.2492C212.908 56.2492 216.623 75.0736 204.35 75.2142C192.077 75.3548 195.055 56.442 195.055 56.442C195.055 56.442 203.104 48.8954 212.908 56.2492Z" fill="#944D1A"/>
<path d="M195.055 56.4419C195.055 56.4419 203.104 48.8953 212.909 56.2492C212.909 56.2492 212.99 56.6654 213.09 57.3744C212.812 57.2845 212.517 57.2473 212.228 57.2685C212.159 57.2737 211.603 57.2997 211.613 57.3061C211.337 57.3082 211.06 57.2948 210.784 57.2797C210.196 57.2461 209.608 57.1846 209.022 57.1123C207.885 56.9728 206.753 56.7865 205.614 56.6739C203.445 56.4583 201.203 56.5678 199.025 56.7874C198.467 56.3627 197.743 56.2506 197.04 56.5375C196.062 56.9359 195.562 58.3434 196.043 59.3468C196.047 59.3568 196.051 59.3654 196.056 59.3752C196.024 59.3986 195.99 59.4221 195.959 59.4492C195.377 59.9447 195.211 61.0155 195.757 61.6359C196.174 62.1084 196.468 62.5835 196.474 63.2077C196.481 63.9584 196.183 64.6733 195.893 65.3357C195.56 66.0968 196.026 67.0616 196.732 67.365C197.218 67.5737 197.715 67.4815 198.099 67.1953C198.241 67.5102 198.396 67.8164 198.563 68.1168C198.558 68.2284 198.562 68.3465 198.58 68.4717C198.903 70.7663 199.62 72.9816 201.004 74.6872C192.665 71.6366 195.055 56.446 195.055 56.446L195.055 56.4419Z" fill="#944D1A"/>
<path d="M213.209 57.5872C213.209 57.5872 216.582 54.6641 213.179 51.4607C209.777 48.2561 198.28 47.5805 194.01 51.9843C189.741 56.388 195.2 58.0897 195.2 58.0897C195.2 58.0897 213.322 58.2308 213.209 57.5872Z" fill="#944D1A"/>
<path d="M192.853 53.4805C194.131 54.3186 195.611 54.8136 197.09 55.1584C198.174 55.9746 199.414 56.4662 200.728 56.7055C200.829 56.7588 200.936 56.7967 201.048 56.818C202.282 57.2658 203.559 57.5739 204.853 57.7107C206.612 57.8972 208.465 57.9573 210.191 57.5474C211.666 57.1979 213.766 56.6325 214.224 54.8951C214.233 54.8594 214.24 54.8241 214.249 54.7872C214.41 54.656 214.56 54.5093 214.696 54.3397C214.782 56.2244 213.21 57.587 213.21 57.587C213.322 58.2294 195.201 58.0894 195.201 58.0894C195.201 58.0894 190.997 56.7784 192.855 53.4801L192.853 53.4805Z" fill="#944D1A"/>
<path d="M204.333 49.6329C204.333 49.6329 203.987 46.5202 204.7 45.4892C205.414 44.4582 203.762 43.3891 203.486 45.6727C203.211 47.9563 203.585 49.6141 203.765 49.9825C203.945 50.3509 204.333 49.6329 204.333 49.6329Z" fill="#944D1A"/>
<path d="M203.767 47.1824C203.75 46.8157 203.721 46.4627 203.846 46.1167C204.018 45.6464 204.222 45.2872 204.32 44.7778C204.349 44.6217 204.338 44.4651 204.296 44.3185C204.739 44.2924 205.111 44.8956 204.7 45.4891C203.987 46.5201 204.333 49.6328 204.333 49.6328C204.333 49.6328 204.014 50.2231 203.819 50.0546C203.796 49.0967 203.812 48.1396 203.767 47.1824Z" fill="#944D1A"/>
<path d="M212.908 56.2492C212.908 56.2492 216.623 75.0736 204.35 75.2142C192.077 75.3548 195.055 56.442 195.055 56.442C195.055 56.442 203.104 48.8954 212.908 56.2492Z" fill="#F9A66B"/>
<path d="M213.209 57.5872C213.209 57.5872 216.582 54.6641 213.179 51.4607C209.777 48.2561 198.28 47.5805 194.01 51.9843C189.741 56.388 195.2 58.0897 195.2 58.0897C195.2 58.0897 213.322 58.2308 213.209 57.5872Z" fill="#AD5A1E"/>
<path d="M192.853 53.4805C194.131 54.3186 195.611 54.8136 197.09 55.1584C198.174 55.9746 199.414 56.4662 200.728 56.7055C200.829 56.7588 200.936 56.7967 201.048 56.818C202.282 57.2658 203.559 57.5739 204.853 57.7107C206.612 57.8972 208.465 57.9573 210.191 57.5474C211.666 57.1979 213.766 56.6325 214.224 54.8951C214.233 54.8594 214.24 54.8241 214.249 54.7872C214.41 54.656 214.56 54.5093 214.696 54.3397C214.782 56.2244 213.21 57.587 213.21 57.587C213.322 58.2294 195.201 58.0894 195.201 58.0894C195.201 58.0894 190.997 56.7784 192.855 53.4801L192.853 53.4805Z" fill="#7C4016"/>
<path d="M204.333 49.6329C204.333 49.6329 203.987 46.5202 204.7 45.4892C205.414 44.4582 203.762 43.3891 203.486 45.6727C203.211 47.9563 203.585 49.6141 203.765 49.9825C203.945 50.3509 204.333 49.6329 204.333 49.6329Z" fill="#AD5A1E"/>
<path d="M203.767 47.1824C203.75 46.8157 203.721 46.4627 203.846 46.1167C204.018 45.6464 204.222 45.2872 204.32 44.7778C204.349 44.6217 204.338 44.4651 204.296 44.3185C204.739 44.2924 205.111 44.8956 204.7 45.4891C203.987 46.5201 204.333 49.6328 204.333 49.6328C204.333 49.6328 204.014 50.2231 203.819 50.0546C203.796 49.0967 203.812 48.1396 203.767 47.1824Z" fill="#7C4016"/>
<path d="M213.118 58.4595C213.118 58.4595 213.499 62.622 212.763 67.6126C212.763 67.6126 212.828 59.8222 212.346 59.1036C212.307 58.8458 213.118 58.4595 213.118 58.4595Z" fill="#B77B53"/>
<path d="M294.908 56.2492C294.908 56.2492 298.623 75.0736 286.35 75.2142C274.077 75.3548 277.055 56.442 277.055 56.442C277.055 56.442 285.104 48.8954 294.908 56.2492Z" fill="#944D1A"/>
<path d="M277.055 56.4419C277.055 56.4419 285.104 48.8953 294.909 56.2492C294.909 56.2492 294.99 56.6654 295.09 57.3744C294.812 57.2845 294.517 57.2473 294.228 57.2685C294.159 57.2737 293.603 57.2997 293.613 57.3061C293.337 57.3082 293.06 57.2948 292.784 57.2797C292.196 57.2461 291.608 57.1846 291.022 57.1123C289.885 56.9728 288.753 56.7865 287.614 56.6739C285.445 56.4583 283.203 56.5678 281.025 56.7874C280.467 56.3627 279.743 56.2506 279.04 56.5375C278.062 56.9359 277.562 58.3434 278.043 59.3468C278.047 59.3568 278.051 59.3654 278.056 59.3752C278.024 59.3986 277.99 59.4221 277.959 59.4492C277.377 59.9447 277.211 61.0155 277.757 61.6359C278.174 62.1084 278.468 62.5835 278.474 63.2077C278.481 63.9584 278.183 64.6733 277.893 65.3357C277.56 66.0968 278.026 67.0616 278.732 67.365C279.218 67.5737 279.715 67.4815 280.099 67.1953C280.241 67.5102 280.396 67.8164 280.563 68.1168C280.558 68.2284 280.562 68.3465 280.58 68.4717C280.903 70.7663 281.62 72.9816 283.004 74.6872C274.665 71.6366 277.055 56.446 277.055 56.446L277.055 56.4419Z" fill="#944D1A"/>
<path d="M295.209 57.5872C295.209 57.5872 298.582 54.6641 295.179 51.4607C291.777 48.2561 280.28 47.5805 276.01 51.9843C271.741 56.388 277.2 58.0897 277.2 58.0897C277.2 58.0897 295.322 58.2308 295.209 57.5872Z" fill="#944D1A"/>
<path d="M274.853 53.4805C276.131 54.3186 277.611 54.8136 279.09 55.1584C280.174 55.9746 281.414 56.4662 282.728 56.7055C282.829 56.7588 282.936 56.7967 283.048 56.818C284.282 57.2658 285.559 57.5739 286.853 57.7107C288.612 57.8972 290.465 57.9573 292.191 57.5474C293.666 57.1979 295.766 56.6325 296.224 54.8951C296.233 54.8594 296.24 54.8241 296.249 54.7872C296.41 54.656 296.56 54.5093 296.696 54.3397C296.782 56.2244 295.21 57.587 295.21 57.587C295.322 58.2294 277.201 58.0894 277.201 58.0894C277.201 58.0894 272.997 56.7784 274.855 53.4801L274.853 53.4805Z" fill="#944D1A"/>
<path d="M286.333 49.6329C286.333 49.6329 285.987 46.5202 286.7 45.4892C287.414 44.4582 285.762 43.3891 285.486 45.6727C285.211 47.9563 285.585 49.6141 285.765 49.9825C285.945 50.3509 286.333 49.6329 286.333 49.6329Z" fill="#944D1A"/>
<path d="M285.767 47.1824C285.75 46.8157 285.721 46.4627 285.846 46.1167C286.018 45.6464 286.222 45.2872 286.32 44.7778C286.349 44.6217 286.338 44.4651 286.296 44.3185C286.739 44.2924 287.111 44.8956 286.7 45.4891C285.987 46.5201 286.333 49.6328 286.333 49.6328C286.333 49.6328 286.014 50.2231 285.819 50.0546C285.796 49.0967 285.812 48.1396 285.767 47.1824Z" fill="#944D1A"/>
<path d="M294.908 56.2492C294.908 56.2492 298.623 75.0736 286.35 75.2142C274.077 75.3548 277.055 56.442 277.055 56.442C277.055 56.442 285.104 48.8954 294.908 56.2492Z" fill="#F9A66B"/>
<path d="M295.209 57.5872C295.209 57.5872 298.582 54.6641 295.179 51.4607C291.777 48.2561 280.28 47.5805 276.01 51.9843C271.741 56.388 277.2 58.0897 277.2 58.0897C277.2 58.0897 295.322 58.2308 295.209 57.5872Z" fill="#AD5A1E"/>
<path d="M274.853 53.4805C276.131 54.3186 277.611 54.8136 279.09 55.1584C280.174 55.9746 281.414 56.4662 282.728 56.7055C282.829 56.7588 282.936 56.7967 283.048 56.818C284.282 57.2658 285.559 57.5739 286.853 57.7107C288.612 57.8972 290.465 57.9573 292.191 57.5474C293.666 57.1979 295.766 56.6325 296.224 54.8951C296.233 54.8594 296.24 54.8241 296.249 54.7872C296.41 54.656 296.56 54.5093 296.696 54.3397C296.782 56.2244 295.21 57.587 295.21 57.587C295.322 58.2294 277.201 58.0894 277.201 58.0894C277.201 58.0894 272.997 56.7784 274.855 53.4801L274.853 53.4805Z" fill="#7C4016"/>
<path d="M286.333 49.6329C286.333 49.6329 285.987 46.5202 286.7 45.4892C287.414 44.4582 285.762 43.3891 285.486 45.6727C285.211 47.9563 285.585 49.6141 285.765 49.9825C285.945 50.3509 286.333 49.6329 286.333 49.6329Z" fill="#AD5A1E"/>
<path d="M285.767 47.1824C285.75 46.8157 285.721 46.4627 285.846 46.1167C286.018 45.6464 286.222 45.2872 286.32 44.7778C286.349 44.6217 286.338 44.4651 286.296 44.3185C286.739 44.2924 287.111 44.8956 286.7 45.4891C285.987 46.5201 286.333 49.6328 286.333 49.6328C286.333 49.6328 286.014 50.2231 285.819 50.0546C285.796 49.0967 285.812 48.1396 285.767 47.1824Z" fill="#7C4016"/>
<path d="M295.118 58.4595C295.118 58.4595 295.499 62.622 294.763 67.6126C294.763 67.6126 294.828 59.8222 294.346 59.1036C294.307 58.8458 295.118 58.4595 295.118 58.4595Z" fill="#B77B53"/>
<circle cx="163" cy="60" r="4" fill="#3E655D"/>
<circle cx="245" cy="60" r="4" fill="#3E655D"/>
<defs>
<clipPath id="clip0_1341_3290">
<rect width="103.472" height="85.2947" fill="white" transform="matrix(-0.98877 0.149446 0.149446 0.98877 102.31 0)"/>
</clipPath>
</defs>
</svg>
