<svg width="394" height="110" viewBox="0 0 394 110" fill="none" xmlns="http://www.w3.org/2000/svg">
<g clip-path="url(#clip0_1459_3935)">
<path d="M134.385 98.3444C112.493 104.4 90.0584 91.3109 106.237 59.9014C111.096 46.9322 88.6787 51.0694 99.2049 64.7097C100.456 66.7677 99.8037 67.1161 98.7735 66.5227C38.912 31.3749 140.99 -13.5171 120.825 66.1861C120.825 66.1861 116.897 83.7588 128.081 89.3094C139.266 94.86 140.305 93.954 134.385 98.3444Z" fill="#944D1A"/>
<path d="M108.753 92.5355C113.051 95.6937 118.695 97.7545 123.651 95.3274C123.816 95.2477 123.963 95.1529 124.097 95.0529C125.095 94.8596 126.051 94.5128 126.86 93.8887C128.388 92.7064 128.689 91.0453 128.259 89.3974C139.276 94.851 140.275 93.9784 134.387 98.3465C119.571 102.444 104.508 97.7739 101.332 84.5882C101.347 84.501 101.367 84.4156 101.385 84.3281C103.196 87.6024 105.867 90.4173 108.753 92.5379L108.753 92.5355Z" fill="#633311"/>
<path d="M91.6704 27.1962C94.3339 25.4353 97.2859 24.2451 100.458 24.0428C104.94 23.7548 109.095 25.6388 112.455 28.6241C112.449 28.7573 112.452 28.8843 112.466 29.007C107.149 24.8193 100.207 25.2443 94.438 27.8816C91.3876 29.2765 88.4267 31.2945 85.9675 33.8161C86.4493 30.8743 89.4668 28.6554 91.6685 27.199L91.6704 27.1962Z" fill="#FAB380"/>
<path d="M93.0273 56.8018C93.0221 56.7053 93.0187 56.6359 93.0166 56.5912C93.0172 56.4863 93.0159 56.3841 93.0165 56.2791C93.0215 56.0012 93.0338 55.7247 93.0507 55.4475C93.0915 54.7996 93.1679 54.1538 93.281 53.5175C93.3087 53.3585 93.341 53.1988 93.3736 53.0416C93.4476 52.7532 93.5289 52.4663 93.6204 52.1853C93.8141 51.5842 94.0546 51.0135 94.306 50.4362C94.3273 50.3905 94.3428 50.3532 94.3545 50.3215C94.3718 50.2964 94.395 50.263 94.4232 50.2162C94.6074 49.9262 94.7791 49.6306 94.9789 49.3507C95.1263 49.1437 95.2848 48.9474 95.4406 48.7491C95.5484 48.6379 95.6569 48.5316 95.7704 48.4271C95.9521 48.2598 96.1421 48.1012 96.3355 47.9497C96.4093 47.8936 96.4881 47.8392 96.5622 47.7855C96.5968 47.7653 96.6425 47.7409 96.7005 47.7047C96.9273 47.603 97.1412 47.4783 97.3692 47.3839C97.4931 47.3327 97.6201 47.2861 97.747 47.2394C97.7631 47.237 97.7788 47.2321 97.7969 47.2269C98.0559 47.1827 98.31 47.1219 98.5705 47.0875C98.6973 47.0708 99.7915 47.0453 99.1381 47.0317C99.6782 47.0424 100.202 46.9458 100.67 46.7452C100.684 46.7455 100.699 46.7483 100.713 46.7487C101.574 47.033 102.46 47.1988 103.355 47.2858C105.189 47.9225 106.786 49.0967 107.964 50.8388C108.109 52.5423 108.08 54.2471 107.887 55.9316C107.167 58.9918 105.67 61.9324 104.012 64.7173C104.002 64.7288 103.992 64.7427 103.98 64.7546C104.627 63.1885 105.378 61.572 106.237 59.9015C111.096 46.9322 88.6787 51.0695 99.2049 64.7097C100.456 66.7678 99.8037 67.1161 98.7735 66.5228C98.0433 66.0938 97.3387 65.6635 96.6552 65.2324C95.7258 64.062 94.8796 62.8341 94.2138 61.494C93.9538 60.9715 93.721 60.4424 93.5335 59.8864C93.5072 59.8055 93.4831 59.7243 93.4568 59.6433C93.4456 59.6001 93.4321 59.5422 93.4107 59.463C93.3621 59.2032 93.2973 58.9458 93.2482 58.6836C93.1347 58.0566 93.0873 57.432 93.0247 56.7997L93.0273 56.8018Z" fill="#633311"/>
<path d="M123.898 85.9642C124.115 86.2311 124.34 86.4917 124.58 86.7426C124.421 86.8091 124.274 86.8962 124.141 86.9938C124.075 86.6516 123.986 86.3081 123.898 85.9642Z" fill="#633311"/>
<path d="M151.323 54.9249C149.645 55.1786 148.058 53.8891 147.779 52.0447C147.5 50.2004 148.635 48.4996 150.313 48.2459C151.992 47.9923 153.578 49.2818 153.857 51.1261C154.136 52.9705 153.001 54.6713 151.323 54.9249Z" stroke="#3E655D" stroke-width="1.82" stroke-miterlimit="10"/>
<path d="M151.516 54.6459C149.838 54.8995 148.251 53.61 147.972 51.7657C147.693 49.9213 148.828 48.2206 150.506 47.9669C152.185 47.7132 153.771 49.0027 154.05 50.8471C154.329 52.6914 153.194 54.3922 151.516 54.6459Z" stroke="#65847D" stroke-width="1.82" stroke-miterlimit="10"/>
<path d="M136.246 46.8764C136.246 46.8764 148.114 39.8391 154.125 53.163C155.422 53.9657 155.314 59.4752 148.832 61.7034C142.35 63.9315 161.203 67.3244 163.218 69.7664C165.233 72.2085 151.974 74.7119 151.974 74.7119C151.974 74.7119 152.732 82.8372 155.4 84.9309C156.671 90.2319 147.635 97.3406 147.635 97.3406C147.635 97.3406 150.07 93.2272 160.077 97.2079C164.879 100.977 143.066 99.779 137.631 99.6016C131.47 99.2844 109.623 83.8595 133.402 62.2877C133.402 62.2877 136.831 58.5235 132.321 50.4659C127.811 42.4083 134.699 42.8654 136.246 46.8764Z" fill="#F7802B"/>
<path d="M149.627 98.2455C147.905 98.1163 146.135 97.792 144.626 97.0362C145.039 96.7791 145.443 96.5084 145.825 96.2258C147.923 94.9374 149.804 93.3173 151.181 91.274C151.709 90.7523 152.177 90.1322 152.511 89.4475C152.794 89.0201 153.036 88.569 153.225 88.0886C153.563 87.2334 153.6 86.1218 153.341 85.1547C153.301 84.9385 153.233 84.7365 153.132 84.552C152.663 83.4718 151.755 82.7352 150.419 83.057C150.455 81.7107 150.336 80.3478 150.224 79.014C150.079 77.2955 149.915 75.7398 150.457 74.1821C150.569 73.8606 150.629 73.5294 150.645 73.1999C152.338 73.0589 154.052 73.1243 155.721 72.6998C156.856 72.411 157.953 72.0054 159.037 71.5495C159.644 71.2929 160.247 70.9996 160.913 70.9763C161.175 70.9666 162.422 71.0953 162.4 71.5106C159.591 73.2711 151.976 74.7091 151.976 74.7091C151.976 74.7091 152.734 82.8344 155.402 84.9281C156.374 88.9834 151.314 94.0979 148.883 96.2756C150.453 95.4065 153.752 94.6882 160.079 97.2052C161.842 98.5891 160.015 99.3023 156.73 99.6439C154.927 98.0312 151.881 98.4141 149.627 98.2455Z" fill="#C66622"/>
<path d="M131.463 96.419C132.882 97.4129 134.896 98.6641 136.869 99.1649C137.145 99.323 137.425 99.4679 137.707 99.6026C137.683 99.6012 137.655 99.6005 137.631 99.5991C135.145 99.4704 130.105 96.8813 126.541 92.4187C128.111 93.8468 129.735 95.2069 131.462 96.4165L131.463 96.419Z" fill="#C66622"/>
<path d="M133.831 44.7943C133.876 44.8076 133.919 44.816 133.964 44.8341C134.846 45.1603 135.762 46.2104 136.102 47.2651C135.989 47.3271 135.875 47.3919 135.764 47.4536C135.725 47.4769 135.689 47.5023 135.651 47.5281C134.847 47.5598 134.333 46.7411 134.001 45.9971C133.95 45.5953 133.896 45.1915 133.829 44.7946L133.831 44.7943Z" fill="#FAB380"/>
<path d="M152.138 58.8367C152.394 58.9652 152.647 59.0944 152.892 59.227C152.525 59.6097 152.092 59.9798 151.594 60.3271C151.808 59.8454 151.989 59.3485 152.135 58.8371L152.138 58.8367Z" fill="#FAB380"/>
<path d="M134.858 63.8154C134.8 64.5807 133.967 65.3834 133.499 65.8985C132.621 66.8702 131.624 67.71 130.751 68.6859C128.793 70.8695 127.386 73.9262 126.294 76.6929C125.144 79.611 124.823 82.4684 124.935 85.6327C124.952 86.1195 124.98 86.6045 125.025 87.0872C124.35 84.6399 124.063 82.104 124.178 79.5972C124.49 76.9956 125.079 74.4072 126.421 72.1968C126.497 72.073 126.539 71.9492 126.558 71.8265C127.552 70.1233 128.635 68.4839 129.862 66.9426C130.532 66.1022 131.251 65.2769 132.033 64.522C132.146 64.4949 132.26 64.4378 132.369 64.3489C133.01 63.83 133.642 63.2226 134.398 62.8862C134.69 63.0143 134.882 63.5047 134.858 63.8154Z" fill="#FAB380"/>
<path d="M149.068 53.9274C148.433 54.0233 147.836 53.5546 147.734 52.8805C147.632 52.2064 148.064 51.5822 148.699 51.4862C149.334 51.3903 149.931 51.859 150.033 52.5331C150.135 53.2072 149.703 53.8314 149.068 53.9274Z" fill="#190D04"/>
<path d="M149.421 52.3758C149.231 52.4046 149.051 52.2639 149.021 52.0617C148.99 51.8595 149.12 51.6722 149.31 51.6434C149.501 51.6146 149.68 51.7552 149.711 51.9575C149.741 52.1597 149.611 52.347 149.421 52.3758Z" fill="#FEF2EA"/>
<path d="M154.687 55.3253C154.687 55.3253 156.416 53.3585 154.125 53.163C153.263 53.6528 154.687 55.3253 154.687 55.3253Z" fill="#633311"/>
<path d="M151.866 59.9963C151.866 59.9963 150.478 61.7042 149.465 58.112C148.949 54.6943 152.371 58.6715 153.024 58.3231C153.677 57.9748 152.942 59.3343 151.866 59.9963Z" fill="#7C4016"/>
<path d="M148.855 55.9571C146.83 56.2632 144.916 54.7079 144.58 52.4834C144.243 50.2589 145.612 48.2074 147.637 47.9013C149.662 47.5953 151.576 49.1505 151.913 51.3751C152.249 53.5996 150.88 55.6511 148.855 55.9571Z" stroke="#3E655D" stroke-width="2.2" stroke-miterlimit="10"/>
<path d="M149.048 55.6781C147.023 55.9841 145.109 54.4289 144.773 52.2043C144.436 49.9798 145.805 47.9283 147.83 47.6223C149.855 47.3162 151.769 48.8715 152.106 51.096C152.442 53.3206 151.073 55.372 149.048 55.6781Z" stroke="#65847D" stroke-width="2.2" stroke-miterlimit="10"/>
<path d="M153.941 51.9423C153.941 51.9423 153.177 51.5583 152.331 52.1855" stroke="#65847D" stroke-width="1.66" stroke-miterlimit="10" stroke-linecap="round"/>
</g>
<path d="M224.908 56.2492C224.908 56.2492 228.623 75.0736 216.35 75.2142C204.077 75.3548 207.055 56.442 207.055 56.442C207.055 56.442 215.104 48.8954 224.908 56.2492Z" fill="#944D1A"/>
<path d="M207.055 56.4419C207.055 56.4419 215.104 48.8953 224.908 56.2492C224.908 56.2492 224.99 56.6654 225.09 57.3744C224.812 57.2845 224.517 57.2473 224.228 57.2685C224.159 57.2737 223.603 57.2997 223.613 57.3061C223.337 57.3082 223.06 57.2948 222.784 57.2797C222.195 57.2461 221.607 57.1846 221.022 57.1123C219.885 56.9728 218.753 56.7865 217.614 56.6739C215.445 56.4583 213.203 56.5678 211.025 56.7874C210.467 56.3627 209.743 56.2506 209.04 56.5375C208.062 56.9359 207.562 58.3434 208.043 59.3468C208.047 59.3568 208.051 59.3654 208.056 59.3752C208.024 59.3986 207.99 59.4221 207.959 59.4492C207.377 59.9447 207.211 61.0155 207.757 61.6359C208.174 62.1084 208.468 62.5835 208.474 63.2077C208.481 63.9584 208.183 64.6733 207.893 65.3357C207.559 66.0968 208.026 67.0616 208.732 67.365C209.218 67.5737 209.715 67.4815 210.099 67.1953C210.241 67.5102 210.396 67.8164 210.563 68.1168C210.558 68.2284 210.562 68.3465 210.58 68.4717C210.903 70.7663 211.62 72.9816 213.004 74.6872C204.665 71.6366 207.055 56.446 207.055 56.446L207.055 56.4419Z" fill="#944D1A"/>
<path d="M225.209 57.5872C225.209 57.5872 228.582 54.6641 225.179 51.4607C221.777 48.2561 210.28 47.5805 206.01 51.9843C201.741 56.388 207.2 58.0897 207.2 58.0897C207.2 58.0897 225.322 58.2308 225.209 57.5872Z" fill="#944D1A"/>
<path d="M204.853 53.4805C206.131 54.3186 207.611 54.8136 209.09 55.1584C210.174 55.9746 211.414 56.4662 212.728 56.7055C212.829 56.7587 212.935 56.7967 213.048 56.818C214.282 57.2658 215.559 57.5739 216.853 57.7107C218.612 57.8972 220.465 57.9573 222.191 57.5474C223.666 57.1979 225.766 56.6325 226.224 54.8951C226.233 54.8594 226.24 54.8241 226.248 54.7872C226.41 54.656 226.56 54.5093 226.696 54.3397C226.782 56.2244 225.21 57.587 225.21 57.587C225.322 58.2294 207.201 58.0894 207.201 58.0894C207.201 58.0894 202.997 56.7784 204.855 53.4801L204.853 53.4805Z" fill="#944D1A"/>
<path d="M216.333 49.6329C216.333 49.6329 215.987 46.5202 216.7 45.4892C217.414 44.4582 215.762 43.3891 215.486 45.6727C215.211 47.9563 215.585 49.6141 215.765 49.9825C215.945 50.3509 216.333 49.6329 216.333 49.6329Z" fill="#944D1A"/>
<path d="M215.767 47.1824C215.75 46.8157 215.721 46.4627 215.846 46.1167C216.018 45.6464 216.222 45.2872 216.32 44.7778C216.349 44.6217 216.338 44.4651 216.296 44.3185C216.739 44.2924 217.111 44.8956 216.7 45.4891C215.987 46.5201 216.333 49.6328 216.333 49.6328C216.333 49.6328 216.014 50.2231 215.82 50.0546C215.796 49.0967 215.812 48.1396 215.767 47.1824Z" fill="#944D1A"/>
<path d="M224.908 56.2492C224.908 56.2492 228.623 75.0736 216.35 75.2142C204.077 75.3548 207.055 56.442 207.055 56.442C207.055 56.442 215.104 48.8954 224.908 56.2492Z" fill="#F9A66B"/>
<path d="M225.209 57.5872C225.209 57.5872 228.582 54.6641 225.179 51.4607C221.777 48.2561 210.28 47.5805 206.01 51.9843C201.741 56.388 207.2 58.0897 207.2 58.0897C207.2 58.0897 225.322 58.2308 225.209 57.5872Z" fill="#AD5A1E"/>
<path d="M204.853 53.4805C206.131 54.3186 207.611 54.8136 209.09 55.1584C210.174 55.9746 211.414 56.4662 212.728 56.7055C212.829 56.7587 212.935 56.7967 213.048 56.818C214.282 57.2658 215.559 57.5739 216.853 57.7107C218.612 57.8972 220.465 57.9573 222.191 57.5474C223.666 57.1979 225.766 56.6325 226.224 54.8951C226.233 54.8594 226.24 54.8241 226.248 54.7872C226.41 54.656 226.56 54.5093 226.696 54.3397C226.782 56.2244 225.21 57.587 225.21 57.587C225.322 58.2294 207.201 58.0894 207.201 58.0894C207.201 58.0894 202.997 56.7784 204.855 53.4801L204.853 53.4805Z" fill="#7C4016"/>
<path d="M216.333 49.6329C216.333 49.6329 215.987 46.5202 216.7 45.4892C217.414 44.4582 215.762 43.3891 215.486 45.6727C215.211 47.9563 215.585 49.6141 215.765 49.9825C215.945 50.3509 216.333 49.6329 216.333 49.6329Z" fill="#AD5A1E"/>
<path d="M215.767 47.1824C215.75 46.8157 215.721 46.4627 215.846 46.1167C216.018 45.6464 216.222 45.2872 216.32 44.7778C216.349 44.6217 216.338 44.4651 216.296 44.3185C216.739 44.2924 217.111 44.8956 216.7 45.4891C215.987 46.5201 216.333 49.6328 216.333 49.6328C216.333 49.6328 216.014 50.2231 215.82 50.0546C215.796 49.0967 215.812 48.1396 215.767 47.1824Z" fill="#7C4016"/>
<path d="M225.118 58.4595C225.118 58.4595 225.499 62.622 224.763 67.6126C224.763 67.6126 224.828 59.8222 224.346 59.1036C224.307 58.8458 225.118 58.4595 225.118 58.4595Z" fill="#B77B53"/>
<path d="M306.908 56.2492C306.908 56.2492 310.623 75.0736 298.35 75.2142C286.077 75.3548 289.055 56.442 289.055 56.442C289.055 56.442 297.104 48.8954 306.908 56.2492Z" fill="#944D1A"/>
<path d="M289.055 56.4419C289.055 56.4419 297.104 48.8953 306.908 56.2492C306.908 56.2492 306.99 56.6654 307.09 57.3744C306.812 57.2845 306.517 57.2473 306.228 57.2685C306.159 57.2737 305.603 57.2997 305.613 57.3061C305.337 57.3082 305.06 57.2948 304.784 57.2797C304.195 57.2461 303.607 57.1846 303.022 57.1123C301.885 56.9728 300.753 56.7865 299.614 56.6739C297.445 56.4583 295.203 56.5678 293.025 56.7874C292.467 56.3627 291.743 56.2506 291.04 56.5375C290.062 56.9359 289.562 58.3434 290.043 59.3468C290.047 59.3568 290.051 59.3654 290.056 59.3752C290.024 59.3986 289.99 59.4221 289.959 59.4492C289.377 59.9447 289.211 61.0155 289.757 61.6359C290.174 62.1084 290.468 62.5835 290.474 63.2077C290.481 63.9584 290.183 64.6733 289.893 65.3357C289.559 66.0968 290.026 67.0616 290.732 67.365C291.218 67.5737 291.715 67.4815 292.099 67.1953C292.241 67.5102 292.396 67.8164 292.563 68.1168C292.558 68.2284 292.562 68.3465 292.58 68.4717C292.903 70.7663 293.62 72.9816 295.004 74.6872C286.665 71.6366 289.055 56.446 289.055 56.446L289.055 56.4419Z" fill="#944D1A"/>
<path d="M307.209 57.5872C307.209 57.5872 310.582 54.6641 307.179 51.4607C303.777 48.2561 292.28 47.5805 288.01 51.9843C283.741 56.388 289.2 58.0897 289.2 58.0897C289.2 58.0897 307.322 58.2308 307.209 57.5872Z" fill="#944D1A"/>
<path d="M286.853 53.4805C288.131 54.3186 289.611 54.8136 291.09 55.1584C292.174 55.9746 293.414 56.4662 294.728 56.7055C294.829 56.7587 294.935 56.7967 295.048 56.818C296.282 57.2658 297.559 57.5739 298.853 57.7107C300.612 57.8972 302.465 57.9573 304.191 57.5474C305.666 57.1979 307.766 56.6325 308.224 54.8951C308.233 54.8594 308.24 54.8241 308.248 54.7872C308.41 54.656 308.56 54.5093 308.696 54.3397C308.782 56.2244 307.21 57.587 307.21 57.587C307.322 58.2294 289.201 58.0894 289.201 58.0894C289.201 58.0894 284.997 56.7784 286.855 53.4801L286.853 53.4805Z" fill="#944D1A"/>
<path d="M298.333 49.6329C298.333 49.6329 297.987 46.5202 298.7 45.4892C299.414 44.4582 297.762 43.3891 297.486 45.6727C297.211 47.9563 297.585 49.6141 297.765 49.9825C297.945 50.3509 298.333 49.6329 298.333 49.6329Z" fill="#944D1A"/>
<path d="M297.767 47.1824C297.75 46.8157 297.721 46.4627 297.846 46.1167C298.018 45.6464 298.222 45.2872 298.32 44.7778C298.349 44.6217 298.338 44.4651 298.296 44.3185C298.739 44.2924 299.111 44.8956 298.7 45.4891C297.987 46.5201 298.333 49.6328 298.333 49.6328C298.333 49.6328 298.014 50.2231 297.82 50.0546C297.796 49.0967 297.812 48.1396 297.767 47.1824Z" fill="#944D1A"/>
<path d="M306.908 56.2492C306.908 56.2492 310.623 75.0736 298.35 75.2142C286.077 75.3548 289.055 56.442 289.055 56.442C289.055 56.442 297.104 48.8954 306.908 56.2492Z" fill="#F9A66B"/>
<path d="M307.209 57.5872C307.209 57.5872 310.582 54.6641 307.179 51.4607C303.777 48.2561 292.28 47.5805 288.01 51.9843C283.741 56.388 289.2 58.0897 289.2 58.0897C289.2 58.0897 307.322 58.2308 307.209 57.5872Z" fill="#AD5A1E"/>
<path d="M286.853 53.4805C288.131 54.3186 289.611 54.8136 291.09 55.1584C292.174 55.9746 293.414 56.4662 294.728 56.7055C294.829 56.7587 294.935 56.7967 295.048 56.818C296.282 57.2658 297.559 57.5739 298.853 57.7107C300.612 57.8972 302.465 57.9573 304.191 57.5474C305.666 57.1979 307.766 56.6325 308.224 54.8951C308.233 54.8594 308.24 54.8241 308.248 54.7872C308.41 54.656 308.56 54.5093 308.696 54.3397C308.782 56.2244 307.21 57.587 307.21 57.587C307.322 58.2294 289.201 58.0894 289.201 58.0894C289.201 58.0894 284.997 56.7784 286.855 53.4801L286.853 53.4805Z" fill="#7C4016"/>
<path d="M298.333 49.6329C298.333 49.6329 297.987 46.5202 298.7 45.4892C299.414 44.4582 297.762 43.3891 297.486 45.6727C297.211 47.9563 297.585 49.6141 297.765 49.9825C297.945 50.3509 298.333 49.6329 298.333 49.6329Z" fill="#AD5A1E"/>
<path d="M297.767 47.1824C297.75 46.8157 297.721 46.4627 297.846 46.1167C298.018 45.6464 298.222 45.2872 298.32 44.7778C298.349 44.6217 298.338 44.4651 298.296 44.3185C298.739 44.2924 299.111 44.8956 298.7 45.4891C297.987 46.5201 298.333 49.6328 298.333 49.6328C298.333 49.6328 298.014 50.2231 297.82 50.0546C297.796 49.0967 297.812 48.1396 297.767 47.1824Z" fill="#7C4016"/>
<path d="M307.118 58.4595C307.118 58.4595 307.499 62.622 306.763 67.6126C306.763 67.6126 306.828 59.8222 306.346 59.1036C306.307 58.8458 307.118 58.4595 307.118 58.4595Z" fill="#B77B53"/>
<path d="M388.908 56.2492C388.908 56.2492 392.623 75.0736 380.35 75.2142C368.077 75.3548 371.055 56.442 371.055 56.442C371.055 56.442 379.104 48.8954 388.908 56.2492Z" fill="#944D1A"/>
<path d="M371.055 56.4419C371.055 56.4419 379.104 48.8953 388.908 56.2492C388.908 56.2492 388.99 56.6654 389.09 57.3744C388.812 57.2845 388.517 57.2473 388.228 57.2685C388.159 57.2737 387.603 57.2997 387.613 57.3061C387.337 57.3082 387.06 57.2948 386.784 57.2797C386.195 57.2461 385.607 57.1846 385.022 57.1123C383.885 56.9728 382.753 56.7865 381.614 56.6739C379.445 56.4583 377.203 56.5678 375.025 56.7874C374.467 56.3627 373.743 56.2506 373.04 56.5375C372.062 56.9359 371.562 58.3434 372.043 59.3468C372.047 59.3568 372.051 59.3654 372.056 59.3752C372.024 59.3986 371.99 59.4221 371.959 59.4492C371.377 59.9447 371.211 61.0155 371.757 61.6359C372.174 62.1084 372.468 62.5835 372.474 63.2077C372.481 63.9584 372.183 64.6733 371.893 65.3357C371.559 66.0968 372.026 67.0616 372.732 67.365C373.218 67.5737 373.715 67.4815 374.099 67.1953C374.241 67.5102 374.396 67.8164 374.563 68.1168C374.558 68.2284 374.562 68.3465 374.58 68.4717C374.903 70.7663 375.62 72.9816 377.004 74.6872C368.665 71.6366 371.055 56.446 371.055 56.446L371.055 56.4419Z" fill="#944D1A"/>
<path d="M389.209 57.5872C389.209 57.5872 392.582 54.6641 389.179 51.4607C385.777 48.2561 374.28 47.5805 370.01 51.9843C365.741 56.388 371.2 58.0897 371.2 58.0897C371.2 58.0897 389.322 58.2308 389.209 57.5872Z" fill="#944D1A"/>
<path d="M368.853 53.4805C370.131 54.3186 371.611 54.8136 373.09 55.1584C374.174 55.9746 375.414 56.4662 376.728 56.7055C376.829 56.7587 376.935 56.7967 377.048 56.818C378.282 57.2658 379.559 57.5739 380.853 57.7107C382.612 57.8972 384.465 57.9573 386.191 57.5474C387.666 57.1979 389.766 56.6325 390.224 54.8951C390.233 54.8594 390.24 54.8241 390.248 54.7872C390.41 54.656 390.56 54.5093 390.696 54.3397C390.782 56.2244 389.21 57.587 389.21 57.587C389.322 58.2294 371.201 58.0894 371.201 58.0894C371.201 58.0894 366.997 56.7784 368.855 53.4801L368.853 53.4805Z" fill="#944D1A"/>
<path d="M380.333 49.6329C380.333 49.6329 379.987 46.5202 380.7 45.4892C381.414 44.4582 379.762 43.3891 379.486 45.6727C379.211 47.9563 379.585 49.6141 379.765 49.9825C379.945 50.3509 380.333 49.6329 380.333 49.6329Z" fill="#944D1A"/>
<path d="M379.767 47.1824C379.75 46.8157 379.721 46.4627 379.847 46.1167C380.018 45.6464 380.222 45.2872 380.32 44.7778C380.35 44.6217 380.338 44.4651 380.296 44.3185C380.739 44.2924 381.111 44.8956 380.7 45.4891C379.987 46.5201 380.333 49.6328 380.333 49.6328C380.333 49.6328 380.014 50.2231 379.82 50.0546C379.796 49.0967 379.812 48.1396 379.767 47.1824Z" fill="#944D1A"/>
<path d="M388.908 56.2492C388.908 56.2492 392.623 75.0736 380.35 75.2142C368.077 75.3548 371.055 56.442 371.055 56.442C371.055 56.442 379.104 48.8954 388.908 56.2492Z" fill="#F9A66B"/>
<path d="M389.209 57.5872C389.209 57.5872 392.582 54.6641 389.179 51.4607C385.777 48.2561 374.28 47.5805 370.01 51.9843C365.741 56.388 371.2 58.0897 371.2 58.0897C371.2 58.0897 389.322 58.2308 389.209 57.5872Z" fill="#AD5A1E"/>
<path d="M368.853 53.4805C370.131 54.3186 371.611 54.8136 373.09 55.1584C374.174 55.9746 375.414 56.4662 376.728 56.7055C376.829 56.7587 376.935 56.7967 377.048 56.818C378.282 57.2658 379.559 57.5739 380.853 57.7107C382.612 57.8972 384.465 57.9573 386.191 57.5474C387.666 57.1979 389.766 56.6325 390.224 54.8951C390.233 54.8594 390.24 54.8241 390.248 54.7872C390.41 54.656 390.56 54.5093 390.696 54.3397C390.782 56.2244 389.21 57.587 389.21 57.587C389.322 58.2294 371.201 58.0894 371.201 58.0894C371.201 58.0894 366.997 56.7784 368.855 53.4801L368.853 53.4805Z" fill="#7C4016"/>
<path d="M380.333 49.6329C380.333 49.6329 379.987 46.5202 380.7 45.4892C381.414 44.4582 379.762 43.3891 379.486 45.6727C379.211 47.9563 379.585 49.6141 379.765 49.9825C379.945 50.3509 380.333 49.6329 380.333 49.6329Z" fill="#AD5A1E"/>
<path d="M379.767 47.1824C379.75 46.8157 379.721 46.4627 379.847 46.1167C380.018 45.6464 380.222 45.2872 380.32 44.7778C380.35 44.6217 380.338 44.4651 380.296 44.3185C380.739 44.2924 381.111 44.8956 380.7 45.4891C379.987 46.5201 380.333 49.6328 380.333 49.6328C380.333 49.6328 380.014 50.2231 379.82 50.0546C379.796 49.0967 379.812 48.1396 379.767 47.1824Z" fill="#7C4016"/>
<path d="M389.118 58.4595C389.118 58.4595 389.499 62.622 388.763 67.6126C388.763 67.6126 388.828 59.8222 388.346 59.1036C388.307 58.8458 389.118 58.4595 389.118 58.4595Z" fill="#B77B53"/>
<circle cx="257" cy="60" r="4" fill="#3E655D"/>
<circle cx="339" cy="60" r="4" fill="#3E655D"/>
<defs>
<clipPath id="clip0_1459_3935">
<rect width="103.472" height="85.2947" fill="white" transform="matrix(-0.98877 0.149446 0.149446 0.98877 179.31 10)"/>
</clipPath>
</defs>
</svg>
