<svg width="394" height="100" viewBox="0 0 394 100" fill="none" xmlns="http://www.w3.org/2000/svg">
<g clip-path="url(#clip0_1341_3289)">
<path d="M57.3847 88.3446C35.4927 94.4001 13.0584 81.3112 29.2373 49.9016C34.0957 36.9324 11.6787 41.0697 22.2049 54.7099C23.4564 56.768 22.8037 57.1163 21.7735 56.5229C-38.088 21.3752 63.9902 -23.5169 43.8245 56.1864C43.8245 56.1864 39.897 73.7591 51.0814 79.3097C62.2659 84.8603 63.3046 83.9542 57.3847 88.3446Z" fill="#944D1A"/>
<path d="M31.7526 82.5355C36.0507 85.6937 41.6949 87.7545 46.6513 85.3274C46.8156 85.2477 46.9635 85.1529 47.0965 85.0529C48.0948 84.8596 49.0511 84.5128 49.8596 83.8887C51.3879 82.7064 51.6894 81.0453 51.2593 79.3974C62.2763 84.851 63.2754 83.9784 57.3873 88.3465C42.5705 92.4437 27.508 87.7739 24.3323 74.5882C24.3474 74.501 24.3674 74.4156 24.3847 74.3281C26.1963 77.6024 28.8672 80.4173 31.753 82.5379L31.7526 82.5355Z" fill="#633311"/>
<path d="M14.6704 17.1965C17.3339 15.4356 20.2859 14.2453 23.4578 14.0431C27.9404 13.7551 32.0953 15.639 35.4551 18.6244C35.4493 18.7576 35.452 18.8845 35.4659 19.0073C30.1492 14.8195 23.2067 15.2446 17.438 17.8818C14.3876 19.2767 11.4267 21.2948 8.96752 23.8163C9.44929 20.8745 12.4668 18.6556 14.6685 17.1993L14.6704 17.1965Z" fill="#FAB380"/>
<path d="M16.0274 46.8018C16.0222 46.7053 16.0187 46.6359 16.0167 46.5912C16.0173 46.4863 16.0159 46.3841 16.0165 46.2791C16.0216 46.0012 16.0338 45.7247 16.0507 45.4475C16.0915 44.7996 16.1679 44.1538 16.281 43.5175C16.3087 43.3585 16.341 43.1988 16.3737 43.0416C16.4476 42.7532 16.5289 42.4663 16.6204 42.1853C16.8141 41.5842 17.0547 41.0135 17.306 40.4362C17.3273 40.3905 17.3428 40.3532 17.3545 40.3215C17.3718 40.2964 17.395 40.263 17.4232 40.2162C17.6074 39.9262 17.7791 39.6306 17.979 39.3507C18.1264 39.1437 18.2848 38.9474 18.4406 38.7491C18.5484 38.6379 18.6569 38.5316 18.7705 38.4271C18.9521 38.2598 19.1421 38.1012 19.3355 37.9497C19.4093 37.8936 19.4881 37.8392 19.5623 37.7855C19.5968 37.7653 19.6425 37.7409 19.7005 37.7047C19.9273 37.603 20.1413 37.4783 20.3692 37.3839C20.4931 37.3327 20.6201 37.2861 20.7471 37.2394C20.7632 37.237 20.7789 37.2321 20.7969 37.2269C21.0559 37.1827 21.31 37.1219 21.5705 37.0875C21.6973 37.0708 22.7915 37.0453 22.1382 37.0317C22.6782 37.0424 23.2021 36.9458 23.6702 36.7452C23.6844 36.7455 23.6989 36.7483 23.7131 36.7487C24.5743 37.033 25.4599 37.1988 26.3548 37.2858C28.1886 37.9225 29.7862 39.0967 30.9642 40.8388C31.1088 42.5423 31.0796 44.2471 30.8875 45.9316C30.1673 48.9918 28.6696 51.9324 27.012 54.7173C27.002 54.7288 26.9923 54.7427 26.98 54.7546C27.6274 53.1885 28.3777 51.572 29.2373 49.9015C34.0958 36.9322 11.6787 41.0695 22.2049 54.7097C23.4565 56.7678 22.8037 57.1161 21.7735 56.5228C21.0433 56.0938 20.3387 55.6635 19.6552 55.2324C18.7259 54.062 17.8796 52.8341 17.2138 51.494C16.9538 50.9715 16.721 50.4424 16.5335 49.8864C16.5072 49.8055 16.4832 49.7243 16.4568 49.6433C16.4456 49.6001 16.4321 49.5422 16.4108 49.463C16.3621 49.2032 16.2973 48.9458 16.2483 48.6836C16.1347 48.0566 16.0873 47.432 16.0247 46.7997L16.0274 46.8018Z" fill="#633311"/>
<path d="M46.8984 75.9642C47.1151 76.2311 47.3403 76.4917 47.5804 76.7426C47.4211 76.8091 47.2744 76.8962 47.141 76.9938C47.0752 76.6516 46.9857 76.3081 46.8984 75.9642Z" fill="#633311"/>
<path d="M74.3229 44.9249C72.6445 45.1786 71.058 43.8891 70.7792 42.0447C70.5004 40.2004 71.6351 38.4996 73.3134 38.2459C74.9918 37.9923 76.5783 39.2818 76.8571 41.1261C77.1359 42.9705 76.0013 44.6713 74.3229 44.9249Z" stroke="#3E655D" stroke-width="1.82" stroke-miterlimit="10"/>
<path d="M74.5159 44.6461C72.8375 44.8998 71.251 43.6103 70.9722 41.7659C70.6934 39.9216 71.828 38.2208 73.5064 37.9671C75.1848 37.7135 76.7713 39.003 77.0501 40.8473C77.3289 42.6917 76.1943 44.3924 74.5159 44.6461Z" stroke="#65847D" stroke-width="1.82" stroke-miterlimit="10"/>
<path d="M59.2458 36.8762C59.2458 36.8762 71.1141 29.8388 77.125 43.1627C78.422 43.9655 78.3142 49.475 71.8323 51.7031C65.3504 53.9313 84.2031 57.3241 86.2181 59.7662C88.233 62.2083 74.9741 64.7116 74.9741 64.7116C74.9741 64.7116 75.7319 72.8369 78.3996 74.9306C79.6711 80.2317 70.6351 87.3403 70.6351 87.3403C70.6351 87.3403 73.07 83.2269 83.0767 87.2077C87.8786 90.9764 66.066 89.7787 60.6313 89.6014C54.4701 89.2842 32.6233 73.8593 56.4023 52.2874C56.4023 52.2874 59.8305 48.5233 55.3209 40.4657C50.8113 32.4081 57.6991 32.8652 59.2458 36.8762Z" fill="#F7802B"/>
<path d="M72.627 88.2453C70.9052 88.116 69.135 87.7918 67.6265 87.036C68.0391 86.7789 68.4426 86.5082 68.8254 86.2256C70.9232 84.9372 72.8039 83.3171 74.1809 81.2737C74.7086 80.752 75.1769 80.1319 75.5107 79.4473C75.7941 79.0199 76.0363 78.5688 76.2247 78.0884C76.5633 77.2332 76.5999 76.1215 76.3408 75.1544C76.3011 74.9382 76.233 74.7363 76.1322 74.5518C75.6633 73.4716 74.7548 72.7349 73.4186 73.0567C73.4549 71.7104 73.3359 70.3476 73.2237 69.0137C73.0792 67.2952 72.9146 65.7396 73.4574 64.1818C73.5687 63.8604 73.6291 63.5291 73.6452 63.1996C75.3379 63.0586 77.0525 63.1241 78.7212 62.6996C79.8555 62.4108 80.9534 62.0052 82.0366 61.5493C82.6444 61.2926 83.2467 60.9994 83.9133 60.976C84.1752 60.9664 85.422 61.0951 85.4001 61.5103C82.5907 63.2708 74.976 64.7089 74.976 64.7089C74.976 64.7089 75.7339 72.8341 78.4016 74.9279C79.3742 78.9832 74.3138 84.0976 71.8825 86.2754C73.4535 85.4062 76.7519 84.688 83.0787 87.2049C84.842 88.5889 83.0147 89.302 79.7299 89.6437C77.9273 88.031 74.8815 88.4139 72.627 88.2453Z" fill="#C66622"/>
<path d="M54.4626 86.419C55.8825 87.4129 57.8961 88.6641 59.8693 89.1649C60.1448 89.323 60.4253 89.4679 60.7067 89.6026C60.683 89.6012 60.6546 89.6005 60.6309 89.5991C58.145 89.4704 53.1052 86.8813 49.541 82.4187C51.1112 83.8468 52.7346 85.2069 54.4622 86.4165L54.4626 86.419Z" fill="#C66622"/>
<path d="M56.8314 34.7945C56.8757 34.8078 56.9193 34.8162 56.9644 34.8344C57.846 35.1605 58.7618 36.2107 59.1023 37.2653C58.9894 37.3273 58.8746 37.3921 58.764 37.4538C58.7252 37.4771 58.6891 37.5026 58.6506 37.5284C57.8466 37.56 57.3325 36.7413 57.0014 35.9973C56.9501 35.5956 56.8961 35.1918 56.8291 34.7949L56.8314 34.7945Z" fill="#FAB380"/>
<path d="M75.1375 48.8367C75.3944 48.9652 75.6467 49.0944 75.8925 49.227C75.5247 49.6097 75.0916 49.9798 74.5939 50.3271C74.8079 49.8454 74.9891 49.3485 75.1352 48.8371L75.1375 48.8367Z" fill="#FAB380"/>
<path d="M57.8582 53.8154C57.7999 54.5807 56.9666 55.3834 56.4989 55.8985C55.6207 56.8702 54.6237 57.71 53.7508 58.6859C51.793 60.8695 50.3858 63.9262 49.2944 66.6929C48.1437 69.611 47.8231 72.4684 47.9346 75.6327C47.9517 76.1195 47.9804 76.6045 48.0251 77.0872C47.3496 74.6399 47.0627 72.104 47.1776 69.5972C47.4897 66.9956 48.079 64.4072 49.4213 62.1968C49.4967 62.073 49.5391 61.9492 49.5582 61.8265C50.5516 60.1233 51.6346 58.4839 52.8618 56.9426C53.5319 56.1022 54.2512 55.2769 55.033 54.522C55.1464 54.4949 55.2601 54.4378 55.3689 54.3489C56.01 53.83 56.6423 53.2226 57.398 52.8862C57.6901 53.0143 57.8818 53.5047 57.8582 53.8154Z" fill="#FAB380"/>
<path d="M72.0678 43.9274C71.433 44.0233 70.8358 43.5546 70.7339 42.8805C70.6321 42.2064 71.0641 41.5822 71.6988 41.4862C72.3336 41.3903 72.9308 41.859 73.0327 42.5331C73.1346 43.2072 72.7026 43.8314 72.0678 43.9274Z" fill="#190D04"/>
<path d="M72.4211 42.3758C72.2307 42.4046 72.0515 42.2639 72.0209 42.0617C71.9904 41.8595 72.12 41.6722 72.3104 41.6434C72.5008 41.6146 72.68 41.7552 72.7106 41.9575C72.7411 42.1597 72.6115 42.347 72.4211 42.3758Z" fill="#FEF2EA"/>
<path d="M77.6869 45.3253C77.6869 45.3253 79.4165 43.3585 77.125 43.163C76.2632 43.6528 77.6869 45.3253 77.6869 45.3253Z" fill="#633311"/>
<path d="M74.866 49.9963C74.866 49.9963 73.4783 51.7042 72.4651 48.112C71.9486 44.6943 75.3712 48.6715 76.0239 48.3231C76.6766 47.9748 75.9416 49.3343 74.866 49.9963Z" fill="#7C4016"/>
<path d="M71.8549 45.9571C69.83 46.2632 67.9158 44.7079 67.5796 42.4834C67.2434 40.2589 68.6124 38.2074 70.6373 37.9013C72.6623 37.5953 74.5764 39.1505 74.9126 41.3751C75.2488 43.5996 73.8799 45.6511 71.8549 45.9571Z" stroke="#3E655D" stroke-width="2.2" stroke-miterlimit="10"/>
<path d="M72.0479 45.6783C70.0229 45.9844 68.1088 44.4291 67.7726 42.2046C67.4364 39.98 68.8054 37.9286 70.8303 37.6225C72.8553 37.3165 74.7694 38.8717 75.1056 41.0963C75.4418 43.3208 74.0729 45.3723 72.0479 45.6783Z" stroke="#65847D" stroke-width="2.2" stroke-miterlimit="10"/>
<path d="M76.9405 41.9426C76.9405 41.9426 76.1771 41.5586 75.3314 42.1858" stroke="#65847D" stroke-width="1.66" stroke-miterlimit="10" stroke-linecap="round"/>
</g>
<path d="M142.881 56.2492C142.881 56.2492 146.595 75.0736 134.322 75.2142C122.049 75.3548 125.027 56.442 125.027 56.442C125.027 56.442 133.076 48.8954 142.881 56.2492Z" fill="#944D1A"/>
<path d="M125.027 56.4419C125.027 56.4419 133.076 48.8953 142.881 56.2492C142.881 56.2492 142.962 56.6654 143.062 57.3744C142.784 57.2845 142.489 57.2473 142.2 57.2685C142.131 57.2737 141.575 57.2997 141.585 57.3061C141.309 57.3082 141.032 57.2948 140.756 57.2797C140.168 57.2461 139.58 57.1846 138.994 57.1123C137.857 56.9728 136.725 56.7865 135.586 56.6739C133.417 56.4583 131.175 56.5678 128.997 56.7874C128.439 56.3627 127.715 56.2506 127.013 56.5375C126.035 56.9359 125.534 58.3434 126.015 59.3468C126.019 59.3568 126.023 59.3654 126.028 59.3752C125.996 59.3986 125.962 59.4221 125.931 59.4492C125.349 59.9447 125.183 61.0155 125.729 61.6359C126.146 62.1084 126.44 62.5835 126.446 63.2077C126.453 63.9584 126.155 64.6733 125.865 65.3357C125.532 66.0968 125.998 67.0616 126.704 67.365C127.19 67.5737 127.687 67.4815 128.071 67.1953C128.213 67.5102 128.368 67.8164 128.535 68.1168C128.53 68.2284 128.534 68.3465 128.552 68.4717C128.875 70.7663 129.592 72.9816 130.976 74.6872C122.637 71.6366 125.027 56.446 125.027 56.446L125.027 56.4419Z" fill="#944D1A"/>
<path d="M143.181 57.5875C143.181 57.5875 146.554 54.6643 143.152 51.461C139.749 48.2564 128.252 47.5807 123.982 51.9845C119.713 56.3883 125.172 58.0899 125.172 58.0899C125.172 58.0899 143.294 58.231 143.181 57.5875Z" fill="#944D1A"/>
<path d="M122.825 53.4805C124.103 54.3186 125.583 54.8136 127.062 55.1584C128.146 55.9746 129.386 56.4662 130.7 56.7055C130.801 56.7588 130.908 56.7967 131.02 56.818C132.254 57.2658 133.531 57.5739 134.825 57.7107C136.584 57.8972 138.437 57.9573 140.163 57.5474C141.638 57.1979 143.738 56.6325 144.196 54.8951C144.205 54.8594 144.212 54.8241 144.221 54.7872C144.382 54.656 144.532 54.5093 144.668 54.3397C144.754 56.2244 143.182 57.587 143.182 57.587C143.294 58.2294 125.173 58.0894 125.173 58.0894C125.173 58.0894 120.969 56.7784 122.827 53.4801L122.825 53.4805Z" fill="#944D1A"/>
<path d="M134.305 49.6326C134.305 49.6326 133.959 46.5199 134.672 45.489C135.386 44.458 133.734 43.3889 133.458 45.6725C133.183 47.9561 133.557 49.6138 133.737 49.9823C133.917 50.3507 134.305 49.6326 134.305 49.6326Z" fill="#944D1A"/>
<path d="M133.739 47.1824C133.722 46.8157 133.693 46.4627 133.819 46.1167C133.99 45.6464 134.194 45.2872 134.292 44.7778C134.322 44.6217 134.31 44.4651 134.268 44.3185C134.711 44.2924 135.083 44.8956 134.673 45.4891C133.959 46.5201 134.305 49.6328 134.305 49.6328C134.305 49.6328 133.986 50.2231 133.792 50.0546C133.769 49.0967 133.784 48.1396 133.739 47.1824Z" fill="#944D1A"/>
<path d="M142.881 56.2492C142.881 56.2492 146.595 75.0736 134.322 75.2142C122.049 75.3548 125.027 56.442 125.027 56.442C125.027 56.442 133.076 48.8954 142.881 56.2492Z" fill="#F9A66B"/>
<path d="M143.181 57.5875C143.181 57.5875 146.554 54.6643 143.152 51.461C139.749 48.2564 128.252 47.5807 123.982 51.9845C119.713 56.3883 125.172 58.0899 125.172 58.0899C125.172 58.0899 143.294 58.231 143.181 57.5875Z" fill="#AD5A1E"/>
<path d="M122.825 53.4805C124.103 54.3186 125.583 54.8136 127.062 55.1584C128.146 55.9746 129.386 56.4662 130.7 56.7055C130.801 56.7588 130.908 56.7967 131.02 56.818C132.254 57.2658 133.531 57.5739 134.825 57.7107C136.584 57.8972 138.437 57.9573 140.163 57.5474C141.638 57.1979 143.738 56.6325 144.196 54.8951C144.205 54.8594 144.212 54.8241 144.221 54.7872C144.382 54.656 144.532 54.5093 144.668 54.3397C144.754 56.2244 143.182 57.587 143.182 57.587C143.294 58.2294 125.173 58.0894 125.173 58.0894C125.173 58.0894 120.969 56.7784 122.827 53.4801L122.825 53.4805Z" fill="#7C4016"/>
<path d="M134.305 49.6326C134.305 49.6326 133.959 46.5199 134.672 45.489C135.386 44.458 133.734 43.3889 133.458 45.6725C133.183 47.9561 133.557 49.6138 133.737 49.9823C133.917 50.3507 134.305 49.6326 134.305 49.6326Z" fill="#AD5A1E"/>
<path d="M133.739 47.1824C133.722 46.8157 133.693 46.4627 133.819 46.1167C133.99 45.6464 134.194 45.2872 134.292 44.7778C134.322 44.6217 134.31 44.4651 134.268 44.3185C134.711 44.2924 135.083 44.8956 134.673 45.4891C133.959 46.5201 134.305 49.6328 134.305 49.6328C134.305 49.6328 133.986 50.2231 133.792 50.0546C133.769 49.0967 133.784 48.1396 133.739 47.1824Z" fill="#7C4016"/>
<path d="M143.09 58.4595C143.09 58.4595 143.471 62.622 142.735 67.6126C142.735 67.6126 142.8 59.8222 142.319 59.1036C142.28 58.8458 143.09 58.4595 143.09 58.4595Z" fill="#B77B53"/>
<path d="M224.908 56.2492C224.908 56.2492 228.623 75.0736 216.35 75.2142C204.077 75.3548 207.055 56.442 207.055 56.442C207.055 56.442 215.104 48.8954 224.908 56.2492Z" fill="#944D1A"/>
<path d="M207.055 56.4419C207.055 56.4419 215.104 48.8953 224.908 56.2492C224.908 56.2492 224.99 56.6654 225.09 57.3744C224.812 57.2845 224.517 57.2473 224.228 57.2685C224.159 57.2737 223.603 57.2997 223.613 57.3061C223.337 57.3082 223.06 57.2948 222.784 57.2797C222.195 57.2461 221.607 57.1846 221.022 57.1123C219.885 56.9728 218.753 56.7865 217.614 56.6739C215.445 56.4583 213.203 56.5678 211.025 56.7874C210.467 56.3627 209.743 56.2506 209.04 56.5375C208.062 56.9359 207.562 58.3434 208.043 59.3468C208.047 59.3568 208.051 59.3654 208.056 59.3752C208.024 59.3986 207.99 59.4221 207.959 59.4492C207.377 59.9447 207.211 61.0155 207.757 61.6359C208.174 62.1084 208.468 62.5835 208.474 63.2077C208.481 63.9584 208.183 64.6733 207.893 65.3357C207.559 66.0968 208.026 67.0616 208.732 67.365C209.218 67.5737 209.715 67.4815 210.099 67.1953C210.241 67.5102 210.396 67.8164 210.563 68.1168C210.558 68.2284 210.562 68.3465 210.58 68.4717C210.903 70.7663 211.62 72.9816 213.004 74.6872C204.665 71.6366 207.055 56.446 207.055 56.446L207.055 56.4419Z" fill="#944D1A"/>
<path d="M225.209 57.5875C225.209 57.5875 228.582 54.6643 225.179 51.461C221.777 48.2564 210.28 47.5807 206.01 51.9845C201.741 56.3883 207.2 58.0899 207.2 58.0899C207.2 58.0899 225.322 58.231 225.209 57.5875Z" fill="#944D1A"/>
<path d="M204.853 53.4805C206.131 54.3186 207.611 54.8136 209.09 55.1584C210.174 55.9746 211.414 56.4662 212.728 56.7055C212.829 56.7588 212.935 56.7967 213.048 56.818C214.282 57.2658 215.559 57.5739 216.853 57.7107C218.612 57.8972 220.465 57.9573 222.191 57.5474C223.666 57.1979 225.766 56.6325 226.224 54.8951C226.233 54.8594 226.24 54.8241 226.248 54.7872C226.41 54.656 226.56 54.5093 226.696 54.3397C226.782 56.2244 225.21 57.587 225.21 57.587C225.322 58.2294 207.201 58.0894 207.201 58.0894C207.201 58.0894 202.997 56.7784 204.855 53.4801L204.853 53.4805Z" fill="#944D1A"/>
<path d="M216.333 49.6326C216.333 49.6326 215.987 46.5199 216.7 45.489C217.414 44.458 215.762 43.3889 215.486 45.6725C215.211 47.9561 215.585 49.6138 215.765 49.9823C215.945 50.3507 216.333 49.6326 216.333 49.6326Z" fill="#944D1A"/>
<path d="M215.767 47.1824C215.75 46.8157 215.721 46.4627 215.847 46.1167C216.018 45.6464 216.222 45.2872 216.32 44.7778C216.35 44.6217 216.338 44.4651 216.296 44.3185C216.739 44.2924 217.111 44.8956 216.7 45.4891C215.987 46.5201 216.333 49.6328 216.333 49.6328C216.333 49.6328 216.014 50.2231 215.82 50.0546C215.796 49.0967 215.812 48.1396 215.767 47.1824Z" fill="#944D1A"/>
<path d="M224.908 56.2492C224.908 56.2492 228.623 75.0736 216.35 75.2142C204.077 75.3548 207.055 56.442 207.055 56.442C207.055 56.442 215.104 48.8954 224.908 56.2492Z" fill="#F9A66B"/>
<path d="M225.209 57.5875C225.209 57.5875 228.582 54.6643 225.179 51.461C221.777 48.2564 210.28 47.5807 206.01 51.9845C201.741 56.3883 207.2 58.0899 207.2 58.0899C207.2 58.0899 225.322 58.231 225.209 57.5875Z" fill="#AD5A1E"/>
<path d="M204.853 53.4805C206.131 54.3186 207.611 54.8136 209.09 55.1584C210.174 55.9746 211.414 56.4662 212.728 56.7055C212.829 56.7588 212.935 56.7967 213.048 56.818C214.282 57.2658 215.559 57.5739 216.853 57.7107C218.612 57.8972 220.465 57.9573 222.191 57.5474C223.666 57.1979 225.766 56.6325 226.224 54.8951C226.233 54.8594 226.24 54.8241 226.248 54.7872C226.41 54.656 226.56 54.5093 226.696 54.3397C226.782 56.2244 225.21 57.587 225.21 57.587C225.322 58.2294 207.201 58.0894 207.201 58.0894C207.201 58.0894 202.997 56.7784 204.855 53.4801L204.853 53.4805Z" fill="#7C4016"/>
<path d="M216.333 49.6326C216.333 49.6326 215.987 46.5199 216.7 45.489C217.414 44.458 215.762 43.3889 215.486 45.6725C215.211 47.9561 215.585 49.6138 215.765 49.9823C215.945 50.3507 216.333 49.6326 216.333 49.6326Z" fill="#AD5A1E"/>
<path d="M215.767 47.1824C215.75 46.8157 215.721 46.4627 215.847 46.1167C216.018 45.6464 216.222 45.2872 216.32 44.7778C216.35 44.6217 216.338 44.4651 216.296 44.3185C216.739 44.2924 217.111 44.8956 216.7 45.4891C215.987 46.5201 216.333 49.6328 216.333 49.6328C216.333 49.6328 216.014 50.2231 215.82 50.0546C215.796 49.0967 215.812 48.1396 215.767 47.1824Z" fill="#7C4016"/>
<path d="M225.118 58.4595C225.118 58.4595 225.499 62.622 224.763 67.6126C224.763 67.6126 224.828 59.8222 224.346 59.1036C224.307 58.8458 225.118 58.4595 225.118 58.4595Z" fill="#B77B53"/>
<path d="M306.908 56.2492C306.908 56.2492 310.623 75.0736 298.35 75.2142C286.077 75.3548 289.055 56.442 289.055 56.442C289.055 56.442 297.104 48.8954 306.908 56.2492Z" fill="#944D1A"/>
<path d="M289.055 56.4419C289.055 56.4419 297.104 48.8953 306.909 56.2492C306.909 56.2492 306.99 56.6654 307.09 57.3744C306.812 57.2845 306.517 57.2473 306.228 57.2685C306.159 57.2737 305.603 57.2997 305.613 57.3061C305.337 57.3082 305.06 57.2948 304.784 57.2797C304.196 57.2461 303.608 57.1846 303.022 57.1123C301.885 56.9728 300.753 56.7865 299.614 56.6739C297.445 56.4583 295.203 56.5678 293.025 56.7874C292.467 56.3627 291.743 56.2506 291.04 56.5375C290.062 56.9359 289.562 58.3434 290.043 59.3468C290.047 59.3568 290.051 59.3654 290.056 59.3752C290.024 59.3986 289.99 59.4221 289.959 59.4492C289.377 59.9447 289.211 61.0155 289.757 61.6359C290.174 62.1084 290.468 62.5835 290.474 63.2077C290.481 63.9584 290.183 64.6733 289.893 65.3357C289.56 66.0968 290.026 67.0616 290.732 67.365C291.218 67.5737 291.715 67.4815 292.099 67.1953C292.241 67.5102 292.396 67.8164 292.563 68.1168C292.558 68.2284 292.562 68.3465 292.58 68.4717C292.903 70.7663 293.62 72.9816 295.004 74.6872C286.665 71.6366 289.055 56.446 289.055 56.446L289.055 56.4419Z" fill="#944D1A"/>
<path d="M307.209 57.5875C307.209 57.5875 310.582 54.6643 307.179 51.461C303.777 48.2564 292.28 47.5807 288.01 51.9845C283.741 56.3883 289.2 58.0899 289.2 58.0899C289.2 58.0899 307.322 58.231 307.209 57.5875Z" fill="#944D1A"/>
<path d="M286.853 53.4805C288.131 54.3186 289.611 54.8136 291.09 55.1584C292.174 55.9746 293.414 56.4662 294.728 56.7055C294.829 56.7588 294.936 56.7967 295.048 56.818C296.282 57.2658 297.559 57.5739 298.853 57.7107C300.612 57.8972 302.465 57.9573 304.191 57.5474C305.666 57.1979 307.766 56.6325 308.224 54.8951C308.233 54.8594 308.24 54.8241 308.249 54.7872C308.41 54.656 308.56 54.5093 308.696 54.3397C308.782 56.2244 307.21 57.587 307.21 57.587C307.322 58.2294 289.201 58.0894 289.201 58.0894C289.201 58.0894 284.997 56.7784 286.855 53.4801L286.853 53.4805Z" fill="#944D1A"/>
<path d="M298.333 49.6326C298.333 49.6326 297.987 46.5199 298.7 45.489C299.414 44.458 297.762 43.3889 297.486 45.6725C297.211 47.9561 297.585 49.6138 297.765 49.9823C297.945 50.3507 298.333 49.6326 298.333 49.6326Z" fill="#944D1A"/>
<path d="M297.767 47.1824C297.75 46.8157 297.721 46.4627 297.846 46.1167C298.018 45.6464 298.222 45.2872 298.32 44.7778C298.349 44.6217 298.338 44.4651 298.296 44.3185C298.739 44.2924 299.111 44.8956 298.7 45.4891C297.987 46.5201 298.333 49.6328 298.333 49.6328C298.333 49.6328 298.014 50.2231 297.819 50.0546C297.796 49.0967 297.812 48.1396 297.767 47.1824Z" fill="#944D1A"/>
<path d="M306.908 56.2492C306.908 56.2492 310.623 75.0736 298.35 75.2142C286.077 75.3548 289.055 56.442 289.055 56.442C289.055 56.442 297.104 48.8954 306.908 56.2492Z" fill="#F9A66B"/>
<path d="M307.209 57.5875C307.209 57.5875 310.582 54.6643 307.179 51.461C303.777 48.2564 292.28 47.5807 288.01 51.9845C283.741 56.3883 289.2 58.0899 289.2 58.0899C289.2 58.0899 307.322 58.231 307.209 57.5875Z" fill="#AD5A1E"/>
<path d="M286.853 53.4805C288.131 54.3186 289.611 54.8136 291.09 55.1584C292.174 55.9746 293.414 56.4662 294.728 56.7055C294.829 56.7588 294.936 56.7967 295.048 56.818C296.282 57.2658 297.559 57.5739 298.853 57.7107C300.612 57.8972 302.465 57.9573 304.191 57.5474C305.666 57.1979 307.766 56.6325 308.224 54.8951C308.233 54.8594 308.24 54.8241 308.249 54.7872C308.41 54.656 308.56 54.5093 308.696 54.3397C308.782 56.2244 307.21 57.587 307.21 57.587C307.322 58.2294 289.201 58.0894 289.201 58.0894C289.201 58.0894 284.997 56.7784 286.855 53.4801L286.853 53.4805Z" fill="#7C4016"/>
<path d="M298.333 49.6326C298.333 49.6326 297.987 46.5199 298.7 45.489C299.414 44.458 297.762 43.3889 297.486 45.6725C297.211 47.9561 297.585 49.6138 297.765 49.9823C297.945 50.3507 298.333 49.6326 298.333 49.6326Z" fill="#AD5A1E"/>
<path d="M297.767 47.1824C297.75 46.8157 297.721 46.4627 297.846 46.1167C298.018 45.6464 298.222 45.2872 298.32 44.7778C298.349 44.6217 298.338 44.4651 298.296 44.3185C298.739 44.2924 299.111 44.8956 298.7 45.4891C297.987 46.5201 298.333 49.6328 298.333 49.6328C298.333 49.6328 298.014 50.2231 297.819 50.0546C297.796 49.0967 297.812 48.1396 297.767 47.1824Z" fill="#7C4016"/>
<path d="M307.118 58.4595C307.118 58.4595 307.499 62.622 306.763 67.6126C306.763 67.6126 306.828 59.8222 306.346 59.1036C306.307 58.8458 307.118 58.4595 307.118 58.4595Z" fill="#B77B53"/>
<path d="M388.908 56.2492C388.908 56.2492 392.623 75.0736 380.35 75.2142C368.077 75.3548 371.055 56.442 371.055 56.442C371.055 56.442 379.104 48.8954 388.908 56.2492Z" fill="#944D1A"/>
<path d="M371.055 56.4419C371.055 56.4419 379.104 48.8953 388.909 56.2492C388.909 56.2492 388.99 56.6654 389.09 57.3744C388.812 57.2845 388.517 57.2473 388.228 57.2685C388.159 57.2737 387.603 57.2997 387.613 57.3061C387.337 57.3082 387.06 57.2948 386.784 57.2797C386.196 57.2461 385.608 57.1846 385.022 57.1123C383.885 56.9728 382.753 56.7865 381.614 56.6739C379.445 56.4583 377.203 56.5678 375.025 56.7874C374.467 56.3627 373.743 56.2506 373.04 56.5375C372.062 56.9359 371.562 58.3434 372.043 59.3468C372.047 59.3568 372.051 59.3654 372.056 59.3752C372.024 59.3986 371.99 59.4221 371.959 59.4492C371.377 59.9447 371.211 61.0155 371.757 61.6359C372.174 62.1084 372.468 62.5835 372.474 63.2077C372.481 63.9584 372.183 64.6733 371.893 65.3357C371.56 66.0968 372.026 67.0616 372.732 67.365C373.218 67.5737 373.715 67.4815 374.099 67.1953C374.241 67.5102 374.396 67.8164 374.563 68.1168C374.558 68.2284 374.562 68.3465 374.58 68.4717C374.903 70.7663 375.62 72.9816 377.004 74.6872C368.665 71.6366 371.055 56.446 371.055 56.446L371.055 56.4419Z" fill="#944D1A"/>
<path d="M389.209 57.5875C389.209 57.5875 392.582 54.6643 389.179 51.461C385.777 48.2564 374.28 47.5807 370.01 51.9845C365.741 56.3883 371.2 58.0899 371.2 58.0899C371.2 58.0899 389.322 58.231 389.209 57.5875Z" fill="#944D1A"/>
<path d="M368.853 53.4805C370.131 54.3186 371.611 54.8136 373.09 55.1584C374.174 55.9746 375.414 56.4662 376.728 56.7055C376.829 56.7588 376.936 56.7967 377.048 56.818C378.282 57.2658 379.559 57.5739 380.853 57.7107C382.612 57.8972 384.465 57.9573 386.191 57.5474C387.666 57.1979 389.766 56.6325 390.224 54.8951C390.233 54.8594 390.24 54.8241 390.249 54.7872C390.41 54.656 390.56 54.5093 390.696 54.3397C390.782 56.2244 389.21 57.587 389.21 57.587C389.322 58.2294 371.201 58.0894 371.201 58.0894C371.201 58.0894 366.997 56.7784 368.855 53.4801L368.853 53.4805Z" fill="#944D1A"/>
<path d="M380.333 49.6326C380.333 49.6326 379.987 46.5199 380.7 45.489C381.414 44.458 379.762 43.3889 379.486 45.6725C379.211 47.9561 379.585 49.6138 379.765 49.9823C379.945 50.3507 380.333 49.6326 380.333 49.6326Z" fill="#944D1A"/>
<path d="M379.767 47.1824C379.75 46.8157 379.721 46.4627 379.846 46.1167C380.018 45.6464 380.222 45.2872 380.32 44.7778C380.349 44.6217 380.338 44.4651 380.296 44.3185C380.739 44.2924 381.111 44.8956 380.7 45.4891C379.987 46.5201 380.333 49.6328 380.333 49.6328C380.333 49.6328 380.014 50.2231 379.819 50.0546C379.796 49.0967 379.812 48.1396 379.767 47.1824Z" fill="#944D1A"/>
<path d="M388.908 56.2492C388.908 56.2492 392.623 75.0736 380.35 75.2142C368.077 75.3548 371.055 56.442 371.055 56.442C371.055 56.442 379.104 48.8954 388.908 56.2492Z" fill="#F9A66B"/>
<path d="M389.209 57.5875C389.209 57.5875 392.582 54.6643 389.179 51.461C385.777 48.2564 374.28 47.5807 370.01 51.9845C365.741 56.3883 371.2 58.0899 371.2 58.0899C371.2 58.0899 389.322 58.231 389.209 57.5875Z" fill="#AD5A1E"/>
<path d="M368.853 53.4805C370.131 54.3186 371.611 54.8136 373.09 55.1584C374.174 55.9746 375.414 56.4662 376.728 56.7055C376.829 56.7588 376.936 56.7967 377.048 56.818C378.282 57.2658 379.559 57.5739 380.853 57.7107C382.612 57.8972 384.465 57.9573 386.191 57.5474C387.666 57.1979 389.766 56.6325 390.224 54.8951C390.233 54.8594 390.24 54.8241 390.249 54.7872C390.41 54.656 390.56 54.5093 390.696 54.3397C390.782 56.2244 389.21 57.587 389.21 57.587C389.322 58.2294 371.201 58.0894 371.201 58.0894C371.201 58.0894 366.997 56.7784 368.855 53.4801L368.853 53.4805Z" fill="#7C4016"/>
<path d="M380.333 49.6326C380.333 49.6326 379.987 46.5199 380.7 45.489C381.414 44.458 379.762 43.3889 379.486 45.6725C379.211 47.9561 379.585 49.6138 379.765 49.9823C379.945 50.3507 380.333 49.6326 380.333 49.6326Z" fill="#AD5A1E"/>
<path d="M379.767 47.1824C379.75 46.8157 379.721 46.4627 379.846 46.1167C380.018 45.6464 380.222 45.2872 380.32 44.7778C380.349 44.6217 380.338 44.4651 380.296 44.3185C380.739 44.2924 381.111 44.8956 380.7 45.4891C379.987 46.5201 380.333 49.6328 380.333 49.6328C380.333 49.6328 380.014 50.2231 379.819 50.0546C379.796 49.0967 379.812 48.1396 379.767 47.1824Z" fill="#7C4016"/>
<path d="M389.118 58.4595C389.118 58.4595 389.499 62.622 388.763 67.6126C388.763 67.6126 388.828 59.8222 388.346 59.1036C388.307 58.8458 389.118 58.4595 389.118 58.4595Z" fill="#B77B53"/>
<circle cx="175" cy="60" r="4" fill="#3E655D"/>
<circle cx="257" cy="60" r="4" fill="#3E655D"/>
<circle cx="339" cy="60" r="4" fill="#3E655D"/>
<defs>
<clipPath id="clip0_1341_3289">
<rect width="103.472" height="85.2947" fill="white" transform="matrix(-0.98877 0.149446 0.149446 0.98877 102.31 0)"/>
</clipPath>
</defs>
</svg>
