<svg width="394" height="110" viewBox="0 0 394 110" fill="none" xmlns="http://www.w3.org/2000/svg">
<g clip-path="url(#clip0_1459_4065)">
<path d="M216.385 98.3444C194.493 104.4 172.058 91.3109 188.237 59.9014C193.096 46.9322 170.679 51.0694 181.205 64.7097C182.456 66.7677 181.804 67.1161 180.774 66.5227C120.912 31.3749 222.99 -13.5171 202.825 66.1861C202.825 66.1861 198.897 83.7588 210.081 89.3094C221.266 94.86 222.305 93.954 216.385 98.3444Z" fill="#944D1A"/>
<path d="M190.753 92.5355C195.051 95.6937 200.695 97.7545 205.651 95.3274C205.816 95.2477 205.963 95.1529 206.097 95.0529C207.095 94.8596 208.051 94.5128 208.86 93.8887C210.388 92.7064 210.689 91.0453 210.259 89.3974C221.276 94.851 222.275 93.9784 216.387 98.3465C201.571 102.444 186.508 97.7739 183.332 84.5882C183.347 84.501 183.367 84.4156 183.385 84.3281C185.196 87.6024 187.867 90.4173 190.753 92.5379L190.753 92.5355Z" fill="#633311"/>
<path d="M173.67 27.1962C176.334 25.4353 179.286 24.2451 182.458 24.0428C186.94 23.7548 191.095 25.6388 194.455 28.6241C194.449 28.7573 194.452 28.8843 194.466 29.007C189.149 24.8193 182.207 25.2443 176.438 27.8816C173.388 29.2765 170.427 31.2945 167.968 33.8161C168.449 30.8743 171.467 28.6554 173.668 27.199L173.67 27.1962Z" fill="#FAB380"/>
<path d="M175.027 56.8018C175.022 56.7053 175.019 56.6359 175.017 56.5912C175.017 56.4863 175.016 56.3841 175.016 56.2791C175.022 56.0012 175.034 55.7247 175.051 55.4475C175.091 54.7996 175.168 54.1538 175.281 53.5175C175.309 53.3585 175.341 53.1988 175.374 53.0416C175.448 52.7532 175.529 52.4663 175.62 52.1853C175.814 51.5842 176.055 51.0135 176.306 50.4362C176.327 50.3905 176.343 50.3532 176.354 50.3215C176.372 50.2964 176.395 50.263 176.423 50.2162C176.607 49.9262 176.779 49.6306 176.979 49.3507C177.126 49.1437 177.285 48.9474 177.441 48.7491C177.548 48.6379 177.657 48.5316 177.77 48.4271C177.952 48.2598 178.142 48.1012 178.335 47.9497C178.409 47.8936 178.488 47.8392 178.562 47.7855C178.597 47.7653 178.643 47.7409 178.701 47.7047C178.927 47.603 179.141 47.4783 179.369 47.3839C179.493 47.3327 179.62 47.2861 179.747 47.2394C179.763 47.237 179.779 47.2321 179.797 47.2269C180.056 47.1827 180.31 47.1219 180.571 47.0875C180.697 47.0708 181.791 47.0453 181.138 47.0317C181.678 47.0424 182.202 46.9458 182.67 46.7452C182.684 46.7455 182.699 46.7483 182.713 46.7487C183.574 47.033 184.46 47.1988 185.355 47.2858C187.189 47.9225 188.786 49.0967 189.964 50.8388C190.109 52.5423 190.08 54.2471 189.887 55.9316C189.167 58.9918 187.67 61.9324 186.012 64.7173C186.002 64.7288 185.992 64.7427 185.98 64.7546C186.627 63.1885 187.378 61.572 188.237 59.9015C193.096 46.9322 170.679 51.0695 181.205 64.7097C182.456 66.7678 181.804 67.1161 180.774 66.5228C180.043 66.0938 179.339 65.6635 178.655 65.2324C177.726 64.062 176.88 62.8341 176.214 61.494C175.954 60.9715 175.721 60.4424 175.534 59.8864C175.507 59.8055 175.483 59.7243 175.457 59.6433C175.446 59.6001 175.432 59.5422 175.411 59.463C175.362 59.2032 175.297 58.9458 175.248 58.6836C175.135 58.0566 175.087 57.432 175.025 56.7997L175.027 56.8018Z" fill="#633311"/>
<path d="M205.898 85.9642C206.115 86.2311 206.34 86.4917 206.58 86.7426C206.421 86.8091 206.274 86.8962 206.141 86.9938C206.075 86.6516 205.986 86.3081 205.898 85.9642Z" fill="#633311"/>
<path d="M233.323 54.9249C231.645 55.1786 230.058 53.8891 229.779 52.0447C229.5 50.2004 230.635 48.4996 232.313 48.2459C233.992 47.9923 235.578 49.2818 235.857 51.1261C236.136 52.9705 235.001 54.6713 233.323 54.9249Z" stroke="#3E655D" stroke-width="1.82" stroke-miterlimit="10"/>
<path d="M233.516 54.6459C231.838 54.8995 230.251 53.61 229.972 51.7657C229.693 49.9213 230.828 48.2206 232.506 47.9669C234.185 47.7132 235.771 49.0027 236.05 50.8471C236.329 52.6914 235.194 54.3922 233.516 54.6459Z" stroke="#65847D" stroke-width="1.82" stroke-miterlimit="10"/>
<path d="M218.246 46.8764C218.246 46.8764 230.114 39.8391 236.125 53.163C237.422 53.9657 237.314 59.4752 230.832 61.7034C224.35 63.9315 243.203 67.3244 245.218 69.7664C247.233 72.2085 233.974 74.7119 233.974 74.7119C233.974 74.7119 234.732 82.8372 237.4 84.9309C238.671 90.2319 229.635 97.3406 229.635 97.3406C229.635 97.3406 232.07 93.2272 242.077 97.2079C246.879 100.977 225.066 99.779 219.631 99.6016C213.47 99.2844 191.623 83.8595 215.402 62.2877C215.402 62.2877 218.831 58.5235 214.321 50.4659C209.811 42.4083 216.699 42.8654 218.246 46.8764Z" fill="#F7802B"/>
<path d="M231.627 98.2453C229.905 98.116 228.135 97.7918 226.626 97.036C227.039 96.7789 227.443 96.5082 227.825 96.2256C229.923 94.9372 231.804 93.3171 233.181 91.2737C233.709 90.752 234.177 90.1319 234.511 89.4473C234.794 89.0199 235.036 88.5688 235.225 88.0884C235.563 87.2332 235.6 86.1215 235.341 85.1544C235.301 84.9382 235.233 84.7363 235.132 84.5518C234.663 83.4716 233.755 82.7349 232.419 83.0567C232.455 81.7104 232.336 80.3476 232.224 79.0137C232.079 77.2952 231.915 75.7396 232.457 74.1818C232.569 73.8604 232.629 73.5291 232.645 73.1996C234.338 73.0586 236.052 73.1241 237.721 72.6996C238.856 72.4108 239.953 72.0052 241.037 71.5493C241.644 71.2926 242.247 70.9994 242.913 70.976C243.175 70.9664 244.422 71.0951 244.4 71.5103C241.591 73.2708 233.976 74.7089 233.976 74.7089C233.976 74.7089 234.734 82.8341 237.402 84.9279C238.374 88.9832 233.314 94.0976 230.883 96.2754C232.453 95.4062 235.752 94.6879 242.079 97.2049C243.842 98.5889 242.015 99.302 238.73 99.6437C236.927 98.031 233.881 98.4139 231.627 98.2453Z" fill="#C66622"/>
<path d="M213.463 96.419C214.882 97.4129 216.896 98.6641 218.869 99.1649C219.145 99.323 219.425 99.4679 219.707 99.6026C219.683 99.6012 219.655 99.6005 219.631 99.5991C217.145 99.4704 212.105 96.8813 208.541 92.4187C210.111 93.8468 211.735 95.2069 213.462 96.4165L213.463 96.419Z" fill="#C66622"/>
<path d="M215.831 44.7943C215.876 44.8076 215.919 44.816 215.964 44.8341C216.846 45.1603 217.762 46.2104 218.102 47.2651C217.989 47.3271 217.875 47.3919 217.764 47.4536C217.725 47.4769 217.689 47.5023 217.651 47.5281C216.847 47.5598 216.333 46.7411 216.001 45.9971C215.95 45.5953 215.896 45.1915 215.829 44.7946L215.831 44.7943Z" fill="#FAB380"/>
<path d="M234.138 58.8367C234.394 58.9652 234.647 59.0944 234.892 59.227C234.525 59.6097 234.092 59.9798 233.594 60.3271C233.808 59.8454 233.989 59.3485 234.135 58.8371L234.138 58.8367Z" fill="#FAB380"/>
<path d="M216.858 63.8154C216.8 64.5807 215.967 65.3834 215.499 65.8985C214.621 66.8702 213.624 67.71 212.751 68.6859C210.793 70.8695 209.386 73.9262 208.294 76.6929C207.144 79.611 206.823 82.4684 206.935 85.6327C206.952 86.1195 206.98 86.6045 207.025 87.0872C206.35 84.6399 206.063 82.104 206.178 79.5972C206.49 76.9956 207.079 74.4072 208.421 72.1968C208.497 72.073 208.539 71.9492 208.558 71.8265C209.552 70.1233 210.635 68.4839 211.862 66.9426C212.532 66.1022 213.251 65.2769 214.033 64.522C214.146 64.4949 214.26 64.4378 214.369 64.3489C215.01 63.83 215.642 63.2226 216.398 62.8862C216.69 63.0143 216.882 63.5047 216.858 63.8154Z" fill="#FAB380"/>
<path d="M231.068 53.9274C230.433 54.0233 229.836 53.5546 229.734 52.8805C229.632 52.2064 230.064 51.5822 230.699 51.4862C231.334 51.3903 231.931 51.859 232.033 52.5331C232.135 53.2072 231.703 53.8314 231.068 53.9274Z" fill="#190D04"/>
<path d="M231.421 52.3758C231.231 52.4046 231.051 52.2639 231.021 52.0617C230.99 51.8595 231.12 51.6722 231.31 51.6434C231.501 51.6146 231.68 51.7552 231.711 51.9575C231.741 52.1597 231.611 52.347 231.421 52.3758Z" fill="#FEF2EA"/>
<path d="M236.687 55.3253C236.687 55.3253 238.416 53.3585 236.125 53.163C235.263 53.6528 236.687 55.3253 236.687 55.3253Z" fill="#633311"/>
<path d="M233.866 59.9963C233.866 59.9963 232.478 61.7042 231.465 58.112C230.949 54.6943 234.371 58.6715 235.024 58.3231C235.677 57.9748 234.942 59.3343 233.866 59.9963Z" fill="#7C4016"/>
<path d="M230.855 55.9571C228.83 56.2632 226.916 54.7079 226.58 52.4834C226.243 50.2589 227.612 48.2074 229.637 47.9013C231.662 47.5953 233.576 49.1505 233.913 51.3751C234.249 53.5996 232.88 55.6511 230.855 55.9571Z" stroke="#3E655D" stroke-width="2.2" stroke-miterlimit="10"/>
<path d="M231.048 55.6781C229.023 55.9841 227.109 54.4289 226.773 52.2043C226.436 49.9798 227.805 47.9283 229.83 47.6223C231.855 47.3162 233.769 48.8715 234.106 51.096C234.442 53.3206 233.073 55.372 231.048 55.6781Z" stroke="#65847D" stroke-width="2.2" stroke-miterlimit="10"/>
<path d="M235.941 51.9423C235.941 51.9423 235.177 51.5583 234.331 52.1855" stroke="#65847D" stroke-width="1.66" stroke-miterlimit="10" stroke-linecap="round"/>
</g>
<path d="M306.908 56.2492C306.908 56.2492 310.623 75.0736 298.35 75.2142C286.077 75.3548 289.055 56.442 289.055 56.442C289.055 56.442 297.104 48.8954 306.908 56.2492Z" fill="#944D1A"/>
<path d="M289.055 56.4419C289.055 56.4419 297.104 48.8953 306.908 56.2492C306.908 56.2492 306.99 56.6654 307.09 57.3744C306.812 57.2845 306.517 57.2473 306.228 57.2685C306.159 57.2737 305.603 57.2997 305.613 57.3061C305.337 57.3082 305.06 57.2948 304.784 57.2797C304.195 57.2461 303.607 57.1846 303.022 57.1123C301.885 56.9728 300.753 56.7865 299.614 56.6739C297.445 56.4583 295.203 56.5678 293.025 56.7874C292.467 56.3627 291.743 56.2506 291.04 56.5375C290.062 56.9359 289.562 58.3434 290.043 59.3468C290.047 59.3568 290.051 59.3654 290.056 59.3752C290.024 59.3986 289.99 59.4221 289.959 59.4492C289.377 59.9447 289.211 61.0155 289.757 61.6359C290.174 62.1084 290.468 62.5835 290.474 63.2077C290.481 63.9584 290.183 64.6733 289.893 65.3357C289.559 66.0968 290.026 67.0616 290.732 67.365C291.218 67.5737 291.715 67.4815 292.099 67.1953C292.241 67.5102 292.396 67.8164 292.563 68.1168C292.558 68.2284 292.562 68.3465 292.58 68.4717C292.903 70.7663 293.62 72.9816 295.004 74.6872C286.665 71.6366 289.055 56.446 289.055 56.446L289.055 56.4419Z" fill="#944D1A"/>
<path d="M307.209 57.5872C307.209 57.5872 310.582 54.6641 307.179 51.4607C303.777 48.2561 292.28 47.5805 288.01 51.9843C283.741 56.388 289.2 58.0897 289.2 58.0897C289.2 58.0897 307.322 58.2308 307.209 57.5872Z" fill="#944D1A"/>
<path d="M286.853 53.4805C288.131 54.3186 289.611 54.8136 291.09 55.1584C292.174 55.9746 293.414 56.4662 294.728 56.7055C294.829 56.7587 294.935 56.7967 295.048 56.818C296.282 57.2658 297.559 57.5739 298.853 57.7107C300.612 57.8972 302.465 57.9573 304.191 57.5474C305.666 57.1979 307.766 56.6325 308.224 54.8951C308.233 54.8594 308.24 54.8241 308.248 54.7872C308.41 54.656 308.56 54.5093 308.696 54.3397C308.782 56.2244 307.21 57.587 307.21 57.587C307.322 58.2294 289.201 58.0894 289.201 58.0894C289.201 58.0894 284.997 56.7784 286.855 53.4801L286.853 53.4805Z" fill="#944D1A"/>
<path d="M298.333 49.6329C298.333 49.6329 297.987 46.5202 298.7 45.4892C299.414 44.4582 297.762 43.3891 297.486 45.6727C297.211 47.9563 297.585 49.6141 297.765 49.9825C297.945 50.3509 298.333 49.6329 298.333 49.6329Z" fill="#944D1A"/>
<path d="M297.767 47.1824C297.75 46.8157 297.721 46.4627 297.846 46.1167C298.018 45.6464 298.222 45.2872 298.32 44.7778C298.349 44.6217 298.338 44.4651 298.296 44.3185C298.739 44.2924 299.111 44.8956 298.7 45.4891C297.987 46.5201 298.333 49.6328 298.333 49.6328C298.333 49.6328 298.014 50.2231 297.82 50.0546C297.796 49.0967 297.812 48.1396 297.767 47.1824Z" fill="#944D1A"/>
<path d="M306.908 56.2492C306.908 56.2492 310.623 75.0736 298.35 75.2142C286.077 75.3548 289.055 56.442 289.055 56.442C289.055 56.442 297.104 48.8954 306.908 56.2492Z" fill="#F9A66B"/>
<path d="M307.209 57.5872C307.209 57.5872 310.582 54.6641 307.179 51.4607C303.777 48.2561 292.28 47.5805 288.01 51.9843C283.741 56.388 289.2 58.0897 289.2 58.0897C289.2 58.0897 307.322 58.2308 307.209 57.5872Z" fill="#AD5A1E"/>
<path d="M286.853 53.4805C288.131 54.3186 289.611 54.8136 291.09 55.1584C292.174 55.9746 293.414 56.4662 294.728 56.7055C294.829 56.7587 294.935 56.7967 295.048 56.818C296.282 57.2658 297.559 57.5739 298.853 57.7107C300.612 57.8972 302.465 57.9573 304.191 57.5474C305.666 57.1979 307.766 56.6325 308.224 54.8951C308.233 54.8594 308.24 54.8241 308.248 54.7872C308.41 54.656 308.56 54.5093 308.696 54.3397C308.782 56.2244 307.21 57.587 307.21 57.587C307.322 58.2294 289.201 58.0894 289.201 58.0894C289.201 58.0894 284.997 56.7784 286.855 53.4801L286.853 53.4805Z" fill="#7C4016"/>
<path d="M298.333 49.6329C298.333 49.6329 297.987 46.5202 298.7 45.4892C299.414 44.4582 297.762 43.3891 297.486 45.6727C297.211 47.9563 297.585 49.6141 297.765 49.9825C297.945 50.3509 298.333 49.6329 298.333 49.6329Z" fill="#AD5A1E"/>
<path d="M297.767 47.1824C297.75 46.8157 297.721 46.4627 297.846 46.1167C298.018 45.6464 298.222 45.2872 298.32 44.7778C298.349 44.6217 298.338 44.4651 298.296 44.3185C298.739 44.2924 299.111 44.8956 298.7 45.4891C297.987 46.5201 298.333 49.6328 298.333 49.6328C298.333 49.6328 298.014 50.2231 297.82 50.0546C297.796 49.0967 297.812 48.1396 297.767 47.1824Z" fill="#7C4016"/>
<path d="M307.118 58.4595C307.118 58.4595 307.499 62.622 306.763 67.6126C306.763 67.6126 306.828 59.8222 306.346 59.1036C306.307 58.8458 307.118 58.4595 307.118 58.4595Z" fill="#B77B53"/>
<path d="M388.908 56.2492C388.908 56.2492 392.623 75.0736 380.35 75.2142C368.077 75.3548 371.055 56.442 371.055 56.442C371.055 56.442 379.104 48.8954 388.908 56.2492Z" fill="#944D1A"/>
<path d="M371.055 56.4419C371.055 56.4419 379.104 48.8953 388.908 56.2492C388.908 56.2492 388.99 56.6654 389.09 57.3744C388.812 57.2845 388.517 57.2473 388.228 57.2685C388.159 57.2737 387.603 57.2997 387.613 57.3061C387.337 57.3082 387.06 57.2948 386.784 57.2797C386.195 57.2461 385.607 57.1846 385.022 57.1123C383.885 56.9728 382.753 56.7865 381.614 56.6739C379.445 56.4583 377.203 56.5678 375.025 56.7874C374.467 56.3627 373.743 56.2506 373.04 56.5375C372.062 56.9359 371.562 58.3434 372.043 59.3468C372.047 59.3568 372.051 59.3654 372.056 59.3752C372.024 59.3986 371.99 59.4221 371.959 59.4492C371.377 59.9447 371.211 61.0155 371.757 61.6359C372.174 62.1084 372.468 62.5835 372.474 63.2077C372.481 63.9584 372.183 64.6733 371.893 65.3357C371.559 66.0968 372.026 67.0616 372.732 67.365C373.218 67.5737 373.715 67.4815 374.099 67.1953C374.241 67.5102 374.396 67.8164 374.563 68.1168C374.558 68.2284 374.562 68.3465 374.58 68.4717C374.903 70.7663 375.62 72.9816 377.004 74.6872C368.665 71.6366 371.055 56.446 371.055 56.446L371.055 56.4419Z" fill="#944D1A"/>
<path d="M389.209 57.5872C389.209 57.5872 392.582 54.6641 389.179 51.4607C385.777 48.2561 374.28 47.5805 370.01 51.9843C365.741 56.388 371.2 58.0897 371.2 58.0897C371.2 58.0897 389.322 58.2308 389.209 57.5872Z" fill="#944D1A"/>
<path d="M368.853 53.4805C370.131 54.3186 371.611 54.8136 373.09 55.1584C374.174 55.9746 375.414 56.4662 376.728 56.7055C376.829 56.7587 376.935 56.7967 377.048 56.818C378.282 57.2658 379.559 57.5739 380.853 57.7107C382.612 57.8972 384.465 57.9573 386.191 57.5474C387.666 57.1979 389.766 56.6325 390.224 54.8951C390.233 54.8594 390.24 54.8241 390.248 54.7872C390.41 54.656 390.56 54.5093 390.696 54.3397C390.782 56.2244 389.21 57.587 389.21 57.587C389.322 58.2294 371.201 58.0894 371.201 58.0894C371.201 58.0894 366.997 56.7784 368.855 53.4801L368.853 53.4805Z" fill="#944D1A"/>
<path d="M380.333 49.6329C380.333 49.6329 379.987 46.5202 380.7 45.4892C381.414 44.4582 379.762 43.3891 379.486 45.6727C379.211 47.9563 379.585 49.6141 379.765 49.9825C379.945 50.3509 380.333 49.6329 380.333 49.6329Z" fill="#944D1A"/>
<path d="M379.767 47.1824C379.75 46.8157 379.721 46.4627 379.847 46.1167C380.018 45.6464 380.222 45.2872 380.32 44.7778C380.35 44.6217 380.338 44.4651 380.296 44.3185C380.739 44.2924 381.111 44.8956 380.7 45.4891C379.987 46.5201 380.333 49.6328 380.333 49.6328C380.333 49.6328 380.014 50.2231 379.82 50.0546C379.796 49.0967 379.812 48.1396 379.767 47.1824Z" fill="#944D1A"/>
<path d="M388.908 56.2492C388.908 56.2492 392.623 75.0736 380.35 75.2142C368.077 75.3548 371.055 56.442 371.055 56.442C371.055 56.442 379.104 48.8954 388.908 56.2492Z" fill="#F9A66B"/>
<path d="M389.209 57.5872C389.209 57.5872 392.582 54.6641 389.179 51.4607C385.777 48.2561 374.28 47.5805 370.01 51.9843C365.741 56.388 371.2 58.0897 371.2 58.0897C371.2 58.0897 389.322 58.2308 389.209 57.5872Z" fill="#AD5A1E"/>
<path d="M368.853 53.4805C370.131 54.3186 371.611 54.8136 373.09 55.1584C374.174 55.9746 375.414 56.4662 376.728 56.7055C376.829 56.7587 376.935 56.7967 377.048 56.818C378.282 57.2658 379.559 57.5739 380.853 57.7107C382.612 57.8972 384.465 57.9573 386.191 57.5474C387.666 57.1979 389.766 56.6325 390.224 54.8951C390.233 54.8594 390.24 54.8241 390.248 54.7872C390.41 54.656 390.56 54.5093 390.696 54.3397C390.782 56.2244 389.21 57.587 389.21 57.587C389.322 58.2294 371.201 58.0894 371.201 58.0894C371.201 58.0894 366.997 56.7784 368.855 53.4801L368.853 53.4805Z" fill="#7C4016"/>
<path d="M380.333 49.6329C380.333 49.6329 379.987 46.5202 380.7 45.4892C381.414 44.4582 379.762 43.3891 379.486 45.6727C379.211 47.9563 379.585 49.6141 379.765 49.9825C379.945 50.3509 380.333 49.6329 380.333 49.6329Z" fill="#AD5A1E"/>
<path d="M379.767 47.1824C379.75 46.8157 379.721 46.4627 379.847 46.1167C380.018 45.6464 380.222 45.2872 380.32 44.7778C380.35 44.6217 380.338 44.4651 380.296 44.3185C380.739 44.2924 381.111 44.8956 380.7 45.4891C379.987 46.5201 380.333 49.6328 380.333 49.6328C380.333 49.6328 380.014 50.2231 379.82 50.0546C379.796 49.0967 379.812 48.1396 379.767 47.1824Z" fill="#7C4016"/>
<path d="M389.118 58.4595C389.118 58.4595 389.499 62.622 388.763 67.6126C388.763 67.6126 388.828 59.8222 388.346 59.1036C388.307 58.8458 389.118 58.4595 389.118 58.4595Z" fill="#B77B53"/>
<circle cx="339" cy="60" r="4" fill="#3E655D"/>
<defs>
<clipPath id="clip0_1459_4065">
<rect width="103.472" height="85.2947" fill="white" transform="matrix(-0.98877 0.149446 0.149446 0.98877 261.31 10)"/>
</clipPath>
</defs>
</svg>
