<svg width="39" height="39" viewBox="0 0 39 39" fill="none" xmlns="http://www.w3.org/2000/svg">
<g filter="url(#filter0_d_1518_2856)">
<rect x="2" width="35" height="35" rx="5" fill="#FCF1DD" shape-rendering="crispEdges"/>
<rect x="3" y="1" width="33" height="33" rx="4" stroke="#3E655D" stroke-width="2" shape-rendering="crispEdges"/>
<path d="M26.8625 20.4697C28.1886 20.4697 29.4604 20.9964 30.398 21.9341C31.3357 22.8718 31.8625 24.1436 31.8625 25.4697C31.8625 26.7957 31.3357 28.0675 30.398 29.0052C29.4604 29.9429 28.1886 30.4697 26.8625 30.4697C25.5364 30.4697 24.2646 29.9429 23.327 29.0052C22.3893 28.0675 21.8625 26.7957 21.8625 25.4697C21.8625 24.1436 22.3893 22.8718 23.327 21.9341C24.2646 20.9964 25.5364 20.4697 26.8625 20.4697ZM26.8625 22.9697C26.1995 22.9697 25.5636 23.2331 25.0947 23.7019C24.6259 24.1707 24.3625 24.8066 24.3625 25.4697C24.3625 26.1327 24.6259 26.7686 25.0947 27.2374C25.5636 27.7063 26.1995 27.9697 26.8625 27.9697C27.5255 27.9697 28.1614 27.7063 28.6303 27.2374C29.0991 26.7686 29.3625 26.1327 29.3625 25.4697C29.3625 24.8066 29.0991 24.1707 28.6303 23.7019C28.1614 23.2331 27.5255 22.9697 26.8625 22.9697ZM11.925 19.8947C11.925 19.8947 13.6875 18.1197 13.7 14.5947C13.25 11.8572 14.325 8.64466 16.7875 6.19466C20.45 2.53216 25.7875 1.93216 28.7375 4.84466C31.65 7.79466 31.05 13.1322 27.3875 16.7947C24.9375 19.2572 21.725 20.3322 18.9875 19.8822C15.4625 19.8947 13.6875 21.6572 13.6875 21.6572L8.3875 26.9572L6.625 25.1947L11.925 19.8947ZM26.95 6.63216C24.9875 4.68216 21.2375 5.26966 18.55 7.96966C15.875 10.6447 15.275 14.4072 17.225 16.3572C19.1875 18.3072 22.9375 17.7072 25.6125 15.0322C28.3125 12.3447 28.9 8.59466 26.95 6.63216Z" fill="#3E655D"/>
</g>
<defs>
<filter id="filter0_d_1518_2856" x="0" y="0" width="39" height="39" filterUnits="userSpaceOnUse" color-interpolation-filters="sRGB">
<feFlood flood-opacity="0" result="BackgroundImageFix"/>
<feColorMatrix in="SourceAlpha" type="matrix" values="0 0 0 0 0 0 0 0 0 0 0 0 0 0 0 0 0 0 127 0" result="hardAlpha"/>
<feOffset dy="2"/>
<feGaussianBlur stdDeviation="1"/>
<feComposite in2="hardAlpha" operator="out"/>
<feColorMatrix type="matrix" values="0 0 0 0 0 0 0 0 0 0 0 0 0 0 0 0 0 0 0.25 0"/>
<feBlend mode="normal" in2="BackgroundImageFix" result="effect1_dropShadow_1518_2856"/>
<feBlend mode="normal" in="SourceGraphic" in2="effect1_dropShadow_1518_2856" result="shape"/>
</filter>
</defs>
</svg>
