<svg width="40" height="39" viewBox="0 0 40 39" fill="none" xmlns="http://www.w3.org/2000/svg">
<g filter="url(#filter0_d_1521_2919)">
<rect x="2.5" width="35" height="35" rx="5" fill="#FCF1DD"/>
<rect x="3.5" y="1" width="33" height="33" rx="4" stroke="#3E655D" stroke-width="2"/>
<path d="M26.9373 31.0001H28.9745C30.0055 31.0001 30.8523 30.2024 30.975 29.196L33 8.97058H26.8636V4.00012H24.4459V8.97058H18.3464L18.7145 11.8424C20.8132 12.4192 22.7768 13.4624 23.955 14.616C25.7223 16.3588 26.9373 18.1628 26.9373 21.1083V31.0001ZM6 29.7729V28.5456H24.4459V29.7729C24.4459 30.4356 23.8936 31.0001 23.1818 31.0001H7.22727C6.55227 31.0001 6 30.4356 6 29.7729ZM24.4459 21.1819C24.4459 11.3638 6 11.3638 6 21.1819H24.4459ZM6 23.6365H24.4091V26.091H6V23.6365Z" fill="#3E655D"/>
</g>
<defs>
<filter id="filter0_d_1521_2919" x="0.5" y="0" width="39" height="39" filterUnits="userSpaceOnUse" color-interpolation-filters="sRGB">
<feFlood flood-opacity="0" result="BackgroundImageFix"/>
<feColorMatrix in="SourceAlpha" type="matrix" values="0 0 0 0 0 0 0 0 0 0 0 0 0 0 0 0 0 0 127 0" result="hardAlpha"/>
<feOffset dy="2"/>
<feGaussianBlur stdDeviation="1"/>
<feComposite in2="hardAlpha" operator="out"/>
<feColorMatrix type="matrix" values="0 0 0 0 0 0 0 0 0 0 0 0 0 0 0 0 0 0 0.25 0"/>
<feBlend mode="normal" in2="BackgroundImageFix" result="effect1_dropShadow_1521_2919"/>
<feBlend mode="normal" in="SourceGraphic" in2="effect1_dropShadow_1521_2919" result="shape"/>
</filter>
</defs>
</svg>
