<svg width="40" height="39" viewBox="0 0 40 39" fill="none" xmlns="http://www.w3.org/2000/svg">
<g filter="url(#filter0_d_1521_2915)">
<rect x="2.5" width="35" height="35" rx="5" fill="#FCF1DD"/>
<rect x="3.5" y="1" width="33" height="33" rx="4" stroke="#3E655D" stroke-width="2"/>
<path d="M24.1271 22.5312C23.6021 21.7291 23.1792 20.9854 22.7854 20.3C21.8095 18.6234 20.9386 17.2569 19.6105 16.2797C17.6178 14.8135 15.625 12.9432 15.625 10.4692V8.02079C15.625 5.20621 13.3354 2.91663 10.5209 2.91663C7.70627 2.91663 5.41669 5.20621 5.41669 8.02079V30.625C5.41669 31.4304 6.06961 32.0833 6.87502 32.0833C7.68044 32.0833 8.33335 31.4304 8.33335 30.625C8.33335 29.8195 8.98627 29.1666 9.79169 29.1666H11.25C12.0554 29.1666 12.7084 29.8195 12.7084 30.625C12.7084 31.4304 13.3613 32.0833 14.1667 32.0833C14.9721 32.0833 15.625 31.4304 15.625 30.625V23.7916C15.625 20.6498 18.5055 18.7444 20.0784 21.4642C20.134 21.5604 20.1905 21.6584 20.2479 21.7583C20.6709 22.502 21.1375 23.2895 21.7063 24.15C24.7117 28.6581 27.7418 31.5861 33.1247 32.0257C33.9274 32.0912 34.5834 31.4304 34.5834 30.625C34.5834 29.8195 33.9275 29.1775 33.1263 29.0958C29.0103 28.6758 26.7102 26.3993 24.1271 22.5312ZM10.5209 5.83329C11.7313 5.83329 12.7084 6.81038 12.7084 8.02079V12.3958C12.7084 13.6039 11.729 14.5833 10.5209 14.5833C9.31273 14.5833 8.33335 13.6039 8.33335 12.3958V8.02079C8.33335 6.81038 9.31044 5.83329 10.5209 5.83329ZM9.79169 26.25C8.98627 26.25 8.33335 25.597 8.33335 24.7916C8.33335 23.9862 8.98627 23.3333 9.79169 23.3333H11.25C12.0554 23.3333 12.7084 23.9862 12.7084 24.7916C12.7084 25.597 12.0554 26.25 11.25 26.25H9.79169ZM12.7084 18.9583C12.7084 19.7637 12.0554 20.4166 11.25 20.4166H9.79169C8.98627 20.4166 8.33335 19.7637 8.33335 18.9583C8.33335 18.1529 8.98627 17.5 9.79169 17.5H11.25C12.0554 17.5 12.7084 18.1529 12.7084 18.9583Z" fill="#3E655D"/>
</g>
<defs>
<filter id="filter0_d_1521_2915" x="0.5" y="0" width="39" height="39" filterUnits="userSpaceOnUse" color-interpolation-filters="sRGB">
<feFlood flood-opacity="0" result="BackgroundImageFix"/>
<feColorMatrix in="SourceAlpha" type="matrix" values="0 0 0 0 0 0 0 0 0 0 0 0 0 0 0 0 0 0 127 0" result="hardAlpha"/>
<feOffset dy="2"/>
<feGaussianBlur stdDeviation="1"/>
<feComposite in2="hardAlpha" operator="out"/>
<feColorMatrix type="matrix" values="0 0 0 0 0 0 0 0 0 0 0 0 0 0 0 0 0 0 0.25 0"/>
<feBlend mode="normal" in2="BackgroundImageFix" result="effect1_dropShadow_1521_2915"/>
<feBlend mode="normal" in="SourceGraphic" in2="effect1_dropShadow_1521_2915" result="shape"/>
</filter>
</defs>
</svg>
