<svg width="39" height="39" viewBox="0 0 39 39" fill="none" xmlns="http://www.w3.org/2000/svg">
<g filter="url(#filter0_d_1521_2913)">
<rect x="2" width="35" height="35" rx="5" fill="#FCF1DD"/>
<rect x="3" y="1" width="33" height="33" rx="4" stroke="#3E655D" stroke-width="2"/>
<path d="M4.91669 31.4167V28.5001C5.8403 28.5001 6.53301 28.257 6.99481 27.7709C7.45662 27.2848 8.36808 27.0417 9.72919 27.0417C11.0903 27.0417 12.0261 27.2848 12.5365 27.7709C13.0469 28.257 13.7396 28.5001 14.6146 28.5001C15.4896 28.5001 16.1823 28.257 16.6927 27.7709C17.2031 27.2848 18.1389 27.0417 19.5 27.0417C20.8611 27.0417 21.7969 27.2848 22.3073 27.7709C22.8177 28.257 23.5104 28.5001 24.3854 28.5001C25.2604 28.5001 25.9531 28.257 26.4636 27.7709C26.974 27.2848 27.9097 27.0417 29.2709 27.0417C30.632 27.0417 31.5434 27.2848 32.0052 27.7709C32.467 28.257 33.1597 28.5001 34.0834 28.5001V31.4167C32.6493 31.4167 31.7077 31.1737 31.2586 30.6876C30.8094 30.2015 30.1468 29.9584 29.2709 29.9584C28.3959 29.9584 27.7031 30.2015 27.1927 30.6876C26.6823 31.1737 25.7465 31.4167 24.3854 31.4167C23.0243 31.4167 22.0886 31.1737 21.5781 30.6876C21.0677 30.2015 20.375 29.9584 19.5 29.9584C18.625 29.9584 17.9323 30.2015 17.4219 30.6876C16.9115 31.1737 15.9757 31.4167 14.6146 31.4167C13.2535 31.4167 12.3177 31.1737 11.8073 30.6876C11.2969 30.2015 10.6042 29.9584 9.72919 29.9584C8.85419 29.9584 8.19162 30.2015 7.74148 30.6876C7.29134 31.1737 6.34974 31.4167 4.91669 31.4167ZM4.91669 24.8542V21.9376C5.8403 21.9376 6.53301 21.6945 6.99481 21.2084C7.45662 20.7223 8.36808 20.4792 9.72919 20.4792C11.0903 20.4792 12.0324 20.7223 12.5554 21.2084C13.0785 21.6945 13.7649 21.9376 14.6146 21.9376C15.4896 21.9376 16.1823 21.6945 16.6927 21.2084C17.2031 20.7223 18.1389 20.4792 19.5 20.4792C20.8611 20.4792 21.7969 20.7223 22.3073 21.2084C22.8177 21.6945 23.5104 21.9376 24.3854 21.9376C25.2604 21.9376 25.9531 21.6945 26.4636 21.2084C26.974 20.7223 27.9097 20.4792 29.2709 20.4792C30.632 20.4792 31.5434 20.7223 32.0052 21.2084C32.467 21.6945 33.1597 21.9376 34.0834 21.9376V24.8542C32.6493 24.8542 31.7077 24.6112 31.2586 24.1251C30.8094 23.639 30.1468 23.3959 29.2709 23.3959C28.3959 23.3959 27.7211 23.639 27.2467 24.1251C26.7722 24.6112 25.8185 24.8542 24.3854 24.8542C23 24.8542 22.0584 24.6112 21.5606 24.1251C21.0629 23.639 20.376 23.3959 19.5 23.3959C18.5764 23.3959 17.89 23.639 17.4409 24.1251C16.9917 24.6112 16.0496 24.8542 14.6146 24.8542C13.1806 24.8542 12.2263 24.6112 11.7519 24.1251C11.2775 23.639 10.6032 23.3959 9.72919 23.3959C8.85419 23.3959 8.1921 23.639 7.74294 24.1251C7.29377 24.6112 6.35169 24.8542 4.91669 24.8542ZM12.0625 17.4167L16.9115 12.5678L15.4531 11.1095C14.6511 10.3074 13.8004 9.72404 12.9011 9.35946C12.0018 8.99487 10.8959 8.81258 9.58335 8.81258V5.16675C11.4063 5.16675 12.9132 5.36751 14.1042 5.76904C15.2952 6.17057 16.4618 6.94203 17.6042 8.08342L26.9375 17.4167C26.5243 17.6841 26.1233 17.897 25.7344 18.0555C25.3455 18.214 24.8959 18.2927 24.3854 18.2917C23.5104 18.2917 22.8177 18.0487 22.3073 17.5626C21.7969 17.0765 20.8611 16.8334 19.5 16.8334C18.1389 16.8334 17.2031 17.0765 16.6927 17.5626C16.1823 18.0487 15.4896 18.2917 14.6146 18.2917C14.1042 18.2917 13.6545 18.213 13.2656 18.0555C12.8768 17.898 12.4757 17.6851 12.0625 17.4167ZM26.3542 5.16675C27.375 5.16675 28.2379 5.5255 28.9427 6.243C29.6476 6.9605 30 7.81703 30 8.81258C30 9.83342 29.6476 10.6963 28.9427 11.4011C28.2379 12.106 27.375 12.4584 26.3542 12.4584C25.3334 12.4584 24.4705 12.106 23.7656 11.4011C23.0608 10.6963 22.7084 9.83342 22.7084 8.81258C22.7084 7.81606 23.0608 6.95904 23.7656 6.24154C24.4705 5.52404 25.3334 5.16578 26.3542 5.16675Z" fill="#3E655D"/>
</g>
<defs>
<filter id="filter0_d_1521_2913" x="0" y="0" width="39" height="39" filterUnits="userSpaceOnUse" color-interpolation-filters="sRGB">
<feFlood flood-opacity="0" result="BackgroundImageFix"/>
<feColorMatrix in="SourceAlpha" type="matrix" values="0 0 0 0 0 0 0 0 0 0 0 0 0 0 0 0 0 0 127 0" result="hardAlpha"/>
<feOffset dy="2"/>
<feGaussianBlur stdDeviation="1"/>
<feComposite in2="hardAlpha" operator="out"/>
<feColorMatrix type="matrix" values="0 0 0 0 0 0 0 0 0 0 0 0 0 0 0 0 0 0 0.25 0"/>
<feBlend mode="normal" in2="BackgroundImageFix" result="effect1_dropShadow_1521_2913"/>
<feBlend mode="normal" in="SourceGraphic" in2="effect1_dropShadow_1521_2913" result="shape"/>
</filter>
</defs>
</svg>
