<svg width="40" height="39" viewBox="0 0 40 39" fill="none" xmlns="http://www.w3.org/2000/svg">
<g filter="url(#filter0_d_1537_3001)">
<rect x="2.5" width="35" height="35" rx="5" fill="#FCF1DD" shape-rendering="crispEdges"/>
<rect x="3.5" y="1" width="33" height="33" rx="4" stroke="#3E655D" stroke-width="2" shape-rendering="crispEdges"/>
<path fill-rule="evenodd" clip-rule="evenodd" d="M20 2.91663C28.0544 2.91663 34.5834 9.44558 34.5834 17.5C34.5834 25.5543 28.0544 32.0833 20 32.0833C11.9456 32.0833 5.41669 25.5543 5.41669 17.5C5.41669 9.44558 11.9456 2.91663 20 2.91663ZM20 5.83329C16.9058 5.83329 13.9384 7.06246 11.7504 9.25038C9.56252 11.4383 8.33335 14.4058 8.33335 17.5C8.33335 20.5942 9.56252 23.5616 11.7504 25.7495C13.9384 27.9375 16.9058 29.1666 20 29.1666C23.0942 29.1666 26.0617 27.9375 28.2496 25.7495C30.4375 23.5616 31.6667 20.5942 31.6667 17.5C31.6667 14.4058 30.4375 11.4383 28.2496 9.25038C26.0617 7.06246 23.0942 5.83329 20 5.83329ZM22.1875 10.2083C23.5183 10.2064 24.7971 10.7242 25.7516 11.6515C26.706 12.5788 27.2606 13.8422 27.2971 15.1724C27.3336 16.5026 26.8492 17.7945 25.947 18.7728C25.0449 19.751 23.7964 20.3383 22.4675 20.4093L22.1875 20.4166H18.5417V23.3333C18.5413 23.705 18.3989 24.0625 18.1438 24.3328C17.8886 24.6031 17.5399 24.7657 17.1688 24.7875C16.7978 24.8093 16.4324 24.6886 16.1473 24.45C15.8623 24.2114 15.6791 23.873 15.6352 23.5039L15.625 23.3333V13.125C15.6248 12.3891 15.9027 11.6804 16.403 11.1408C16.9034 10.6013 17.5892 10.2708 18.3229 10.2156L18.5417 10.2083H22.1875ZM22.1875 13.125H18.5417V17.5H22.1875C22.7493 17.4997 23.2894 17.2833 23.696 16.8956C24.1026 16.5079 24.3444 15.9787 24.3714 15.4176C24.3984 14.8565 24.2085 14.3065 23.841 13.8815C23.4735 13.4566 22.9567 13.1894 22.3975 13.1352L22.1875 13.125Z" fill="#3E655D"/>
</g>
<defs>
<filter id="filter0_d_1537_3001" x="0.5" y="0" width="39" height="39" filterUnits="userSpaceOnUse" color-interpolation-filters="sRGB">
<feFlood flood-opacity="0" result="BackgroundImageFix"/>
<feColorMatrix in="SourceAlpha" type="matrix" values="0 0 0 0 0 0 0 0 0 0 0 0 0 0 0 0 0 0 127 0" result="hardAlpha"/>
<feOffset dy="2"/>
<feGaussianBlur stdDeviation="1"/>
<feComposite in2="hardAlpha" operator="out"/>
<feColorMatrix type="matrix" values="0 0 0 0 0 0 0 0 0 0 0 0 0 0 0 0 0 0 0.25 0"/>
<feBlend mode="normal" in2="BackgroundImageFix" result="effect1_dropShadow_1537_3001"/>
<feBlend mode="normal" in="SourceGraphic" in2="effect1_dropShadow_1537_3001" result="shape"/>
</filter>
</defs>
</svg>
