<svg width="39" height="39" viewBox="0 0 39 39" fill="none" xmlns="http://www.w3.org/2000/svg">
<g filter="url(#filter0_d_1537_3167)">
<rect x="2" width="35" height="35" rx="5" fill="#FCF1DD"/>
<rect x="3" y="1" width="33" height="33" rx="4" stroke="#3E655D" stroke-width="2"/>
<path d="M10 11.225C11.6547 11.225 13 9.82924 13 8.1125C13 6.39576 11.6547 5 10 5C8.34531 5 7 6.39576 7 8.1125C7 9.82924 8.34531 11.225 10 11.225ZM28 11.225C29.6547 11.225 31 9.82924 31 8.1125C31 6.39576 29.6547 5 28 5C26.3453 5 25 6.39576 25 8.1125C25 9.82924 26.3453 11.225 28 11.225ZM33.9672 22.2403L31.8297 13.2044C31.675 12.5478 31.1031 12.0858 30.4328 12.0274C29.7297 12.4992 28.8953 12.7812 27.9953 12.7812C27.0953 12.7812 26.2609 12.4992 25.5578 12.0274C24.8875 12.0858 24.3156 12.5478 24.1609 13.2044L22.0234 22.2403C21.8594 22.9747 22.4219 23.675 23.1813 23.675H25.75V28.7328C25.75 29.3796 26.2516 29.9 26.875 29.9H29.125C29.7484 29.9 30.25 29.3796 30.25 28.7328V23.675H32.8188C33.5781 23.675 34.1406 22.9747 33.9672 22.2403ZM19.75 5H18.25C17.8375 5 17.5 5.35016 17.5 5.77812V29.1219C17.5 29.5498 17.8375 29.9 18.25 29.9H19.75C20.1625 29.9 20.5 29.5498 20.5 29.1219V5.77812C20.5 5.35016 20.1625 5 19.75 5ZM12.4422 12.0226C11.7391 12.4992 10.9 12.7812 10 12.7812C9.1 12.7812 8.26094 12.4992 7.55781 12.0226C6.40469 12.1247 5.5 13.1168 5.5 14.3375V20.9516C5.5 21.5984 6.00156 22.1187 6.625 22.1187H7V28.7328C7 29.3796 7.50156 29.9 8.125 29.9H11.875C12.4984 29.9 13 29.3796 13 28.7328V22.1187H13.375C13.9984 22.1187 14.5 21.5984 14.5 20.9516V14.3375C14.5 13.1168 13.5953 12.1247 12.4422 12.0226Z" fill="#3E655D"/>
</g>
<defs>
<filter id="filter0_d_1537_3167" x="0" y="0" width="39" height="39" filterUnits="userSpaceOnUse" color-interpolation-filters="sRGB">
<feFlood flood-opacity="0" result="BackgroundImageFix"/>
<feColorMatrix in="SourceAlpha" type="matrix" values="0 0 0 0 0 0 0 0 0 0 0 0 0 0 0 0 0 0 127 0" result="hardAlpha"/>
<feOffset dy="2"/>
<feGaussianBlur stdDeviation="1"/>
<feComposite in2="hardAlpha" operator="out"/>
<feColorMatrix type="matrix" values="0 0 0 0 0 0 0 0 0 0 0 0 0 0 0 0 0 0 0.25 0"/>
<feBlend mode="normal" in2="BackgroundImageFix" result="effect1_dropShadow_1537_3167"/>
<feBlend mode="normal" in="SourceGraphic" in2="effect1_dropShadow_1537_3167" result="shape"/>
</filter>
</defs>
</svg>
