<svg width="430" height="602" viewBox="0 0 430 602" fill="none" xmlns="http://www.w3.org/2000/svg">
<path fill-rule="evenodd" clip-rule="evenodd" d="M0 234.836V72.78C7.46978 69.6834 12.8057 67.4017 14.8334 66.0633C132.55 13.2367 303.039 -17.6375 430 10.8241V447.995C367.249 475.784 297.396 495.16 242.327 510.436C187.687 525.592 147.6 536.712 143.443 548.006C131.661 580.015 174.396 570.458 186.527 549.882C176.137 571.203 139.852 614.175 76.2509 597.336C-3.25007 576.287 -4.76018 515.925 21.0976 478.863C32.4308 462.619 55.1614 445.235 79.0168 426.99C152.48 370.806 236.611 306.462 31.4077 242.147C20.2399 239.731 9.78212 237.293 0 234.836Z" fill="#FCCCAA" fill-opacity="0.7"/>
</svg>
