<svg width="30" height="30" viewBox="0 0 30 30" fill="none" xmlns="http://www.w3.org/2000/svg">
<path d="M22.5002 18.7499C23.8263 18.7499 25.098 19.2767 26.0357 20.2144C26.9734 21.1521 27.5002 22.4239 27.5002 23.7499C27.5002 25.076 26.9734 26.3478 26.0357 27.2855C25.098 28.2232 23.8263 28.7499 22.5002 28.7499C21.1741 28.7499 19.9023 28.2232 18.9647 27.2855C18.027 26.3478 17.5002 25.076 17.5002 23.7499C17.5002 22.4239 18.027 21.1521 18.9647 20.2144C19.9023 19.2767 21.1741 18.7499 22.5002 18.7499ZM22.5002 21.2499C21.8372 21.2499 21.2013 21.5133 20.7324 21.9822C20.2636 22.451 20.0002 23.0869 20.0002 23.7499C20.0002 24.413 20.2636 25.0489 20.7324 25.5177C21.2013 25.9865 21.8372 26.2499 22.5002 26.2499C23.1632 26.2499 23.7991 25.9865 24.268 25.5177C24.7368 25.0489 25.0002 24.413 25.0002 23.7499C25.0002 23.0869 24.7368 22.451 24.268 21.9822C23.7991 21.5133 23.1632 21.2499 22.5002 21.2499ZM7.5627 18.1749C7.5627 18.1749 9.3252 16.3999 9.3377 12.8749C8.8877 10.1374 9.96269 6.92493 12.4252 4.47493C16.0877 0.812434 21.4252 0.212435 24.3752 3.12493C27.2877 6.07493 26.6877 11.4124 23.0252 15.0749C20.5752 17.5374 17.3627 18.6124 14.6252 18.1624C11.1002 18.1749 9.3252 19.9374 9.3252 19.9374L4.0252 25.2374L2.2627 23.4749L7.5627 18.1749ZM22.5877 4.91243C20.6252 2.96243 16.8752 3.54993 14.1877 6.24993C11.5127 8.92493 10.9127 12.6874 12.8627 14.6374C14.8252 16.5874 18.5752 15.9874 21.2502 13.3124C23.9502 10.6249 24.5377 6.87493 22.5877 4.91243Z" fill="#3E655D"/>
</svg>
