<svg width="30" height="25" viewBox="0 0 30 25" fill="none" xmlns="http://www.w3.org/2000/svg">
<g clip-path="url(#clip0_873_17066)">
<path d="M6 6.225C7.65469 6.225 9 4.82924 9 3.1125C9 1.39576 7.65469 0 6 0C4.34531 0 3 1.39576 3 3.1125C3 4.82924 4.34531 6.225 6 6.225ZM24 6.225C25.6547 6.225 27 4.82924 27 3.1125C27 1.39576 25.6547 0 24 0C22.3453 0 21 1.39576 21 3.1125C21 4.82924 22.3453 6.225 24 6.225ZM29.9672 17.2403L27.8297 8.20435C27.675 7.54781 27.1031 7.0858 26.4328 7.02744C25.7297 7.49918 24.8953 7.78125 23.9953 7.78125C23.0953 7.78125 22.2609 7.49918 21.5578 7.02744C20.8875 7.0858 20.3156 7.54781 20.1609 8.20435L18.0234 17.2403C17.8594 17.9747 18.4219 18.675 19.1813 18.675H21.75V23.7328C21.75 24.3796 22.2516 24.9 22.875 24.9H25.125C25.7484 24.9 26.25 24.3796 26.25 23.7328V18.675H28.8188C29.5781 18.675 30.1406 17.9747 29.9672 17.2403ZM15.75 0H14.25C13.8375 0 13.5 0.350156 13.5 0.778125V24.1219C13.5 24.5498 13.8375 24.9 14.25 24.9H15.75C16.1625 24.9 16.5 24.5498 16.5 24.1219V0.778125C16.5 0.350156 16.1625 0 15.75 0ZM8.44219 7.02258C7.73906 7.49918 6.9 7.78125 6 7.78125C5.1 7.78125 4.26094 7.49918 3.55781 7.02258C2.40469 7.12471 1.5 8.11682 1.5 9.3375V15.9516C1.5 16.5984 2.00156 17.1187 2.625 17.1187H3V23.7328C3 24.3796 3.50156 24.9 4.125 24.9H7.875C8.49844 24.9 9 24.3796 9 23.7328V17.1187H9.375C9.99844 17.1187 10.5 16.5984 10.5 15.9516V9.3375C10.5 8.11682 9.59531 7.12471 8.44219 7.02258Z" fill="#3E655D"/>
</g>
<defs>
<clipPath id="clip0_873_17066">
<rect width="30" height="24.9" fill="white"/>
</clipPath>
</defs>
</svg>
