<svg width="30" height="30" viewBox="0 0 30 30" fill="none" xmlns="http://www.w3.org/2000/svg">
<path d="M22.5 5H2.5V2.5H22.5V5ZM21.875 16.25H20V22.5L24.5125 25.2L25.45 23.675L21.875 21.5625V16.25ZM30 21.25C30 26.0875 26.0875 30 21.25 30C16.8375 30 13.2125 26.7375 12.6 22.5H2.5V15H1.25V12.5L2.5 6.25H22.5L23.75 12.5V12.8625C27.3625 13.95 30 17.2875 30 21.25ZM5 20H12.5V15H5V20ZM27.5 21.25C27.5 17.8 24.7 15 21.25 15C17.8 15 15 17.8 15 21.25C15 24.7 17.8 27.5 21.25 27.5C24.7 27.5 27.5 24.7 27.5 21.25Z" fill="#3E655D"/>
</svg>
