<svg width="30" height="30" viewBox="0 0 30 30" fill="none" xmlns="http://www.w3.org/2000/svg">
<path d="M24.375 22.5C24.8723 22.5 25.3492 22.6975 25.7008 23.0492C26.0525 23.4008 26.25 23.8777 26.25 24.375C26.25 24.8723 26.0525 25.3492 25.7008 25.7008C25.3492 26.0525 24.8723 26.25 24.375 26.25C23.8777 26.25 23.4008 26.0525 23.0492 25.7008C22.6975 25.3492 22.5 24.8723 22.5 24.375C22.5 23.8777 22.6975 23.4008 23.0492 23.0492C23.4008 22.6975 23.8777 22.5 24.375 22.5ZM21.25 7.4L13.75 11.25V22.5375C17.3 22.7375 20 23.75 20 25C20 26.375 16.6375 27.5 12.5 27.5C8.3625 27.5 5 26.375 5 25C5 24.075 6.5125 23.275 8.75 22.8375V25H11.25V2.5L21.25 7.4Z" fill="#3E655D"/>
</svg>
