<svg width="30" height="30" viewBox="0 0 30 30" fill="none" xmlns="http://www.w3.org/2000/svg">
<g clip-path="url(#clip0_873_17077)">
<path d="M11.9998 2C10.9389 2 9.92149 2.42143 9.17135 3.17157C8.4212 3.92172 7.99977 4.93913 7.99977 6V13C7.99977 13.2652 8.10513 13.5196 8.29267 13.7071C8.4802 13.8946 8.73456 14 8.99977 14H12.9998C13.265 14 13.5193 13.8946 13.7069 13.7071C13.8944 13.5196 13.9998 13.2652 13.9998 13V9C13.9998 8.73478 14.1051 8.48043 14.2927 8.29289C14.4802 8.10536 14.7346 8 14.9998 8H27.9998V2H11.9998ZM13.9998 30H7.99977C7.77816 29.9976 7.56362 29.9217 7.38986 29.7841C7.21609 29.6465 7.09295 29.4552 7.03977 29.24L3.99977 17.24C3.96806 17.1125 3.96179 16.98 3.98132 16.85C4.00085 16.7201 4.0458 16.5953 4.1136 16.4827C4.18139 16.3702 4.27071 16.2721 4.37643 16.194C4.48216 16.116 4.60223 16.0596 4.72977 16.028C4.8183 16.0077 4.90897 15.9983 4.99977 16H16.9998C17.2647 15.9925 17.5217 16.0904 17.7145 16.2723C17.9073 16.4541 18.0199 16.7051 18.0278 16.97C18.0316 17.0609 18.0221 17.1518 17.9998 17.24L14.9998 29.24C14.945 29.4619 14.8159 29.6583 14.634 29.7966C14.452 29.9349 14.2282 30.0067 13.9998 30ZM7.29977 22H14.7198L15.7198 18H6.27977L7.29977 22Z" fill="#3E655D"/>
</g>
<defs>
<clipPath id="clip0_873_17077">
<rect width="30" height="30" fill="white"/>
</clipPath>
</defs>
</svg>
