<svg width="30" height="30" viewBox="0 0 30 30" fill="none" xmlns="http://www.w3.org/2000/svg">
<path d="M18.5375 19.3125C18.0875 18.625 17.725 17.9875 17.3875 17.4C15.925 14.8875 14.7375 13.1875 11.25 12.6625V6.875C11.25 4.4625 9.2875 2.5 6.875 2.5C4.4625 2.5 2.5 4.4625 2.5 6.875V27.5H5V25H8.75V27.5H11.25V15.2C13.45 15.625 14.1125 16.7375 15.2125 18.65C15.575 19.2875 15.975 19.9625 16.4625 20.7C19.2625 24.9 22.0875 27.5 27.5 27.5V25C23.1625 25 21 23 18.5375 19.3125ZM6.875 5C7.9125 5 8.75 5.8375 8.75 6.875V12.5H5V6.875C5 5.8375 5.8375 5 6.875 5ZM5 22.5V20H8.75V22.5H5ZM8.75 17.5H5V15H8.75V17.5Z" fill="#3E655D"/>
</svg>
