<svg width="49" height="44" viewBox="0 0 49 44" fill="none" xmlns="http://www.w3.org/2000/svg">
<path d="M48.8994 39.9686L48.9128 39.961L44.6769 32.6435H46.3439V32.6359C46.6916 32.6359 46.9736 32.3552 46.9736 32.0084C46.9736 31.9011 46.9393 31.8048 46.8922 31.7167L46.9033 31.7103L42.986 24.9425H43.939V24.9373C44.0581 24.9373 44.1723 24.8901 44.2566 24.8062C44.3409 24.7222 44.3883 24.6084 44.3885 24.4896C44.3867 24.4164 44.3668 24.3448 44.3303 24.2813L44.3379 24.2767L38.6384 14.4293L38.6326 14.4327C38.5705 14.3026 38.4729 14.1925 38.3509 14.1151C38.2289 14.0378 38.0875 13.9963 37.943 13.9954C37.6383 13.9954 37.3801 14.1758 37.254 14.4316L37.2511 14.4298L31.5516 24.2767L31.5528 24.2773C31.5145 24.3416 31.4934 24.4147 31.4917 24.4896C31.4917 24.7366 31.6929 24.9373 31.9412 24.9373V24.9425H32.907L28.9897 31.7103L28.9915 31.7109C28.938 31.8011 28.9086 31.9036 28.906 32.0084C28.906 32.3552 29.188 32.6359 29.5357 32.6359V32.6435H31.2184L29.9974 34.7534L25.1137 26.3159H27.4663V26.3055C27.9571 26.3055 28.3548 25.9082 28.3548 25.4193C28.3548 25.2685 28.3135 25.1281 28.2466 25.0034L28.2553 24.9982L22.7274 15.4477H24.0723V15.4407C24.1557 15.4408 24.2383 15.4245 24.3153 15.3927C24.3924 15.3609 24.4624 15.3142 24.5213 15.2554C24.5802 15.1965 24.6269 15.1267 24.6587 15.0498C24.6906 14.973 24.7069 14.8906 24.7067 14.8074C24.7067 14.6995 24.6724 14.6027 24.6247 14.5139L24.6358 14.5076L16.5919 0.613037L16.589 0.614777C16.5002 0.430983 16.3613 0.275842 16.1883 0.167116C16.0152 0.0583901 15.8149 0.000474406 15.6104 0C15.1696 0 14.7917 0.26215 14.6196 0.637976L6.5914 14.5076L6.59315 14.5087C6.53919 14.5995 6.50956 14.7025 6.50709 14.808C6.50694 14.8911 6.52322 14.9734 6.555 15.0503C6.58678 15.1271 6.63344 15.1969 6.69231 15.2558C6.75118 15.3146 6.8211 15.3612 6.89807 15.3931C6.97504 15.4249 7.05755 15.4413 7.14088 15.4413V15.4483H8.5044L3.0416 24.8857C2.92326 25.0386 2.85869 25.2261 2.85786 25.4193C2.85786 25.9088 3.25616 26.3055 3.74633 26.3055V26.3159H6.121L0.225024 36.5032C0.0854743 36.6853 0 36.9104 0 37.1574C0 37.756 0.487262 38.242 1.08791 38.242V38.2542H12.5886V43.1434C12.5886 43.6161 12.9729 44 13.4468 44H17.7397C18.2136 44 18.5985 43.6166 18.5985 43.1434V38.2542H27.9716L26.9837 39.961L26.9854 39.9622C26.925 40.0718 26.8808 40.1919 26.8808 40.3264C26.8808 40.751 27.2256 41.0949 27.6512 41.0949V41.1036H35.8009V43.3893C35.8009 43.7245 36.0736 43.9959 36.4091 43.9959H39.4513C39.7874 43.9959 40.0595 43.7245 40.0595 43.3893V41.1036H48.229V41.0949C48.6546 41.0949 49 40.751 49 40.3264C48.9971 40.2006 48.9625 40.0776 48.8994 39.9686Z" fill="white"/>
</svg>
