<svg width="30" height="30" viewBox="0 0 30 30" fill="none" xmlns="http://www.w3.org/2000/svg">
<path d="M3.75 8.75V3.75L8.75 6.25L3.75 8.75ZM22.5 8.75V3.75L27.5 6.25L22.5 8.75ZM13.75 7.5V2.5L18.75 5L13.75 7.5ZM13.75 27.5C12.1667 27.4583 10.6929 27.3283 9.32875 27.11C7.96458 26.8917 6.77708 26.6154 5.76625 26.2812C4.75542 25.9479 3.95833 25.5625 3.375 25.125C2.79167 24.6875 2.5 24.2292 2.5 23.75V12.5C2.5 11.9792 2.82833 11.495 3.485 11.0475C4.14167 10.6 5.03208 10.2042 6.15625 9.86C7.28125 9.51583 8.60417 9.245 10.125 9.0475C11.6458 8.85 13.2708 8.75083 15 8.75C16.7292 8.75 18.3542 8.84917 19.875 9.0475C21.3958 9.24583 22.7188 9.51667 23.8438 9.86C24.9688 10.2033 25.8596 10.5992 26.5162 11.0475C27.1729 11.4958 27.5008 11.98 27.5 12.5V23.75C27.5 24.2292 27.2083 24.6875 26.625 25.125C26.0417 25.5625 25.245 25.9479 24.235 26.2812C23.2242 26.6146 22.0367 26.8908 20.6725 27.11C19.3083 27.3292 17.8342 27.4592 16.25 27.5V22.5H13.75V27.5ZM15 13.75C17.0208 13.75 18.7658 13.63 20.235 13.39C21.7042 13.15 22.8758 12.8742 23.75 12.5625C23.75 12.4583 22.9583 12.2138 21.375 11.8288C19.7917 11.4438 17.6667 11.2508 15 11.25C12.3333 11.25 10.2083 11.4429 8.625 11.8288C7.04167 12.2146 6.25 12.4592 6.25 12.5625C7.125 12.875 8.29708 13.1513 9.76625 13.3913C11.2354 13.6313 12.98 13.7508 15 13.75ZM11.25 24.8125V20H18.75V24.8125C20.4167 24.6458 21.7812 24.4013 22.8438 24.0788C23.9062 23.7563 24.625 23.4696 25 23.2188V14.75C23.8542 15.2083 22.4167 15.5729 20.6875 15.8438C18.9583 16.1146 17.0625 16.25 15 16.25C12.9375 16.25 11.0417 16.1146 9.3125 15.8438C7.58333 15.5729 6.14583 15.2083 5 14.75V23.2188C5.375 23.4688 6.09375 23.7554 7.15625 24.0788C8.21875 24.4021 9.58333 24.6467 11.25 24.8125Z" fill="#3E655D"/>
</svg>
