<?xml version="1.0" encoding="UTF-8"?>
<svg id="Layer_2" data-name="Layer 2" xmlns="http://www.w3.org/2000/svg" viewBox="0 0 151.25 151.25">
  <defs>
    <style>
      .cls-1 {
        fill: #fff;
        stroke-width: 0px;
      }
    </style>
  </defs>
  <g id="Icon_Profile">
    <path class="cls-1" d="M98,53c0,12.7-10.3,23-23,23s-23-10.3-23-23,10.3-23,23-23,23,10.3,23,23ZM151.25,75.62c0,41.77-33.86,75.62-75.62,75.62S0,117.39,0,75.62,33.86,0,75.62,0s75.62,33.86,75.62,75.62ZM15.32,75.62c0,10.96,2.94,21.23,8.05,30.08,4.99-6.44,14.64-16.06,27.79-16.06h50.42s15.84.01,26.97,14.91c4.71-8.59,7.39-18.45,7.39-28.93,0-33.3-27-60.3-60.3-60.3S15.32,42.32,15.32,75.62Z"/>
  </g>
</svg>