<svg width="44" height="44" viewBox="0 0 44 44" fill="none" xmlns="http://www.w3.org/2000/svg">
<path d="M30.6552 33.2214C31.1205 33.4502 31.5429 33.7549 31.9056 34.1218C31.5739 34.3934 31.231 34.6517 30.8776 34.8958L30.876 34.8969C28.2712 36.6977 25.1784 37.6597 22.0117 37.6538L22.003 37.6538L21.9944 37.6538C19.7375 37.6558 17.5071 37.1684 15.4568 36.2252C14.2473 35.6688 13.1175 34.9616 12.0931 34.1231C12.4561 33.7556 12.8789 33.4504 13.3449 33.2214C13.9822 32.908 14.6831 32.7454 15.3934 32.7461H15.4L28.6 32.7461L28.6066 32.7461C29.3169 32.7454 30.0178 32.908 30.6552 33.2214ZM21.8205 15.2205L18.058 11.4579L21.8205 15.2205C21.8681 15.1729 21.9327 15.1461 22 15.1461C22.0673 15.1461 22.1319 15.1729 22.1795 15.2205C22.2271 15.2681 22.2538 15.3327 22.2538 15.4C22.2538 15.4673 22.2271 15.5319 22.1795 15.5795C22.1319 15.6271 22.0673 15.6538 22 15.6538C21.9327 15.6538 21.8681 15.6271 21.8205 15.5795L17.4993 19.9007L21.8205 15.5795C21.7729 15.5319 21.7462 15.4673 21.7462 15.4C21.7462 15.3327 21.7729 15.2681 21.8205 15.2205Z" stroke="white" stroke-width="12.6923"/>
</svg>
