<svg width="183" height="202" viewBox="0 0 183 202" fill="none" xmlns="http://www.w3.org/2000/svg">
<g filter="url(#filter0_d_935_3414)">
<path d="M129.213 67.6896C129.213 67.6896 180.369 157.283 118.053 179.008C55.7363 200.733 38.5412 99.2333 38.5412 99.2333C38.5412 99.2333 66.6499 46.9887 129.213 67.6896Z" fill="#944D1A"/>
<path d="M38.5414 99.233C38.5414 99.233 66.6501 46.9884 129.213 67.6894C129.213 67.6894 130.341 69.6716 132.063 73.1145C130.491 73.1326 128.924 73.448 127.489 74.0501C127.148 74.1939 124.358 75.2786 124.418 75.2949C123.018 75.7768 121.579 76.1838 120.149 76.5786C117.091 77.4148 113.988 78.108 110.878 78.7423C104.848 79.9763 98.7581 80.9648 92.7564 82.3417C81.334 84.955 70.0917 89.3513 59.3697 94.1978C55.7964 92.9893 51.9162 93.656 48.8241 96.3218C44.5212 100.027 44.3817 108.057 48.5499 112.349C48.5872 112.393 48.6214 112.43 48.6646 112.471C48.539 112.646 48.4076 112.824 48.2975 113.014C46.1789 116.536 47.1659 122.278 51.01 124.507C53.9424 126.201 56.2548 128.12 57.3547 131.291C58.6737 135.106 58.3785 139.26 58.0349 143.132C57.6393 147.583 61.6671 151.702 65.7876 152.039C68.6225 152.271 70.9952 150.951 72.4623 148.835C73.7249 150.197 75.0419 151.491 76.408 152.737C76.5711 153.315 76.7946 153.91 77.0991 154.518C82.6745 165.661 90.1228 175.724 100.098 182.049C52.3689 180.774 38.5452 99.2547 38.5452 99.2547L38.5414 99.233Z" fill="#944D1A"/>
<path d="M133.034 73.9955C133.034 73.9955 145.223 53.3216 122.397 42.818C99.5672 32.3081 39.8075 48.5452 25.5837 78.3004C11.36 108.056 42.0995 107.384 42.0995 107.384C42.0995 107.384 134.714 77.0817 133.034 73.9955Z" fill="#944D1A"/>
<path d="M22.2465 87.9085C30.1947 89.9932 38.5886 89.9816 46.7176 89.2076C53.6363 91.5131 60.8005 91.896 67.9077 90.8661C68.5147 90.9644 69.1218 90.9761 69.7315 90.8918C76.7869 91.0626 83.8245 90.4467 90.6522 88.9297C99.9388 86.8684 109.488 84.0027 117.585 78.9581C124.504 74.6525 134.241 68.1757 133.599 58.5364C133.587 58.338 133.562 58.1457 133.54 57.9441C134.139 56.9988 134.655 55.9935 135.057 54.8968C138.722 64.3559 133.04 73.9926 133.04 73.9926C134.71 77.0756 42.1054 107.381 42.1054 107.381C42.1054 107.381 18.4311 107.895 22.2582 87.9025L22.2465 87.9085Z" fill="#944D1A"/>
<path d="M74.1774 48.644C74.1774 48.644 67.0841 33.3708 68.9559 26.8944C70.8277 20.4181 60.5782 17.7962 63.0816 29.9081C65.5849 42.0199 70.3328 49.8283 71.8803 51.3984C73.4279 52.9686 74.1774 48.644 74.1774 48.644Z" fill="#944D1A"/>
<path d="M67.0952 37.1234C66.3812 35.2833 65.6314 33.5325 65.6777 31.5544C65.7447 28.8645 66.1697 26.6843 65.7979 23.92C65.6824 23.073 65.3571 22.2943 64.8919 21.6189C67.1059 20.7274 70.0337 23.1654 68.956 26.8939C67.0842 33.3703 74.1775 48.6435 74.1775 48.6435C74.1775 48.6435 73.5602 52.1989 72.2813 51.673C70.5239 46.83 68.9647 41.9247 67.0952 37.1234Z" fill="#944D1A"/>
<path d="M129.213 67.6896C129.213 67.6896 180.369 157.283 118.053 179.008C55.7363 200.733 38.5412 99.2333 38.5412 99.2333C38.5412 99.2333 66.6499 46.9887 129.213 67.6896Z" fill="#F9A66B"/>
<path d="M133.034 73.9955C133.034 73.9955 145.223 53.3216 122.397 42.818C99.5672 32.3081 39.8075 48.5452 25.5837 78.3004C11.36 108.056 42.0995 107.384 42.0995 107.384C42.0995 107.384 134.714 77.0817 133.034 73.9955Z" fill="#AD5A1E"/>
<path d="M22.2465 87.9085C30.1947 89.9932 38.5886 89.9816 46.7176 89.2076C53.6363 91.5131 60.8005 91.896 67.9077 90.8661C68.5147 90.9644 69.1218 90.9761 69.7315 90.8918C76.7869 91.0626 83.8245 90.4467 90.6522 88.9297C99.9388 86.8684 109.488 84.0027 117.585 78.9581C124.504 74.6525 134.241 68.1757 133.599 58.5364C133.587 58.338 133.562 58.1457 133.54 57.9441C134.139 56.9988 134.655 55.9935 135.057 54.8968C138.722 64.3559 133.04 73.9926 133.04 73.9926C134.71 77.0756 42.1054 107.381 42.1054 107.381C42.1054 107.381 18.4311 107.895 22.2582 87.9025L22.2465 87.9085Z" fill="#7C4016"/>
<path d="M74.1774 48.644C74.1774 48.644 67.0841 33.3708 68.9559 26.8944C70.8277 20.4181 60.5782 17.7962 63.0816 29.9081C65.5849 42.0199 70.3328 49.8283 71.8803 51.3984C73.4279 52.9686 74.1774 48.644 74.1774 48.644Z" fill="#AD5A1E"/>
<path d="M67.0952 37.1234C66.3812 35.2833 65.6314 33.5325 65.6777 31.5544C65.7447 28.8645 66.1697 26.6843 65.7979 23.92C65.6824 23.073 65.3571 22.2943 64.8919 21.6189C67.1059 20.7274 70.0337 23.1654 68.956 26.8939C67.0842 33.3703 74.1775 48.6435 74.1775 48.6435C74.1775 48.6435 73.5602 52.1989 72.2813 51.673C70.5239 46.83 68.9647 41.9247 67.0952 37.1234Z" fill="#7C4016"/>
<path d="M134.066 78.5959C134.066 78.5959 143.132 99.1611 147.924 125.859C147.924 125.859 134.917 86.0397 131.234 83.2008C130.594 81.9531 134.066 78.5959 134.066 78.5959Z" fill="#B77B53"/>
</g>
<defs>
<filter id="filter0_d_935_3414" x="17.826" y="21.4299" width="135.145" height="168.627" filterUnits="userSpaceOnUse" color-interpolation-filters="sRGB">
<feFlood flood-opacity="0" result="BackgroundImageFix"/>
<feColorMatrix in="SourceAlpha" type="matrix" values="0 0 0 0 0 0 0 0 0 0 0 0 0 0 0 0 0 0 127 0" result="hardAlpha"/>
<feOffset dy="4"/>
<feGaussianBlur stdDeviation="2"/>
<feComposite in2="hardAlpha" operator="out"/>
<feColorMatrix type="matrix" values="0 0 0 0 0 0 0 0 0 0 0 0 0 0 0 0 0 0 0.25 0"/>
<feBlend mode="normal" in2="BackgroundImageFix" result="effect1_dropShadow_935_3414"/>
<feBlend mode="normal" in="SourceGraphic" in2="effect1_dropShadow_935_3414" result="shape"/>
</filter>
</defs>
</svg>
