<svg width="291" height="221" viewBox="0 0 291 221" fill="none" xmlns="http://www.w3.org/2000/svg">
<path d="M250.878 154.722C250.878 154.722 247.537 139.05 234.917 124.544C214.761 135.175 193.635 143.92 171.538 150.307C175.88 156.387 182.396 160.293 187.604 165.507C174.284 171.095 160.957 176.389 147.557 181.394C150.32 187.437 154.908 193.247 161.854 198.584C210.493 235.929 250.878 154.722 250.878 154.722Z" fill="#944D1A"/>
<path d="M235.862 140.1C223.408 157.836 208.233 173.472 190.122 185.466C182.507 190.508 171.925 196.717 161.553 198.725C161.657 198.805 161.755 198.891 161.866 198.97C210.505 236.316 250.89 155.109 250.89 155.109C250.89 155.109 248.624 144.516 240.806 132.688C239.209 135.193 237.57 137.668 235.862 140.1Z" fill="#944D1A"/>
<path d="M250.878 154.722C250.878 154.722 247.537 139.05 234.917 124.544C229.93 127.173 224.888 129.684 219.784 132.073C224.728 135.875 229.488 139.959 234.063 144.123C237.465 144.172 240.671 145.916 242.679 149.122C245.48 153.58 243.588 160.458 238.896 162.847C238.853 162.872 238.81 162.897 238.767 162.915C238.835 163.105 238.896 163.296 238.951 163.492C239.903 167.128 237.613 171.722 233.713 172.452C230.74 173.011 228.253 173.939 226.503 176.309C224.396 179.159 223.617 182.788 222.941 186.184C222.167 190.09 217.641 192.381 213.981 191.423C211.463 190.766 209.737 188.917 208.994 186.676C207.557 187.456 206.089 188.156 204.591 188.801C204.308 189.249 203.958 189.685 203.547 190.102C195.907 197.902 186.922 204.215 176.685 206.58C218.433 219.937 250.878 154.716 250.878 154.716V154.722Z" fill="#944D1A"/>
<path d="M267.379 140.825C265.906 131.859 260.495 122.69 253.058 114.319C239.916 122.205 226.337 129.304 212.323 135.47C229.328 148.446 245.75 160.594 245.75 160.594C245.75 160.594 272.256 170.463 267.379 140.831V140.825Z" fill="#944D1A"/>
<path d="M267.594 140.984C266.839 136.385 265.04 131.736 262.473 127.167C262.276 127.633 262.055 128.1 261.809 128.573C257.259 137.146 246.812 140.315 237.76 140.683C230.433 140.978 223.138 139.535 215.934 138.215C231.662 150.172 245.971 160.753 245.971 160.753C245.971 160.753 272.477 170.622 267.601 140.991L267.594 140.984Z" fill="#944D1A"/>
<path d="M114.21 193.536C106.662 171.808 96.8051 151.179 85.1121 131.619C73.5296 142.833 63.1078 160.514 63.9553 187.646C63.9553 187.646 111.176 234.338 146.525 215.829C140.814 202.711 134.82 189.691 128.531 176.684C123.606 182.162 120.05 188.874 114.21 193.536Z" fill="#944D1A"/>
<path d="M140.187 205.413C137.792 206.85 134.998 207.636 132.148 207.679C126.013 207.777 119.38 205.665 114.105 202.005C103.247 196.846 94.7846 186.952 87.1878 177.667C80.8562 169.941 74.2727 161.619 70.2747 152.481C65.9943 161.933 63.3412 173.546 63.7895 187.744C63.7895 187.744 111.01 234.437 146.359 215.927C144.799 212.34 143.209 208.766 141.606 205.192C141.139 205.302 140.666 205.376 140.187 205.407V205.413Z" fill="#944D1A"/>
<path d="M44.2357 176.518C47.466 198.829 68.4324 192.307 68.4324 192.307C69.6054 193.413 83.9023 173.128 97.2227 153.599C90.3199 139.928 82.5082 126.749 73.935 114.043C55.5602 132.203 41.9757 160.95 44.2295 176.512L44.2357 176.518Z" fill="#944D1A"/>
<path d="M88.9812 160.895C85.8246 162.934 82.4223 164.506 78.7743 165.23C68.4508 167.288 58.5634 162.786 52.4835 154.354C51.4579 152.929 50.5981 151.419 49.8796 149.84C45.4701 160.035 43.2593 169.732 44.2787 176.751C47.509 199.063 68.4754 192.541 68.4754 192.541C69.5071 193.517 80.715 177.906 92.4694 160.827C91.3026 160.882 90.1357 160.901 88.9812 160.889V160.895Z" fill="#944D1A"/>
<path d="M61.5971 135.15C61.5971 135.15 65.5214 135.378 64.5633 133.689C63.6053 132 58.0781 126.209 48.2582 121.511C38.4383 116.812 38.0821 126.399 44.1497 126.08C50.2173 125.76 61.591 135.15 61.591 135.15H61.5971Z" fill="#944D1A"/>
<path d="M61.5971 135.15C61.5971 135.15 64.8212 135.334 64.6984 134.1C60.9707 131.558 57.1323 129.175 53.466 126.534C52.0596 125.527 50.7393 124.501 49.0197 124.139C46.6799 123.641 44.6901 123.574 42.3994 122.677C41.6993 122.401 41.1097 121.959 40.643 121.406C39.3042 123.175 40.6675 126.264 44.1558 126.073C50.2295 125.748 61.5971 135.144 61.5971 135.144V135.15Z" fill="#944D1A"/>
<path d="M212.679 33.2171L179.541 70.8202L202.534 26.2897C204.1 23.2559 207.833 22.0645 210.873 23.6306C214.429 25.4054 215.326 30.2816 212.679 33.2171Z" fill="#944D1A"/>
<path d="M283.869 108.448L251 101.867L285.332 99.4608C287.671 99.2963 289.474 101.189 289.351 103.691C289.248 106.592 286.454 109.007 283.867 108.452L283.869 108.448Z" fill="#944D1A"/>
<path d="M7.57663 139.229L43.6611 137.681L10.1835 151.235C6.99677 152.529 3.35974 150.986 2.06626 147.799C0.402496 143.908 3.37182 139.346 7.57834 139.234L7.57663 139.229Z" fill="#944D1A"/>
<path d="M121.505 57.8743L124.404 91.7681L109.653 61.1108C108.16 58.0033 109.462 54.2694 112.57 52.777C116.396 50.8364 121.211 53.6184 121.499 57.8682L121.505 57.8743Z" fill="#944D1A"/>
<path d="M250.878 154.722C250.878 154.722 247.537 139.05 234.917 124.544C214.761 135.175 193.635 143.92 171.539 150.307C175.881 156.387 182.396 160.293 187.604 165.507C174.284 171.095 160.957 176.389 147.557 181.394C150.32 187.437 154.908 193.247 161.854 198.584C210.493 235.929 250.878 154.722 250.878 154.722Z" fill="#F9A66B"/>
<path d="M235.862 140.1C223.408 157.836 208.233 173.472 190.122 185.466C182.507 190.508 171.925 196.717 161.553 198.725C161.657 198.805 161.755 198.891 161.866 198.97C210.505 236.316 250.89 155.109 250.89 155.109C250.89 155.109 248.624 144.516 240.806 132.688C239.209 135.193 237.57 137.668 235.862 140.1Z" fill="#B77B53"/>
<path d="M250.878 154.722C250.878 154.722 247.537 139.05 234.917 124.544C229.93 127.173 224.888 129.684 219.784 132.073C224.728 135.875 229.488 139.959 234.063 144.123C237.465 144.172 240.671 145.916 242.679 149.122C245.48 153.58 243.588 160.458 238.896 162.847C238.853 162.872 238.81 162.897 238.767 162.915C238.835 163.105 238.896 163.296 238.951 163.492C239.903 167.128 237.613 171.722 233.713 172.452C230.74 173.011 228.253 173.939 226.503 176.309C224.396 179.159 223.617 182.788 222.941 186.184C222.167 190.09 217.641 192.381 213.981 191.423C211.463 190.766 209.737 188.917 208.994 186.676C207.557 187.456 206.089 188.156 204.591 188.801C204.308 189.249 203.958 189.685 203.547 190.102C195.907 197.902 186.922 204.215 176.685 206.58C218.433 219.937 250.878 154.716 250.878 154.716V154.722Z" fill="#B77B53"/>
<path d="M267.379 140.825C265.906 131.859 260.495 122.69 253.058 114.319C239.916 122.205 226.337 129.304 212.323 135.47C229.328 148.446 245.75 160.594 245.75 160.594C245.75 160.594 272.256 170.463 267.379 140.831V140.825Z" fill="#AD5A1E"/>
<path d="M267.594 140.984C266.839 136.385 265.04 131.736 262.473 127.167C262.276 127.633 262.055 128.1 261.809 128.573C257.259 137.146 246.812 140.315 237.76 140.683C230.433 140.978 223.138 139.535 215.934 138.215C231.662 150.172 245.971 160.753 245.971 160.753C245.971 160.753 272.477 170.622 267.601 140.991L267.594 140.984Z" fill="#7C4016"/>
<path d="M114.21 193.536C106.662 171.808 96.8051 151.179 85.1121 131.619C73.5296 142.833 63.1078 160.514 63.9553 187.646C63.9553 187.646 111.176 234.338 146.525 215.829C140.814 202.711 134.82 189.691 128.531 176.684C123.606 182.162 120.05 188.874 114.21 193.536Z" fill="#F9A66B"/>
<path d="M140.187 205.413C137.792 206.85 134.998 207.636 132.148 207.679C126.013 207.777 119.38 205.665 114.105 202.005C103.247 196.846 94.7846 186.952 87.1878 177.667C80.8562 169.941 74.2727 161.619 70.2747 152.481C65.9943 161.933 63.3412 173.546 63.7895 187.744C63.7895 187.744 111.01 234.437 146.359 215.927C144.799 212.34 143.209 208.766 141.606 205.192C141.139 205.302 140.666 205.376 140.187 205.407V205.413Z" fill="#B77B53"/>
<path d="M44.2357 176.518C47.466 198.829 68.4324 192.307 68.4324 192.307C69.6054 193.413 83.9023 173.128 97.2227 153.599C90.3199 139.928 82.5082 126.749 73.935 114.043C55.5602 132.203 41.9757 160.95 44.2295 176.512L44.2357 176.518Z" fill="#AD5A1E"/>
<path d="M88.9812 160.895C85.8246 162.934 82.4223 164.506 78.7743 165.23C68.4508 167.288 58.5634 162.786 52.4835 154.354C51.4579 152.929 50.5981 151.419 49.8796 149.84C45.4701 160.035 43.2593 169.732 44.2787 176.751C47.509 199.063 68.4754 192.541 68.4754 192.541C69.5071 193.517 80.715 177.906 92.4694 160.827C91.3026 160.882 90.1357 160.901 88.9812 160.889V160.895Z" fill="#7C4016"/>
<path d="M61.5971 135.15C61.5971 135.15 65.5214 135.378 64.5633 133.689C63.6053 132 58.0781 126.209 48.2582 121.511C38.4383 116.812 38.0821 126.399 44.1497 126.08C50.2173 125.76 61.591 135.15 61.591 135.15H61.5971Z" fill="#AD5A1E"/>
<path d="M61.5971 135.15C61.5971 135.15 64.8212 135.334 64.6984 134.1C60.9707 131.558 57.1323 129.175 53.466 126.534C52.0596 125.527 50.7393 124.501 49.0197 124.139C46.6799 123.641 44.6901 123.574 42.3994 122.677C41.6993 122.401 41.1097 121.959 40.643 121.406C39.3042 123.175 40.6675 126.264 44.1558 126.073C50.2295 125.748 61.5971 135.144 61.5971 135.144V135.15Z" fill="#7C4016"/>
<path d="M55.1659 35.3823L83.4254 76.7728L45.9445 43.4996C43.3881 41.2297 43.158 37.3196 45.4278 34.7632C48.0198 31.7541 52.9723 32.0846 55.1659 35.3823Z" fill="#B77B53"/>
<path d="M212.679 33.2171L179.541 70.8202L202.534 26.2897C204.1 23.2559 207.833 22.0645 210.873 23.6306C214.429 25.4054 215.326 30.2816 212.679 33.2171Z" fill="#B77B53"/>
<path d="M271.025 70.1132L223 84.4593L266.093 58.8685C269.029 57.1244 272.83 58.0886 274.575 61.0303C276.65 64.4141 274.832 69.0324 271.025 70.1194V70.1132Z" fill="#B77B53"/>
<path d="M29.7707 97.1325L56 103.3L29.1465 105.976C26.5896 106.233 24.299 104.434 24.0328 101.966C23.6472 98.9357 26.7273 96.3705 29.7707 97.137V97.1325Z" fill="#B77B53"/>
<path d="M121.505 57.8743L124.404 91.7681L109.653 61.1108C108.16 58.0033 109.462 54.2694 112.57 52.777C116.396 50.8364 121.211 53.6184 121.499 57.8682L121.505 57.8743Z" fill="#B77B53"/>
<path d="M107.896 27.8435L110.605 38.0626" stroke="#B77B53" stroke-width="12.2826" stroke-miterlimit="10" stroke-linecap="round"/>
<path d="M222.579 7L216.296 14.867" stroke="#B77B53" stroke-width="12.2826" stroke-miterlimit="10" stroke-linecap="round"/>
</svg>
