<?xml version="1.0" encoding="UTF-8"?>
<svg id="Layer_2" data-name="Layer 2" xmlns="http://www.w3.org/2000/svg" viewBox="0 0 597.38 431.08">
  <defs>
    <style>
      .cls-1 {
        fill: #190d04;
      }

      .cls-1, .cls-2, .cls-3, .cls-4, .cls-5, .cls-6, .cls-7, .cls-8, .cls-9, .cls-10, .cls-11, .cls-12 {
        stroke-width: 0px;
      }

      .cls-2 {
        fill: #944d1a;
      }

      .cls-3 {
        fill: #ad5a1e;
      }

      .cls-4 {
        fill: #fab380;
      }

      .cls-5 {
        fill: #7c4016;
      }

      .cls-6 {
        fill: #c66622;
      }

      .cls-13 {
        stroke-linecap: round;
        stroke-width: 2.05px;
      }

      .cls-13, .cls-14, .cls-15, .cls-16, .cls-17 {
        fill: none;
        stroke-miterlimit: 10;
      }

      .cls-13, .cls-14, .cls-17 {
        stroke: #65847d;
      }

      .cls-14, .cls-16 {
        stroke-width: 2.72px;
      }

      .cls-7 {
        fill: #f9a66b;
      }

      .cls-15, .cls-16 {
        stroke: #3e655d;
      }

      .cls-15, .cls-17 {
        stroke-width: 2.26px;
      }

      .cls-8 {
        fill: #fef2ea;
      }

      .cls-9 {
        fill: #74b4c6;
      }

      .cls-10 {
        fill: #b77b53;
      }

      .cls-11 {
        fill: #633311;
      }

      .cls-12 {
        fill: #f7802b;
      }
    </style>
  </defs>
  <g id="SadSqwee">
    <g>
      <g>
        <path class="cls-2" d="m353.13,404.5c120.13,13.62,227.88-68.11,117.65-211.78-35.92-60.68,85.45-56.97,40.87,18.58-4.95,11.15-1.24,12.38,3.72,8.67C802.69.77,229.29-145.37,398.95,234.83c0,0,34.68,84.21-19.82,120.13-54.49,35.92-60.68,32.2-26.01,49.54Z"/>
        <path class="cls-11" d="m483.53,356.48c-20.12,18.89-48.21,33.34-76.25,25.02-.93-.28-1.78-.63-2.56-1.03-5.42-.21-10.73-1.21-15.48-3.71-9-4.72-11.9-12.73-10.95-21.23-53.69,35.31-59.64,31.73-25.15,48.98,81.31,9.22,156.93-25.24,163.15-93.02-.15-.42-.33-.83-.48-1.25-6.94,17.6-18.76,33.57-32.27,46.25Z"/>
        <path class="cls-4" d="m521.48,19.6c-15.43-6.74-31.92-10.43-48.79-9.05-23.84,1.94-44.23,14.4-59.55,31.72.13.65.22,1.29.24,1.9,24.66-24.76,61.58-27.85,94.06-19.1,17.18,4.63,34.38,12.42,49.34,23.08-4.87-14.23-22.54-22.97-35.3-28.54Z"/>
        <path class="cls-11" d="m537.91,167.45c-.05-.48-.09-.83-.12-1.06-.08-.52-.16-1.03-.25-1.55-.25-1.37-.53-2.74-.84-4.1-.73-3.18-1.65-6.32-2.75-9.4-.28-.77-.57-1.53-.86-2.3-.63-1.37-1.27-2.73-1.98-4.07-1.49-2.84-3.22-5.49-5-8.16-.14-.22-.25-.39-.35-.53-.12-.12-.26-.26-.45-.47-1.21-1.3-2.35-2.64-3.62-3.88-.94-.92-1.94-1.77-2.91-2.64-.65-.46-1.32-.92-1.99-1.35-1.09-.69-2.21-1.34-3.36-1.94-.44-.23-.89-.43-1.33-.64-.2-.07-.45-.17-.8-.3-1.27-.34-2.5-.79-3.78-1.1-.7-.17-1.4-.3-2.11-.43-.09,0-.17-.02-.27-.03-1.4-.03-2.78-.14-4.18-.11-.68.01-6.47.7-3.03.15-2.84.45-5.68.37-8.3-.27-.07.02-.15.04-.22.05-4.31,2.06-8.84,3.54-13.48,4.65-9.15,4.53-16.63,11.56-21.45,21.08.59,8.55,2.1,17,4.46,25.2,6.23,14.64,16.46,28.1,27.41,40.67.06.05.13.11.19.16-4.66-7.28-9.89-14.74-15.75-22.37-35.92-60.68,85.45-56.97,40.87,18.58-4.95,11.15-1.24,12.38,3.72,8.67,3.5-2.67,6.88-5.34,10.13-7.99,3.96-6.5,7.45-13.23,9.88-20.38.95-2.78,1.75-5.59,2.3-8.48.08-.42.14-.84.21-1.26.02-.22.05-.52.1-.93.05-1.33.19-2.65.23-3.98.09-3.19-.14-6.33-.32-9.51Z"/>
        <path class="cls-11" d="m398.52,335.24c-.93,1.48-1.91,2.95-2.98,4.37.89.21,1.73.54,2.52.92.08-1.74.28-3.52.46-5.29Z"/>
        <ellipse class="cls-15" cx="229.36" cy="184.9" rx="16.38" ry="16.94"/>
        <ellipse class="cls-17" cx="228.12" cy="183.66" rx="16.38" ry="16.94"/>
        <path id="body" class="cls-12" d="m302.35,150.62s-68.11-26.01-89.17,44.58c-6.19,4.95-1.24,32.2,34.68,38.39s-60.68,37.15-69.35,50.78c-8.67,13.62,63.16,16.1,63.16,16.1,0,0,2.48,40.87-9.91,53.25-2.48,27.25,50.78,55.73,50.78,55.73,0,0-16.1-18.58-65.64,8.67-22.29,22.29,91.65,0,120.13-4.95,32.2-6.19,134.99-99.08-7.43-188.24,0,0-21.05-16.1-3.72-59.45,17.34-43.35-18.58-35.92-23.53-14.86Z"/>
        <path class="cls-6" d="m272.78,415.44c8.96-1.93,18.03-4.86,25.38-9.74-2.38-.97-4.72-2-6.95-3.12-12.07-4.82-23.27-11.45-32.15-20.55-3.19-2.19-6.15-4.91-8.46-8.06-1.83-1.91-3.46-3.97-4.84-6.2-2.46-3.99-3.54-9.47-2.95-14.46.04-1.11.24-2.16.62-3.14,1.62-5.71,5.81-10.05,13.1-9.44-1.27-6.65-1.72-13.5-2.19-20.2-.61-8.63-.98-16.47-5.07-23.79-.84-1.51-1.42-3.11-1.77-4.74-9.03.57-18.01,2.18-27.14,1.33-6.21-.58-12.31-1.77-18.37-3.22-3.4-.81-6.81-1.82-10.34-1.44-1.39.15-7.85,1.72-7.41,3.77,16.2,6.62,57.45,8.05,57.45,8.05,0,0,2.48,40.87-9.91,53.25-1.9,20.85,28.83,42.42,43.37,51.4-8.97-3.13-26.91-4.23-58.23,13-8.18,8.18,2,10.35,19.58,9.58,8.22-9.35,24.56-9.73,36.3-12.26Z"/>
        <path class="cls-6" d="m367,392.76c-6.68,5.99-16.3,13.71-26.29,17.68-1.33.99-2.69,1.92-4.07,2.8.13-.02.27-.05.39-.07,13-2.5,37.48-19.13,52.7-43.93-7.14,8.26-14.6,16.23-22.73,23.52Z"/>
        <path class="cls-4" d="m313.42,138.48c-.22.09-.44.18-.67.3-4.38,2.28-8.38,8.17-9.33,13.66.64.23,1.3.45,1.93.69.22.08.43.19.65.28,4.26-.45,6.32-4.89,7.47-8.83-.04-2.03-.09-4.07-.05-6.1Z"/>
        <path class="cls-4" d="m323.15,233.6c.91,3.75,5.95,7.11,8.82,9.32,5.4,4.16,11.31,7.58,16.69,11.76,12.05,9.37,21.89,23.47,29.84,36.37,8.38,13.6,12.35,27.55,14.28,43.32.3,2.43.53,4.86.69,7.28,1.61-12.65,1.1-25.43-1.5-37.78-3.72-12.66-8.88-25.07-17.71-35.02-.49-.55-.82-1.14-1.01-1.74-6.59-7.7-13.6-15.02-21.29-21.74-4.19-3.67-8.65-7.22-13.36-10.38-.62-.05-1.26-.24-1.91-.6-3.79-2.09-7.61-4.63-11.85-5.73-1.44.85-2.06,3.43-1.69,4.95Z"/>
        <ellipse class="cls-1" cx="243.04" cy="187.56" rx="8.8" ry="7.56"/>
        <ellipse class="cls-8" cx="238.64" cy="184.81" rx="2.64" ry="2.06"/>
        <ellipse class="cls-8" cx="242.16" cy="186.18" rx="2.64" ry="2.06"/>
        <path class="cls-9" d="m234.87,191.84s4.02-3.14,8.05-1.57,3.14-1.54,6.6-1.55,3.46,3.12,3.46,3.12c0,0-8.05,9.42-18.11,0Z"/>
        <path class="cls-5" d="m211.95,206.35s-10.68-8.45,1.24-11.15c4.92,1.79-1.24,11.15-1.24,11.15Z"/>
        <ellipse class="cls-16" cx="243.17" cy="184.68" rx="19.75" ry="20.43"/>
        <ellipse class="cls-14" cx="241.93" cy="183.44" rx="19.75" ry="20.43"/>
        <path class="cls-13" d="m213.19,189.01s3.72-2.48,8.67,0"/>
        <path class="cls-5" d="m229.29,227.4s-2.48-9.91,11.15-1.24c0,0-5.41-1.92-11.15,1.24Z"/>
      </g>
      <g>
        <g>
          <path class="cls-2" d="m23.11,402.13s-3.41-16.51,2.6-35.83c23.92,1.71,47.97,1.19,71.96-2.02-1.61,7.7-6.23,14.22-9.04,21.45,15.2-.26,30.28-.8,45.31-1.65-.11,6.99-2.06,14.53-6.5,22.61-31.04,56.57-104.33-4.56-104.33-4.56Z"/>
          <path class="cls-2" d="m31.39,381.68c19.51,11.81,40.75,20.45,63.27,24.34,9.47,1.63,22.29,3.13,33.14.67-.07.12-.13.24-.2.37-31.04,56.57-104.33-4.56-104.33-4.56,0,0-2.3-11.17.22-25.87,2.6,1.74,5.23,3.43,7.9,5.05Z"/>
          <path class="cls-2" d="m23.11,402.13s-3.41-16.51,2.6-35.83c5.92.42,11.84.71,17.77.85-3.15,5.75-6.01,11.7-8.65,17.65-3.26,1.49-5.6,4.53-6.19,8.46-.81,5.48,3.92,11.3,9.46,11.62.05,0,.1,0,.15.01.02.21.03.42.07.63.62,3.91,4.78,7.36,8.84,6.41,3.1-.72,5.89-.88,8.58.66,3.23,1.85,5.52,5.02,7.61,8.01,2.4,3.43,7.73,3.72,10.85,1.25,2.15-1.7,3.03-4.21,2.79-6.69,1.71.14,3.43.2,5.14.18.46.31.98.58,1.56.81,10.66,4.28,21.99,6.56,32.86,4.5-34.56,30.54-93.43-18.55-93.43-18.55Z"/>
          <path class="cls-2" d="m1.33,395.73c-2.37-9.26-1.05-20.38,2.57-31.6,16,2.03,32.09,3.12,48.2,3.13-10.89,19.7-21.57,38.36-21.57,38.36,0,0-21.36,20.73-29.21-9.88Z"/>
          <path class="cls-2" d="m1.19,395.98c-1.22-4.75-1.46-9.99-.92-15.48.39.37.8.73,1.24,1.07,8.02,6.33,19.42,4.96,28.3,1.48,7.19-2.82,13.6-7.3,19.98-11.62-10.09,18.18-19.39,34.43-19.39,34.43,0,0-21.36,20.73-29.21-9.88Z"/>
          <g>
            <path class="cls-2" d="m171.21,381.66c-1.93-24.13-1.17-48.18,1.81-71.97,15.91,5.9,33.44,18.52,44.11,45.02,0,0-25.72,64.98-67.61,62.12-.05-15.05.21-30.14.76-45.33,7.07,3.19,13.34,8.15,20.93,10.17Z"/>
            <path class="cls-2" d="m151.21,404.1c2.91.37,5.94-.06,8.7-1.22,5.95-2.5,11.45-7.35,14.98-13.11,8.28-9.57,12.24-22.68,15.63-34.84,2.83-10.13,5.64-20.93,5.63-31.43,8.13,7.29,15.6,17.36,21.18,31.23,0,0-25.72,64.98-67.61,62.12-.01-4.12,0-8.23.03-12.36.5-.09.98-.22,1.46-.39Z"/>
            <path class="cls-2" d="m231.42,335.63c6.34,22.86-16.63,25.46-16.63,25.46-.66,1.56-23.03-11.93-44.13-25.1.86-16.09,2.8-32.1,5.69-47.97,25.39,9.71,50.65,31.66,55.07,47.61Z"/>
            <path class="cls-2" d="m181.7,339.52c3.9.63,7.85.7,11.67-.14,10.81-2.39,18.44-10.91,20.73-21.61.39-1.81.57-3.63.6-5.45,8.56,7.96,14.8,16.36,16.79,23.55,6.34,22.86-16.63,25.46-16.63,25.46-.58,1.38-17.99-8.92-36.55-20.39,1.15-.44,2.28-.92,3.39-1.42Z"/>
            <path class="cls-2" d="m197.17,303.13s-3.69,1.88-3.48-.15,3.08-9.95,10.55-18.64c7.47-8.68,11.87.4,5.89,2.66-5.99,2.26-12.96,16.13-12.96,16.13Z"/>
            <path class="cls-2" d="m197.17,303.13s-3.03,1.54-3.43.3c2.52-4.03,5.2-7.95,7.62-12.05.92-1.57,1.77-3.11,3.27-4.19,2.04-1.47,3.93-2.38,5.76-4.21.56-.56.94-1.24,1.15-1.97,2.04,1.14,2.03,4.69-1.41,5.99-5.99,2.26-12.96,16.13-12.96,16.13Z"/>
          </g>
        </g>
        <g>
          <path class="cls-7" d="m23.11,402.13s-3.41-16.51,2.6-35.83c23.92,1.71,47.97,1.19,71.96-2.02-1.61,7.7-6.23,14.22-9.04,21.45,15.2-.26,30.28-.8,45.31-1.65-.11,6.99-2.06,14.53-6.5,22.61-31.04,56.57-104.33-4.56-104.33-4.56Z"/>
          <path class="cls-10" d="m31.39,381.68c19.51,11.81,40.75,20.45,63.27,24.34,9.47,1.63,22.29,3.13,33.14.67-.07.12-.13.24-.2.37-31.04,56.57-104.33-4.56-104.33-4.56,0,0-2.3-11.17.22-25.87,2.6,1.74,5.23,3.43,7.9,5.05Z"/>
          <path class="cls-10" d="m23.11,402.13s-3.41-16.51,2.6-35.83c5.92.42,11.84.71,17.77.85-3.15,5.75-6.01,11.7-8.65,17.65-3.26,1.49-5.6,4.53-6.19,8.46-.81,5.48,3.92,11.3,9.46,11.62.05,0,.1,0,.15.01.02.21.03.42.07.63.62,3.91,4.78,7.36,8.84,6.41,3.1-.72,5.89-.88,8.58.66,3.23,1.85,5.52,5.02,7.61,8.01,2.4,3.43,7.73,3.72,10.85,1.25,2.15-1.7,3.03-4.21,2.79-6.69,1.71.14,3.43.2,5.14.18.46.31.98.58,1.56.81,10.66,4.28,21.99,6.56,32.86,4.5-34.56,30.54-93.43-18.55-93.43-18.55Z"/>
          <path class="cls-3" d="m1.33,395.73c-2.37-9.26-1.05-20.38,2.57-31.6,16,2.03,32.09,3.12,48.2,3.13-10.89,19.7-21.57,38.36-21.57,38.36,0,0-21.36,20.73-29.21-9.88Z"/>
          <path class="cls-5" d="m1.19,395.98c-1.22-4.75-1.46-9.99-.92-15.48.39.37.8.73,1.24,1.07,8.02,6.33,19.42,4.96,28.3,1.48,7.19-2.82,13.6-7.3,19.98-11.62-10.09,18.18-19.39,34.43-19.39,34.43,0,0-21.36,20.73-29.21-9.88Z"/>
          <g>
            <path class="cls-7" d="m171.21,381.66c-1.93-24.13-1.17-48.18,1.81-71.97,15.91,5.9,33.44,18.52,44.11,45.02,0,0-25.72,64.98-67.61,62.12-.05-15.05.21-30.14.76-45.33,7.07,3.19,13.34,8.15,20.93,10.17Z"/>
            <path class="cls-10" d="m151.21,404.1c2.91.37,5.94-.06,8.7-1.22,5.95-2.5,11.45-7.35,14.98-13.11,8.28-9.57,12.24-22.68,15.63-34.84,2.83-10.13,5.64-20.93,5.63-31.43,8.13,7.29,15.6,17.36,21.18,31.23,0,0-25.72,64.98-67.61,62.12-.01-4.12,0-8.23.03-12.36.5-.09.98-.22,1.46-.39Z"/>
            <path class="cls-3" d="m231.42,335.63c6.34,22.86-16.63,25.46-16.63,25.46-.66,1.56-23.03-11.93-44.13-25.1.86-16.09,2.8-32.1,5.69-47.97,25.39,9.71,50.65,31.66,55.07,47.61Z"/>
            <path class="cls-5" d="m181.7,339.52c3.9.63,7.85.7,11.67-.14,10.81-2.39,18.44-10.91,20.73-21.61.39-1.81.57-3.63.6-5.45,8.56,7.96,14.8,16.36,16.79,23.55,6.34,22.86-16.63,25.46-16.63,25.46-.58,1.38-17.99-8.92-36.55-20.39,1.15-.44,2.28-.92,3.39-1.42Z"/>
            <path class="cls-3" d="m197.17,303.13s-3.69,1.88-3.48-.15,3.08-9.95,10.55-18.64c7.47-8.68,11.87.4,5.89,2.66-5.99,2.26-12.96,16.13-12.96,16.13Z"/>
            <path class="cls-5" d="m197.17,303.13s-3.03,1.54-3.43.3c2.52-4.03,5.2-7.95,7.62-12.05.92-1.57,1.77-3.11,3.27-4.19,2.04-1.47,3.93-2.38,5.76-4.21.56-.56.94-1.24,1.15-1.97,2.04,1.14,2.03,4.69-1.41,5.99-5.99,2.26-12.96,16.13-12.96,16.13Z"/>
          </g>
        </g>
      </g>
    </g>
  </g>
</svg>