<svg width="391" height="58" viewBox="0 0 391 58" fill="none" xmlns="http://www.w3.org/2000/svg">
<rect x="0.5" y="0.5" width="390" height="57" rx="9.5" fill="white" stroke="black"/>
<path fill-rule="evenodd" clip-rule="evenodd" d="M356.062 13.25C353.86 13.2502 351.689 13.7771 349.732 14.7868C347.774 15.7964 346.087 17.2596 344.81 19.0541C343.533 20.8486 342.703 22.9226 342.391 25.1028C342.078 27.2831 342.292 29.5065 343.013 31.5874C343.735 33.6684 344.944 35.5467 346.539 37.0656C348.134 38.5844 350.069 39.6998 352.183 40.3186C354.297 40.9374 356.528 41.0418 358.69 40.623C360.852 40.2042 362.883 39.2743 364.613 37.911L370.548 43.8455C370.854 44.1415 371.265 44.3053 371.691 44.3016C372.117 44.2979 372.524 44.127 372.826 43.8257C373.127 43.5244 373.298 43.1168 373.302 42.6908C373.305 42.2647 373.141 41.8542 372.845 41.5477L366.911 35.6133C368.516 33.5765 369.516 31.1289 369.796 28.5506C370.075 25.9722 369.623 23.3673 368.491 21.0339C367.359 18.7005 365.593 16.733 363.395 15.3564C361.197 13.9798 358.656 13.2498 356.062 13.25ZM345.5 27.0625C345.5 24.2612 346.613 21.5745 348.594 19.5937C350.575 17.6128 353.261 16.5 356.062 16.5C358.864 16.5 361.55 17.6128 363.531 19.5937C365.512 21.5745 366.625 24.2612 366.625 27.0625C366.625 29.8638 365.512 32.5505 363.531 34.5313C361.55 36.5122 358.864 37.625 356.062 37.625C353.261 37.625 350.575 36.5122 348.594 34.5313C346.613 32.5505 345.5 29.8638 345.5 27.0625Z" fill="black"/>
</svg>
