<svg width="254" height="194" viewBox="0 0 254 194" fill="none" xmlns="http://www.w3.org/2000/svg">
<path d="M69.8104 184.537C69.6725 184.091 69.548 183.725 69.4525 183.391C69.4631 183.277 69.4737 183.16 69.4817 183.046C69.5957 181.264 69.328 179.44 69.1981 177.663C69.0629 175.851 68.9357 174.038 68.8323 172.224C68.6282 168.601 68.5301 164.97 68.7104 161.345C68.8853 157.829 69.328 154.204 67.9762 150.844C67.1519 148.794 64.8671 147.361 62.7202 148.703C62.3597 148.929 62.0443 149.178 61.766 149.446C60.8913 148.77 59.7198 148.481 58.6119 148.786C56.5762 149.345 55.8102 151.273 56.1124 153.19C57.1143 159.545 56.4437 166.087 55.8739 172.452C55.8314 172.921 55.789 173.39 55.7493 173.862C55.2695 174.462 54.9833 175.199 55.0575 175.989C55.076 176.191 55.0866 176.387 55.0999 176.586C55.084 176.695 55.0681 176.804 55.0575 176.915C54.97 177.901 54.5883 179.193 54.0741 180.185C53.7985 180.718 53.605 181.375 53.5811 182.028C53.0881 183.441 52.8496 185.027 53.2127 186.48C53.0749 187.035 53.0934 187.629 53.3293 188.231C53.4301 188.483 53.5281 188.737 53.6289 188.989C54.2067 190.461 55.4445 191.567 56.9738 191.617C57.8618 192.768 59.0359 193.638 60.6236 193.906C62.9693 194.304 65.1322 193.402 66.8497 191.922C66.8524 191.922 66.855 191.922 66.8577 191.922C68.8297 192.02 70.3802 190.201 70.4359 188.342C70.473 187.045 70.1973 185.772 69.813 184.542L69.8104 184.537Z" fill="#311A09"/>
<path d="M106.632 152.326C105.648 150.143 103.766 148.775 101.604 147.908C100.845 147.603 100.026 147.701 99.2975 148.038C98.6561 147.719 98.0147 147.401 97.3759 147.083C97.36 146.566 97.2222 146.046 96.9598 145.561C97.1506 145.136 97.2619 144.656 97.2752 144.121C97.2805 143.89 97.2699 143.813 97.2593 143.797C97.2725 143.755 97.2884 143.694 97.3096 143.609C97.3096 143.609 97.5429 142.85 97.4846 142.938C97.6171 142.649 97.792 142.373 97.9564 142.105C98.0385 141.973 98.0783 141.896 98.0942 141.856C98.1313 141.832 98.1976 141.779 98.3142 141.67C98.3778 141.612 98.9159 141.129 98.8258 141.177C99.0431 141.021 99.279 140.885 99.5149 140.758C99.4513 140.795 99.8515 140.61 99.9893 140.567C100.164 140.511 100.342 140.464 100.522 140.427C100.175 140.45 100.225 140.448 100.668 140.416C102.597 140.286 104.246 138.865 104.246 136.836C104.246 134.99 102.605 133.136 100.668 133.256C99.0033 133.356 97.4104 133.455 95.8386 133.425C95.8996 133.184 95.942 132.937 95.9658 132.688C96.2044 132.434 96.4482 132.182 96.6974 131.977C96.8007 131.895 96.9836 131.768 97.1692 131.649C99.0007 131.853 100.784 131.556 102.2 130.068C103.851 128.334 103.44 124.464 100.62 124.085C99.2233 123.897 97.9166 123.955 96.6815 124.239C96.5357 124.194 96.3899 124.152 96.2441 124.106C95.1495 123.783 94.0627 123.43 92.9866 123.04C91.9741 122.674 90.9802 122.274 89.9995 121.842C90.0498 121.807 90.1028 121.773 90.1532 121.736C91.4732 121.266 92.6129 120.264 92.825 118.808C93.037 117.352 92.8037 115.989 91.5421 115.045C91.1578 114.758 90.739 114.554 90.3016 114.435C90.3228 114.422 90.3414 114.406 90.3573 114.395C90.4103 114.376 90.5057 114.334 90.6674 114.254C93.2649 112.982 92.6977 109.478 90.6674 108.073C89.5197 107.28 88.1759 106.916 86.8347 106.612C86.2516 106.479 85.6712 106.333 85.1013 106.153C84.8495 106.073 84.6003 105.983 84.3512 105.898C83.9006 105.744 84.1816 105.848 83.9218 105.731C82.2573 104.983 81.0857 104.19 80.166 103.037C80.8498 102.907 81.4966 102.589 81.979 102.077C84.9767 98.9129 87.9745 95.7491 90.9722 92.5853C91.3963 92.214 91.7886 91.7685 92.1411 91.2169C94.3331 87.7959 89.3156 83.9293 86.522 86.8783L86.135 87.2867C85.7825 87.3848 85.4273 87.4697 85.0668 87.5413C83.9351 87.772 82.8457 88.0213 81.8067 88.5597C81.6423 88.6445 81.4833 88.74 81.3269 88.8408C81.3481 88.2335 81.3561 87.6235 81.2951 87.0401C81.3163 86.8969 81.3349 86.7537 81.3561 86.6131C81.4674 85.8467 81.4091 85.0776 81.1732 84.3934C81.5787 83.4546 81.9737 82.5105 82.3368 81.5532C82.6549 80.7205 83.0445 79.8241 83.3413 78.9092C83.3838 78.8933 83.4262 78.8774 83.4712 78.8588C85.1967 78.1666 86.1721 77.1801 86.8506 75.4404C87.2986 74.2974 86.7791 72.7779 85.8726 71.8895C86.1005 70.9294 86.2251 69.9456 86.2808 68.9537C86.3577 67.5429 85.3186 66.2037 84.0808 65.6812C82.7079 65.1004 81.2713 65.4479 80.1713 66.4211C79.1774 67.2989 78.308 68.3014 77.5261 69.3674C76.9112 69.6061 76.3678 70.0198 75.9517 70.5529C75.8854 70.5449 75.8244 70.537 75.7767 70.5317C74.6688 70.3991 73.5874 70.5131 72.5431 70.9056C72.0103 71.1071 71.5147 71.3591 71.0429 71.6508C71.0985 71.2371 71.1436 70.8393 71.1754 70.468C71.194 70.2532 71.1807 70.0384 71.1462 69.8289C72.4848 66.7765 73.9373 63.7718 75.4878 60.8175C75.8933 60.0405 76.0206 59.1707 75.8774 58.3539C76.283 57.8447 76.654 57.3143 76.9589 56.7547C78.088 54.6783 78.907 52.3658 79.8559 50.2018C80.6325 48.4329 80.3754 46.3591 78.573 45.3036C77.0543 44.4152 74.4568 44.8077 73.6775 46.5871C73.1553 47.7779 72.6332 48.9686 72.111 50.1593C71.6286 51.2625 71.2364 52.5408 70.5552 53.5379C69.8581 54.5589 68.8774 55.5534 67.8967 56.524C68.1193 55.7947 68.2837 55.0548 68.2757 54.2805C68.2704 53.8164 68.2095 53.3841 68.1034 52.981C68.8164 51.4986 69.426 49.9657 69.9349 48.4011C70.2636 47.3907 70.0357 46.3458 69.4764 45.5131C69.7759 44.9509 70.0648 44.386 70.3034 43.7814C71.0217 41.9621 71.0588 39.8724 70.0993 38.1221C69.6566 37.3132 69.0258 36.576 68.2466 36.0748C68.1326 36.0032 67.4594 35.7353 66.7623 35.5046C66.5741 34.7727 66.3249 34.0885 65.9724 33.399C65.8584 33.1788 65.7153 32.98 65.551 32.797C65.543 32.7201 65.5377 32.6405 65.5298 32.5636C65.5218 32.4522 65.5165 32.3408 65.5086 32.2294C65.5006 32.0968 65.4847 31.9669 65.4635 31.837C65.4264 31.4312 65.3866 31.0281 65.3495 30.6224C65.3071 29.9222 65.2435 29.2168 65.156 28.5061C65.156 28.4955 65.156 28.4822 65.1534 28.4716C65.1136 28.156 65.0739 27.8405 65.0262 27.5196C65.0129 27.4241 64.9891 27.3339 64.9652 27.2438C64.9599 26.9441 64.9493 26.6418 64.944 26.3421C64.9042 24.4088 63.3272 22.762 61.3658 22.762C59.4044 22.762 57.7478 24.4009 57.7876 26.3421C57.822 28.0261 57.8618 29.7074 57.9068 31.3914C57.6471 32.4867 57.4377 33.5899 57.2601 34.7011C56.7698 35.0113 56.3377 35.4224 56.0037 35.8838C53.8833 38.8196 52.1658 42.1982 53.0643 45.9188C53.4115 47.3509 54.1908 48.6398 55.0655 49.804C55.3623 50.1965 55.6698 50.581 55.9693 50.9735C56.1177 51.1644 56.123 51.1697 55.9825 50.9894C56.0568 51.0902 56.131 51.1883 56.2052 51.2891C56.3245 51.4561 56.4411 51.6259 56.5551 51.7956C56.6478 52.6575 57.0216 53.4637 57.6312 54.0577C57.6232 54.307 57.61 54.5536 57.5994 54.8029C57.4085 54.5669 57.215 54.3362 57.011 54.1134C55.4657 52.4161 53.3744 51.1697 52.3884 49.133C52.1923 48.6716 51.9988 48.2128 51.8027 47.7513C51.1162 46.1337 48.7864 45.6483 47.3339 46.2875C45.8125 46.9558 44.6462 48.8068 45.2611 50.512C45.4679 51.0796 45.6958 51.6259 45.9476 52.1536C46.817 54.2937 47.6042 56.5426 48.6883 58.5581C49.343 59.7753 50.5092 60.8441 51.8901 61.1305C51.9882 61.4142 52.0916 61.698 52.1976 61.9791C52.839 63.6949 53.6633 65.957 54.7925 68.0176C54.5963 68.5878 54.3101 69.1526 53.9151 69.744C53.6686 70.11 53.4274 70.4707 53.1968 70.834C53.1915 70.8287 53.1862 70.8207 53.1836 70.8154C52.8258 70.3328 52.46 69.8554 52.0863 69.3834C51.3494 68.4552 50.5622 67.5721 49.7193 66.7394C48.0283 65.0766 46.1226 63.6127 44.1188 62.3477C41.6511 60.791 37.6886 63.4297 38.8628 66.3919C39.1464 67.108 39.4856 67.7577 39.87 68.3571C39.7348 68.7336 39.6553 69.1553 39.6553 69.63C39.6553 72.5418 39.5625 75.7587 41.6988 78.0367C42.1812 78.5512 42.7564 78.9861 43.3819 79.3149C43.4455 79.3468 44.519 79.8639 45.1816 80.0867C45.2055 80.1476 45.2452 80.1901 45.224 80.0999C45.4096 80.6383 45.5448 81.1952 45.7382 81.7335C46.051 82.6034 46.4539 83.3433 46.9257 83.9956C46.3293 83.9903 45.7382 83.9956 45.1657 84.0089C40.2569 84.0991 35.3482 85.0432 30.7733 86.8226C29.2811 87.4034 28.1467 88.5835 28.1467 90.2755C28.1467 91.7659 29.2466 93.426 30.7733 93.7283L36.3554 94.8315C36.9544 94.9509 37.5587 95.0569 38.1577 95.1789C38.1816 95.6006 38.2717 96.0116 38.436 96.3829C38.6534 96.8788 39.0271 97.3827 39.4883 97.7858C37.3626 99.0587 34.9347 100.541 34.9347 103.196C34.9347 103.408 34.9532 103.615 34.9903 103.819C34.8393 104.052 34.6882 104.283 34.5397 104.516C32.5015 107.664 36.4322 111.014 39.4353 109.415C41.3225 108.41 43.2043 107.386 45.0915 106.381C44.7125 107.038 44.3388 107.704 43.973 108.37C42.6981 110.693 41.4894 112.982 39.9044 114.936C38.2876 115.496 36.6125 116.039 35.1441 116.898C34.1687 117.471 33.2198 118.177 32.3849 118.996C32.1251 118.988 31.8468 118.98 31.5367 118.975C29.0664 118.943 27.4257 120.309 25.7188 121.913C24.1788 123.359 22.6415 124.807 21.1015 126.252C19.8637 127.413 19.771 129.408 20.6695 130.781C19.8876 131.59 19.4794 132.818 19.6384 133.866C19.9115 135.688 21.3295 136.852 23.1531 136.971C24.4677 137.056 25.6896 136.799 26.8293 136.324C27.4734 136.191 28.1175 136.051 28.7589 135.902C28.8119 135.977 28.8596 136.051 28.9153 136.122C29.7211 137.157 30.7415 137.791 31.8548 138.106C31.7461 138.186 31.6798 138.239 31.762 138.207C29.5329 139.111 27.1501 139.209 24.9925 140.389C23.8263 141.026 22.7608 141.888 21.8596 142.89C20.3885 143.288 19.103 144.42 18.4537 146.089C18.4245 146.165 18.4059 146.245 18.3821 146.322C18.1409 146.34 17.8997 146.378 17.6665 146.428C15.4214 146.916 13.9186 148.923 14.0034 151.223C14.1624 155.508 18.8168 156.8 22.342 156.301C25.2523 155.89 27.7862 154.381 30.3386 153.021C32.4617 151.891 34.4337 151.082 36.798 151.713C37.5719 151.92 38.1975 152.257 38.8681 152.623C37.5852 153.928 36.4137 155.341 35.4277 156.94C33.5988 159.911 37.3122 163.843 40.3232 161.839C41.6988 160.924 43.0373 159.953 44.3388 158.937C44.6171 159.324 44.9775 159.651 45.4361 159.863C47.962 161.03 50.6815 161.446 53.4036 160.677C54.6175 160.332 55.7626 159.77 56.7724 159.019C57.1196 158.76 57.4615 158.492 57.7982 158.219C57.5755 158.372 57.6391 158.327 57.989 158.081C58.0155 158.059 58.0367 158.044 58.0606 158.025C58.9856 158.2 60.7243 158.349 61.9781 157.996C63.253 157.635 64.4934 157.025 65.7233 156.535C66.1447 156.368 66.7172 156.227 67.181 156.02C68.2704 156.673 69.5294 156.89 70.7831 156.529C71.4113 156.349 71.9467 156.025 72.437 155.633C74.1838 157.701 76.2194 159.685 79.2277 158.974C79.2966 158.958 79.3655 158.937 79.4345 158.919C80.7571 160.391 82.5568 161.191 84.5473 161.154C86.5644 161.115 89.0479 160.51 90.14 158.643C90.4898 158.046 90.6833 157.439 90.7469 156.85C91.7091 156.765 92.6474 156.505 93.5538 155.956C94.3755 155.461 95.0143 154.827 95.4728 154.1C95.8174 154.27 96.162 154.442 96.5065 154.612L101.723 157.2C105.076 158.863 108.087 155.564 106.618 152.302L106.632 152.326ZM38.2293 94.2746C37.9589 93.9935 38.0199 93.5612 39.1835 92.4925C38.6772 92.9566 38.3618 93.5957 38.2293 94.2746Z" fill="#3E655D" stroke="#3E655D" stroke-width="0.594155" stroke-miterlimit="10"/>
<path d="M61.4294 29.8958C61.0398 34.1787 59.5555 38.1832 58.7603 42.3839C58.7046 42.6729 58.6649 42.962 58.6092 43.2511C58.588 43.7072 58.5244 44.1633 58.5085 44.6195C58.5032 44.7865 58.5032 44.951 58.5058 45.1154C59.24 44.2217 60.3586 43.6515 61.6017 43.5958C63.7407 43.5003 65.6013 45.4973 65.5854 47.5817C65.5801 48.3163 65.5377 49.0509 65.5112 49.7855C65.498 50.1408 65.4873 50.4962 65.4927 50.8516C65.498 51.2016 65.6755 52.2783 65.4423 50.894C65.8081 53.0553 64.9201 54.9886 62.7997 55.7471C63.0436 56.0282 63.2768 56.3199 63.5074 56.6169C63.9765 56.426 64.4642 56.3119 64.9281 56.2934C65.9194 56.2483 67.0538 56.7707 67.7456 57.4602C68.5567 58.2717 68.7793 59.184 68.9118 60.2793C68.9622 60.6956 68.9861 61.1146 68.9993 61.5336C71.6763 57.4152 75.6468 54.026 79.5193 51.0186C79.6332 50.7508 79.7472 50.4829 79.8612 50.2177C80.6378 48.4489 80.3807 46.3751 78.5783 45.3196C77.0596 44.4312 74.4621 44.8237 73.6828 46.6031C73.1606 47.7939 72.6385 48.9846 72.1163 50.1753C71.6339 51.2785 71.2417 52.5568 70.5605 53.5539C69.8634 54.5749 68.8827 55.5694 67.902 56.54C68.1246 55.8107 68.289 55.0708 68.281 54.2965C68.2757 53.8324 68.2147 53.4001 68.1087 52.997C68.8217 51.5145 69.4313 49.9817 69.9402 48.4171C70.2689 47.4067 70.041 46.3618 69.4817 45.5291C69.7812 44.9669 70.0701 44.402 70.3087 43.7974C71.027 41.9781 71.0641 39.8884 70.1046 38.1381C69.6619 37.3292 69.0311 36.592 68.2519 36.0908C68.1379 36.0192 67.4646 35.7513 66.7676 35.5206C66.5794 34.7887 66.3302 34.1045 65.9777 33.415C65.8637 33.1948 65.7206 32.9959 65.5563 32.813C65.5483 32.736 65.543 32.6565 65.5351 32.5796C65.5271 32.4682 65.5218 32.3568 65.5139 32.2454C65.5059 32.1128 65.49 31.9829 65.4688 31.8529C65.4317 31.4472 65.3919 31.0441 65.3548 30.6384C65.3124 29.9382 65.2488 29.2328 65.1613 28.5221C65.1613 28.5115 65.1613 28.4982 65.1587 28.4876C65.1189 28.172 65.0792 27.8565 65.0315 27.5356C65.0182 27.4401 64.9943 27.3499 64.9705 27.2598C64.9652 26.9601 64.9546 26.6578 64.9493 26.3581C64.9095 24.4248 63.3325 22.778 61.3711 22.778C59.6111 22.778 58.0235 24.1729 57.8167 25.9126C59.7145 26.0637 61.599 27.9387 61.4241 29.8932L61.4294 29.8958Z" fill="#48826D" stroke="#3E655D" stroke-width="0.594155" stroke-miterlimit="10"/>
<path d="M100.671 133.266C99.006 133.367 97.413 133.465 95.8413 133.436C95.9022 133.195 95.9446 132.948 95.9685 132.699C96.207 132.444 96.4509 132.192 96.7 131.988C96.8034 131.906 96.9863 131.779 97.1718 131.659C99.0033 131.863 100.787 131.566 102.203 130.079C103.854 128.344 103.443 124.475 100.623 124.096C99.226 123.908 97.9193 123.966 96.6841 124.25C96.5384 124.205 96.3926 124.162 96.2468 124.117C95.8333 123.995 95.4251 123.865 95.0143 123.735C93.5618 124.836 91.8363 125.605 90.0578 126.072C87.2668 126.806 84.3353 126.88 81.5867 127.801C79.5378 128.485 77.2319 127.01 76.6859 125.016C76.0948 122.86 77.428 120.794 79.4689 120.113C81.9127 119.296 84.4996 119.142 87.0044 118.606C87.6246 118.474 88.2422 118.32 88.8465 118.121C89.0453 118.055 89.8908 117.638 89.04 118.081C89.3077 117.941 89.5807 117.821 89.8405 117.668C90.0445 117.548 90.5641 117.079 90.1426 117.485C90.3149 117.32 90.4872 117.156 90.6595 116.991C90.6833 116.967 90.7045 116.952 90.7231 116.933C90.7363 116.896 90.7549 116.853 90.7787 116.8C90.9139 116.498 91.0942 116.214 91.232 115.912C91.3539 115.641 91.5156 115.403 91.7038 115.188C91.6534 115.146 91.6031 115.103 91.5474 115.061C91.1631 114.774 90.7443 114.57 90.307 114.451C90.3282 114.437 90.3467 114.422 90.3626 114.411C90.4156 114.392 90.511 114.35 90.6727 114.27C93.2702 112.997 92.703 109.494 90.6727 108.089C89.525 107.296 88.1812 106.932 86.84 106.627C86.2569 106.495 85.6765 106.349 85.1066 106.169C84.8548 106.089 84.6057 105.999 84.3565 105.914C83.9059 105.76 84.1869 105.864 83.9271 105.747C83.2221 105.431 82.6098 105.105 82.0638 104.747C80.9983 104.652 79.9381 104.543 78.8619 104.641C76.8846 104.821 75.191 102.994 74.9498 101.183C74.6847 99.2152 75.8933 97.3748 77.8044 96.8099C79.4265 96.3299 81.0937 96.0992 82.7609 95.8314C83.556 95.7014 84.3512 95.5662 85.1331 95.3699C85.9521 95.1657 86.6227 94.9297 87.0441 94.7149C87.8048 94.3303 88.6318 94.1712 89.4296 94.2349C89.9465 93.6912 90.4607 93.1449 90.9775 92.6013C91.4016 92.23 91.7939 91.7845 92.1464 91.2329C94.3384 87.8118 89.3209 83.9453 86.5273 86.8943L86.1403 87.3027C85.7878 87.4008 85.4326 87.4856 85.0721 87.5572C84.9873 87.5732 84.9025 87.5917 84.8203 87.6103C84.2478 88.1778 83.6435 88.7108 83.01 89.2147C82.4296 89.6762 81.8226 90.18 81.1971 90.5911C80.6749 91.1692 80.0123 91.6094 79.3019 91.8057C77.094 92.413 75.1565 91.0366 74.4011 89.0211C73.6961 87.1382 74.8172 85.1652 76.389 84.1548C77.4148 83.4944 77.7275 83.3327 78.4988 82.6326C79.3894 81.8264 80.1978 80.9406 80.9532 80.0098C80.9824 79.9753 81.1706 79.7313 81.258 79.6226C81.3402 79.5112 81.5416 79.2381 81.5708 79.2009C81.9551 78.6785 82.3315 78.1534 82.7079 77.6257C83.6753 76.2705 85.1994 75.4643 86.7658 75.6977C86.8003 75.6181 86.8321 75.5386 86.8666 75.4564C87.3145 74.3134 86.795 72.7938 85.8885 71.9054C86.1165 70.9454 86.241 69.9615 86.2967 68.9697C86.3736 67.5588 85.3345 66.2196 84.0967 65.6972C82.7238 65.1164 81.2872 65.4638 80.1872 66.4371C79.1933 67.3149 78.3239 68.3173 77.542 69.3834C76.9271 69.6221 76.3837 70.0358 75.9676 70.5688C75.9013 70.5609 75.8403 70.5529 75.7926 70.5476C75.2943 70.4866 74.8013 70.4813 74.3136 70.5237C73.8312 71.2 73.317 71.855 72.7472 72.4623C71.5438 73.7459 69.4101 73.958 67.9179 73.0855C67.1758 72.6506 66.6589 72.03 66.3488 71.3167C65.93 71.6932 65.4343 71.985 64.8777 72.1653C64.1144 72.9901 62.972 73.4939 61.8164 73.6292C59.4441 73.9103 56.9261 72.7249 55.7785 70.6006C55.0204 70.7598 54.204 70.7067 53.4592 70.4627C53.3744 70.59 53.2896 70.72 53.2074 70.8473C53.2021 70.842 53.1968 70.834 53.1942 70.8287C53.0087 70.5794 52.8178 70.3354 52.627 70.0888C52.0757 69.7626 51.6092 69.3118 51.3044 68.739C51.1904 68.5242 51.0923 68.3093 51.0022 68.0945C50.5914 67.6331 50.1699 67.1849 49.7299 66.7527C48.0389 65.0899 46.1332 63.626 44.1294 62.361C42.6 61.3957 40.4981 62.0454 39.3982 63.3794C41.1714 63.3369 43.0055 64.4932 43.4058 66.2886C43.6841 67.5403 43.9597 68.792 44.307 70.0278C44.4607 70.5741 44.6383 71.1098 44.8185 71.6482C44.8583 71.7702 44.898 71.8762 44.9245 71.9478C45.004 72.1229 45.0836 72.3005 45.1737 72.4729C45.4043 72.9238 45.717 73.3268 45.9529 73.7671C45.9715 73.7856 45.9927 73.8016 46.0166 73.8254C46.2021 73.9978 46.3797 74.1914 46.5626 74.3691C46.5997 74.4062 46.6368 74.438 46.6686 74.4672C46.772 74.5335 46.8753 74.5998 46.9813 74.6661C47.9965 74.0721 49.2422 73.8016 50.3979 74.1198C51.3309 74.377 52.2002 74.9843 52.8549 75.6765C53.1041 75.939 53.3267 76.2493 53.5388 76.5463C53.56 76.5463 53.5838 76.5463 53.605 76.5463C54.2862 76.5463 54.9647 76.4694 55.6433 76.4615C57.4138 76.4429 59.2427 76.8142 60.7058 77.8511C62.4684 79.0975 63.3033 81.3092 62.1344 83.3062C61.114 85.0511 58.4396 85.982 56.6823 84.7356C56.3987 84.5764 56.2847 84.4942 56.3324 84.4889C56.2078 84.4571 56.1522 84.4385 56.1707 84.4332C55.7917 84.412 55.4021 84.4439 55.031 84.4598C53.9522 84.5075 52.9397 84.5155 51.8689 84.3696C50.6841 84.2105 49.6239 83.7994 48.7095 83.0807C47.8746 83.277 47.0794 83.2027 46.2975 82.9932C46.491 83.3565 46.7057 83.696 46.9363 84.0142C46.3399 84.0089 45.7488 84.0142 45.1763 84.0275C40.2675 84.1177 35.3588 85.0618 30.7839 86.8412C29.4719 87.3504 28.4382 88.3263 28.205 89.7053C29.3898 89.0211 31.155 89.0344 32.4034 89.7769C33.8294 88.8355 35.4648 88.2441 37.2009 88.7215C38.1392 88.9787 38.9237 89.4613 39.5705 90.0846C40.9673 89.1192 42.9366 88.8912 44.3308 89.8167C45.7833 89.0158 47.4876 88.87 49.1707 89.8485C50.2229 90.4585 50.9041 91.2912 51.3441 92.2459C51.641 92.3361 51.9246 92.4607 52.1737 92.6278C52.9159 93.1237 53.5176 93.6912 54.0344 94.3383C54.7898 93.3597 55.9958 92.7073 57.2336 92.7073C57.9201 92.7073 58.5536 92.8824 59.1022 93.1847C59.794 91.925 61.1961 91.0446 62.6407 91.0446C64.8751 91.0446 66.529 92.8718 66.6244 95.0305C66.7119 96.9743 65.0924 98.6504 63.245 98.9607C63.6797 99.4088 64.0137 99.9684 64.1939 100.629C64.7452 102.636 63.5101 105.055 61.4108 105.532C58.7709 106.132 55.7467 105.423 53.2552 104.487C52.0995 104.052 51.0261 103.559 50.1355 102.74C48.2271 103.832 45.5951 103.22 44.5508 101.313C43.541 101.615 42.3668 101.538 41.4152 101.088C41.1369 101.337 40.8401 101.575 40.5246 101.801C38.8654 102.986 36.8457 102.315 35.6106 100.973C35.1944 101.621 34.9373 102.355 34.9373 103.214C34.9373 103.427 34.9559 103.633 34.993 103.838C34.8419 104.071 34.6908 104.302 34.5424 104.535C32.5174 107.662 36.3872 110.99 39.3823 109.46C40.1112 108.399 41.3092 107.747 42.6159 107.728C43.4429 107.282 44.2672 106.84 45.0968 106.397C44.7867 106.932 44.4872 107.473 44.1877 108.014C45.3751 108.492 46.1279 109.494 46.4751 110.733C46.6818 111.213 46.8144 111.74 46.8674 112.3C46.9787 113.47 46.9045 114.623 46.7905 115.779C47.0662 115.936 47.3286 116.124 47.5724 116.347C48.3994 117.111 49.0541 118.044 49.6981 118.962C49.7777 119.076 50.3316 119.752 50.2176 119.649C50.3184 119.757 50.4164 119.869 50.5251 119.972C50.5755 120.004 50.6391 120.044 50.7159 120.094C51.6887 120.691 52.3381 121.653 52.574 122.706C52.6853 122.751 52.7966 122.802 52.9053 122.857C53.5176 121.423 55.039 120.383 56.6081 120.383C56.6293 120.383 56.6505 120.386 56.6743 120.386C56.8228 120.163 56.9659 119.94 57.1011 119.712C57.1991 119.545 57.2893 119.373 57.3847 119.206C57.4377 119.11 57.4695 119.055 57.4881 119.025C58.3707 117.15 60.067 116.074 62.2431 116.572C63.518 116.864 64.6551 118.057 65.0606 119.394C65.156 119.558 65.2435 119.728 65.3151 119.898C65.4237 120.155 65.5165 120.407 65.5801 120.664C66.3223 122.401 65.3071 124.565 63.8175 125.525C63.526 125.714 63.2265 125.844 62.9243 125.936C62.4525 126.541 61.9542 127.127 61.4214 127.684C61.4214 127.689 61.4214 127.697 61.4214 127.703C61.5222 129.949 59.5131 131.559 57.4377 131.688C56.5551 131.744 55.638 131.752 54.7554 131.678C54.705 131.673 54.6626 131.67 54.6228 131.667C54.599 131.67 54.5698 131.675 54.5301 131.678C54.4983 131.707 54.4691 131.734 54.432 131.768C53.3479 132.778 51.8822 133.041 50.5887 132.715C50.2892 133.113 49.9791 133.497 49.6478 133.85C48.3543 135.229 46.4194 135.269 44.9431 134.465C44.1797 135.096 43.313 135.597 42.274 135.916C40.2967 136.52 38.3008 135.327 37.5242 133.537C37.1161 133.619 36.7079 133.68 36.3023 133.73C33.6094 134.545 30.6779 133.73 29.2546 131.134C28.8384 130.376 28.5999 129.631 28.4939 128.896C26.8638 128.108 25.8274 126.289 26.3894 124.3C25.8884 123.833 25.5041 123.237 25.3053 122.518C25.292 122.465 25.2814 122.409 25.2682 122.356C23.8793 123.661 22.4878 124.968 21.0989 126.273C19.8611 127.435 19.7683 129.429 20.6669 130.803C19.885 131.612 19.4768 132.839 19.6358 133.887C19.9088 135.709 21.3268 136.873 23.1504 136.992C24.4651 137.077 25.687 136.82 26.8267 136.345C27.4708 136.213 28.1149 136.072 28.7563 135.924C28.8093 135.998 28.857 136.072 28.9127 136.144C29.7184 137.178 30.7389 137.812 31.8521 138.127C31.7434 138.207 31.6772 138.26 31.7593 138.228C31.5605 138.308 31.3591 138.382 31.1603 138.451C31.6772 139.037 32.0217 139.785 32.1649 140.58C32.8275 140.599 33.4848 140.777 34.0706 141.116C34.6511 141.453 35.1759 141.867 35.6689 142.312C36.9464 141.495 38.391 141.169 40.0449 141.718C41.5239 142.209 42.6106 143.277 43.9438 143.999C43.9491 143.999 43.9544 143.999 43.9597 144.001C44.0021 143.996 44.1506 144.001 44.405 144.015C45.0942 143.972 44.4183 144.078 45.1604 143.925C45.998 143.75 46.8329 143.596 47.6705 143.463C48.6406 142.522 49.6716 141.647 50.8432 140.912C53.3055 139.369 57.0322 141.347 56.8387 144.354C56.73 146.041 56.3324 147.613 55.7467 149.13C56.4623 149.189 57.1541 149.319 57.8141 149.663C57.8803 149.64 57.9439 149.616 58.0102 149.597C58.9591 149.308 60.0485 149.313 61.0212 149.557C61.8561 146.879 62.0125 144.301 61.0742 141.461C60.9549 141.098 60.9046 140.724 60.9099 140.355C60.6952 140.135 60.4725 139.915 60.2287 139.681C56.9845 136.621 61.106 131.195 64.8698 133.314C65.0341 133.362 65.1958 133.412 65.3601 133.46C66.0413 133.677 66.6934 133.961 67.3454 134.253C68.7449 134.876 69.373 136.499 69.2697 137.997C69.3995 138.17 69.5294 138.345 69.6566 138.52C70.5419 139.724 71.3927 140.891 72.1879 141.837C72.3098 141.981 72.3628 142.055 72.3814 142.092C72.4079 142.097 72.4768 142.129 72.6305 142.227C72.9009 142.4 73.1739 142.556 73.4549 142.705C73.5158 142.729 73.7888 142.853 73.9373 142.901C74.2447 143.002 74.5548 143.089 74.8676 143.161C75.1751 143.232 75.4852 143.293 75.7979 143.344C75.8032 143.333 76.4685 143.402 76.5639 143.41C77.2531 143.458 77.9422 143.476 78.6314 143.484C82.1672 143.524 85.1384 142.763 88.8333 142.447C91.77 142.198 94.8924 142.516 97.808 142.333C97.853 142.259 97.8981 142.185 97.9405 142.113C98.0226 141.981 98.0624 141.904 98.0783 141.864C98.1154 141.84 98.1817 141.787 98.2983 141.678C98.3619 141.62 98.9 141.137 98.8099 141.185C99.0272 141.029 99.2631 140.893 99.499 140.766C99.4354 140.803 99.8356 140.618 99.9734 140.575C100.148 140.519 100.326 140.472 100.506 140.435C100.159 140.458 100.209 140.456 100.652 140.424C102.582 140.294 104.23 138.873 104.23 136.844C104.23 134.998 102.59 133.144 100.652 133.264L100.671 133.266Z" fill="#48826D" stroke="#3E655D" stroke-width="0.594155" stroke-miterlimit="10"/>
<g clip-path="url(#clip0_964_28185)">
<path d="M70.9011 143.219C70.9011 143.219 68.9646 186.403 96.3512 182.584C123.738 178.765 110.736 137.638 110.736 137.638C110.736 137.638 90.2653 123.537 70.9011 143.219Z" fill="#944D1A"/>
<path d="M110.736 137.638C110.736 137.638 90.2653 123.537 70.9011 143.219C70.9011 143.219 70.8596 144.174 70.8762 145.787C71.4654 145.493 72.11 145.311 72.76 145.261C72.915 145.249 74.1626 145.12 74.1432 145.137C74.7573 145.049 75.3714 144.926 75.98 144.8C77.2802 144.526 78.5693 144.192 79.8501 143.833C82.3343 143.14 84.7935 142.344 87.2943 141.709C92.0524 140.499 97.0843 139.988 102.008 139.744C103.109 138.61 104.683 138.116 106.346 138.519C108.659 139.077 110.246 142.044 109.513 144.441C109.508 144.465 109.502 144.485 109.494 144.509C109.574 144.55 109.657 144.591 109.735 144.641C111.198 145.549 111.928 147.878 110.921 149.444C110.152 150.637 109.657 151.794 109.854 153.187C110.092 154.861 110.996 156.354 111.865 157.731C112.863 159.315 112.15 161.621 110.678 162.534C109.666 163.163 108.529 163.125 107.577 162.617C107.367 163.366 107.123 164.1 106.852 164.826C106.902 165.073 106.932 165.337 106.935 165.622C106.988 170.842 106.136 176.018 103.627 180.284C121.176 170.681 110.739 137.646 110.739 137.646L110.736 137.638Z" fill="#944D1A"/>
<path d="M70.6825 146.301C70.6825 146.301 62.1844 140.925 68.6853 132.643C75.1861 124.359 100.57 118.983 111.563 127.356C122.557 135.728 110.968 141.357 110.968 141.357C110.968 141.357 70.6466 147.773 70.6825 146.301Z" fill="#944D1A"/>
<path d="M114.645 130.299C112.081 132.596 108.949 134.197 105.771 135.464C103.632 137.646 101.035 139.159 98.1881 140.134C97.9806 140.287 97.7565 140.408 97.5131 140.493C94.9155 141.906 92.1741 143.022 89.3386 143.763C85.4824 144.77 81.3744 145.528 77.3909 145.196C73.9883 144.914 69.1196 144.362 67.5151 140.646C67.4819 140.569 67.4542 140.493 67.4238 140.414C67.0199 140.176 66.6354 139.899 66.2758 139.567C66.7184 143.795 70.6798 146.301 70.6798 146.301C70.6466 147.77 110.966 141.357 110.966 141.357C110.966 141.357 119.89 137.021 114.639 130.299H114.645Z" fill="#944D1A"/>
<path d="M87.7756 125.593C87.7756 125.593 87.499 118.542 85.5626 116.486C83.6262 114.43 86.9457 111.492 88.3289 116.486C89.7121 121.48 89.4354 125.299 89.1588 126.18C88.8822 127.062 87.7756 125.593 87.7756 125.593Z" fill="#944D1A"/>
<path d="M88.2127 119.944C88.127 119.121 88.0716 118.325 87.6761 117.597C87.1366 116.607 86.5612 115.875 86.1712 114.773C86.0522 114.436 86.0246 114.083 86.0688 113.742C85.0729 113.833 84.4478 115.302 85.5626 116.486C87.499 118.542 87.7756 125.593 87.7756 125.593C87.7756 125.593 88.6858 126.8 89.062 126.36C88.7909 124.218 88.434 122.091 88.2127 119.944Z" fill="#944D1A"/>
<path d="M70.9011 143.219C70.9011 143.219 68.9646 186.403 96.3512 182.584C123.738 178.765 110.736 137.638 110.736 137.638C110.736 137.638 90.2653 123.537 70.9011 143.219Z" fill="#F9A66B"/>
<path d="M110.736 137.638C110.736 137.638 90.2653 123.537 70.9011 143.219C70.9011 143.219 70.8596 144.174 70.8762 145.787C71.4654 145.493 72.11 145.311 72.76 145.261C72.915 145.249 74.1626 145.12 74.1432 145.137C74.7573 145.049 75.3714 144.926 75.98 144.8C77.2802 144.526 78.5693 144.192 79.8501 143.833C82.3343 143.14 84.7935 142.344 87.2943 141.709C92.0524 140.499 97.0843 139.988 102.008 139.744C103.109 138.61 104.683 138.116 106.346 138.519C108.659 139.077 110.246 142.044 109.513 144.441C109.508 144.465 109.502 144.485 109.494 144.509C109.574 144.55 109.657 144.591 109.735 144.641C111.198 145.549 111.928 147.878 110.921 149.444C110.152 150.637 109.657 151.794 109.854 153.187C110.092 154.861 110.996 156.354 111.865 157.731C112.863 159.315 112.15 161.621 110.678 162.534C109.666 163.163 108.529 163.125 107.577 162.617C107.367 163.366 107.123 164.1 106.852 164.826C106.902 165.073 106.932 165.337 106.935 165.622C106.988 170.842 106.136 176.018 103.627 180.284C121.176 170.681 110.739 137.646 110.739 137.646L110.736 137.638Z" fill="#B77B53"/>
<path d="M70.6825 146.301C70.6825 146.301 62.1844 140.925 68.6853 132.643C75.1861 124.359 100.57 118.983 111.563 127.356C122.557 135.728 110.968 141.357 110.968 141.357C110.968 141.357 70.6466 147.773 70.6825 146.301Z" fill="#AD5A1E"/>
<path d="M114.645 130.299C112.081 132.596 108.949 134.197 105.771 135.464C103.632 137.646 101.035 139.159 98.1881 140.134C97.9806 140.287 97.7565 140.408 97.5131 140.493C94.9155 141.906 92.1741 143.022 89.3386 143.763C85.4824 144.77 81.3744 145.528 77.3909 145.196C73.9883 144.914 69.1196 144.362 67.5151 140.646C67.4819 140.569 67.4542 140.493 67.4238 140.414C67.0199 140.176 66.6354 139.899 66.2758 139.567C66.7184 143.795 70.6798 146.301 70.6798 146.301C70.6466 147.77 110.966 141.357 110.966 141.357C110.966 141.357 119.89 137.021 114.639 130.299H114.645Z" fill="#7C4016"/>
<path d="M87.7756 125.593C87.7756 125.593 87.499 118.542 85.5626 116.486C83.6262 114.43 86.9457 111.492 88.3289 116.486C89.7121 121.48 89.4354 125.299 89.1588 126.18C88.8822 127.062 87.7756 125.593 87.7756 125.593Z" fill="#AD5A1E"/>
<path d="M88.2127 119.944C88.127 119.121 88.0716 118.325 87.6761 117.597C87.1366 116.607 86.5612 115.875 86.1712 114.773C86.0522 114.436 86.0246 114.083 86.0688 113.742C85.0729 113.833 84.4478 115.302 85.5626 116.486C87.499 118.542 87.7756 125.593 87.7756 125.593C87.7756 125.593 88.6858 126.8 89.062 126.36C88.7909 124.218 88.434 122.091 88.2127 119.944Z" fill="#7C4016"/>
<path d="M134.803 188.46C161.636 191.691 185.703 172.302 161.083 138.225C153.061 123.83 180.171 124.712 170.212 142.632C169.105 145.276 169.935 145.569 171.042 144.688C235.221 92.6909 107.14 58.0261 145.038 148.213C145.038 148.213 152.784 168.19 140.612 176.709C128.441 185.228 127.057 184.347 134.803 188.46Z" fill="#944D1A"/>
<path d="M163.927 177.067C159.432 181.547 153.158 184.976 146.895 183.001C146.687 182.937 146.496 182.852 146.322 182.758C145.113 182.708 143.926 182.47 142.864 181.879C140.856 180.76 140.206 178.859 140.419 176.844C128.427 185.219 127.096 184.37 134.8 188.463C152.961 190.648 169.852 182.476 171.244 166.398C171.211 166.298 171.172 166.201 171.136 166.101C169.587 170.275 166.945 174.062 163.927 177.07V177.067Z" fill="#633311"/>
<path d="M172.406 97.1561C168.959 95.558 165.274 94.6826 161.506 95.0087C156.181 95.4669 151.628 98.4223 148.206 102.532C148.236 102.688 148.256 102.838 148.261 102.984C153.772 97.112 162.015 96.3776 169.271 98.4546C173.108 99.5533 176.951 101.401 180.292 103.93C179.203 100.555 175.258 98.481 172.408 97.1591L172.406 97.1561Z" fill="#FAB380"/>
<path d="M176.074 132.229C176.063 132.115 176.054 132.032 176.049 131.98C176.03 131.856 176.013 131.736 175.994 131.612C175.938 131.286 175.875 130.963 175.806 130.64C175.642 129.885 175.438 129.139 175.191 128.41C175.131 128.228 175.064 128.046 174.998 127.867C174.859 127.541 174.713 127.218 174.555 126.903C174.22 126.23 173.836 125.602 173.438 124.967C173.404 124.917 173.379 124.876 173.36 124.841C173.335 124.814 173.302 124.779 173.261 124.729C172.992 124.421 172.738 124.104 172.453 123.81C172.242 123.592 172.021 123.39 171.803 123.184C171.656 123.072 171.509 122.967 171.357 122.864C171.114 122.699 170.862 122.547 170.608 122.403C170.511 122.35 170.408 122.3 170.312 122.25C170.267 122.232 170.209 122.212 170.135 122.179C169.85 122.1 169.576 121.991 169.291 121.921C169.136 121.883 168.978 121.85 168.821 121.818C168.801 121.818 168.782 121.815 168.76 121.812C168.447 121.806 168.137 121.78 167.825 121.786C167.673 121.789 166.381 121.953 167.147 121.821C166.513 121.93 165.88 121.909 165.293 121.756C165.277 121.759 165.26 121.765 165.244 121.768C164.281 122.256 163.269 122.608 162.231 122.87C160.187 123.945 158.516 125.611 157.44 127.87C157.573 129.9 157.91 131.9 158.436 133.848C159.827 137.32 162.112 140.514 164.558 143.495C164.571 143.507 164.585 143.522 164.602 143.533C163.562 141.806 162.392 140.038 161.083 138.225C153.061 123.83 180.171 124.712 170.212 142.632C169.105 145.276 169.935 145.569 171.042 144.688C171.825 144.053 172.577 143.422 173.305 142.793C174.19 141.251 174.967 139.656 175.512 137.961C175.725 137.3 175.905 136.636 176.027 135.948C176.043 135.848 176.057 135.749 176.074 135.649C176.079 135.596 176.085 135.525 176.096 135.428C176.107 135.114 176.137 134.8 176.149 134.482C176.171 133.725 176.115 132.981 176.077 132.226L176.074 132.229Z" fill="#633311"/>
<path d="M144.939 172.029C144.731 172.382 144.513 172.728 144.275 173.066C144.474 173.116 144.662 173.192 144.837 173.284C144.853 172.869 144.897 172.449 144.939 172.029Z" fill="#633311"/>
<path d="M107.154 140.387C109.173 140.387 110.811 138.588 110.811 136.368C110.811 134.149 109.173 132.35 107.154 132.35C105.134 132.35 103.497 134.149 103.497 136.368C103.497 138.588 105.134 140.387 107.154 140.387Z" stroke="#3E655D" stroke-width="1.51405" stroke-miterlimit="10"/>
<path d="M106.877 140.093C108.897 140.093 110.534 138.294 110.534 136.075C110.534 133.855 108.897 132.056 106.877 132.056C104.857 132.056 103.22 133.855 103.22 136.075C103.22 138.294 104.857 140.093 106.877 140.093Z" stroke="#65847D" stroke-width="1.51405" stroke-miterlimit="10"/>
<path d="M123.461 128.237C123.461 128.237 108.246 122.068 103.544 138.813C102.161 139.988 103.267 146.451 111.289 147.919C119.312 149.388 97.7344 156.732 95.798 159.964C93.8615 163.195 109.906 163.783 109.906 163.783C109.906 163.783 110.459 173.477 107.693 176.415C107.14 182.878 119.035 189.635 119.035 189.635C119.035 189.635 115.439 185.228 104.374 191.691C99.3942 196.979 124.844 191.691 131.207 190.516C138.399 189.047 161.36 167.014 129.547 145.863C129.547 145.863 124.844 142.044 128.717 131.762C132.59 121.48 124.568 123.243 123.461 128.237Z" fill="#F7802B"/>
<path d="M116.852 191.054C118.855 190.595 120.88 189.899 122.521 188.742C121.989 188.512 121.467 188.266 120.966 188.001C118.269 186.858 115.768 185.287 113.785 183.128C113.071 182.608 112.41 181.961 111.895 181.215C111.486 180.763 111.121 180.275 110.814 179.743C110.263 178.797 110.022 177.496 110.155 176.312C110.163 176.051 110.208 175.801 110.293 175.566C110.653 174.212 111.591 173.184 113.22 173.325C112.938 171.747 112.836 170.122 112.731 168.533C112.595 166.486 112.512 164.626 111.596 162.89C111.408 162.531 111.278 162.153 111.201 161.768C109.184 161.903 107.179 162.285 105.14 162.082C103.754 161.944 102.39 161.662 101.035 161.318C100.274 161.124 99.5131 160.886 98.7247 160.977C98.4149 161.013 96.9709 161.386 97.0705 161.87C100.689 163.442 109.903 163.78 109.903 163.78C109.903 163.78 110.457 173.474 107.69 176.412C107.267 181.356 114.13 186.474 117.378 188.603C115.375 187.86 111.367 187.602 104.371 191.688C102.542 193.63 104.819 194.144 108.744 193.962C110.578 191.744 114.23 191.653 116.852 191.054Z" fill="#C66622"/>
<path d="M137.899 185.675C136.405 187.097 134.258 188.927 132.026 189.867C131.73 190.102 131.425 190.322 131.118 190.531C131.146 190.525 131.179 190.519 131.207 190.513C134.109 189.92 139.578 185.977 142.978 180.093C141.384 182.053 139.716 183.942 137.899 185.672V185.675Z" fill="#C66622"/>
<path d="M125.932 125.358C125.882 125.382 125.832 125.399 125.782 125.429C124.803 125.969 123.912 127.367 123.699 128.669C123.843 128.722 123.99 128.778 124.131 128.83C124.18 128.851 124.227 128.874 124.277 128.898C125.229 128.792 125.688 127.738 125.945 126.803C125.934 126.322 125.926 125.837 125.934 125.358H125.932Z" fill="#FAB380"/>
<path d="M106.891 145.135C106.612 145.331 106.338 145.528 106.072 145.728C106.573 146.113 107.148 146.471 107.796 146.791C107.458 146.263 107.156 145.71 106.894 145.135H106.891Z" fill="#FAB380"/>
<path d="M128.106 147.919C128.311 148.809 129.434 149.606 130.075 150.128C131.282 151.116 132.604 151.926 133.804 152.919C136.496 155.14 138.695 158.486 140.471 161.547C142.344 164.776 143.229 168.081 143.661 171.823C143.727 172.399 143.78 172.975 143.813 173.551C144.173 170.551 144.059 167.517 143.478 164.588C142.648 161.583 141.495 158.642 139.522 156.28C139.412 156.148 139.34 156.01 139.296 155.869C137.824 154.041 136.258 152.305 134.54 150.71C133.603 149.841 132.609 148.997 131.555 148.248C131.417 148.237 131.273 148.19 131.129 148.104C130.283 147.608 129.431 147.006 128.482 146.744C128.161 146.947 128.023 147.558 128.106 147.919Z" fill="#FAB380"/>
<path d="M109.63 138.813C110.393 138.813 111.013 138.155 111.013 137.344C111.013 136.533 110.393 135.875 109.63 135.875C108.866 135.875 108.246 136.533 108.246 137.344C108.246 138.155 108.866 138.813 109.63 138.813Z" fill="#190D04"/>
<path d="M108.938 137.05C109.167 137.05 109.353 136.853 109.353 136.609C109.353 136.366 109.167 136.169 108.938 136.169C108.709 136.169 108.523 136.366 108.523 136.609C108.523 136.853 108.709 137.05 108.938 137.05Z" fill="#FEF2EA"/>
<path d="M103.267 141.457C103.267 141.457 100.882 139.45 103.544 138.813C104.645 139.236 103.267 141.457 103.267 141.457Z" fill="#633311"/>
<path d="M107.417 146.451C107.417 146.451 109.353 148.213 109.906 143.807C109.906 139.694 106.587 144.982 105.757 144.688C104.927 144.394 106.033 145.863 107.417 146.451Z" fill="#7C4016"/>
<path d="M110.241 141.163C112.678 141.163 114.653 138.993 114.653 136.316C114.653 133.639 112.678 131.468 110.241 131.468C107.804 131.468 105.829 133.639 105.829 136.316C105.829 138.993 107.804 141.163 110.241 141.163Z" stroke="#3E655D" stroke-width="1.83017" stroke-miterlimit="10"/>
<path d="M109.964 140.869C112.401 140.869 114.377 138.699 114.377 136.022C114.377 133.345 112.401 131.175 109.964 131.175C107.527 131.175 105.552 133.345 105.552 136.022C105.552 138.699 107.527 140.869 109.964 140.869Z" stroke="#65847D" stroke-width="1.83017" stroke-miterlimit="10"/>
<path d="M103.544 137.344C103.544 137.344 104.374 136.756 105.48 137.344" stroke="#65847D" stroke-width="1.38095" stroke-miterlimit="10" stroke-linecap="round"/>
<path d="M71.1777 148.213C71.1777 148.213 71.731 157.614 75.0506 168.483C75.0506 168.483 72.2842 151.151 73.1141 149.388C73.1141 148.801 71.1777 148.213 71.1777 148.213Z" fill="#B77B53"/>
</g>
<path d="M190.511 183.334C190.666 182.832 190.806 182.419 190.914 182.043C190.902 181.914 190.89 181.783 190.881 181.654C190.753 179.646 191.054 177.589 191.201 175.586C191.353 173.545 191.497 171.501 191.613 169.456C191.843 165.373 191.954 161.281 191.751 157.195C191.553 153.232 191.054 149.146 192.578 145.359C193.507 143.048 196.082 141.434 198.502 142.947C198.908 143.201 199.264 143.482 199.577 143.784C200.563 143.022 201.884 142.696 203.132 143.039C205.427 143.67 206.29 145.843 205.95 148.004C204.82 155.166 205.576 162.54 206.218 169.713C206.266 170.242 206.314 170.771 206.359 171.303C206.899 171.979 207.222 172.81 207.138 173.7C207.118 173.928 207.106 174.149 207.091 174.373C207.109 174.496 207.127 174.618 207.138 174.744C207.237 175.855 207.667 177.311 208.247 178.429C208.557 179.03 208.776 179.771 208.802 180.506C209.358 182.099 209.627 183.887 209.218 185.525C209.373 186.15 209.352 186.819 209.086 187.498C208.973 187.782 208.862 188.068 208.749 188.352C208.097 190.011 206.702 191.258 204.979 191.315C203.978 192.612 202.654 193.592 200.865 193.894C198.221 194.342 195.783 193.326 193.848 191.658C193.845 191.658 193.842 191.658 193.839 191.658C191.616 191.769 189.868 189.718 189.806 187.623C189.764 186.161 190.075 184.727 190.508 183.34L190.511 183.334Z" fill="#311A09"/>
<path d="M149.01 147.03C150.118 144.57 152.239 143.027 154.677 142.05C155.532 141.706 156.455 141.817 157.276 142.197C157.999 141.838 158.722 141.479 159.442 141.12C159.46 140.538 159.615 139.952 159.911 139.405C159.696 138.927 159.57 138.386 159.556 137.782C159.55 137.522 159.562 137.435 159.573 137.417C159.559 137.369 159.541 137.301 159.517 137.205C159.517 137.205 159.254 136.35 159.32 136.449C159.17 136.123 158.973 135.812 158.788 135.51C158.695 135.361 158.65 135.274 158.632 135.229C158.591 135.202 158.516 135.143 158.384 135.02C158.313 134.954 157.706 134.41 157.808 134.464C157.563 134.288 157.297 134.135 157.031 133.992C157.103 134.034 156.652 133.824 156.496 133.777C156.299 133.714 156.099 133.66 155.896 133.618C156.287 133.645 156.231 133.642 155.732 133.606C153.557 133.46 151.699 131.858 151.699 129.571C151.699 127.491 153.548 125.401 155.732 125.536C157.608 125.65 159.403 125.76 161.175 125.727C161.106 125.455 161.058 125.177 161.031 124.896C160.762 124.609 160.488 124.325 160.207 124.095C160.09 124.003 159.884 123.859 159.675 123.725C157.611 123.955 155.6 123.62 154.005 121.943C152.144 119.988 152.607 115.627 155.785 115.2C157.36 114.988 158.833 115.054 160.225 115.373C160.389 115.323 160.553 115.275 160.718 115.224C161.951 114.859 163.176 114.462 164.389 114.022C165.53 113.61 166.651 113.159 167.756 112.671C167.699 112.632 167.639 112.594 167.583 112.552C166.095 112.023 164.81 110.893 164.571 109.252C164.332 107.611 164.595 106.075 166.017 105.011C166.45 104.688 166.922 104.458 167.415 104.323C167.391 104.308 167.37 104.29 167.353 104.278C167.293 104.257 167.185 104.21 167.003 104.12C164.075 102.685 164.715 98.7367 167.003 97.1525C168.297 96.2588 169.811 95.8494 171.323 95.5056C171.98 95.3562 172.634 95.1918 173.277 94.9885C173.56 94.8989 173.841 94.7972 174.122 94.7016C174.63 94.5282 174.313 94.6448 174.606 94.5133C176.482 93.6704 177.802 92.7767 178.839 91.4765C178.068 91.33 177.339 90.9713 176.796 90.3945C173.417 86.8286 170.038 83.2628 166.66 79.6969C166.182 79.2784 165.739 78.7763 165.342 78.1546C162.872 74.2988 168.527 69.9409 171.675 73.2646L172.111 73.7249C172.509 73.8355 172.909 73.9312 173.315 74.0119C174.591 74.2719 175.819 74.5529 176.99 75.1596C177.175 75.2553 177.354 75.3629 177.531 75.4765C177.507 74.792 177.498 74.1045 177.566 73.4469C177.543 73.2855 177.522 73.1241 177.498 72.9657C177.372 72.1019 177.438 71.2351 177.704 70.4639C177.247 69.4058 176.802 68.3418 176.392 67.2627C176.034 66.3242 175.595 65.3139 175.26 64.2827C175.212 64.2648 175.165 64.2469 175.114 64.2259C173.169 63.4458 172.07 62.3339 171.305 60.3731C170.8 59.0849 171.386 57.3722 172.407 56.3709C172.15 55.2889 172.01 54.18 171.947 53.0621C171.861 51.472 173.032 49.9625 174.427 49.3737C175.974 48.7191 177.593 49.1107 178.833 50.2076C179.953 51.197 180.933 52.3268 181.814 53.5284C182.508 53.7974 183.12 54.2637 183.589 54.8644C183.664 54.8555 183.732 54.8465 183.786 54.8405C185.035 54.6911 186.254 54.8196 187.431 55.262C188.031 55.4891 188.59 55.7731 189.122 56.1019C189.059 55.6356 189.008 55.1873 188.972 54.7688C188.951 54.5267 188.966 54.2846 189.005 54.0485C187.496 50.6081 185.859 47.2216 184.112 43.8919C183.655 43.0161 183.511 42.0357 183.673 41.1151C183.216 40.5412 182.797 39.9434 182.454 39.3128C181.181 36.9724 180.258 34.366 179.189 31.927C178.313 29.9333 178.603 27.596 180.634 26.4063C182.346 25.405 185.274 25.8474 186.152 27.853C186.741 29.1951 187.329 30.5371 187.918 31.8792C188.461 33.1226 188.904 34.5633 189.671 35.6871C190.457 36.8379 191.562 37.9588 192.668 39.0527C192.417 38.2308 192.231 37.3968 192.24 36.524C192.246 36.001 192.315 35.5138 192.435 35.0594C191.631 33.3886 190.944 31.661 190.37 29.8975C190 28.7587 190.257 27.581 190.887 26.6425C190.55 26.0088 190.224 25.3722 189.955 24.6907C189.145 22.6402 189.104 20.2849 190.185 18.3122C190.684 17.4005 191.395 16.5696 192.273 16.0047C192.402 15.924 193.161 15.6221 193.946 15.3621C194.158 14.5371 194.439 13.7659 194.836 12.9888C194.965 12.7407 195.126 12.5165 195.311 12.3103C195.32 12.2236 195.326 12.134 195.335 12.0473C195.344 11.9217 195.35 11.7962 195.359 11.6707C195.368 11.5212 195.386 11.3748 195.41 11.2283C195.452 10.771 195.497 10.3167 195.538 9.85934C195.586 9.07025 195.658 8.27518 195.757 7.47413C195.757 7.46218 195.757 7.44723 195.76 7.43528C195.804 7.07959 195.849 6.7239 195.903 6.36223C195.918 6.25463 195.945 6.153 195.972 6.05138C195.978 5.71362 195.99 5.37288 195.996 5.03513C196.04 2.85616 197.818 1 200.029 1C202.239 1 204.106 2.84719 204.061 5.03513C204.023 6.93313 203.978 8.82814 203.927 10.7261C204.22 11.9606 204.456 13.204 204.656 14.4564C205.209 14.8061 205.696 15.2694 206.072 15.7895C208.462 19.0983 210.398 22.9062 209.385 27.0998C208.994 28.7138 208.115 30.1665 207.13 31.4786C206.795 31.921 206.448 32.3544 206.111 32.7968C205.944 33.012 205.938 33.018 206.096 32.8147C206.012 32.9283 205.929 33.0389 205.845 33.1525C205.71 33.3408 205.579 33.5321 205.451 33.7234C205.346 34.6948 204.925 35.6034 204.238 36.273C204.247 36.5539 204.262 36.8319 204.274 37.1129C204.489 36.8469 204.707 36.5868 204.937 36.3357C206.678 34.4228 209.035 33.018 210.147 30.7224C210.368 30.2024 210.586 29.6853 210.807 29.1652C211.581 27.3419 214.207 26.7949 215.844 27.5153C217.558 28.2685 218.873 30.3548 218.18 32.2767C217.947 32.9163 217.69 33.5321 217.406 34.1269C216.426 36.539 215.539 39.0737 214.317 41.3453C213.579 42.7172 212.265 43.9218 210.708 44.2446C210.598 44.5644 210.481 44.8842 210.362 45.2011C209.639 47.1349 208.71 49.6845 207.437 52.007C207.658 52.6496 207.981 53.2863 208.426 53.9528C208.704 54.3653 208.976 54.7718 209.236 55.1813C209.242 55.1753 209.248 55.1663 209.251 55.1604C209.654 54.6164 210.066 54.0783 210.487 53.5463C211.318 52.5002 212.205 51.5048 213.155 50.5663C215.061 48.6922 217.209 47.0423 219.467 45.6165C222.249 43.862 226.715 46.836 225.391 50.1747C225.072 50.9818 224.689 51.7141 224.256 52.3896C224.408 52.814 224.498 53.2892 224.498 53.8243C224.498 57.1062 224.603 60.7318 222.195 63.2994C221.651 63.8792 221.003 64.3694 220.298 64.74C220.226 64.7759 219.016 65.3588 218.269 65.6098C218.243 65.6786 218.198 65.7264 218.222 65.6248C218.013 66.2315 217.86 66.8592 217.642 67.466C217.29 68.4464 216.835 69.2803 216.304 70.0156C216.976 70.0096 217.642 70.0156 218.287 70.0305C223.82 70.1322 229.353 71.1962 234.509 73.2018C236.191 73.8564 237.469 75.1865 237.469 77.0935C237.469 78.7733 236.23 80.6444 234.509 80.9851L228.217 82.2286C227.542 82.3631 226.861 82.4826 226.186 82.6201C226.159 83.0954 226.058 83.5587 225.872 83.9771C225.627 84.5361 225.206 85.104 224.686 85.5583C227.082 86.993 229.819 88.6638 229.819 91.6558C229.819 91.8949 229.798 92.1281 229.756 92.3582C229.926 92.6213 230.096 92.8813 230.264 93.1443C232.561 96.6923 228.131 100.467 224.746 98.665C222.619 97.5322 220.498 96.3784 218.371 95.2456C218.798 95.9869 219.219 96.7371 219.632 97.4873C221.069 100.106 222.431 102.685 224.217 104.888C226.04 105.519 227.928 106.131 229.583 107.1C230.682 107.746 231.751 108.541 232.692 109.464C232.985 109.455 233.299 109.446 233.648 109.44C236.433 109.404 238.282 110.944 240.206 112.752C241.941 114.381 243.674 116.013 245.41 117.642C246.805 118.951 246.909 121.199 245.897 122.747C246.778 123.659 247.238 125.043 247.059 126.223C246.751 128.277 245.153 129.589 243.098 129.723C241.616 129.819 240.239 129.529 238.954 128.994C238.228 128.845 237.502 128.686 236.779 128.519C236.719 128.603 236.666 128.686 236.603 128.767C235.695 129.933 234.545 130.647 233.29 131.003C233.412 131.092 233.487 131.152 233.395 131.116C235.907 132.136 238.593 132.246 241.024 133.576C242.339 134.294 243.54 135.265 244.555 136.395C246.213 136.843 247.662 138.12 248.394 140C248.427 140.086 248.448 140.176 248.475 140.263C248.747 140.284 249.018 140.325 249.281 140.382C251.812 140.932 253.506 143.195 253.41 145.786C253.231 150.616 247.985 152.072 244.012 151.51C240.732 151.047 237.876 149.346 234.999 147.813C232.606 146.54 230.383 145.628 227.718 146.339C226.846 146.572 226.141 146.952 225.385 147.364C226.831 148.835 228.152 150.428 229.263 152.231C231.324 155.578 227.139 160.011 223.745 157.751C222.195 156.72 220.686 155.626 219.219 154.481C218.906 154.918 218.499 155.285 217.983 155.524C215.136 156.84 212.071 157.309 209.003 156.442C207.634 156.053 206.344 155.42 205.206 154.574C204.814 154.281 204.429 153.979 204.05 153.671C204.3 153.845 204.229 153.794 203.834 153.516C203.805 153.492 203.781 153.474 203.754 153.453C202.711 153.65 200.751 153.818 199.338 153.42C197.901 153.014 196.503 152.326 195.117 151.773C194.642 151.585 193.997 151.426 193.474 151.193C192.246 151.929 190.827 152.174 189.414 151.767C188.706 151.564 188.103 151.199 187.55 150.757C185.582 153.088 183.287 155.324 179.897 154.523C179.819 154.505 179.741 154.481 179.664 154.46C178.173 156.119 176.144 157.022 173.901 156.98C171.628 156.935 168.828 156.254 167.598 154.149C167.203 153.477 166.985 152.792 166.913 152.129C165.829 152.033 164.771 151.74 163.75 151.122C162.824 150.563 162.104 149.848 161.587 149.029C161.199 149.221 160.81 149.415 160.422 149.606L154.543 152.523C150.764 154.398 147.37 150.679 149.025 147.003L149.01 147.03ZM226.105 81.6009C226.41 81.284 226.341 80.7968 225.03 79.5923C225.6 80.1154 225.956 80.8357 226.105 81.6009Z" fill="#3E655D" stroke="#3E655D" stroke-width="0.669663" stroke-miterlimit="10"/>
<path d="M199.957 9.04037C200.396 13.8676 202.069 18.3809 202.965 23.1155C203.028 23.4413 203.073 23.7671 203.135 24.0929C203.159 24.607 203.231 25.1211 203.249 25.6352C203.255 25.8235 203.255 26.0088 203.252 26.1941C202.424 25.1868 201.164 24.5442 199.763 24.4814C197.352 24.3738 195.255 26.6245 195.273 28.9739C195.279 29.8018 195.326 30.6298 195.356 31.4577C195.371 31.8583 195.383 32.2588 195.377 32.6593C195.371 33.0538 195.171 34.2674 195.434 32.7071C195.022 35.1431 196.022 37.3221 198.412 38.177C198.138 38.4938 197.875 38.8226 197.615 39.1573C197.086 38.9421 196.536 38.8136 196.013 38.7927C194.896 38.7419 193.618 39.3307 192.838 40.1078C191.924 41.0225 191.673 42.0507 191.523 43.2851C191.467 43.7544 191.44 44.2267 191.425 44.6989C188.408 40.057 183.933 36.2371 179.568 32.8476C179.44 32.5457 179.311 32.2438 179.183 31.9449C178.307 29.9513 178.597 27.6139 180.628 26.4243C182.34 25.423 185.268 25.8653 186.146 27.871C186.735 29.213 187.323 30.5551 187.912 31.8971C188.455 33.1405 188.898 34.5812 189.665 35.7051C190.451 36.8558 191.556 37.9767 192.662 39.0707C192.411 38.2487 192.225 37.4148 192.234 36.542C192.24 36.0189 192.309 35.5317 192.429 35.0774C191.625 33.4065 190.938 31.6789 190.364 29.9154C189.994 28.7766 190.251 27.599 190.881 26.6604C190.544 26.0268 190.218 25.3901 189.949 24.7086C189.14 22.6582 189.098 20.3029 190.179 18.3301C190.678 17.4185 191.389 16.5876 192.267 16.0226C192.396 15.9419 193.155 15.64 193.94 15.38C194.152 14.555 194.433 13.7839 194.83 13.0068C194.959 12.7587 195.12 12.5345 195.305 12.3283C195.314 12.2416 195.32 12.1519 195.329 12.0652C195.338 11.9397 195.344 11.8141 195.353 11.6886C195.362 11.5392 195.38 11.3927 195.404 11.2462C195.446 10.7889 195.491 10.3346 195.533 9.87729C195.58 9.08819 195.652 8.29313 195.751 7.49208C195.751 7.48012 195.751 7.46518 195.754 7.45322C195.798 7.09753 195.843 6.74184 195.897 6.38018C195.912 6.27257 195.939 6.17095 195.966 6.06932C195.972 5.73157 195.984 5.39082 195.99 5.05307C196.034 2.8741 197.812 1.01794 200.023 1.01794C202.006 1.01794 203.796 2.59015 204.029 4.55092C201.89 4.72129 199.766 6.8345 199.963 9.03738L199.957 9.04037Z" fill="#48826D" stroke="#3E655D" stroke-width="0.669663" stroke-miterlimit="10"/>
<path d="M155.729 125.548C157.605 125.661 159.4 125.772 161.172 125.739C161.103 125.467 161.055 125.189 161.028 124.908C160.759 124.621 160.485 124.337 160.204 124.107C160.087 124.015 159.881 123.871 159.672 123.737C157.608 123.967 155.597 123.632 154.002 121.955C152.141 120 152.604 115.639 155.782 115.212C157.357 115 158.83 115.065 160.222 115.385C160.386 115.334 160.55 115.287 160.715 115.236C161.181 115.098 161.641 114.952 162.104 114.805C163.741 116.046 165.686 116.913 167.69 117.439C170.836 118.267 174.14 118.35 177.238 119.388C179.547 120.159 182.146 118.497 182.761 116.249C183.428 113.819 181.925 111.491 179.625 110.723C176.87 109.802 173.955 109.629 171.132 109.025C170.433 108.875 169.737 108.702 169.055 108.478C168.831 108.403 167.878 107.934 168.837 108.433C168.536 108.275 168.228 108.14 167.935 107.967C167.705 107.832 167.12 107.303 167.595 107.76C167.4 107.575 167.206 107.39 167.012 107.204C166.985 107.178 166.961 107.16 166.94 107.139C166.925 107.097 166.904 107.049 166.878 106.989C166.725 106.649 166.522 106.329 166.367 105.988C166.229 105.683 166.047 105.414 165.835 105.172C165.892 105.124 165.949 105.076 166.011 105.028C166.444 104.706 166.916 104.476 167.409 104.341C167.385 104.326 167.365 104.308 167.347 104.296C167.287 104.275 167.179 104.227 166.997 104.138C164.069 102.703 164.709 98.7546 166.997 97.1705C168.291 96.2768 169.805 95.8673 171.317 95.5235C171.974 95.3741 172.628 95.2097 173.271 95.0064C173.554 94.9168 173.835 94.8151 174.116 94.7195C174.624 94.5461 174.307 94.6627 174.6 94.5312C175.395 94.1755 176.085 93.8079 176.7 93.4043C177.901 93.2967 179.096 93.1742 180.309 93.2848C182.537 93.488 184.446 91.4286 184.718 89.3872C185.017 87.1693 183.655 85.095 181.501 84.4583C179.673 83.9173 177.793 83.6573 175.914 83.3554C175.018 83.2089 174.122 83.0565 173.241 82.8353C172.318 82.6051 171.562 82.3391 171.087 82.097C170.229 81.6636 169.297 81.4843 168.398 81.556C167.816 80.9433 167.236 80.3275 166.654 79.7148C166.176 79.2963 165.733 78.7942 165.336 78.1725C162.866 74.3167 168.521 69.9588 171.669 73.2825L172.105 73.7428C172.503 73.8534 172.903 73.9491 173.309 74.0298C173.405 74.0477 173.501 74.0686 173.593 74.0895C174.238 74.7292 174.92 75.33 175.634 75.8979C176.288 76.418 176.972 76.9859 177.677 77.4492C178.265 78.1008 179.012 78.5969 179.813 78.8181C182.301 79.5026 184.485 77.9513 185.337 75.6797C186.131 73.5575 184.868 71.3337 183.096 70.1949C181.94 69.4506 181.587 69.2683 180.718 68.4792C179.714 67.5706 178.803 66.5723 177.952 65.5231C177.919 65.4843 177.707 65.2093 177.608 65.0867C177.516 64.9612 177.289 64.6533 177.256 64.6115C176.823 64.0227 176.398 63.4308 175.974 62.836C174.884 61.3087 173.166 60.4 171.4 60.663C171.362 60.5734 171.326 60.4837 171.287 60.391C170.782 59.1028 171.368 57.3901 172.389 56.3888C172.132 55.3068 171.992 54.1979 171.929 53.08C171.843 51.4899 173.014 49.9804 174.409 49.3916C175.956 48.737 177.575 49.1286 178.815 50.2255C179.935 51.2149 180.915 52.3447 181.797 53.5463C182.49 53.8153 183.102 54.2816 183.571 54.8823C183.646 54.8734 183.714 54.8644 183.768 54.8584C184.33 54.7897 184.885 54.7837 185.435 54.8315C185.979 55.5937 186.558 56.332 187.201 57.0165C188.557 58.4631 190.962 58.7023 192.644 57.7189C193.48 57.2287 194.063 56.5293 194.412 55.7252C194.884 56.1497 195.443 56.4785 196.07 56.6817C196.931 57.6113 198.218 58.1792 199.521 58.3316C202.194 58.6485 205.032 57.3124 206.326 54.9182C207.18 55.0976 208.1 55.0378 208.94 54.7628C209.035 54.9063 209.131 55.0527 209.224 55.1962C209.23 55.1902 209.236 55.1812 209.239 55.1753C209.448 54.8943 209.663 54.6193 209.878 54.3413C210.499 53.9737 211.025 53.4656 211.369 52.8199C211.497 52.5778 211.608 52.3357 211.709 52.0936C212.172 51.5735 212.647 51.0684 213.143 50.5812C215.049 48.7071 217.197 47.0572 219.455 45.6315C221.179 44.5435 223.548 45.2758 224.788 46.7792C222.789 46.7314 220.722 48.0346 220.271 50.0581C219.957 51.4689 219.647 52.8797 219.255 54.2726C219.082 54.8883 218.882 55.4921 218.679 56.0989C218.634 56.2364 218.589 56.3559 218.559 56.4366C218.47 56.6339 218.38 56.8342 218.278 57.0284C218.018 57.5366 217.666 57.9909 217.4 58.4871C217.379 58.508 217.355 58.5259 217.328 58.5528C217.119 58.7471 216.919 58.9653 216.713 59.1656C216.671 59.2074 216.629 59.2433 216.594 59.2762C216.477 59.3509 216.36 59.4256 216.241 59.5003C215.097 58.8308 213.693 58.5259 212.39 58.8846C211.339 59.1745 210.359 59.859 209.621 60.6391C209.34 60.935 209.089 61.2847 208.85 61.6195C208.826 61.6195 208.799 61.6195 208.776 61.6195C208.008 61.6195 207.243 61.5328 206.478 61.5239C204.483 61.5029 202.421 61.9214 200.772 63.0901C198.786 64.4949 197.845 66.9877 199.162 69.2384C200.312 71.2052 203.327 72.2543 205.307 70.8495C205.627 70.6701 205.755 70.5775 205.702 70.5715C205.842 70.5356 205.905 70.5147 205.884 70.5087C206.311 70.4848 206.75 70.5207 207.168 70.5386C208.384 70.5924 209.525 70.6014 210.732 70.437C212.068 70.2577 213.263 69.7944 214.293 68.9844C215.234 69.2055 216.13 69.1219 217.012 68.8857C216.794 69.2952 216.552 69.6778 216.292 70.0365C216.964 70.0305 217.63 70.0365 218.275 70.0514C223.808 70.1531 229.341 71.2171 234.497 73.2227C235.976 73.7966 237.141 74.8966 237.404 76.4508C236.068 75.6797 234.079 75.6946 232.672 76.5315C231.064 75.4705 229.221 74.8039 227.264 75.3419C226.207 75.6319 225.323 76.1759 224.594 76.8783C223.019 75.7903 220.8 75.5332 219.228 76.5764C217.591 75.6737 215.67 75.5093 213.773 76.6122C212.587 77.2997 211.82 78.2382 211.324 79.3143C210.989 79.4159 210.67 79.5564 210.389 79.7447C209.552 80.3036 208.874 80.9433 208.292 81.6726C207.44 80.5697 206.081 79.8344 204.686 79.8344C203.912 79.8344 203.198 80.0316 202.58 80.3724C201.8 78.9526 200.22 77.9603 198.592 77.9603C196.073 77.9603 194.209 80.0197 194.102 82.4527C194.003 84.6436 195.828 86.5327 197.91 86.8824C197.421 87.3875 197.044 88.0182 196.841 88.7625C196.22 91.0251 197.612 93.7511 199.978 94.2891C202.953 94.9646 206.362 94.1665 209.17 93.1114C210.472 92.6212 211.682 92.0653 212.686 91.1417C214.837 92.3731 217.803 91.6827 218.98 89.5336C220.119 89.8744 221.442 89.7877 222.514 89.2795C222.828 89.5605 223.163 89.8295 223.518 90.0836C225.388 91.4197 227.665 90.6634 229.057 89.151C229.526 89.8803 229.816 90.7083 229.816 91.6767C229.816 91.9158 229.795 92.149 229.753 92.3791C229.923 92.6422 230.093 92.9022 230.261 93.1652C232.543 96.6892 228.182 100.44 224.806 98.7158C223.984 97.5202 222.634 96.7849 221.161 96.764C220.229 96.2618 219.3 95.7627 218.365 95.2635C218.715 95.8673 219.052 96.477 219.39 97.0868C218.051 97.6248 217.203 98.7546 216.812 100.15C216.579 100.691 216.429 101.286 216.369 101.917C216.244 103.235 216.328 104.535 216.456 105.839C216.145 106.015 215.85 106.227 215.575 106.478C214.643 107.339 213.905 108.391 213.179 109.425C213.089 109.554 212.465 110.316 212.593 110.199C212.48 110.322 212.369 110.448 212.247 110.564C212.19 110.6 212.118 110.645 212.032 110.702C210.935 111.374 210.204 112.459 209.938 113.646C209.812 113.697 209.687 113.753 209.564 113.816C208.874 112.199 207.159 111.027 205.391 111.027C205.367 111.027 205.343 111.03 205.316 111.03C205.149 110.779 204.988 110.528 204.835 110.271C204.725 110.083 204.623 109.889 204.516 109.7C204.456 109.593 204.42 109.53 204.399 109.497C203.404 107.384 201.492 106.17 199.04 106.732C197.603 107.061 196.321 108.406 195.864 109.912C195.757 110.098 195.658 110.289 195.577 110.48C195.455 110.77 195.35 111.054 195.279 111.344C194.442 113.302 195.586 115.741 197.265 116.823C197.594 117.035 197.931 117.182 198.272 117.286C198.804 117.968 199.365 118.628 199.966 119.256C199.966 119.262 199.966 119.271 199.966 119.277C199.852 121.809 202.117 123.623 204.456 123.769C205.451 123.832 206.484 123.841 207.479 123.757C207.536 123.751 207.584 123.748 207.628 123.745C207.655 123.748 207.688 123.754 207.733 123.757C207.769 123.79 207.802 123.82 207.843 123.859C209.065 124.998 210.717 125.294 212.175 124.926C212.513 125.374 212.862 125.808 213.236 126.205C214.694 127.76 216.874 127.805 218.538 126.899C219.399 127.61 220.376 128.175 221.547 128.534C223.775 129.215 226.025 127.87 226.9 125.853C227.36 125.945 227.82 126.014 228.277 126.071C231.312 126.989 234.616 126.071 236.221 123.145C236.69 122.29 236.958 121.45 237.078 120.622C238.915 119.734 240.083 117.684 239.45 115.442C240.015 114.916 240.448 114.244 240.672 113.434C240.687 113.374 240.699 113.311 240.714 113.251C242.279 114.722 243.847 116.195 245.413 117.666C246.808 118.975 246.912 121.223 245.9 122.771C246.781 123.683 247.241 125.067 247.062 126.247C246.754 128.301 245.156 129.613 243.101 129.747C241.619 129.843 240.242 129.553 238.957 129.018C238.231 128.869 237.505 128.71 236.782 128.543C236.722 128.627 236.669 128.71 236.606 128.791C235.698 129.957 234.548 130.671 233.293 131.027C233.415 131.116 233.49 131.176 233.398 131.14C233.622 131.23 233.849 131.314 234.073 131.391C233.49 132.052 233.102 132.895 232.94 133.791C232.194 133.812 231.453 134.013 230.793 134.395C230.138 134.775 229.547 135.241 228.991 135.743C227.551 134.823 225.923 134.455 224.059 135.074C222.392 135.627 221.167 136.831 219.665 137.644C219.659 137.644 219.653 137.644 219.647 137.647C219.599 137.641 219.432 137.647 219.145 137.662C218.368 137.614 219.13 137.734 218.293 137.561C217.349 137.363 216.408 137.19 215.464 137.04C214.371 135.979 213.209 134.993 211.888 134.165C209.113 132.425 204.913 134.655 205.131 138.045C205.253 139.946 205.702 141.718 206.362 143.428C205.555 143.494 204.775 143.64 204.032 144.029C203.957 144.002 203.885 143.975 203.811 143.954C202.741 143.628 201.513 143.634 200.417 143.909C199.476 140.89 199.3 137.985 200.357 134.784C200.492 134.374 200.548 133.953 200.542 133.537C200.784 133.289 201.035 133.041 201.31 132.778C204.967 129.329 200.321 123.213 196.079 125.602C195.894 125.655 195.712 125.712 195.527 125.766C194.759 126.011 194.024 126.331 193.289 126.66C191.712 127.362 191.004 129.191 191.12 130.88C190.974 131.074 190.827 131.272 190.684 131.469C189.686 132.826 188.727 134.141 187.831 135.208C187.694 135.37 187.634 135.453 187.613 135.495C187.583 135.501 187.505 135.537 187.332 135.648C187.027 135.842 186.72 136.018 186.403 136.186C186.334 136.213 186.027 136.353 185.859 136.407C185.513 136.52 185.163 136.619 184.811 136.7C184.464 136.78 184.115 136.849 183.762 136.906C183.756 136.894 183.006 136.972 182.899 136.981C182.122 137.035 181.345 137.055 180.569 137.064C176.584 137.109 173.235 136.251 169.07 135.896C165.76 135.615 162.241 135.973 158.955 135.767C158.904 135.683 158.853 135.6 158.806 135.519C158.713 135.37 158.668 135.283 158.65 135.238C158.609 135.211 158.534 135.151 158.402 135.029C158.331 134.963 157.724 134.419 157.826 134.473C157.581 134.297 157.315 134.144 157.049 134.001C157.121 134.043 156.67 133.833 156.514 133.785C156.317 133.723 156.117 133.669 155.914 133.627C156.305 133.654 156.248 133.651 155.75 133.615C153.575 133.469 151.717 131.867 151.717 129.58C151.717 127.5 153.566 125.41 155.75 125.545L155.729 125.548Z" fill="#48826D" stroke="#3E655D" stroke-width="0.669663" stroke-miterlimit="10"/>
<defs>
<clipPath id="clip0_964_28185">
<rect width="123.121" height="101.491" fill="white" transform="translate(66.2371 92.5087)"/>
</clipPath>
</defs>
</svg>
