<svg width="124" height="100" viewBox="0 0 124 100" fill="none" xmlns="http://www.w3.org/2000/svg">
<g clip-path="url(#clip0_1341_3293)">
<path d="M57.3847 88.3446C35.4927 94.4001 13.0584 81.3112 29.2373 49.9016C34.0957 36.9324 11.6787 41.0697 22.2049 54.7099C23.4564 56.768 22.8037 57.1163 21.7735 56.5229C-38.088 21.3752 63.9902 -23.5169 43.8245 56.1864C43.8245 56.1864 39.897 73.7591 51.0814 79.3097C62.2659 84.8603 63.3046 83.9542 57.3847 88.3446Z" fill="#944D1A"/>
<path d="M31.7526 82.536C36.0507 85.6942 41.6949 87.755 46.6513 85.3279C46.8156 85.2482 46.9635 85.1534 47.0965 85.0534C48.0948 84.8601 49.0511 84.5133 49.8596 83.8892C51.3879 82.7069 51.6894 81.0458 51.2593 79.3979C62.2763 84.8515 63.2754 83.9789 57.3873 88.347C42.5705 92.4442 27.508 87.7744 24.3323 74.5887C24.3474 74.5015 24.3674 74.4161 24.3847 74.3286C26.1963 77.6029 28.8672 80.4177 31.753 82.5384L31.7526 82.536Z" fill="#633311"/>
<path d="M14.6704 17.1965C17.3339 15.4356 20.2859 14.2453 23.4578 14.0431C27.9404 13.7551 32.0953 15.639 35.4551 18.6244C35.4493 18.7576 35.452 18.8845 35.4659 19.0073C30.1492 14.8195 23.2067 15.2446 17.438 17.8818C14.3876 19.2767 11.4267 21.2948 8.96752 23.8163C9.44929 20.8745 12.4668 18.6556 14.6685 17.1993L14.6704 17.1965Z" fill="#FAB380"/>
<path d="M16.0274 46.8018C16.0222 46.7053 16.0187 46.6359 16.0167 46.5912C16.0173 46.4863 16.0159 46.3841 16.0165 46.2791C16.0216 46.0012 16.0338 45.7247 16.0507 45.4475C16.0915 44.7996 16.1679 44.1538 16.281 43.5175C16.3087 43.3585 16.341 43.1988 16.3737 43.0416C16.4476 42.7532 16.5289 42.4663 16.6204 42.1853C16.8141 41.5842 17.0547 41.0135 17.306 40.4362C17.3273 40.3905 17.3428 40.3532 17.3545 40.3215C17.3718 40.2964 17.395 40.263 17.4232 40.2162C17.6074 39.9262 17.7791 39.6306 17.979 39.3507C18.1264 39.1437 18.2848 38.9474 18.4406 38.7491C18.5484 38.6379 18.6569 38.5316 18.7705 38.4271C18.9521 38.2598 19.1421 38.1012 19.3355 37.9497C19.4093 37.8936 19.4881 37.8392 19.5623 37.7855C19.5968 37.7653 19.6425 37.7409 19.7005 37.7047C19.9273 37.603 20.1413 37.4783 20.3692 37.3839C20.4931 37.3327 20.6201 37.2861 20.7471 37.2394C20.7632 37.237 20.7789 37.2321 20.7969 37.2269C21.0559 37.1827 21.31 37.1219 21.5705 37.0875C21.6973 37.0708 22.7915 37.0453 22.1382 37.0317C22.6782 37.0424 23.2021 36.9458 23.6702 36.7452C23.6844 36.7455 23.6989 36.7483 23.7131 36.7487C24.5743 37.033 25.4599 37.1988 26.3548 37.2858C28.1886 37.9225 29.7862 39.0967 30.9642 40.8388C31.1088 42.5423 31.0796 44.2471 30.8875 45.9316C30.1673 48.9918 28.6696 51.9324 27.012 54.7173C27.002 54.7288 26.9923 54.7427 26.98 54.7546C27.6274 53.1885 28.3777 51.572 29.2373 49.9015C34.0958 36.9322 11.6787 41.0695 22.2049 54.7097C23.4565 56.7678 22.8037 57.1161 21.7735 56.5228C21.0433 56.0938 20.3387 55.6635 19.6552 55.2324C18.7259 54.062 17.8796 52.8341 17.2138 51.494C16.9538 50.9715 16.721 50.4424 16.5335 49.8864C16.5072 49.8055 16.4832 49.7243 16.4568 49.6433C16.4456 49.6001 16.4321 49.5422 16.4108 49.463C16.3621 49.2032 16.2973 48.9458 16.2483 48.6836C16.1347 48.0566 16.0873 47.432 16.0247 46.7997L16.0274 46.8018Z" fill="#633311"/>
<path d="M46.8984 75.9642C47.1151 76.2311 47.3403 76.4917 47.5804 76.7426C47.4211 76.8091 47.2744 76.8962 47.141 76.9938C47.0752 76.6516 46.9857 76.3081 46.8984 75.9642Z" fill="#633311"/>
<path d="M74.3229 44.9244C72.6445 45.1781 71.058 43.8886 70.7792 42.0443C70.5004 40.1999 71.6351 38.4991 73.3134 38.2454C74.9918 37.9918 76.5783 39.2813 76.8571 41.1256C77.1359 42.97 76.0013 44.6708 74.3229 44.9244Z" stroke="#3E655D" stroke-width="1.82" stroke-miterlimit="10"/>
<path d="M74.5159 44.6461C72.8375 44.8998 71.251 43.6103 70.9722 41.7659C70.6934 39.9216 71.828 38.2208 73.5064 37.9671C75.1848 37.7135 76.7713 39.003 77.0501 40.8473C77.3289 42.6917 76.1943 44.3924 74.5159 44.6461Z" stroke="#65847D" stroke-width="1.82" stroke-miterlimit="10"/>
<path d="M59.2458 36.8767C59.2458 36.8767 71.1141 29.8393 77.125 43.1632C78.422 43.966 78.3142 49.4755 71.8323 51.7036C65.3504 53.9318 84.2031 57.3246 86.2181 59.7667C88.233 62.2087 74.9741 64.7121 74.9741 64.7121C74.9741 64.7121 75.7319 72.8374 78.3996 74.9311C79.6711 80.2322 70.6351 87.3408 70.6351 87.3408C70.6351 87.3408 73.07 83.2274 83.0767 87.2082C87.8786 90.9769 66.066 89.7792 60.6313 89.6019C54.4701 89.2846 32.6233 73.8598 56.4023 52.2879C56.4023 52.2879 59.8305 48.5238 55.3209 40.4662C50.8113 32.4086 57.6991 32.8657 59.2458 36.8767Z" fill="#F7802B"/>
<path d="M72.627 88.2453C70.9052 88.116 69.135 87.7918 67.6265 87.036C68.0391 86.7789 68.4426 86.5082 68.8254 86.2256C70.9232 84.9372 72.8039 83.3171 74.1809 81.2737C74.7086 80.752 75.1769 80.1319 75.5107 79.4473C75.7941 79.0199 76.0363 78.5688 76.2247 78.0884C76.5633 77.2332 76.5999 76.1215 76.3408 75.1544C76.3011 74.9382 76.233 74.7363 76.1322 74.5518C75.6633 73.4716 74.7548 72.7349 73.4186 73.0567C73.4549 71.7104 73.3359 70.3476 73.2237 69.0137C73.0792 67.2952 72.9146 65.7396 73.4574 64.1818C73.5687 63.8604 73.6291 63.5291 73.6452 63.1996C75.3379 63.0586 77.0525 63.1241 78.7212 62.6996C79.8555 62.4108 80.9534 62.0052 82.0366 61.5493C82.6444 61.2926 83.2467 60.9994 83.9133 60.976C84.1752 60.9664 85.422 61.0951 85.4001 61.5103C82.5907 63.2708 74.976 64.7089 74.976 64.7089C74.976 64.7089 75.7339 72.8341 78.4016 74.9279C79.3742 78.9832 74.3138 84.0976 71.8825 86.2754C73.4535 85.4062 76.7519 84.688 83.0787 87.2049C84.842 88.5889 83.0147 89.302 79.7299 89.6437C77.9273 88.031 74.8815 88.4139 72.627 88.2453Z" fill="#C66622"/>
<path d="M54.4626 86.4194C55.8825 87.4133 57.8961 88.6646 59.8693 89.1654C60.1448 89.3235 60.4253 89.4683 60.7067 89.6031C60.683 89.6017 60.6546 89.601 60.6309 89.5996C58.145 89.4709 53.1052 86.8818 49.541 82.4192C51.1112 83.8473 52.7346 85.2074 54.4622 86.417L54.4626 86.4194Z" fill="#C66622"/>
<path d="M56.8314 34.7941C56.8757 34.8073 56.9193 34.8157 56.9644 34.8339C57.846 35.1601 58.7618 36.2102 59.1023 37.2648C58.9894 37.3269 58.8746 37.3917 58.764 37.4533C58.7252 37.4767 58.6891 37.5021 58.6506 37.5279C57.8466 37.5595 57.3325 36.7408 57.0014 35.9968C56.9501 35.5951 56.8961 35.1913 56.8291 34.7944L56.8314 34.7941Z" fill="#FAB380"/>
<path d="M75.1375 48.8362C75.3944 48.9647 75.6467 49.0939 75.8925 49.2265C75.5247 49.6092 75.0916 49.9793 74.5939 50.3267C74.8079 49.8449 74.9891 49.3481 75.1352 48.8366L75.1375 48.8362Z" fill="#FAB380"/>
<path d="M57.8582 53.8154C57.7999 54.5807 56.9666 55.3834 56.4989 55.8985C55.6207 56.8702 54.6237 57.71 53.7508 58.6859C51.793 60.8695 50.3858 63.9262 49.2944 66.6929C48.1437 69.611 47.8231 72.4684 47.9346 75.6327C47.9517 76.1195 47.9804 76.6045 48.0251 77.0872C47.3496 74.6399 47.0627 72.104 47.1776 69.5972C47.4897 66.9956 48.079 64.4072 49.4213 62.1968C49.4967 62.073 49.5391 61.9492 49.5582 61.8265C50.5516 60.1233 51.6346 58.4839 52.8618 56.9426C53.5319 56.1022 54.2512 55.2769 55.033 54.522C55.1464 54.4949 55.2601 54.4378 55.3689 54.3489C56.01 53.83 56.6423 53.2226 57.398 52.8862C57.6901 53.0143 57.8818 53.5047 57.8582 53.8154Z" fill="#FAB380"/>
<path d="M72.0678 43.9274C71.433 44.0233 70.8358 43.5546 70.7339 42.8805C70.6321 42.2064 71.0641 41.5822 71.6988 41.4862C72.3336 41.3903 72.9308 41.859 73.0327 42.5331C73.1346 43.2072 72.7026 43.8314 72.0678 43.9274Z" fill="#190D04"/>
<path d="M72.4211 42.3753C72.2307 42.4041 72.0515 42.2635 72.0209 42.0612C71.9904 41.859 72.12 41.6717 72.3104 41.6429C72.5008 41.6142 72.68 41.7548 72.7106 41.957C72.7411 42.1592 72.6115 42.3465 72.4211 42.3753Z" fill="#FEF2EA"/>
<path d="M77.6869 45.3253C77.6869 45.3253 79.4165 43.3585 77.125 43.163C76.2632 43.6528 77.6869 45.3253 77.6869 45.3253Z" fill="#633311"/>
<path d="M74.866 49.9963C74.866 49.9963 73.4783 51.7042 72.4651 48.112C71.9486 44.6943 75.3712 48.6715 76.0239 48.3231C76.6766 47.9748 75.9416 49.3343 74.866 49.9963Z" fill="#7C4016"/>
<path d="M71.8549 45.9566C69.83 46.2627 67.9158 44.7075 67.5796 42.4829C67.2434 40.2584 68.6124 38.2069 70.6373 37.9008C72.6623 37.5948 74.5764 39.15 74.9126 41.3746C75.2488 43.5991 73.8799 45.6506 71.8549 45.9566Z" stroke="#3E655D" stroke-width="2.2" stroke-miterlimit="10"/>
<path d="M72.0479 45.6783C70.0229 45.9844 68.1088 44.4291 67.7726 42.2046C67.4364 39.98 68.8054 37.9286 70.8303 37.6225C72.8553 37.3165 74.7694 38.8717 75.1056 41.0963C75.4418 43.3208 74.0729 45.3723 72.0479 45.6783Z" stroke="#65847D" stroke-width="2.2" stroke-miterlimit="10"/>
<path d="M76.9405 41.9426C76.9405 41.9426 76.1771 41.5586 75.3314 42.1858" stroke="#65847D" stroke-width="1.66" stroke-miterlimit="10" stroke-linecap="round"/>
</g>
<path d="M97.6422 64.368C97.6422 64.368 103.492 75.5411 95.7824 77.9172C88.0728 80.2932 86.4249 67.8171 86.4249 67.8171C86.4249 67.8171 90.0917 61.5601 97.6422 64.368Z" fill="#944D1A"/>
<path d="M86.4249 67.818C86.4249 67.818 90.0917 61.561 97.6422 64.3689C97.6422 64.3689 97.7712 64.6161 97.9661 65.0444C97.7741 65.0396 97.5813 65.0711 97.4033 65.1383C97.3609 65.1543 97.0152 65.2744 97.0225 65.2766C96.8493 65.3293 96.6718 65.3726 96.4953 65.4144C96.1179 65.5029 95.7359 65.5738 95.3531 65.6374C94.6109 65.7612 93.8626 65.8548 93.1232 65.9963C91.7162 66.2646 90.3232 66.7515 88.9918 67.2957C88.5606 67.1322 88.0836 67.1963 87.694 67.5082C87.1518 67.9416 87.099 68.922 87.589 69.4649C87.5934 69.4704 87.5974 69.4751 87.6025 69.4803C87.5864 69.5011 87.5695 69.5222 87.5552 69.545C87.2807 69.9658 87.3757 70.6717 87.8353 70.961C88.186 71.1812 88.46 71.4259 88.5802 71.8181C88.7243 72.2901 88.6697 72.7963 88.6105 73.2677C88.5423 73.8096 89.016 74.3309 89.5178 74.3904C89.8631 74.4314 90.1588 74.2807 90.3475 74.0288C90.4957 74.2008 90.6508 74.3648 90.8121 74.523C90.8295 74.5944 90.8541 74.668 90.8886 74.7437C91.52 76.1297 92.385 77.3924 93.5754 78.2095C87.7504 77.8409 86.4252 67.8206 86.4252 67.8206L86.4249 67.818Z" fill="#944D1A"/>
<path d="M98.0808 65.1555C98.0808 65.1555 99.6621 62.6843 96.9204 61.2994C94.1784 59.9137 86.8056 61.6307 84.9352 65.2022C83.0649 68.7738 86.8231 68.8288 86.8231 68.8288C86.8231 68.8288 98.2722 65.5401 98.0808 65.1555Z" fill="#944D1A"/>
<path d="M84.4847 66.3609C85.4464 66.651 86.4719 66.687 87.4684 66.6287C88.3033 66.9412 89.1768 67.02 90.0496 66.9258C90.1233 66.9406 90.1974 66.9447 90.2723 66.9371C91.1334 66.9895 91.9959 66.9456 92.8368 66.7907C93.9804 66.5803 95.1597 66.2728 96.1714 65.6927C97.0358 65.1976 98.2542 64.4498 98.2188 63.2693C98.2182 63.2451 98.216 63.2215 98.2143 63.1967C98.2916 63.0839 98.3591 62.9634 98.4131 62.8312C98.8187 64.0031 98.0815 65.155 98.0815 65.155C98.2719 65.5391 86.8239 68.8283 86.8239 68.8283C86.8239 68.8283 83.9295 68.7855 84.4862 66.3602L84.4847 66.3609Z" fill="#944D1A"/>
<path d="M91.0039 61.7966C91.0039 61.7966 90.2054 59.8992 90.463 59.1164C90.7205 58.3335 89.4801 57.9675 89.7319 59.4583C89.9837 60.9491 90.5289 61.9242 90.7109 62.1229C90.893 62.3216 91.0039 61.7966 91.0039 61.7966Z" fill="#944D1A"/>
<path d="M90.19 60.3571C90.111 60.1291 90.0272 59.9119 90.0417 59.6704C90.0619 59.3421 90.1235 59.0777 90.0904 58.7383C90.0801 58.6343 90.0438 58.5378 89.99 58.4532C90.2645 58.3541 90.6112 58.665 90.463 59.1157C90.2054 59.8985 91.0038 61.796 91.0038 61.796C91.0038 61.796 90.9126 62.2276 90.7587 62.1576C90.5656 61.5581 90.397 60.9519 90.19 60.3571Z" fill="#944D1A"/>
<path d="M97.6422 64.368C97.6422 64.368 103.492 75.5411 95.7824 77.9172C88.0728 80.2932 86.4249 67.8171 86.4249 67.8171C86.4249 67.8171 90.0917 61.5601 97.6422 64.368Z" fill="#F9A66B"/>
<path d="M98.0808 65.1555C98.0808 65.1555 99.6621 62.6843 96.9204 61.2994C94.1784 59.9137 86.8056 61.6307 84.9352 65.2022C83.0649 68.7738 86.8231 68.8288 86.8231 68.8288C86.8231 68.8288 98.2722 65.5401 98.0808 65.1555Z" fill="#AD5A1E"/>
<path d="M84.4847 66.3609C85.4464 66.651 86.4719 66.687 87.4684 66.6287C88.3033 66.9412 89.1768 67.02 90.0496 66.9258C90.1233 66.9406 90.1974 66.9447 90.2723 66.9371C91.1334 66.9895 91.9959 66.9456 92.8368 66.7907C93.9804 66.5803 95.1597 66.2728 96.1714 65.6927C97.0358 65.1976 98.2542 64.4498 98.2188 63.2693C98.2182 63.2451 98.216 63.2215 98.2143 63.1967C98.2916 63.0839 98.3591 62.9634 98.4131 62.8312C98.8187 64.0031 98.0815 65.155 98.0815 65.155C98.2719 65.5391 86.8239 68.8283 86.8239 68.8283C86.8239 68.8283 83.9295 68.7855 84.4862 66.3602L84.4847 66.3609Z" fill="#7C4016"/>
<path d="M91.0039 61.7966C91.0039 61.7966 90.2054 59.8992 90.463 59.1164C90.7205 58.3335 89.4801 57.9675 89.7319 59.4583C89.9837 60.9491 90.5289 61.9242 90.7109 62.1229C90.893 62.3216 91.0039 61.7966 91.0039 61.7966Z" fill="#AD5A1E"/>
<path d="M90.19 60.3571C90.111 60.1291 90.0272 59.9119 90.0417 59.6704C90.0619 59.3421 90.1235 59.0777 90.0904 58.7383C90.0801 58.6343 90.0438 58.5378 89.99 58.4532C90.2645 58.3541 90.6112 58.665 90.463 59.1157C90.2054 59.8985 91.0038 61.796 91.0038 61.796C91.0038 61.796 90.9126 62.2276 90.7587 62.1576C90.5656 61.5581 90.397 60.9519 90.19 60.3571Z" fill="#7C4016"/>
<path d="M98.1864 65.7217C98.1864 65.7217 99.2022 68.2744 99.6686 71.5573C99.6686 71.5573 98.2571 66.6348 97.8199 66.2716C97.7473 66.1163 98.1864 65.7217 98.1864 65.7217Z" fill="#B77B53"/>
<path d="M114.722 72.0635C114.722 72.0635 114.272 84.6672 106.397 82.9143C98.5225 81.1614 103.268 69.506 103.268 69.506C103.268 69.506 109.552 65.8854 114.722 72.0635Z" fill="#944D1A"/>
<path d="M103.268 69.506C103.268 69.506 109.552 65.8854 114.722 72.0635C114.722 72.0635 114.711 72.3421 114.669 72.8107C114.504 72.7115 114.321 72.6434 114.133 72.6136C114.088 72.6066 113.729 72.5397 113.734 72.5453C113.557 72.5053 113.382 72.455 113.208 72.404C112.836 72.294 112.469 72.1664 112.105 72.0321C111.399 71.7723 110.702 71.4831 109.99 71.2399C108.634 70.7763 107.183 70.5096 105.757 70.3232C105.463 69.9676 105.017 69.7872 104.524 69.8652C103.839 69.9733 103.307 70.7989 103.464 71.5132C103.465 71.5202 103.466 71.5263 103.468 71.5333C103.444 71.5434 103.419 71.5534 103.395 71.5661C102.948 71.7958 102.681 72.4561 102.937 72.9351C103.133 73.3 103.25 73.6482 103.16 74.0485C103.052 74.5299 102.754 74.9427 102.469 75.323C102.141 75.76 102.295 76.4474 102.701 76.7476C102.981 76.9542 103.312 76.9698 103.601 76.8443C103.645 77.0671 103.698 77.2863 103.76 77.5037C103.74 77.5743 103.725 77.6505 103.717 77.7333C103.579 79.2502 103.706 80.7755 104.335 82.0748C99.457 78.8704 103.267 69.5085 103.267 69.5085L103.268 69.506Z" fill="#944D1A"/>
<path d="M114.713 72.9646C114.713 72.9646 117.31 71.6005 115.614 69.0397C113.918 66.4781 106.662 64.3193 103.269 66.4963C99.8754 68.6732 103.113 70.5819 103.113 70.5819C103.113 70.5819 114.689 73.3934 114.713 72.9646Z" fill="#944D1A"/>
<path d="M102.304 67.2806C102.995 68.0088 103.868 68.5478 104.763 68.9906C105.334 69.6755 106.054 70.1764 106.859 70.5268C106.915 70.5761 106.978 70.6164 107.047 70.6468C107.769 71.1187 108.54 71.5076 109.347 71.7894C110.445 72.1729 111.622 72.4897 112.788 72.4866C113.784 72.4843 115.213 72.4379 115.767 71.3949C115.778 71.3734 115.788 71.3519 115.799 71.3295C115.922 71.2698 116.04 71.1985 116.152 71.1104C115.924 72.3294 114.714 72.9652 114.714 72.9652C114.689 73.3931 103.114 70.5825 103.114 70.5825C103.114 70.5825 100.621 69.1122 102.305 67.2807L102.304 67.2806Z" fill="#944D1A"/>
<path d="M110.228 66.5416C110.228 66.5416 110.474 64.4977 111.085 63.9451C111.696 63.3925 110.8 62.4603 110.28 63.8802C109.761 65.3001 109.752 66.4172 109.812 66.68C109.872 66.9428 110.228 66.5416 110.228 66.5416Z" fill="#944D1A"/>
<path d="M110.233 64.8895C110.277 64.6523 110.312 64.4221 110.444 64.2195C110.624 63.9443 110.809 63.745 110.948 63.4338C110.991 63.3384 111.007 63.2365 111.002 63.1363C111.29 63.1862 111.437 63.628 111.085 63.9461C110.474 64.4987 110.228 66.5426 110.228 66.5426C110.228 66.5426 109.935 66.8724 109.836 66.7354C109.965 66.119 110.118 65.5088 110.233 64.8895Z" fill="#944D1A"/>
<path d="M114.722 72.0635C114.722 72.0635 114.272 84.6672 106.397 82.9143C98.5225 81.1614 103.268 69.506 103.268 69.506C103.268 69.506 109.552 65.8854 114.722 72.0635Z" fill="#F9A66B"/>
<path d="M114.713 72.9646C114.713 72.9646 117.31 71.6005 115.614 69.0397C113.918 66.4781 106.662 64.3193 103.269 66.4963C99.8754 68.6732 103.113 70.5819 103.113 70.5819C103.113 70.5819 114.689 73.3934 114.713 72.9646Z" fill="#AD5A1E"/>
<path d="M102.304 67.2806C102.995 68.0088 103.868 68.5478 104.763 68.9906C105.334 69.6755 106.054 70.1764 106.859 70.5268C106.915 70.5761 106.978 70.6164 107.047 70.6468C107.769 71.1187 108.54 71.5076 109.347 71.7894C110.445 72.1729 111.622 72.4897 112.788 72.4866C113.784 72.4843 115.213 72.4379 115.767 71.3949C115.778 71.3734 115.788 71.3519 115.799 71.3295C115.922 71.2698 116.04 71.1985 116.152 71.1104C115.924 72.3294 114.714 72.9652 114.714 72.9652C114.689 73.3931 103.114 70.5825 103.114 70.5825C103.114 70.5825 100.621 69.1122 102.305 67.2807L102.304 67.2806Z" fill="#7C4016"/>
<path d="M110.228 66.5416C110.228 66.5416 110.474 64.4977 111.085 63.9451C111.696 63.3925 110.8 62.4603 110.28 63.8802C109.761 65.3001 109.752 66.4172 109.812 66.68C109.872 66.9428 110.228 66.5416 110.228 66.5416Z" fill="#AD5A1E"/>
<path d="M110.233 64.8895C110.277 64.6523 110.312 64.4221 110.444 64.2195C110.624 63.9443 110.809 63.745 110.948 63.4338C110.991 63.3384 111.007 63.2365 111.002 63.1363C111.29 63.1862 111.437 63.628 111.085 63.9461C110.474 64.4987 110.228 66.5426 110.228 66.5426C110.228 66.5426 109.935 66.8724 109.836 66.7354C109.965 66.119 110.118 65.5088 110.233 64.8895Z" fill="#7C4016"/>
<path d="M114.524 73.5098C114.524 73.5098 114.143 76.2306 112.922 79.3137C112.922 79.3137 114.133 74.3381 113.933 73.8061C113.947 73.6352 114.524 73.5098 114.524 73.5098Z" fill="#B77B53"/>
<path d="M121.952 81.9228C121.952 81.9228 121.502 94.5266 113.627 92.7737C105.753 91.0207 110.498 79.3653 110.498 79.3653C110.498 79.3653 116.782 75.7448 121.952 81.9228Z" fill="#944D1A"/>
<path d="M110.498 79.3654C110.498 79.3654 116.782 75.7448 121.952 81.9229C121.952 81.9229 121.942 82.2015 121.899 82.6701C121.734 82.5709 121.551 82.5028 121.363 82.473C121.319 82.4659 120.959 82.3991 120.964 82.4047C120.787 82.3646 120.612 82.3144 120.438 82.2633C120.066 82.1534 119.699 82.0258 119.335 81.8915C118.629 81.6316 117.932 81.3424 117.22 81.0992C115.865 80.6357 114.413 80.369 112.987 80.1826C112.693 79.827 112.247 79.6466 111.754 79.7246C111.069 79.8327 110.537 80.6583 110.694 81.3726C110.695 81.3796 110.697 81.3857 110.698 81.3927C110.674 81.4028 110.649 81.4128 110.625 81.4255C110.178 81.6552 109.911 82.3155 110.168 82.7945C110.363 83.1594 110.48 83.5076 110.39 83.9079C110.282 84.3893 109.984 84.8021 109.699 85.1824C109.371 85.6194 109.525 86.3068 109.931 86.607C110.211 86.8136 110.543 86.8291 110.831 86.7037C110.875 86.9264 110.928 87.1457 110.99 87.3631C110.97 87.4337 110.955 87.5099 110.947 87.5927C110.81 89.1095 110.936 90.6348 111.566 91.9341C106.687 88.7298 110.497 79.3679 110.497 79.3679L110.498 79.3654Z" fill="#944D1A"/>
<path d="M121.943 82.8239C121.943 82.8239 124.541 81.4599 122.844 78.8991C121.148 76.3375 113.892 74.1787 110.499 76.3557C107.106 78.5326 110.344 80.4412 110.344 80.4412C110.344 80.4412 121.919 83.2528 121.943 82.8239Z" fill="#944D1A"/>
<path d="M109.534 77.1399C110.226 77.8682 111.099 78.4072 111.993 78.85C112.564 79.5349 113.284 80.0358 114.089 80.3862C114.146 80.4355 114.208 80.4757 114.277 80.5062C114.999 80.9781 115.77 81.367 116.577 81.6488C117.675 82.0323 118.852 82.349 120.018 82.3459C121.014 82.3437 122.443 82.2973 122.997 81.2542C123.008 81.2328 123.018 81.2112 123.029 81.1889C123.152 81.1292 123.27 81.0579 123.383 80.9698C123.155 82.1887 121.944 82.8246 121.944 82.8246C121.919 83.2525 110.344 80.4419 110.344 80.4419C110.344 80.4419 107.851 78.9716 109.535 77.1401L109.534 77.1399Z" fill="#944D1A"/>
<path d="M117.458 76.4009C117.458 76.4009 117.704 74.3571 118.315 73.8045C118.927 73.2519 118.03 72.3197 117.511 73.7396C116.991 75.1595 116.982 76.2766 117.042 76.5394C117.102 76.8021 117.458 76.4009 117.458 76.4009Z" fill="#944D1A"/>
<path d="M117.463 74.7489C117.508 74.5117 117.542 74.2815 117.674 74.0789C117.855 73.8036 118.039 73.6044 118.178 73.2932C118.221 73.1977 118.237 73.0959 118.232 72.9957C118.52 73.0456 118.667 73.4874 118.315 73.8055C117.704 74.3581 117.458 76.402 117.458 76.402C117.458 76.402 117.165 76.7318 117.066 76.5948C117.195 75.9783 117.349 75.3682 117.463 74.7489Z" fill="#944D1A"/>
<path d="M121.952 81.9228C121.952 81.9228 121.502 94.5266 113.627 92.7737C105.753 91.0207 110.498 79.3653 110.498 79.3653C110.498 79.3653 116.782 75.7448 121.952 81.9228Z" fill="#F9A66B"/>
<path d="M121.943 82.8239C121.943 82.8239 124.541 81.4599 122.844 78.8991C121.148 76.3375 113.892 74.1787 110.499 76.3557C107.106 78.5326 110.344 80.4412 110.344 80.4412C110.344 80.4412 121.919 83.2528 121.943 82.8239Z" fill="#AD5A1E"/>
<path d="M109.534 77.1399C110.226 77.8682 111.099 78.4072 111.993 78.85C112.564 79.5349 113.284 80.0358 114.089 80.3862C114.146 80.4355 114.208 80.4757 114.277 80.5062C114.999 80.9781 115.77 81.367 116.577 81.6488C117.675 82.0323 118.852 82.349 120.018 82.3459C121.014 82.3437 122.443 82.2973 122.997 81.2542C123.008 81.2328 123.018 81.2112 123.029 81.1889C123.152 81.1292 123.27 81.0579 123.383 80.9698C123.155 82.1887 121.944 82.8246 121.944 82.8246C121.919 83.2525 110.344 80.4419 110.344 80.4419C110.344 80.4419 107.851 78.9716 109.535 77.1401L109.534 77.1399Z" fill="#7C4016"/>
<path d="M117.458 76.4009C117.458 76.4009 117.704 74.3571 118.315 73.8045C118.927 73.2519 118.03 72.3197 117.511 73.7396C116.991 75.1595 116.982 76.2766 117.042 76.5394C117.102 76.8021 117.458 76.4009 117.458 76.4009Z" fill="#AD5A1E"/>
<path d="M117.463 74.7489C117.508 74.5117 117.542 74.2815 117.674 74.0789C117.855 73.8036 118.039 73.6044 118.178 73.2932C118.221 73.1977 118.237 73.0959 118.232 72.9957C118.52 73.0456 118.667 73.4874 118.315 73.8055C117.704 74.3581 117.458 76.402 117.458 76.402C117.458 76.402 117.165 76.7318 117.066 76.5948C117.195 75.9783 117.349 75.3682 117.463 74.7489Z" fill="#7C4016"/>
<path d="M121.754 83.3691C121.754 83.3691 121.373 86.09 120.153 89.173C120.153 89.173 121.364 84.1975 121.164 83.6654C121.177 83.4946 121.754 83.3691 121.754 83.3691Z" fill="#B77B53"/>
<path d="M104.862 81.9228C104.862 81.9228 104.412 94.5266 96.5377 92.7737C88.663 91.0207 93.4087 79.3653 93.4087 79.3653C93.4087 79.3653 99.6925 75.7448 104.862 81.9228Z" fill="#944D1A"/>
<path d="M93.4086 79.3654C93.4086 79.3654 99.6925 75.7448 104.862 81.9229C104.862 81.9229 104.852 82.2015 104.809 82.6701C104.645 82.5709 104.462 82.5028 104.274 82.473C104.229 82.4659 103.869 82.3991 103.874 82.4047C103.698 82.3646 103.522 82.3144 103.348 82.2633C102.976 82.1534 102.609 82.0258 102.245 81.8915C101.539 81.6316 100.843 81.3424 100.13 81.0992C98.7749 80.6357 97.3236 80.369 95.8973 80.1826C95.6037 79.827 95.1576 79.6466 94.6646 79.7246C93.979 79.8327 93.4477 80.6583 93.6046 81.3726C93.6057 81.3796 93.6068 81.3857 93.6087 81.3927C93.5844 81.4028 93.5593 81.4128 93.5356 81.4255C93.0887 81.6552 92.8217 82.3155 93.0778 82.7945C93.2735 83.1594 93.3903 83.5076 93.3005 83.9079C93.1921 84.3893 92.894 84.8021 92.6091 85.1824C92.2815 85.6194 92.435 86.3068 92.8416 86.607C93.1213 86.8136 93.4528 86.8291 93.7415 86.7037C93.785 86.9264 93.8386 87.1457 93.9004 87.3631C93.8801 87.4337 93.8651 87.5099 93.8576 87.5927C93.7199 89.1095 93.8463 90.6348 94.4759 91.9341C89.5975 88.7298 93.4076 79.3679 93.4076 79.3679L93.4086 79.3654Z" fill="#944D1A"/>
<path d="M104.853 82.8239C104.853 82.8239 107.451 81.4599 105.755 78.8991C104.058 76.3375 96.8026 74.1787 93.4092 76.3557C90.0159 78.5326 93.2538 80.4412 93.2538 80.4412C93.2538 80.4412 104.829 83.2528 104.853 82.8239Z" fill="#944D1A"/>
<path d="M92.444 77.1399C93.1359 77.8682 94.009 78.4072 94.9036 78.85C95.4743 79.5349 96.1942 80.0358 96.9992 80.3862C97.0559 80.4355 97.1182 80.4757 97.187 80.5062C97.9093 80.9781 98.6803 81.367 99.4876 81.6488C100.585 82.0323 101.762 82.349 102.928 82.3459C103.925 82.3437 105.353 82.2973 105.907 81.2542C105.919 81.2328 105.928 81.2112 105.939 81.1889C106.062 81.1292 106.181 81.0579 106.293 80.9698C106.065 82.1887 104.854 82.8246 104.854 82.8246C104.829 83.2525 93.2546 80.4419 93.2546 80.4419C93.2546 80.4419 90.7611 78.9716 92.4456 77.1401L92.444 77.1399Z" fill="#944D1A"/>
<path d="M100.368 76.4009C100.368 76.4009 100.614 74.3571 101.225 73.8045C101.837 73.2519 100.94 72.3197 100.421 73.7396C99.9016 75.1595 99.8925 76.2766 99.9522 76.5394C100.012 76.8021 100.368 76.4009 100.368 76.4009Z" fill="#944D1A"/>
<path d="M100.374 74.7489C100.418 74.5117 100.453 74.2815 100.585 74.0789C100.765 73.8036 100.949 73.6044 101.089 73.2932C101.131 73.1977 101.147 73.0959 101.143 72.9957C101.43 73.0456 101.577 73.4874 101.225 73.8055C100.614 74.3581 100.368 76.402 100.368 76.402C100.368 76.402 100.075 76.7318 99.9762 76.5948C100.105 75.9783 100.259 75.3682 100.374 74.7489Z" fill="#944D1A"/>
<path d="M104.862 81.9228C104.862 81.9228 104.412 94.5266 96.5377 92.7737C88.663 91.0207 93.4087 79.3653 93.4087 79.3653C93.4087 79.3653 99.6925 75.7448 104.862 81.9228Z" fill="#F9A66B"/>
<path d="M104.853 82.8239C104.853 82.8239 107.451 81.4599 105.755 78.8991C104.058 76.3375 96.8026 74.1787 93.4092 76.3557C90.0159 78.5326 93.2538 80.4412 93.2538 80.4412C93.2538 80.4412 104.829 83.2528 104.853 82.8239Z" fill="#AD5A1E"/>
<path d="M92.444 77.1399C93.1359 77.8682 94.009 78.4072 94.9036 78.85C95.4743 79.5349 96.1942 80.0358 96.9992 80.3862C97.0559 80.4355 97.1182 80.4757 97.187 80.5062C97.9093 80.9781 98.6803 81.367 99.4876 81.6488C100.585 82.0323 101.762 82.349 102.928 82.3459C103.925 82.3437 105.353 82.2973 105.907 81.2542C105.919 81.2328 105.928 81.2112 105.939 81.1889C106.062 81.1292 106.181 81.0579 106.293 80.9698C106.065 82.1887 104.854 82.8246 104.854 82.8246C104.829 83.2525 93.2546 80.4419 93.2546 80.4419C93.2546 80.4419 90.7611 78.9716 92.4456 77.1401L92.444 77.1399Z" fill="#7C4016"/>
<path d="M100.368 76.4009C100.368 76.4009 100.614 74.3571 101.225 73.8045C101.837 73.2519 100.94 72.3197 100.421 73.7396C99.9016 75.1595 99.8925 76.2766 99.9522 76.5394C100.012 76.8021 100.368 76.4009 100.368 76.4009Z" fill="#AD5A1E"/>
<path d="M100.374 74.7489C100.418 74.5117 100.453 74.2815 100.585 74.0789C100.765 73.8036 100.949 73.6044 101.089 73.2932C101.131 73.1977 101.147 73.0959 101.143 72.9957C101.43 73.0456 101.577 73.4874 101.225 73.8055C100.614 74.3581 100.368 76.402 100.368 76.402C100.368 76.402 100.075 76.7318 99.9762 76.5948C100.105 75.9783 100.259 75.3682 100.374 74.7489Z" fill="#7C4016"/>
<path d="M104.665 83.3691C104.665 83.3691 104.283 86.09 103.063 89.173C103.063 89.173 104.274 84.1975 104.074 83.6654C104.088 83.4946 104.665 83.3691 104.665 83.3691Z" fill="#B77B53"/>
<defs>
<clipPath id="clip0_1341_3293">
<rect width="103.472" height="85.2947" fill="white" transform="matrix(-0.98877 0.149446 0.149446 0.98877 102.31 0)"/>
</clipPath>
</defs>
</svg>
