<svg width="148" height="122" viewBox="0 0 148 122" fill="none" xmlns="http://www.w3.org/2000/svg">
<g clip-path="url(#clip0_795_14266)">
<path d="M5.60653 60.9577C5.60653 60.9577 3.27881 112.868 36.1995 108.277C69.1201 103.687 53.4911 54.2482 53.4911 54.2482C53.4911 54.2482 28.8838 37.2979 5.60653 60.9577Z" fill="#944D1A"/>
<path d="M53.4911 54.2482C53.4911 54.2482 28.8838 37.2979 5.60654 60.9577C5.60654 60.9577 5.55666 62.1054 5.57661 64.0441C6.2849 63.691 7.0597 63.472 7.84115 63.412C8.02737 63.3979 9.52709 63.2425 9.50381 63.2637C10.242 63.1577 10.9803 63.0094 11.7118 62.8576C13.2747 62.5292 14.8243 62.1266 16.3639 61.6958C19.3501 60.8624 22.3063 59.9054 25.3124 59.1426C31.0319 57.6877 37.0807 57.0733 42.9998 56.7802C44.3232 55.4171 46.2153 54.8238 48.2139 55.3076C50.9938 55.9786 52.9026 59.5452 52.0214 62.4268C52.0147 62.455 52.008 62.4797 51.9981 62.508C52.0945 62.5574 52.1943 62.6069 52.2874 62.6669C54.0465 63.7581 54.9244 66.5584 53.7139 68.4406C52.7895 69.8743 52.1943 71.2656 52.4304 72.9395C52.7163 74.9523 53.8037 76.7463 54.8479 78.4024C56.0483 80.3058 55.1904 83.0779 53.4213 84.1761C52.2042 84.9318 50.8375 84.8859 49.6936 84.275C49.4409 85.1755 49.1483 86.0583 48.8224 86.9306C48.8823 87.2272 48.9188 87.545 48.9221 87.8876C48.9853 94.1627 47.9611 100.385 44.9451 105.512C66.0409 93.9685 53.4945 54.2588 53.4945 54.2588L53.4911 54.2482Z" fill="#944D1A"/>
<path d="M5.34384 64.6621C5.34384 64.6621 -4.87155 58.1998 2.94296 48.245C10.7575 38.2867 41.2706 31.8244 54.4854 41.8886C67.7002 51.9529 53.7705 58.7189 53.7705 58.7189C53.7705 58.7189 5.30061 66.4313 5.34384 64.6621Z" fill="#944D1A"/>
<path d="M58.1898 45.427C55.1073 48.1885 51.343 50.1131 47.5222 51.6351C44.9517 54.2588 41.8293 56.0775 38.4075 57.2499C38.1581 57.4335 37.8888 57.5783 37.5961 57.6807C34.4737 59.3792 31.1783 60.7211 27.7698 61.611C23.1343 62.8223 18.1962 63.7334 13.4078 63.3343C9.31762 62.9953 3.46506 62.3314 1.53637 57.8643C1.49647 57.7725 1.46322 57.6807 1.42664 57.5853C0.941142 57.2993 0.478922 56.9674 0.0466309 56.5683C0.578682 61.6499 5.34054 64.6621 5.34054 64.6621C5.30064 66.4278 53.7672 58.7189 53.7672 58.7189C53.7672 58.7189 64.4947 53.5067 58.1832 45.427H58.1898Z" fill="#944D1A"/>
<path d="M25.8909 39.7697C25.8909 39.7697 25.5584 31.2945 23.2307 28.8226C20.903 26.3507 24.8934 22.8194 26.556 28.8226C28.2187 34.8259 27.8861 39.4166 27.5536 40.476C27.2211 41.5354 25.8909 39.7697 25.8909 39.7697Z" fill="#944D1A"/>
<path d="M26.4164 32.979C26.3133 31.9903 26.2468 31.0333 25.7712 30.1575C25.1228 28.9675 24.4311 28.0882 23.9623 26.7639C23.8193 26.3578 23.786 25.934 23.8392 25.5244C22.6421 25.6339 21.8906 27.3995 23.2307 28.8227C25.5584 31.2946 25.8909 39.7698 25.8909 39.7698C25.8909 39.7698 26.985 41.2211 27.4372 40.6914C27.1113 38.1171 26.6824 35.5604 26.4164 32.979Z" fill="#944D1A"/>
<path d="M5.60653 60.9577C5.60653 60.9577 3.27881 112.868 36.1995 108.277C69.1201 103.687 53.4911 54.2482 53.4911 54.2482C53.4911 54.2482 28.8838 37.2979 5.60653 60.9577Z" fill="#F9A66B"/>
<path d="M53.4911 54.2482C53.4911 54.2482 28.8838 37.2979 5.60654 60.9577C5.60654 60.9577 5.55666 62.1054 5.57661 64.0441C6.2849 63.691 7.0597 63.472 7.84115 63.412C8.02737 63.3979 9.52709 63.2425 9.50381 63.2637C10.242 63.1577 10.9803 63.0094 11.7118 62.8576C13.2747 62.5292 14.8243 62.1266 16.3639 61.6958C19.3501 60.8624 22.3063 59.9054 25.3124 59.1426C31.0319 57.6877 37.0807 57.0733 42.9998 56.7802C44.3232 55.4171 46.2153 54.8238 48.2139 55.3076C50.9938 55.9786 52.9026 59.5452 52.0214 62.4268C52.0147 62.455 52.008 62.4797 51.9981 62.508C52.0945 62.5574 52.1943 62.6069 52.2874 62.6669C54.0465 63.7581 54.9244 66.5584 53.7139 68.4406C52.7895 69.8743 52.1943 71.2656 52.4304 72.9395C52.7163 74.9523 53.8037 76.7463 54.8479 78.4024C56.0483 80.3058 55.1904 83.0779 53.4213 84.1761C52.2042 84.9318 50.8375 84.8859 49.6936 84.275C49.4409 85.1755 49.1483 86.0583 48.8224 86.9306C48.8823 87.2272 48.9188 87.545 48.9221 87.8876C48.9853 94.1627 47.9611 100.385 44.9451 105.512C66.0409 93.9685 53.4945 54.2588 53.4945 54.2588L53.4911 54.2482Z" fill="#B77B53"/>
<path d="M5.34384 64.6621C5.34384 64.6621 -4.87155 58.1998 2.94296 48.245C10.7575 38.2867 41.2706 31.8244 54.4854 41.8886C67.7002 51.9529 53.7705 58.7189 53.7705 58.7189C53.7705 58.7189 5.30061 66.4313 5.34384 64.6621Z" fill="#AD5A1E"/>
<path d="M58.1898 45.427C55.1073 48.1885 51.343 50.1131 47.5222 51.6351C44.9517 54.2588 41.8293 56.0775 38.4075 57.2499C38.1581 57.4335 37.8888 57.5783 37.5961 57.6807C34.4737 59.3792 31.1783 60.7211 27.7698 61.611C23.1343 62.8223 18.1962 63.7334 13.4078 63.3343C9.31762 62.9953 3.46506 62.3314 1.53637 57.8643C1.49647 57.7725 1.46322 57.6807 1.42664 57.5853C0.941142 57.2993 0.478922 56.9674 0.0466309 56.5683C0.578682 61.6499 5.34054 64.6621 5.34054 64.6621C5.30064 66.4278 53.7672 58.7189 53.7672 58.7189C53.7672 58.7189 64.4947 53.5067 58.1832 45.427H58.1898Z" fill="#7C4016"/>
<path d="M25.8909 39.7697C25.8909 39.7697 25.5584 31.2945 23.2307 28.8226C20.903 26.3507 24.8934 22.8194 26.556 28.8226C28.2187 34.8259 27.8861 39.4166 27.5536 40.476C27.2211 41.5354 25.8909 39.7697 25.8909 39.7697Z" fill="#AD5A1E"/>
<path d="M26.4164 32.979C26.3133 31.9903 26.2468 31.0333 25.7712 30.1575C25.1228 28.9675 24.4311 28.0882 23.9623 26.7639C23.8193 26.3578 23.786 25.934 23.8392 25.5244C22.6421 25.6339 21.8906 27.3995 23.2307 28.8227C25.5584 31.2946 25.8909 39.7698 25.8909 39.7698C25.8909 39.7698 26.985 41.2211 27.4372 40.6914C27.1113 38.1171 26.6824 35.5604 26.4164 32.979Z" fill="#7C4016"/>
<path d="M82.4215 115.34C114.677 119.224 143.607 95.9176 114.012 54.9543C104.369 37.6508 136.957 38.7102 124.986 60.2513C123.655 63.4295 124.653 63.7826 125.983 62.7232C203.131 0.218859 49.1683 -41.4507 94.7251 66.9608C94.7251 66.9608 104.036 90.9738 89.4046 101.215C74.7732 111.455 73.1106 110.396 82.4215 115.34Z" fill="#944D1A"/>
<path d="M117.43 101.645C112.027 107.031 104.485 111.152 96.9564 108.779C96.707 108.701 96.4775 108.598 96.268 108.485C94.8148 108.425 93.3883 108.139 92.1114 107.43C89.6972 106.084 88.9157 103.799 89.1718 101.377C74.7565 111.445 73.157 110.424 82.4181 115.343C104.249 117.971 124.553 108.146 126.226 88.8196C126.186 88.6995 126.139 88.583 126.096 88.4629C124.234 93.4809 121.058 98.0328 117.43 101.649V101.645Z" fill="#633311"/>
<path d="M127.622 5.58651C123.479 3.66547 119.05 2.61314 114.521 3.00511C108.119 3.556 102.646 7.1085 98.5326 12.0488C98.5692 12.236 98.5925 12.4161 98.5991 12.5926C105.223 5.53354 115.133 4.65071 123.855 7.14735C128.467 8.46806 133.086 10.6893 137.103 13.7297C135.793 9.67224 131.051 7.17913 127.626 5.59004L127.622 5.58651Z" fill="#FAB380"/>
<path d="M132.032 47.7469C132.019 47.6091 132.009 47.5103 132.002 47.4467C131.979 47.2984 131.959 47.1536 131.935 47.0053C131.869 46.6133 131.792 46.2249 131.709 45.8364C131.513 44.9289 131.267 44.0319 130.971 43.1562C130.898 42.9372 130.818 42.7183 130.738 42.5029C130.572 42.1109 130.396 41.7224 130.206 41.3446C129.804 40.5359 129.342 39.7802 128.863 39.0174C128.823 38.9574 128.793 38.908 128.77 38.8656C128.74 38.8338 128.7 38.7914 128.65 38.7314C128.328 38.3606 128.022 37.9792 127.679 37.6261C127.426 37.3648 127.16 37.1211 126.898 36.8739C126.721 36.7397 126.545 36.6126 126.362 36.489C126.07 36.2913 125.767 36.1076 125.461 35.9346C125.345 35.871 125.222 35.811 125.105 35.751C125.052 35.7298 124.982 35.7051 124.892 35.6662C124.55 35.5709 124.221 35.4402 123.878 35.3555C123.692 35.3096 123.502 35.2707 123.313 35.2319C123.29 35.2319 123.266 35.2283 123.24 35.2248C122.864 35.2177 122.492 35.186 122.116 35.193C121.933 35.1966 120.38 35.3943 121.301 35.2354C120.54 35.3661 119.778 35.3413 119.073 35.1577C119.053 35.1612 119.033 35.1683 119.013 35.1718C117.856 35.758 116.639 36.1818 115.392 36.4961C112.935 37.7885 110.926 39.7908 109.633 42.5064C109.792 44.9465 110.198 47.3514 110.83 49.6926C112.502 53.8666 115.249 57.7052 118.189 61.2895C118.205 61.3036 118.222 61.3213 118.242 61.3354C116.991 59.259 115.585 57.1331 114.012 54.9543C104.369 37.6508 136.957 38.7102 124.986 60.2513C123.655 63.4294 124.653 63.7826 125.983 62.7232C126.924 61.9604 127.829 61.2012 128.703 60.4455C129.767 58.5915 130.702 56.674 131.357 54.6365C131.613 53.8419 131.829 53.0438 131.975 52.2175C131.995 52.0974 132.012 51.9774 132.032 51.8573C132.039 51.7938 132.045 51.709 132.059 51.5925C132.072 51.2146 132.108 50.8368 132.122 50.4554C132.148 49.5443 132.082 48.6509 132.035 47.7433L132.032 47.7469Z" fill="#633311"/>
<path d="M94.6054 95.5891C94.356 96.0129 94.0933 96.4296 93.8074 96.8357C94.0468 96.8957 94.2729 96.9875 94.4824 97.097C94.5024 96.5991 94.5556 96.0941 94.6054 95.5891Z" fill="#633311"/>
<path d="M49.1849 57.5533C51.6128 57.5533 53.581 55.3905 53.581 52.7224C53.581 50.0544 51.6128 47.8916 49.1849 47.8916C46.757 47.8916 44.7888 50.0544 44.7888 52.7224C44.7888 55.3905 46.757 57.5533 49.1849 57.5533Z" stroke="#3E655D" stroke-width="1.82" stroke-miterlimit="10"/>
<path d="M48.8524 57.2003C51.2803 57.2003 53.2484 55.0374 53.2484 52.3694C53.2484 49.7014 51.2803 47.5386 48.8524 47.5386C46.4245 47.5386 44.4563 49.7014 44.4563 52.3694C44.4563 55.0374 46.4245 57.2003 48.8524 57.2003Z" stroke="#65847D" stroke-width="1.82" stroke-miterlimit="10"/>
<path d="M68.7876 42.9479C68.7876 42.9479 50.4984 35.5322 44.8453 55.6607C43.1827 57.0732 44.5128 64.8421 54.1562 66.6078C63.7996 68.3734 37.8621 77.2017 35.5344 81.0862C33.2067 84.9706 52.4935 85.6769 52.4935 85.6769C52.4935 85.6769 53.1586 97.3302 49.8333 100.862C49.1682 108.63 63.4671 116.752 63.4671 116.752C63.4671 116.752 59.1442 111.456 45.8429 119.224C39.8573 125.581 70.4503 119.224 78.0985 117.812C86.7443 116.046 114.344 89.5613 76.1033 64.1358C76.1033 64.1358 70.4503 59.5451 75.1057 47.1855C79.7612 34.8259 70.1177 36.9447 68.7876 42.9479Z" fill="#F7802B"/>
<path d="M60.8434 118.458C63.2509 117.907 65.685 117.07 67.657 115.679C67.0185 115.403 66.39 115.107 65.7881 114.789C62.5459 113.415 59.5398 111.526 57.1556 108.93C56.2977 108.305 55.5029 107.529 54.8844 106.632C54.3923 106.088 53.9533 105.502 53.5842 104.862C52.9225 103.725 52.6332 102.161 52.7928 100.738C52.8027 100.424 52.856 100.123 52.959 99.8409C53.3913 98.2129 54.5186 96.977 56.4772 97.1465C56.138 95.2502 56.015 93.2973 55.8886 91.3869C55.7257 88.9256 55.6259 86.6902 54.5253 84.6032C54.2991 84.1724 54.1428 83.7169 54.0497 83.2543C51.6256 83.4167 49.2147 83.8758 46.764 83.6321C45.098 83.4662 43.4586 83.1271 41.8292 82.714C40.9147 82.4809 40.0003 82.1949 39.0526 82.3044C38.6801 82.3467 36.9443 82.7952 37.064 83.3779C41.4135 85.2671 52.4902 85.6732 52.4902 85.6732C52.4902 85.6732 53.1552 97.3266 49.8299 100.858C49.3211 106.801 57.5713 112.953 61.4752 115.513C59.0676 114.619 54.2493 114.309 45.8395 119.221C43.6415 121.555 46.3782 122.173 51.0969 121.954C53.3015 119.288 57.691 119.178 60.8434 118.458Z" fill="#C66622"/>
<path d="M86.1424 111.992C84.3467 113.701 81.7663 115.901 79.0828 117.031C78.727 117.314 78.3612 117.579 77.9921 117.829C78.0253 117.822 78.0652 117.815 78.0985 117.808C81.5867 117.095 88.1609 112.356 92.2477 105.283C90.3323 107.638 88.3272 109.909 86.1424 111.989V111.992Z" fill="#C66622"/>
<path d="M71.7571 39.4871C71.6973 39.5153 71.6374 39.5365 71.5776 39.5718C70.4004 40.2216 69.3297 41.9025 69.0736 43.4669C69.2465 43.5304 69.4228 43.5975 69.5924 43.6611C69.6522 43.6858 69.7087 43.7141 69.7686 43.7423C70.9125 43.6152 71.4645 42.3474 71.7738 41.2245C71.7605 40.6453 71.7505 40.0627 71.7605 39.4871H71.7571Z" fill="#FAB380"/>
<path d="M48.8689 63.26C48.5331 63.4966 48.2039 63.7332 47.8846 63.9733C48.4865 64.4359 49.1782 64.8668 49.9563 65.2517C49.5506 64.616 49.1882 63.9521 48.8723 63.26H48.8689Z" fill="#FAB380"/>
<path d="M74.3708 66.6076C74.6169 67.6776 75.9669 68.6346 76.7384 69.2631C78.1882 70.4497 79.7777 71.4243 81.2209 72.6179C84.4565 75.2876 87.1001 79.3098 89.235 82.9894C91.4862 86.8703 92.5503 90.843 93.069 95.3419C93.1489 96.0341 93.212 96.7262 93.2519 97.4184C93.6842 93.8129 93.5479 90.165 92.8496 86.6443C91.852 83.0318 90.4653 79.4969 88.0944 76.6577C87.9614 76.4988 87.8749 76.3328 87.8217 76.1633C86.0526 73.9669 84.1705 71.8799 82.1055 69.9623C80.9782 68.9171 79.7844 67.9036 78.5175 67.0031C78.3512 66.989 78.1783 66.9325 78.0054 66.8301C76.9878 66.2333 75.9636 65.5094 74.823 65.1951C74.4373 65.4387 74.271 66.1732 74.3708 66.6076Z" fill="#FAB380"/>
<path d="M52.161 55.6605C53.0792 55.6605 53.8236 54.87 53.8236 53.8948C53.8236 52.9197 53.0792 52.1292 52.161 52.1292C51.2427 52.1292 50.4983 52.9197 50.4983 53.8948C50.4983 54.87 51.2427 55.6605 52.161 55.6605Z" fill="#190D04"/>
<path d="M51.3297 53.5418C51.6052 53.5418 51.8285 53.3047 51.8285 53.0121C51.8285 52.7196 51.6052 52.4824 51.3297 52.4824C51.0543 52.4824 50.8309 52.7196 50.8309 53.0121C50.8309 53.3047 51.0543 53.5418 51.3297 53.5418Z" fill="#FEF2EA"/>
<path d="M44.5128 58.8388C44.5128 58.8388 41.6464 56.4269 44.8453 55.6606C46.1688 56.1692 44.5128 58.8388 44.5128 58.8388Z" fill="#633311"/>
<path d="M49.5008 64.8421C49.5008 64.8421 51.8285 66.9609 52.4936 61.6639C52.4936 56.7201 48.5032 63.0764 47.5056 62.7233C46.508 62.3702 47.8381 64.1358 49.5008 64.8421Z" fill="#7C4016"/>
<path d="M52.8959 58.4856C55.8252 58.4856 58.1998 55.8769 58.1998 52.659C58.1998 49.441 55.8252 46.8323 52.8959 46.8323C49.9667 46.8323 47.592 49.441 47.592 52.659C47.592 55.8769 49.9667 58.4856 52.8959 58.4856Z" stroke="#3E655D" stroke-width="2.2" stroke-miterlimit="10"/>
<path d="M52.5634 58.1326C55.4927 58.1326 57.8673 55.5239 57.8673 52.3059C57.8673 49.0879 55.4927 46.4792 52.5634 46.4792C49.6342 46.4792 47.2595 49.0879 47.2595 52.3059C47.2595 55.5239 49.6342 58.1326 52.5634 58.1326Z" stroke="#65847D" stroke-width="2.2" stroke-miterlimit="10"/>
<path d="M44.8453 53.8949C44.8453 53.8949 45.8429 53.1887 47.1731 53.8949" stroke="#65847D" stroke-width="1.66" stroke-miterlimit="10" stroke-linecap="round"/>
<path d="M5.93909 66.9607C5.93909 66.9607 6.60415 78.2609 10.5945 91.3268C10.5945 91.3268 7.26921 70.492 8.26681 68.3732C8.26681 67.667 5.93909 66.9607 5.93909 66.9607Z" fill="#B77B53"/>
</g>
<defs>
<clipPath id="clip0_795_14266">
<rect width="148" height="122" fill="white"/>
</clipPath>
</defs>
</svg>
