<svg width="269" height="584" viewBox="0 0 269 584" fill="none" xmlns="http://www.w3.org/2000/svg">
<path d="M435.499 239.573C433.253 233.956 426.77 230.373 421.972 233.233C419.291 234.834 416.608 236.419 413.936 238.019C414.479 237.188 415.022 236.366 415.554 235.528C423.204 223.585 406.55 209.124 398.917 221.056C387.837 238.349 375.513 254.372 361.937 268.972C354.738 273.275 347.549 277.594 340.375 281.946C333.315 286.228 326.44 290.785 319.921 295.928C320.178 295.096 320.434 294.264 320.681 293.425C324.185 281.712 327.125 269.756 329.538 257.612C330.794 251.283 331.958 244.933 332.943 238.521C333.061 237.772 333.167 237.061 333.275 236.368C334.81 231.983 336.337 227.608 337.872 223.224C339.737 217.907 337.351 211.251 332.992 208.449C328.269 205.418 323.309 206.859 320.027 211.367C316.393 216.366 314.627 222.745 313.436 229.385C303.634 257.467 294.027 285.662 285.592 314.41C285.325 300.884 284.685 287.37 282.496 273.932C278.92 252.019 271.364 230.855 258.213 214.338C258.294 212.464 258.001 210.54 257.283 208.752C254.891 202.765 248.747 200.004 243.755 202.412C240.226 204.116 237.448 207.363 236.305 211.688C234.903 216.996 236.35 221.996 240.034 225.693C243.168 228.833 245.928 232.376 248.366 236.21C246.876 239.367 246.711 243.374 248.029 247.057C257.195 272.59 259.908 300.308 262.096 327.563C252.875 315.017 241.429 304.779 232.85 291.529C230.53 287.945 226.564 286.491 223 287.15C219.434 284.165 215.637 281.474 211.557 279.04C206.341 275.932 200.973 273.231 195.755 270.115C192.773 268.333 192.065 267.898 189.368 265.76C187.037 263.915 184.346 261.35 183.218 259.971C179.335 255.254 173.328 253.692 168.922 257.837C165.023 261.504 163.883 269.712 167.789 274.462C175.536 283.883 184.916 289.92 194.873 295.414C204.013 300.463 211.946 304.252 218.954 312.984C227.173 323.224 233.92 335.389 240.461 347.078C246.233 357.414 251.583 368.073 256.579 378.928C256.714 379.344 256.847 379.752 256.982 380.168C261.424 412.094 264.034 444.175 264.78 476.245C264.775 476.62 264.761 476.997 264.757 477.38C262.82 487.848 260.021 498.037 256.819 508.047C254.34 513.074 251.455 517.843 248.051 522.245C246.97 523.639 246.417 525.22 246.231 526.869C244.559 527.827 243.091 529.254 241.922 531.418C238.815 537.182 240.065 547.093 246.754 549.567C259.876 554.419 273.477 555.27 286.331 551.737C291.755 551.819 296.81 551.29 301.978 549.105C305.069 547.797 306.8 544.879 307.362 541.542C307.394 541.519 307.419 541.506 307.451 541.484C310.927 538.959 312.45 534.674 311.95 529.807C306.557 477.056 303.39 424.162 302.555 371.305C308.797 355.621 317.336 341.315 327.877 329.155C333.747 324.431 340.061 320.289 345.788 315.507C354.552 308.186 362.978 300.347 371.034 292.003C372.028 290.979 373.012 289.947 373.986 288.908C392.889 277.621 411.813 266.349 430.717 255.07C435.491 252.224 437.952 245.729 435.486 239.548L435.499 239.573Z" fill="#8C6239"/>
<path d="M273.407 318.643C272.017 317.768 270.945 316.408 270.622 314.578C268.791 304.078 268.094 293.406 267.226 282.786C264.613 275.167 263.559 266.9 261.729 259.153C261.38 257.683 260.989 256.228 260.581 254.776C257.179 247.304 253.175 240.101 249.325 232.848C246.987 228.438 250.361 224.834 254.234 224.271C254.236 224.172 254.232 224.084 254.243 223.984C254.443 220.025 258.073 218.163 261.402 218.592C260.379 217.144 259.325 215.728 258.223 214.346C258.304 212.472 258.011 210.548 257.293 208.76C254.901 202.772 248.757 200.011 243.765 202.419C240.236 204.123 237.458 207.37 236.315 211.695C234.913 217.004 236.36 222.004 240.044 225.701C243.178 228.84 245.938 232.384 248.376 236.217C246.886 239.375 246.721 243.382 248.039 247.065C256.306 270.089 259.322 294.875 261.44 319.503C262.197 322.488 262.893 325.473 263.094 328.551C263.326 332.124 261.378 335.084 257.752 335.805C255.415 336.268 252.721 334.968 251.366 332.92C249.471 333.12 247.511 332.483 246.079 330.634C236.868 318.737 227.169 304.866 213.26 298.129C202.797 293.059 187.697 292.668 180.483 282.417C176.785 277.154 182.117 271.069 186.864 271.977C186.908 269.743 187.907 267.524 189.487 265.84C189.456 265.81 189.427 265.796 189.396 265.765C187.064 263.92 184.373 261.355 183.245 259.976C179.362 255.258 173.356 253.697 168.95 257.841C165.05 261.508 163.91 269.717 167.816 274.467C175.563 283.888 184.943 289.924 194.9 295.419C204.041 300.468 211.973 304.257 218.982 312.989C227.201 323.229 233.947 335.394 240.488 347.083C246.261 357.419 251.61 368.078 256.607 378.933C256.741 379.349 256.875 379.757 257.009 380.172C261.451 412.099 264.062 444.18 264.808 476.25C264.802 476.625 264.788 477.001 264.784 477.385C262.848 487.853 260.048 498.042 256.847 508.052C254.367 513.079 251.482 517.848 248.078 522.25C246.997 523.644 246.445 525.224 246.259 526.874C244.586 527.832 243.118 529.258 241.95 531.423C238.842 537.187 240.093 547.098 246.781 549.572C252.96 551.856 259.244 553.251 265.502 553.714C266.18 549.852 266.842 546.001 267.3 542.101C267.45 540.804 267.89 539.766 268.495 538.944C268.576 534.611 269.751 530.441 271.479 526.277C273.963 520.278 275.246 514.942 275.212 508.4C275.138 493.972 274.914 479.62 275.633 465.195C276.38 450.25 277.879 435.502 277.318 420.515C276.764 405.75 275.566 391.03 275.57 376.242C275.573 376.028 275.585 375.812 275.616 375.603C275.293 373.193 275.103 370.772 275.228 368.313C275.514 362.639 277.445 357.223 278.637 351.706C279.916 345.819 279.738 340.546 278.259 334.696C276.873 329.224 274.954 323.94 273.422 318.623L273.407 318.643Z" fill="#603813" stroke="#603813" stroke-miterlimit="10"/>
<path d="M541.751 154.814C535.269 152.88 528.438 151.871 521.804 152.747C519.884 149.325 516.855 146.472 512.855 144.739C509.113 143.117 504.731 142.439 500.406 142.376C495.436 140.184 490.019 138.862 484.635 138.337C480.771 137.963 476.574 137.978 472.351 138.47C473.677 131.365 472.232 123.986 466.629 117.339C464.974 115.373 462.998 113.634 460.8 112.142C461.128 109.785 461.228 107.338 461.057 104.807C460.471 96.0422 456.082 89.3525 449.895 84.549C447.488 79.8647 444.37 75.547 440.469 71.8294C428.663 60.5768 411.1 57.5321 395.854 62.6859C389.733 64.7581 384.016 68.7284 379.582 73.804C376.797 57.2675 364.875 42.5585 347.191 40.3069C335.326 38.7909 323.334 43.7076 316.671 53.5231C314.923 50.0657 312.845 46.721 310.374 43.5519C301.616 32.2896 288.12 24.5189 273.824 23.2571C269.097 22.8366 264.534 23.0858 260.158 23.9125C253.729 22.4417 246.837 23.4375 240.534 25.7244C231.028 29.167 222.762 36.4741 217.369 45.2054C215.116 45.4593 212.926 45.9529 210.861 46.7307C200.829 50.5294 196.114 59.496 195.386 69.2363C188.03 65.7153 179.365 65.725 171.834 69.3125C163.671 73.2009 157.647 80.9504 155.922 89.7646C153.067 89.9855 150.223 90.3383 147.438 90.789C137.868 92.344 130.175 95.2791 123.618 102.629C118.858 107.968 115.143 114.6 113.121 121.464C111.305 127.628 110.704 133.697 111.253 139.528C110.676 139.776 110.096 140.007 109.531 140.28C89.6713 149.62 77.8616 171.309 79.913 192.981C80.1559 195.572 80.6649 198.096 81.3926 200.533C76.9026 204.655 73.1832 209.621 70.565 215.204C68.2307 220.192 67.181 225.946 67.6902 231.516C63.7333 232.697 59.9134 234.428 56.3178 236.695C53.0966 238.726 50.2772 241.231 47.9559 244.079C42.413 249.483 38.1512 256.216 36.0859 263.381C33.9006 270.929 32.6816 279.728 35.6978 287.242C38.7713 294.898 46.0157 299.38 53.67 301.52C67.4241 305.367 81.5629 302.84 93.2787 294.705C93.5363 294.523 93.7826 294.326 94.0315 294.145C99.7519 298.28 106.637 300.813 113.705 300.975C124.468 301.225 135.627 297.513 144.296 290.795C153.713 301.119 169.869 301.769 181.271 294.029C187.404 289.87 192.038 283.116 194.356 275.744C195.34 275.648 196.326 275.506 197.289 275.271C208.203 272.701 216.481 264.358 219.235 253.517C220.166 249.856 220.657 245.996 220.585 242.185C235.439 249.74 253.194 250.529 268.24 241.254C277.819 245.141 288.74 245.197 298.409 240.892C299.059 240.597 299.707 240.285 300.344 239.956C291.787 249.811 295.953 265.228 306.719 273.459C316.306 280.792 330.624 282.433 340.942 275.945C344.439 275.493 347.845 274.44 350.945 272.783C352.533 272.559 354.121 272.211 355.691 271.749C363.722 276.245 373.375 277.929 382.539 277.451C395.144 276.797 408.123 270.634 415.766 260.402C423.58 263.942 432.105 265.299 440.65 262.279C444.795 260.81 448.518 258.266 451.586 255.055C451.747 255.173 451.9 255.302 452.059 255.411C465.489 264.973 484.559 263.156 497.12 252.96C502.325 248.729 506.412 242.958 509.261 236.431C509.443 236.457 509.631 236.464 509.822 236.488C515.977 241.074 524.147 243.91 531.476 245.199C542.433 247.13 551.978 242.541 559.221 234.659C570.374 222.53 579.936 205.753 577.421 188.765C574.768 170.819 558.039 159.666 541.75 154.806L541.751 154.814ZM331.214 165.971C331.28 166.05 331.345 166.129 331.402 166.21C331.22 166.362 331.039 166.514 330.855 166.658C330.728 166.758 330.47 166.939 330.166 167.164C330.525 166.771 330.874 166.37 331.213 165.962L331.214 165.971Z" fill="#609F92"/>
<path d="M198.021 60.8358C197.891 60.3923 197.777 59.9375 197.674 59.4901C196.905 61.2908 196.357 63.2002 195.96 65.1581C196.546 63.6792 197.227 62.2393 198.021 60.8358Z" fill="#41603C"/>
<path d="M299.089 240.557C298.657 234.031 299.447 227.506 302.026 220.851C302.885 218.645 303.928 216.473 305.133 214.374C303.991 213.551 302.898 212.639 301.899 211.642C297.312 213.953 292.089 215.078 287.229 214.722C281.118 214.281 274.481 210.276 270.693 205.597C266.783 200.767 265.425 195.3 265.284 189.397C265.237 188.852 265.173 188.319 265.091 187.779C265.064 187.721 265.035 187.645 264.998 187.579C264.948 187.542 264.897 187.497 264.846 187.46C264.786 187.416 264.717 187.373 264.657 187.328C263.761 186.948 262.874 186.567 261.957 186.225C260.365 185.96 259.444 185.762 258.989 185.644C257.388 185.433 255.773 185.314 254.16 185.256C251.041 185.5 247.948 185.971 244.897 186.667C243.841 187.05 242.789 187.46 241.751 187.903C240.957 188.247 240.183 188.614 239.405 189.008C238.422 189.755 237.441 190.51 236.469 191.273C236.187 191.645 235.905 192.018 235.643 192.405C227.677 203.915 211.6 205.125 200.606 197.739C195.907 194.58 192.91 189.941 191.523 184.816C188.488 185.314 185.408 185.462 182.354 185.197C180.257 185.008 178.191 184.619 176.188 184.051C176.158 184.091 176.139 184.139 176.109 184.179C168.832 194.996 151.222 197.856 141.072 189.513C139.87 188.529 138.649 187.593 137.366 186.719C136.611 186.211 135.826 185.742 135.072 185.242C132.257 183.382 137.636 186.562 137.724 186.674C136.32 184.83 131.147 183.586 129.013 182.807C127.796 182.368 126.561 181.986 125.328 181.613C124.886 181.52 124.444 181.427 124.003 181.342C121.657 180.925 119.308 180.668 116.935 180.539C115.837 180.644 114.752 180.782 113.667 180.974C113.467 181.067 113.266 181.151 113.074 181.234C112.76 181.397 112.367 181.573 111.898 181.769C111.204 182.365 110.542 182.991 109.902 183.65C105.288 188.361 97.4649 189.507 91.1908 189.055C89.2249 188.909 87.3186 188.451 85.5111 187.764C83.5811 187.853 81.638 187.739 79.7153 187.408C79.6934 189.256 79.754 191.117 79.9304 192.979C80.1733 195.569 80.6823 198.093 81.41 200.53C76.92 204.652 73.2006 209.619 70.5824 215.202C70.4943 215.384 70.425 215.573 70.3456 215.754C76.0965 213.356 82.1088 213.669 87.4834 215.826C92.8129 209.43 101.4 205.869 110.054 206.493C113.922 206.777 117.456 208.083 120.509 210.103C121.643 207.303 123.309 204.662 125.562 202.297C132.813 194.708 143.046 192.936 152.785 196.175C155.827 197.181 158.574 198.536 161.016 200.168C170.101 202.803 177.08 210.523 179.051 220.422C180.214 226.303 178.732 232.265 175.582 237.225C174.515 243.508 172.024 249.632 168.101 254.906C160.691 264.853 147.939 271.623 135.324 269.758C129.605 268.909 124.622 266.808 120.296 263.806C116.586 268.192 112.004 271.829 106.482 274.265C95.6981 279.033 83.3526 277.118 73.7366 270.761C65.8074 265.528 60.6447 257.736 56.2781 249.492C54.377 245.907 53.6819 242.102 53.9247 238.369C51.6938 240.053 49.703 241.969 47.992 244.082C42.4492 249.487 38.1873 256.22 36.122 263.384C33.9368 270.932 32.7178 279.732 35.7339 287.245C38.8075 294.901 46.0518 299.384 53.7062 301.523C67.4603 305.37 81.5991 302.844 93.3148 294.709C93.5725 294.527 93.8187 294.329 94.0676 294.149C99.788 298.284 106.673 300.817 113.741 300.979C124.505 301.228 135.663 297.516 144.332 290.798C153.749 301.123 169.905 301.772 181.307 294.032C187.441 289.874 192.074 283.12 194.393 275.747C195.376 275.651 196.362 275.51 197.325 275.274C208.239 272.704 216.517 264.362 219.271 253.52C220.203 249.86 220.694 245.999 220.622 242.189C235.475 249.744 253.23 250.532 268.276 241.258C277.855 245.144 288.776 245.201 298.445 240.896C298.678 240.789 298.902 240.675 299.134 240.559L299.089 240.557Z" fill="#3E655D"/>
<path d="M114.345 117.91C115.248 117.63 116.161 117.366 117.076 117.111C116.811 115.833 116.587 114.54 116.424 113.238C115.649 114.763 114.96 116.329 114.345 117.91Z" fill="#41603C"/>
<path d="M193.429 75.8856C193.669 73.5332 194.081 71.2077 194.708 68.9388C190.729 67.1662 186.395 66.4008 182.075 66.6577C186.347 69.0093 190.182 72.1844 193.429 75.8856Z" fill="#41603C"/>
</svg>
