<?xml version="1.0" encoding="UTF-8"?>
<svg id="Layer_2" data-name="Layer 2" xmlns="http://www.w3.org/2000/svg" viewBox="0 0 355.61 289.03">
  <defs>
    <style>
      .cls-1 {
        fill: #3e655d;
      }

      .cls-1, .cls-2, .cls-3 {
        stroke-width: 0px;
      }

      .cls-4 {
        fill: #603813;
        stroke: #603813;
        stroke-miterlimit: 10;
      }

      .cls-2 {
        fill: #609f92;
      }

      .cls-3 {
        fill: #8c6239;
      }
    </style>
  </defs>
  <g id="Tree">
    <g id="Tree-2" data-name="Tree">
      <path class="cls-3" d="M178.01,1.68c-3.3,1.28-6.6,2.55-9.9,3.83.76-.82,1.52-1.65,2.28-2.48.74-.81,1.34-1.66,1.84-2.53h-33.92c-10.91,10.71-22.32,20.67-34.23,29.82-8.87,3.46-17.73,6.93-26.58,10.44-8.71,3.45-17.26,7.25-25.53,11.78.44-.88.89-1.77,1.33-2.65,6.13-12.45,11.69-25.28,16.69-38.42,1.38-3.64,2.73-7.29,4.05-10.96h-29.65c-11.82,21.81-23.39,43.8-34.3,66.25,2.26-15.2,4.11-30.45,4.2-45.91.04-6.81-.27-13.62-.95-20.34H.5v288.36c4.01-52,9.92-103.78,17.78-155.19,9.95-16.38,22.21-30.77,36.3-42.39,7.46-4.18,15.31-7.62,22.62-11.89,11.19-6.53,22.11-13.72,32.69-21.53,1.3-.96,2.6-1.93,3.89-2.91,23.29-9.06,46.58-18.09,69.87-27.13,5.88-2.29,9.86-9.09,8.27-16.47-1.45-6.72-8.02-11.96-13.93-9.66Z"/>
      <path class="cls-4" d="M.5,282.09v6.9c.14-1.84.29-3.68.43-5.52-.15-.46-.29-.92-.43-1.38Z"/>
      <path class="cls-4" d="M45.38.5c4.07.51,7.68,3.92,5.88,8.85-.76,2.08-1.52,4.19-2.29,6.3,1.15-1.41,2.32-2.8,3.52-4.18,6.13-7.02,16.14,3.43,10.05,10.39-8.5,9.72-15.06,20.64-21.91,31.52-4.01,19.18-10.76,37.61-19.01,55.42,1.52-.92,3.06-1.83,4.63-2.69,6.95-13.98,14.76-27.32,23.83-39.9.04-1.69.61-3.35,1.79-4.64-.74-1.44-1.01-3.15-.57-4.92-.18-1.37.03-2.8.76-4.16-.03.02-.07.04-.1.05.44-.88.89-1.77,1.33-2.65,6.13-12.45,11.69-25.28,16.69-38.42,1.38-3.64,2.73-7.29,4.05-10.96h-28.66Z"/>
      <path class="cls-4" d="M178.01,1.68c-3.3,1.28-6.6,2.55-9.9,3.83.76-.82,1.52-1.65,2.28-2.48.74-.81,1.34-1.66,1.84-2.53h-33.91c-9.72,9.53-19.84,18.46-30.35,26.76,4.56-1.86,9.29-2.92,14.22-1.73.38.09.75.23,1.09.39,5.24-2.74,10.61-5.22,16.26-7.13,8.84-2.99,12.36,11.04,3.61,14-14.52,4.91-27.48,14.25-40.86,21.57-7.76,4.25-15.6,8.34-23.67,11.9-9.31,7.2-17.73,15.26-23.77,24.88,7.38-4.11,15.14-7.53,22.36-11.75,11.19-6.53,22.11-13.72,32.69-21.53,1.3-.96,2.6-1.93,3.89-2.91,23.29-9.06,46.58-18.09,69.87-27.13,5.88-2.29,9.86-9.09,8.27-16.47-1.45-6.72-8.02-11.96-13.93-9.66Z"/>
      <path class="cls-2" d="M33,.5c-1.01,8.34,2.13,17.59,8.46,24.38,9.34,10.02,25.04,14.58,37.82,9.26,4,.16,8-.38,11.79-1.65,1.82.05,3.66-.04,5.5-.26,8.13,6.56,18.61,10.27,28.96,11.47,14.22,1.65,29.91-2.78,40.4-12.79,8.07,5.44,17.35,8.58,27.48,6.82,4.91-.86,9.56-3,13.6-6.01.15.16.31.33.46.49,13.21,13.25,34.88,14.84,50.87,5.79,6.63-3.75,12.29-9.43,16.71-16.2.2.06.41.11.62.17,6.02,6.3,14.62,11.03,22.58,13.86,11.9,4.24,23.43.91,33.04-6.54,9.68-7.51,18.97-17.39,24.34-28.8H33Z"/>
      <path class="cls-1" d="M192.45.5c-11.03,12.91-28.35,20.09-45.35,15.02-3.08-.92-6-2.11-8.76-3.56-2.45,2.34-5.18,4.47-8.21,6.34-12.28,7.62-28.23,10.16-42.18,6.28-2.07-.58-4.06-1.35-5.96-2.28-2.41,1.41-5,2.51-7.63,3.31-6.87,2.1-15.83.44-21.86-3.23-5.42-3.3-11.88-10.62-12.78-17.21-.22-1.57-.39-3.13-.53-4.68h-6.18c-1.01,8.34,2.12,17.59,8.45,24.38,9.34,10.02,25.04,14.58,37.82,9.26,4,.16,8-.38,11.79-1.65,1.82.05,3.66-.04,5.5-.26,8.13,6.56,18.61,10.27,28.96,11.47,14.22,1.65,29.91-2.78,40.4-12.79,8.07,5.44,17.35,8.58,27.48,6.82,4.91-.86,9.56-3,13.6-6.01.15.16.31.33.46.49,13.21,13.25,34.88,14.84,50.87,5.79,6.63-3.75,12.29-9.43,16.71-16.2.2.06.41.11.62.17,6.02,6.3,14.62,11.03,22.58,13.86,11.9,4.24,23.43.91,33.04-6.54,9.68-7.51,18.97-17.39,24.34-28.8h-163.16Z"/>
    </g>
  </g>
</svg>