<?xml version="1.0" encoding="UTF-8"?>
<svg id="Layer_2" data-name="Layer 2" xmlns="http://www.w3.org/2000/svg" viewBox="0 0 351.88 646.1">
  <defs>
    <style>
      .cls-1 {
        fill: #48826d;
      }

      .cls-1, .cls-2 {
        stroke: #3e655d;
        stroke-miterlimit: 10;
      }

      .cls-2 {
        fill: #3e655d;
      }

      .cls-3 {
        fill: #311a09;
        stroke-width: 0px;
      }
    </style>
  </defs>
  <g id="Tree2">
    <g id="Tree2-2" data-name="Tree2">
      <path class="cls-3" d="M211.02,610.44c-.52-1.68-.99-3.06-1.35-4.32.04-.43.08-.87.11-1.3.43-6.72-.58-13.6-1.07-20.3-.51-6.83-.99-13.67-1.38-20.51-.77-13.66-1.14-27.35-.46-41.02.66-13.26,2.33-26.93-2.77-39.6-3.11-7.73-11.73-13.13-19.83-8.07-1.36.85-2.55,1.79-3.6,2.8-3.3-2.55-7.72-3.64-11.9-2.49-7.68,2.11-10.57,9.38-9.43,16.61,3.78,23.96,1.25,48.63-.9,72.63-.16,1.77-.32,3.54-.47,5.32-1.81,2.26-2.89,5.04-2.61,8.02.07.76.11,1.5.16,2.25-.06.41-.12.82-.16,1.24-.33,3.72-1.77,8.59-3.71,12.33-1.04,2.01-1.77,4.49-1.86,6.95-1.86,5.33-2.76,11.31-1.39,16.79-.52,2.09-.45,4.33.44,6.6.38.95.75,1.91,1.13,2.86,2.18,5.55,6.85,9.72,12.62,9.91,3.35,4.34,7.78,7.62,13.77,8.63,8.85,1.5,17.01-1.9,23.49-7.48.01,0,.02,0,.03,0,7.44.37,13.29-6.49,13.5-13.5.14-4.89-.9-9.69-2.35-14.33Z"/>
      <path class="cls-2" d="M349.94,488.98c-3.71-8.23-10.81-13.39-18.97-16.66-2.86-1.15-5.95-.78-8.7.49-2.42-1.2-4.84-2.4-7.25-3.6-.06-1.95-.58-3.91-1.57-5.74.72-1.6,1.14-3.41,1.19-5.43.02-.87-.02-1.16-.06-1.22.05-.16.11-.39.19-.71,0,0,.88-2.86.66-2.53.5-1.09,1.16-2.13,1.78-3.14.31-.5.46-.79.52-.94.14-.09.39-.29.83-.7.24-.22,2.27-2.04,1.93-1.86.82-.59,1.71-1.1,2.6-1.58-.24.14,1.27-.56,1.79-.72.66-.21,1.33-.39,2.01-.53-1.31.09-1.12.08.55-.04,7.28-.49,13.5-5.85,13.5-13.5,0-6.96-6.19-13.95-13.5-13.5-6.28.38-12.29.75-18.22.64.23-.91.39-1.84.48-2.78.9-.96,1.82-1.91,2.76-2.68.39-.31,1.08-.79,1.78-1.24,6.91.77,13.64-.35,18.98-5.96,6.23-6.54,4.68-21.13-5.96-22.56-5.27-.71-10.2-.49-14.86.58-.55-.17-1.1-.33-1.65-.5-4.13-1.22-8.23-2.55-12.29-4.02-3.82-1.38-7.57-2.89-11.27-4.52.19-.13.39-.26.58-.4,4.98-1.77,9.28-5.55,10.08-11.04.8-5.49-.08-10.63-4.84-14.19-1.45-1.08-3.03-1.85-4.68-2.3.08-.05.15-.11.21-.15.2-.07.56-.23,1.17-.53,9.8-4.8,7.66-18.01,0-23.31-4.33-2.99-9.4-4.36-14.46-5.51-2.2-.5-4.39-1.05-6.54-1.73-.95-.3-1.89-.64-2.83-.96-1.7-.58-.64-.19-1.62-.63-6.28-2.82-10.7-5.81-14.17-10.16,2.58-.49,5.02-1.69,6.84-3.62,11.31-11.93,22.62-23.86,33.93-35.79,1.6-1.4,3.08-3.08,4.41-5.16,8.27-12.9-10.66-27.48-21.2-16.36l-1.46,1.54c-1.33.37-2.67.69-4.03.96-4.27.87-8.38,1.81-12.3,3.84-.62.32-1.22.68-1.81,1.06.08-2.29.11-4.59-.12-6.79.08-.54.15-1.08.23-1.61.42-2.89.2-5.79-.69-8.37,1.53-3.54,3.02-7.1,4.39-10.71,1.2-3.14,2.67-6.52,3.79-9.97.16-.06.32-.12.49-.19,6.51-2.61,10.19-6.33,12.75-12.89,1.69-4.31-.27-10.04-3.69-13.39.86-3.62,1.33-7.33,1.54-11.07.29-5.32-3.63-10.37-8.3-12.34-5.18-2.19-10.6-.88-14.75,2.79-3.75,3.31-7.03,7.09-9.98,11.11-2.32.9-4.37,2.46-5.94,4.47-.25-.03-.48-.06-.66-.08-4.18-.5-8.26-.07-12.2,1.41-2.01.76-3.88,1.71-5.66,2.81.21-1.56.38-3.06.5-4.46.07-.81.02-1.62-.11-2.41,5.05-11.51,10.53-22.84,16.38-33.98,1.53-2.93,2.01-6.21,1.47-9.29,1.53-1.92,2.93-3.92,4.08-6.03,4.26-7.83,7.35-16.55,10.93-24.71,2.93-6.67,1.96-14.49-4.84-18.47-5.73-3.35-15.53-1.87-18.47,4.84-1.97,4.49-3.94,8.98-5.91,13.47-1.82,4.16-3.3,8.98-5.87,12.74-2.63,3.85-6.33,7.6-10.03,11.26.84-2.75,1.46-5.54,1.43-8.46-.02-1.75-.25-3.38-.65-4.9,2.69-5.59,4.99-11.37,6.91-17.27,1.24-3.81.38-7.75-1.73-10.89,1.13-2.12,2.22-4.25,3.12-6.53,2.71-6.86,2.85-14.74-.77-21.34-1.67-3.05-4.05-5.83-6.99-7.72-.43-.27-2.97-1.28-5.6-2.15-.71-2.76-1.65-5.34-2.98-7.94-.43-.83-.97-1.58-1.59-2.27-.03-.29-.05-.59-.08-.88-.03-.42-.05-.84-.08-1.26-.03-.5-.09-.99-.17-1.48-.14-1.53-.29-3.05-.43-4.58-.16-2.64-.4-5.3-.73-7.98,0-.04,0-.09-.01-.13h0c-.15-1.19-.3-2.38-.48-3.59-.05-.36-.14-.7-.23-1.04-.02-1.13-.06-2.27-.08-3.4-.15-7.29-6.1-13.5-13.5-13.5s-13.65,6.18-13.5,13.5c.13,6.35.28,12.69.45,19.04-.98,4.13-1.77,8.29-2.44,12.48-1.85,1.17-3.48,2.72-4.74,4.46-8,11.07-14.48,23.81-11.09,37.84,1.31,5.4,4.25,10.26,7.55,14.65,1.12,1.48,2.28,2.93,3.41,4.41.56.72.58.74.05.06.28.38.56.75.84,1.13.45.63.89,1.27,1.32,1.91.35,3.25,1.76,6.29,4.06,8.53-.03.94-.08,1.87-.12,2.81-.72-.89-1.45-1.76-2.22-2.6-5.83-6.4-13.72-11.1-17.44-18.78-.74-1.74-1.47-3.47-2.21-5.21-2.59-6.1-11.38-7.93-16.86-5.52-5.74,2.52-10.14,9.5-7.82,15.93.78,2.14,1.64,4.2,2.59,6.19,3.28,8.07,6.25,16.55,10.34,24.15,2.47,4.59,6.87,8.62,12.08,9.7.37,1.07.76,2.14,1.16,3.2,2.42,6.47,5.53,15,9.79,22.77-.74,2.15-1.82,4.28-3.31,6.51-.93,1.38-1.84,2.74-2.71,4.11-.02-.02-.04-.05-.05-.07-1.35-1.82-2.73-3.62-4.14-5.4-2.78-3.5-5.75-6.83-8.93-9.97-6.38-6.27-13.57-11.79-21.13-16.56-9.31-5.87-24.26,4.08-19.83,15.25,1.07,2.7,2.35,5.15,3.8,7.41-.51,1.42-.81,3.01-.81,4.8,0,10.98-.35,23.11,7.71,31.7,1.82,1.94,3.99,3.58,6.35,4.82.24.12,4.29,2.07,6.79,2.91.09.23.24.39.16.05,0,0,0,0,0,0,.7,2.03,1.21,4.13,1.94,6.16,1.18,3.28,2.7,6.07,4.48,8.53-2.25-.02-4.48,0-6.64.05-18.52.34-37.04,3.9-54.3,10.61-5.63,2.19-9.91,6.64-9.91,13.02,0,5.62,4.15,11.88,9.91,13.02l21.06,4.16c2.26.45,4.54.85,6.8,1.31.09,1.59.43,3.14,1.05,4.54.82,1.87,2.23,3.77,3.97,5.29-8.02,4.8-17.18,10.39-17.18,20.4,0,.8.07,1.58.21,2.35-.57.88-1.14,1.75-1.7,2.63-7.69,11.87,7.14,24.5,18.47,18.47,7.12-3.79,14.22-7.65,21.34-11.44-1.43,2.48-2.84,4.99-4.22,7.5-4.81,8.76-9.37,17.39-15.35,24.76-6.1,2.11-12.42,4.16-17.96,7.4-3.68,2.16-7.26,4.82-10.41,7.91-.98-.03-2.03-.06-3.2-.08-9.32-.12-15.51,5.03-21.95,11.08-5.81,5.45-11.61,10.91-17.42,16.36-4.67,4.38-5.02,11.9-1.63,17.08-2.95,3.05-4.49,7.68-3.89,11.63,1.03,6.87,6.38,11.26,13.26,11.71,4.96.32,9.57-.65,13.87-2.44,2.43-.5,4.86-1.03,7.28-1.59.2.28.38.56.59.83,3.04,3.9,6.89,6.29,11.09,7.48-.41.3-.66.5-.35.38-8.41,3.41-17.4,3.78-25.54,8.23-4.4,2.4-8.42,5.65-11.82,9.43-5.55,1.5-10.4,5.77-12.85,12.06-.11.29-.18.59-.27.88-.91.07-1.82.21-2.7.4-8.47,1.84-14.14,9.41-13.82,18.08.6,16.16,18.16,21.03,31.46,19.15,10.98-1.55,20.54-7.24,30.17-12.37,8.01-4.26,15.45-7.31,24.37-4.93,2.92.78,5.28,2.05,7.81,3.43-4.84,4.92-9.26,10.25-12.98,16.28-6.9,11.2,7.11,26.03,18.47,18.47,5.19-3.45,10.24-7.11,15.15-10.94,1.05,1.46,2.41,2.69,4.14,3.49,9.53,4.4,19.79,5.97,30.06,3.07,4.58-1.3,8.9-3.42,12.71-6.25,1.31-.98,2.6-1.99,3.87-3.02-.84.58-.6.41.72-.52.1-.08.18-.14.27-.21,3.49.66,10.05,1.22,14.78-.11,4.81-1.36,9.49-3.66,14.13-5.51,1.59-.63,3.75-1.16,5.5-1.94,4.11,2.46,8.86,3.28,13.59,1.92,2.37-.68,4.39-1.9,6.24-3.38,6.59,7.8,14.27,15.28,25.62,12.6.26-.06.52-.14.78-.21,4.99,5.55,11.78,8.57,19.29,8.43,7.61-.15,16.98-2.43,21.1-9.47,1.32-2.25,2.05-4.54,2.29-6.76,3.63-.32,7.17-1.3,10.59-3.37,3.1-1.87,5.51-4.26,7.24-7,1.3.64,2.6,1.29,3.9,1.93l19.68,9.76c12.65,6.27,24.01-6.17,18.47-18.47ZM91.87,270.08c-1.02-1.06-.79-2.69,3.6-6.72-1.91,1.75-3.1,4.16-3.6,6.72Z"/>
      <path class="cls-1" d="M179.4,27.32c-1.47,16.15-7.07,31.25-10.07,47.09-.21,1.09-.36,2.18-.57,3.27-.08,1.72-.32,3.44-.38,5.16-.02.63-.02,1.25-.01,1.87,2.77-3.37,6.99-5.52,11.68-5.73,8.07-.36,15.09,7.17,15.03,15.03-.02,2.77-.18,5.54-.28,8.31-.05,1.34-.09,2.68-.07,4.02.02,1.32.69,5.38-.19.16,1.38,8.15-1.97,15.44-9.97,18.3.92,1.06,1.8,2.16,2.67,3.28,1.77-.72,3.61-1.15,5.36-1.22,3.74-.17,8.02,1.8,10.63,4.4,3.06,3.06,3.9,6.5,4.4,10.63.19,1.57.28,3.15.33,4.73,10.1-15.53,25.08-28.31,39.69-39.65.43-1.01.86-2.02,1.29-3.02,2.93-6.67,1.96-14.49-4.84-18.47-5.73-3.35-15.53-1.87-18.47,4.84-1.97,4.49-3.94,8.98-5.91,13.47-1.82,4.16-3.3,8.98-5.87,12.74-2.63,3.85-6.33,7.6-10.03,11.26.84-2.75,1.46-5.54,1.43-8.46-.02-1.75-.25-3.38-.65-4.9,2.69-5.59,4.99-11.37,6.91-17.27,1.24-3.81.38-7.75-1.73-10.89,1.13-2.12,2.22-4.25,3.12-6.53,2.71-6.86,2.85-14.74-.77-21.34-1.67-3.05-4.05-5.83-6.99-7.72-.43-.27-2.97-1.28-5.6-2.15-.71-2.76-1.65-5.34-2.98-7.94-.43-.83-.97-1.58-1.59-2.27-.03-.29-.05-.59-.08-.88-.03-.42-.05-.84-.08-1.26-.03-.5-.09-.99-.17-1.48-.14-1.53-.29-3.05-.43-4.58-.16-2.64-.4-5.3-.73-7.98,0-.04,0-.09-.01-.13h0c-.15-1.19-.3-2.38-.48-3.59-.05-.36-.14-.7-.23-1.04-.02-1.13-.06-2.27-.08-3.4-.15-7.29-6.1-13.5-13.5-13.5-6.64,0-12.63,5.26-13.41,11.82,7.16.57,14.27,7.64,13.61,15.01Z"/>
      <path class="cls-1" d="M327.45,417.11c-6.28.38-12.29.75-18.22.64.23-.91.39-1.84.48-2.78.9-.96,1.82-1.91,2.76-2.68.39-.31,1.08-.79,1.78-1.24,6.91.77,13.64-.35,18.98-5.96,6.23-6.54,4.68-21.13-5.96-22.56-5.27-.71-10.2-.49-14.86.58-.55-.17-1.1-.33-1.65-.5-1.56-.46-3.1-.95-4.65-1.44-5.48,4.15-11.99,7.05-18.7,8.81-10.53,2.77-21.59,3.05-31.96,6.52-7.73,2.58-16.43-2.98-18.49-10.5-2.23-8.13,2.8-15.92,10.5-18.49,9.22-3.08,18.98-3.66,28.43-5.68,2.34-.5,4.67-1.08,6.95-1.83.75-.25,3.94-1.82.73-.15,1.01-.53,2.04-.98,3.02-1.56.77-.45,2.73-2.22,1.14-.69.65-.62,1.3-1.24,1.95-1.86.09-.09.17-.15.24-.22.05-.14.12-.3.21-.5.51-1.14,1.19-2.21,1.71-3.35.46-1.02,1.07-1.92,1.78-2.73-.19-.16-.38-.32-.59-.48-1.45-1.08-3.03-1.85-4.68-2.3.08-.05.15-.11.21-.15.2-.07.56-.23,1.17-.53,9.8-4.8,7.66-18.01,0-23.31-4.33-2.99-9.4-4.36-14.46-5.51-2.2-.5-4.39-1.05-6.54-1.73-.95-.3-1.89-.64-2.83-.96-1.7-.58-.64-.19-1.62-.63-2.66-1.19-4.97-2.42-7.03-3.77-4.02-.36-8.02-.77-12.08-.4-7.46.68-13.85-6.21-14.76-13.04-1-7.42,3.56-14.36,10.77-16.49,6.12-1.81,12.41-2.68,18.7-3.69,3-.49,6-1,8.95-1.74,3.09-.77,5.62-1.66,7.21-2.47,2.87-1.45,5.99-2.05,9-1.81,1.95-2.05,3.89-4.11,5.84-6.16,1.6-1.4,3.08-3.08,4.41-5.16,8.27-12.9-10.66-27.48-21.2-16.36l-1.46,1.54c-1.33.37-2.67.69-4.03.96-.32.06-.64.13-.95.2-2.16,2.14-4.44,4.15-6.83,6.05-2.19,1.74-4.48,3.64-6.84,5.19-1.97,2.18-4.47,3.84-7.15,4.58-8.33,2.29-15.64-2.9-18.49-10.5-2.66-7.1,1.57-14.54,7.5-18.35,3.87-2.49,5.05-3.1,7.96-5.74,3.36-3.04,6.41-6.38,9.26-9.89.11-.13.82-1.05,1.15-1.46.31-.42,1.07-1.45,1.18-1.59,1.45-1.97,2.87-3.95,4.29-5.94,3.65-5.11,9.4-8.15,15.31-7.27.13-.3.25-.6.38-.91,1.69-4.31-.27-10.04-3.69-13.39.86-3.62,1.33-7.33,1.54-11.07.29-5.32-3.63-10.37-8.3-12.34-5.18-2.19-10.6-.88-14.75,2.79-3.75,3.31-7.03,7.09-9.98,11.11-2.32.9-4.37,2.46-5.94,4.47-.25-.03-.48-.06-.66-.08-1.88-.23-3.74-.25-5.58-.09-1.82,2.55-3.76,5.02-5.91,7.31-4.54,4.84-12.59,5.64-18.22,2.35-2.8-1.64-4.75-3.98-5.92-6.67-1.58,1.42-3.45,2.52-5.55,3.2-2.88,3.11-7.19,5.01-11.55,5.52-8.95,1.06-18.45-3.41-22.78-11.42-2.86.6-5.94.4-8.75-.52-.32.48-.64.97-.95,1.45-.02-.02-.04-.05-.05-.07-.7-.94-1.42-1.86-2.14-2.79-2.08-1.23-3.84-2.93-4.99-5.09-.43-.81-.8-1.62-1.14-2.43-1.55-1.74-3.14-3.43-4.8-5.06-6.38-6.27-13.57-11.79-21.13-16.56-5.77-3.64-13.7-1.19-17.85,3.84,6.69-.16,13.61,4.2,15.12,10.97,1.05,4.72,2.09,9.44,3.4,14.1.58,2.06,1.25,4.08,1.93,6.11.15.46.3.86.4,1.13.3.66.6,1.33.94,1.98.87,1.7,2.05,3.22,2.94,4.88.07.07.15.13.24.22.7.65,1.37,1.38,2.06,2.05.14.14.28.26.4.37.39.25.78.5,1.18.75,3.83-2.24,8.53-3.26,12.89-2.06,3.52.97,6.8,3.26,9.27,5.87.94.99,1.78,2.16,2.58,3.28.08,0,.17,0,.25,0,2.57,0,5.13-.29,7.69-.32,6.68-.07,13.58,1.33,19.1,5.24,6.65,4.7,9.8,13.04,5.39,20.57-3.85,6.58-13.94,10.09-20.57,5.39-1.07-.6-1.5-.91-1.32-.93-.47-.12-.68-.19-.61-.21-1.43-.08-2.9.04-4.3.1-4.07.18-7.89.21-11.93-.34-4.47-.6-8.47-2.15-11.92-4.86-3.15.74-6.15.46-9.1-.33.73,1.37,1.54,2.65,2.41,3.85-2.25-.02-4.48,0-6.64.05-18.52.34-37.04,3.9-54.3,10.61-4.95,1.92-8.85,5.6-9.73,10.8,4.47-2.58,11.13-2.53,15.84.27,5.38-3.55,11.55-5.78,18.1-3.98,3.54.97,6.5,2.79,8.94,5.14,5.27-3.64,12.7-4.5,17.96-1.01,5.48-3.02,11.91-3.57,18.26.12,3.97,2.3,6.54,5.44,8.2,9.04,1.12.34,2.19.81,3.13,1.44,2.8,1.87,5.07,4.01,7.02,6.45,2.85-3.69,7.4-6.15,12.07-6.15,2.59,0,4.98.66,7.05,1.8,2.61-4.75,7.9-8.07,13.35-8.07,8.43,0,14.67,6.89,15.03,15.03.33,7.33-5.78,13.65-12.75,14.82,1.64,1.69,2.9,3.8,3.58,6.29,2.08,7.57-2.58,16.69-10.5,18.49-9.96,2.26-21.37-.41-30.77-3.94-4.36-1.64-8.41-3.5-11.77-6.59-7.2,4.12-17.13,1.81-21.07-5.38-3.81,1.14-8.24.85-11.83-.85-1.05.94-2.17,1.84-3.36,2.69-6.26,4.47-13.88,1.94-18.54-3.12-1.57,2.44-2.54,5.21-2.54,8.45,0,.8.07,1.58.21,2.35-.57.88-1.14,1.75-1.7,2.63-7.64,11.79,6.96,24.34,18.26,18.57,2.75-4,7.27-6.46,12.2-6.53,3.12-1.68,6.23-3.35,9.36-5.02-1.17,2.02-2.3,4.06-3.43,6.1,4.48,1.8,7.32,5.58,8.63,10.25.78,1.81,1.28,3.8,1.48,5.91.42,4.41.14,8.76-.29,13.12,1.04.59,2.03,1.3,2.95,2.14,3.12,2.88,5.59,6.4,8.02,9.86.3.43,2.39,2.98,1.96,2.59.38.41.75.83,1.16,1.22.19.12.43.27.72.46,3.67,2.25,6.12,5.88,7.01,9.85.42.17.84.36,1.25.57,2.31-5.41,8.05-9.33,13.97-9.33.08,0,.16.01.25.01.56-.84,1.1-1.68,1.61-2.54.37-.63.71-1.28,1.07-1.91.2-.36.32-.57.39-.68,3.33-7.07,9.73-11.13,17.94-9.25,4.81,1.1,9.1,5.6,10.63,10.64.36.62.69,1.26.96,1.9.41.97.76,1.92,1,2.89,2.8,6.55-1.03,14.71-6.65,18.33-1.1.71-2.23,1.2-3.37,1.55-1.78,2.28-3.66,4.49-5.67,6.59,0,.02,0,.05,0,.07.38,8.47-7.2,14.54-15.03,15.03-3.33.21-6.79.24-10.12-.04-.19-.02-.35-.03-.5-.04-.09.01-.2.03-.35.04-.12.11-.23.21-.37.34-4.09,3.81-9.62,4.8-14.5,3.57-1.13,1.5-2.3,2.95-3.55,4.28-4.88,5.2-12.18,5.35-17.75,2.32-2.88,2.38-6.15,4.27-10.07,5.47-7.46,2.28-14.99-2.22-17.92-8.97-1.54.31-3.08.54-4.61.73-10.16,3.07-21.22,0-26.59-9.79-1.57-2.86-2.47-5.67-2.87-8.44-6.15-2.97-10.06-9.83-7.94-17.33-1.89-1.76-3.34-4.01-4.09-6.72-.05-.2-.09-.41-.14-.61-5.24,4.92-10.49,9.85-15.73,14.77-4.67,4.38-5.02,11.9-1.63,17.08-2.95,3.05-4.49,7.68-3.89,11.63,1.03,6.87,6.38,11.26,13.26,11.71,4.96.32,9.57-.65,13.87-2.44,2.43-.5,4.86-1.03,7.28-1.59.2.28.38.56.59.83,3.04,3.9,6.89,6.29,11.09,7.48-.41.3-.66.5-.35.38-.75.3-1.51.58-2.26.84,1.95,2.21,3.25,5.03,3.79,8.03,2.5.07,4.98.74,7.19,2.02,2.19,1.27,4.17,2.83,6.03,4.51,4.82-3.08,10.27-4.31,16.51-2.24,5.58,1.85,9.68,5.88,14.71,8.6.02,0,.04,0,.06.01.16-.02.72,0,1.68.05,2.6-.16.05.24,2.85-.34,3.16-.66,6.31-1.24,9.47-1.74,3.66-3.55,7.55-6.85,11.97-9.62,9.29-5.82,23.35,1.64,22.62,12.98-.41,6.36-1.91,12.29-4.12,18.01,2.7.22,5.31.71,7.8,2.01.25-.09.49-.18.74-.25,3.58-1.09,7.69-1.07,11.36-.15,3.15-10.1,3.74-19.82.2-30.53-.45-1.37-.64-2.78-.62-4.17-.81-.83-1.65-1.66-2.57-2.54-12.24-11.54,3.31-32,17.51-24.01.62.18,1.23.37,1.85.55,2.57.82,5.03,1.89,7.49,2.99,5.28,2.35,7.65,8.47,7.26,14.12.49.65.98,1.31,1.46,1.97,3.34,4.54,6.55,8.94,9.55,12.51.46.54.66.82.73.96.1.02.36.14.94.51,1.02.65,2.05,1.24,3.11,1.8.23.09,1.26.56,1.82.74,1.16.38,2.33.71,3.51.98,1.16.27,2.33.5,3.51.69.02-.04,2.53.22,2.89.25,2.6.18,5.2.25,7.8.28,13.34.15,24.55-2.72,38.49-3.91,11.08-.94,22.86.26,33.86-.43.17-.28.34-.56.5-.83.31-.5.46-.79.52-.94.14-.09.39-.29.83-.7.24-.22,2.27-2.04,1.93-1.86.82-.59,1.71-1.1,2.6-1.58-.24.14,1.27-.56,1.79-.72.66-.21,1.33-.39,2.01-.53-1.31.09-1.12.08.55-.04,7.28-.49,13.5-5.85,13.5-13.5,0-6.96-6.19-13.95-13.5-13.5Z"/>
    </g>
  </g>
</svg>