<svg width="41" height="75" viewBox="0 0 41 75" fill="none" xmlns="http://www.w3.org/2000/svg">
<path d="M16.4805 70.7968C16.5408 70.6019 16.5953 70.4419 16.6371 70.2958C16.6324 70.2459 16.6278 70.1949 16.6243 70.145C16.5744 69.3656 16.6916 68.5677 16.7484 67.7907C16.8076 66.9986 16.8632 66.2053 16.9085 65.412C16.9978 63.8278 17.0407 62.24 16.9618 60.6546C16.8853 59.1168 16.6916 57.5314 17.2831 56.062C17.6437 55.1655 18.6435 54.5392 19.5829 55.1261C19.7406 55.2246 19.8786 55.3336 20.0004 55.4508C20.3831 55.155 20.8957 55.0286 21.3805 55.162C22.2712 55.4067 22.6064 56.2499 22.4742 57.0884C22.0358 59.8672 22.3292 62.7283 22.5785 65.5117C22.5971 65.717 22.6157 65.9223 22.633 66.1287C22.843 66.3908 22.9682 66.7132 22.9357 67.0589C22.9276 67.147 22.923 67.2328 22.9172 67.3198C22.9241 67.3674 22.9311 67.4149 22.9357 67.4636C22.974 67.895 23.141 68.4599 23.366 68.8936C23.4866 69.1267 23.5713 69.4143 23.5817 69.6996C23.7975 70.3178 23.9018 71.0113 23.7429 71.6469C23.8033 71.8893 23.7951 72.1491 23.6919 72.4123C23.6478 72.5225 23.6049 72.6338 23.5609 72.744C23.308 73.3877 22.7664 73.8713 22.0972 73.8933C21.7087 74.3967 21.1949 74.7771 20.5002 74.8942C19.4739 75.0682 18.5275 74.6739 17.776 74.0267C17.7748 74.0267 17.7736 74.0267 17.7725 74.0267C16.9096 74.0696 16.2312 73.274 16.2068 72.461C16.1906 71.8939 16.3112 71.3372 16.4793 70.7991L16.4805 70.7968Z" fill="#311A09"/>
<path d="M0.369105 56.71C0.799378 55.7555 1.62281 55.1571 2.56918 54.7778C2.90087 54.6445 3.25924 54.6874 3.57817 54.8347C3.85883 54.6955 4.1395 54.5563 4.419 54.4172C4.42596 54.191 4.48626 53.9637 4.60108 53.7514C4.51758 53.5659 4.46887 53.356 4.46307 53.1217C4.46075 53.0208 4.46539 52.9872 4.47003 52.9802C4.46423 52.9616 4.45727 52.935 4.44799 52.8979C4.44799 52.8979 4.34593 52.5662 4.37145 52.6044C4.31346 52.478 4.23692 52.3574 4.16501 52.2403C4.12906 52.1823 4.11166 52.1487 4.1047 52.1313C4.08847 52.1208 4.05947 52.0976 4.00844 52.0501C3.98061 52.0246 3.74518 51.8135 3.78461 51.8344C3.68951 51.7659 3.58629 51.7068 3.48307 51.6511C3.5109 51.6674 3.33578 51.5862 3.27547 51.5676C3.19893 51.5433 3.12122 51.5224 3.04236 51.5061C3.19429 51.5166 3.17225 51.5154 2.97857 51.5015C2.13427 51.4447 1.41289 50.823 1.41289 49.9358C1.41289 49.1286 2.13079 48.318 2.97857 48.3701C3.7069 48.4142 4.40392 48.4571 5.09166 48.4444C5.06499 48.3388 5.04643 48.231 5.03599 48.122C4.93161 48.0106 4.82492 47.9004 4.7159 47.8111C4.67067 47.7752 4.59065 47.7195 4.50946 47.6673C3.70807 47.7566 2.92754 47.6267 2.30823 46.9761C1.5857 46.2176 1.76546 44.5255 2.99945 44.3597C3.61064 44.2773 4.18241 44.3029 4.72286 44.4269C4.78664 44.4072 4.85043 44.3887 4.91422 44.369C5.3932 44.2275 5.8687 44.0732 6.33957 43.9027C6.7826 43.7427 7.21751 43.5676 7.64662 43.3785C7.62458 43.3634 7.60139 43.3484 7.57936 43.3321C7.00179 43.1269 6.50309 42.6885 6.41031 42.0517C6.31753 41.415 6.41959 40.8189 6.97164 40.406C7.1398 40.2808 7.32305 40.1915 7.51441 40.1393C7.50513 40.1335 7.49701 40.1265 7.49005 40.1219C7.46686 40.1138 7.42511 40.0952 7.35436 40.0604C6.21779 39.5038 6.46598 37.9717 7.35436 37.357C7.85654 37.0103 8.44454 36.8514 9.03138 36.718C9.28653 36.66 9.54052 36.5962 9.78986 36.5174C9.90004 36.4826 10.0091 36.4431 10.1181 36.406C10.3152 36.3388 10.1923 36.384 10.306 36.333C11.0343 36.0059 11.5469 35.6591 11.9493 35.1546C11.6501 35.0978 11.3671 34.9586 11.1561 34.7348C9.84437 33.3512 8.53268 31.9676 7.22099 30.584C7.03543 30.4216 6.86378 30.2268 6.70953 29.9856C5.75041 28.4895 7.94584 26.7985 9.16823 28.0882L9.33756 28.2668C9.49181 28.3097 9.64721 28.3468 9.80494 28.3781C10.3002 28.479 10.7768 28.5881 11.2314 28.8235C11.3034 28.8606 11.3729 28.9023 11.4414 28.9464C11.4321 28.6808 11.4286 28.4141 11.4553 28.1589C11.446 28.0963 11.4379 28.0337 11.4286 27.9722C11.3799 27.637 11.4054 27.3007 11.5086 27.0015C11.3312 26.5909 11.1584 26.1781 10.9995 25.7594C10.8603 25.3952 10.6898 25.0032 10.5599 24.6031C10.5414 24.5961 10.5228 24.5892 10.5031 24.5811C9.74811 24.2784 9.32132 23.8469 9.02442 23.0861C8.82842 22.5863 9.05573 21.9217 9.45237 21.5332C9.35263 21.1134 9.29812 20.6831 9.27377 20.2494C9.24013 19.6324 9.69476 19.0467 10.2364 18.8182C10.8371 18.5642 11.4657 18.7161 11.947 19.1418C12.3819 19.5257 12.7623 19.964 13.1045 20.4303C13.3735 20.5347 13.6113 20.7156 13.7934 20.9487C13.8224 20.9452 13.849 20.9417 13.8699 20.9394C14.3547 20.8814 14.8279 20.9313 15.2848 21.1029C15.5179 21.1911 15.7348 21.3013 15.9412 21.4288C15.9169 21.2479 15.8972 21.0739 15.8833 20.9116C15.8751 20.8176 15.8809 20.7237 15.896 20.6321C15.3103 19.2972 14.6748 17.9832 13.9963 16.6912C13.8189 16.3514 13.7632 15.971 13.8258 15.6138C13.6484 15.3911 13.486 15.1591 13.3527 14.9144C12.8586 14.0063 12.5002 12.995 12.085 12.0487C11.7452 11.2751 11.8577 10.3682 12.6464 9.90658C13.3109 9.51806 14.4475 9.6897 14.7884 10.4679C15.0169 10.9886 15.2454 11.5094 15.4739 12.0301C15.6849 12.5126 15.8566 13.0716 16.1546 13.5076C16.4597 13.9542 16.8888 14.3891 17.3179 14.8135C17.2205 14.4946 17.1486 14.171 17.152 13.8324C17.1544 13.6294 17.181 13.4404 17.2274 13.2641C16.9154 12.6158 16.6487 11.9454 16.426 11.2612C16.2822 10.8193 16.382 10.3624 16.6267 9.9982C16.4956 9.75233 16.3692 9.5053 16.2648 9.24087C15.9505 8.44527 15.9343 7.53138 16.3541 6.76594C16.5478 6.41221 16.8238 6.08979 17.1648 5.8706C17.2147 5.83929 17.5092 5.72215 17.8143 5.62125C17.8966 5.30115 18.0056 5.00194 18.1599 4.7004C18.2097 4.60414 18.2724 4.51715 18.3443 4.43713C18.3478 4.4035 18.3501 4.3687 18.3536 4.33507C18.357 4.28636 18.3594 4.23765 18.3628 4.18894C18.3663 4.13095 18.3733 4.07412 18.3826 4.0173C18.3988 3.83985 18.4162 3.66357 18.4324 3.48612C18.451 3.17995 18.4788 2.87145 18.5171 2.56063C18.5171 2.55599 18.5171 2.55019 18.5182 2.54556C18.5356 2.40754 18.553 2.26953 18.5739 2.1292C18.5797 2.08745 18.5901 2.04802 18.6006 2.00858C18.6029 1.87753 18.6075 1.74532 18.6099 1.61427C18.6273 0.768797 19.3173 0.048584 20.1755 0.048584C21.0338 0.048584 21.7586 0.765318 21.7412 1.61427C21.7261 2.35072 21.7088 3.08601 21.689 3.82246C21.8027 4.30144 21.8943 4.7839 21.972 5.26984C22.1866 5.40553 22.3756 5.5853 22.5217 5.7871C23.4496 7.07095 24.2011 8.54849 23.8079 10.1756C23.656 10.8019 23.315 11.3656 22.9323 11.8747C22.8024 12.0463 22.6679 12.2145 22.5368 12.3862C22.4719 12.4697 22.4696 12.472 22.531 12.3931C22.4985 12.4372 22.4661 12.4801 22.4336 12.5242C22.3814 12.5972 22.3304 12.6715 22.2805 12.7457C22.2399 13.1226 22.0764 13.4752 21.8096 13.735C21.8131 13.844 21.8189 13.9518 21.8236 14.0609C21.9071 13.9576 21.9917 13.8567 22.081 13.7593C22.7572 13.0171 23.6722 12.472 24.1037 11.5813C24.1895 11.3795 24.2741 11.1788 24.36 10.977C24.6603 10.2696 25.6798 10.0573 26.3153 10.3368C26.981 10.6291 27.4913 11.4386 27.2223 12.1844C27.1318 12.4325 27.0321 12.6715 26.9219 12.9022C26.5415 13.8382 26.197 14.8217 25.7227 15.7031C25.4362 16.2354 24.9259 16.7028 24.3217 16.828C24.2788 16.9521 24.2336 17.0762 24.1872 17.1992C23.9065 17.9495 23.5458 18.9388 23.0518 19.84C23.1376 20.0893 23.2628 20.3363 23.4356 20.595C23.5435 20.755 23.649 20.9127 23.7499 21.0716C23.7523 21.0693 23.7546 21.0658 23.7557 21.0635C23.9123 20.8524 24.0723 20.6437 24.2359 20.4372C24.5583 20.0313 24.9027 19.6451 25.2715 19.2809C26.0115 18.5538 26.8453 17.9136 27.7221 17.3604C28.8019 16.6796 30.5357 17.8336 30.0219 19.129C29.8978 19.4422 29.7494 19.7263 29.5812 19.9884C29.6404 20.1531 29.6752 20.3375 29.6752 20.5451C29.6752 21.8185 29.7158 23.2253 28.781 24.2215C28.5699 24.4465 28.3182 24.6367 28.0445 24.7805C28.0167 24.7945 27.547 25.0206 27.2571 25.118C27.2466 25.1447 27.2292 25.1633 27.2385 25.1238C27.1573 25.3593 27.0982 25.6028 27.0135 25.8383C26.8767 26.2187 26.7004 26.5422 26.4939 26.8275C26.7549 26.8252 27.0135 26.8275 27.264 26.8333C29.4119 26.8728 31.5598 27.2856 33.5615 28.0638C34.2145 28.3178 34.7109 28.8339 34.7109 29.5739C34.7109 30.2256 34.2296 30.9516 33.5615 31.0839L31.1191 31.5663C30.857 31.6185 30.5925 31.6649 30.3304 31.7183C30.32 31.9027 30.2806 32.0824 30.2087 32.2448C30.1136 32.4617 29.95 32.682 29.7482 32.8583C30.6784 33.415 31.7407 34.0633 31.7407 35.2242C31.7407 35.317 31.7326 35.4075 31.7163 35.4968C31.7825 35.5988 31.8486 35.6997 31.9135 35.8018C32.8054 37.1784 31.0854 38.6432 29.7714 37.9439C28.9457 37.5043 28.1222 37.0566 27.2965 36.6171C27.4623 36.9047 27.6259 37.1958 27.7859 37.4869C28.3438 38.5029 28.8726 39.5037 29.5661 40.3585C30.2736 40.6032 31.0066 40.841 31.6491 41.2167C32.0759 41.4672 32.4911 41.7757 32.8564 42.1341C32.9701 42.1306 33.0918 42.1271 33.2275 42.1248C34.3084 42.1109 35.0263 42.7082 35.7732 43.4098C36.447 44.0419 37.1197 44.6751 37.7935 45.3072C38.3351 45.8152 38.3757 46.6873 37.9825 47.2881C38.3247 47.6418 38.5033 48.1788 38.4337 48.6369C38.3142 49.4336 37.6938 49.9428 36.8959 49.995C36.3206 50.0321 35.786 49.9196 35.2873 49.712C35.0054 49.654 34.7236 49.5925 34.443 49.5276C34.4198 49.5601 34.3989 49.5925 34.3745 49.6238C34.022 50.0762 33.5754 50.3533 33.0883 50.4913C33.1359 50.5261 33.1649 50.5493 33.1289 50.5354C34.1043 50.9309 35.1469 50.9738 36.091 51.4899C36.6013 51.7683 37.0675 52.1452 37.4618 52.5836C38.1055 52.7575 38.668 53.2527 38.9521 53.9822C38.9649 54.0159 38.973 54.0507 38.9834 54.0843C39.089 54.0924 39.1945 54.1087 39.2966 54.1307C40.2789 54.3441 40.9365 55.222 40.8994 56.2275C40.8298 58.1017 38.7932 58.6665 37.2507 58.4485C35.9773 58.2687 34.8686 57.6088 33.7517 57.0139C32.8228 56.5198 31.9599 56.1661 30.9254 56.4421C30.5867 56.5326 30.313 56.6799 30.0196 56.8399C30.5809 57.4105 31.0936 58.0287 31.525 58.728C32.3252 60.0269 30.7004 61.7469 29.3829 60.8701C28.781 60.47 28.1953 60.0455 27.6259 59.6013C27.5041 59.7706 27.3464 59.9133 27.1457 60.0061C26.0405 60.5164 24.8506 60.6984 23.6595 60.3621C23.1283 60.2113 22.6273 59.9655 22.1854 59.6372C22.0335 59.5236 21.8839 59.4065 21.7366 59.287C21.834 59.3543 21.8062 59.3346 21.6531 59.2267C21.6415 59.2174 21.6322 59.2105 21.6218 59.2023C21.217 59.2789 20.4562 59.3438 19.9076 59.1896C19.3498 59.0319 18.807 58.7651 18.2689 58.5506C18.0845 58.4775 17.834 58.416 17.631 58.3256C17.1544 58.6109 16.6035 58.706 16.0549 58.5482C15.78 58.4694 15.5458 58.3279 15.3312 58.1562C14.5669 59.0608 13.6762 59.9284 12.3599 59.6175C12.3297 59.6106 12.2996 59.6013 12.2694 59.5932C11.6907 60.2369 10.9032 60.5871 10.0323 60.5709C9.14967 60.5535 8.06298 60.289 7.58515 59.4726C7.43206 59.2116 7.3474 58.946 7.31957 58.6886C6.89857 58.6515 6.48802 58.5378 6.09138 58.2977C5.73185 58.0808 5.45235 57.8037 5.25171 57.4859C5.10094 57.5601 4.95017 57.6355 4.7994 57.7097L2.51699 58.8416C1.04989 59.5688 -0.267606 58.1261 0.374903 56.6996L0.369105 56.71ZM30.2991 31.3228C30.4174 31.1998 30.3907 31.0108 29.8816 30.5434C30.1031 30.7464 30.2411 31.0259 30.2991 31.3228Z" fill="#3E655D" stroke="#3E655D" stroke-width="0.101516" stroke-miterlimit="10"/>
<path d="M20.1477 3.16847C20.3182 5.04149 20.9677 6.79273 21.3156 8.6298C21.3399 8.75621 21.3573 8.88262 21.3817 9.00904C21.391 9.20852 21.4188 9.408 21.4258 9.60748C21.4281 9.68054 21.4281 9.75245 21.4269 9.82435C21.1057 9.43351 20.6162 9.18416 20.0723 9.15981C19.1364 9.11806 18.3222 9.99136 18.3292 10.9029C18.3315 11.2242 18.3501 11.5454 18.3617 11.8667C18.3675 12.0221 18.3721 12.1775 18.3698 12.3329C18.3675 12.486 18.2898 12.9569 18.3918 12.3515C18.2318 13.2967 18.6203 14.1422 19.5481 14.4738C19.4414 14.5968 19.3393 14.7244 19.2384 14.8542C19.0332 14.7707 18.8198 14.7209 18.6168 14.7128C18.1831 14.693 17.6867 14.9215 17.384 15.2231C17.0291 15.5779 16.9317 15.9769 16.8737 16.4559C16.8516 16.638 16.8412 16.8212 16.8354 17.0044C15.6641 15.2033 13.9267 13.7212 12.2323 12.406C12.1824 12.2889 12.1326 12.1717 12.0827 12.0557C11.7429 11.2822 11.8554 10.3752 12.644 9.91365C13.3086 9.52513 14.4451 9.69678 14.7861 10.475C15.0146 10.9957 15.2431 11.5164 15.4715 12.0372C15.6826 12.5196 15.8543 13.0786 16.1523 13.5147C16.4573 13.9612 16.8864 14.3961 17.3156 14.8206C17.2181 14.5017 17.1462 14.1781 17.1497 13.8395C17.152 13.6365 17.1787 13.4475 17.2251 13.2712C16.9131 12.6229 16.6464 11.9525 16.4237 11.2683C16.2799 10.8264 16.3796 10.3694 16.6243 10.0053C16.4933 9.75941 16.3669 9.51238 16.2625 9.24795C15.9482 8.45235 15.932 7.53846 16.3518 6.77302C16.5455 6.41929 16.8215 6.09687 17.1625 5.87768C17.2123 5.84636 17.5069 5.72923 17.8119 5.62833C17.8943 5.30823 18.0033 5.00901 18.1575 4.70748C18.2074 4.61122 18.27 4.52423 18.3419 4.44421C18.3454 4.41058 18.3477 4.37578 18.3512 4.34215C18.3547 4.29344 18.357 4.24473 18.3605 4.19602C18.364 4.13803 18.3709 4.0812 18.3802 4.02438C18.3965 3.84693 18.4139 3.67065 18.4301 3.4932C18.4486 3.18703 18.4765 2.87853 18.5148 2.56771C18.5148 2.56307 18.5148 2.55727 18.5159 2.55264C18.5333 2.41462 18.5507 2.27661 18.5716 2.13628C18.5774 2.09453 18.5878 2.0551 18.5983 2.01566C18.6006 1.88461 18.6052 1.7524 18.6075 1.62134C18.6249 0.775877 19.315 0.0556641 20.1732 0.0556641C20.9433 0.0556641 21.638 0.6657 21.7285 1.4265C20.8981 1.49261 20.0735 2.31256 20.15 3.16731L20.1477 3.16847Z" fill="#48826D" stroke="#3E655D" stroke-width="0.101516" stroke-miterlimit="10"/>
<path d="M2.97737 48.375C3.7057 48.419 4.40272 48.4619 5.09046 48.4492C5.06378 48.3436 5.04523 48.2358 5.03479 48.1268C4.93041 48.0154 4.82371 47.9053 4.71469 47.816C4.66946 47.78 4.58944 47.7243 4.50826 47.6721C3.70686 47.7614 2.92634 47.6315 2.30703 46.9809C1.58449 46.2224 1.76426 44.5303 2.99825 44.3645C3.60944 44.2822 4.1812 44.3077 4.72165 44.4318C4.78544 44.412 4.84923 44.3935 4.91301 44.3738C5.09394 44.3204 5.27254 44.2636 5.45231 44.2068C6.08786 44.6881 6.84286 45.0244 7.62106 45.2285C8.84229 45.5498 10.125 45.5822 11.3277 45.9847C12.2242 46.2839 13.2332 45.6391 13.4721 44.7669C13.7307 43.824 13.1473 42.9206 12.2543 42.6225C11.185 42.2653 10.0531 42.1981 8.95711 41.9638C8.68572 41.9058 8.4155 41.8385 8.15107 41.7515C8.06409 41.7226 7.69412 41.5405 8.06641 41.7342C7.94927 41.6727 7.82982 41.6205 7.71616 41.5532C7.62686 41.501 7.39954 41.2958 7.58395 41.4732C7.50856 41.4013 7.43318 41.3294 7.3578 41.2575C7.34736 41.2471 7.33808 41.2401 7.32996 41.232C7.32416 41.2157 7.31604 41.1972 7.3056 41.174C7.24646 41.0418 7.16759 40.9177 7.10729 40.7855C7.05394 40.6672 6.98319 40.5628 6.90085 40.4689C6.92288 40.4503 6.94492 40.4317 6.96927 40.4132C7.13744 40.2879 7.32068 40.1986 7.51204 40.1464C7.50276 40.1406 7.49465 40.1337 7.48769 40.129C7.46449 40.1209 7.42274 40.1024 7.35199 40.0676C6.21543 39.5109 6.46362 37.9788 7.35199 37.3642C7.85417 37.0174 8.44218 36.8585 9.02902 36.7251C9.28416 36.6671 9.53815 36.6034 9.7875 36.5245C9.89768 36.4897 10.0067 36.4503 10.1157 36.4132C10.3129 36.3459 10.1899 36.3911 10.3036 36.3401C10.6121 36.2021 10.88 36.0594 11.1189 35.9029C11.5851 35.8611 12.049 35.8136 12.5199 35.8565C13.3851 35.9353 14.1262 35.1363 14.2317 34.3441C14.3477 33.4836 13.8188 32.6787 12.9826 32.4317C12.2729 32.2218 11.5434 32.1209 10.8139 32.0037C10.466 31.9469 10.118 31.8878 9.7759 31.8019C9.41754 31.7126 9.12411 31.6094 8.93971 31.5155C8.60686 31.3473 8.24501 31.2777 7.89592 31.3056C7.66977 31.0678 7.44478 30.8289 7.21862 30.5911C7.03306 30.4288 6.86142 30.2339 6.70717 29.9927C5.74804 28.4966 7.94348 26.8057 9.16587 28.0953L9.33519 28.2739C9.48944 28.3168 9.64485 28.354 9.80258 28.3853C9.83969 28.3922 9.8768 28.4004 9.91275 28.4085C10.1633 28.6567 10.4277 28.8898 10.7049 29.1101C10.9589 29.3119 11.2244 29.5323 11.4982 29.712C11.7266 29.9649 12.0166 30.1574 12.3274 30.2432C13.2935 30.5088 14.1412 29.9069 14.4718 29.0255C14.7803 28.202 14.2897 27.3392 13.602 26.8973C13.1531 26.6085 13.0163 26.5378 12.6788 26.2316C12.2891 25.879 11.9354 25.4917 11.6048 25.0846C11.5921 25.0695 11.5097 24.9628 11.4715 24.9153C11.4355 24.8666 11.3474 24.7471 11.3346 24.7309C11.1665 24.5024 11.0018 24.2728 10.8371 24.042C10.4138 23.4493 9.74691 23.0968 9.06149 23.1988C9.04641 23.164 9.03249 23.1292 9.01742 23.0933C8.82142 22.5934 9.04873 21.9289 9.44537 21.5404C9.34563 21.1205 9.29112 20.6902 9.26677 20.2565C9.23313 19.6395 9.68776 19.0538 10.2294 18.8253C10.8301 18.5714 11.4587 18.7233 11.94 19.1489C12.3749 19.5328 12.7553 19.9712 13.0975 20.4374C13.3665 20.5418 13.6043 20.7227 13.7864 20.9558C13.8154 20.9524 13.842 20.9489 13.8629 20.9466C14.0809 20.9199 14.2967 20.9176 14.5101 20.9361C14.7211 21.2319 14.9461 21.5183 15.1955 21.7839C15.722 22.3452 16.6556 22.438 17.3086 22.0564C17.6333 21.8662 17.8594 21.5949 17.9951 21.2829C18.1784 21.4476 18.3953 21.5751 18.6388 21.654C18.9728 22.0147 19.4727 22.2351 19.9783 22.2942C21.0163 22.4171 22.1181 21.8987 22.6203 20.9697C22.952 21.0393 23.3092 21.0161 23.6351 20.9094C23.6722 20.9651 23.7093 21.0219 23.7452 21.0776C23.7476 21.0753 23.7499 21.0718 23.751 21.0695C23.8322 20.9605 23.9157 20.8538 23.9992 20.7459C24.2405 20.6033 24.4446 20.4061 24.578 20.1556C24.6278 20.0617 24.6707 19.9677 24.7102 19.8738C24.8899 19.672 25.0743 19.476 25.2669 19.2869C26.0068 18.5598 26.8407 17.9196 27.7174 17.3664C28.3866 16.9442 29.3063 17.2284 29.7876 17.8117C29.0117 17.7932 28.2092 18.2988 28.034 19.084C27.9123 19.6314 27.7917 20.1788 27.6397 20.7192C27.5725 20.9582 27.4948 21.1924 27.4159 21.4279C27.3985 21.4812 27.3811 21.5276 27.3695 21.5589C27.3347 21.6355 27.2999 21.7132 27.2605 21.7885C27.1596 21.9857 27.0227 22.162 26.9195 22.3545C26.9114 22.3626 26.9021 22.3696 26.8917 22.38C26.8105 22.4554 26.7328 22.5401 26.6528 22.6178C26.6365 22.634 26.6203 22.6479 26.6064 22.6607C26.5611 22.6897 26.5159 22.7187 26.4695 22.7477C26.0253 22.4879 25.4803 22.3696 24.9746 22.5088C24.5664 22.6213 24.186 22.8868 23.8995 23.1895C23.7905 23.3044 23.6931 23.44 23.6003 23.5699C23.591 23.5699 23.5806 23.5699 23.5713 23.5699C23.2732 23.5699 22.9763 23.5363 22.6794 23.5328C21.9047 23.5247 21.1045 23.6871 20.4643 24.1405C19.693 24.6856 19.3277 25.6529 19.8392 26.5262C20.2857 27.2893 21.4559 27.6964 22.2248 27.1513C22.3489 27.0817 22.3988 27.0457 22.3779 27.0434C22.4324 27.0295 22.4567 27.0214 22.4486 27.0191C22.6145 27.0098 22.785 27.0237 22.9473 27.0307C23.4194 27.0515 23.8624 27.055 24.3309 26.9912C24.8493 26.9217 25.3132 26.7419 25.7134 26.4276C26.0787 26.5134 26.4266 26.4809 26.7687 26.3893C26.6841 26.5482 26.5901 26.6967 26.4892 26.8358C26.7502 26.8335 27.0088 26.8358 27.2593 26.8416C29.4072 26.8811 31.5551 27.2939 33.5568 28.0721C34.1309 28.2948 34.5832 28.7216 34.6853 29.3247C34.1669 29.0255 33.3945 29.0313 32.8482 29.356C32.2243 28.9443 31.5087 28.6857 30.7491 28.8944C30.3385 29.0069 29.9952 29.218 29.7122 29.4905C29.101 29.0684 28.2393 28.9686 27.6293 29.3734C26.9937 29.0231 26.248 28.9594 25.5116 29.3873C25.0511 29.6541 24.7531 30.0182 24.5606 30.4357C24.4307 30.4752 24.3066 30.5297 24.1976 30.6027C23.8728 30.8196 23.6096 31.0678 23.3834 31.3508C23.0529 30.9228 22.5252 30.6375 21.9836 30.6375C21.6832 30.6375 21.406 30.7141 21.1659 30.8463C20.8632 30.2954 20.2497 29.9104 19.6176 29.9104C18.64 29.9104 17.9163 30.7094 17.8745 31.6535C17.8363 32.5036 18.5449 33.2366 19.3532 33.3723C19.163 33.5683 19.0169 33.813 18.938 34.1018C18.6968 34.9797 19.2372 36.0374 20.1558 36.2462C21.3109 36.5083 22.6342 36.1986 23.7244 35.7892C24.23 35.599 24.6997 35.3833 25.0894 35.0249C25.9244 35.5027 27.0761 35.2348 27.533 34.401C27.9749 34.5332 28.4887 34.4995 28.905 34.3024C29.0268 34.4114 29.1567 34.5158 29.2947 34.6144C30.0207 35.1328 30.9045 34.8394 31.4449 34.2525C31.627 34.5355 31.7395 34.8568 31.7395 35.2325C31.7395 35.3253 31.7314 35.4158 31.7151 35.5051C31.7812 35.6071 31.8473 35.708 31.9123 35.8101C32.7984 37.1774 31.1051 38.6329 29.7946 37.9638C29.4756 37.4999 28.9514 37.2146 28.3797 37.2064C28.0178 37.0116 27.6571 36.8179 27.2941 36.6242C27.4298 36.8585 27.5609 37.0951 27.6919 37.3317C27.1723 37.5405 26.843 37.9788 26.691 38.5205C26.6006 38.7304 26.5426 38.9612 26.5194 39.2059C26.4707 39.7173 26.5032 40.2218 26.553 40.7275C26.4324 40.7959 26.3176 40.8782 26.2109 40.9757C25.8491 41.3097 25.5626 41.7179 25.2808 42.1192C25.246 42.1691 25.0036 42.4648 25.0535 42.4196C25.0094 42.4671 24.9665 42.5158 24.9189 42.5611C24.8969 42.575 24.8691 42.5924 24.8354 42.6144C24.4098 42.8754 24.1256 43.2964 24.0224 43.7568C23.9737 43.7765 23.925 43.7985 23.8775 43.8229C23.6096 43.1955 22.9438 42.7408 22.2573 42.7408C22.248 42.7408 22.2387 42.742 22.2283 42.742C22.1633 42.6446 22.1007 42.5471 22.0416 42.4474C21.9986 42.3743 21.9592 42.299 21.9175 42.2259C21.8943 42.1841 21.8803 42.1598 21.8722 42.147C21.486 41.3271 20.7438 40.8562 19.7916 41.0742C19.2338 41.2018 18.7362 41.7237 18.5588 42.3082C18.517 42.3801 18.4788 42.4544 18.4474 42.5286C18.3999 42.6411 18.3593 42.7513 18.3315 42.8638C18.0067 43.6234 18.4509 44.5698 19.1027 44.9896C19.2303 45.072 19.3613 45.1288 19.4936 45.1694C19.7 45.4338 19.918 45.6901 20.1511 45.9337C20.1511 45.936 20.1511 45.9395 20.1511 45.9418C20.1071 46.9241 20.9862 47.6281 21.8943 47.6849C22.2805 47.7093 22.6817 47.7127 23.0679 47.6803C23.09 47.6779 23.1085 47.6768 23.1259 47.6756C23.1364 47.6768 23.1491 47.6791 23.1665 47.6803C23.1804 47.693 23.1932 47.7046 23.2094 47.7197C23.6838 48.1616 24.3251 48.2764 24.8911 48.1337C25.0221 48.3077 25.1578 48.4759 25.3028 48.6301C25.8688 49.2332 26.7154 49.2506 27.3614 48.8992C27.6954 49.1752 28.0746 49.3944 28.5293 49.5336C29.3945 49.798 30.2678 49.2761 30.6076 48.4933C30.7862 48.5292 30.9648 48.5559 31.1422 48.5779C32.3205 48.934 33.6032 48.5779 34.226 47.4425C34.4081 47.1108 34.5125 46.7849 34.5589 46.4637C35.2721 46.1192 35.7256 45.3236 35.4797 44.4538C35.6989 44.2497 35.8671 43.9887 35.9541 43.6744C35.9599 43.6512 35.9645 43.6269 35.9703 43.6037C36.578 44.1743 37.1869 44.7461 37.7946 45.3167C38.3362 45.8246 38.3768 46.6968 37.9837 47.2975C38.3258 47.6513 38.5044 48.1882 38.4348 48.6463C38.3153 49.4431 37.6949 49.9522 36.897 50.0044C36.3217 50.0415 35.7871 49.929 35.2884 49.7214C35.0065 49.6635 34.7247 49.602 34.4441 49.537C34.4209 49.5695 34.4 49.602 34.3756 49.6333C34.0231 50.0856 33.5766 50.3628 33.0895 50.5008C33.137 50.5356 33.166 50.5588 33.13 50.5449C33.217 50.5797 33.3052 50.6121 33.3922 50.6423C33.166 50.8986 33.0152 51.2257 32.9526 51.5736C32.6627 51.5817 32.375 51.6594 32.1187 51.8079C31.8647 51.9551 31.6351 52.1361 31.4194 52.3309C30.8604 51.9737 30.2283 51.8311 29.5046 52.0711C28.8575 52.2857 28.382 52.7531 27.7986 53.0685C27.7963 53.0685 27.794 53.0685 27.7917 53.0697C27.7731 53.0674 27.7082 53.0697 27.5968 53.0755C27.2953 53.0569 27.591 53.1033 27.2663 53.036C26.8998 52.9595 26.5345 52.8922 26.168 52.8342C25.7435 52.4225 25.2924 52.0398 24.7798 51.7186C23.7023 51.0436 22.0717 51.9088 22.1564 53.2239C22.2039 53.9615 22.3779 54.6493 22.6342 55.3127C22.3211 55.3382 22.0184 55.395 21.7296 55.5458C21.7006 55.5353 21.6727 55.5249 21.6438 55.5168C21.2286 55.3904 20.7519 55.3927 20.3263 55.4994C19.9609 54.328 19.8925 53.2007 20.3031 51.9586C20.3553 51.7997 20.3773 51.6362 20.375 51.475C20.4689 51.3787 20.5663 51.2825 20.673 51.1804C22.0926 49.8421 20.2892 47.4692 18.6423 48.3958C18.5704 48.4167 18.4996 48.4387 18.4277 48.4596C18.1297 48.5547 17.8444 48.6788 17.5591 48.8064C16.9467 49.0789 16.6719 49.7887 16.7171 50.444C16.6603 50.5194 16.6034 50.5959 16.5478 50.6724C16.1604 51.199 15.7881 51.7093 15.4402 52.1233C15.3868 52.1859 15.3636 52.2184 15.3555 52.2347C15.3439 52.237 15.3138 52.2509 15.2465 52.2938C15.1282 52.3692 15.0088 52.4376 14.8858 52.5026C14.8591 52.513 14.7397 52.5675 14.6747 52.5884C14.5402 52.6324 14.4045 52.6707 14.2677 52.702C14.1331 52.7333 13.9974 52.76 13.8606 52.7821C13.8583 52.7774 13.5672 52.8076 13.5254 52.811C13.2239 52.8319 12.9223 52.84 12.6208 52.8435C11.0737 52.8609 9.77358 52.5281 8.15687 52.3901C6.87185 52.281 5.50565 52.4202 4.22991 52.3402C4.2102 52.3077 4.19048 52.2752 4.17193 52.2439C4.13597 52.1859 4.11858 52.1523 4.11162 52.1349C4.09538 52.1245 4.06639 52.1013 4.01536 52.0537C3.98752 52.0282 3.75209 51.8171 3.79152 51.838C3.69642 51.7696 3.5932 51.7104 3.48999 51.6548C3.51782 51.671 3.34269 51.5898 3.28239 51.5713C3.20584 51.5469 3.12814 51.526 3.04928 51.5098C3.20121 51.5202 3.17917 51.5191 2.98549 51.5052C2.14118 51.4483 1.41981 50.8267 1.41981 49.9395C1.41981 49.1323 2.1377 48.3216 2.98549 48.3738L2.97737 48.375Z" fill="#48826D" stroke="#3E655D" stroke-width="0.101516" stroke-miterlimit="10"/>
</svg>
