<?xml version="1.0" encoding="UTF-8"?>
<svg id="Layer_2" data-name="Layer 2" xmlns="http://www.w3.org/2000/svg" viewBox="0 0 285.22 600.65">
  <defs>
    <style>
      .cls-1 {
        fill: #8ed6c7;
      }

      .cls-1, .cls-2, .cls-3, .cls-4, .cls-5 {
        stroke-width: 0px;
      }

      .cls-2 {
        fill: #41603c;
      }

      .cls-3 {
        fill: #3e655d;
      }

      .cls-6 {
        fill: #603813;
        stroke: #603813;
        stroke-miterlimit: 10;
      }

      .cls-4 {
        fill: #609f92;
      }

      .cls-5 {
        fill: #8c6239;
      }
    </style>
  </defs>
  <g id="Tree">
    <g id="Tree-2" data-name="Tree">
      <path class="cls-5" d="M285.22,314.23c-2.99,6.16-5.95,12.33-8.84,18.55,2.01-15.23,3.6-30.51,3.44-45.97-.27-25.21-5.13-50.26-17.06-71.05.41-2.09.41-4.3-.09-6.43-1.66-7.13-8.08-11.28-14.09-9.43-4.25,1.31-7.92,4.48-9.94,9.14-2.48,5.72-1.71,11.58,1.79,16.36,2.98,4.06,5.47,8.51,7.55,13.23-2.21,3.29-3.08,7.76-2.23,12.12,5.92,30.23,4.23,61.81,2.03,92.78-8.2-15.66-19.29-29.11-26.65-45.45-1.99-4.42-6.19-6.73-10.3-6.6-3.49-3.96-7.29-7.63-11.45-11.06-5.32-4.38-10.88-8.33-16.2-12.72-3.04-2.51-3.76-3.12-6.42-5.98-2.3-2.47-4.88-5.81-5.91-7.55-3.55-5.96-10.02-8.74-15.67-4.84-5,3.45-7.68,12.47-4.11,18.47,7.08,11.9,16.57,20.28,26.8,28.15,9.39,7.23,17.64,12.84,24.01,23.84,7.47,12.9,12.96,27.71,18.3,41.95,4.71,12.59,8.89,25.47,12.64,38.51.08.49.16.97.24,1.46-.47,36.6-3.02,73.06-7.66,109.19-.07.42-.15.84-.22,1.27-3.96,11.42-8.84,22.38-14.14,33.07-3.64,5.22-7.69,10.08-12.26,14.44-1.45,1.38-2.34,3.06-2.83,4.88-2.04.79-3.93,2.14-5.61,4.37-4.47,5.94-4.76,17.28,2.32,21.2,13.89,7.69,29,10.97,44.02,9.2,6.07,1.02,11.83,1.29,18-.28,3.69-.94,6.13-3.92,7.33-7.57.04-.02.07-.03.11-.05,4.33-2.24,6.77-6.79,7.04-12.34,2.91-58.95,8.23-117.69,16.06-176.01v-88.85Z"/>
      <path class="cls-6" d="M266.46,521.48c-.09-.93-.15-1.87-.23-2.8.46,9.58,1.01,19.16,1.58,28.73.4,6.76.95,13.54,1.95,20.23.33-6.01.69-12.02,1.07-18.03-3.12-8.85-3.52-19.32-4.37-28.14Z"/>
      <path class="cls-6" d="M251.56,513.52c-2.23,12.12-4.04,24.29-5.69,36.52-.8,5.91-2.04,11.65-4.4,17.09,3.71,10.1.2,20.51,2.06,30.77.14.77.17,1.51.1,2.2,3.64.17,7.26-.1,11.04-1.06,3.06-.78,5.25-2.98,6.6-5.79-6.33-16.65-7.41-34.92-8.29-52.55-.46-9.06-.99-18.12-1.42-27.19Z"/>
      <path class="cls-6" d="M261.98,335.43c-1.41-1.22-2.38-2.93-2.43-5.04-.26-12.1.78-24.2,1.62-36.27-1.63-9-1.4-18.46-2.13-27.47-.14-1.71-.33-3.41-.54-5.11-2.54-8.97-5.8-17.74-8.88-26.54-1.87-5.35,2.53-8.82,6.97-8.79.02-.11.03-.21.06-.32.9-4.41,5.29-5.88,8.95-4.83-.9-1.8-1.84-3.57-2.84-5.31.41-2.09.41-4.3-.09-6.43-1.66-7.13-8.08-11.28-14.09-9.43-4.25,1.31-7.92,4.48-9.94,9.14-2.48,5.72-1.71,11.58,1.79,16.36,2.98,4.06,5.47,8.51,7.55,13.23-2.21,3.29-3.08,7.76-2.23,12.12,5.34,27.26,4.49,55.6,2.66,83.61.34,3.48.61,6.95.31,10.44-.35,4.05-3.04,7.04-7.23,7.23-2.7.12-5.5-1.8-6.67-4.33-2.16-.1-4.25-1.15-5.54-3.47-8.3-14.93-16.81-32.16-31.26-42.1-10.87-7.48-27.74-10.5-34.08-23.24-3.25-6.54,3.77-12.46,8.94-10.63.43-2.5,1.93-4.82,3.99-6.44-.03-.04-.06-.06-.09-.1-2.3-2.47-4.88-5.81-5.91-7.55-3.55-5.96-10.02-8.74-15.67-4.84-5,3.45-7.68,12.47-4.11,18.47,7.08,11.9,16.57,20.28,26.8,28.15,9.39,7.23,17.64,12.84,24.01,23.84,7.47,12.9,12.96,27.71,18.3,41.95,4.71,12.59,8.89,25.47,12.64,38.51.08.49.16.97.24,1.46-.47,36.6-3.02,73.06-7.66,109.19-.07.42-.15.84-.22,1.27-3.96,11.42-8.84,22.38-14.14,33.07-3.64,5.22-7.69,10.08-12.26,14.44-1.45,1.38-2.34,3.06-2.83,4.88-2.04.79-3.93,2.14-5.61,4.37-4.47,5.94-4.76,17.28,2.32,21.2,6.54,3.62,13.35,6.26,20.29,7.85,1.42-4.22,2.82-8.43,4-12.73.39-1.43,1.06-2.52,1.88-3.34.83-4.85,2.86-9.33,5.51-13.71,3.81-6.31,6.16-12.08,7.24-19.43,2.38-16.21,4.58-32.36,7.85-48.43,3.39-16.65,7.59-32.95,9.52-49.87,1.9-16.67,3.07-33.4,5.6-50,.04-.24.09-.48.16-.71.05-2.76.25-5.51.81-8.25,1.29-6.32,4.38-12.07,6.66-18.06,2.44-6.39,3.14-12.34,2.48-19.16-.62-6.38-1.87-12.64-2.68-18.87Z"/>
      <path class="cls-4" d="M285.22,0c-3.37-.05-6.77.3-10.09.96-11.25,2.24-21.77,9.03-29.31,17.91-2.57-.1-5.11.08-7.56.6-11.9,2.55-18.72,11.81-21.2,22.62-7.65-5.21-17.37-6.68-26.43-3.94-9.82,2.97-17.9,10.64-21.34,20.24-3.24-.24-6.49-.33-9.69-.3-11,.11-20.13,2.09-28.74,9.22-6.25,5.18-11.55,11.99-14.99,19.35-3.09,6.61-4.8,13.32-5.18,19.96-.69.18-1.38.34-2.06.55-23.87,7.09-40.82,29.42-42.22,54.1-.17,2.95-.03,5.87.37,8.73-5.74,3.86-10.76,8.8-14.65,14.62-3.47,5.2-5.63,11.48-6.01,17.82-4.64.65-9.22,1.94-13.64,3.87-3.96,1.73-7.55,4.06-10.64,6.86-7.14,5.12-13.07,11.95-16.61,19.64-3.74,8.1-6.61,17.77-4.51,26.72,2.14,9.12,9.5,15.39,17.72,19.1,14.77,6.67,31.06,6.25,45.59-.88.32-.16.63-.34.94-.5,5.71,5.62,13,9.64,20.9,11.03,12.03,2.12,25.18-.14,36.05-6.2,8.8,13.2,26.81,16.69,40.92,9.95,7.59-3.62,13.94-10.41,17.8-18.29,1.12.06,2.25.07,3.37-.03,12.68-1.02,23.39-8.97,28.33-20.67,1.67-3.95,2.88-8.2,3.45-12.49,15.37,11.02,35.15,14.94,53.61,7.1,4.88,2.9,10.26,4.84,15.83,5.72V0Z"/>
      <path class="cls-2" d="M221.45,33.13c-.07-.52-.12-1.05-.16-1.57-1.17,1.89-2.11,3.94-2.89,6.07.91-1.56,1.92-3.06,3.05-4.5Z"/>
      <path class="cls-3" d="M285.22,216.01c-2.86-2.3-5.32-5.09-6.99-7.95-3.56-6.09-4.15-12.46-3.3-19.11.04-.62.06-1.23.06-1.85-.02-.07-.04-.16-.07-.24-.05-.05-.1-.11-.15-.16-.06-.06-.13-.12-.19-.18-.94-.58-1.87-1.16-2.84-1.7-1.74-.57-2.74-.95-3.23-1.16-1.76-.51-3.55-.92-5.35-1.26-3.54-.26-7.09-.26-10.63,0-1.25.25-2.5.53-3.74.85-.95.25-1.88.53-2.82.84-1.23.67-2.46,1.35-3.68,2.04-.38.37-.76.74-1.12,1.13-10.9,11.56-29.14,10.17-40.21,0-4.73-4.35-7.3-10.07-7.98-16.06-3.49.04-6.97-.32-10.35-1.14-2.32-.57-4.57-1.36-6.72-2.34-.04.04-.07.09-.11.13-10.01,10.9-30.25,11.1-40.21,0-1.18-1.31-2.39-2.57-3.68-3.77-.76-.7-1.56-1.36-2.32-2.05-2.84-2.57,2.65,1.92,2.73,2.06-1.26-2.31-6.85-4.59-9.11-5.83-1.29-.7-2.61-1.34-3.93-1.97-.48-.18-.96-.36-1.44-.53-2.56-.87-5.15-1.56-7.79-2.11-1.25-.07-2.49-.1-3.74-.07-.24.07-.48.13-.71.19-.38.13-.85.26-1.41.4-.88.55-1.73,1.14-2.56,1.77-5.98,4.5-14.95,4.45-21.91,2.87-2.18-.5-4.24-1.34-6.15-2.42-2.18-.23-4.34-.69-6.44-1.39-.34,2.07-.59,4.17-.71,6.29-.17,2.95-.03,5.87.37,8.73-5.74,3.86-10.76,8.8-14.65,14.62-.13.19-.24.39-.36.58,6.86-1.71,13.55-.33,19.21,3.01,7.07-6.27,17.31-8.8,26.91-6.62,4.29.98,8.03,3.05,11.11,5.84,1.75-2.95,4.07-5.63,7-7.9,9.43-7.28,21.21-7.52,31.58-2.22,3.24,1.65,6.09,3.64,8.55,5.89,9.74,4.51,16.25,14.37,16.77,25.82.3,6.8-2.38,13.24-6.76,18.27-2.27,6.87-6.11,13.32-11.41,18.57-10.01,9.9-25.47,15.32-39.3,11.07-6.27-1.93-11.5-5.14-15.84-9.25-4.91,4.29-10.67,7.59-17.28,9.38-12.91,3.51-26.43-.75-36.13-9.53-8-7.23-12.46-16.86-15.95-26.86-1.52-4.35-1.65-8.74-.74-12.89-2.79,1.51-5.35,3.32-7.63,5.4-7.14,5.12-13.07,11.95-16.61,19.64-3.74,8.1-6.61,17.77-4.51,26.72,2.14,9.12,9.5,15.39,17.72,19.1,14.77,6.67,31.06,6.25,45.59-.88.32-.16.63-.34.94-.5,5.71,5.62,13,9.64,20.9,11.03,12.03,2.12,25.18-.14,36.05-6.2,8.8,13.2,26.81,16.69,40.92,9.95,7.59-3.62,13.94-10.41,17.8-18.29,1.12.06,2.25.07,3.37-.03,12.68-1.02,23.39-8.97,28.33-20.67,1.67-3.95,2.88-8.2,3.45-12.49,15.37,11.02,35.15,14.94,53.61,7.1,4.88,2.9,10.26,4.84,15.83,5.72v-37.38Z"/>
      <path class="cls-2" d="M117.85,82.9c1.06-.16,2.13-.3,3.2-.43-.08-1.48-.11-2.97-.07-4.46-1.13,1.58-2.17,3.22-3.13,4.89Z"/>
      <path class="cls-2" d="M213.73,49.24c.67-2.6,1.53-5.14,2.62-7.58-4.16-2.67-8.89-4.27-13.78-4.72,4.39,3.37,8.15,7.59,11.16,12.3Z"/>
      <path class="cls-1" d="M231.84,61.68c-.41-.96-.81-1.92-1.22-2.88-.3-.89-.7-1.74-1.23-2.57-.81-1.05-1.62-2.09-2.42-3.14-1.93-1.92-4.21-3.25-6.84-3.99-1.37-.18-2.75-.37-4.12-.55-1.81,0-3.55.31-5.2.9-.76-.61-2.72-2.12-2.9-2.23-.04-.02-.07-.05-.11-.07l-.05-.02c-1.23-.52-2.47-1.04-3.7-1.56-.04-.01-.08-.03-.13-.04-1.39-.39-2.86-.56-4.31-.58-.68,0-2.59.34-2.17.28-.7.08-1.39.17-2.09.28-.02,0-.03,0-.05.01-.04.01-.08.03-.12.04-.28.1-3.52,1.44-3.75,1.59-.57.37-1.4,1.07-1.66,1.27-1.11.86-1.13.77-1.64,1.29-.18.18-2.34,2.98-2.46,3.18-.32.55-.59,1.35-.78,1.82,0-.04-.71,1.51-.86,2.06,0,.03-.01.05-.02.08-.18,1.37-.37,2.75-.55,4.12-.04.73.23,1.9.28,2.28.08.59.08,1.57.34,2.27,1.4,3.74,1.5,3.95,4.07,6.98.43.51,1.12.93,1.6,1.28,0,.03,1.29,1.07,1.76,1.34.02.01.05.03.07.04,1.23.52,2.47,1.04,3.7,1.56.03.01.07.02.1.03.7.12,1.41.22,2.11.29.7.14,1.41.23,2.12.28,1.86.07,3.6-.28,5.24-1.01,1.08,1.11,2.3,2.08,3.58,2.83,2.55,1.49,5.12,2.13,8.06,2.2,1.51.04,3.1-.07,4.51-.61,2.02-.48,3.77-1.4,5.27-2.77,1.69-1.09,3.02-2.54,3.99-4.35,1.13-1.78,1.75-3.7,1.84-5.76.46-2.06.37-4.12-.28-6.18Z"/>
      <path class="cls-1" d="M285.22,8.37c-.66-.08-1.32-.15-1.97-.2-9.76-.72-19.65,3.78-23.51,12.78-2.39.1-4.75.76-6.91,2.06-4.68,2.82-7.93,7.04-9.63,12.2-.32.97-.56,2.03-.73,3.13-5.76,2.31-10.25,7.98-9.96,14.39.38,8.4,6.81,15.5,15.5,15.5h.63c5.53,0,10.9-3.32,13.64-8.09,3.68,8.82,12.13,15.63,22.83,16.45.04,0,.07,0,.11,0V8.37Z"/>
      <path class="cls-1" d="M162.74,197.77c-.09-2.06-.71-3.98-1.84-5.76-.81-1.05-1.62-2.09-2.42-3.14-1.93-1.92-4.21-3.25-6.84-3.99-1.37-.18-2.75-.37-4.12-.55-1.02,0-2,.1-2.97.29-.78-7.99-7.05-14.59-15.42-14.59-4.16,0-8.22,1.89-11.15,4.84-7.09.93-13.78,4.71-17.76,10.86-8.48-5.51-18.33-7.78-28.64-5.55-10.58,2.28-20.54,10.21-24.83,20.18-3.19,7.43-2.46,16.97,5.56,21.21,4.61,2.44,11.35,2.64,16.2-.09.71,1.31,1.58,2.53,2.66,3.62,1.05.81,2.09,1.62,3.14,2.42,2.42,1.4,5.03,2.11,7.82,2.12h1.02c2.13.08,4.12-.36,5.97-1.33,1.92-.63,3.58-1.69,4.99-3.2.18-.16.33-.34.49-.51l1.16.89c2.42,1.4,5.03,2.11,7.82,2.12,1.37-.18,2.75-.37,4.12-.55,2.23-.62,4.19-1.7,5.92-3.18.59.24,1.19.45,1.8.59.03,0,.06,0,.09.01,1.37.18,2.75.37,4.12.55.07,0,.14,0,.22,0,.43-.01,1.44-.16,1.97-.24.4-.03,1.98-.21,2.41-.35.07-.02.13-.05.2-.07,1.23-.52,2.47-1.04,3.7-1.56.03-.01.05-.03.08-.04.05-.03.09-.06.14-.09,1.05-.81,2.09-1.62,3.14-2.42.02-.02.04-.04.06-.05.49-.51,1.01-1.29,1.32-1.69.18-.23.97-1.11,1.3-1.71.78-1.22,1.29-2.51,1.58-3.86,1.65,1.33,3.51,2.31,5.59,2.89,1.37.18,2.75.37,4.12.55,2.8,0,5.41-.71,7.82-2.12.68-.34,1.36-.68,2.04-1.02,1.81-.97,3.26-2.3,4.35-3.99,1.37-1.5,2.29-3.25,2.77-5.27.65-2.06.74-4.12.28-6.18Z"/>
    </g>
  </g>
</svg>