<?xml version="1.0" encoding="UTF-8"?>
<svg id="Layer_2" data-name="Layer 2" xmlns="http://www.w3.org/2000/svg" viewBox="0 0 439.14 645">
  <defs>
    <style>
      .cls-1 {
        fill: #609f92;
      }

      .cls-1, .cls-2, .cls-3, .cls-4, .cls-5, .cls-6, .cls-7, .cls-8 {
        stroke-width: 0px;
      }

      .cls-2 {
        fill: #606060;
        opacity: .51;
      }

      .cls-3 {
        fill: none;
      }

      .cls-4 {
        fill: #41603c;
      }

      .cls-5 {
        fill: #3e655d;
      }

      .cls-6 {
        fill: #8ed6c7;
      }

      .cls-7 {
        fill: #603813;
      }

      .cls-8 {
        fill: #8c6239;
      }
    </style>
  </defs>
  <g id="Tree">
    <g>
      <path class="cls-3" d="m420.57,318.71c1.99-4.68,6.19-7.13,10.3-6.99,2.24-2.69,4.62-5.24,7.13-7.69v-20.11c-3.65-3.5-6.62-7.86-8.62-12.89-1.67-4.18-2.88-8.68-3.45-13.23-8.93,6.78-19.35,11.01-30.13,11.75-.29,1.59-.56,3.18-.81,4.77-.1.64-.19,1.29-.28,1.93-.19,1.28-.38,2.56-.54,3.84-.1.78-.19,1.55-.28,2.33-.14,1.15-.28,2.31-.4,3.46-.09.83-.17,1.67-.25,2.51-.11,1.1-.21,2.2-.3,3.31-.07.87-.14,1.74-.2,2.6-.08,1.08-.15,2.15-.22,3.23-.05.89-.11,1.78-.15,2.67-.06,1.06-.1,2.12-.15,3.18-.04.91-.08,1.81-.11,2.72-.04,1.05-.06,2.09-.09,3.14-.02.92-.05,1.84-.06,2.76-.02,1.03-.02,2.05-.03,3.08,0,.94-.02,1.88-.02,2.83,0,.93,0,1.86.01,2.79.01,2.52.05,5.04.1,7.56,0,.35.01.69.02,1.04.03,1.34.07,2.68.12,4.01.02.6.03,1.2.05,1.8.05,1.36.1,2.71.16,4.07.02.56.04,1.13.07,1.69.06,1.41.13,2.82.2,4.23.02.49.05.98.07,1.46.08,1.51.16,3.01.24,4.52.02.33.04.66.06.99.1,1.69.2,3.38.3,5.07.2,3.24.41,6.48.63,9.71,8.2-16.59,19.29-30.83,26.65-48.14Z"/>
      <path class="cls-3" d="m288.82,187.21c-.06.11-.12.21-.17.32.23.14.46.29.69.43.16.09.48.27.86.48-.47-.4-.93-.82-1.38-1.23Z"/>
      <path class="cls-3" d="m338.41,270.36c-.28-.08-.55-.18-.83-.27h0c-.5-.16-1-.32-1.5-.49,5.9,5.32,8.15,13.07,7.44,20.94,0,.04,0,.08,0,.12-.04.37-.08.74-.13,1.12-.01.09-.02.18-.03.27-.05.34-.1.68-.16,1.02-.02.12-.04.24-.06.37-.06.32-.12.63-.19.94-.03.15-.06.29-.09.44-.07.3-.14.59-.21.88-.04.17-.08.33-.13.49-.07.28-.15.55-.24.83-.05.18-.11.36-.16.54-.08.26-.17.53-.26.79-.06.19-.13.38-.2.57-.09.25-.18.5-.28.75-.08.2-.16.4-.24.6-.1.24-.19.47-.3.71-.09.21-.18.41-.28.62-.04.08-.07.16-.11.24,8.55,17.7,16.9,35.54,24.87,53.66-2.01-16.13-3.6-32.32-3.44-48.69.13-12.9,1.35-25.75,3.9-38.08-8.61,3.59-18.2,4.33-27.38,1.66Z"/>
      <path class="cls-3" d="m432.16,357.79c-3.9,9.26-7.3,18.92-10.63,28.35-2.36,6.67-4.58,13.41-6.68,20.22-2.1,6.8-4.08,13.67-5.96,20.57-.08.52-.16,1.03-.24,1.55.18,14.54.65,29.05,1.41,43.54s1.82,28.94,3.16,43.35c.9,9.61,1.93,19.2,3.09,28.76.07.45.15.89.22,1.34.49,1.51,1,3.02,1.53,4.51,3.66,10.48,7.97,20.6,12.61,30.52.91,1.38,1.85,2.74,2.81,4.07,1.44,1.99,2.96,3.9,4.53,5.76v-245.13c-1.19,2.32-2.34,4.67-3.43,7.08-.82,1.81-1.62,3.65-2.4,5.5Z"/>
      <path class="cls-3" d="m323.61,339.65s.04.03.06.04c-.43-.94-.86-1.89-1.28-2.83-2.25-5.06-4.4-10.19-6.48-15.35-6.43,1.45-13.18,1.02-19.22-1.76-4,.1-8-.54-11.76-1.95-1.82.02-3.66-.11-5.5-.37-.29.24-.59.47-.89.7,6.61,2.87,13.21,5.74,19.81,8.64,8.62,3.79,17.07,7.95,25.23,12.87h0s.02.01.04.02Z"/>
      <path class="cls-8" d="m385.81,637.06c-.14-.06-.27-.14-.41-.2.14.07.27.14.41.2Z"/>
      <path class="cls-8" d="m384.7,636.48c-.16-.1-.32-.21-.48-.32.16.11.31.22.48.32Z"/>
      <path class="cls-8" d="m389.51,638.06c-.15-.03-.29-.06-.44-.09.15.03.29.06.44.09Z"/>
      <path class="cls-8" d="m391.92,638.43c-.17-.02-.33-.04-.5-.06.17.02.33.04.5.06Z"/>
      <path class="cls-8" d="m393.96,638.61c-.16,0-.32-.03-.48-.04.16.01.32.03.48.04Z"/>
      <path class="cls-8" d="m383.7,635.77c-.17-.14-.34-.28-.51-.43.16.15.33.29.51.43Z"/>
      <path class="cls-8" d="m303.58,371.07s-.04-.03-.07-.04c.02.01.04.03.07.04Z"/>
      <path class="cls-8" d="m430.87,311.72c-4.11-.14-8.31,2.31-10.3,6.99-7.36,17.3-18.44,31.55-26.65,48.14-.22-3.23-.43-6.47-.63-9.71,0,0,0,0,0,0-.34,3.68-.61,7.36-.31,11.06.35,4.29,3.04,7.46,7.23,7.66,2.7.13,5.5-1.91,6.67-4.58,2.16-.1,4.25-1.21,5.54-3.67,7.14-13.61,14.46-29.02,25.57-39.76v-23.81c-2.51,2.45-4.89,5-7.13,7.69Z"/>
      <path class="cls-8" d="m392.93,291.71c.09-1.1.19-2.21.3-3.31-.11,1.1-.21,2.2-.3,3.31Z"/>
      <path class="cls-8" d="m392.02,309.25c.03-1.05.05-2.09.09-3.14-.04,1.05-.06,2.09-.09,3.14Z"/>
      <path class="cls-8" d="m301.27,369.7c-.18-.11-.36-.21-.54-.32.18.11.36.21.54.32Z"/>
      <path class="cls-8" d="m395.79,269.56c-.29,1.59-.56,3.18-.81,4.77.25-1.59.52-3.18.81-4.77,0,0,0,0,0,0Z"/>
      <path class="cls-8" d="m437.34,633.68c.22-.08.44-.16.66-.25h0c-.22.08-.44.17-.66.25Z"/>
      <path class="cls-8" d="m394.16,280.1c.17-1.28.35-2.56.54-3.84-.19,1.28-.38,2.56-.54,3.84Z"/>
      <path class="cls-8" d="m323.68,339.69h0s-.04-.03-.06-.04c.02.01.04.03.06.04Z"/>
      <path class="cls-8" d="m393.48,285.9c.12-1.16.26-2.31.4-3.46-.14,1.15-.28,2.31-.4,3.46Z"/>
      <path class="cls-8" d="m430.95,635.79c-.56.16-1.12.3-1.69.45.56-.14,1.13-.29,1.69-.45Z"/>
      <path class="cls-8" d="m396.44,638.66c-.25,0-.5,0-.75,0,.25,0,.5,0,.75,0Z"/>
      <path class="cls-8" d="m433.57,635.01c-.54.17-1.08.34-1.62.49.54-.16,1.08-.32,1.62-.49Z"/>
      <path class="cls-8" d="m436.19,634.12c-.51.19-1.03.36-1.54.53.51-.17,1.03-.35,1.54-.53Z"/>
      <path class="cls-8" d="m392.52,297.55c.07-1.08.14-2.16.22-3.23-.08,1.08-.15,2.15-.22,3.23Z"/>
      <path class="cls-8" d="m432.16,357.79c-3.9,9.26-7.3,18.92-10.63,28.35-2.36,6.67-4.58,13.41-6.68,20.22,2.1-6.8,4.33-13.55,6.68-20.22,3.33-9.43,6.73-19.09,10.63-28.35Z"/>
      <path class="cls-8" d="m413.22,515.37c.9,9.61,1.93,19.2,3.09,28.76.07.45.15.89.22,1.34-.07-.45-.15-.89-.22-1.34-1.16-9.57-2.19-19.16-3.09-28.76Z"/>
      <path class="cls-8" d="m418.05,549.99c3.66,10.48,7.97,20.6,12.61,30.52.91,1.38,1.85,2.74,2.81,4.07-.96-1.33-1.9-2.69-2.81-4.07-4.64-9.91-8.95-20.04-12.61-30.52Z"/>
      <path class="cls-8" d="m413.22,515.37c-1.35-14.41-2.4-28.87-3.16-43.35.76,14.49,1.82,28.94,3.16,43.35Z"/>
      <path class="cls-8" d="m393,352.07c-.02-.33-.04-.66-.06-.99.02.33.04.66.06.99Z"/>
      <path class="cls-8" d="m392.21,303.4c.04-1.06.09-2.12.15-3.18-.06,1.06-.1,2.12-.15,3.18Z"/>
      <path class="cls-8" d="m438,590.34h0c-1.57-1.87-3.09-3.77-4.53-5.76,1.44,1.99,2.96,3.9,4.53,5.76Z"/>
      <path class="cls-8" d="m391.91,320.71c0-.93-.01-1.86-.01-2.79,0,.93,0,1.86.01,2.79Z"/>
      <path class="cls-8" d="m392.7,346.56c-.02-.49-.05-.98-.07-1.46.02.49.05.98.07,1.46Z"/>
      <path class="cls-8" d="m391.92,315.09c0-1.03.02-2.05.03-3.08-.02,1.03-.02,2.05-.03,3.08Z"/>
      <path class="cls-8" d="m392.03,329.31c0-.35-.01-.69-.02-1.04,0,.35.01.69.02,1.04Z"/>
      <path class="cls-8" d="m392.2,335.12c-.02-.6-.04-1.2-.05-1.8.02.6.03,1.2.05,1.8Z"/>
      <path class="cls-8" d="m392.43,340.87c-.02-.56-.05-1.13-.07-1.69.02.56.04,1.13.07,1.69Z"/>
      <path class="cls-8" d="m434.57,352.29c1.09-2.41,2.25-4.76,3.43-7.08h0c-1.19,2.32-2.34,4.67-3.43,7.08Z"/>
      <path class="cls-8" d="m422.88,619.36c-.83-5.14-2.86-9.89-5.51-14.52-3.81-6.68-6.16-12.8-7.24-20.57-2.38-17.17-4.58-34.27-7.85-51.3-3.39-17.63-7.59-34.9-9.52-52.82-1.9-17.66-3.07-35.38-5.6-52.96-.04-.26-.09-.51-.16-.75-.05-2.92-.25-5.84-.81-8.74-1.29-6.7-4.38-12.78-6.66-19.12-2.44-6.77-3.14-13.07-2.48-20.3.62-6.76,1.87-13.39,2.68-19.99,1.41-1.29,2.38-3.11,2.43-5.33.26-12.82-.78-25.63-1.62-38.41,1.63-9.54,1.4-19.56,2.13-29.1.14-1.81.33-3.61.54-5.41.96-3.6,2.03-7.18,3.15-10.73-4.7-.59-9.42-1.89-14.04-3.98-2.09,1.32-4.27,2.44-6.52,3.37-2.55,12.33-3.77,25.18-3.9,38.08-.17,16.37,1.43,32.56,3.44,48.69-7.97-18.12-16.32-35.96-24.87-53.66-.07.15-.14.29-.21.43-.1.21-.21.42-.31.63-.11.21-.22.43-.33.64-.11.22-.23.43-.35.64-.11.2-.23.41-.34.61-.13.22-.26.44-.4.65-.12.19-.23.38-.35.57-.14.22-.29.44-.44.66-.12.18-.24.36-.36.54-.16.23-.33.46-.5.68-.12.16-.23.32-.35.48-.19.25-.39.5-.6.75-.1.13-.2.26-.31.38-.31.37-.63.74-.95,1.1-3.42,3.76-7.66,6.76-12.28,8.78,4.45,6.95,8.48,14.19,12.62,21.41,3.69,20.39,10.14,40.02,18.09,59.02-1.51-1.01-3.03-1.99-4.58-2.93-6.72-14.93-14.3-29.19-23.16-42.68-.01-1.79-.55-3.56-1.72-4.95.76-1.51,1.06-3.32.65-5.2.2-1.44.01-2.96-.7-4.42-8.16-4.91-16.61-9.07-25.23-12.87-6.6-2.9-13.2-5.77-19.81-8.64-7.02,5.5-15.57,8.89-24.23,10.38,6.39,4.07,12.66,8.4,19.03,12.24,7.69,4.64,15.46,9.11,23.47,13.02,9.19,7.79,17.48,16.47,23.36,26.76,0,0,0,0,0,0,.09.05.17.1.26.15,13.9,12.55,25.92,28.01,35.6,45.53,6.77,52.7,11.7,105.73,14.87,158.94,3.12-9.37,3.52-20.45,4.37-29.79.09-.99.15-1.98.23-2.96-.46,10.15-1.01,20.3-1.58,30.43-.4,7.16-.95,14.34-1.95,21.43.21,4.04.41,8.08.59,12.11.27,5.88,2.71,10.69,7.04,13.07.04.02.07.03.11.05.66,2.14,1.72,4.04,3.15,5.5-.99-1.02-1.8-2.24-2.42-3.62,6.33-17.63,7.41-36.99,8.29-55.66.46-9.6.99-19.2,1.42-28.8,2.23,12.84,4.04,25.72,5.69,38.68.8,6.26,2.04,12.34,4.4,18.1-3.71,10.7-.2,21.72-2.06,32.59-.14.82-.17,1.6-.1,2.33,2.3-.11,4.6-.41,6.96-.83,7.95.99,15.92.47,23.73-1.43-1.42-4.46-2.82-8.93-4-13.47-.39-1.52-1.06-2.67-1.88-3.54Z"/>
      <path class="cls-7" d="m375.48,552.38c-.08.99-.14,1.98-.23,2.96-.85,9.34-1.25,20.42-4.37,29.79,0,0,0,.01,0,.02.38,6.36.75,12.73,1.07,19.09,0,0,0,0,0,0,1-7.09,1.55-14.27,1.95-21.43.57-10.14,1.12-20.28,1.58-30.43Z"/>
      <path class="cls-7" d="m398.17,636.29c1.86-10.87-1.65-21.89,2.06-32.59-2.35-5.76-3.6-11.84-4.4-18.1-1.65-12.95-3.46-25.84-5.69-38.68-.43,9.6-.96,19.2-1.42,28.8-.89,18.67-1.96,38.02-8.29,55.66.62,1.37,1.43,2.6,2.42,3.62.11.12.23.24.35.35.16.15.33.29.51.43.17.14.34.27.52.39.16.11.31.22.48.32.23.14.46.26.7.38.14.07.27.14.41.2.39.17.8.32,1.22.43.69.18,1.37.34,2.04.48.15.03.29.06.44.09.64.12,1.27.22,1.91.31.17.02.33.04.5.06.52.06,1.05.11,1.57.15.16.01.32.03.48.04.58.03,1.15.05,1.72.05.25,0,.5,0,.75,0,.54,0,1.08-.02,1.63-.04h0c-.07-.73-.04-1.51.1-2.33Z"/>
      <path class="cls-7" d="m438,590.34c-1.57-1.86-3.09-3.77-4.53-5.76-.96-1.33-1.9-2.69-2.81-4.07-4.64-9.91-8.95-20.04-12.61-30.52-.52-1.5-1.03-3-1.53-4.51-.07-.45-.15-.89-.22-1.34-1.16-9.57-2.19-19.16-3.09-28.76-1.35-14.41-2.4-28.87-3.16-43.35s-1.23-29-1.41-43.54c.08-.52.16-1.03.24-1.55,1.87-6.9,3.85-13.77,5.96-20.57,2.1-6.8,4.33-13.55,6.68-20.22,3.33-9.43,6.73-19.09,10.63-28.35.78-1.85,1.58-3.69,2.4-5.5,1.09-2.41,2.25-4.76,3.43-7.08v-17.38c-11.11,10.75-18.42,26.15-25.57,39.76-1.29,2.46-3.38,3.57-5.54,3.67-1.17,2.67-3.98,4.71-6.67,4.58-4.19-.2-6.88-3.37-7.23-7.66-.3-3.7-.03-7.38.31-11.06,0,0,0,0,0,0-.1-1.69-.2-3.38-.3-5.07-.02-.33-.04-.66-.06-.99-.08-1.5-.17-3.01-.24-4.52-.02-.49-.05-.98-.07-1.46-.07-1.41-.14-2.82-.2-4.23-.02-.56-.05-1.13-.07-1.69-.06-1.36-.11-2.71-.16-4.07-.02-.6-.04-1.2-.05-1.8-.04-1.34-.08-2.68-.12-4.01,0-.35-.01-.69-.02-1.04-.06-2.52-.09-5.04-.1-7.56,0-.93-.01-1.86-.01-2.79,0-.94.01-1.88.02-2.83,0-1.03.02-2.05.03-3.08.02-.92.04-1.84.06-2.76.03-1.05.05-2.09.09-3.14.03-.91.07-1.81.11-2.72.04-1.06.09-2.12.15-3.18.05-.89.1-1.78.15-2.67.07-1.08.14-2.16.22-3.23.06-.87.13-1.74.2-2.6.09-1.1.19-2.21.3-3.31.08-.84.16-1.67.25-2.51.12-1.16.26-2.31.4-3.46.09-.78.18-1.55.28-2.33.17-1.28.35-2.56.54-3.84.09-.64.18-1.29.28-1.93.25-1.59.52-3.18.81-4.77-3.12.21-6.28.14-9.44-.26-1.12,3.55-2.19,7.13-3.15,10.73-.21,1.8-.4,3.6-.54,5.41-.74,9.54-.5,19.56-2.13,29.1.84,12.78,1.89,25.59,1.62,38.41-.05,2.23-1.01,4.04-2.43,5.33-.81,6.6-2.06,13.23-2.68,19.99-.66,7.22.05,13.52,2.48,20.3,2.28,6.34,5.36,12.43,6.66,19.12.56,2.91.77,5.82.81,8.74.07.24.13.5.16.75,2.53,17.58,3.71,35.3,5.6,52.96,1.92,17.92,6.13,35.19,9.52,52.82,3.27,17.03,5.47,34.13,7.85,51.3,1.08,7.78,3.43,13.89,7.24,20.57,2.64,4.63,4.68,9.38,5.51,14.52.82.86,1.48,2.02,1.88,3.54,1.18,4.54,2.58,9.01,4,13.47,0,0,0,0,0,0,.17-.04.34-.09.51-.13.56-.14,1.13-.29,1.69-.45.33-.09.67-.19,1-.29.54-.16,1.08-.32,1.62-.49.36-.11.72-.24,1.07-.36.51-.17,1.03-.35,1.54-.53.38-.14.77-.29,1.15-.43.22-.08.44-.17.66-.26v-43.08Z"/>
      <path class="cls-7" d="m322.39,336.85c.42.95.86,1.89,1.28,2.83h0s-.04-.03-.06-.04c-.01,0-.02-.01-.04-.02h0c.71,1.46.9,2.98.7,4.42.41,1.89.11,3.69-.65,5.2,1.16,1.39,1.7,3.16,1.72,4.95,8.86,13.49,16.44,27.75,23.16,42.68,1.55.94,3.07,1.92,4.58,2.93-7.95-19.01-14.4-38.64-18.09-59.02-4.14-7.22-8.17-14.46-12.62-21.41-2.09.92-4.26,1.64-6.47,2.13,2.09,5.17,4.23,10.3,6.48,15.35Z"/>
      <path class="cls-7" d="m296.81,353.75c-8.01-3.91-15.78-8.39-23.47-13.02-6.37-3.84-12.64-8.17-19.03-12.24-1.34.23-2.69.42-4.03.56-14.25,1.5-29.86-3.47-40.18-14.25-1.24.86-2.52,1.65-3.82,2.38,18.51,7.99,37.03,15.97,55.54,23.97,1.28,1.06,2.56,2.11,3.84,3.15,10.46,8.46,21.25,16.26,32.33,23.37.9.58,1.81,1.14,2.73,1.7.18.11.36.21.54.32.75.45,1.49.89,2.25,1.33.02.01.04.03.07.04,5.48,3.17,11.14,6.11,16.58,9.45,0,0,0,0,0,0-5.88-10.29-14.16-18.98-23.36-26.76Z"/>
      <path class="cls-1" d="m428.29,54.67c.89.16,1.76.4,2.61.72.76-.65,2.72-2.24,2.9-2.36.04-.02.07-.05.11-.07l.05-.02c1.23-.55,2.47-1.1,3.7-1.65.04-.02.08-.03.13-.04.07-.02.14-.03.2-.05v-8.08c-3.76,3.27-7.02,7.21-9.71,11.56Z"/>
      <path class="cls-1" d="m341.85,298.33c.09-.26.18-.52.26-.79-.08.26-.17.53-.26.79Z"/>
      <path class="cls-1" d="m343.19,293.05c.06-.34.11-.68.16-1.02-.05.34-.1.68-.16,1.02Z"/>
      <path class="cls-1" d="m341.37,299.65c.1-.25.19-.5.28-.75-.09.25-.18.5-.28.75Z"/>
      <path class="cls-1" d="m340.25,302.24c.07-.14.14-.29.21-.43.04-.08.07-.16.11-.24-.1.23-.21.45-.31.67Z"/>
      <path class="cls-1" d="m342.94,294.36c.07-.31.13-.63.19-.94-.06.32-.12.63-.19.94Z"/>
      <path class="cls-1" d="m342.63,295.68c.07-.29.15-.59.21-.88-.07.3-.14.59-.21.88Z"/>
      <path class="cls-1" d="m342.27,297.01c.08-.28.16-.55.24-.83-.07.28-.15.55-.24.83Z"/>
      <path class="cls-1" d="m16.66,255.98c.04-.53.08-1.06.13-1.59-.06.53-.1,1.06-.13,1.59Z"/>
      <path class="cls-1" d="m16.56,258.9c0-.76.02-1.51.06-2.26-.04.75-.06,1.5-.06,2.26Z"/>
      <path class="cls-1" d="m17.2,251.52c.11-.61.23-1.22.37-1.83-.14.6-.26,1.21-.37,1.83Z"/>
      <path class="cls-1" d="m17.62,249.42c.52-2.23,1.21-4.38,2.06-6.47-.85,2.08-1.54,4.24-2.06,6.47Z"/>
      <path class="cls-1" d="m16.87,253.69c.06-.53.14-1.05.22-1.57-.08.52-.16,1.05-.22,1.57Z"/>
      <path class="cls-1" d="m340.84,300.95c.1-.24.2-.47.3-.71-.1.24-.19.47-.3.71Z"/>
      <path class="cls-1" d="m343.38,291.76c.05-.37.09-.74.13-1.12-.04.37-.08.74-.13,1.12Z"/>
      <path class="cls-1" d="m29.6,250.12c-.13-1.02-.26-2.04-.39-3.06,0-2.96.71-5.73,2.12-8.29l.06-.08c.27-.69.57-1.36.96-2.01.97-1.91,2.3-3.45,3.99-4.61,1.5-1.45,3.25-2.43,5.27-2.94,1.37-.2,2.75-.39,4.12-.59,1.28,0,2.52.17,3.73.49.15-.41.32-.82.51-1.22.63-2.04,1.69-3.8,3.2-5.28,1.4-1.6,3.07-2.73,4.99-3.39,1.85-1.03,3.84-1.5,5.97-1.41,1.37.2,2.75.39,4.12.59.55.16,1.07.37,1.58.58.11-.2.2-.41.32-.61.81-1.11,1.62-2.22,2.42-3.32,1.93-2.03,4.21-3.44,6.84-4.22,1.37-.2,2.75-.39,4.12-.59,2.8,0,5.41.76,7.82,2.24.68.36,1.36.72,2.04,1.08,1.81,1.03,3.26,2.44,4.35,4.23.14.17.26.35.4.52,1.16-1.05,2.47-1.83,3.93-2.33,1.85-1.03,3.84-1.5,5.97-1.41,2.13-.09,4.12.39,5.97,1.41,1.92.66,3.58,1.79,4.99,3.39.81,1.11,1.62,2.22,2.42,3.32,1.4,2.56,2.11,5.32,2.12,8.29-.18,1.45-.37,2.91-.55,4.36-.74,2.78-2.07,5.2-3.99,7.24-.34.36-.68.72-1.02,1.08-1.4,1.6-3.07,2.73-4.99,3.39-1.85,1.03-3.84,1.5-5.97,1.41-2.13.09-4.12-.39-5.97-1.41-1.92-.66-3.58-1.79-4.99-3.39-.59-.8-1.17-1.61-1.76-2.41-1.4,1.02-2.93,1.81-4.61,2.31-.08.01-.16.02-.24.03.05.33.08.63.09,1.01.08,2.71-.83,6.16-2.16,8.48-.72,1.26-1.53,2.52-2.56,3.52-.02.02-.04.04-.06.05-1.05.86-2.09,1.71-3.14,2.57-.05.03-.09.06-.14.09-1.2.77-2.56,1.37-3.94,1.74-.03,0-.05.01-.08.01-1.37.2-2.75.39-4.12.59-.05,0-.11,0-.16,0-1.45.02-2.95-.2-4.35-.64-2.48-.78-5.21-2.27-7-4.32-.03-.04-.07-.08-.11-.12-.74-1.01-1.47-2.02-2.21-3.03-.16.34-.33.68-.53,1.05-.75,1.4-1.7,2.73-2.8,3.84-1.89,1.89-3.48,2.96-5.62,3.86,12.32,3.54,25.91,2.35,37.42-3.3.31.33.62.67.94.99,16.65,16.81,41.71,21.81,63.27,13.31,5.38-2.12,10.68-4.73,15.77-7.79.21.46.42.93.65,1.39,2.9,5.8,8.38,10.95,14.27,13.73,10.72,14.83,28.56,23.53,46.28,18.28,3.1-.92,6.03-2.13,8.82-3.61,2.41,2.52,5.11,4.82,8.1,6.86,12.16,8.28,28.06,11.26,42.07,7.39,2.08-.57,4.08-1.36,6-2.31,2.38,1.53,4.96,2.74,7.57,3.64,6.83,2.34,15.82.74,21.91-3.04,5.48-3.39,12.06-11.04,13.07-18,.92-6.35,1.33-12.53.94-18.57,4.72,5.21,6.51,12.24,5.86,19.35.71-7.87-1.54-15.62-7.44-20.94.5.18,1,.33,1.5.49-.63-7.84-2.63-15.45-6.66-22.9-1.34-2.47-2.88-4.86-4.59-7.14,1.14-1.18,2.21-2.47,3.16-3.84,5.54,1.92,11.59,2.31,16.98,1.01,6.78-1.64,13.54-7.59,16.99-13.84,3.56-6.45,4.15-13.2,3.3-20.24-.04-.65-.06-1.3-.06-1.96.02-.08.04-.17.07-.25.05-.06.1-.12.15-.17.06-.06.13-.12.19-.19.94-.62,1.87-1.23,2.84-1.8,1.74-.61,2.74-1,3.23-1.23,1.76-.54,3.55-.97,5.35-1.34,3.54-.28,7.09-.28,10.63,0,1.25.26,2.5.56,3.74.91.95.27,1.88.57,2.82.88,1.23.71,2.46,1.43,3.68,2.16.38.39.76.78,1.12,1.2,10.04,11.28,26.31,10.91,37.47,2.36v-119.38c-.39-.13-.77-.29-1.15-.46-1.08,1.17-2.3,2.2-3.58,2.99-2.55,1.57-5.12,2.25-8.06,2.33-1.51.04-3.1-.07-4.51-.64-2.02-.51-3.77-1.49-5.27-2.94-1.69-1.16-3.02-2.69-3.99-4.61-1.13-1.88-1.75-3.92-1.84-6.1-.46-2.18-.37-4.36.28-6.55.41-1.02.81-2.04,1.22-3.06.3-.94.7-1.85,1.23-2.72.81-1.11,1.62-2.22,2.42-3.32,1.93-2.03,4.21-3.44,6.84-4.22,1.37-.2,2.75-.39,4.12-.59.73,0,1.43.07,2.13.17-.65-2.56-1.46-5.07-2.47-7.48,3.84-2.6,8.16-4.24,12.64-4.85h0c-4.75.64-9.33,2.43-13.35,5.32-2.48-11.45-9.3-21.26-21.2-23.96-2.45-.56-4.99-.74-7.56-.64-7.55-9.41-18.06-16.6-29.31-18.97-7.47-1.58-15.36-1.51-22.32,1.4-5.04-.2-10.2.34-15.44,1.69-15.82,4.09-29.63,15.77-37.53,30.75-2.23,4.22-3.99,8.57-5.36,13-9.15-10.46-23.43-14.14-36.49-10.19-19.44,5.89-30.3,25.53-30.61,45.7-5.84-5.23-12.93-8.92-20.15-10.28-17.99-3.37-37.17,3.44-48.48,18.95-3.74,5.13-6.5,10.83-8.4,16.83-6.12,6.83-9.9,15.59-9.06,26.11.24,3.04.77,5.93,1.54,8.67-2.21,2.18-4.13,4.6-5.65,7.24-5.15,8.92-5.51,17.96-2.81,26.17-4.82.18-9.54.91-13.8,2.06-5.94,1.6-11.8,4.15-17,7.65-4.84.87-9.63,2.46-13.56,5.07-4.19,2.78-7.09,6.72-8.67,11.14-7.59.15-15.07,2.59-22.02,6.07-12.87,6.44-25.42,17.01-31.08,30.87.28-.7.59-1.39.91-2.07,2.78,3.29,5.76,6.38,9.01,9.25ZM420.41,36.43c1.17,2,2.11,4.17,2.89,6.43-.91-1.65-1.92-3.24-3.05-4.76.07-.55.12-1.11.16-1.66ZM143.45,233.89c-.33-.27-.66-.54-1-.82,1.83,1.05,3.76,2.02,5.78,2.95-1.59-.71-3.19-1.42-4.78-2.14Zm144.25,15.39c-.16.33-.3.66-.48.98-.7,1.27-1.56,2.47-2.56,3.48-1.05.86-2.09,1.71-3.14,2.57-.02.02-.04.03-.06.04-.02.01-.04.03-.07.04-1.23.55-2.47,1.1-3.7,1.66-.04.01-.08.03-.12.04-.03,0-.05.01-.08.01-1.37.2-2.75.39-4.12.59-.04,0-.09,0-.13,0-.03,0-.05,0-.08,0-1.37-.2-2.75-.39-4.12-.59-2.72-.62-5.26-2.41-7.25-4.39-1.01-1-1.92-2.22-2.56-3.48-.01-.02-.03-.05-.04-.07-.52-1.31-1.04-2.61-1.56-3.92-.01-.05-.03-.1-.05-.16-.29-.98-.45-1.96-.52-2.94-3.75,5.83-10.09,8.74-16.7,7.8-1.65-.23-3.21-.68-4.69-1.3-1.1.65-2.26,1.18-3.5,1.52-.96.27-1.96.41-2.98.45-1.65.18-3.12.12-5.19-.48-2.43-.7-4.15-1.78-5.95-3.34-.35.28-.7.57-1.04.85-2.11,1.29-4.38,1.94-6.81,1.95h-2.04c-1.86.07-3.59-.34-5.2-1.23-.02,0-.04-.02-.06-.03-1.84.26-3.73.21-5.52-.27-1.08.29-2.25.44-3.52.44-4.11,0-7.23-1.61-9.4-4.05-.31-.13-.61-.26-.91-.43-1.67-.58-3.12-1.56-4.34-2.96-1.32-1.3-2.25-2.83-2.79-4.6-.85-1.7-1.23-3.54-1.16-5.51.16-1.27.32-2.53.48-3.8.64-2.42,1.8-4.53,3.47-6.31.91-.75,1.82-1.49,2.73-2.24.17-.11.35-.2.52-.3,2.11-4.36,5.97-7.69,11.03-8.73,6.41-1.33,12.79-1.57,18.67,1.64.08-.49.17-.99.3-1.48.45-1.14.91-2.28,1.36-3.42,1.2-2.15,2.81-3.86,4.84-5.13.68-.37,1.36-.73,2.04-1.1,1.55-1.04,3.22-1.61,5.02-1.7,1.79-.43,3.59-.34,5.38.26,1.76.44,3.29,1.3,4.59,2.56,1.47,1.01,2.63,2.35,3.48,4.01.15.37.3.74.44,1.11,4.83-6.6,11.32-11.49,19.48-12.65,3.99-.57,7.77-.13,11.2,1.11,4.72-1.38,9.63-1.7,14.43,0,8.2,2.91,14.62,10.35,15.78,19.52.03.24.04.48.06.71.79.11,1.57.22,2.36.34,2.63.78,4.91,2.19,6.84,4.22,1.16,1.43,2.32,2.94,3.3,4.51.17.27.3.54.43.82.63,1.37,1.32,2.95,1.72,4.42.16.8.27,1.61.33,2.43.12.81.22,1.62.3,2.44.02,1.47-.61,4.99-.58,4.89-.02.11-.05.22-.09.33-.52,1.31-1.04,2.61-1.56,3.92-.67,1.36-1.62,2.62-2.64,3.69-.59.62-1.08.94-1.86,1.59-.72.59-1.25,1.13-2,1.55-1.23.55-2.47,1.1-3.7,1.66-.1.05-.2.08-.31.11-1.41.46-2.95.63-4.43.64-1.36,0-5.08-.82-4.42-.6-1.23-.4-2.83-1.11-3.97-1.74-.79-.44-1.7-1.14-2.58-1.96Zm.94-61.76c.06-.11.12-.21.17-.32.45.42.92.83,1.38,1.23-.39-.21-.7-.39-.86-.48-.23-.14-.46-.29-.69-.43Zm-142.04-52.61c.38-1.14.87-2.24,1.44-3.31,0-5.57,2.23-11,7.57-15.26.68-1.83,1.62-3.53,2.75-5.12.04-.2.07-.4.12-.61,1.78-7.99,7.2-13.03,13.75-15.83,5.91-3.73,13.12-4.84,19.41-1.18.2.12.39.25.59.37,2.5,1.22,4.71,2.99,6.49,5.14,1.65-.82,3.47-1.32,5.42-1.45.47-.38.93-.76,1.4-1.15,2.42-1.49,5.03-2.23,7.82-2.24,1.37.2,2.75.39,4.12.59,2.63.78,4.91,2.19,6.84,4.22.76.78,1.53,1.56,2.29,2.34.36-.29.66-.53.81-.64-.01-.27-.03-.55-.03-.82v-1.08c-.08-2.26.36-4.37,1.33-6.33.63-2.04,1.69-3.8,3.2-5.28.59-.67,1.23-1.23,1.9-1.74.22-1.48.61-2.91,1.21-4.28-.26-.66-.47-1.22-.5-1.34,0-.03-.02-.06-.03-.1-.05-.19-.56-4.2-.56-4.42,0-.05,0-.09,0-.14,0-.61.48-3.86.56-4.46.48-2.14,1.4-4,2.77-5.58,1.09-1.79,2.54-3.2,4.35-4.23,1.78-1.2,3.7-1.85,5.76-1.95.9-.21,1.79-.29,2.69-.28.38-.05.77-.11,1.15-.16.24,0,.48.01.72.03.14-.19.27-.37.41-.56,1.93-2.03,4.21-3.44,6.84-4.22.89-.13,1.78-.25,2.67-.38.26-.04.51-.08.77-.11l.67-.1c.12,0,.24.01.36.01.22-.01.44-.02.66-.02,3.46.45,6.42.72,9.43,2.88,1.04.75,2.07,1.56,3.04,2.47.55-.93,1.21-1.79,2-2.57,2.95-2.87,6.83-5,10.96-4.81,4.06.19,7.65,1.66,10.69,4.56.72-1.8,1.58-3.53,2.6-5.15.43-1.38,1.02-2.74,1.78-4.07,3.16-5.52,8.09-10.04,13.73-12.49,1.5-2.16,3.37-4.05,5.64-5.53.07-.04.14-.08.21-.13,1.31-2.16,2.86-4.14,4.58-5.81,4.53-4.4,10.32-7.11,16.26-7.42,4.07-2.08,8.72-3.18,13.18-3.53,9.76-.76,19.65,4,23.51,13.54,2.39.1,4.75.81,6.91,2.18,4.68,2.99,7.93,7.45,9.63,12.93.32,1.03.56,2.15.73,3.31,5.76,2.45,10.25,8.45,9.96,15.24-.38,8.89-6.81,16.42-15.5,16.42h-.63c-5.53,0-10.9-3.52-13.64-8.57-3.68,9.34-12.13,16.56-22.83,17.42-5.51.44-11.05-1.15-15.73-4.2-3.85-.47-7.6-1.77-10.84-3.88-.46-.3-.91-.63-1.34-.96-1.52,2.38-3.48,4.36-5.77,5.92.61,9.63-5.14,18.81-12.88,23.67-5.33,3.35-12.03,4.3-18.55,3.31-.18.08-.36.16-.54.24-2.61.74-5.22.77-7.83.1-3.72.41-7.54.14-11.22-.76-2.03,1.54-4.29,2.77-6.68,3.63-3.49,1.25-7.75,1.54-11.69.71-.6.64-1.25,1.18-1.93,1.66.13,1.05.26,2.1.26,2.21,0,.22-.51,4.23-.56,4.45-.19.75-.32.85-.81,2.08-.41,1.02-.47,1.41-.85,2.08-.21.37-2.21,3.11-2.5,3.41-.48.52-1.5,1.25-1.71,1.42-.79.64-1.12,1.01-1.78,1.42-1.23.55-2.47,1.1-3.7,1.65-.04.02-.08.03-.12.05-.08.02-.16.04-.25.06-1.37.2-2.75.39-4.12.59-.04,0-.09,0-.13.01-.09,0-.18,0-.27,0h-.14c-1.37-.21-2.75-.4-4.12-.6-.42-.07-.82-.2-1.22-.37-2.02-.51-3.77-1.49-5.27-2.94-.27-.18-.51-.4-.77-.6-2.2,1.2-4.56,1.81-7.07,1.81-1.37-.2-2.75-.39-4.12-.59-.36-.11-.71-.26-1.06-.39-1.71.72-3.57,1.13-5.56,1.13h-.63c-1.63,0-3.24-.32-4.77-.87-.6,1.05-1.29,2.03-2.1,2.89-1.17,1.24-2.45,2.22-3.79,2.95-2.49,2.18-5.4,3.77-8.45,4.64-.22.15-.44.31-.67.45-.05,1.67-.34,3.32-.93,4.89-1.24,3.3-3.31,6.28-5.88,8.48-.3.88-.67,1.75-1.13,2.59-1.36,2.46-3.27,4.39-5.48,5.75-.84,5.04-3.65,9.63-8.77,12.3-11.29,5.89-22.76-1.69-25.68-13.95-2.55-10.67,1.91-20.28,9.17-25.67Z"/>
      <path class="cls-1" d="m339.94,302.88c-.11.21-.22.43-.33.64.11-.21.22-.43.33-.64Z"/>
      <path class="cls-1" d="m335.91,309.11c-.1.13-.2.26-.31.38.1-.13.2-.26.31-.38Z"/>
      <path class="cls-1" d="m338.51,305.42c-.12.19-.23.38-.35.57.12-.19.24-.38.35-.57Z"/>
      <path class="cls-1" d="m339.25,304.16c-.11.2-.23.41-.34.61.12-.2.23-.4.34-.61Z"/>
      <path class="cls-1" d="m336.86,307.88c-.12.16-.23.32-.35.48.12-.16.24-.32.35-.48Z"/>
      <path class="cls-1" d="m337.72,306.66c-.12.18-.24.36-.36.54.12-.18.24-.36.36-.54Z"/>
      <path class="cls-4" d="m143.45,233.89c1.59.71,3.19,1.42,4.78,2.14-2.01-.93-3.94-1.9-5.78-2.95.33.27.66.54,1,.82Z"/>
      <path class="cls-4" d="m420.41,36.43c-.04.56-.09,1.11-.16,1.66,1.13,1.52,2.14,3.11,3.05,4.76-.78-2.26-1.73-4.42-2.89-6.43Z"/>
      <path class="cls-5" d="m425.92,257.81c.57,4.55,1.79,9.05,3.45,13.23,2,5.03,4.97,9.39,8.62,12.89v-80.22c-11.16,8.55-27.43,8.92-37.47-2.36-.37-.41-.74-.81-1.12-1.2-1.22-.73-2.45-1.46-3.68-2.16-.93-.32-1.87-.62-2.82-.88-1.24-.35-2.49-.65-3.74-.91-3.54-.28-7.09-.28-10.63,0-1.8.37-3.59.8-5.35,1.34-.49.23-1.48.63-3.23,1.23-.97.57-1.91,1.19-2.84,1.8-.06.06-.13.12-.19.19-.05.05-.1.12-.15.17-.02.08-.05.18-.07.25,0,.65.03,1.3.06,1.96.85,7.05.26,13.8-3.3,20.24-3.45,6.25-10.21,12.21-16.99,13.84-5.4,1.3-11.44.91-16.98-1.01-.96,1.37-2.02,2.65-3.16,3.84,1.71,2.28,3.25,4.66,4.59,7.14,4.03,7.45,6.03,15.06,6.66,22.9h0c.28.09.55.19.83.27,9.18,2.67,18.77,1.93,27.38-1.66,2.25-.94,4.43-2.06,6.52-3.37,4.63,2.08,9.34,3.38,14.04,3.98,3.16.4,6.31.47,9.44.26,0,0,0,0,0,0,10.78-.74,21.2-4.97,30.13-11.75Z"/>
      <path class="cls-5" d="m210.11,314.8c10.32,10.78,25.93,15.75,40.18,14.25,1.34-.14,2.69-.33,4.03-.56,8.66-1.49,17.21-4.87,24.23-10.38.3-.23.6-.46.89-.7,1.84.26,3.68.39,5.5.37,3.77,1.41,7.76,2.05,11.76,1.95,6.04,2.79,12.79,3.21,19.22,1.76,2.21-.5,4.38-1.21,6.47-2.13,4.61-2.02,8.85-5.02,12.28-8.78.33-.36.64-.72.95-1.1.1-.13.2-.26.31-.38.2-.25.4-.5.6-.75.12-.16.24-.32.35-.48.17-.23.34-.45.5-.68.12-.18.24-.36.36-.54.15-.22.3-.44.44-.66.12-.19.24-.38.35-.57.13-.22.27-.43.4-.65.12-.2.23-.4.34-.61.12-.21.24-.43.35-.64.11-.21.22-.43.33-.64.11-.21.21-.42.31-.63.11-.22.21-.45.31-.67.09-.21.19-.41.28-.62.1-.24.2-.47.3-.71.08-.2.16-.4.24-.6.1-.25.19-.5.28-.75.07-.19.14-.38.2-.57.09-.26.18-.52.26-.79.06-.18.11-.36.16-.54.08-.28.16-.55.24-.83.04-.16.09-.33.13-.49.07-.29.15-.59.21-.88.03-.15.06-.29.09-.44.07-.31.13-.63.19-.94.02-.12.04-.24.06-.37.06-.34.11-.68.16-1.02.01-.09.02-.18.03-.27.05-.37.09-.74.13-1.12,0-.04,0-.08,0-.12.64-7.12-1.14-14.14-5.86-19.35.38,6.04-.02,12.22-.94,18.57-1.01,6.96-7.59,14.6-13.07,18-6.09,3.78-15.08,5.38-21.91,3.04-2.61-.9-5.19-2.1-7.57-3.64-1.92.95-3.92,1.74-6,2.31-14.01,3.87-29.91.89-42.07-7.39-2.99-2.04-5.69-4.35-8.1-6.86-2.79,1.48-5.72,2.7-8.82,3.61-17.72,5.26-35.56-3.44-46.28-18.28-5.89-2.78-11.37-7.92-14.27-13.73-.23-.46-.44-.93-.65-1.39-5.08,3.05-10.39,5.66-15.77,7.79-21.55,8.5-46.62,3.5-63.27-13.31-.32-.32-.62-.66-.94-.99-11.51,5.66-25.1,6.84-37.42,3.3-.55.23-1.12.45-1.76.67-2.06.68-4.12.78-6.18.29-2.06-.1-3.98-.75-5.76-1.95-1.81-1.03-3.26-2.44-4.35-4.23-1.37-1.59-2.29-3.45-2.77-5.58-.06-.43-.11-.87-.17-1.3-3.24-2.88-6.23-5.96-9.01-9.25-.32.68-.62,1.37-.91,2.07,0,0,0,.01,0,.02-.85,2.08-1.54,4.24-2.06,6.47-.02.09-.04.18-.06.27-.14.6-.26,1.21-.37,1.83-.03.2-.07.39-.1.59-.08.52-.16,1.05-.22,1.57-.03.23-.06.47-.08.7-.06.53-.1,1.06-.13,1.59-.01.22-.03.44-.05.66-.04.75-.06,1.5-.06,2.26.09,20.66,13.67,38.88,28.25,51.28,9.48,8.06,20.96,11.79,32.92,7.51,8-2.86,16.68-7.72,22.8-14.28.21-.06.42-.11.62-.17,4.31,7.24,9.88,13.37,16.44,17.45,15.83,9.86,37.53,8.56,50.96-5.24.16-.16.31-.34.47-.51,3.99,3.26,8.6,5.62,13.5,6.61,8.56,1.73,16.57-.28,23.77-4.35,1.3-.73,2.57-1.53,3.82-2.38Z"/>
      <path class="cls-4" d="m438,43.1v-.82c-4.48.61-8.8,2.24-12.64,4.85,1.01,2.41,1.82,4.92,2.47,7.48.15.02.31.04.46.06,2.69-4.35,5.95-8.29,9.71-11.56Z"/>
      <path class="cls-6" d="m437.8,51.23s-.09.03-.13.04c-1.23.55-2.47,1.1-3.7,1.65l-.05.02s-.08.05-.11.07c-.18.12-2.14,1.71-2.9,2.36-.85-.32-1.72-.56-2.61-.72-.15-.03-.3-.04-.46-.06-.7-.1-1.41-.17-2.13-.17-1.37.2-2.75.39-4.12.59-2.63.78-4.91,2.19-6.84,4.22-.81,1.11-1.62,2.22-2.42,3.32-.52.87-.93,1.78-1.23,2.72-.41,1.02-.81,2.04-1.22,3.06-.65,2.18-.74,4.36-.28,6.55.09,2.18.71,4.22,1.84,6.1.97,1.91,2.3,3.45,3.99,4.61,1.5,1.45,3.25,2.43,5.27,2.94,1.41.57,3,.68,4.51.64,2.94-.07,5.51-.75,8.06-2.33,1.28-.79,2.5-1.82,3.58-2.99.38.18.76.33,1.15.46v-33.14c-.07.02-.14.03-.2.05Z"/>
      <path class="cls-6" d="m163.12,174.54c5.13-2.68,7.94-7.26,8.77-12.3,2.21-1.36,4.12-3.3,5.48-5.75.46-.84.83-1.71,1.13-2.59,2.57-2.2,4.64-5.18,5.88-8.48.59-1.57.88-3.22.93-4.89.23-.14.45-.3.67-.45,3.05-.87,5.96-2.46,8.45-4.64,1.35-.74,2.63-1.72,3.79-2.95.81-.86,1.51-1.84,2.1-2.89,1.54.56,3.15.87,4.77.87h.63c1.99,0,3.86-.41,5.56-1.13.35.13.69.28,1.06.39,1.37.2,2.75.39,4.12.59,2.51,0,4.87-.62,7.07-1.81.25.2.5.42.77.6,1.5,1.45,3.25,2.43,5.27,2.94.4.17.79.29,1.22.37,1.37.2,2.75.39,4.12.59h.14c.09.02.18.02.27.01.04,0,.09,0,.13-.01,1.37-.2,2.75-.39,4.12-.59.08-.02.16-.04.25-.06.04-.02.08-.03.12-.05,1.23-.55,2.47-1.1,3.7-1.65.67-.41,1-.77,1.78-1.42.21-.17,1.23-.9,1.71-1.42.28-.3,2.29-3.04,2.5-3.41.37-.66.44-1.06.85-2.08.49-1.23.62-1.33.81-2.08.05-.21.56-4.23.56-4.45,0-.11-.12-1.16-.26-2.21.69-.48,1.33-1.02,1.93-1.66,3.94.83,8.2.54,11.69-.71,2.38-.85,4.65-2.08,6.68-3.63,3.68.9,7.5,1.16,11.22.76,2.61.67,5.22.64,7.83-.1.18-.08.36-.16.54-.24,6.52.99,13.22.04,18.55-3.31,7.74-4.86,13.49-14.05,12.88-23.67,2.29-1.56,4.25-3.54,5.77-5.92.43.33.87.66,1.34.96,3.24,2.11,6.99,3.4,10.84,3.88,4.68,3.05,10.22,4.65,15.73,4.2,10.7-.86,19.15-8.08,22.83-17.42,2.74,5.05,8.11,8.57,13.64,8.57h.63c8.69,0,15.12-7.52,15.5-16.42.29-6.79-4.2-12.79-9.96-15.24-.17-1.16-.41-2.28-.73-3.31-1.7-5.47-4.95-9.94-9.63-12.93-2.15-1.37-4.52-2.08-6.91-2.18-3.86-9.54-13.75-14.3-23.51-13.54-4.46.35-9.1,1.45-13.18,3.53-5.94.31-11.73,3.02-16.26,7.42-1.72,1.67-3.27,3.65-4.58,5.81-.07.04-.14.08-.21.13-2.27,1.47-4.14,3.37-5.64,5.53-5.64,2.45-10.57,6.98-13.73,12.49-.76,1.32-1.35,2.69-1.78,4.07-1.02,1.62-1.88,3.35-2.6,5.15-3.03-2.9-6.62-4.37-10.69-4.56-4.13-.2-8.01,1.94-10.96,4.81-.79.78-1.46,1.64-2,2.57-.96-.9-2-1.72-3.04-2.47-3.01-2.17-5.97-2.43-9.43-2.88-.22,0-.44.01-.66.02-.12,0-.24-.01-.36-.01l-.67.1c-.26.03-.52.07-.77.11-.89.13-1.78.25-2.67.38-2.63.78-4.91,2.19-6.84,4.22-.14.19-.27.37-.41.56-.24-.01-.48-.03-.72-.03-.38.05-.77.11-1.15.16-.9,0-1.79.07-2.69.28-2.06.1-3.98.75-5.76,1.95-1.81,1.03-3.26,2.44-4.35,4.23-1.37,1.59-2.29,3.45-2.77,5.58-.09.6-.56,3.84-.56,4.46,0,.05,0,.09,0,.14,0,.22.52,4.23.56,4.42,0,.03.02.06.03.1.03.12.24.68.5,1.34-.6,1.37-.99,2.8-1.21,4.28-.68.5-1.32,1.07-1.9,1.74-1.51,1.49-2.58,3.25-3.2,5.28-.97,1.96-1.42,4.06-1.33,6.33v1.08c0,.28.01.55.03.82-.15.11-.46.35-.81.64-.76-.78-1.53-1.56-2.29-2.34-1.93-2.03-4.21-3.44-6.84-4.22-1.37-.2-2.75-.39-4.12-.59-2.8,0-5.41.76-7.82,2.24-.47.38-.93.76-1.4,1.15-1.95.13-3.77.63-5.42,1.45-1.79-2.15-4-3.92-6.49-5.14-.2-.13-.39-.25-.59-.37-6.29-3.66-13.5-2.54-19.41,1.18-6.55,2.8-11.97,7.84-13.75,15.83-.04.2-.08.4-.12.61-1.13,1.59-2.06,3.29-2.75,5.12-5.34,4.25-7.57,9.68-7.57,15.26-.57,1.07-1.05,2.17-1.44,3.31-7.26,5.39-11.72,15-9.17,25.67,2.93,12.26,14.39,19.84,25.68,13.95Z"/>
      <path class="cls-6" d="m59.01,254.52c.2-.37.37-.71.53-1.05.74,1.01,1.47,2.02,2.21,3.03.04.04.07.08.11.12,1.79,2.04,4.52,3.54,7,4.32,1.4.44,2.9.66,4.35.64.05,0,.11,0,.16,0,1.37-.2,2.75-.39,4.12-.59.03,0,.05,0,.08-.01,1.38-.36,2.73-.97,3.94-1.74.05-.03.09-.06.14-.09,1.05-.86,2.09-1.71,3.14-2.57.02-.02.04-.04.06-.05,1.03-1,1.83-2.26,2.56-3.52,1.33-2.32,2.24-5.77,2.16-8.48-.01-.38-.04-.68-.09-1.01.08-.01.16-.02.24-.03,1.69-.5,3.21-1.29,4.61-2.31.59.8,1.17,1.61,1.76,2.41,1.4,1.6,3.07,2.73,4.99,3.39,1.85,1.03,3.84,1.5,5.97,1.41,2.13.09,4.12-.39,5.97-1.41,1.92-.66,3.58-1.79,4.99-3.39.34-.36.68-.72,1.02-1.08,1.92-2.05,3.25-4.46,3.99-7.24.18-1.45.37-2.91.55-4.36,0-2.96-.71-5.73-2.12-8.29-.81-1.11-1.62-2.22-2.42-3.32-1.4-1.6-3.07-2.73-4.99-3.39-1.85-1.03-3.84-1.5-5.97-1.41-2.13-.09-4.12.39-5.97,1.41-1.46.5-2.77,1.28-3.93,2.33-.13-.17-.25-.35-.4-.52-1.09-1.79-2.54-3.2-4.35-4.23-.68-.36-1.36-.72-2.04-1.08-2.42-1.49-5.03-2.23-7.82-2.24-1.37.2-2.75.39-4.12.59-2.63.78-4.91,2.19-6.84,4.22-.81,1.11-1.62,2.22-2.42,3.32-.12.2-.21.41-.32.61-.52-.22-1.04-.42-1.58-.58-1.37-.2-2.75-.39-4.12-.59-2.13-.09-4.12.39-5.97,1.41-1.92.66-3.58,1.79-4.99,3.39-1.51,1.49-2.58,3.25-3.2,5.28-.2.4-.36.81-.51,1.22-1.2-.31-2.44-.48-3.73-.49-1.37.2-2.75.39-4.12.59-2.02.51-3.77,1.49-5.27,2.94-1.69,1.16-3.02,2.69-3.99,4.61-.39.65-.7,1.33-.96,2.01l-.06.08c-1.4,2.56-2.11,5.32-2.12,8.29.13,1.02.26,2.04.39,3.06.06.43.11.87.17,1.3.48,2.14,1.4,4,2.77,5.58,1.09,1.79,2.54,3.2,4.35,4.23,1.78,1.2,3.7,1.85,5.76,1.95,2.06.49,4.12.39,6.18-.29.63-.22,1.21-.44,1.76-.67,2.13-.9,3.73-1.97,5.62-3.86,1.1-1.11,2.05-2.44,2.8-3.84Z"/>
      <path class="cls-6" d="m290.29,251.24c1.14.63,2.74,1.34,3.97,1.74-.66-.21,3.06.61,4.42.6,1.48,0,3.02-.17,4.43-.64.11-.03.21-.06.31-.11,1.23-.55,2.47-1.1,3.7-1.66.75-.41,1.28-.96,2-1.55.78-.64,1.27-.97,1.86-1.59,1.02-1.07,1.97-2.32,2.64-3.69.52-1.31,1.04-2.61,1.56-3.92.04-.11.07-.22.09-.33-.03.1.6-3.42.58-4.89-.08-.82-.18-1.63-.3-2.44-.06-.82-.17-1.63-.33-2.43-.4-1.47-1.09-3.05-1.72-4.42-.13-.29-.26-.56-.43-.82-.98-1.57-2.14-3.08-3.3-4.51-1.93-2.03-4.21-3.44-6.84-4.22-.79-.11-1.57-.22-2.36-.34-.02-.24-.03-.47-.06-.71-1.16-9.17-7.58-16.61-15.78-19.52-4.8-1.7-9.71-1.38-14.43,0-3.43-1.24-7.21-1.67-11.2-1.11-8.16,1.16-14.66,6.05-19.48,12.65-.15-.37-.3-.74-.44-1.11-.85-1.67-2.01-3-3.48-4.01-1.3-1.26-2.83-2.12-4.59-2.56-1.79-.6-3.59-.68-5.38-.26-1.8.09-3.47.65-5.02,1.7-.68.37-1.36.73-2.04,1.1-2.03,1.27-3.64,2.98-4.84,5.13-.45,1.14-.91,2.28-1.36,3.42-.13.49-.22.99-.3,1.48-5.88-3.22-12.27-2.97-18.67-1.64-5.06,1.05-8.92,4.37-11.03,8.73-.17.1-.35.19-.52.3-.91.75-1.82,1.49-2.73,2.24-1.67,1.78-2.83,3.89-3.47,6.31-.16,1.27-.32,2.53-.48,3.8-.07,1.97.32,3.8,1.16,5.51.54,1.77,1.47,3.31,2.79,4.6,1.22,1.39,2.67,2.38,4.34,2.96.3.17.61.3.91.43,2.17,2.44,5.29,4.05,9.4,4.05,1.27,0,2.44-.16,3.52-.44,1.79.48,3.69.53,5.52.27.02,0,.04.02.06.03,1.61.9,3.34,1.31,5.2,1.23h2.04c2.44,0,4.71-.66,6.81-1.95.35-.28.7-.57,1.04-.85,1.81,1.56,3.52,2.63,5.95,3.34,2.07.6,3.54.66,5.19.48,1.01-.04,2.02-.18,2.98-.45,1.24-.35,2.4-.87,3.5-1.52,1.48.62,3.04,1.06,4.69,1.3,6.61.94,12.95-1.97,16.7-7.8.07.98.23,1.96.52,2.94.01.06.03.1.05.16.52,1.31,1.04,2.61,1.56,3.92.01.02.02.05.04.07.64,1.26,1.55,2.47,2.56,3.48,1.99,1.99,4.53,3.77,7.25,4.39,1.37.2,2.75.39,4.12.59.03,0,.05,0,.08,0,.04,0,.09,0,.13,0,1.37-.2,2.75-.39,4.12-.59.03,0,.05,0,.08-.01.04-.01.08-.03.12-.04,1.23-.55,2.47-1.1,3.7-1.66.02,0,.05-.02.07-.04.02-.01.04-.03.06-.04,1.05-.86,2.09-1.71,3.14-2.57,1.01-1.01,1.86-2.21,2.56-3.48.18-.32.32-.65.48-.98.88.82,1.79,1.52,2.58,1.96Z"/>
      <path class="cls-8" d="m438,633.42h0c.26-.1.53-.2.79-.31-.26.11-.53.2-.79.31Z"/>
      <path class="cls-2" d="m438,633.42h0c.26-.1.53-.2.79-.31-.26.11-.53.2-.79.31Z"/>
      <path class="cls-1" d="m439.14,42.13c-.38.04-.76.09-1.14.14h0c.38-.05.76-.1,1.14-.14Z"/>
      <path class="cls-2" d="m439.14,42.13c-.38.04-.76.09-1.14.14h0c.38-.05.76-.1,1.14-.14Z"/>
      <path class="cls-4" d="m438,43.1c.38-.33.75-.66,1.14-.97h0s0,0,0,0c-.38.04-.76.09-1.14.15v.82Z"/>
      <path class="cls-2" d="m438,43.1c.38-.33.75-.66,1.14-.97h0s0,0,0,0c-.38.04-.76.09-1.14.15v.82Z"/>
      <rect class="cls-3" width="439" height="645"/>
    </g>
  </g>
</svg>